<svg xmlns="http://www.w3.org/2000/svg" width="388.047" height="334" viewBox="0 0 388.047 334">
  <g id="Grupo_5336" data-name="Grupo 5336" transform="translate(-346.953 -1874)">
    <text id="El_objetivo_de_los_estados_financieros." data-name="El objetivo de los estados financieros." transform="translate(413 1882)" fill="#00223d" font-size="18" font-family="OpenSans, Open Sans"><tspan x="0" y="19">El objetivo de los estados financieros.</tspan></text>
    <text id="Las_características_cualitativas_que_determinan_la_utilidad_de_la_información_en_los_estados_financieros." data-name="Las características cualitativas que determinan la utilidad de la información en los estados financieros." transform="translate(413 1924)" fill="#00223d" font-size="18" font-family="OpenSans, Open Sans"><tspan x="0" y="19">Las características cualitativas que </tspan><tspan x="0" y="43">determinan la utilidad de la </tspan><tspan x="0" y="67">información en los estados </tspan><tspan x="0" y="91">financieros.</tspan></text>
    <text id="La_definición_reconocimiento_y_valoración_que_constituyen_los_estados_financieros_construidos._" data-name="La definición, reconocimiento y valoración que constituyen los estados financieros construidos.
" transform="translate(413 2034)" fill="#00223d" font-size="18" font-family="OpenSans, Open Sans"><tspan x="0" y="19">La definición, reconocimiento y </tspan><tspan x="0" y="43">valoración que constituyen los </tspan><tspan x="0" y="67">estados financieros construidos.</tspan></text>
    <text id="Los_conceptos_de_capital_y_de_mantenimiento_del_capital._" data-name="Los conceptos de capital y de mantenimiento del capital. " transform="translate(413 2130)" fill="#00223d" font-size="18" font-family="OpenSans, Open Sans"><tspan x="0" y="19">Los conceptos de capital y de </tspan><tspan x="0" y="43">mantenimiento del capital. </tspan></text>
    <path id="Trazado_6596" data-name="Trazado 6596" d="M195.845,36.279l6.429.429a1.388,1.388,0,0,1,1.164.812l.64,1.51a1.4,1.4,0,0,0,.742.7,18.956,18.956,0,0,1,2.341,1.158,1.369,1.369,0,0,0,1.011.16l1.612-.377a1.375,1.375,0,0,1,1.35.435l4.241,4.849a1.356,1.356,0,0,1,.249,1.395l-.557,1.542a1.414,1.414,0,0,0,0,1.023,18.165,18.165,0,0,1,.889,2.482,1.382,1.382,0,0,0,.6.825l1.407.87a1.388,1.388,0,0,1,.64,1.279l-.429,6.429a1.362,1.362,0,0,1-.832,1.164l-1.5.64a1.388,1.388,0,0,0-.71.742,18.958,18.958,0,0,1-1.158,2.341,1.369,1.369,0,0,0-.16,1.011l.377,1.612a1.382,1.382,0,0,1-.435,1.35l-4.836,4.26a1.388,1.388,0,0,1-1.395.249l-1.548-.589a1.382,1.382,0,0,0-1.024,0,19.332,19.332,0,0,1-2.469.838,1.375,1.375,0,0,0-.832.6l-.87,1.407a1.388,1.388,0,0,1-1.279.64l-6.4-.429a1.375,1.375,0,0,1-1.164-.812l-.678-1.51a1.4,1.4,0,0,0-.742-.7,18.954,18.954,0,0,1-2.341-1.158,1.369,1.369,0,0,0-1.011-.128l-1.612.377a1.382,1.382,0,0,1-1.35-.435l-4.241-4.849a1.388,1.388,0,0,1-.249-1.395l.589-1.548a1.414,1.414,0,0,0,0-1.023,19.089,19.089,0,0,1-.838-2.476,1.363,1.363,0,0,0-.6-.825l-1.4-.87a1.382,1.382,0,0,1-.64-1.279l.429-6.4A1.388,1.388,0,0,1,178,51.452l1.49-.7a1.388,1.388,0,0,0,.71-.742,18.959,18.959,0,0,1,1.158-2.341,1.382,1.382,0,0,0,.16-1.017l-.365-1.6a1.375,1.375,0,0,1,.435-1.35l4.849-4.241a1.369,1.369,0,0,1,1.395-.249l1.548.589a1.414,1.414,0,0,0,1.024,0,19.088,19.088,0,0,1,2.476-.838,1.382,1.382,0,0,0,.825-.6l.876-1.407a1.375,1.375,0,0,1,1.26-.678Zm-10.331,20.1a12.154,12.154,0,1,0,4.136-8.355,12.192,12.192,0,0,0-4.136,8.355Z" transform="translate(170.13 1837.723)" fill="#0d47a1"/>
    <path id="Trazado_6597" data-name="Trazado 6597" d="M195.845,36.279l6.429.429a1.388,1.388,0,0,1,1.164.812l.64,1.51a1.4,1.4,0,0,0,.742.7,18.956,18.956,0,0,1,2.341,1.158,1.369,1.369,0,0,0,1.011.16l1.612-.377a1.375,1.375,0,0,1,1.35.435l4.241,4.849a1.356,1.356,0,0,1,.249,1.395l-.557,1.542a1.414,1.414,0,0,0,0,1.023,18.165,18.165,0,0,1,.889,2.482,1.382,1.382,0,0,0,.6.825l1.407.87a1.388,1.388,0,0,1,.64,1.279l-.429,6.429a1.362,1.362,0,0,1-.832,1.164l-1.5.64a1.388,1.388,0,0,0-.71.742,18.958,18.958,0,0,1-1.158,2.341,1.369,1.369,0,0,0-.16,1.011l.377,1.612a1.382,1.382,0,0,1-.435,1.35l-4.836,4.26a1.388,1.388,0,0,1-1.395.249l-1.548-.589a1.382,1.382,0,0,0-1.024,0,19.332,19.332,0,0,1-2.469.838,1.375,1.375,0,0,0-.832.6l-.87,1.407a1.388,1.388,0,0,1-1.279.64l-6.4-.429a1.375,1.375,0,0,1-1.164-.812l-.678-1.51a1.4,1.4,0,0,0-.742-.7,18.954,18.954,0,0,1-2.341-1.158,1.369,1.369,0,0,0-1.011-.128l-1.612.377a1.382,1.382,0,0,1-1.35-.435l-4.241-4.849a1.388,1.388,0,0,1-.249-1.395l.589-1.548a1.414,1.414,0,0,0,0-1.023,19.089,19.089,0,0,1-.838-2.476,1.363,1.363,0,0,0-.6-.825l-1.4-.87a1.382,1.382,0,0,1-.64-1.279l.429-6.4A1.388,1.388,0,0,1,178,51.452l1.49-.7a1.388,1.388,0,0,0,.71-.742,18.959,18.959,0,0,1,1.158-2.341,1.382,1.382,0,0,0,.16-1.017l-.365-1.6a1.375,1.375,0,0,1,.435-1.35l4.849-4.241a1.369,1.369,0,0,1,1.395-.249l1.548.589a1.414,1.414,0,0,0,1.024,0,19.088,19.088,0,0,1,2.476-.838,1.382,1.382,0,0,0,.825-.6l.876-1.407a1.375,1.375,0,0,1,1.26-.678Zm-10.331,20.1a12.154,12.154,0,1,0,4.136-8.355,12.192,12.192,0,0,0-4.136,8.355Z" transform="translate(170.13 1908.723)" fill="#0d47a1"/>
    <path id="Trazado_6598" data-name="Trazado 6598" d="M195.845,36.279l6.429.429a1.388,1.388,0,0,1,1.164.812l.64,1.51a1.4,1.4,0,0,0,.742.7,18.956,18.956,0,0,1,2.341,1.158,1.369,1.369,0,0,0,1.011.16l1.612-.377a1.375,1.375,0,0,1,1.35.435l4.241,4.849a1.356,1.356,0,0,1,.249,1.395l-.557,1.542a1.414,1.414,0,0,0,0,1.023,18.165,18.165,0,0,1,.889,2.482,1.382,1.382,0,0,0,.6.825l1.407.87a1.388,1.388,0,0,1,.64,1.279l-.429,6.429a1.362,1.362,0,0,1-.832,1.164l-1.5.64a1.388,1.388,0,0,0-.71.742,18.958,18.958,0,0,1-1.158,2.341,1.369,1.369,0,0,0-.16,1.011l.377,1.612a1.382,1.382,0,0,1-.435,1.35l-4.836,4.26a1.388,1.388,0,0,1-1.395.249l-1.548-.589a1.382,1.382,0,0,0-1.024,0,19.332,19.332,0,0,1-2.469.838,1.375,1.375,0,0,0-.832.6l-.87,1.407a1.388,1.388,0,0,1-1.279.64l-6.4-.429a1.375,1.375,0,0,1-1.164-.812l-.678-1.51a1.4,1.4,0,0,0-.742-.7,18.954,18.954,0,0,1-2.341-1.158,1.369,1.369,0,0,0-1.011-.128l-1.612.377a1.382,1.382,0,0,1-1.35-.435l-4.241-4.849a1.388,1.388,0,0,1-.249-1.395l.589-1.548a1.414,1.414,0,0,0,0-1.023,19.089,19.089,0,0,1-.838-2.476,1.363,1.363,0,0,0-.6-.825l-1.4-.87a1.382,1.382,0,0,1-.64-1.279l.429-6.4A1.388,1.388,0,0,1,178,51.452l1.49-.7a1.388,1.388,0,0,0,.71-.742,18.959,18.959,0,0,1,1.158-2.341,1.382,1.382,0,0,0,.16-1.017l-.365-1.6a1.375,1.375,0,0,1,.435-1.35l4.849-4.241a1.369,1.369,0,0,1,1.395-.249l1.548.589a1.414,1.414,0,0,0,1.024,0,19.088,19.088,0,0,1,2.476-.838,1.382,1.382,0,0,0,.825-.6l.876-1.407a1.375,1.375,0,0,1,1.26-.678Zm-10.331,20.1a12.154,12.154,0,1,0,4.136-8.355,12.192,12.192,0,0,0-4.136,8.355Z" transform="translate(170.13 1994.723)" fill="#0d47a1"/>
    <path id="Trazado_6599" data-name="Trazado 6599" d="M195.845,36.279l6.429.429a1.388,1.388,0,0,1,1.164.812l.64,1.51a1.4,1.4,0,0,0,.742.7,18.956,18.956,0,0,1,2.341,1.158,1.369,1.369,0,0,0,1.011.16l1.612-.377a1.375,1.375,0,0,1,1.35.435l4.241,4.849a1.356,1.356,0,0,1,.249,1.395l-.557,1.542a1.414,1.414,0,0,0,0,1.023,18.165,18.165,0,0,1,.889,2.482,1.382,1.382,0,0,0,.6.825l1.407.87a1.388,1.388,0,0,1,.64,1.279l-.429,6.429a1.362,1.362,0,0,1-.832,1.164l-1.5.64a1.388,1.388,0,0,0-.71.742,18.958,18.958,0,0,1-1.158,2.341,1.369,1.369,0,0,0-.16,1.011l.377,1.612a1.382,1.382,0,0,1-.435,1.35l-4.836,4.26a1.388,1.388,0,0,1-1.395.249l-1.548-.589a1.382,1.382,0,0,0-1.024,0,19.332,19.332,0,0,1-2.469.838,1.375,1.375,0,0,0-.832.6l-.87,1.407a1.388,1.388,0,0,1-1.279.64l-6.4-.429a1.375,1.375,0,0,1-1.164-.812l-.678-1.51a1.4,1.4,0,0,0-.742-.7,18.954,18.954,0,0,1-2.341-1.158,1.369,1.369,0,0,0-1.011-.128l-1.612.377a1.382,1.382,0,0,1-1.35-.435l-4.241-4.849a1.388,1.388,0,0,1-.249-1.395l.589-1.548a1.414,1.414,0,0,0,0-1.023,19.089,19.089,0,0,1-.838-2.476,1.363,1.363,0,0,0-.6-.825l-1.4-.87a1.382,1.382,0,0,1-.64-1.279l.429-6.4A1.388,1.388,0,0,1,178,51.452l1.49-.7a1.388,1.388,0,0,0,.71-.742,18.959,18.959,0,0,1,1.158-2.341,1.382,1.382,0,0,0,.16-1.017l-.365-1.6a1.375,1.375,0,0,1,.435-1.35l4.849-4.241a1.369,1.369,0,0,1,1.395-.249l1.548.589a1.414,1.414,0,0,0,1.024,0,19.088,19.088,0,0,1,2.476-.838,1.382,1.382,0,0,0,.825-.6l.876-1.407a1.375,1.375,0,0,1,1.26-.678Zm-10.331,20.1a12.154,12.154,0,1,0,4.136-8.355,12.192,12.192,0,0,0-4.136,8.355Z" transform="translate(170.13 2090.723)" fill="#0d47a1"/>
  </g>
</svg>
