<svg xmlns="http://www.w3.org/2000/svg" width="699.293" height="487.819" viewBox="0 0 699.293 487.819">
  <g id="Grupo_5336" data-name="Grupo 5336" transform="translate(-441.258 16.372)">
    <g id="Grupo_5335" data-name="Grupo 5335">
      <path id="Trazado_7759" data-name="Trazado 7759" d="M-1509.047-7546.3c104.04,142.926,175.165,94.851,237.367,67.049s139.166-81.767,184.386-34.038,63.518,117.62,154.02,55.015,65.039-84.441,0-147.759,21.865-210.729-83.769-174.857-23.736,180.7-157.721,114.014-108.317-78.7-177.735-18.513-1.306,89.524-63.282,115.24S-1509.047-7546.3-1509.047-7546.3Z" transform="translate(3664.307 7374.354) rotate(-13)" fill="#fff" stroke="#707070" stroke-width="1" opacity="0.164"/>
      <g id="_3129506" data-name="3129506" transform="translate(570 56.45)" style="isolation: isolate">
        <g id="Background_Complete" data-name="Background Complete" transform="translate(0 0.05)">
          <rect id="Rectángulo_1852" data-name="Rectángulo 1852" width="488.585" height="0.244" transform="translate(0 319.925)" fill="#ebebeb"/>
          <rect id="Rectángulo_1853" data-name="Rectángulo 1853" width="8.492" height="0.244" transform="translate(315.166 338.306)" fill="#ebebeb"/>
          <rect id="Rectángulo_1854" data-name="Rectángulo 1854" width="22.651" height="0.244" transform="translate(146.614 326.159)" fill="#ebebeb"/>
          <rect id="Rectángulo_1855" data-name="Rectángulo 1855" width="55.376" height="0.244" transform="translate(392.92 331.397)" fill="#ebebeb"/>
          <rect id="Rectángulo_1856" data-name="Rectángulo 1856" width="55.376" height="0.244" transform="translate(41.745 331.397)" fill="#ebebeb"/>
          <path id="Trazado_6062" data-name="Trazado 6062" d="M232.461,331.343H43.78a5.58,5.58,0,0,1-5.57-5.58V60.531A5.58,5.58,0,0,1,43.78,55H232.461a5.58,5.58,0,0,1,5.58,5.58V325.764A5.58,5.58,0,0,1,232.461,331.343ZM43.78,55.2a5.335,5.335,0,0,0-5.326,5.335V325.764A5.335,5.335,0,0,0,43.78,331.1H232.461a5.345,5.345,0,0,0,5.335-5.335V60.531a5.345,5.345,0,0,0-5.335-5.335Z" transform="translate(-0.872 -55)" fill="#ebebeb"/>
          <path id="Trazado_6063" data-name="Trazado 6063" d="M448.771,331.343H260.08a5.589,5.589,0,0,1-5.58-5.58V60.531A5.589,5.589,0,0,1,260.08,55H448.771a5.58,5.58,0,0,1,5.56,5.531V325.764A5.58,5.58,0,0,1,448.771,331.343ZM260.08,55.2a5.345,5.345,0,0,0-5.335,5.335V325.764a5.345,5.345,0,0,0,5.335,5.335H448.771a5.345,5.345,0,0,0,5.335-5.335V60.531a5.345,5.345,0,0,0-5.335-5.335Z" transform="translate(-5.81 -55)" fill="#ebebeb"/>
          <rect id="Rectángulo_1857" data-name="Rectángulo 1857" width="259.458" height="140.937" transform="translate(370.171 177.219) rotate(180)" fill="#e6e6e6"/>
          <rect id="Rectángulo_1858" data-name="Rectángulo 1858" width="259.458" height="140.937" transform="translate(367.22 177.219) rotate(180)" fill="#f5f5f5"/>
          <rect id="Rectángulo_1859" data-name="Rectángulo 1859" width="129.055" height="248.875" transform="translate(361.934 42.223) rotate(90)" fill="#d3a518" opacity="0.584"/>
          <rect id="Rectángulo_1860" data-name="Rectángulo 1860" width="129.055" height="2.228" transform="translate(115.286 42.233) rotate(90)" fill="#e6e6e6"/>
          <rect id="Rectángulo_1861" data-name="Rectángulo 1861" width="255.08" height="7.974" transform="translate(365.031 148.686) rotate(180)" fill="#f5f5f5"/>
          <rect id="Rectángulo_1862" data-name="Rectángulo 1862" width="255.08" height="7.974" transform="translate(365.031 80.929) rotate(180)" fill="#f5f5f5"/>
          <path id="Trazado_6064" data-name="Trazado 6064" d="M104.371,82.07H378.3a.821.821,0,0,1,.811.821h0a.811.811,0,0,1-.811.811H104.371a.821.821,0,0,1-.821-.811h0a.831.831,0,0,1,.821-.821Z" transform="translate(-2.364 -55.618)" fill="#e6e6e6"/>
          <path id="Trazado_6065" data-name="Trazado 6065" d="M99.39,82.815a4.065,4.065,0,1,0,1.187-2.881,4.075,4.075,0,0,0-1.187,2.881Z" transform="translate(-2.269 -55.542)" fill="#e6e6e6"/>
          <path id="Trazado_6066" data-name="Trazado 6066" d="M377.674,87.463h0a1.094,1.094,0,0,0,1.094-1.094V83.974a1.094,1.094,0,0,0-1.094-1.094h0a1.1,1.1,0,0,0-1.1,1.094v2.365a1.1,1.1,0,0,0,1.1,1.124Z" transform="translate(-8.598 -55.637)" fill="#e6e6e6"/>
          <path id="Trazado_6067" data-name="Trazado 6067" d="M116.973,87.464h0a1.1,1.1,0,0,0,1.1-1.094V83.975a1.1,1.1,0,0,0-1.1-1.065h0a1.094,1.094,0,0,0-1.143,1.065V86.34a1.094,1.094,0,0,0,1.143,1.124Z" transform="translate(-2.645 -55.637)" fill="#e6e6e6"/>
          <rect id="Rectángulo_1863" data-name="Rectángulo 1863" width="262.771" height="29.589" transform="translate(365.041 56.861) rotate(180)" fill="#e0e0e0" opacity="0.5"/>
          <circle id="Elipse_578" data-name="Elipse 578" cx="4.075" cy="4.075" r="4.075" transform="translate(351.898 23.188)" fill="#e6e6e6"/>
          <rect id="Rectángulo_1864" data-name="Rectángulo 1864" width="16.671" height="111.436" transform="translate(305.805 319.925) rotate(180)" fill="#e6e6e6"/>
          <path id="Trazado_6068" data-name="Trazado 6068" d="M300.277,327.1H295.89V311.92h8.98Z" transform="translate(-6.755 -7.17)" fill="#f0f0f0"/>
          <rect id="Rectángulo_1865" data-name="Rectángulo 1865" width="16.671" height="111.436" transform="translate(441.182 319.925) rotate(180)" fill="#e6e6e6"/>
          <rect id="Rectángulo_1866" data-name="Rectángulo 1866" width="139.198" height="102.124" transform="translate(428.332 310.613) rotate(180)" fill="#d3a518" opacity="0.686"/>
          <path id="Trazado_7758" data-name="Trazado 7758" d="M0,0H132.4V28.006H0Z" transform="translate(424.932 241.009) rotate(180)" fill="#e6e6e6"/>
          <path id="Trazado_6069" data-name="Trazado 6069" d="M325.986,281.667h76.952c4.27,0,8.365-3.449,11.306-9.557H314.68C317.621,278.217,321.706,281.667,325.986,281.667Z" transform="translate(-7.184 -59.957)" fill="#f0f0f0"/>
          <path id="Trazado_6070" data-name="Trazado 6070" d="M433.752,327.1h4.378V311.92h-8.98Z" transform="translate(-9.798 -7.17)" fill="#f0f0f0"/>
          <rect id="Rectángulo_1868" data-name="Rectángulo 1868" width="132.397" height="28.006" transform="translate(424.932 273.549) rotate(180)" fill="#e6e6e6"/>
          <path id="Trazado_6071" data-name="Trazado 6071" d="M325.986,314.967h76.952c4.27,0,8.365-3.459,11.306-9.557H314.68C317.621,311.508,321.706,314.967,325.986,314.967Z" transform="translate(-7.184 -60.717)" fill="#f0f0f0"/>
          <rect id="Rectángulo_1869" data-name="Rectángulo 1869" width="132.397" height="28.006" transform="translate(424.932 306.088) rotate(180)" fill="#e6e6e6"/>
          <path id="Trazado_6072" data-name="Trazado 6072" d="M325.986,348.257h76.952c4.27,0,8.365-3.459,11.306-9.557H314.68C317.621,344.8,321.706,348.257,325.986,348.257Z" transform="translate(-7.184 -61.477)" fill="#f0f0f0"/>
          <path id="Trazado_6073" data-name="Trazado 6073" d="M399.217,209.965c-2.638-8.882,30.224-53.324,44.647-52s-10.935,55.239-18.723,60.008C416.356,223.362,402.089,219.629,399.217,209.965Z" transform="translate(-9.111 -57.35)" fill="#f5f5f5" opacity="0.712"/>
          <path id="Trazado_6074" data-name="Trazado 6074" d="M397.289,224.093c-1.27-4.534,21.7-11.912,30.83-6.567s-9.508,19.113-14.658,18.488C407.588,235.311,398.677,229.028,397.289,224.093Z" transform="translate(-9.069 -58.668)" fill="#f5f5f5"/>
          <path id="Trazado_6075" data-name="Trazado 6075" d="M424.978,219.162c3.176-5.961-20.218-40.777-32.686-41.422s3.547,40.064,9.693,44.236C408.933,226.716,421.509,225.641,424.978,219.162Z" transform="translate(-8.851 -57.802)" fill="#f5f5f5"/>
          <path id="Trazado_6076" data-name="Trazado 6076" d="M413.467,201.17h-.049a2.453,2.453,0,0,0-2.462,2.081,215.951,215.951,0,0,0-.977,55.464,2.443,2.443,0,0,0,2.384,2.16h.049a2.433,2.433,0,0,0,2.453-2.707,215.508,215.508,0,0,1,.967-54.233,2.423,2.423,0,0,0-2.365-2.765Z" transform="translate(-9.33 -58.337)" fill="#ebebeb"/>
          <path id="Trazado_6077" data-name="Trazado 6077" d="M411.29,267.939h0c8.638,0,15.918-5.081,17.687-11.97a27.925,27.925,0,0,1,1.847-5.345l.137-.283H391.62l.137.283a27.921,27.921,0,0,1,1.847,5.345C395.372,262.858,402.662,267.939,411.29,267.939Z" transform="translate(-8.941 -59.46)" fill="#fafafa"/>
          <path id="Trazado_6078" data-name="Trazado 6078" d="M391.484,251.947H431.02c1.1,0,2.062-1.075,2.335-2.619h0c.391-2.218-.762-4.368-2.335-4.368H391.484c-1.573,0-2.726,2.15-2.326,4.368h0C389.432,250.862,390.389,251.947,391.484,251.947Z" transform="translate(-8.883 -59.337)" fill="#f0f0f0"/>
          <rect id="Rectángulo_1870" data-name="Rectángulo 1870" width="48.673" height="70.2" transform="translate(212.143 249.716)" fill="#3d75f5" opacity="0.461"/>
          <rect id="Rectángulo_1871" data-name="Rectángulo 1871" width="144.758" height="70.2" transform="translate(212.153 319.915) rotate(180)" fill="#3d75f5" opacity="0.408"/>
          <rect id="Rectángulo_1872" data-name="Rectángulo 1872" width="30.605" height="31.162" transform="translate(110.713 304.378) rotate(180)" fill="#fafafa"/>
          <rect id="Rectángulo_1873" data-name="Rectángulo 1873" width="30.605" height="31.162" transform="translate(152.262 304.378) rotate(180)" fill="#fafafa"/>
          <rect id="Rectángulo_1874" data-name="Rectángulo 1874" width="193.939" height="3.997" transform="translate(66.877 257.191)" fill="#e6e6e6" opacity="0.7" style="mix-blend-mode: multiply;isolation: isolate"/>
          <rect id="Rectángulo_1875" data-name="Rectángulo 1875" width="51.36" height="11.579" transform="translate(212.143 247.302)" fill="#f0f0f0"/>
          <rect id="Rectángulo_1876" data-name="Rectángulo 1876" width="147.445" height="11.579" transform="translate(212.153 258.872) rotate(180)" fill="#f5f5f5"/>
          <path id="Trazado_6079" data-name="Trazado 6079" d="M108.9,287.91s.928,19.71,36.448,19.71S181.8,287.91,181.8,287.91Z" transform="translate(-2.486 -60.318)" fill="#f0f0f0"/>
          <path id="Trazado_6080" data-name="Trazado 6080" d="M108.9,274.55s.928,19.709,36.448,19.709S181.8,274.55,181.8,274.55Z" transform="translate(-2.486 -60.013)" fill="#f0f0f0"/>
        </g>
        <g id="Shadow" transform="translate(-37.646 341.981)" opacity="0.267">
          <ellipse id="_Path_" data-name="&lt;Path&gt;" cx="270.18" cy="11.062" rx="270.18" ry="11.062" fill="#3d75f5"/>
        </g>
        <g id="Coins" transform="translate(84.359 205.363)">
          <rect id="Rectángulo_1877" data-name="Rectángulo 1877" width="95.948" height="18.058" transform="translate(6.664 126.397)" fill="#e1f099"/>
          <rect id="Rectángulo_1878" data-name="Rectángulo 1878" width="95.948" height="2.052" transform="translate(6.664 126.397)" opacity="0.2"/>
          <rect id="Rectángulo_1879" data-name="Rectángulo 1879" width="3.782" height="18.058" transform="translate(13.69 126.397)" opacity="0.2"/>
          <rect id="Rectángulo_1880" data-name="Rectángulo 1880" width="3.782" height="18.058" transform="translate(22.367 126.397)" opacity="0.2"/>
          <rect id="Rectángulo_1881" data-name="Rectángulo 1881" width="3.782" height="18.058" transform="translate(31.054 126.397)" opacity="0.2"/>
          <rect id="Rectángulo_1882" data-name="Rectángulo 1882" width="3.782" height="18.058" transform="translate(39.732 126.397)" opacity="0.2"/>
          <rect id="Rectángulo_1883" data-name="Rectángulo 1883" width="3.782" height="18.058" transform="translate(48.409 126.397)" opacity="0.2"/>
          <rect id="Rectángulo_1884" data-name="Rectángulo 1884" width="3.782" height="18.058" transform="translate(57.096 126.397)" opacity="0.2"/>
          <rect id="Rectángulo_1885" data-name="Rectángulo 1885" width="3.782" height="18.058" transform="translate(65.773 126.397)" opacity="0.2"/>
          <rect id="Rectángulo_1886" data-name="Rectángulo 1886" width="3.782" height="18.058" transform="translate(74.451 126.397)" opacity="0.2"/>
          <rect id="Rectángulo_1887" data-name="Rectángulo 1887" width="3.782" height="18.058" transform="translate(83.138 126.397)" opacity="0.2"/>
          <rect id="Rectángulo_1888" data-name="Rectángulo 1888" width="3.782" height="18.058" transform="translate(91.815 126.397)" opacity="0.2"/>
          <rect id="Rectángulo_1889" data-name="Rectángulo 1889" width="95.948" height="18.058" transform="translate(2.765 108.339)" fill="#e1f099"/>
          <rect id="Rectángulo_1890" data-name="Rectángulo 1890" width="95.948" height="2.052" transform="translate(2.765 108.339)" opacity="0.2"/>
          <rect id="Rectángulo_1891" data-name="Rectángulo 1891" width="3.782" height="18.058" transform="translate(9.781 108.339)" opacity="0.2"/>
          <rect id="Rectángulo_1892" data-name="Rectángulo 1892" width="3.782" height="18.058" transform="translate(18.468 108.339)" opacity="0.2"/>
          <rect id="Rectángulo_1893" data-name="Rectángulo 1893" width="3.782" height="18.058" transform="translate(27.146 108.339)" opacity="0.2"/>
          <rect id="Rectángulo_1894" data-name="Rectángulo 1894" width="3.782" height="18.058" transform="translate(35.823 108.339)" opacity="0.2"/>
          <rect id="Rectángulo_1895" data-name="Rectángulo 1895" width="3.782" height="18.058" transform="translate(44.51 108.339)" opacity="0.2"/>
          <rect id="Rectángulo_1896" data-name="Rectángulo 1896" width="3.782" height="18.058" transform="translate(53.187 108.339)" opacity="0.2"/>
          <rect id="Rectángulo_1897" data-name="Rectángulo 1897" width="3.782" height="18.058" transform="translate(61.865 108.339)" opacity="0.2"/>
          <rect id="Rectángulo_1898" data-name="Rectángulo 1898" width="3.782" height="18.058" transform="translate(70.552 108.339)" opacity="0.2"/>
          <rect id="Rectángulo_1899" data-name="Rectángulo 1899" width="3.782" height="18.058" transform="translate(79.229 108.339)" opacity="0.2"/>
          <rect id="Rectángulo_1900" data-name="Rectángulo 1900" width="3.782" height="18.058" transform="translate(87.906 108.339)" opacity="0.2"/>
          <rect id="Rectángulo_1901" data-name="Rectángulo 1901" width="95.948" height="18.058" transform="translate(0 90.281)" fill="#e1f099"/>
          <rect id="Rectángulo_1902" data-name="Rectángulo 1902" width="95.948" height="2.052" transform="translate(0 90.281)" opacity="0.2"/>
          <rect id="Rectángulo_1903" data-name="Rectángulo 1903" width="3.782" height="18.058" transform="translate(7.026 90.281)" opacity="0.2"/>
          <rect id="Rectángulo_1904" data-name="Rectángulo 1904" width="3.782" height="18.058" transform="translate(15.703 90.281)" opacity="0.2"/>
          <rect id="Rectángulo_1905" data-name="Rectángulo 1905" width="3.782" height="18.058" transform="translate(24.39 90.281)" opacity="0.2"/>
          <rect id="Rectángulo_1906" data-name="Rectángulo 1906" width="3.782" height="18.058" transform="translate(33.067 90.281)" opacity="0.2"/>
          <rect id="Rectángulo_1907" data-name="Rectángulo 1907" width="3.782" height="18.058" transform="translate(41.745 90.281)" opacity="0.2"/>
          <rect id="Rectángulo_1908" data-name="Rectángulo 1908" width="3.782" height="18.058" transform="translate(50.432 90.281)" opacity="0.2"/>
          <rect id="Rectángulo_1909" data-name="Rectángulo 1909" width="3.782" height="18.058" transform="translate(59.109 90.281)" opacity="0.2"/>
          <rect id="Rectángulo_1910" data-name="Rectángulo 1910" width="3.782" height="18.058" transform="translate(67.786 90.281)" opacity="0.2"/>
          <rect id="Rectángulo_1911" data-name="Rectángulo 1911" width="3.782" height="18.058" transform="translate(76.473 90.281)" opacity="0.2"/>
          <rect id="Rectángulo_1912" data-name="Rectángulo 1912" width="3.782" height="18.058" transform="translate(85.151 90.281)" opacity="0.2"/>
          <rect id="Rectángulo_1913" data-name="Rectángulo 1913" width="95.948" height="18.058" transform="translate(4.348 72.223)" fill="#e1f099"/>
          <rect id="Rectángulo_1914" data-name="Rectángulo 1914" width="95.948" height="2.052" transform="translate(4.348 72.223)" opacity="0.2"/>
          <rect id="Rectángulo_1915" data-name="Rectángulo 1915" width="3.782" height="18.058" transform="translate(11.364 72.223)" opacity="0.2"/>
          <rect id="Rectángulo_1916" data-name="Rectángulo 1916" width="3.782" height="18.058" transform="translate(20.052 72.223)" opacity="0.2"/>
          <rect id="Rectángulo_1917" data-name="Rectángulo 1917" width="3.782" height="18.058" transform="translate(28.729 72.223)" opacity="0.2"/>
          <rect id="Rectángulo_1918" data-name="Rectángulo 1918" width="3.782" height="18.058" transform="translate(37.406 72.223)" opacity="0.2"/>
          <rect id="Rectángulo_1919" data-name="Rectángulo 1919" width="3.782" height="18.058" transform="translate(46.093 72.223)" opacity="0.2"/>
          <rect id="Rectángulo_1920" data-name="Rectángulo 1920" width="3.782" height="18.058" transform="translate(54.77 72.223)" opacity="0.2"/>
          <rect id="Rectángulo_1921" data-name="Rectángulo 1921" width="3.782" height="18.058" transform="translate(63.448 72.223)" opacity="0.2"/>
          <rect id="Rectángulo_1922" data-name="Rectángulo 1922" width="3.782" height="18.058" transform="translate(72.135 72.223)" opacity="0.2"/>
          <rect id="Rectángulo_1923" data-name="Rectángulo 1923" width="3.782" height="18.058" transform="translate(80.812 72.223)" opacity="0.2"/>
          <rect id="Rectángulo_1924" data-name="Rectángulo 1924" width="3.782" height="18.058" transform="translate(89.489 72.223)" opacity="0.2"/>
          <rect id="Rectángulo_1925" data-name="Rectángulo 1925" width="95.948" height="18.058" transform="translate(96.085 72.223) rotate(180)" fill="#e1f099"/>
          <rect id="Rectángulo_1926" data-name="Rectángulo 1926" width="95.948" height="2.052" transform="translate(96.085 56.217) rotate(180)" opacity="0.2"/>
          <rect id="Rectángulo_1927" data-name="Rectángulo 1927" width="3.782" height="18.058" transform="translate(89.059 72.223) rotate(180)" opacity="0.2"/>
          <rect id="Rectángulo_1928" data-name="Rectángulo 1928" width="3.782" height="18.058" transform="translate(80.372 72.223) rotate(180)" opacity="0.2"/>
          <rect id="Rectángulo_1929" data-name="Rectángulo 1929" width="3.782" height="18.058" transform="translate(71.695 72.223) rotate(180)" opacity="0.2"/>
          <rect id="Rectángulo_1930" data-name="Rectángulo 1930" width="3.782" height="18.058" transform="translate(63.018 72.223) rotate(180)" opacity="0.2"/>
          <rect id="Rectángulo_1931" data-name="Rectángulo 1931" width="3.782" height="18.058" transform="translate(54.331 72.223) rotate(180)" opacity="0.2"/>
          <rect id="Rectángulo_1932" data-name="Rectángulo 1932" width="3.782" height="18.058" transform="translate(45.653 72.223) rotate(180)" opacity="0.2"/>
          <rect id="Rectángulo_1933" data-name="Rectángulo 1933" width="3.782" height="18.058" transform="translate(36.976 72.223) rotate(180)" opacity="0.2"/>
          <rect id="Rectángulo_1934" data-name="Rectángulo 1934" width="3.782" height="18.058" transform="translate(28.289 72.223) rotate(180)" opacity="0.2"/>
          <rect id="Rectángulo_1935" data-name="Rectángulo 1935" width="3.782" height="18.058" transform="translate(19.612 72.223) rotate(180)" opacity="0.2"/>
          <rect id="Rectángulo_1936" data-name="Rectángulo 1936" width="3.782" height="18.058" transform="translate(10.935 72.223) rotate(180)" opacity="0.2"/>
          <rect id="Rectángulo_1937" data-name="Rectángulo 1937" width="95.948" height="18.058" transform="translate(99.984 54.164) rotate(180)" fill="#e1f099"/>
          <rect id="Rectángulo_1938" data-name="Rectángulo 1938" width="95.948" height="2.052" transform="translate(99.984 38.158) rotate(180)" opacity="0.2"/>
          <rect id="Rectángulo_1939" data-name="Rectángulo 1939" width="3.782" height="18.058" transform="translate(92.958 54.164) rotate(180)" opacity="0.2"/>
          <rect id="Rectángulo_1940" data-name="Rectángulo 1940" width="3.782" height="18.058" transform="translate(84.291 54.164) rotate(180)" opacity="0.2"/>
          <rect id="Rectángulo_1941" data-name="Rectángulo 1941" width="3.782" height="18.058" transform="translate(75.604 54.164) rotate(180)" opacity="0.2"/>
          <rect id="Rectángulo_1942" data-name="Rectángulo 1942" width="3.782" height="18.058" transform="translate(66.917 54.164) rotate(180)" opacity="0.2"/>
          <rect id="Rectángulo_1943" data-name="Rectángulo 1943" width="3.782" height="18.058" transform="translate(58.249 54.164) rotate(180)" opacity="0.2"/>
          <rect id="Rectángulo_1944" data-name="Rectángulo 1944" width="3.782" height="18.058" transform="translate(49.562 54.164) rotate(180)" opacity="0.2"/>
          <rect id="Rectángulo_1945" data-name="Rectángulo 1945" width="3.782" height="18.058" transform="translate(40.875 54.164) rotate(180)" opacity="0.2"/>
          <rect id="Rectángulo_1946" data-name="Rectángulo 1946" width="3.782" height="18.058" transform="translate(32.207 54.164) rotate(180)" opacity="0.2"/>
          <rect id="Rectángulo_1947" data-name="Rectángulo 1947" width="3.782" height="18.058" transform="translate(23.52 54.164) rotate(180)" opacity="0.2"/>
          <rect id="Rectángulo_1948" data-name="Rectángulo 1948" width="3.782" height="18.058" transform="translate(14.833 54.164) rotate(180)" opacity="0.2"/>
          <rect id="Rectángulo_1949" data-name="Rectángulo 1949" width="95.948" height="18.058" transform="translate(102.749 36.116) rotate(180)" fill="#e1f099"/>
          <rect id="Rectángulo_1950" data-name="Rectángulo 1950" width="95.948" height="2.052" transform="translate(102.749 20.11) rotate(180)" opacity="0.2"/>
          <rect id="Rectángulo_1951" data-name="Rectángulo 1951" width="3.782" height="18.058" transform="translate(95.723 36.116) rotate(180)" opacity="0.2"/>
          <rect id="Rectángulo_1952" data-name="Rectángulo 1952" width="3.782" height="18.058" transform="translate(87.036 36.116) rotate(180)" opacity="0.2"/>
          <rect id="Rectángulo_1953" data-name="Rectángulo 1953" width="3.782" height="18.058" transform="translate(78.359 36.116) rotate(180)" opacity="0.2"/>
          <rect id="Rectángulo_1954" data-name="Rectángulo 1954" width="3.782" height="18.058" transform="translate(69.682 36.116) rotate(180)" opacity="0.2"/>
          <rect id="Rectángulo_1955" data-name="Rectángulo 1955" width="3.782" height="18.058" transform="translate(60.995 36.116) rotate(180)" opacity="0.2"/>
          <rect id="Rectángulo_1956" data-name="Rectángulo 1956" width="3.782" height="18.058" transform="translate(52.318 36.116) rotate(180)" opacity="0.2"/>
          <rect id="Rectángulo_1957" data-name="Rectángulo 1957" width="3.782" height="18.058" transform="translate(43.64 36.116) rotate(180)" opacity="0.2"/>
          <rect id="Rectángulo_1958" data-name="Rectángulo 1958" width="3.782" height="18.058" transform="translate(34.953 36.116) rotate(180)" opacity="0.2"/>
          <rect id="Rectángulo_1959" data-name="Rectángulo 1959" width="3.782" height="18.058" transform="translate(26.276 36.116) rotate(180)" opacity="0.2"/>
          <rect id="Rectángulo_1960" data-name="Rectángulo 1960" width="3.782" height="18.058" transform="translate(17.599 36.116) rotate(180)" opacity="0.2"/>
          <rect id="Rectángulo_1961" data-name="Rectángulo 1961" width="95.948" height="18.058" transform="translate(98.401 18.058) rotate(180)" fill="#e1f099"/>
          <rect id="Rectángulo_1962" data-name="Rectángulo 1962" width="95.948" height="2.052" transform="translate(98.401 2.052) rotate(180)" opacity="0.2"/>
          <rect id="Rectángulo_1963" data-name="Rectángulo 1963" width="3.782" height="18.058" transform="translate(91.375 18.058) rotate(180)" opacity="0.2"/>
          <rect id="Rectángulo_1964" data-name="Rectángulo 1964" width="3.782" height="18.058" transform="translate(82.708 18.058) rotate(180)" opacity="0.2"/>
          <rect id="Rectángulo_1965" data-name="Rectángulo 1965" width="3.782" height="18.058" transform="translate(74.021 18.058) rotate(180)" opacity="0.2"/>
          <rect id="Rectángulo_1966" data-name="Rectángulo 1966" width="3.782" height="18.058" transform="translate(65.334 18.058) rotate(180)" opacity="0.2"/>
          <rect id="Rectángulo_1967" data-name="Rectángulo 1967" width="3.782" height="18.058" transform="translate(56.666 18.058) rotate(180)" opacity="0.2"/>
          <rect id="Rectángulo_1968" data-name="Rectángulo 1968" width="3.782" height="18.058" transform="translate(47.979 18.058) rotate(180)" opacity="0.2"/>
          <rect id="Rectángulo_1969" data-name="Rectángulo 1969" width="3.782" height="18.058" transform="translate(39.292 18.058) rotate(180)" opacity="0.2"/>
          <rect id="Rectángulo_1970" data-name="Rectángulo 1970" width="3.782" height="18.058" transform="translate(30.624 18.058) rotate(180)" opacity="0.2"/>
          <rect id="Rectángulo_1971" data-name="Rectángulo 1971" width="3.782" height="18.058" transform="translate(21.937 18.058) rotate(180)" opacity="0.2"/>
          <rect id="Rectángulo_1972" data-name="Rectángulo 1972" width="3.782" height="18.058" transform="translate(13.25 18.058) rotate(180)" opacity="0.2"/>
        </g>
        <g id="Growth" transform="translate(113.4 133.871)">
          <path id="Trazado_6081" data-name="Trazado 6081" d="M394.162,192,355.9,198.556a3.762,3.762,0,0,0-1.534,6.791l7.055,4.993-43.259,61.151a3.7,3.7,0,0,1-5.169.879L249.4,227.421a3.723,3.723,0,0,0-5.179.889L116.05,409.478h46.064l91.1-128.781a3.7,3.7,0,0,1,5.169-.879l63.584,44.95a3.713,3.713,0,0,0,5.179-.889l64.972-91.854,7.065,4.993a3.772,3.772,0,0,0,5.863-3.713l-6.567-38.266A3.762,3.762,0,0,0,394.162,192Z" transform="translate(-116.05 -191.947)" fill="#407bff"/>
          <path id="Trazado_6082" data-name="Trazado 6082" d="M394.162,192,355.9,198.556a3.762,3.762,0,0,0-1.534,6.791l7.055,4.993-43.259,61.151a3.7,3.7,0,0,1-5.169.879L249.4,227.421a3.723,3.723,0,0,0-5.179.889L116.05,409.478h46.064l91.1-128.781a3.7,3.7,0,0,1,5.169-.879l63.584,44.95a3.713,3.713,0,0,0,5.179-.889l64.972-91.854,7.065,4.993a3.772,3.772,0,0,0,5.863-3.713l-6.567-38.266A3.762,3.762,0,0,0,394.162,192Z" transform="translate(-116.05 -191.947)" fill="#3362cc" opacity="0.2"/>
          <path id="Trazado_6083" data-name="Trazado 6083" d="M159.477,404.281H127.054a.254.254,0,0,1-.215-.137.244.244,0,0,1,0-.254L245.585,236.012a3.958,3.958,0,0,1,5.521-.977l63.575,44.95a3.469,3.469,0,0,0,4.886-.831l49.552-70.043-7.817-5.56a.225.225,0,0,1-.1-.254.244.244,0,0,1,.2-.186l32.247-5.521a.235.235,0,0,1,.274.2l5.521,32.247a.264.264,0,0,1-.107.254.254.254,0,0,1-.274,0l-7.817-5.56-64.835,91.658a3.958,3.958,0,0,1-5.511.977l-63.584-44.95a3.469,3.469,0,0,0-4.837.831L159.682,404.173A.254.254,0,0,1,159.477,404.281Zm-31.953-.489H159.35L251.927,272.92a3.967,3.967,0,0,1,5.521-.977l63.584,44.95a3.469,3.469,0,0,0,4.837-.831l64.972-91.854a.2.2,0,0,1,.156-.1.215.215,0,0,1,.186,0l7.573,5.355-5.384-31.279-31.377,5.374,7.573,5.355a.264.264,0,0,1,.1.156.244.244,0,0,1,0,.186l-49.689,70.249a3.909,3.909,0,0,1-2.56,1.612,3.977,3.977,0,0,1-2.931-.664L250.91,235.5a3.469,3.469,0,0,0-4.886.831Z" transform="translate(-116.296 -192.076)" fill="#fff" opacity="0.2"/>
        </g>
        <g id="Chart" transform="translate(307.935 257.505)">
          <rect id="Rectángulo_1973" data-name="Rectángulo 1973" width="4.016" height="59.754" transform="translate(28.152 32.559)" fill="#263238"/>
          <rect id="Rectángulo_1974" data-name="Rectángulo 1974" width="4.016" height="92.313" transform="translate(63.291)" fill="#263238"/>
          <rect id="Rectángulo_1975" data-name="Rectángulo 1975" width="4.016" height="70.171" transform="translate(99.075 22.133)" fill="#263238"/>
          <rect id="Rectángulo_1976" data-name="Rectángulo 1976" width="28.162" height="59.754" transform="translate(0 32.559)" fill="#e1f099"/>
          <path id="Trazado_6084" data-name="Trazado 6084" d="M315.13,296.84v35.432L329.2,296.84Z" transform="translate(-315.13 -264.281)" fill="#fff" opacity="0.2"/>
          <rect id="Rectángulo_1977" data-name="Rectángulo 1977" width="28.162" height="92.313" transform="translate(35.129)" fill="#e1f099"/>
          <path id="Trazado_6085" data-name="Trazado 6085" d="M351.08,263.52v35.422l14.081-35.422Z" transform="translate(-315.951 -263.52)" fill="#fff" opacity="0.2"/>
          <rect id="Rectángulo_1978" data-name="Rectángulo 1978" width="28.162" height="70.171" transform="translate(70.923 22.133)" fill="#e1f099"/>
          <path id="Trazado_6086" data-name="Trazado 6086" d="M387.71,286.17V317.7l14.081-31.533Z" transform="translate(-316.787 -264.037)" fill="#fff" opacity="0.2"/>
        </g>
        <g id="Character" transform="translate(180.439 50.677)">
          <path id="Trazado_6087" data-name="Trazado 6087" d="M247.9,352.539l-7.554-1.427,1.28-17.863,7.553,1.417Z" transform="translate(-185.927 -58.284)" fill="#7f3e3b"/>
          <path id="Trazado_6088" data-name="Trazado 6088" d="M299.876,352.364h-7.69L290.28,334.57h7.681Z" transform="translate(-187.067 -58.314)" fill="#7f3e3b"/>
          <path id="Trazado_6089" data-name="Trazado 6089" d="M291.258,406.82h9.361a.674.674,0,0,1,.655.528l1.524,6.84a1.134,1.134,0,0,1-1.124,1.368c-3.02-.049-5.218-.235-9.01-.235-2.335,0-9.381.244-12.605.244s-3.645-3.186-2.326-3.479c5.922-1.29,10.378-3.078,12.273-4.778a1.857,1.857,0,0,1,1.251-.489Z" transform="translate(-186.764 -113.659)" fill="#263238"/>
          <path id="Trazado_6090" data-name="Trazado 6090" d="M240.112,404.789l8.277,1.427a.674.674,0,0,1,.557.625l.332,6.987a1.124,1.124,0,0,1-1.319,1.163c-2.932-.567-7.26-1.485-11-2.13-4.387-.752-6.527-1.3-11.667-2.189-3.107-.537-2.433-3.909-1.075-4,6.146-.274,8.316.664,13.974-1.612a3.547,3.547,0,0,1,1.925-.274Z" transform="translate(-185.532 -113.612)" fill="#263238"/>
          <path id="Trazado_6091" data-name="Trazado 6091" d="M266.259,167c-.264.782-.469,1.348-.713,1.954s-.489,1.251-.743,1.866c-.508,1.241-1.046,2.453-1.612,3.664a70.813,70.813,0,0,1-3.8,7.084,46.719,46.719,0,0,1-11.013,12.781,27.05,27.05,0,0,1-3.909,2.482c-.352.2-.713.362-1.085.528s-.7.322-1.143.489a15.742,15.742,0,0,1-2.668.723,27.362,27.362,0,0,1-4.466.381c-1.407,0-2.756,0-4.085-.127a78.174,78.174,0,0,1-15.312-2.775l.772-5.716c4.886-.186,9.84-.342,14.491-.752,1.163-.107,2.306-.244,3.391-.41a18.416,18.416,0,0,0,2.932-.645,4.3,4.3,0,0,0,.9-.371c.322-.2.762-.381,1.124-.635a17.587,17.587,0,0,0,2.257-1.691,29.041,29.041,0,0,0,4.192-4.612,51.608,51.608,0,0,0,3.655-5.6c1.143-1.954,2.169-4.036,3.176-6.127.489-1.046.977-2.111,1.407-3.176l.655-1.593.6-1.5Z" transform="translate(-185.364 -108.097)" fill="#7f3e3b"/>
          <path id="Trazado_6092" data-name="Trazado 6092" d="M263.2,157.87c14.022,0-1.388,30.292-1.388,30.292l-17.892-7.241s4.886-10.534,8.1-16.563A11.912,11.912,0,0,1,263.2,157.87Z" transform="translate(-186.008 -107.975)" fill="#407bff"/>
          <g id="Grupo_3508" data-name="Grupo 3508" transform="translate(57.912 49.881)" opacity="0.3">
            <path id="Trazado_6093" data-name="Trazado 6093" d="M263.2,157.87c14.022,0-1.388,30.292-1.388,30.292l-17.892-7.241s4.886-10.534,8.1-16.563A11.912,11.912,0,0,1,263.2,157.87Z" transform="translate(-243.92 -157.856)" fill="#fff"/>
          </g>
          <path id="Trazado_6094" data-name="Trazado 6094" d="M259.913,167.89c-5.13,3.606-8.7,10.3-9.713,15.732l10.221,4.143c1.857-2.775,3.664-6.049,5.658-8.922.547-1.5,1.085-3.068,1.554-4.661Z" transform="translate(-186.152 -108.204)" opacity="0.2"/>
          <path id="Trazado_6095" data-name="Trazado 6095" d="M220.746,191.639,214.6,188.17l-4.71,8.795a21.42,21.42,0,0,0,8.2-.205Z" transform="translate(-185.231 -108.667)" fill="#7f3e3b"/>
          <path id="Trazado_6096" data-name="Trazado 6096" d="M208.61,133.21l-3.42,7.768,4.554,1.065,4.71-8.834Z" transform="translate(-185.124 -53.717)" fill="#7f3e3b"/>
          <path id="Trazado_6097" data-name="Trazado 6097" d="M241.645,333.25l-.655,9.215,7.553,1.417.655-9.2Z" transform="translate(-185.941 -58.284)" opacity="0.2"/>
          <path id="Trazado_6098" data-name="Trazado 6098" d="M297.96,334.58h-7.69l1,9.166h7.681Z" transform="translate(-187.067 -58.314)" opacity="0.2"/>
          <path id="Trazado_6099" data-name="Trazado 6099" d="M301.619,161.209a173.244,173.244,0,0,0-4.886,25.279c-.733,5.951-1.163,11.628-1.436,16.788-.645,12.078-.371,21.283-.733,24.429-6.01-.41-28.651-1.954-41.041-2.853-5.58-43.709,5.081-66.223,5.081-66.223a80.179,80.179,0,0,1,9.772-1.221c.694,0,1.407-.068,2.12-.078a151.579,151.579,0,0,1,17.433,1.212c1.094.127,2.208.293,3.283.469A101.853,101.853,0,0,1,301.619,161.209Z" transform="translate(-186.191 -107.963)" fill="#407bff"/>
          <g id="Grupo_3509" data-name="Grupo 3509" transform="translate(65.716 49.367)" opacity="0.3">
            <path id="Trazado_6100" data-name="Trazado 6100" d="M301.619,161.209a173.244,173.244,0,0,0-4.886,25.279c-.733,5.951-1.163,11.628-1.436,16.788-.645,12.078-.371,21.283-.733,24.429-6.01-.41-28.651-1.954-41.041-2.853-5.58-43.709,5.081-66.223,5.081-66.223a80.179,80.179,0,0,1,9.772-1.221c.694,0,1.407-.068,2.12-.078a151.579,151.579,0,0,1,17.433,1.212c1.094.127,2.208.293,3.283.469A101.853,101.853,0,0,1,301.619,161.209Z" transform="translate(-251.906 -157.33)" fill="#fff"/>
          </g>
          <path id="Trazado_6101" data-name="Trazado 6101" d="M292.19,172.62a32.246,32.246,0,0,0,5.072,17.765c.117-1.173.254-2.355.4-3.547.547-4.475,1.251-9.107,2.179-13.788Z" transform="translate(-187.11 -108.312)" opacity="0.2"/>
          <path id="Trazado_6102" data-name="Trazado 6102" d="M288.076,138.33c-1.485,5.541-3.3,15.732.361,19.749a17.472,17.472,0,0,1-13.817,4.407c-4.817-.44-4.817-3.831-3.616-5.619,6.361-1.055,6.518-5.707,5.736-10.143Z" transform="translate(-186.611 -107.529)" fill="#7f3e3b"/>
          <path id="Trazado_6103" data-name="Trazado 6103" d="M271.11,164.88a12.5,12.5,0,0,0,.606,2.531,1.29,1.29,0,0,0,1.231.9,12.018,12.018,0,0,1,2.394.205,1.251,1.251,0,0,0,.977-.176c.977-.616,2.228-1.524,1.905-2.658-.381-1.329-2.677-2.531-2.677-2.531S271.628,164.117,271.11,164.88Z" transform="translate(-186.629 -108.096)" fill="#263238"/>
          <path id="Trazado_6104" data-name="Trazado 6104" d="M273.086,167.51c-1.573,3.44-5.208,25.465-5.658,28.8s1.085,8.707,3.215,12.977a20.951,20.951,0,0,0,4.006-11.521c.283-4.554.557-29.706.557-29.706Z" transform="translate(-186.543 -108.195)" fill="#263238"/>
          <path id="Trazado_6105" data-name="Trazado 6105" d="M275.62,163.029a14.658,14.658,0,0,1,3.547,4.368c2.472-.186,13.387-4.974,11.833-8.667-1.358-.381-2.55-1.163-2.932-.762C287.551,158.759,282.919,161.554,275.62,163.029Z" transform="translate(-186.732 -107.975)" fill="#fff"/>
          <path id="Trazado_6106" data-name="Trazado 6106" d="M275.434,163s-4.182,1.417-5.159,3.8c-2.531-1.124-3.909-6.2-1.671-9.527,1.4-.117,2.736-.811,2.99-.352C271.985,157.8,270.92,160.132,275.434,163Z" transform="translate(-186.546 -107.95)" fill="#fff"/>
          <path id="Trazado_6107" data-name="Trazado 6107" d="M283.6,141.84l-6.713,4.954a17.343,17.343,0,0,1,.322,3.137c2.414-.176,5.863-2.57,6.313-5.052a8.306,8.306,0,0,0,.078-3.039Z" transform="translate(-186.761 -107.609)" opacity="0.2"/>
          <path id="Trazado_6108" data-name="Trazado 6108" d="M271.775,120.113c-2.931,1.153-4.016,12.5,1.954,11.384S277.677,117.8,271.775,120.113Z" transform="translate(-186.59 -107.107)" fill="#263238"/>
          <path id="Trazado_6109" data-name="Trazado 6109" d="M291.1,131.408c-2.394,7.241-3.42,11.6-8.13,14.4-7.094,4.212-15.293-1.554-15.117-9.361.156-7.026,4.036-17.7,12.019-18.723a10.4,10.4,0,0,1,11.228,13.68Z" transform="translate(-186.555 -107.057)" fill="#7f3e3b"/>
          <path id="Trazado_6110" data-name="Trazado 6110" d="M288.343,136.145c-3.039.059-5.531-9.146.6-11.726-4.827-.557-19.651.254-22.309-6.371s7.651-7.651,11.159-5.15c-1.114-3.645,3.42-9.019,11.57-4.133s8.052,10.915,7.29,12.7c3.635.977,4.348,9.068.332,10.153,2.355,3.264.322,10.123-6.029,8.658-.215,4-4.671,2.247-4.4-.821S288.343,136.145,288.343,136.145Z" transform="translate(-186.517 -106.81)" fill="#263238"/>
          <path id="Trazado_6111" data-name="Trazado 6111" d="M275,138.609h0a5.619,5.619,0,0,0,5.052-.977.205.205,0,0,0,0-.283.2.2,0,0,0-.274,0,5.287,5.287,0,0,1-4.69.977.153.153,0,1,0-.088.283Z" transform="translate(-186.714 -107.506)" fill="#263238"/>
          <path id="Trazado_6112" data-name="Trazado 6112" d="M293.013,139.456a7.28,7.28,0,0,1-5.189,1.954c-2.541-.107-3.029-2.57-1.671-4.554,1.231-1.788,4.026-3.909,6.254-2.824a3.254,3.254,0,0,1,.606,5.423Z" transform="translate(-186.956 -107.424)" fill="#7f3e3b"/>
          <path id="Trazado_6113" data-name="Trazado 6113" d="M238.34,390.74l12.7,3s4.495-49.494,8.355-76.688c1.026-7.212,2.609-17.354,5.023-28.162,3.039-13.612,6.84-28.338,9.987-39.868,3.293-12.146,5.8-20.736,5.8-20.736l-26.95-1.886s-14.589,63.614-16.133,86.968C235.477,337.739,238.34,390.74,238.34,390.74Z" transform="translate(-185.842 -109.54)" fill="#263238"/>
          <path id="Trazado_6114" data-name="Trazado 6114" d="M264.991,289.278c3.039-13.612,6.84-28.338,9.987-39.868l-2.8-6.029C265.519,251.324,263.721,275.92,264.991,289.278Z" transform="translate(-186.481 -109.928)" opacity="0.2"/>
          <path id="Trazado_6115" data-name="Trazado 6115" d="M268.49,227.44s2.932,65.783,6.156,88.062c3.547,24.429,12.566,77.724,12.566,77.724h14.081s-3.909-50.686-6.557-74.578c-3.019-27.214.205-89.362.205-89.362Z" transform="translate(-186.569 -109.564)" fill="#263238"/>
          <path id="Trazado_6116" data-name="Trazado 6116" d="M285.907,342.337H302.48l.733-4.954-18.293-.322Z" transform="translate(-186.944 -58.371)" fill="#407bff"/>
          <path id="Trazado_6117" data-name="Trazado 6117" d="M237.541,340.373l14.433,2.717,1.632-5.032L237.15,334.93Z" transform="translate(-185.854 -58.322)" fill="#407bff"/>
          <path id="Trazado_6118" data-name="Trazado 6118" d="M280.216,131.11c-.166.6-.606.977-.977.9s-.586-.674-.43-1.27.606-.977.977-.9S280.372,130.514,280.216,131.11Z" transform="translate(-186.804 -107.335)" fill="#263238"/>
          <path id="Trazado_6119" data-name="Trazado 6119" d="M273.276,129.29c-.156.6-.606.977-.977.889s-.576-.664-.42-1.27.606-.977.977-.9S273.433,128.684,273.276,129.29Z" transform="translate(-186.645 -107.293)" fill="#263238"/>
          <path id="Trazado_6120" data-name="Trazado 6120" d="M274.752,129.89a22.474,22.474,0,0,1-4.212,4.378c.792,1.261,2.834,1.153,2.834,1.153Z" transform="translate(-186.616 -107.337)" fill="#630f0f"/>
          <path id="Trazado_6121" data-name="Trazado 6121" d="M282.34,129.087a.361.361,0,0,1-.313-.225,2.931,2.931,0,0,0-1.954-1.769.363.363,0,1,1,.137-.713,3.616,3.616,0,0,1,2.482,2.208.362.362,0,0,1-.2.479A.342.342,0,0,1,282.34,129.087Z" transform="translate(-186.827 -107.256)" fill="#263238"/>
          <path id="Trazado_6122" data-name="Trazado 6122" d="M270.373,125.795a.391.391,0,0,1-.205-.088.362.362,0,0,1,0-.518,3.615,3.615,0,0,1,3.049-1.319.381.381,0,0,1,.313.41.371.371,0,0,1-.41.313h0a2.932,2.932,0,0,0-2.4,1.075.371.371,0,0,1-.342.127Z" transform="translate(-186.605 -107.199)" fill="#263238"/>
          <path id="Trazado_6123" data-name="Trazado 6123" d="M288.956,408.154a2.345,2.345,0,0,1-1.485-.391,1.094,1.094,0,0,1-.371-.977.547.547,0,0,1,.313-.508c.85-.44,3.322,1.085,3.606,1.261a.166.166,0,0,1,.078.176.176.176,0,0,1-.137.156A9.093,9.093,0,0,1,288.956,408.154Zm-1.143-1.593a.421.421,0,0,0-.235.049c-.049,0-.107.068-.117.215a.733.733,0,0,0,.244.655,3.7,3.7,0,0,0,2.726.137,7.35,7.35,0,0,0-2.629-1.055Z" transform="translate(-186.994 -113.645)" fill="#407bff"/>
          <path id="Trazado_6124" data-name="Trazado 6124" d="M290.947,407.84h-.088c-.792-.43-2.335-2.12-2.169-2.932a.6.6,0,0,1,.577-.479.977.977,0,0,1,.782.235c.889.723,1.075,2.931,1.085,3.039a.2.2,0,0,1-.088.166A.166.166,0,0,1,290.947,407.84Zm-1.554-3.117h-.078c-.234,0-.254.137-.264.186-.1.5.879,1.778,1.671,2.375a4.309,4.309,0,0,0-.909-2.4.635.635,0,0,0-.42-.156Z" transform="translate(-187.03 -113.604)" fill="#407bff"/>
          <path id="Trazado_6125" data-name="Trazado 6125" d="M239.467,405.675h0c-1.261,0-3.479-.049-4.182-.919a1.026,1.026,0,0,1-.186-.977.576.576,0,0,1,.371-.42c.977-.342,3.791,1.71,4.1,1.954a.166.166,0,0,1,.059.2A.186.186,0,0,1,239.467,405.675Zm-3.85-1.954h0a.215.215,0,0,0-.147.176.654.654,0,0,0,.117.606c.391.5,1.622.782,3.342.792-1.163-.762-2.726-1.691-3.313-1.563Z" transform="translate(-185.806 -113.579)" fill="#407bff"/>
          <path id="Trazado_6126" data-name="Trazado 6126" d="M239.517,405.643a.186.186,0,0,1-.137,0c-.84-.567-2.365-2.521-2.081-3.352.068-.2.254-.42.752-.391a1.359,1.359,0,0,1,.977.479c.831.977.684,3.039.674,3.127a.176.176,0,0,1-.1.147Zm-1.7-3.391a.167.167,0,0,0-.176.127c-.166.5.84,2,1.671,2.716a4.192,4.192,0,0,0-.6-2.5.977.977,0,0,0-.684-.352.479.479,0,0,0-.215.01Z" transform="translate(-185.856 -113.547)" fill="#407bff"/>
          <path id="Trazado_6127" data-name="Trazado 6127" d="M265.843,196.368l-3.117-2.228L211.62,265.679l3.117,2.228a43.973,43.973,0,0,0,51.106-71.539Z" transform="translate(-185.271 -108.803)" fill="#407bff"/>
          <path id="Trazado_6128" data-name="Trazado 6128" d="M265.843,196.368l-3.117-2.228L211.62,265.679l3.117,2.228a43.973,43.973,0,0,0,51.106-71.539Z" transform="translate(-185.271 -108.803)" opacity="0.1"/>
          <path id="Trazado_6129" data-name="Trazado 6129" d="M189.642,236.048A47.237,47.237,0,0,1,190.961,218l.977.254a46.1,46.1,0,0,0-1.29,17.687Z" transform="translate(-184.761 -109.348)" fill="#407bff"/>
          <path id="Trazado_6130" data-name="Trazado 6130" d="M192.631,248.375a47.43,47.43,0,0,1-2.1-6.84l.977-.215A47.16,47.16,0,0,0,193.569,248Z" transform="translate(-184.789 -109.881)" fill="#407bff"/>
          <circle id="Elipse_579" data-name="Elipse 579" cx="43.953" cy="43.953" r="43.953" transform="matrix(0.979, -0.202, 0.202, 0.979, 0, 86.901)" fill="#0d47a1"/>
          <path id="Trazado_6131" data-name="Trazado 6131" d="M226.953,241.384l6.9-9.645q-3.6-4.515-3.84-8.638a12.078,12.078,0,0,1,2.433-7.817,11.052,11.052,0,0,1,6.918-4.641,11.843,11.843,0,0,1,8.462,1.573l1.661-2.326,3.342,2.384-1.671,2.326a12.146,12.146,0,0,1,4.045,6.664,11.9,11.9,0,0,1-1.173,7.495l-6.371-3.4a5.8,5.8,0,0,0-.137-5.668l-6.43,9.009q4.456,5.453,4.759,9.264a11.286,11.286,0,0,1-2.365,7.544,12.576,12.576,0,0,1-7.544,5.228,13.68,13.68,0,0,1-9.518-1.5l-1.661,2.326-3.342-2.384,1.583-2.218a13.075,13.075,0,0,1-4.348-7.593,15.019,15.019,0,0,1,1.837-9.3l6.479,3.655a9.391,9.391,0,0,0-.889,4.163A7.817,7.817,0,0,0,226.953,241.384ZM244.23,217.2a5.305,5.305,0,0,0-3.283,0,4.974,4.974,0,0,0-2.55,1.866,4.8,4.8,0,0,0-.879,2.795,6.244,6.244,0,0,0,.977,3.293Zm-14.169,26.9a5.755,5.755,0,0,0,3.909.4,5.541,5.541,0,0,0,3.234-2.228,5.032,5.032,0,0,0,.977-3.313,7.192,7.192,0,0,0-1.759-3.85Z" transform="translate(-185.429 -109.163)" fill="#fff"/>
          <path id="Trazado_6132" data-name="Trazado 6132" d="M272.541,226.25a35.8,35.8,0,0,0-70.5,11.726,35.8,35.8,0,1,1,70.5-11.726Z" transform="translate(-185.031 -108.803)" opacity="0.1"/>
          <path id="Trazado_6133" data-name="Trazado 6133" d="M303.486,165.6c.977,1.241,1.788,2.355,2.609,3.567s1.622,2.375,2.4,3.586c1.554,2.423,3.029,4.886,4.4,7.456s2.638,5.2,3.791,7.915l.84,2.062.762,2.12c.254.694.469,1.436.694,2.16l.322,1.094.088.274.147.6a9.186,9.186,0,0,1,.2,1.231,10.386,10.386,0,0,1-.537,4.065,14.52,14.52,0,0,1-1.319,2.814,25.729,25.729,0,0,1-3.088,4.065,54.538,54.538,0,0,1-6.694,6.029,98.226,98.226,0,0,1-14.482,9.176l-3.166-4.827c4.094-3.488,8.189-7.163,11.892-10.886a53.91,53.91,0,0,0,5-5.707,15.7,15.7,0,0,0,1.681-2.707,4.972,4.972,0,0,0,.332-.977h0a.538.538,0,0,0,0,.215.641.641,0,0,0,0,.088l-.088-.215-.342-.86c-.235-.586-.44-1.163-.713-1.739l-.782-1.73-.831-1.73c-1.163-2.3-2.4-4.583-3.752-6.84s-2.746-4.5-4.2-6.713c-.713-1.114-1.456-2.218-2.2-3.3l-2.228-3.176Z" transform="translate(-187.071 -108.152)" fill="#7f3e3b"/>
          <path id="Trazado_6134" data-name="Trazado 6134" d="M302.5,161.293c7.2,1.456,13.524,19.065,13.524,19.065L301,192.6s-4.886-8.951-8.873-17.589C287.837,165.6,293.778,159.534,302.5,161.293Z" transform="translate(-187.076 -108.047)" fill="#407bff"/>
          <g id="Grupo_3510" data-name="Grupo 3510" transform="translate(103.623 52.943)" opacity="0.3">
            <path id="Trazado_6135" data-name="Trazado 6135" d="M302.5,161.293c7.2,1.456,13.524,19.065,13.524,19.065L301,192.6s-4.886-8.951-8.873-17.589C287.837,165.6,293.778,159.534,302.5,161.293Z" transform="translate(-290.7 -160.99)" fill="#fff"/>
          </g>
          <path id="Trazado_6136" data-name="Trazado 6136" d="M292.089,219.54l-7.759.85,5.032,8.423s6.449-2.189,5.668-5.726Z" transform="translate(-186.931 -109.383)" fill="#7f3e3b"/>
          <path id="Trazado_6137" data-name="Trazado 6137" d="M279.6,169.906l4.485,6.772,5.169-2.8-5.032-8.423Z" transform="translate(-186.823 -54.453)" fill="#7f3e3b"/>
        </g>
      </g>
    </g>
    <g id="Grupo_4106" data-name="Grupo 4106" transform="translate(527.321 325.727)" opacity="0.573">
      <path id="Trazado_8119" data-name="Trazado 8119" d="M278.313,396a3.486,3.486,0,1,1-1.654,4.645A3.487,3.487,0,0,1,278.313,396Z" transform="translate(-244.125 -303.709)" fill="#fff"/>
      <path id="Trazado_8120" data-name="Trazado 8120" d="M271.476,381.6a3.486,3.486,0,1,1-1.654,4.646A3.487,3.487,0,0,1,271.476,381.6Z" transform="translate(-245.337 -305.578)" fill="#fff"/>
      <path id="Trazado_8121" data-name="Trazado 8121" d="M264.639,367.2a3.487,3.487,0,1,1-1.654,4.646A3.488,3.488,0,0,1,264.639,367.2Z" transform="translate(-246.549 -307.446)" fill="#fff"/>
      <path id="Trazado_8122" data-name="Trazado 8122" d="M257.8,352.8a3.486,3.486,0,1,1-1.654,4.645A3.487,3.487,0,0,1,257.8,352.8Z" transform="translate(-245.957 -309.314)" fill="#fff"/>
      <path id="Trazado_8123" data-name="Trazado 8123" d="M250.965,338.4a3.487,3.487,0,1,1-1.654,4.645A3.486,3.486,0,0,1,250.965,338.4Z" transform="translate(-248.973 -311.182)" fill="#fff"/>
      <path id="Trazado_8124" data-name="Trazado 8124" d="M290.842,390.055a3.487,3.487,0,1,1-1.656,4.645A3.487,3.487,0,0,1,290.842,390.055Z" transform="translate(-241.905 -306.333)" fill="#fff"/>
      <path id="Trazado_8125" data-name="Trazado 8125" d="M284,375.653a3.487,3.487,0,1,1-1.654,4.646A3.488,3.488,0,0,1,284,375.653Z" transform="translate(-243.116 -306.349)" fill="#fff"/>
      <path id="Trazado_8126" data-name="Trazado 8126" d="M277.167,361.252a3.487,3.487,0,1,1-1.654,4.645A3.488,3.488,0,0,1,277.167,361.252Z" transform="translate(-244.328 -308.217)" fill="#fff"/>
      <path id="Trazado_8127" data-name="Trazado 8127" d="M270.33,346.85a3.487,3.487,0,1,1-1.654,4.645A3.486,3.486,0,0,1,270.33,346.85Z" transform="translate(-245.54 -310.086)" fill="#fff"/>
      <path id="Trazado_8128" data-name="Trazado 8128" d="M263.493,332.449a3.486,3.486,0,1,1-1.654,4.645A3.486,3.486,0,0,1,263.493,332.449Z" transform="translate(-246.752 -311.954)" fill="#fff"/>
      <path id="Trazado_8129" data-name="Trazado 8129" d="M303.37,384.107a3.487,3.487,0,1,1-1.654,4.646A3.486,3.486,0,0,1,303.37,384.107Z" transform="translate(-239.684 -308.957)" fill="#fff"/>
      <path id="Trazado_8130" data-name="Trazado 8130" d="M296.533,369.706a3.486,3.486,0,1,1-1.654,4.645A3.486,3.486,0,0,1,296.533,369.706Z" transform="translate(-240.896 -307.121)" fill="#fff"/>
      <path id="Trazado_8131" data-name="Trazado 8131" d="M289.695,355.3a3.487,3.487,0,1,1-1.653,4.645A3.488,3.488,0,0,1,289.695,355.3Z" transform="translate(-242.108 -308.989)" fill="#fff"/>
      <path id="Trazado_8132" data-name="Trazado 8132" d="M282.859,340.9a3.486,3.486,0,1,1-1.654,4.645A3.486,3.486,0,0,1,282.859,340.9Z" transform="translate(-243.319 -310.857)" fill="#fff"/>
      <path id="Trazado_8133" data-name="Trazado 8133" d="M276.021,326.5a3.487,3.487,0,1,1-1.654,4.645A3.488,3.488,0,0,1,276.021,326.5Z" transform="translate(-244.531 -309.021)" fill="#fff"/>
      <path id="Trazado_8134" data-name="Trazado 8134" d="M315.9,378.16a3.486,3.486,0,1,1-1.654,4.645A3.486,3.486,0,0,1,315.9,378.16Z" transform="translate(-237.463 -306.024)" fill="#fff"/>
      <path id="Trazado_8135" data-name="Trazado 8135" d="M309.061,363.758a3.486,3.486,0,1,1-1.654,4.645A3.487,3.487,0,0,1,309.061,363.758Z" transform="translate(-238.675 -307.892)" fill="#fff"/>
      <path id="Trazado_8136" data-name="Trazado 8136" d="M302.224,349.358A3.486,3.486,0,1,1,300.569,354,3.485,3.485,0,0,1,302.224,349.358Z" transform="translate(-239.887 -309.761)" fill="#fff"/>
      <path id="Trazado_8137" data-name="Trazado 8137" d="M295.387,334.955a3.486,3.486,0,1,1-1.654,4.645A3.486,3.486,0,0,1,295.387,334.955Z" transform="translate(-241.099 -311.629)" fill="#fff"/>
      <path id="Trazado_8138" data-name="Trazado 8138" d="M288.55,320.553A3.487,3.487,0,1,1,286.9,325.2,3.486,3.486,0,0,1,288.55,320.553Z" transform="translate(-242.311 -311.645)" fill="#fff"/>
      <path id="Trazado_8139" data-name="Trazado 8139" d="M328.426,372.212a3.486,3.486,0,1,1-1.654,4.645A3.488,3.488,0,0,1,328.426,372.212Z" transform="translate(-235.242 -306.795)" fill="#fff"/>
      <path id="Trazado_8140" data-name="Trazado 8140" d="M321.589,357.812a3.486,3.486,0,1,1-1.654,4.645A3.485,3.485,0,0,1,321.589,357.812Z" transform="translate(-238.259 -308.664)" fill="#fff"/>
      <path id="Trazado_8141" data-name="Trazado 8141" d="M314.752,343.409a3.486,3.486,0,1,1-1.654,4.645A3.486,3.486,0,0,1,314.752,343.409Z" transform="translate(-237.666 -310.532)" fill="#fff"/>
      <path id="Trazado_8142" data-name="Trazado 8142" d="M307.915,329.007a3.486,3.486,0,1,1-1.654,4.646A3.487,3.487,0,0,1,307.915,329.007Z" transform="translate(-238.878 -312.4)" fill="#fff"/>
      <path id="Trazado_8143" data-name="Trazado 8143" d="M301.078,314.606a3.486,3.486,0,1,1-1.654,4.645A3.487,3.487,0,0,1,301.078,314.606Z" transform="translate(-240.09 -314.269)" fill="#fff"/>
    </g>
  </g>
</svg>
