<svg xmlns="http://www.w3.org/2000/svg" width="69.6" height="94.094" viewBox="0 0 69.6 94.094">
  <g id="Grupo_21478" data-name="Grupo 21478" transform="translate(1300.589 -3561.966)">
    <g id="Grupo_18548" data-name="Grupo 18548">
      <path id="Trazado_50932" data-name="Trazado 50932" d="M-1233.264,3609.146a34.873,34.873,0,0,0,2.025-16.593,34.9,34.9,0,0,0-32.245-30.513,34.8,34.8,0,0,0-37.1,34.725,34.661,34.661,0,0,0,3.092,14.335c6.691,17.478,22.452,36.383,28.892,43.675a3.794,3.794,0,0,0,5.664.031C-1256.2,3647.323-1239.387,3627.451-1233.264,3609.146Z" fill="#f45139"/>
      <circle id="Elipse_540" data-name="Elipse 540" cx="25.448" cy="25.448" r="25.448" transform="translate(-1291.237 3571.317)" fill="#fff"/>
    </g>
    <g id="Grupo_18550" data-name="Grupo 18550">
      <g id="Grupo_18549" data-name="Grupo 18549">
        <path id="Trazado_50933" data-name="Trazado 50933" d="M-1272.158,3604.64q0-3.745,4.03-6.412,3.779-2.5,3.793-4.184v-5.263q0-1.545-1.432-1.545h-.029q-1.447,0-1.447,1.545v3.869h-4.915v-3.869q0-5.921,6.362-5.92t6.376,5.92v5.359q0,3.815-4.044,6.494-3.779,2.5-3.779,4.334v1.34h7.823v4.361h-12.738Z" fill="#00223d"/>
      </g>
    </g>
  </g>
</svg>
