<svg xmlns="http://www.w3.org/2000/svg" width="69.6" height="94.094" viewBox="0 0 69.6 94.094">
  <g id="Grupo_18547" data-name="Grupo 18547" transform="translate(1354.5 -3056.611)">
    <g id="Grupo_18544" data-name="Grupo 18544">
      <path id="Trazado_50930" data-name="Trazado 50930" d="M-1287.176,3103.791a34.858,34.858,0,0,0,2.026-16.592,34.9,34.9,0,0,0-32.245-30.514,34.8,34.8,0,0,0-37.1,34.725,34.656,34.656,0,0,0,3.092,14.335c6.691,17.478,22.452,36.383,28.892,43.675a3.794,3.794,0,0,0,5.664.031C-1310.114,3141.968-1293.3,3122.1-1287.176,3103.791Z" fill="#f45139"/>
      <circle id="Elipse_539" data-name="Elipse 539" cx="25.448" cy="25.448" r="25.448" transform="translate(-1345.148 3065.962)" fill="#fff"/>
    </g>
    <g id="Grupo_18546" data-name="Grupo 18546">
      <g id="Grupo_18545" data-name="Grupo 18545">
        <path id="Trazado_50931" data-name="Trazado 50931" d="M-1317.242,3077.725v23.01h3.911v4.361h-12.738v-4.361h3.911v-18.649h-3.911v-4.361Z" fill="#00223d"/>
      </g>
    </g>
  </g>
</svg>
