<svg xmlns="http://www.w3.org/2000/svg" width="69.6" height="94.094" viewBox="0 0 69.6 94.094">
  <g id="Grupo_21479" data-name="Grupo 21479" transform="translate(642.287 -3561.966)">
    <g id="Grupo_18552" data-name="Grupo 18552">
      <path id="Trazado_50934" data-name="Trazado 50934" d="M-574.962,3609.146a34.873,34.873,0,0,0,2.025-16.593,34.9,34.9,0,0,0-32.245-30.513,34.8,34.8,0,0,0-37.1,34.725A34.662,34.662,0,0,0-639.2,3611.1c6.691,17.478,22.452,36.383,28.892,43.675a3.794,3.794,0,0,0,5.664.031C-597.9,3647.323-581.085,3627.451-574.962,3609.146Z" fill="#f45139"/>
      <circle id="Elipse_541" data-name="Elipse 541" cx="25.448" cy="25.448" r="25.448" transform="translate(-632.935 3571.317)" fill="#fff"/>
    </g>
    <g id="Grupo_18554" data-name="Grupo 18554">
      <g id="Grupo_18553" data-name="Grupo 18553">
        <path id="Trazado_50935" data-name="Trazado 50935" d="M-608.985,3603.788q.045,1.545,1.505,1.545t1.491-1.545v-4.567q0-1.3-.472-1.49a2.666,2.666,0,0,0-.915-.109h-1.786v-4.362h2.111a1.544,1.544,0,0,0,.679-.109c.255-.137.383-.61.383-1.422V3587.4q-.043-1.545-1.491-1.545t-1.505,1.545v3.869h-4.871V3587.4q0-5.906,6.376-5.92t6.362,5.92v4.361q0,2.79-1.978,3.733,1.979.943,1.978,3.732v4.567q0,5.919-6.362,5.92-6.375-.015-6.376-5.92v-3.869h4.871Z" fill="#00223d"/>
      </g>
    </g>
  </g>
</svg>
