<svg xmlns="http://www.w3.org/2000/svg" width="102.398" height="102.399" viewBox="0 0 102.398 102.399">
  <g id="Grupo_21441" data-name="Grupo 21441" transform="translate(-190.924 -1617.243)">
    <path id="Trazado_59110" data-name="Trazado 59110" d="M207.99,1678.682v35.84a3.413,3.413,0,0,1-3.413,3.414h-8.534a3.426,3.426,0,0,1-3.413-3.414v-35.84a3.423,3.423,0,0,1,3.413-3.412h8.534a3.422,3.422,0,0,1,3.413,3.412Zm0,0" fill="#3b97d3"/>
    <path id="Trazado_59111" data-name="Trazado 59111" d="M289.363,1695.015l-31.983,19.473a11.95,11.95,0,0,1-6.211,1.74H207.99l-.409-.085a3.471,3.471,0,0,0,.409-1.621v-35.84h4.779a15.628,15.628,0,0,1,9.727,3.413,15.629,15.629,0,0,0,9.728,3.414h8.926a8.516,8.516,0,0,1,7.322,4.147l.153.256a6.175,6.175,0,0,1-.939,7.544H251.7a6.711,6.711,0,0,0,2.167-.359l31.591-10.53a4.7,4.7,0,0,1,5.221,1.639v.017a4.659,4.659,0,0,1-1.313,6.792Zm0,0" fill="#fdd7ad"/>
    <path id="Trazado_59112" data-name="Trazado 59112" d="M281.376,1654.124a11.166,11.166,0,0,1-2.918,7.56v.017a15.911,15.911,0,0,1-8.09,11.094,18.976,18.976,0,0,1,2.816,5.665,4.319,4.319,0,0,1,.222,1.366,4.438,4.438,0,0,1-2.7,4.079,4.533,4.533,0,0,1-5.222-1.331,11.55,11.55,0,0,0-5.29-3.5c-6.725-2.252-8.7-4.505-9.148-8.363h-.12a18.258,18.258,0,0,1-6.707-1.262,11.23,11.23,0,0,1-19.149-3.653,14.939,14.939,0,0,1-5.273.939,15.258,15.258,0,0,1-12.2-24.371,6.613,6.613,0,0,1,4.967-8.686,6.065,6.065,0,0,1-.034-.786,8.6,8.6,0,0,1,8.6-8.635,8.378,8.378,0,0,1,3.737.869,12.55,12.55,0,0,1,19.114-3.037,6.6,6.6,0,0,1,11.725.956,16.127,16.127,0,0,1,1.826-.12,15.915,15.915,0,0,1,15.838,14.61h.051a6.655,6.655,0,0,1,5.768,9.915,11.2,11.2,0,0,1,2.185,6.673Zm0,0" fill="#fb7b76"/>
    <path id="Trazado_59113" data-name="Trazado 59113" d="M256.1,1642.873a1.708,1.708,0,0,0-2,1.355,8.987,8.987,0,0,1-15.5,4.352,1.707,1.707,0,0,0-2.531,2.284,12.416,12.416,0,0,0,7.231,3.926,6.765,6.765,0,0,1-5.9,3.413,1.706,1.706,0,1,0,0,3.412,10.152,10.152,0,0,0,9.614-6.793,12.46,12.46,0,0,0,10.439-9.952,1.707,1.707,0,0,0-1.355-2Zm0,0" fill="#df4d60"/>
    <path id="Trazado_59114" data-name="Trazado 59114" d="M237.856,1636.016a1.706,1.706,0,0,0-1.706-1.706,9.4,9.4,0,0,0-9.387,9.386,1.706,1.706,0,1,0,3.413,0,5.974,5.974,0,0,1,5.974-5.973,1.707,1.707,0,0,0,1.706-1.707Zm0,0" fill="#df4d60"/>
    <g id="Grupo_21440" data-name="Grupo 21440">
      <g id="Grupo_21439" data-name="Grupo 21439">
        <path id="Trazado_59115" data-name="Trazado 59115" d="M284.914,1684.956l-31.592,10.53a5.112,5.112,0,0,1-1.618.262h-.981a7.847,7.847,0,0,0-.637-6.721l-.152-.251a10.286,10.286,0,0,0-8.781-4.973h-8.929a13.918,13.918,0,0,1-8.664-3.04,17.348,17.348,0,0,0-10.791-3.787h-3.386a5.122,5.122,0,0,0-4.806-3.414h-8.534a5.12,5.12,0,0,0-5.119,5.12v35.84a5.12,5.12,0,0,0,5.119,5.12h8.534a5.091,5.091,0,0,0,3.788-1.706h42.8a13.639,13.639,0,0,0,7.1-1.992l31.984-19.472a6.388,6.388,0,0,0-5.343-11.516Zm-80.337,31.272h-8.534a1.706,1.706,0,0,1-1.706-1.706v-35.84a1.706,1.706,0,0,1,1.706-1.706h8.534a1.707,1.707,0,0,1,1.707,1.706v35.84a1.707,1.707,0,0,1-1.707,1.706Zm85.278-24.645a2.931,2.931,0,0,1-1.366,1.973l-32,19.472a10.236,10.236,0,0,1-5.323,1.494H209.7v-34.133h3.073a13.911,13.911,0,0,1,8.665,3.04,17.338,17.338,0,0,0,10.79,3.786h8.926a6.863,6.863,0,0,1,5.854,3.317l.152.251a4.46,4.46,0,0,1-.254,4.965H236.533a17,17,0,0,0-9.464,2.868l-1.251.832a1.707,1.707,0,1,0,1.893,2.841l1.251-.833a13.6,13.6,0,0,1,7.571-2.294H251.7a8.53,8.53,0,0,0,2.7-.437l31.592-10.532a2.98,2.98,0,0,1,3.861,3.39Zm0,0" fill="#717377"/>
        <path id="Trazado_59116" data-name="Trazado 59116" d="M280.028,1662.47a12.852,12.852,0,0,0,1.1-15.128,8.324,8.324,0,0,0-6.235-11.367,17.716,17.716,0,0,0-17.352-14.75c-.291,0-.567.036-.854.049a8.272,8.272,0,0,0-13-1.558,14.206,14.206,0,0,0-7.994-2.473,14.374,14.374,0,0,0-11.469,5.8,10.253,10.253,0,0,0-13.387,9.387,8.338,8.338,0,0,0-5.319,7.758,8.165,8.165,0,0,0,.236,1.848,16.774,16.774,0,0,0-2.885,9.433,16.971,16.971,0,0,0,16.934,16.971,16.762,16.762,0,0,0,4.3-.562,12.914,12.914,0,0,0,20.59,3.536,20,20,0,0,0,4.916.947c.94,3.9,3.825,6.247,10.041,8.33a9.876,9.876,0,0,1,4.535,2.987,6.37,6.37,0,0,0,4.829,2.275,6.013,6.013,0,0,0,2.363-.482,6.147,6.147,0,0,0,3.73-5.648,6.042,6.042,0,0,0-.3-1.89,22.518,22.518,0,0,0-2.048-4.607,17.546,17.546,0,0,0,7.267-10.859Zm-14.848,10.314a1.707,1.707,0,0,0,.268,3.392,1.8,1.8,0,0,0,.273-.021,17.439,17.439,0,0,0,4.062-1.182,18.989,18.989,0,0,1,1.781,4.024,2.541,2.541,0,0,1,.135.826,2.728,2.728,0,0,1-1.659,2.508,2.836,2.836,0,0,1-3.242-.853,13.227,13.227,0,0,0-6.053-4.018c-4.974-1.666-6.853-3.186-7.6-5.186a19.95,19.95,0,0,0,3.732-.736,1.707,1.707,0,0,0-1-3.263,16.787,16.787,0,0,1-3.771.695,16.15,16.15,0,0,1-7.261-1.1,1.875,1.875,0,0,0-1.915.475,9.556,9.556,0,0,1-15.421-11.167,1.707,1.707,0,0,0-2.928-1.755,12.919,12.919,0,0,0-1.293,2.973,3.658,3.658,0,0,1-3.754-3.583v-.054a1.688,1.688,0,0,0-1.707-1.681,1.733,1.733,0,0,0-1.707,1.735,7,7,0,0,0,6.641,6.98c0,.107-.021.213-.021.321a13.138,13.138,0,0,0,.253,2.549,13.5,13.5,0,0,1-15.382-18.982,8.352,8.352,0,0,0,1.947,1.658,1.707,1.707,0,1,0,1.761-2.925,4.931,4.931,0,0,1,2.524-9.156,4.857,4.857,0,0,1,3.926,1.979,1.707,1.707,0,0,0,2.739-2.039,8.229,8.229,0,0,0-6.181-3.327,6.9,6.9,0,0,1,6.8-5.906,6.713,6.713,0,0,1,1.348.152,14.478,14.478,0,0,0-.607,1.8,1.707,1.707,0,0,0,3.3.853,10.8,10.8,0,0,1,16.663-6.152,8.24,8.24,0,0,0-.57,2.968,1.706,1.706,0,1,0,3.413,0,4.915,4.915,0,1,1,9.828,0,1.707,1.707,0,0,0,3.414,0,8.319,8.319,0,0,0-.094-.933,14.28,14.28,0,0,1,13.616,11.434,8.214,8.214,0,0,0-3.013,1.408,1.706,1.706,0,0,0,2.048,2.73,4.926,4.926,0,0,1,7.23,6.371,5,5,0,0,1-2.219,2.049,1.707,1.707,0,1,0,1.45,3.091,8.36,8.36,0,0,0,1.953-1.294,9.465,9.465,0,0,1-1.683,10.084l-.034.036a9.66,9.66,0,0,1-11.4,2.092,9,9,0,0,1-1.422-.888,6.981,6.981,0,0,0,.765-7.453,1.706,1.706,0,0,0-3.053,1.524,3.6,3.6,0,0,1-1.168,4.564,3.65,3.65,0,0,1-5.256-1.34,1.707,1.707,0,0,0-3.053,1.527,6.93,6.93,0,0,0,9.029,3.285,12.431,12.431,0,0,0,2.608,1.823,12.758,12.758,0,0,0,10.68.478,14.034,14.034,0,0,1-9.731,6.612Zm0,0" fill="#717377"/>
        <path id="Trazado_59117" data-name="Trazado 59117" d="M194.837,1622.863a1.708,1.708,0,0,0,0,2.414l3.414,3.413a1.706,1.706,0,0,0,2.412-2.413l-3.412-3.414a1.708,1.708,0,0,0-2.414,0Zm0,0" fill="#717377"/>
        <path id="Trazado_59118" data-name="Trazado 59118" d="M289.409,1622.863a1.708,1.708,0,0,0-2.414,0l-3.412,3.414a1.706,1.706,0,1,0,2.412,2.413l3.414-3.413a1.708,1.708,0,0,0,0-2.414Zm0,0" fill="#717377"/>
        <path id="Trazado_59119" data-name="Trazado 59119" d="M198.251,1663.823l-3.414,3.413a1.707,1.707,0,1,0,2.414,2.413l3.412-3.413a1.706,1.706,0,0,0-2.412-2.413Zm0,0" fill="#717377"/>
        <path id="Trazado_59120" data-name="Trazado 59120" d="M286.995,1669.649a1.707,1.707,0,0,0,2.414-2.413l-3.414-3.413a1.706,1.706,0,0,0-2.412,2.413Zm0,0" fill="#717377"/>
        <path id="Trazado_59121" data-name="Trazado 59121" d="M190.924,1646.256a1.707,1.707,0,0,0,1.706,1.707h3.413a1.707,1.707,0,1,0,0-3.414H192.63a1.707,1.707,0,0,0-1.706,1.707Zm0,0" fill="#717377"/>
        <path id="Trazado_59122" data-name="Trazado 59122" d="M291.616,1644.549H288.2a1.707,1.707,0,1,0,0,3.414h3.413a1.707,1.707,0,0,0,0-3.414Zm0,0" fill="#717377"/>
      </g>
    </g>
  </g>
</svg>
