<svg xmlns="http://www.w3.org/2000/svg" xmlns:xlink="http://www.w3.org/1999/xlink" width="601.427" height="169.981" viewBox="0 0 601.427 169.981">
  <defs>
    <linearGradient id="linear-gradient" x1="0.5" y1="1" x2="0.5" gradientUnits="objectBoundingBox">
      <stop offset="0" stop-color="#cbf1f6"/>
      <stop offset="1" stop-color="#fff"/>
    </linearGradient>
  </defs>
  <g id="Grupo_21484" data-name="Grupo 21484" transform="translate(1346.782 -1271.963)">
    <g id="Grupo_21483" data-name="Grupo 21483">
      <rect id="Rectángulo_5304" data-name="Rectángulo 5304" width="169.981" height="169.981" rx="35.251" transform="translate(-1346.782 1271.963)" fill="#b8ecf3"/>
      <rect id="Rectángulo_5305" data-name="Rectángulo 5305" width="169.981" height="169.981" rx="35.251" transform="translate(-1129.456 1271.963)" fill="#b8ecf3"/>
      <g id="Grupo_21482" data-name="Grupo 21482">
        <g id="Grupo_21481" data-name="Grupo 21481">
          <rect id="Rectángulo_5303" data-name="Rectángulo 5303" width="169.981" height="169.981" rx="35.251" transform="translate(-915.336 1271.963)" fill="#b8ecf3"/>
          <g id="Grupo_21480" data-name="Grupo 21480">
            <path id="Trazado_59060" data-name="Trazado 59060" d="M-889.881,1415.3v-29.056h10.8l1.688,2.057h3.112s-.2-10.8,6.8-12v-65.2h-6l-.2-12.168h106V1309.7l-5,.8v67.066h-69.232l-1.445,6.879s9.006-1.827,3.742,7.873c0,0,2,5.782-1.532,8.382,0,0,3.513,4.576-2.21,7.488,0,0,3.177,3.912-1.773,7.112h-8.051l-3.578-1.926h-22.121l-.6,1.926Z" fill="url(#linear-gradient)"/>
          </g>
        </g>
        <g id="Grupo_21427" data-name="Grupo 21427">
          <path id="Trazado_59061" data-name="Trazado 59061" d="M-820.749,1392.318a2.315,2.315,0,0,1-2.313-2.313,2.316,2.316,0,0,1,2.313-2.314,2.317,2.317,0,0,1,2.314,2.314,2.316,2.316,0,0,1-2.314,2.313Zm47.329-60.737a1.886,1.886,0,0,0-1.886,1.886v42.348h-56.011a1.887,1.887,0,0,0-1.887,1.887,1.886,1.886,0,0,0,1.887,1.886h8.682v4.631a6.1,6.1,0,0,0-4.2,5.786,6.094,6.094,0,0,0,6.086,6.087,6.094,6.094,0,0,0,6.087-6.087,6.1,6.1,0,0,0-4.2-5.786v-4.631h45.442a1.886,1.886,0,0,0,1.887-1.886v-44.235a1.886,1.886,0,0,0-1.887-1.886Z" fill="#4dd0e0"/>
          <path id="Trazado_59062" data-name="Trazado 59062" d="M-844.721,1412.071a1.305,1.305,0,0,1-1.3,1.3h-7.21a1.305,1.305,0,0,1-1.3-1.3v-.861a1.305,1.305,0,0,1,1.3-1.3h7.209a1.305,1.305,0,0,1,1.3,1.3v.861Zm-32.672-21.885h4.148a1.885,1.885,0,0,0,1.886-1.886v-3.355l0-.024a7.363,7.363,0,0,1,7.354-7.355h20.645a5.039,5.039,0,0,1-5.032,4.9h-7.755a1.89,1.89,0,0,0-1.382.6,1.893,1.893,0,0,0-.5,1.425c0,.049.328,4.883-2.151,7.551a5.978,5.978,0,0,1-4.645,1.777,1.886,1.886,0,0,0-1.887,1.886,1.887,1.887,0,0,0,1.887,1.887,9.959,9.959,0,0,0,6.451-2.09l-6.257,7.2a1.888,1.888,0,0,0,.187,2.662,1.881,1.881,0,0,0,1.237.462,1.881,1.881,0,0,0,1.425-.649l6.06-6.975a5.361,5.361,0,0,0,.714,1.48,5.34,5.34,0,0,0-1.711,3.915v.938a5.334,5.334,0,0,0,.613,2.481,5.069,5.069,0,0,0-2.2,4.03h-19.09v-20.869Zm23.078-3.4c.017-.188.032-.372.043-.544h.093a5.156,5.156,0,0,0-.136.544Zm.221,3.8-2.13,2.451a14.216,14.216,0,0,0,1.817-5.434c0,.075-.012.149-.012.226v.938a5.305,5.305,0,0,0,.325,1.819Zm12.181,13.956a1.591,1.591,0,0,1-1.588,1.588h-7.853a1.59,1.59,0,0,1-1.588-1.588v-.938a1.589,1.589,0,0,1,1.588-1.588h7.853a1.59,1.59,0,0,1,1.588,1.588v.938Zm.765-8.826v.938a1.589,1.589,0,0,1-1.588,1.588h-7.853a1.59,1.59,0,0,1-1.588-1.588v-.938a1.59,1.59,0,0,1,1.588-1.588h7.853a1.589,1.589,0,0,1,1.588,1.588Zm1.532-7.887v.938a1.591,1.591,0,0,1-1.588,1.588h-7.853a1.59,1.59,0,0,1-1.588-1.588v-.938a1.589,1.589,0,0,1,1.588-1.588h7.853a1.59,1.59,0,0,1,1.588,1.588Zm-1.554-5.36.014-.02c.1-.148.2-.3.3-.452.022-.035.041-.072.062-.107.078-.133.152-.268.224-.4.028-.054.056-.108.083-.163q.122-.243.227-.495c.02-.048.038-.1.057-.145.056-.14.109-.283.158-.427.016-.047.033-.094.048-.141l22.179-25.534a1.888,1.888,0,0,0-.187-2.662,1.887,1.887,0,0,0-2.662.188l-19.868,22.874c-.035-.039-.069-.08-.106-.117a3.613,3.613,0,0,0-2.582-1.074H-864a11.141,11.141,0,0,0-11.129,11.129v1.492h-2.262v-.717a1.887,1.887,0,0,0-1.887-1.886h-13.575a1.887,1.887,0,0,0-1.887,1.886,1.887,1.887,0,0,0,1.887,1.887h11.689v26.075h-8.119a1.887,1.887,0,0,0-1.887,1.887,1.886,1.886,0,0,0,1.887,1.886h10.005a1.886,1.886,0,0,0,1.887-1.886v-.717h19.9a5.072,5.072,0,0,0,4.256,2.319h7.21a5.083,5.083,0,0,0,5.077-5.077v-.861a5.028,5.028,0,0,0-.333-1.791,5.365,5.365,0,0,0,3.14-4.874v-.938a5.33,5.33,0,0,0-.945-3.034,5.34,5.34,0,0,0,1.711-3.916v-.937a5.331,5.331,0,0,0-.686-2.617,5.353,5.353,0,0,0,2.217-4.333v-.938a5.366,5.366,0,0,0-5.327-5.359Z" fill="#4dd0e0"/>
          <path id="Trazado_59063" data-name="Trazado 59063" d="M-882.842,1410.311v-.236a1.887,1.887,0,0,0-1.887-1.887,1.886,1.886,0,0,0-1.886,1.887v.236a1.885,1.885,0,0,0,1.886,1.886,1.886,1.886,0,0,0,1.887-1.886Z" fill="#4dd0e0"/>
          <path id="Trazado_59064" data-name="Trazado 59064" d="M-767.834,1296.476h-75.089a1.886,1.886,0,0,0-1.887,1.886,1.887,1.887,0,0,0,1.887,1.887h73.2v8.229H-871.776v-8.229h21.308a1.886,1.886,0,0,0,1.886-1.887,1.886,1.886,0,0,0-1.886-1.886h-23.2a1.886,1.886,0,0,0-1.887,1.886v12a1.887,1.887,0,0,0,1.887,1.887h3.7v56.773a1.887,1.887,0,0,0,1.887,1.887,1.887,1.887,0,0,0,1.887-1.887v-56.773h90.884v13.67a1.886,1.886,0,0,0,1.886,1.887,1.887,1.887,0,0,0,1.887-1.887v-13.67h3.7a1.887,1.887,0,0,0,1.887-1.887v-12a1.886,1.886,0,0,0-1.887-1.886Z" fill="#4dd0e0"/>
          <path id="Trazado_59065" data-name="Trazado 59065" d="M-832.274,1331.7a2.147,2.147,0,0,1,2.144,2.144,2.147,2.147,0,0,1-2.144,2.145,2.147,2.147,0,0,1-2.145-2.145,2.147,2.147,0,0,1,2.145-2.144Zm23.052,14.216a2.147,2.147,0,0,1,2.144,2.144,2.147,2.147,0,0,1-2.144,2.144,2.146,2.146,0,0,1-2.144-2.144,2.146,2.146,0,0,1,2.144-2.144Zm23.052-19.684a2.147,2.147,0,0,1,2.144,2.144,2.147,2.147,0,0,1-2.144,2.145,2.147,2.147,0,0,1-2.145-2.145,2.147,2.147,0,0,1,2.145-2.144Zm-69.157,30.857a2.147,2.147,0,0,1-2.144-2.144,2.147,2.147,0,0,1,2.144-2.144,2.147,2.147,0,0,1,2.145,2.144,2.147,2.147,0,0,1-2.145,2.144Zm0-8.062a5.925,5.925,0,0,0-5.917,5.918,5.925,5.925,0,0,0,5.917,5.918,5.925,5.925,0,0,0,5.918-5.918,5.888,5.888,0,0,0-.514-2.408l14.726-13.55a5.883,5.883,0,0,0,2.923.775,5.888,5.888,0,0,0,3.74-1.336l13.545,8.31a5.9,5.9,0,0,0-.151,1.324,5.925,5.925,0,0,0,5.917,5.918,5.924,5.924,0,0,0,5.918-5.918,5.889,5.889,0,0,0-.428-2.206l14.524-12.4a5.883,5.883,0,0,0,3.039.842,5.923,5.923,0,0,0,5.917-5.917,5.925,5.925,0,0,0-5.917-5.918,5.924,5.924,0,0,0-5.918,5.918,5.884,5.884,0,0,0,.428,2.206l-14.524,12.4a5.878,5.878,0,0,0-3.038-.842,5.89,5.89,0,0,0-3.792,1.378l-13.509-8.287a5.894,5.894,0,0,0,.166-1.389,5.924,5.924,0,0,0-5.917-5.918,5.925,5.925,0,0,0-5.918,5.918,5.872,5.872,0,0,0,.479,2.329l-14.765,13.586a5.885,5.885,0,0,0-2.849-.733Z" fill="#4dd0e0"/>
        </g>
      </g>
      <path id="Trazado_59066" data-name="Trazado 59066" d="M-1148.875,1352.669h9.238a1.888,1.888,0,0,1,1.888,1.888v4.269a1.887,1.887,0,0,1-1.888,1.887h-9.238V1371.4a1.888,1.888,0,0,1-1.888,1.888h-4.7a1.888,1.888,0,0,1-1.888-1.888v-10.687h-9.269a1.887,1.887,0,0,1-1.888-1.887v-4.269a1.888,1.888,0,0,1,1.888-1.888h9.269v-10.163a1.888,1.888,0,0,1,1.888-1.887h4.7a1.887,1.887,0,0,1,1.888,1.887Z" fill="#68c3ef"/>
      <path id="Trazado_59067" data-name="Trazado 59067" d="M-925.516,1353.918h-23.778a1.888,1.888,0,0,1-1.888-1.888v-3.5a1.888,1.888,0,0,1,1.888-1.888h23.778a1.887,1.887,0,0,1,1.887,1.888v3.5A1.888,1.888,0,0,1-925.516,1353.918Zm0,13.345h-23.778a1.888,1.888,0,0,1-1.888-1.888v-3.5a1.888,1.888,0,0,1,1.888-1.888h23.778a1.887,1.887,0,0,1,1.887,1.888v3.5A1.887,1.887,0,0,1-925.516,1367.263Z" fill="#68c3ef"/>
      <g id="Grupo_21428" data-name="Grupo 21428">
        <path id="Trazado_59068" data-name="Trazado 59068" d="M-1209.583,1315.763a4.118,4.118,0,0,0-2.85,1.138,3.469,3.469,0,0,1-4.764.005,4.118,4.118,0,0,0-2.832-1.12,4.441,4.441,0,0,0-3.139,1.469c-1.5,2.336-1.421,4.064.91,6.189,1.345,1.34,5.166,5,7.475,7.209,2.221-2.143,6.384-6.165,7.488-7.275,1.38-1.384,1.846-2.26,1.846-3.474A4.3,4.3,0,0,0-1209.583,1315.763Z" fill="url(#linear-gradient)"/>
        <path id="Trazado_59069" data-name="Trazado 59069" d="M-1223.018,1373.877l-4.063,5.932-6.4,1.291,4.2,7.084.8,5.716,5.465-2.085,6.337,2.714V1386.5l3.582-5.4-5.981-1.291Z" fill="url(#linear-gradient)"/>
        <path id="Trazado_59070" data-name="Trazado 59070" d="M-1261.771,1315.541c-18.71,0-23.833,14.085-25.11,23.563,0,0-.68,17.561,11.4,24.379,3.421,3.891,2.694,21.712,2.694,21.712s-1.746,7.705,5.48,7.705c0,0,.092,10.456,5.278,9.565s5.842-9.365,5.842-9.365,6.721-.811,6.013-7.905-.967-18.451.463-19.673,13.86-11.388,13.9-22.422S-1243.06,1315.541-1261.771,1315.541Z" fill="url(#linear-gradient)"/>
        <path id="Trazado_59071" data-name="Trazado 59071" d="M-1296.347,1363.695l-.1-.058a.636.636,0,0,1-.323-.5.828.828,0,0,1,.26-.623,1.866,1.866,0,0,0,.457-1.222,1.838,1.838,0,0,0-.814-1.542,1.825,1.825,0,0,0-.977-.3c-1.3.005-6.618.012-6.618.012a.785.785,0,0,1-.585-.262.787.787,0,0,1-.189-.618l.124-.9c.093-.668.18-1.3.236-1.916a6.023,6.023,0,0,0-.646-3.963,2.667,2.667,0,0,0-1.424-1.217l-1.455-.472.151,1.522c.087.871.157,1.673.209,2.495a2.943,2.943,0,0,1-.266,1.461c-.682,1.322-1.383,2.652-2.06,3.939l-.264.5q-.7,1.328-1.39,2.656a.775.775,0,0,1-.692.421h-1.3c-1.34,0-2.749,0-3.668-.008l-1.006-.006V1373.3l1.008-.007c.994-.007,2.549-.007,3.741-.007,0,0,3.493,0,4.069,0l.209-.012c1.507.013,3.025.02,4.543.02,1.734,0,3.468-.009,5.184-.028a1.5,1.5,0,0,0,1.123-.518,1.523,1.523,0,0,0,.384-1.164,4.021,4.021,0,0,0-.11-.5c-.021-.078-.043-.159-.064-.249a.778.778,0,0,1,.5-.914,1.906,1.906,0,0,0,1.136-2.6.645.645,0,0,1,.349-.889l.069-.029.064-.04a1.524,1.524,0,0,0,.773-1.279,1.782,1.782,0,0,0-.548-1.317Z" fill="url(#linear-gradient)"/>
      </g>
      <g id="Grupo_21429" data-name="Grupo 21429">
        <path id="Trazado_59072" data-name="Trazado 59072" d="M-1276.434,1362.528a1.773,1.773,0,0,0,.023-2.505c-.331-.337-.681-.666-1.039-.978a23.932,23.932,0,0,1-8.242-17.953,23.992,23.992,0,0,1,23.578-24.031,23.765,23.765,0,0,1,13.954,4.245,1.773,1.773,0,0,0,2.465-.447,1.771,1.771,0,0,0-.447-2.465,27.3,27.3,0,0,0-16.022-4.875,27.545,27.545,0,0,0-27.071,27.589,27.475,27.475,0,0,0,9.461,20.612c.629.654,2.026,2.05,3.34.808Zm0,0" fill="#4dd0e0"/>
        <path id="Trazado_59073" data-name="Trazado 59073" d="M-1240.2,1323.984a1.77,1.77,0,0,0-2.487-.3,1.771,1.771,0,0,0-.294,2.488,23.672,23.672,0,0,1,5.128,14.8,23.906,23.906,0,0,1-8.33,18.142,17.536,17.536,0,0,0-6.049,13.333v1.674h-7.631v-21.443l4.381-4.381a1.771,1.771,0,0,0,0-2.5,1.772,1.772,0,0,0-2.506,0l-3.645,3.646-6.836-6.836a1.773,1.773,0,0,0-2.505,0,1.77,1.77,0,0,0,0,2.5l7.57,7.571v21.443h-7.911v-1.675a17.626,17.626,0,0,0-.748-5.08,1.772,1.772,0,0,0-2.206-1.187,1.772,1.772,0,0,0-1.187,2.206,14.047,14.047,0,0,1,.6,4.061v1.675h-1.44a1.771,1.771,0,0,0-1.772,1.771,1.773,1.773,0,0,0,1.772,1.772h1.44v4.275h-1.44a1.772,1.772,0,0,0-1.772,1.772,1.772,1.772,0,0,0,1.772,1.771h1.44v2.545a6.5,6.5,0,0,0,6.194,6.487v2.243a6.9,6.9,0,0,0,6.891,6.892,6.9,6.9,0,0,0,6.89-6.892v-2.243a6.5,6.5,0,0,0,6.193-6.487v-2.545h1.441a1.771,1.771,0,0,0,1.771-1.771,1.771,1.771,0,0,0-1.771-1.772h-1.441v-4.275h1.441a1.772,1.772,0,0,0,1.771-1.772,1.77,1.77,0,0,0-1.771-1.771h-1.441v-1.674a14.006,14.006,0,0,1,4.817-10.648,27.444,27.444,0,0,0,9.563-20.827,27.183,27.183,0,0,0-5.89-17Zm-21.575,76.13a3.35,3.35,0,0,1-3.346-3.349v-2.236h6.7v2.236a3.352,3.352,0,0,1-3.349,3.349Zm9.543-12.08a2.955,2.955,0,0,1-2.953,2.952h-13.178a2.954,2.954,0,0,1-2.952-2.952v-2.545h19.083Zm-19.083-6.088v-4.274h19.083v4.274Zm0,0" fill="#4dd0e0"/>
        <path id="Trazado_59074" data-name="Trazado 59074" d="M-1261.239,1296.577a2.988,2.988,0,0,1,2.122,3.658,2.991,2.991,0,0,1-3.659,2.123,2.99,2.99,0,0,1-2.122-3.659,2.99,2.99,0,0,1,3.659-2.122Zm0,0" fill="#4dd0e0"/>
        <path id="Trazado_59075" data-name="Trazado 59075" d="M-1259.039,1414.442a2.99,2.99,0,0,1-2.991,2.989,2.989,2.989,0,0,1-2.989-2.989,2.99,2.99,0,0,1,2.989-2.99,2.99,2.99,0,0,1,2.991,2.99Zm0,0" fill="#4dd0e0"/>
        <path id="Trazado_59076" data-name="Trazado 59076" d="M-1270.887,1300.79a2.989,2.989,0,0,1-2.989,2.989,2.989,2.989,0,0,1-2.989-2.989,2.99,2.99,0,0,1,2.989-2.99,2.99,2.99,0,0,1,2.989,2.99Zm0,0" fill="#4dd0e0"/>
        <path id="Trazado_59077" data-name="Trazado 59077" d="M-1282.2,1304.522a2.989,2.989,0,0,1-2.989,2.99,2.989,2.989,0,0,1-2.989-2.99,2.989,2.989,0,0,1,2.989-2.989,2.989,2.989,0,0,1,2.989,2.989Zm0,0" fill="#4dd0e0"/>
        <path id="Trazado_59078" data-name="Trazado 59078" d="M-1292.5,1310.521a2.99,2.99,0,0,1-2.989,2.991,2.99,2.99,0,0,1-2.99-2.991,2.989,2.989,0,0,1,2.99-2.989,2.989,2.989,0,0,1,2.989,2.989Zm0,0" fill="#4dd0e0"/>
        <path id="Trazado_59079" data-name="Trazado 59079" d="M-1306.306,1320.753a2.989,2.989,0,0,0,4.221-.221,2.989,2.989,0,0,0-.22-4.223,2.991,2.991,0,0,0-4.223.221,2.992,2.992,0,0,0,.222,4.223Zm0,0" fill="#4dd0e0"/>
        <path id="Trazado_59080" data-name="Trazado 59080" d="M-1308.281,1328.2a2.989,2.989,0,0,1-2.989,2.989,2.989,2.989,0,0,1-2.99-2.989,2.989,2.989,0,0,1,2.99-2.99,2.989,2.989,0,0,1,2.989,2.99Zm0,0" fill="#4dd0e0"/>
        <path id="Trazado_59081" data-name="Trazado 59081" d="M-1313.082,1339.1a2.989,2.989,0,0,1-2.99,2.989,2.989,2.989,0,0,1-2.989-2.989,2.989,2.989,0,0,1,2.989-2.989,2.989,2.989,0,0,1,2.99,2.989Zm0,0" fill="#4dd0e0"/>
        <path id="Trazado_59082" data-name="Trazado 59082" d="M-1315.51,1350.768a2.989,2.989,0,0,1-2.99,2.989,2.989,2.989,0,0,1-2.989-2.989,2.989,2.989,0,0,1,2.989-2.989,2.989,2.989,0,0,1,2.99,2.989Zm0,0" fill="#4dd0e0"/>
        <path id="Trazado_59083" data-name="Trazado 59083" d="M-1308.042,1385.195a2.989,2.989,0,0,1-2.989,2.989,2.989,2.989,0,0,1-2.989-2.989,2.989,2.989,0,0,1,2.989-2.99,2.989,2.989,0,0,1,2.989,2.99Zm0,0" fill="#4dd0e0"/>
        <path id="Trazado_59084" data-name="Trazado 59084" d="M-1301,1394.805a2.991,2.991,0,0,1-2.991,2.99,2.99,2.99,0,0,1-2.989-2.99,2.99,2.99,0,0,1,2.989-2.99,2.991,2.991,0,0,1,2.991,2.99Zm0,0" fill="#4dd0e0"/>
        <path id="Trazado_59085" data-name="Trazado 59085" d="M-1293.791,1400.013a2.989,2.989,0,0,1,1.423,3.982,2.991,2.991,0,0,1-3.982,1.423,2.991,2.991,0,0,1-1.423-3.982,2.99,2.99,0,0,1,3.982-1.423Zm0,0" fill="#4dd0e0"/>
        <path id="Trazado_59086" data-name="Trazado 59086" d="M-1281.855,1408.031a2.989,2.989,0,0,1-2.341,3.519,2.987,2.987,0,0,1-3.518-2.341,2.989,2.989,0,0,1,2.34-3.519,2.989,2.989,0,0,1,3.519,2.341Zm0,0" fill="#4dd0e0"/>
        <path id="Trazado_59087" data-name="Trazado 59087" d="M-1272.787,1409.366a2.988,2.988,0,0,0-3.545,2.3,2.991,2.991,0,0,0,2.3,3.547,2.989,2.989,0,0,0,3.545-2.3,2.99,2.99,0,0,0-2.3-3.546Zm0,0" fill="#4dd0e0"/>
        <path id="Trazado_59088" data-name="Trazado 59088" d="M-1246.721,1412.189a2.989,2.989,0,0,1-2.99,2.99,2.99,2.99,0,0,1-2.99-2.99,2.99,2.99,0,0,1,2.99-2.99,2.99,2.99,0,0,1,2.99,2.99Zm0,0" fill="#4dd0e0"/>
        <path id="Trazado_59089" data-name="Trazado 59089" d="M-1239.607,1405.731a2.989,2.989,0,0,0-1.516,3.947,2.99,2.99,0,0,0,3.948,1.514,2.987,2.987,0,0,0,1.514-3.946,2.989,2.989,0,0,0-3.946-1.515Zm0,0" fill="#4dd0e0"/>
        <path id="Trazado_59090" data-name="Trazado 59090" d="M-1225.111,1402.466a2.989,2.989,0,0,1-2.99,2.989,2.989,2.989,0,0,1-2.989-2.989,2.99,2.99,0,0,1,2.989-2.991,2.99,2.99,0,0,1,2.99,2.991Zm0,0" fill="#4dd0e0"/>
        <path id="Trazado_59091" data-name="Trazado 59091" d="M-1206.589,1371.034a2.989,2.989,0,0,0-3.766,1.919,2.99,2.99,0,0,0,1.919,3.768,2.992,2.992,0,0,0,3.768-1.92,2.991,2.991,0,0,0-1.921-3.767Zm0,0" fill="#4dd0e0"/>
        <path id="Trazado_59092" data-name="Trazado 59092" d="M-1204.771,1359.238a2.991,2.991,0,0,0-3.286,2.661,2.99,2.99,0,0,0,2.662,3.286,2.989,2.989,0,0,0,3.285-2.661,2.99,2.99,0,0,0-2.661-3.286Zm0,0" fill="#4dd0e0"/>
        <path id="Trazado_59093" data-name="Trazado 59093" d="M-1205.446,1347.324a2.988,2.988,0,0,0-2.66,3.285,2.989,2.989,0,0,0,3.285,2.661,2.99,2.99,0,0,0,2.661-3.286,2.989,2.989,0,0,0-3.286-2.66Zm0,0" fill="#4dd0e0"/>
        <path id="Trazado_59094" data-name="Trazado 59094" d="M-1206.735,1341.495a2.988,2.988,0,0,0,1.919-3.766,2.989,2.989,0,0,0-3.767-1.92,2.991,2.991,0,0,0-1.92,3.768,2.99,2.99,0,0,0,3.768,1.918Zm0,0" fill="#4dd0e0"/>
        <path id="Trazado_59095" data-name="Trazado 59095" d="M-1225.493,1310.242a2.989,2.989,0,0,1-2.99,2.989,2.99,2.99,0,0,1-2.99-2.989,2.99,2.99,0,0,1,2.99-2.99,2.989,2.989,0,0,1,2.99,2.99Zm0,0" fill="#4dd0e0"/>
        <path id="Trazado_59096" data-name="Trazado 59096" d="M-1237.488,1301.612a2.992,2.992,0,0,1,1.367,4,2.991,2.991,0,0,1-4,1.365,2.99,2.99,0,0,1-1.366-4,2.99,2.99,0,0,1,4-1.366Zm0,0" fill="#4dd0e0"/>
        <path id="Trazado_59097" data-name="Trazado 59097" d="M-1249.626,1297.762a2.991,2.991,0,0,1,2.391,3.487,2.989,2.989,0,0,1-3.486,2.391,2.989,2.989,0,0,1-2.391-3.486,2.991,2.991,0,0,1,3.486-2.392Zm0,0" fill="#4dd0e0"/>
        <path id="Trazado_59098" data-name="Trazado 59098" d="M-1225.57,1321.9a7.175,7.175,0,0,0,2.435,4.008c1.239,1.232,5.058,4.885,6.643,6.4a2.539,2.539,0,0,0,3.423-.009c1.663-1.6,5.64-5.442,6.648-6.454a7.183,7.183,0,0,0,2.476-5.211,6.774,6.774,0,0,0-4.591-6.427h0a6.8,6.8,0,0,0-2.175-.361h-.011a6.743,6.743,0,0,0-4.095,1.378,6.759,6.759,0,0,0-4.149-1.359,6.732,6.732,0,0,0-5.1,2.421,6.929,6.929,0,0,0-1.5,5.614Zm4.223-3.344a3.475,3.475,0,0,1,2.455-1.149,3.218,3.218,0,0,1,2.215.876,2.712,2.712,0,0,0,3.726,0,3.217,3.217,0,0,1,2.229-.891,3.364,3.364,0,0,1,3.234,3.239c0,.95-.365,1.635-1.444,2.717-.864.869-4.12,4.014-5.856,5.691-1.806-1.727-4.8-4.591-5.847-5.639-1.823-1.662-1.885-3.014-.712-4.841Zm0,0" fill="#4dd0e0"/>
        <path id="Trazado_59099" data-name="Trazado 59099" d="M-1213.1,1378.955l-5.025-.73-2.248-4.555a2.933,2.933,0,0,0-2.645-1.645h0a2.934,2.934,0,0,0-2.646,1.645l-1.416,2.871a1.771,1.771,0,0,0,.8,2.372,1.771,1.771,0,0,0,2.372-.8l.886-1.794,1.855,3.758a2.943,2.943,0,0,0,2.221,1.613l4.147.6-3,2.925a2.953,2.953,0,0,0-.849,2.612l.709,4.13-3.709-1.95a2.952,2.952,0,0,0-2.747,0l-3.709,1.95.709-4.13a2.954,2.954,0,0,0-.849-2.612l-3.486-3.4a1.77,1.77,0,0,0-.235-2,1.77,1.77,0,0,0-2.5-.16,2.968,2.968,0,0,0-1,2.15,2.913,2.913,0,0,0,.89,2.181l3.637,3.545-.858,5.006a2.926,2.926,0,0,0,1.174,2.885,2.921,2.921,0,0,0,3.107.226l4.495-2.364,4.495,2.364a2.931,2.931,0,0,0,3.107-.226,2.932,2.932,0,0,0,1.175-2.885l-.859-5.006,3.636-3.545a2.929,2.929,0,0,0,.747-3.025,2.932,2.932,0,0,0-2.382-2.007Zm0,0" fill="#4dd0e0"/>
        <path id="Trazado_59100" data-name="Trazado 59100" d="M-1297.905,1367.677h0Zm4.752-2.584a4.31,4.31,0,0,0-.621-2.27,4.422,4.422,0,0,0,.275-1.533,4.427,4.427,0,0,0-1.912-3.645,4.278,4.278,0,0,0-2.43-.756h-.018c-1.144.005-3.282.01-4.573.012.039-.3.072-.6.1-.909a8.742,8.742,0,0,0-1.017-5.539,4.914,4.914,0,0,0-6.05-2.212,2.177,2.177,0,0,0-1.533,2.4c.147,1.357.259,2.5.335,3.651a.716.716,0,0,1-.01.161c-.669,1.295-1.359,2.61-2.028,3.88q-.584,1.105-1.163,2.213c-1.784,0-3.742,0-4.513-.013h-.037a2.9,2.9,0,0,0-2.9,2.9v9.528a2.881,2.881,0,0,0,.861,2.062,2.882,2.882,0,0,0,2.044.838h.036c.781-.013,2.871-.015,4.376-.015,2.166,0,4.256.005,4.256.005.063,0,.128-.005.192-.01,3.178.026,6.4.023,9.577-.009a4.061,4.061,0,0,0,3.009-1.381,4.112,4.112,0,0,0,1.032-2.859,4.347,4.347,0,0,0,1.577-3.732,3.955,3.955,0,0,0,1.134-2.766Zm-3.855.429a1.638,1.638,0,0,0-.9,2.148c.3,1.022-.3,1.235-.532,1.316a1.78,1.78,0,0,0-1.136,2.087c.023.1.052.2.079.3a2.654,2.654,0,0,1,.072.307.532.532,0,0,1-.14.41.5.5,0,0,1-.377.178c-3.221.034-6.491.035-9.712.007h-.016a1.826,1.826,0,0,0-.2.012c-.576,0-2.3-.005-4.063-.005-1.2,0-2.76,0-3.759.008v-8.2c1.227.008,3.327.01,4.973.008a1.779,1.779,0,0,0,1.578-.961c.545-1.053,1.1-2.1,1.651-3.153.679-1.288,1.38-2.621,2.064-3.945a3.922,3.922,0,0,0,.375-1.989c-.053-.828-.124-1.641-.212-2.524a1.687,1.687,0,0,1,.882.79,5.144,5.144,0,0,1,.5,3.348c-.054.6-.139,1.216-.23,1.867-.042.3-.085.6-.125.913a1.788,1.788,0,0,0,.426,1.405,1.789,1.789,0,0,0,1.339.6h1.566c1.175,0,3.753-.008,5.055-.012a.783.783,0,0,1,.416.13.854.854,0,0,1,.372.712.856.856,0,0,1-.213.567,1.732,1.732,0,0,0-.487,1.459,1.63,1.63,0,0,0,.822,1.2.769.769,0,0,1,.224.582.573.573,0,0,1-.3.428Zm0,0" fill="#4dd0e0"/>
      </g>
      <g id="Grupo_21430" data-name="Grupo 21430">
        <path id="Trazado_59101" data-name="Trazado 59101" d="M-995.528,1383.572a17.43,17.43,0,0,0,.649-3.708.783.783,0,0,1,.648-.721l7.947-1.4-1.253-7.083-7.94,1.4a.811.811,0,0,1-.138.012.783.783,0,0,1-.715-.467,17.227,17.227,0,0,0-1.593-2.843c-.513-.766-.5-.792-.431-.966a21.547,21.547,0,0,1,2.638-3.379c.586-.687,1.274-1.494,2.076-2.45l.642-.766-5.509-4.625-5.184,6.178a.782.782,0,0,1-.6.28.79.79,0,0,1-.346-.079,16.937,16.937,0,0,0-3.051-1.158c-.88-.255-.888-.282-.945-.462a21.6,21.6,0,0,1-.15-4.306c.006-.9.014-1.95.014-3.187v-1h-7.2v8.064a.781.781,0,0,1-.6.761,17.389,17.389,0,0,0-3.539,1.288.772.772,0,0,1-.343.08.782.782,0,0,1-.6-.281l-5.184-6.178-5.511,4.625,5.187,6.182a.783.783,0,0,1,.028.967,17.631,17.631,0,0,0-1.883,3.256.782.782,0,0,1-.715.466.818.818,0,0,1-.138-.012l-7.94-1.4-1.249,7.083,7.946,1.4a.783.783,0,0,1,.645.721,17.54,17.54,0,0,0,.648,3.709.783.783,0,0,1-.359.9l-5.05,2.913c-6.152-6.927-14.9-10.986-23.782-12.233,10.318-4.815,17.522-19.409,17.522-19.409s8-1.557,8-9.17-7.4-9.07-7.4-9.07l-.4-7.6,3.388-2.648.338-17.752-4.526-6-1.138-5.6h-38.062c-11.8,0-13.833,13.2-13.833,13.2a49.541,49.541,0,0,0,0,14.2c1.166,7.2,5.233,5.523,5.233,5.523l.2,6.468s-7.2,3.438-7.2,9.356,7.2,9.1,7.2,9.1c0,1.372,7.425,15.1,17.839,19.549a41.924,41.924,0,0,0-26.639,16.011c-4,5.4-6.781,17.038-4.8,20.8,2.425,4.6,6.4,3.8,6.4,3.8s56.4,1.531,63.4,0,6.721-7.23,6.721-7.23a35.459,35.459,0,0,0-4.283-15.392l4.472-2.582a.775.775,0,0,1,.39-.105.785.785,0,0,1,.569.243,17.859,17.859,0,0,0,2.881,2.421.782.782,0,0,1,.3.918l-2.756,7.578,6.76,2.461,2.759-7.583a.807.807,0,0,1,.807-.509h.013a18.008,18.008,0,0,0,1.882.1c.795,0,1.393-.054,1.75-.086.1-.009.175-.017.214-.018a.789.789,0,0,1,.738.514l2.758,7.581,6.761-2.461-2.759-7.578a.78.78,0,0,1,.3-.919,17.365,17.365,0,0,0,2.517-2.059c.343-.328.64-.612.762-.612.458,0,1.828.8,3.9,2.025.78.458,1.7,1,2.779,1.622l.866.5,3.6-6.231-6.98-4.029A.783.783,0,0,1-995.528,1383.572Zm-11.4.313a7.7,7.7,0,0,1-10.87,0,7.7,7.7,0,0,1,5.436-13.122A7.7,7.7,0,0,1-1006.933,1383.885Z" fill="url(#linear-gradient)"/>
        <path id="Trazado_59102" data-name="Trazado 59102" d="M-1024.379,1324.866a15.108,15.108,0,0,0,.56,3.2.783.783,0,0,1-.361.9l-5.978,3.451,3.024,5.233,5.979-3.452a.78.78,0,0,1,.391-.1.778.778,0,0,1,.566.241,15.234,15.234,0,0,0,2.487,2.089.783.783,0,0,1,.3.919l-2.363,6.486,5.679,2.067,2.362-6.487a.811.811,0,0,1,.807-.512h.013a15.182,15.182,0,0,0,1.624.087,16.885,16.885,0,0,0,1.708-.091.789.789,0,0,1,.737.516l2.361,6.487,5.679-2.067-2.361-6.485a.786.786,0,0,1,.3-.92,15.237,15.237,0,0,0,2.487-2.089.778.778,0,0,1,.566-.241.784.784,0,0,1,.392.1l5.978,3.453,3.024-5.233-5.977-3.452a.781.781,0,0,1-.361-.9,15.123,15.123,0,0,0,.56-3.2.782.782,0,0,1,.646-.721l6.8-1.2-1.049-5.952-6.8,1.2a.712.712,0,0,1-.138.012.782.782,0,0,1-.715-.467,15.178,15.178,0,0,0-1.626-2.811.784.784,0,0,1,.032-.967l4.438-5.288-4.629-3.884-4.436,5.286a.785.785,0,0,1-.6.28.766.766,0,0,1-.345-.081,15.042,15.042,0,0,0-3.05-1.109.783.783,0,0,1-.6-.762v-6.9h-6.044v6.9a.783.783,0,0,1-.6.762,15,15,0,0,0-3.051,1.11.772.772,0,0,1-.346.081.785.785,0,0,1-.6-.281l-4.437-5.286-4.629,3.884,4.438,5.289a.78.78,0,0,1,.032.967,15.063,15.063,0,0,0-1.625,2.811.786.786,0,0,1-.717.466.709.709,0,0,1-.137-.012l-6.8-1.2-1.051,5.952,6.8,1.2A.783.783,0,0,1-1024.379,1324.866Zm11.833-4.481a4.607,4.607,0,0,1,6.517,0,4.614,4.614,0,0,1,0,6.518,4.606,4.606,0,0,1-6.517,0A4.616,4.616,0,0,1-1012.546,1320.385Z" fill="url(#linear-gradient)"/>
      </g>
    </g>
    <g id="Grupo_21431" data-name="Grupo 21431">
      <path id="Trazado_59103" data-name="Trazado 59103" d="M-986.371,1380.366a3.11,3.11,0,0,0,2.519-3.6l-1.061-6.02a3.1,3.1,0,0,0-3.6-2.521l-6.085,1.073q-.352-.664-.752-1.3l3.973-4.734a3.111,3.111,0,0,0-.383-4.38l-4.687-3.929a3.1,3.1,0,0,0-4.376.383l-3.971,4.731c-.463-.188-.935-.359-1.409-.514v-6.177a3.113,3.113,0,0,0-3.11-3.107h-6.115a3.111,3.111,0,0,0-3.107,3.107v6.177q-.717.233-1.411.514l-3.972-4.731a3.1,3.1,0,0,0-4.377-.383l-4.684,3.929a3.1,3.1,0,0,0-.383,4.38l3.97,4.734q-.4.635-.752,1.3l-6.082-1.073a3.1,3.1,0,0,0-3.6,2.521l-1.061,6.02a3.112,3.112,0,0,0,2.521,3.6l6.085,1.073q.1.746.26,1.477l-2.672,1.541q-.888-.875-1.883-1.717a33.828,33.828,0,0,0-18.548-7.838,42.917,42.917,0,0,0,5.638-3.856c3.221-2.607,8.24-7.522,9.888-13.846a10.847,10.847,0,0,0,8.725-10.628,10.849,10.849,0,0,0-8.178-10.505v-5.655c2.579,0,3.8-1.559,3.8-3.286V1310.8a9.9,9.9,0,0,0-4.671-8.4v-2.317a3.637,3.637,0,0,0-3.654-3.61h-37.379a15.564,15.564,0,0,0-15.726,15.359c0,14.622-.623,17.148,1.986,19.1a6.265,6.265,0,0,0,4.061,1.637v3.777a10.852,10.852,0,0,0-7.229,10.217,10.858,10.858,0,0,0,7.711,10.378c1.58,6.447,6.689,11.456,9.953,14.1a43.192,43.192,0,0,0,5.637,3.858,33.871,33.871,0,0,0-25.788,16.364,1.788,1.788,0,0,0,.617,2.447,1.785,1.785,0,0,0,2.447-.616,30.506,30.506,0,0,1,7.353-8.346,17.114,17.114,0,0,0-.718,5.314,3.2,3.2,0,0,0,5.295,2.321l5.6-4.044c.057,0,12.332,5.353,12.384,5.376a4.11,4.11,0,0,0,.747.407v19.736h-29.691a5.245,5.245,0,0,1-5.24-5.241,30.26,30.26,0,0,1,1.486-9.4,1.782,1.782,0,0,0-1.144-2.247,1.779,1.779,0,0,0-2.248,1.141,33.836,33.836,0,0,0-1.663,10.511,8.819,8.819,0,0,0,8.809,8.809h62.951a8.74,8.74,0,0,0,6.226-2.578c2.456-2.451,2.85-5.864,2.458-6.887a12.063,12.063,0,0,0-.1-3.551l5.563,2.024a3.1,3.1,0,0,0,3.983-1.855l2.115-5.809c.5.019,1,.019,1.5,0l2.112,5.809a3.113,3.113,0,0,0,3.985,1.855l5.746-2.091a3.106,3.106,0,0,0,1.858-3.982l-2.114-5.808q.591-.462,1.146-.964l5.354,3.09a3.1,3.1,0,0,0,4.244-1.137l3.06-5.3a3.112,3.112,0,0,0-1.138-4.246l-5.349-3.09c.1-.488.189-.98.256-1.477Zm-104.264-27.489a7.271,7.271,0,0,1-3.661-6.308,7.268,7.268,0,0,1,3.661-6.306Zm35.583,30.974V1378.5a30.248,30.248,0,0,1,7.348,1.767c3.282,1.841,4.952,4.779,5.092,8.963-5.773-4.167-5.421-3.928-5.616-4.034a3.681,3.681,0,0,0-3.2-.1l-6.806,2.9,2.71-2.922a1.792,1.792,0,0,0,.476-1.212Zm20.611-37.279a7.272,7.272,0,0,1-4.614,6.764c0-.1,0-.211,0-.315v-13.215a7.279,7.279,0,0,1,4.61,6.766Zm-5.818-39.811c1.869,2.348,1.439,2.532,1.439,20.084h-8.463a6.323,6.323,0,0,1-5.619-3.433c5.821-3.937,11.261-9.734,12.643-16.651Zm-51.347,22h0c-2.013-.973-1.506-2.3-1.506-16.924a11.994,11.994,0,0,1,12.172-11.791c.067,0,37.45-.024,37.45.042a44.8,44.8,0,0,1-.066,4.611c-1.1,10.887-14.907,20.368-30.148,23.225l-.012,0c-7.935,1.5-17.022,1.233-17.888.835Zm5.3,28.624c-1.049-3.029-.761-3.718-.761-18.081v-6.722c10.963,0,21.556-1.815,31.125-7.284a9.9,9.9,0,0,0,8.659,5.116h4.664v22.609c0,10.937-15.771,21.722-22.724,21.722-5.017-.5-17.726-7.952-20.963-17.36Zm8.07,27.717a3.633,3.633,0,0,0-3.441.23l-5.4,3.9c.257-7.619,5.121-9.853,12.441-10.73v5.352a1.78,1.78,0,0,0,.449,1.185l2.648,2.98Zm7.168-1.928v-6.495c4.931,2.169,7.464,2.195,12.448,0v6.474l-6.368,6.863Zm41.4,29.156a5.2,5.2,0,0,1-3.7,1.535h-29.692v-19.889c1.011-.532,13.061-5.625,13.126-5.632l5.6,4.046a3.264,3.264,0,0,0,3.4.5,3.082,3.082,0,0,0,1.9-2.821,17.125,17.125,0,0,0-.718-5.313c.574.449,1.276,1.041,1.886,1.606a3.114,3.114,0,0,0-.645,3.892l3.059,5.3a3.1,3.1,0,0,0,4.244,1.137l.505-.293a36.068,36.068,0,0,1,2.675,11.64c-.216.625.163,2.505-1.636,4.3Zm3.54-13.872a35.808,35.808,0,0,0-1.49-3.847l1.761-1.015q.556.5,1.146.964Zm30.459-13.121,6.115,3.53-2.6,4.5c-9.529-5.5-6.076-4.268-11.018-.94a1.784,1.784,0,0,0-.681,2.091l2.417,6.639-4.881,1.777-2.417-6.642a1.785,1.785,0,0,0-1.677-1.172,18.4,18.4,0,0,1-3.741.009,1.78,1.78,0,0,0-1.865,1.163l-2.417,6.642-4.881-1.777,2.414-6.639a1.783,1.783,0,0,0-.68-2.091,16.9,16.9,0,0,1-2.719-2.284,1.781,1.781,0,0,0-2.178-.309c-2.932,1.69-6.122,3.533-6.122,3.533-2.374-4.111-1.857-3.214-2.6-4.5,3.692-2.131,2.312-1.335,6.118-3.53a1.787,1.787,0,0,0,.821-2.041,16.475,16.475,0,0,1-.611-3.5,1.788,1.788,0,0,0-1.47-1.64l-6.961-1.227.9-5.114,6.956,1.225a1.785,1.785,0,0,0,1.941-1.035,16.542,16.542,0,0,1,1.776-3.07,1.785,1.785,0,0,0-.071-2.2l-4.543-5.415,3.979-3.339,4.541,5.412a1.78,1.78,0,0,0,2.153.454,16.382,16.382,0,0,1,3.335-1.213,1.783,1.783,0,0,0,1.358-1.732v-7.064h5.2c0,11.023-.647,7.382,4.69,10.009a1.787,1.787,0,0,0,2.156-.454l4.541-5.412,3.978,3.339c-7.077,8.438-5.25,5.24-2.838,10.686a1.783,1.783,0,0,0,1.941,1.035l6.955-1.225.9,5.114-6.96,1.227a1.787,1.787,0,0,0-1.473,1.64,16.5,16.5,0,0,1-.611,3.5,1.784,1.784,0,0,0,.823,2.041Zm0,0" fill="#4dd0e0"/>
      <path id="Trazado_59104" data-name="Trazado 59104" d="M-1027.013,1378.449" fill="#4dd0e0"/>
      <path id="Trazado_59105" data-name="Trazado 59105" d="M-1005.752,1385.067a9.369,9.369,0,0,0-6.618-15.977,9.369,9.369,0,0,0-6.617,15.977,9.369,9.369,0,0,0,13.235,0Zm-6.617-12.409a5.8,5.8,0,0,1,4.094,9.886,5.8,5.8,0,0,1-8.189,0,5.8,5.8,0,0,1,4.095-9.886Zm0,0" fill="#4dd0e0"/>
      <path id="Trazado_59106" data-name="Trazado 59106" d="M-1031.911,1325.54l5.119.9c.048.323.1.646.17.965l-4.5,2.6a2.938,2.938,0,0,0-1.074,4.008l2.656,4.6a2.933,2.933,0,0,0,4.008,1.074l4.5-2.6c.245.216.494.426.749.628l-1.778,4.886a2.939,2.939,0,0,0,1.754,3.761c5.45,1.983,5.307,1.993,5.991,1.993a2.941,2.941,0,0,0,2.761-1.93l1.778-4.886c.327.009.652.009.978,0l1.778,4.886a2.938,2.938,0,0,0,3.761,1.753l4.991-1.816a2.937,2.937,0,0,0,1.754-3.761l-1.778-4.886q.383-.3.749-.628l4.5,2.6a2.933,2.933,0,0,0,4.008-1.074l2.657-4.6a2.939,2.939,0,0,0-1.075-4.008l-4.5-2.6c.066-.319.122-.642.17-.965l5.119-.9a2.938,2.938,0,0,0,2.379-3.4l-.922-5.232a2.938,2.938,0,0,0-3.4-2.379l-5.118.9q-.234-.43-.49-.847l3.341-3.982a2.932,2.932,0,0,0-.361-4.133l-4.07-3.414a2.932,2.932,0,0,0-4.133.361l-3.34,3.98c-.3-.12-.611-.232-.921-.335v-5.2a2.937,2.937,0,0,0-2.934-2.933h-5.312a2.937,2.937,0,0,0-2.933,2.933v5.2c-.311.1-.618.215-.922.335l-3.34-3.98a2.936,2.936,0,0,0-4.133-.362l-4.069,3.414a2.934,2.934,0,0,0-.362,4.134l3.341,3.981q-.257.419-.491.848l-5.117-.9a2.936,2.936,0,0,0-3.4,2.379l-.923,5.231a2.938,2.938,0,0,0,2.379,3.4Zm1.947-7.387,5.811,1.025a1.783,1.783,0,0,0,1.942-1.035,14.112,14.112,0,0,1,1.518-2.625,1.782,1.782,0,0,0-.073-2.2l-3.8-4.523,3.1-2.6,3.794,4.521a1.784,1.784,0,0,0,2.155.454,14,14,0,0,1,2.847-1.036,1.785,1.785,0,0,0,1.359-1.733v-5.9h4.044v5.9a1.785,1.785,0,0,0,1.358,1.733,13.981,13.981,0,0,1,2.848,1.036,1.784,1.784,0,0,0,2.155-.454l3.793-4.521,3.1,2.6-3.8,4.523a1.785,1.785,0,0,0-.073,2.2,14.172,14.172,0,0,1,1.519,2.625,1.781,1.781,0,0,0,1.941,1.035l5.812-1.025.7,3.982-5.815,1.026a1.785,1.785,0,0,0-1.471,1.639,14.157,14.157,0,0,1-.523,2.986,1.784,1.784,0,0,0,.822,2.041l5.11,2.951-2.022,3.5-5.113-2.953a1.786,1.786,0,0,0-2.179.309,14.258,14.258,0,0,1-2.324,1.952,1.784,1.784,0,0,0-.681,2.091l2.019,5.547-3.8,1.383-2.018-5.548a1.788,1.788,0,0,0-1.867-1.164,14.251,14.251,0,0,1-3.035,0,1.783,1.783,0,0,0-1.866,1.164l-2.02,5.548-3.8-1.383,2.02-5.547a1.785,1.785,0,0,0-.682-2.091,14.258,14.258,0,0,1-2.324-1.952,1.785,1.785,0,0,0-2.178-.309l-5.114,2.953-2.022-3.5,5.111-2.951a1.783,1.783,0,0,0,.821-2.041,14.148,14.148,0,0,1-.522-2.986,1.785,1.785,0,0,0-1.471-1.639l-5.815-1.026Zm0,0" fill="#4dd0e0"/>
      <path id="Trazado_59107" data-name="Trazado 59107" d="M-1004.214,1328.717a7.184,7.184,0,0,0-5.073-12.247,7.184,7.184,0,0,0-5.074,12.247,7.171,7.171,0,0,0,10.147,0Zm-7.624-7.624a3.606,3.606,0,0,1,5.1,0,3.61,3.61,0,0,1,0,5.1,3.6,3.6,0,0,1-5.1,0,3.613,3.613,0,0,1,0-5.1Zm0,0" fill="#4dd0e0"/>
      <path id="Trazado_59108" data-name="Trazado 59108" d="M-1036.955,1405.1h-15.287a1.784,1.784,0,0,0-1.784,1.784,1.784,1.784,0,0,0,1.784,1.784h15.287a1.784,1.784,0,0,0,1.784-1.784,1.784,1.784,0,0,0-1.784-1.784Zm0,0" fill="#4dd0e0"/>
      <path id="Trazado_59109" data-name="Trazado 59109" d="M-1077.443,1408.67a1.784,1.784,0,0,0,1.783-1.784,1.784,1.784,0,0,0-1.783-1.784h-15.288a1.784,1.784,0,0,0-1.784,1.784,1.784,1.784,0,0,0,1.784,1.784Zm0,0" fill="#4dd0e0"/>
    </g>
  </g>
</svg>
