<svg xmlns="http://www.w3.org/2000/svg" width="132" height="126" viewBox="0 0 132 126">
  <g id="Grupo_10197" data-name="Grupo 10197" transform="translate(-107 -3487)">
    <g id="Grupo_10145" data-name="Grupo 10145" transform="translate(0 506)">
      <g id="Grupo_4188" data-name="Grupo 4188" transform="translate(107 2981)">
        <g id="Elipse_509" data-name="Elipse 509" fill="#fff" stroke="#ca9c2c" stroke-width="5">
          <ellipse cx="66" cy="63" rx="66" ry="63" stroke="none"/>
          <ellipse cx="66" cy="63" rx="63.5" ry="60.5" fill="none"/>
        </g>
      </g>
      <path id="Trazado_1314" data-name="Trazado 1314" d="M871.51,56.79l-57-11.68a5.59,5.59,0,0,0-6.6,4.36L794.48,115a5.59,5.59,0,0,0,4.36,6.6l57,11.68a5.59,5.59,0,0,0,6.6-4.36l13.41-65.48a5.59,5.59,0,0,0-4.34-6.65ZM813.4,50.46l57,11.67a.15.15,0,0,1,.11.16l-1.86,9.07-9.67-2,.34-1.64a2.11,2.11,0,0,0-1.64-2.48l-.77-.16a2.11,2.11,0,0,0-2.48,1.64l-.34,1.64-3.34-.69.33-1.63a2.09,2.09,0,0,0-1.63-2.48l-.77-.16a2.1,2.1,0,0,0-2.48,1.64l-.34,1.63-2.31-.47.33-1.64a2.11,2.11,0,0,0-1.64-2.48l-.77-.16A2.11,2.11,0,0,0,839,63.58l-.33,1.63L836,64.66l.34-1.63a2.11,2.11,0,0,0-1.64-2.48l-.77-.16A2.11,2.11,0,0,0,831.42,62l-.33,1.63-2.32-.47.33-1.64a2.1,2.1,0,0,0-1.63-2.48l-.77-.16a2.12,2.12,0,0,0-2.49,1.64l-.33,1.63-12.5-2.56,1.86-9.06a.13.13,0,0,1,.16-.07Zm35,60.14-.78-.15a2.1,2.1,0,0,0-2.48,1.63l-.33,1.64-3.34-.69.33-1.63a2.11,2.11,0,0,0-1.64-2.48l-.77-.16a2.11,2.11,0,0,0-2.48,1.64l-.31,1.6-9.91-2,.33-1.63a2.1,2.1,0,0,0-1.63-2.48l-.77-.16a2.11,2.11,0,0,0-2.48,1.64L821.8,109l-2.32-.47.34-1.64a2.11,2.11,0,0,0-1.64-2.48l-.77-.16a2.11,2.11,0,0,0-2.48,1.64l-.33,1.64L802.1,105l2.68-13.1,12.5,2.56-.34,1.64a2.12,2.12,0,0,0,1.64,2.48l.77.15a2.1,2.1,0,0,0,2.48-1.63l.34-1.64,2.31.48-.33,1.63a2.11,2.11,0,0,0,1.63,2.48l.78.16A2.12,2.12,0,0,0,829,98.54l.33-1.63,2.7.55-.33,1.64a2.11,2.11,0,0,0,1.64,2.48l.77.15a2.1,2.1,0,0,0,2.48-1.63l.33-1.64,2.32.48-.34,1.63a2.11,2.11,0,0,0,1.64,2.48l.77.16a2.11,2.11,0,0,0,2.48-1.64l.34-1.63,17.9,3.66-2.69,13.1-9.66-2,.33-1.64a2.1,2.1,0,0,0-1.59-2.46Zm-3.84-12.68.33-1.64a2.1,2.1,0,0,0-1.63-2.48l-.77-.15A2.09,2.09,0,0,0,840,95.28l-.34,1.64-2.32-.48.34-1.63a2.11,2.11,0,0,0-1.64-2.48l-.77-.16a2.11,2.11,0,0,0-2.48,1.64l-.33,1.63-2.71-.55.34-1.64a2.12,2.12,0,0,0-1.64-2.48l-.77-.15a2.1,2.1,0,0,0-2.48,1.63l-.33,1.64-2.32-.48.33-1.63a2.1,2.1,0,0,0-1.63-2.48l-.77-.16A2.11,2.11,0,0,0,818,90.78l-.34,1.63-12.5-2.56,2.68-13.09,27.3,5.59L834.83,84a2.11,2.11,0,0,0,1.64,2.48l.77.16A2.11,2.11,0,0,0,839.72,85l.34-1.63,2.31.47L842,85.46a2.11,2.11,0,0,0,1.63,2.48l.78.16a2.12,2.12,0,0,0,2.48-1.64l.33-1.64,3.35.69-.34,1.63a2.11,2.11,0,0,0,1.64,2.48l.77.16a2.11,2.11,0,0,0,2.48-1.64l.34-1.63,9.66,2-2.68,13.09Zm11.33-13.43.33-1.63a2.09,2.09,0,0,0-1.63-2.48l-.78-.16a2.11,2.11,0,0,0-2.48,1.64L851,83.49l-3.35-.69.34-1.63a2.11,2.11,0,0,0-1.64-2.48l-.77-.16a2.11,2.11,0,0,0-2.48,1.64l-.33,1.63-2.32-.47.33-1.64a2.1,2.1,0,0,0-1.63-2.48l-.77-.15a2.1,2.1,0,0,0-2.48,1.63l-.34,1.64-27.3-5.59L811,61.64l12.5,2.56-.34,1.64a2.11,2.11,0,0,0,1.64,2.48l.77.16A2.11,2.11,0,0,0,828,66.84l.34-1.64,2.31.48-.33,1.63A2.1,2.1,0,0,0,832,69.79l.78.16a2.11,2.11,0,0,0,2.48-1.64l.33-1.63,2.7.55-.33,1.64a2.11,2.11,0,0,0,1.63,2.48l.78.16a2.12,2.12,0,0,0,2.48-1.64l.33-1.64,2.32.48-.34,1.63a2.11,2.11,0,0,0,1.64,2.48l.77.16A2.11,2.11,0,0,0,850,71.34l.34-1.63,3.34.68L853.37,72A2.1,2.1,0,0,0,855,74.51l.78.16A2.12,2.12,0,0,0,858.26,73l.33-1.63,9.67,2-2.69,13.09Zm1,43.4-57-11.68a.13.13,0,0,1-.1-.16l1.85-9.06,12.5,2.56-.33,1.63a2.11,2.11,0,0,0,1.63,2.48l.78.16a2.12,2.12,0,0,0,2.48-1.64l.33-1.63,2.32.47-.34,1.64a2.12,2.12,0,0,0,1.64,2.48l.77.15a2.1,2.1,0,0,0,2.48-1.63l.34-1.64,9.9,2-.33,1.63a2.12,2.12,0,0,0,1.63,2.49l.78.15a2.1,2.1,0,0,0,2.48-1.63l.33-1.64,3.35.69-.34,1.63a2.11,2.11,0,0,0,1.64,2.48l.77.16a2.11,2.11,0,0,0,2.48-1.64l.34-1.63,9.66,2-1.85,9.06a.16.16,0,0,1-.08.12Z" transform="translate(-666 2953)" fill="#fdb813" style="mix-blend-mode: multiply;isolation: isolate"/>
    </g>
  </g>
</svg>
