<svg xmlns="http://www.w3.org/2000/svg" width="132" height="126" viewBox="0 0 132 126">
  <g id="Grupo_10202" data-name="Grupo 10202" transform="translate(-107 -4375)">
    <g id="Grupo_10150" data-name="Grupo 10150" transform="translate(0 314)">
      <g id="Grupo_4193" data-name="Grupo 4193" transform="translate(107 4061)">
        <g id="Elipse_509" data-name="Elipse 509" fill="#fff" stroke="#ca9c2c" stroke-width="5">
          <ellipse cx="66" cy="63" rx="66" ry="63" stroke="none"/>
          <ellipse cx="66" cy="63" rx="63.5" ry="60.5" fill="none"/>
        </g>
      </g>
      <g id="Grupo_4195" data-name="Grupo 4195" transform="translate(-307.331 -13162.973)">
        <path id="Trazado_8159" data-name="Trazado 8159" d="M6.2,0H89.718A6.192,6.192,0,0,1,95.91,6.192V46.351a6.192,6.192,0,0,1-6.192,6.192H6.2a6.2,6.2,0,0,1-6.2-6.2V6.144A6.192,6.192,0,0,1,6.2,0Z" transform="matrix(0.101, -0.995, 0.995, 0.101, 447.43, 17332.154)" fill="#134663"/>
        <rect id="Rectángulo_2584" data-name="Rectángulo 2584" width="74.387" height="45.471" rx="2.09" transform="matrix(0.101, -0.995, 0.995, 0.101, 452.251, 17319.488)" fill="#55d6d2"/>
        <path id="Trazado_8160" data-name="Trazado 8160" d="M933.916,152.492a3.565,3.565,0,0,1-3.922,3.209l-7.262-.737a3.565,3.565,0,0,1-3.209-3.922h0a3.566,3.566,0,0,1,3.922-3.209l7.262.737a3.566,3.566,0,0,1,3.209,3.922Z" transform="translate(-452.971 17176.963)" fill="#fff"/>
        <path id="Trazado_8161" data-name="Trazado 8161" d="M941.428,80.739a1.391,1.391,0,0,1-1.509,1.188L928.26,80.739a1.379,1.379,0,0,1-1.188-1.509h0a1.379,1.379,0,0,1,1.509-1.188l11.647,1.188a1.391,1.391,0,0,1,1.189,1.509Z" transform="translate(-451.546 17163.811)" fill="#fff"/>
        <path id="Trazado_8162" data-name="Trazado 8162" d="M946.044,102.05l-8.854,2.377-.071.57,3.256,2.175-.107.131-.273.333-.309.345c-.214.226-.44.475-.689.713a22.128,22.128,0,0,1-1.7,1.521l-.487.38a1.962,1.962,0,0,1-.25.19l-.261.19c-.345.25-.7.511-1.081.749l-.57.368-.594.345-.606.357-.63.321c-.214.107-.428.226-.642.321l-.654.309c-.44.214-.891.38-1.343.57-.9.357-1.83.677-2.757.951l-.345.1-.345.1-.7.178h-.273l-.357.071-.7.155-.345.071h-.333l-.654.107c-.44.083-.879.119-1.3.178l-.63.071h-.559l-4.492-.535-1.64-.19-.071.57.357.083,1,.226.713.143c.261,0,.547.107.856.143l.974.131c.345,0,.7.071,1.081.107s.773.059,1.188.071h5.479l.749-.1h.737c1-.166,2.02-.38,3.019-.642.5-.143,1-.261,1.486-.44l.737-.226.725-.273.725-.261.7-.3.689-.309.677-.321c.44-.2.868-.452,1.284-.677l.321-.166.3-.178.594-.368a23.757,23.757,0,0,0,2.127-1.474c.321-.238.618-.5.891-.737l.416-.357.368-.357c.131-.107.238-.226.357-.333s.131-.131.2-.2l3.352,2.246.071-.57Z" transform="translate(-453.88 17168.338)" fill="#f85b30"/>
        <rect id="Rectángulo_2585" data-name="Rectángulo 2585" width="10.625" height="9.722" transform="translate(460.551 17297.295) rotate(-83.13)" fill="#f85b30"/>
        <rect id="Rectángulo_2586" data-name="Rectángulo 2586" width="12.812" height="9.722" transform="translate(472.026 17298.676) rotate(-83.13)" fill="#ffca00"/>
        <rect id="Rectángulo_2587" data-name="Rectángulo 2587" width="17.97" height="9.722" transform="translate(483.522 17300.063) rotate(-83.13)" fill="#134663"/>
        <path id="Trazado_8163" data-name="Trazado 8163" d="M946.807,110.935l-.689-9.365-8.925,2.888,3.256,2.175-.107.131-.273.333-.309.345c-.214.226-.44.487-.689.725-.5.487-1.07,1-1.7,1.509l-.487.38-.25.2-.261.178c-.345.25-.7.511-1.081.749l-.57.368-.594.345-.606.357-.63.321-.642.333-.654.3c-.44.214-.891.38-1.343.57-.9.357-1.83.677-2.757.951l-.345.107-.357.083-.689.178h-.345l-.345.083-.7.143-.345.071h-.333l-.666.107c-.428.083-.868.119-1.284.178l-.63.071h-5.408l-1.022-.107h-.357l.357.083,1,.238.713.131a8.351,8.351,0,0,1,.844.143l.974.131c.345,0,.713.071,1.093.107a10.534,10.534,0,0,1,1.189.083H926.4l.737-.1h.38l.368-.071c1-.166,2.009-.38,3.007-.642.5-.131,1.01-.261,1.5-.428l.737-.238.725-.273.725-.261.7-.3c.226-.107.464-.19.689-.309l.666-.321c.452-.2.879-.44,1.3-.666l.309-.178.309-.178.594-.357c.773-.487,1.486-.986,2.127-1.486.321-.238.606-.5.891-.737l.416-.357.368-.345.356-.345.2-.19Z" transform="translate(-453.882 17168.246)" fill="#f85b30"/>
      </g>
    </g>
  </g>
</svg>
