<svg xmlns="http://www.w3.org/2000/svg" width="132" height="126" viewBox="0 0 132 126">
  <g id="Grupo_10201" data-name="Grupo 10201" transform="translate(-107 -4206)">
    <g id="Grupo_10149" data-name="Grupo 10149" transform="translate(0 360)">
      <g id="Grupo_4192" data-name="Grupo 4192" transform="translate(107 3846)">
        <g id="Elipse_509" data-name="Elipse 509" fill="#fff" stroke="#ca9c2c" stroke-width="5">
          <ellipse cx="66" cy="63" rx="66" ry="63" stroke="none"/>
          <ellipse cx="66" cy="63" rx="63.5" ry="60.5" fill="none"/>
        </g>
      </g>
      <g id="Grupo_4194" data-name="Grupo 4194" transform="translate(-598.029 3627.406) rotate(11)" style="mix-blend-mode: multiply;isolation: isolate">
        <path id="Trazado_1366" data-name="Trazado 1366" d="M773.917,113.172h4.639l-.741-7.286,65.026-4.857.425,4.129h5.683a6.884,6.884,0,0,1,2.076.34l.061-1.481a4.347,4.347,0,0,0-4.323-4.432L813.6,99.474l-1.809-4.7a6.472,6.472,0,0,0-5.6-3.849l-30.078-.316a4.347,4.347,0,0,0-4.335,4.323l.656,18.385A6.51,6.51,0,0,1,773.917,113.172Z" transform="translate(0.435)" fill="#559928"/>
        <path id="Trazado_1367" data-name="Trazado 1367" d="M849.4,103.6l-31.961.291a6.958,6.958,0,0,0-5.95,3.461l-1.919,4.226-35.215.109a4.3,4.3,0,0,0-4.6,3.886l2,39.514a4.1,4.1,0,0,0,4.371,3.643H847.6a4.1,4.1,0,0,0,4.372-3.716l2-47.552A4.3,4.3,0,0,0,849.4,103.6Zm-29.058,37.061c0,5.428-3.23,6.654-6.4,6.654v2.611H810.9v-2.647a16.783,16.783,0,0,1-5.6-.971v-4.044c1.275.1,4.408.316,7.371.316,1.348,0,2.429-.328,2.429-1.7v-.923c0-1.154-.364-1.834-1.931-1.834h-2.429c-5.707,0-6.144-4.675-6.144-6.436V129.71c0-4.554,2.817-6.072,6.327-6.144v-2.732h3.036v2.756a21.759,21.759,0,0,1,5.537.959v4.068c-1.931-.17-5.355-.316-6.934-.316-1.846,0-2.744.134-2.744,1.894v.777c0,1.384.571,1.931,2.259,1.931h2.562c4.724,0,5.719,3.874,5.719,6.436Z" transform="translate(0 2.782)" fill="#559928"/>
        <path id="Trazado_1368" data-name="Trazado 1368" d="M806.978,110.994l1.579-3.473a8.233,8.233,0,0,1,7.128-4.226l24.966-.219-.279-2.756-62.452,4.663.619,6.072Z" transform="translate(1.751 2.081)" fill="#559928"/>
      </g>
    </g>
  </g>
</svg>
