<svg xmlns="http://www.w3.org/2000/svg" xmlns:xlink="http://www.w3.org/1999/xlink" viewBox="0 0 104.26 104.26"><defs><style>.cls-1{fill:url(#Degradado_sin_nombre_25);}.cls-2{fill:#36afea;}</style><linearGradient id="Degradado_sin_nombre_25" x1="52.13" y1="102.74" x2="52.13" y2="1.88" gradientUnits="userSpaceOnUse"><stop offset="0" stop-color="#cbf1f6"/><stop offset="1" stop-color="#fff"/></linearGradient></defs><g id="Capa_2" data-name="Capa 2"><g id="CONTENIDO"><polygon class="cls-1" points="1.7 85.73 1.7 102.74 11.62 102.74 11.62 92.42 47.17 92.42 47.57 102.74 57.6 101.93 57.6 92.42 91.83 92.42 91.83 102.74 102.56 102.74 102.56 85.73 94.09 85.73 94.09 43.6 73.24 43.6 73.24 1.88 31.54 1.88 31.54 43 10.68 43.6 10.68 85.33 1.7 85.73"/><path class="cls-2" d="M102.52,83.41h-7V69.51a1.74,1.74,0,1,0-3.48,0v13.9H53.87V45.18H66V57.34a1.74,1.74,0,0,0,1.74,1.74H78.19a1.74,1.74,0,0,0,1.74-1.74V45.18H92.09V62.55a1.74,1.74,0,0,0,3.48,0V43.44a1.74,1.74,0,0,0-1.74-1.74H74.72v-40A1.74,1.74,0,0,0,73,0H31.28a1.74,1.74,0,0,0-1.74,1.74V17.38a1.74,1.74,0,0,0,3.48,0V3.48H45.18V15.64a1.74,1.74,0,0,0,1.74,1.74H57.34a1.74,1.74,0,0,0,1.74-1.74V3.48H71.24V41.7H33V24.33a1.74,1.74,0,0,0-3.48,0V41.7H20.85a1.74,1.74,0,0,0,0,3.48h3.48V57.34a1.74,1.74,0,0,0,1.73,1.74H36.49a1.74,1.74,0,0,0,1.74-1.74V45.18H50.39V83.41H12.16V45.18H13.9a1.74,1.74,0,1,0,0-3.48H10.43a1.74,1.74,0,0,0-1.74,1.74v40H1.74A1.74,1.74,0,0,0,0,85.14v17.38a1.74,1.74,0,0,0,1.74,1.74H12.16a1.74,1.74,0,0,0,1.74-1.74V93.83H45.18v8.69a1.74,1.74,0,0,0,1.74,1.74H57.34a1.74,1.74,0,0,0,1.74-1.74V93.83H71.24a1.74,1.74,0,1,0,0-3.47H3.48V86.88h97.3v3.48H78.19a1.74,1.74,0,0,0,0,3.47H90.36v8.69a1.74,1.74,0,0,0,1.73,1.74h10.43a1.74,1.74,0,0,0,1.74-1.74V85.14a1.74,1.74,0,0,0-1.74-1.73ZM55.6,13.9h-7V3.48h7ZM69.51,45.18h6.95V55.6H69.51ZM34.75,55.6H27.8V45.18h7Zm13.9,38.23h7v7h-7Zm-38.22,0v7H3.48v-7Zm90.35,7h-7v-7h7Z"/><path class="cls-2" d="M66,74.72a1.74,1.74,0,0,0-1.74,1.74v1.73a1.74,1.74,0,0,0,3.48,0V76.46A1.74,1.74,0,0,0,66,74.72Z"/><path class="cls-2" d="M59.08,74.72a1.74,1.74,0,0,0-1.74,1.74v1.73a1.74,1.74,0,0,0,3.48,0V76.46a1.74,1.74,0,0,0-1.74-1.74Z"/><path class="cls-2" d="M24.33,74.72a1.74,1.74,0,0,0-1.74,1.74v1.73a1.74,1.74,0,1,0,3.47,0V76.46a1.73,1.73,0,0,0-1.73-1.74Z"/><path class="cls-2" d="M17.38,74.72a1.74,1.74,0,0,0-1.74,1.74v1.73a1.74,1.74,0,1,0,3.47,0V76.46a1.73,1.73,0,0,0-1.73-1.74Z"/><path class="cls-2" d="M45.18,33a1.73,1.73,0,0,0-1.74,1.73v1.74a1.74,1.74,0,1,0,3.48,0V34.75A1.73,1.73,0,0,0,45.18,33Z"/><path class="cls-2" d="M38.23,33a1.73,1.73,0,0,0-1.74,1.73v1.74a1.74,1.74,0,0,0,3.48,0V34.75A1.73,1.73,0,0,0,38.23,33Z"/></g></g></svg>