<svg xmlns="http://www.w3.org/2000/svg" xmlns:xlink="http://www.w3.org/1999/xlink" viewBox="0 0 106.62 106.62"><defs><style>.cls-1{fill:url(#Degradado_sin_nombre_25);}.cls-2{fill:#36afea;}</style><linearGradient id="Degradado_sin_nombre_25" x1="53.43" y1="104.26" x2="53.43" y2="1.66" gradientUnits="userSpaceOnUse"><stop offset="0" stop-color="#cbf1f6"/><stop offset="1" stop-color="#fff"/></linearGradient></defs><g id="Capa_2" data-name="Capa 2"><g id="CONTENIDO"><path class="cls-1" d="M1.86,97.26s.36,3.6,6,2.8a199,199,0,0,0,38.79,4.2c20.21,0,41.81-6.09,41.81-6.09l3.17,1V87.66s17.69-3.4,11.49-15a6.83,6.83,0,0,0,0-8.52,9,9,0,0,0,0-8.69s2.91-3.49,1.49-7c0,0-3-.8-4.55,0,0,0,3.44-5.61,1.17-7.5,0,0-1.45-1-6.17,0,0,0-.46-7.8-3.43-9a11.27,11.27,0,0,0-3.27,9.4S85.67,40,81,40.66V28.46S65.54,4.36,46.65,1.66c0,0-16.09-.5-32.89,27l-11.5.6v11.5l4.3,1.61S.54,60.17,5,91.26Z"/><path class="cls-2" d="M81.31,99.16c-7.8,1.54-22.68,4.13-34.66,4.13-17.43,0-38.14-5.63-39.77-4.82a2.35,2.35,0,0,1-3.5-1.4C9.52,87.12,5,100.75,5,65c0-2.71.69-8.38,2-16.39A1.67,1.67,0,0,0,3.71,48c-1.35,8.3-2,14-2,16.93,0,17.31,1.07,24.17,1.54,26.34L.28,95.7c-.7,1-.15,4.06,2.27,5.56a5.9,5.9,0,0,0,5.25.44c30.66,6.64,47,6.1,74.16.73a1.69,1.69,0,0,0,1.06-.71,1.62,1.62,0,0,0,.25-1.25,1.67,1.67,0,0,0-2-1.31Z"/><path class="cls-2" d="M5,43.32H43.32a1.67,1.67,0,0,0,0-3.34H5a1.67,1.67,0,0,1,0-3.33H18.33a1.67,1.67,0,0,0,0-3.33H5A1.67,1.67,0,0,1,5,30H76.64a1.67,1.67,0,0,0,0-3.33H5A5,5,0,0,0,1.28,35,5,5,0,0,0,5,43.32Z"/><path class="cls-2" d="M18.69,22.79C30.27,10.24,40.2,3.33,46.65,3.33s16.38,6.91,28,19.46a1.67,1.67,0,0,0,2.45-2.26C68.41,11.16,56.12,0,46.65,0S24.89,11.16,16.24,20.53a1.67,1.67,0,0,0,2.45,2.26Z"/><path class="cls-2" d="M31.66,33.32a1.67,1.67,0,1,0,0,3.33h15a1.67,1.67,0,1,0,0-3.33Z"/><path class="cls-2" d="M26.66,35A1.67,1.67,0,1,1,25,33.32,1.67,1.67,0,0,1,26.66,35Z"/><path class="cls-2" d="M40,15a1.67,1.67,0,1,1-1.67-1.66A1.67,1.67,0,0,1,40,15Z"/><path class="cls-2" d="M45,8.33a1.67,1.67,0,1,1-1.66-1.67A1.66,1.66,0,0,1,45,8.33Z"/><path class="cls-2" d="M48.32,13.33a1.67,1.67,0,1,1-1.67-1.67,1.66,1.66,0,0,1,1.67,1.67Z"/><path class="cls-2" d="M53.31,10A1.67,1.67,0,0,1,50,10a1.67,1.67,0,1,1,3.33,0Z"/><path class="cls-2" d="M56.65,16.66A1.67,1.67,0,1,1,55,15a1.67,1.67,0,0,1,1.67,1.67Z"/><path class="cls-2" d="M63.31,21.66A1.67,1.67,0,1,1,61.64,20a1.66,1.66,0,0,1,1.67,1.67Z"/><path class="cls-2" d="M51.65,21.66A1.67,1.67,0,1,1,50,20a1.66,1.66,0,0,1,1.67,1.67Z"/><path class="cls-2" d="M43.32,21.66A1.67,1.67,0,1,1,41.65,20a1.66,1.66,0,0,1,1.67,1.67Z"/><path class="cls-2" d="M33.32,21.66a1.67,1.67,0,0,1-3.33,0,1.67,1.67,0,1,1,3.33,0Z"/><path class="cls-2" d="M106.62,56.64a1.67,1.67,0,0,0-1.4-1.63,19,19,0,0,0,1.4-6.7A1.67,1.67,0,0,0,105,46.66a16.77,16.77,0,0,0-2.24.18,14.62,14.62,0,0,0,.52-6.44c.1-.4,0-.06.05-8.75a1.67,1.67,0,0,0-3.33,0V39a14.34,14.34,0,0,0-3.33.36,14.48,14.48,0,0,0-3.33-8.35V23.32a1.67,1.67,0,0,0-3.33,0v7.73a14.35,14.35,0,0,0-3.33,8.36A15.06,15.06,0,0,0,83.3,39V31.65a1.67,1.67,0,0,0-3.33,0c0,8.66,0,8.35,0,8.74a14.37,14.37,0,0,0,.51,6.45c-1.51-.22-3.17-.55-3.76.83a16.84,16.84,0,0,0-1.93,1.21,14.68,14.68,0,0,0-2.53-6c-.09-.4,0-.06-4-7.77a1.66,1.66,0,1,0-3,1.54l3.42,6.54A15.45,15.45,0,0,0,66,45.11a14.43,14.43,0,0,0-6.82-5.86L55.59,32.4a1.67,1.67,0,0,0-3,1.55l3.58,6.84a14.48,14.48,0,0,0,.92,9A15.28,15.28,0,0,0,54,51l-3.42-6.54a1.66,1.66,0,1,0-3,1.54c4.06,7.72,3.82,7.41,4.09,7.72a14.51,14.51,0,0,0,3.44,5.48A15.63,15.63,0,0,0,53.1,60a1.69,1.69,0,0,0-.7,2.24,19.08,19.08,0,0,0,4.34,5.29,1.66,1.66,0,0,0-.48,2.09,18.66,18.66,0,0,0,4.35,5.29,1.68,1.68,0,0,0-.49,2.1,18.72,18.72,0,0,0,4.34,5.28,1.67,1.67,0,0,0-.48,2.1c.12.24,3.13,6,8.69,7.71a15.53,15.53,0,0,0,10-.7C90.8,107,90.19,106,90.63,106.28a1.63,1.63,0,0,0,1.32.31,1.68,1.68,0,0,0,1.11-.78c.51-.85.09-.81.24-17.63,2.25-.26,6.29-1.12,9.18-4,4.13-4.12,4.14-10.59,4.14-10.86a1.67,1.67,0,0,0-1.4-1.63,19,19,0,0,0,1.4-6.69,1.67,1.67,0,0,0-1.41-1.63,18.87,18.87,0,0,0,1.41-6.71ZM89.79,59.81A13.85,13.85,0,0,0,82,55.45a13.52,13.52,0,0,1-1.89-5.3c5.74.86,8.8,3.92,9.66,9.66Zm0,8.34A14,14,0,0,0,82,63.78a13.68,13.68,0,0,1-1.89-5.3c5.75.86,8.81,3.93,9.66,9.67Zm0,8.32A13.94,13.94,0,0,0,82,72.1a13.57,13.57,0,0,1-1.88-5.28c5.84.86,8.81,4,9.66,9.65Zm-22.6-27.8a9.29,9.29,0,0,1,3.22-2.52c2,3.67.92,5.18,1,6a12.25,12.25,0,0,0-2.64,5.41l-1.67-3.19a16.19,16.19,0,0,0,.13-5.68ZM59.27,43A8.73,8.73,0,0,1,64,52.11,8.73,8.73,0,0,1,59.27,43ZM55.46,54a9.43,9.43,0,0,1,3.92-1.21,16.3,16.3,0,0,0,4.73,3.13l1.67,3.2a12.3,12.3,0,0,0-6-.93c-.6-.46-2.46-.49-4.36-4.19Zm8.62,23.08a12.11,12.11,0,0,1,7.29-.44,1.65,1.65,0,0,0,1.27-.1,1.66,1.66,0,0,0-.27-3.07,14.51,14.51,0,0,0-8,0,13.56,13.56,0,0,1-4.13-3.83,12.06,12.06,0,0,1,7.3-.44,1.66,1.66,0,0,0,1-3.17,14.51,14.51,0,0,0-8,0,13.51,13.51,0,0,1-4.12-3.83,12.06,12.06,0,0,1,7.3-.43c4.22,1.32,6.7,6,6.73,6.07a.42.42,0,0,0,.09.14c1.45,2.34,1.53,4.13,3.16,4.13a1.68,1.68,0,0,0,1.42-.81,1.66,1.66,0,0,0,0-1.63c-.51-1.31-4.61-6.89-2.9-12.37A12.33,12.33,0,0,1,77,51.45,17.79,17.79,0,0,0,78,55a1.65,1.65,0,0,0-1.4,1.63A18.86,18.86,0,0,0,78,63.35,1.66,1.66,0,0,0,76.64,65,18.74,18.74,0,0,0,78,71.67a1.65,1.65,0,0,0-1.39,1.63,18,18,0,0,0,2.58,8.94c-3.35-2.18-7.06-2.44-11-1.38a13.38,13.38,0,0,1-4.1-3.81Zm3.85,7.37A11.92,11.92,0,0,1,75.22,84,12.13,12.13,0,0,1,81,88.52c-5.45,1.89-9.6.62-13-4.1Zm12.2-9.28c5.74.86,8.8,3.92,9.66,9.66-5.74-.86-8.79-3.91-9.66-9.66Zm9.84,23c-5-9.41-5.09-10-6.65-12.07A17.78,17.78,0,0,0,90,88.19Zm0-46.48a12.35,12.35,0,0,0-4.85-3.58c-.33-.69-2-1.58-1.93-5.74a9.59,9.59,0,0,1,4,.74,16.24,16.24,0,0,0,2.75,5Zm1.66-7a8.74,8.74,0,0,1,0-10.24,8.72,8.72,0,0,1,0,10.24Zm1.67,3.4a16.06,16.06,0,0,0,2.74-5,9.69,9.69,0,0,1,4-.73c0,4.21-1.56,5-1.92,5.74a12.32,12.32,0,0,0-4.84,3.57Zm.16,36.72c.86-5.74,3.92-8.8,9.66-9.66-.86,5.74-3.91,8.8-9.66,9.66Zm7.78-12.7a13.94,13.94,0,0,0-7.78,4.37c.85-5.63,3.81-8.77,9.66-9.65a13.51,13.51,0,0,1-1.88,5.28Zm0-8.31a13.92,13.92,0,0,0-7.77,4.36c.85-5.68,3.85-8.8,9.66-9.67a13.61,13.61,0,0,1-1.89,5.31Zm0-8.34a13.9,13.9,0,0,0-7.77,4.36c.86-5.74,3.92-8.8,9.66-9.66a13.52,13.52,0,0,1-1.89,5.3Z"/></g></g></svg>