<svg xmlns="http://www.w3.org/2000/svg" xmlns:xlink="http://www.w3.org/1999/xlink" viewBox="0 0 91.79 103.84"><defs><style>.cls-1{fill:url(#Degradado_sin_nombre_25);}.cls-2{fill:#36afea;}</style><linearGradient id="Degradado_sin_nombre_25" x1="46.73" y1="102.06" x2="46.73" y2="12.19" gradientUnits="userSpaceOnUse"><stop offset="0" stop-color="#cbf1f6"/><stop offset="1" stop-color="#fff"/></linearGradient></defs><g id="Capa_2" data-name="Capa 2"><g id="CONTENIDO"><path class="cls-1" d="M3.52,89.73C4.31,82.23,8.08,76.86,16,76.86s12.13,9.9,12.13,9.9l5.4-.3V60.06H31.72L29.94,51l3.6-2V23.46l-1.82-1.2L28.2,12.19H87.84V22.86l-3.3,1.66V49l3.3.6v9.21l-2.7,2.76-.6,24.63s5.27-.27,5.43,3.57-5.23,3.52-5.23,3.52H27.84A11.92,11.92,0,0,1,16,102.06,12.22,12.22,0,0,1,3.52,89.73Z"/><path class="cls-2" d="M16,82.68a7,7,0,0,0-7,7,1.77,1.77,0,0,0,3.53,0A3.53,3.53,0,1,1,16,93.25a1.77,1.77,0,0,0,0,3.53,7,7,0,1,0,0-14.1Z"/><path class="cls-2" d="M86.5,84.44h-.15V75.63a1.76,1.76,0,0,0-3.52,0v8.81H35.25V61.53H49.34V72.1a1.77,1.77,0,0,0,1.77,1.77H67a1.76,1.76,0,0,0,1.76-1.77V61.53h14.1v7a1.76,1.76,0,0,0,3.52,0v-7h1.76a1.76,1.76,0,0,0,1.77-1.76V49.19a1.76,1.76,0,0,0-1.77-1.76H86.35V24.52h1.76a1.76,1.76,0,0,0,1.77-1.76V12.19a1.77,1.77,0,0,0-1.77-1.77H30a1.76,1.76,0,0,0-1.76,1.77V22.76A1.76,1.76,0,0,0,30,24.52h1.76v7.05a1.77,1.77,0,0,0,3.53,0v-7H49.34V35.1a1.76,1.76,0,0,0,1.77,1.76H67a1.76,1.76,0,0,0,1.76-1.76V24.52h14.1V47.43H35.25V38.62a1.77,1.77,0,0,0-3.53,0v8.81H30a1.76,1.76,0,0,0-1.76,1.76V59.77A1.76,1.76,0,0,0,30,61.53h1.76V84.44H29.08a14.15,14.15,0,0,0-11.31-8.69V17.47a1.8,1.8,0,0,0-.09-.45,5.26,5.26,0,0,0-.3-7.11L9,1.55A5.29,5.29,0,0,0,1.55,9l8.36,8.35a5.24,5.24,0,0,0,3.74,1.55q.3,0,.6-.06V75.75A14.1,14.1,0,1,0,29.07,95H79.45a1.76,1.76,0,1,0,0-3.52H30.11V88H86.5a1.77,1.77,0,1,1,0,3.53,1.76,1.76,0,0,0,0,3.52,5.29,5.29,0,1,0,0-10.57ZM49.34,21H31.72V14H49.34ZM65.2,33.33H52.87V24.52H65.2ZM65.2,21H52.87V14H65.2Zm3.53,0V14H86.35V21Zm0,30H86.35v7H68.73ZM52.87,51H65.2v7H52.87Zm0,10.57H65.2v8.81H52.87ZM12.4,14.89,4,6.53A1.76,1.76,0,0,1,6.53,4l8.36,8.36a1.76,1.76,0,0,1-2.49,2.49ZM16,100.3A10.58,10.58,0,1,1,26.59,89.73,10.57,10.57,0,0,1,16,100.3ZM31.72,51H49.34v7H31.72Z"/></g></g></svg>