<svg xmlns="http://www.w3.org/2000/svg" width="84" height="84.1" viewBox="0 0 84 84.1">
  <g id="Grupo_10162" data-name="Grupo 10162" transform="translate(-251 -1078)">
    <g id="Grupo_5287" data-name="Grupo 5287" transform="translate(252.355 1133.73)">
      <path id="Trazado_9500" data-name="Trazado 9500" d="M1947.947,724.793v10.825h-8.129a5.419,5.419,0,1,0-10.839,0h-2.71a2.718,2.718,0,0,1-2.71-2.71v-5.419a2.718,2.718,0,0,1,2.71-2.71h4.064a23.081,23.081,0,0,1,17.613-10.757v5.338a13.539,13.539,0,0,0-10.839,5.419Z" transform="translate(-1923.56 -714.022)" fill="#b4dd7f"/>
    </g>
    <g id="Grupo_5288" data-name="Grupo 5288" transform="translate(257.774 1149.907)">
      <circle id="Elipse_594" data-name="Elipse 594" cx="5.419" cy="5.419" r="5.419" fill="#969faa"/>
    </g>
    <g id="Grupo_5289" data-name="Grupo 5289" transform="translate(252.355 1120.1)">
      <path id="Trazado_9501" data-name="Trazado 9501" d="M2004.85,636.252v2.71a2.718,2.718,0,0,1-2.71,2.71H1926.27a2.718,2.718,0,0,1-2.71-2.71v-2.71a2.718,2.718,0,0,1,2.71-2.71h75.871A2.718,2.718,0,0,1,2004.85,636.252Z" transform="translate(-1923.56 -633.542)" fill="#969faa"/>
    </g>
    <g id="Grupo_5290" data-name="Grupo 5290" transform="translate(257.774 1079.455)">
      <path id="Trazado_9502" data-name="Trazado 9502" d="M2031.431,398.961v8.129l-2.71-.19-35.226-2.52-35.226-2.52-2.71-.19v-8.129Z" transform="translate(-1955.56 -393.542)" fill="#969faa"/>
    </g>
    <g id="Grupo_5291" data-name="Grupo 5291" transform="translate(260.484 1087.774)">
      <path id="Trazado_9503" data-name="Trazado 9503" d="M1971.56,442.662v24.2h27.1v8.129h43.355V447.7Z" transform="translate(-1971.56 -442.662)" fill="#e6e9ed"/>
    </g>
    <g id="Grupo_5292" data-name="Grupo 5292" transform="translate(276.742 1128.229)">
      <path id="Trazado_9504" data-name="Trazado 9504" d="M2067.56,681.542h54.194v32.516H2067.56Z" transform="translate(-2067.56 -681.542)" fill="#e6e9ed"/>
    </g>
    <g id="Grupo_5293" data-name="Grupo 5293" transform="translate(303.839 1136.358)">
      <path id="Trazado_9505" data-name="Trazado 9505" d="M2227.56,729.542h21.677v24.387H2227.56Z" transform="translate(-2227.56 -729.542)" fill="#aab2bd"/>
    </g>
    <g id="Grupo_5294" data-name="Grupo 5294" transform="translate(317.387 1098.423)">
      <path id="Trazado_9506" data-name="Trazado 9506" d="M2307.56,505.542h8.129V521.8h-8.129Z" transform="translate(-2307.56 -505.542)" fill="#69d6f4"/>
    </g>
    <g id="Grupo_5295" data-name="Grupo 5295" transform="translate(301.129 1098.423)">
      <path id="Trazado_9507" data-name="Trazado 9507" d="M2211.56,505.542h8.129V521.8h-8.129Z" transform="translate(-2211.56 -505.542)" fill="#69d6f4"/>
    </g>
    <g id="Grupo_5296" data-name="Grupo 5296" transform="translate(282.162 1095.713)">
      <path id="Trazado_9508" data-name="Trazado 9508" d="M2099.56,489.542h8.129v5.419h-8.129Z" transform="translate(-2099.56 -489.542)" fill="#69d6f4"/>
    </g>
    <g id="Grupo_5297" data-name="Grupo 5297" transform="translate(265.903 1095.713)">
      <path id="Trazado_9509" data-name="Trazado 9509" d="M2003.56,489.542h8.129v5.419h-8.129Z" transform="translate(-2003.56 -489.542)" fill="#69d6f4"/>
    </g>
    <g id="Grupo_5298" data-name="Grupo 5298" transform="translate(265.903 1139.068)">
      <path id="Trazado_9510" data-name="Trazado 9510" d="M2014.4,745.542v5.433l-10.839-.014a13.539,13.539,0,0,1,10.839-5.419Z" transform="translate(-2003.56 -745.542)" fill="#69d6f4"/>
    </g>
    <g id="Grupo_5299" data-name="Grupo 5299" transform="translate(282.162 1133.648)">
      <path id="Trazado_9511" data-name="Trazado 9511" d="M2099.56,713.542H2110.4v8.129H2099.56Z" transform="translate(-2099.56 -713.542)" fill="#69d6f4"/>
    </g>
    <g id="Grupo_5300" data-name="Grupo 5300" transform="translate(255.064 1111.971)">
      <path id="Trazado_9512" data-name="Trazado 9512" d="M1939.56,585.542h32.516v8.129H1939.56Z" transform="translate(-1939.56 -585.542)" fill="#cf9e76"/>
    </g>
    <path id="Trazado_9513" data-name="Trazado 9513" d="M1999.56,401.409V390.563l-78.581-5.613V395.8l2.71.194v21.577h-5.419v8.378a4.059,4.059,0,0,0-2.71,3.815v2.71a4.059,4.059,0,0,0,2.71,3.815v14.048a4.056,4.056,0,0,0-2.71,3.814v5.419a4.069,4.069,0,0,0,4.064,4.065h1.492a6.728,6.728,0,0,0,1.252,2.71h-6.808v2.71h81.29V436.285a4.059,4.059,0,0,0,2.71-3.815v-2.71a4.059,4.059,0,0,0-2.71-3.815v-24.73Zm-75.871-13.548,73.161,5.224V398.5l-73.161-5.224Zm2.71,8.321,32.516,2.324V425.7H1953.5v-8.129h-27.1Zm2.71,24.094V425.7h-2.71v-5.419Zm2.71,0h2.71V425.7h-2.71Zm5.419,0h2.71V425.7h-2.71Zm5.419,0h2.71V425.7h-2.71Zm5.419,0h2.71V425.7h-2.71Zm-27.1,0h2.71V425.7h-2.71Zm13.411,43.355h5.556v2.71h-6.809A6.712,6.712,0,0,0,1934.391,463.631Zm5.556-13.539-6.307-.007a12.271,12.271,0,0,1,6.307-2.626Zm2.71-13.558h18.968v29.806h-18.968Zm-2.71,2.937a24.54,24.54,0,0,0-17,10.611h-1.973V436.534h18.968Zm-21.677,20.095v-5.419a1.356,1.356,0,0,1,1.355-1.355h4.815l.4-.637a21.788,21.788,0,0,1,15.109-9.913v2.5a14.977,14.977,0,0,0-10.568,5.88l-1.625,2.166,12.192.012v8.12h-5.556a6.774,6.774,0,0,0-13.275,0h-1.492a1.356,1.356,0,0,1-1.355-1.355Zm5.419,2.71a4.065,4.065,0,1,1,4.065,4.065A4.07,4.07,0,0,1,1923.689,462.276Zm65.032,4.065h-8.129V444.663h8.129Zm-10.839,0h-8.129V444.663h8.129Zm13.548,0V441.953h-24.387v24.387h-2.71V436.534h29.806v29.806Zm5.419-33.871a1.356,1.356,0,0,1-1.355,1.355h-75.871a1.356,1.356,0,0,1-1.355-1.355v-2.71a1.356,1.356,0,0,1,1.355-1.355H1995.5a1.356,1.356,0,0,1,1.355,1.355Zm-2.71-6.774h-32.516v-27l32.516,2.324Z" transform="translate(-1664.56 693.05)"/>
    <path id="Trazado_9514" data-name="Trazado 9514" d="M2214.4,516.51V497.542H2203.56V516.51Zm-8.129-16.258h5.419V513.8h-5.419Z" transform="translate(-1903.786 599.526)"/>
    <path id="Trazado_9515" data-name="Trazado 9515" d="M2310.4,497.542H2299.56V516.51H2310.4Zm-2.71,16.258h-5.419V500.252h5.419Z" transform="translate(-1983.528 599.526)"/>
    <path id="Trazado_9516" data-name="Trazado 9516" d="M1995.56,489.671H2006.4v-8.129H1995.56Zm2.71-5.419h5.419v2.71h-5.419Z" transform="translate(-1731.012 612.816)"/>
    <path id="Trazado_9517" data-name="Trazado 9517" d="M2102.4,481.542H2091.56v8.129H2102.4Zm-2.71,5.419h-5.419v-2.71h5.419Z" transform="translate(-1810.754 612.816)"/>
    <path id="Trazado_9518" data-name="Trazado 9518" d="M2091.56,705.542v10.839h13.548V705.542Zm10.839,8.129h-8.129v-5.419h8.129Z" transform="translate(-1810.754 426.752)"/>
  </g>
</svg>
