<svg xmlns="http://www.w3.org/2000/svg" width="121" height="121" viewBox="0 0 121 121">
  <g id="Grupo_10157" data-name="Grupo 10157" transform="translate(-108 -1973)">
    <g id="Grupo_5215" data-name="Grupo 5215">
      <circle id="Elipse_497" data-name="Elipse 497" cx="60.5" cy="60.5" r="60.5" transform="translate(108 1973)" fill="#4b9ddf"/>
      <path id="Trazado_1178" data-name="Trazado 1178" d="M53.993,0A53.993,53.993,0,1,1,0,53.993,53.993,53.993,0,0,1,53.993,0Z" transform="translate(115 1980)" fill="#fff"/>
      <g id="Grupo_5214" data-name="Grupo 5214" transform="translate(-1366.264 1716.426)">
        <path id="Trazado_9285" data-name="Trazado 9285" d="M1543.521,309.064a4.489,4.489,0,0,1-2.976-1.491.98.98,0,0,0-.841-.372q-11.463.014-22.925.008a2.807,2.807,0,0,0-3.057,3.028q0,15.594,0,31.187a2.806,2.806,0,0,0,3.052,3.034q11.871,0,23.74,0a2.8,2.8,0,0,0,3-3.02q0-15.39,0-30.78Z" fill="#a8b4bf"/>
        <path id="Trazado_9286" data-name="Trazado 9286" d="M1554.694,307.208c1.17,0,2.272.009,3.373,0a2.522,2.522,0,0,0,2.584-2.2c.2-1.3.34-2.613.505-3.92.326-2.576.67-5.15.968-7.729a2.556,2.556,0,0,0-2.6-2.9q-8.553-.014-17.1,0a2.576,2.576,0,0,0-2.6,2.964c.07.635.19,1.267.225,1.9a.891.891,0,0,0,.752.922,10.08,10.08,0,0,1,1.2.441,2.27,2.27,0,0,1,.027,4.281c-.387.163-.781.309-1.182.466.046.409.083.774.128,1.138.1.769.179,1.54.3,2.305a2.56,2.56,0,0,0,2.769,2.335c1.3,0,2.6-.025,3.9.018a1.928,1.928,0,0,1,1.033.373c1.235.938,2.438,1.918,3.644,2.892a1.191,1.191,0,0,0,2.089-.989C1554.68,308.766,1554.694,308.031,1554.694,307.208Z" fill="#e5eaed"/>
        <path id="Trazado_9287" data-name="Trazado 9287" d="M1519.336,301.579h14.826v-5.517h-14.826Z" fill="#a2de7a"/>
        <path id="Trazado_9288" data-name="Trazado 9288" d="M1517.408,301.619v-5.584c-1.564,0-3.091-.013-4.617.007a.9.9,0,0,0-.927.976q-.023,1.8,0,3.6a.909.909,0,0,0,.97,1C1514.342,301.63,1515.851,301.619,1517.408,301.619Z" fill="#a2de7a"/>
        <path id="Trazado_9289" data-name="Trazado 9289" d="M1536.1,296.462v4.719c.405-.145.767-.27,1.125-.4,1.322-.494,2.646-.982,3.959-1.5.184-.072.427-.293.429-.448s-.244-.349-.424-.454a4.665,4.665,0,0,0-.754-.3Z" fill="#a8b4bf"/>
        <path id="Trazado_9290" data-name="Trazado 9290" d="M1508.164,297.921v1.8h1.791v-1.8Z" fill="#fed869"/>
        <path id="Trazado_9291" data-name="Trazado 9291" d="M1550.978,340.734c-.272,0-.463,0-.655,0-.9.005-1.21.313-1.214,1.228,0,.485-.009.97,0,1.454a.927.927,0,0,0,.994,1.034q5.524.015,11.049,0a.913.913,0,0,0,.984-.985c.018-.581.012-1.163,0-1.744a.9.9,0,0,0-.815-.968,7.556,7.556,0,0,0-1.058-.009v1.817h-1.87v-1.8h-1.849v1.791h-1.872v-1.777h-1.872v1.79h-1.829Z" fill="#fbcd64"/>
        <path id="Trazado_9292" data-name="Trazado 9292" d="M1550.969,318.383c-.275,0-.468,0-.661,0-.877.005-1.192.316-1.2,1.186,0,.5-.011,1.008,0,1.512a.936.936,0,0,0,1.008,1.023c.387.013.775,0,1.163,0q4.857,0,9.713,0c.806,0,1.134-.33,1.147-1.122.009-.542.017-1.086,0-1.628a.92.92,0,0,0-.945-.966c-.284-.016-.57,0-.918,0V320.2h-1.87v-1.785h-1.87v1.8h-1.852v-1.789h-1.87v1.783h-1.847Z" fill="#fbcd64"/>
        <path id="Trazado_9293" data-name="Trazado 9293" d="M1556.551,325.8h-1.87v-1.784h-1.87v1.777h-1.869v-1.82c-.257,0-.45,0-.644,0-.869.008-1.179.321-1.185,1.2,0,.5-.014,1.009,0,1.512a.935.935,0,0,0,1.022,1.008c.368.012.737,0,1.1,0q4.885,0,9.771,0c.8,0,1.126-.336,1.135-1.133.005-.543.015-1.086-.005-1.628a.917.917,0,0,0-.954-.956c-.283-.014-.568,0-.917,0v1.815H1558.4V324.01h-1.847Z" fill="#fdc800"/>
        <path id="Trazado_9294" data-name="Trazado 9294" d="M1550.972,329.559h-.646c-.906,0-1.213.312-1.216,1.226,0,.5-.013,1.009,0,1.512a.91.91,0,0,0,.989.978q5.524.014,11.05,0a.914.914,0,0,0,.986-.984c.018-.581.013-1.163,0-1.744a.9.9,0,0,0-.814-.969,7.418,7.418,0,0,0-1.059-.009v1.817h-1.87v-1.8h-1.849v1.79h-1.873V329.6h-1.87v1.794h-1.836v-1.833Z" fill="#fbcd64"/>
        <path id="Trazado_9295" data-name="Trazado 9295" d="M1550.983,335.146c-.273,0-.463,0-.654,0-.9.006-1.214.319-1.219,1.229,0,.5-.013,1.009,0,1.512a.914.914,0,0,0,.99.979q5.526.014,11.051,0a.912.912,0,0,0,.987-.981q.026-.9,0-1.8a.878.878,0,0,0-.807-.915,7.754,7.754,0,0,0-1.061-.009v1.818H1558.4v-1.8h-1.848v1.79h-1.87v-1.784h-1.869v1.8h-1.829Z" fill="#fdc800"/>
        <g id="Grupo_5213" data-name="Grupo 5213">
          <path id="Trazado_9296" data-name="Trazado 9296" d="M1556.589,309.067a10.526,10.526,0,0,1-.083,1.253,2.99,2.99,0,0,1-4.834,1.8c-1.136-.875-2.228-1.809-3.372-2.675a2.139,2.139,0,0,0-1.037-.362c-.594-.059-1.2-.016-1.879-.016v.7q0,15.858,0,31.715a4.647,4.647,0,0,1-4.033,4.787,5.6,5.6,0,0,1-.87.046q-11.843,0-23.685,0a4.672,4.672,0,0,1-4.938-4.919q0-15.6,0-31.191a4.665,4.665,0,0,1,4.87-4.869q11,0,22,0h.719l-.417-3.246c-1.028.383-1.991.772-2.975,1.1a5.016,5.016,0,0,1-1.519.276c-7.1.018-14.2,0-21.3.022a3.029,3.029,0,0,1-2.974-1.629.615.615,0,0,0-.451-.23c-.542-.028-1.086,0-1.629-.013a1.862,1.862,0,0,1-1.905-1.922c-.01-.6-.014-1.2,0-1.8a1.859,1.859,0,0,1,1.846-1.861c.174-.006.349-.009.524,0,.844.042,1.606.1,2.11-.892a2.191,2.191,0,0,1,2.067-.97c.891-.005,1.782,0,2.763,0,0-.3,0-.586,0-.867a2.79,2.79,0,0,1,2.88-2.857c1.183-.009,2.368.035,3.549-.012a3.069,3.069,0,0,1,3.126,1.587,4.364,4.364,0,0,1,.871-.929,4.423,4.423,0,0,1,1.649-.617,25.356,25.356,0,0,1,2.779-.027v1.862c-.751,0-1.52.031-2.285-.01a1.345,1.345,0,0,0-1.389.736c-.2.354-.441.681-.737,1.13h.677c2.464,0,4.927.022,7.391-.008a5.566,5.566,0,0,1,2.37.434c.53.232,1.084.409,1.7.637-.064-.525-.113-1-.18-1.467a4.442,4.442,0,0,1,4.41-5.175q8.583-.029,17.167,0a4.4,4.4,0,0,1,4.413,4.957c-.464,3.906-.965,7.809-1.476,11.71a4.4,4.4,0,0,1-4.264,3.809C1557.7,309.079,1557.158,309.067,1556.589,309.067Zm-13.068,0a4.489,4.489,0,0,1-2.976-1.491.98.98,0,0,0-.841-.372q-11.463.014-22.925.008a2.807,2.807,0,0,0-3.057,3.028q0,15.594,0,31.187a2.806,2.806,0,0,0,3.052,3.034q11.871,0,23.74,0a2.8,2.8,0,0,0,3-3.02q0-15.39,0-30.78Zm11.173-1.856c1.17,0,2.272.009,3.373,0a2.522,2.522,0,0,0,2.584-2.2c.2-1.3.34-2.613.505-3.92.326-2.576.67-5.15.968-7.729a2.556,2.556,0,0,0-2.6-2.9q-8.553-.014-17.1,0a2.576,2.576,0,0,0-2.6,2.964c.07.635.19,1.267.225,1.9a.891.891,0,0,0,.752.922,10.08,10.08,0,0,1,1.2.441,2.27,2.27,0,0,1,.027,4.281c-.387.163-.781.309-1.182.466.046.409.083.774.128,1.138.1.769.179,1.54.3,2.305a2.56,2.56,0,0,0,2.769,2.335c1.3,0,2.6-.025,3.9.018a1.928,1.928,0,0,1,1.033.373c1.235.938,2.438,1.918,3.644,2.892a1.191,1.191,0,0,0,2.089-.989C1554.68,308.766,1554.694,308.031,1554.694,307.208Zm-35.358-5.629h14.826v-5.517h-14.826Zm-1.928.04v-5.584c-1.564,0-3.091-.013-4.617.007a.9.9,0,0,0-.927.976q-.023,1.8,0,3.6a.909.909,0,0,0,.97,1C1514.342,301.63,1515.851,301.619,1517.408,301.619Zm18.7-5.157v4.719c.405-.145.767-.27,1.125-.4,1.322-.494,2.646-.982,3.959-1.5.184-.072.427-.293.429-.448s-.244-.349-.424-.454a4.665,4.665,0,0,0-.754-.3Zm-18.653-2.319h6.459a6.769,6.769,0,0,0-.5-1.33,1.125,1.125,0,0,0-.782-.481c-1.411-.046-2.825-.032-4.237-.013a.907.907,0,0,0-.94.965C1517.439,293.552,1517.45,293.821,1517.45,294.143Zm-9.286,3.778v1.8h1.791v-1.8Z"/>
          <path id="Trazado_9297" data-name="Trazado 9297" d="M1563.393,323.159a5.539,5.539,0,0,1-.029,5.392,6.214,6.214,0,0,1,.019,5.728,5.67,5.67,0,0,1-.072,5.529c1.055,1.234.739,2.738.636,4.157a2.639,2.639,0,0,1-2.684,2.349q-5.641.025-11.284,0a2.753,2.753,0,0,1-2.727-2.7,7.063,7.063,0,0,1,.565-3.87,6.135,6.135,0,0,1,.032-5.533,6.165,6.165,0,0,1,.025-5.642,5.63,5.63,0,0,1,.075-5.526c-1.056-1.232-.742-2.736-.643-4.156a2.641,2.641,0,0,1,2.681-2.353q5.641-.026,11.284,0a2.743,2.743,0,0,1,2.719,2.526,12.621,12.621,0,0,1-.015,2.381A8.971,8.971,0,0,1,1563.393,323.159Zm-12.415,17.575c-.272,0-.463,0-.655,0-.9.005-1.21.313-1.214,1.228,0,.485-.009.97,0,1.454a.927.927,0,0,0,.994,1.034q5.524.015,11.049,0a.913.913,0,0,0,.984-.985c.018-.581.012-1.163,0-1.744a.9.9,0,0,0-.815-.968,7.556,7.556,0,0,0-1.058-.009v1.817h-1.87v-1.8h-1.849v1.791h-1.872v-1.777h-1.872v1.79h-1.829Zm-.009-22.351c-.275,0-.468,0-.661,0-.877.005-1.192.316-1.2,1.186,0,.5-.011,1.008,0,1.512a.936.936,0,0,0,1.008,1.023c.387.013.775,0,1.163,0q4.857,0,9.713,0c.806,0,1.134-.33,1.147-1.122.009-.542.017-1.086,0-1.628a.92.92,0,0,0-.945-.966c-.284-.016-.57,0-.918,0V320.2h-1.87v-1.785h-1.87v1.8h-1.852v-1.789h-1.87v1.783h-1.847Zm5.582,7.418h-1.87v-1.784h-1.87v1.777h-1.869v-1.82c-.257,0-.45,0-.644,0-.869.008-1.179.321-1.185,1.2,0,.5-.014,1.009,0,1.512a.935.935,0,0,0,1.022,1.008c.368.012.737,0,1.1,0q4.885,0,9.771,0c.8,0,1.126-.336,1.135-1.133.005-.543.015-1.086-.005-1.628a.917.917,0,0,0-.954-.956c-.283-.014-.568,0-.917,0v1.815H1558.4V324.01h-1.847Zm-5.579,3.758h-.646c-.906,0-1.213.312-1.216,1.226,0,.5-.013,1.009,0,1.512a.91.91,0,0,0,.989.978q5.524.014,11.05,0a.914.914,0,0,0,.986-.984c.018-.581.013-1.163,0-1.744a.9.9,0,0,0-.814-.969,7.418,7.418,0,0,0-1.059-.009v1.817h-1.87v-1.8h-1.849v1.79h-1.873V329.6h-1.87v1.794h-1.836v-1.833Zm.011,5.587c-.273,0-.463,0-.654,0-.9.006-1.214.319-1.219,1.229,0,.5-.013,1.009,0,1.512a.914.914,0,0,0,.99.979q5.526.014,11.051,0a.912.912,0,0,0,.987-.981q.026-.9,0-1.8a.878.878,0,0,0-.807-.915,7.754,7.754,0,0,0-1.061-.009v1.818H1558.4v-1.8h-1.848v1.79h-1.87v-1.784h-1.869v1.8h-1.829Z"/>
          <path id="Trazado_9298" data-name="Trazado 9298" d="M1528.634,309.071q5.44,0,10.882,0a1.9,1.9,0,0,1,2.139,2.156q0,3.464,0,6.926a1.884,1.884,0,0,1-2.085,2.092q-10.941,0-21.882,0a1.892,1.892,0,0,1-2.107-2.129q0-3.492,0-6.983a1.884,1.884,0,0,1,2.057-2.061Q1523.134,309.068,1528.634,309.071Zm11.108,9.291v-7.4h-22.264v7.4Z"/>
          <path id="Trazado_9299" data-name="Trazado 9299" d="M1534.208,336.021c0-1.474,0-2.948,0-4.423a1.878,1.878,0,0,1,2.02-2.038q1.716-.009,3.433,0a1.867,1.867,0,0,1,2,2.005q.008,4.51,0,9.02a1.858,1.858,0,0,1-1.989,2.01q-1.746.012-3.492,0a1.859,1.859,0,0,1-1.966-1.976C1534.2,339.086,1534.207,337.553,1534.208,336.021Zm1.9-4.573v9.24h3.656v-9.24Z"/>
          <path id="Trazado_9300" data-name="Trazado 9300" d="M1528.649,322.106c.6,0,1.2-.01,1.8,0a1.856,1.856,0,0,1,1.89,1.876c.015.62.017,1.241,0,1.861a1.846,1.846,0,0,1-1.859,1.846q-1.862.028-3.724,0a1.834,1.834,0,0,1-1.859-1.842c-.017-.639-.019-1.28,0-1.92a1.844,1.844,0,0,1,1.827-1.816c.639-.019,1.28,0,1.92,0Zm1.807,1.9h-3.65V325.8h3.65Z"/>
          <path id="Trazado_9301" data-name="Trazado 9301" d="M1537.954,322.109c.62,0,1.241-.013,1.861,0a1.844,1.844,0,0,1,1.837,1.8c.023.658.024,1.319,0,1.978a1.829,1.829,0,0,1-1.788,1.792c-1.28.029-2.561.028-3.841,0a1.838,1.838,0,0,1-1.809-1.834c-.018-.639-.019-1.28,0-1.92a1.843,1.843,0,0,1,1.819-1.823C1536.673,322.093,1537.313,322.11,1537.954,322.109Zm1.814,1.9h-3.651V325.8h3.651Z"/>
          <path id="Trazado_9302" data-name="Trazado 9302" d="M1519.327,335.149c-.621,0-1.242.011-1.862,0a1.86,1.86,0,0,1-1.879-1.887q-.02-.9,0-1.8a1.848,1.848,0,0,1,1.871-1.892c1.241-.017,2.483-.019,3.724,0a1.832,1.832,0,0,1,1.848,1.851c.017.62.016,1.242,0,1.862a1.855,1.855,0,0,1-1.9,1.866c-.6.013-1.2,0-1.8,0Zm1.819-3.684h-3.672v1.787h3.672Z"/>
          <path id="Trazado_9303" data-name="Trazado 9303" d="M1528.618,329.559c.6,0,1.2-.008,1.8,0a1.856,1.856,0,0,1,1.925,1.9c.011.62.016,1.241-.006,1.861a1.837,1.837,0,0,1-1.824,1.818q-1.89.036-3.782,0a1.841,1.841,0,0,1-1.835-1.867c-.014-.621-.016-1.242,0-1.862a1.85,1.85,0,0,1,1.856-1.848C1527.376,329.546,1528,329.559,1528.618,329.559Zm-1.836,3.679h3.67v-1.783h-3.67Z"/>
          <path id="Trazado_9304" data-name="Trazado 9304" d="M1519.28,342.6c-.6,0-1.2.01-1.8,0a1.851,1.851,0,0,1-1.89-1.874c-.015-.621-.017-1.242,0-1.862a1.835,1.835,0,0,1,1.858-1.843q1.862-.029,3.723,0a1.84,1.84,0,0,1,1.861,1.842q.031.96,0,1.92a1.86,1.86,0,0,1-1.83,1.818c-.639.02-1.28,0-1.92,0Zm-1.808-1.9h3.652V338.9h-3.652Z"/>
          <path id="Trazado_9305" data-name="Trazado 9305" d="M1528.646,337.01c.621,0,1.242-.015,1.862,0a1.847,1.847,0,0,1,1.832,1.813c.022.659.026,1.32,0,1.979a1.831,1.831,0,0,1-1.8,1.785q-1.92.039-3.841,0a1.833,1.833,0,0,1-1.8-1.781c-.025-.659-.024-1.32,0-1.979a1.845,1.845,0,0,1,1.826-1.818c.64-.019,1.281,0,1.921,0Zm-1.861,3.693h3.662v-1.791h-3.662Z"/>
          <path id="Trazado_9306" data-name="Trazado 9306" d="M1519.3,327.7c-.621,0-1.242.014-1.862,0a1.855,1.855,0,0,1-1.851-1.854c-.014-.62-.012-1.241,0-1.861a1.841,1.841,0,0,1,1.84-1.863q1.86-.033,3.723,0a1.847,1.847,0,0,1,1.88,1.884q.021.9,0,1.8a1.858,1.858,0,0,1-1.929,1.895C1520.5,327.7,1519.9,327.7,1519.3,327.7Zm1.849-3.693h-3.661v1.792h3.661Z"/>
          <path id="Trazado_9307" data-name="Trazado 9307" d="M1548.048,305.819l-1.617-.93,7.449-13.034,1.614.926Z"/>
          <path id="Trazado_9308" data-name="Trazado 9308" d="M1555.633,297.894a2.793,2.793,0,1,1-2.8,2.756A2.809,2.809,0,0,1,1555.633,297.894Zm.921,2.811a.927.927,0,1,0-.943.911A.937.937,0,0,0,1556.554,300.7Z"/>
          <path id="Trazado_9309" data-name="Trazado 9309" d="M1549.107,296.975a2.792,2.792,0,1,1-2.75-2.8A2.8,2.8,0,0,1,1549.107,296.975Zm-2.78-.934a.925.925,0,1,0,.914.935A.933.933,0,0,0,1546.327,296.041Z"/>
        </g>
        <path id="Trazado_9310" data-name="Trazado 9310" d="M1539.742,318.362v-7.4h-22.264v7.4Z" fill="#33d7f5"/>
        <path id="Trazado_9311" data-name="Trazado 9311" d="M1546.327,296.041a.925.925,0,1,0,.914.935A.933.933,0,0,0,1546.327,296.041Z" fill="#fa826e"/>
        <path id="Trazado_9312" data-name="Trazado 9312" d="M1556.554,300.7a.927.927,0,1,0-.943.911A.937.937,0,0,0,1556.554,300.7Z" fill="#fa826e"/>
        <path id="Trazado_9313" data-name="Trazado 9313" d="M1521.146,324h-3.661v1.792h3.661Z" fill="#fa826e"/>
        <path id="Trazado_9314" data-name="Trazado 9314" d="M1530.456,324.009h-3.65V325.8h3.65Z" fill="#fa826e"/>
        <path id="Trazado_9315" data-name="Trazado 9315" d="M1539.768,324.011h-3.651V325.8h3.651Z" fill="#fa826e"/>
        <path id="Trazado_9316" data-name="Trazado 9316" d="M1521.146,331.465h-3.672v1.787h3.672Z" fill="#fa826e"/>
        <path id="Trazado_9317" data-name="Trazado 9317" d="M1526.782,333.238h3.67v-1.783h-3.67Z" fill="#fa826e"/>
        <path id="Trazado_9318" data-name="Trazado 9318" d="M1536.111,331.448v9.24h3.656v-9.24Z" fill="#fa826e"/>
        <path id="Trazado_9319" data-name="Trazado 9319" d="M1526.785,340.7h3.662v-1.791h-3.662Z" fill="#fa826e"/>
        <path id="Trazado_9320" data-name="Trazado 9320" d="M1517.472,340.693h3.652V338.9h-3.652Z" fill="#fa826e"/>
      </g>
    </g>
  </g>
</svg>
