<svg xmlns="http://www.w3.org/2000/svg" width="121" height="121" viewBox="0 0 121 121">
  <g id="Grupo_10154" data-name="Grupo 10154" transform="translate(-108 -1485)">
    <g id="Grupo_5193" data-name="Grupo 5193">
      <circle id="Elipse_497" data-name="Elipse 497" cx="60.5" cy="60.5" r="60.5" transform="translate(108 1485)" fill="#4b9ddf"/>
      <path id="Trazado_1178" data-name="Trazado 1178" d="M53.993,0A53.993,53.993,0,1,1,0,53.993,53.993,53.993,0,0,1,53.993,0Z" transform="translate(115 1492)" fill="#fff"/>
      <g id="Grupo_5192" data-name="Grupo 5192" transform="translate(-1171.239 1227.797)">
        <g id="Grupo_5190" data-name="Grupo 5190" transform="translate(1311.206 289.17)">
          <g id="Grupo_5170" data-name="Grupo 5170" transform="translate(7.737 19.343)">
            <path id="Trazado_9219" data-name="Trazado 9219" d="M1338.987,319.5l-5.029,3.869h-15.281V307.89h42.554v15.474h-15.28l-5.029-3.869Z" transform="translate(-1318.676 -307.89)" fill="#ecc19c"/>
          </g>
          <g id="Grupo_5171" data-name="Grupo 5171" transform="translate(3.869 8.172)">
            <path id="Trazado_9220" data-name="Trazado 9220" d="M1330.4,298.561a9.675,9.675,0,0,0,9.671,9.671h-25.146v-.967l15.591-10.2A9.518,9.518,0,0,0,1330.4,298.561Z" transform="translate(-1314.926 -297.062)" fill="#cf9e76"/>
          </g>
          <g id="Grupo_5172" data-name="Grupo 5172" transform="translate(29.014 8.172)">
            <path id="Trazado_9221" data-name="Trazado 9221" d="M1364.447,307.266v.967H1339.3a9.675,9.675,0,0,0,9.672-9.671,9.5,9.5,0,0,0-.116-1.5Z" transform="translate(-1339.301 -297.062)" fill="#cf9e76"/>
          </g>
          <g id="Grupo_5173" data-name="Grupo 5173" transform="translate(0 34.817)">
            <path id="Trazado_9222" data-name="Trazado 9222" d="M1334.194,322.89l-7.544,5.8h-14.507a.97.97,0,0,1-.968-.967v-3.869a.97.97,0,0,1,.968-.968h22.051Z" transform="translate(-1311.176 -322.89)" fill="#ccd1d9"/>
          </g>
          <g id="Grupo_5174" data-name="Grupo 5174" transform="translate(35.011 34.817)">
            <path id="Trazado_9223" data-name="Trazado 9223" d="M1368.131,323.858v3.869a.97.97,0,0,1-.967.967h-14.508l-7.543-5.8h22.051A.97.97,0,0,1,1368.131,323.858Z" transform="translate(-1345.114 -322.89)" fill="#ccd1d9"/>
          </g>
          <g id="Grupo_5175" data-name="Grupo 5175" transform="translate(1.934 40.62)">
            <path id="Trazado_9224" data-name="Trazado 9224" d="M1326.591,330.449h1.934v15.474h-15.474V328.515h13.54Z" transform="translate(-1313.051 -328.515)" fill="#e6e9ed"/>
          </g>
          <g id="Grupo_5176" data-name="Grupo 5176" transform="translate(40.62 40.62)">
            <path id="Trazado_9225" data-name="Trazado 9225" d="M1352.485,330.449v-1.934h13.54v17.409h-15.474V330.449Z" transform="translate(-1350.551 -328.515)" fill="#e6e9ed"/>
          </g>
          <g id="Grupo_5177" data-name="Grupo 5177" transform="translate(5.803 44.489)">
            <path id="Trazado_9226" data-name="Trazado 9226" d="M1316.8,332.265h7.737v9.671H1316.8Z" transform="translate(-1316.801 -332.265)" fill="#aab2bd"/>
          </g>
          <g id="Grupo_5178" data-name="Grupo 5178" transform="translate(44.489 44.489)">
            <path id="Trazado_9227" data-name="Trazado 9227" d="M1354.3,332.265h7.737v9.671H1354.3Z" transform="translate(-1354.301 -332.265)" fill="#aab2bd"/>
          </g>
          <g id="Grupo_5179" data-name="Grupo 5179" transform="translate(15.474 30.949)">
            <path id="Trazado_9228" data-name="Trazado 9228" d="M1353.256,328.811v1.934h-4.835l-8.7-7.34-8.7,7.34h-4.836v-1.934l7.544-5.8,5.029-3.869h1.934l5.029,3.869Z" transform="translate(-1326.176 -319.14)" fill="#a0d468"/>
          </g>
          <g id="Grupo_5180" data-name="Grupo 5180" transform="translate(20.31 35.214)">
            <path id="Trazado_9229" data-name="Trazado 9229" d="M1348.273,330.615h-17.409l8.7-7.34Z" transform="translate(-1330.864 -323.275)" fill="#b4dd7f"/>
          </g>
          <g id="Grupo_5181" data-name="Grupo 5181" transform="translate(17.409 42.554)">
            <path id="Trazado_9230" data-name="Trazado 9230" d="M1331.92,330.39v15.474h-3.869V330.39h3.869Z" transform="translate(-1328.051 -330.39)" fill="#ccd1d9"/>
          </g>
          <g id="Grupo_5182" data-name="Grupo 5182" transform="translate(36.751 42.554)">
            <path id="Trazado_9231" data-name="Trazado 9231" d="M1347.769,330.39h2.9v15.474H1346.8V330.39Z" transform="translate(-1346.801 -330.39)" fill="#ccd1d9"/>
          </g>
          <g id="Grupo_5183" data-name="Grupo 5183" transform="translate(21.277 42.554)">
            <path id="Trazado_9232" data-name="Trazado 9232" d="M1331.8,330.39h15.474v15.474H1331.8Z" transform="translate(-1331.801 -330.39)" fill="#e6e9ed"/>
          </g>
          <g id="Grupo_5184" data-name="Grupo 5184" transform="translate(25.146 46.423)">
            <path id="Trazado_9233" data-name="Trazado 9233" d="M1343.288,338.009v7.737h-7.737v-7.737a3.869,3.869,0,1,1,7.737,0Z" transform="translate(-1335.551 -334.14)" fill="#aab2bd"/>
          </g>
          <g id="Grupo_5185" data-name="Grupo 5185" transform="translate(11.606 23.211)">
            <path id="Trazado_9234" data-name="Trazado 9234" d="M1322.426,311.64h5.8v7.737h-5.8Z" transform="translate(-1322.426 -311.64)" fill="#69d6f4"/>
          </g>
          <g id="Grupo_5186" data-name="Grupo 5186" transform="translate(21.277 23.211)">
            <path id="Trazado_9235" data-name="Trazado 9235" d="M1331.8,311.64h5.8v7.737h-5.8Z" transform="translate(-1331.801 -311.64)" fill="#69d6f4"/>
          </g>
          <g id="Grupo_5187" data-name="Grupo 5187" transform="translate(30.949 23.211)">
            <path id="Trazado_9236" data-name="Trazado 9236" d="M1341.176,311.64h5.8v7.737h-5.8Z" transform="translate(-1341.176 -311.64)" fill="#69d6f4"/>
          </g>
          <g id="Grupo_5188" data-name="Grupo 5188" transform="translate(40.62 23.211)">
            <path id="Trazado_9237" data-name="Trazado 9237" d="M1350.551,311.64h5.8v7.737h-5.8Z" transform="translate(-1350.551 -311.64)" fill="#69d6f4"/>
          </g>
          <g id="Grupo_5189" data-name="Grupo 5189" transform="translate(19.343)">
            <path id="Trazado_9238" data-name="Trazado 9238" d="M1349.153,297.313a9.5,9.5,0,0,1,.116,1.5,9.671,9.671,0,1,1-19.343,0,9.518,9.518,0,0,1,.116-1.5h.009a9.661,9.661,0,0,1,19.091,0Z" transform="translate(-1329.926 -289.14)" fill="#fcd770"/>
          </g>
        </g>
        <g id="Grupo_5191" data-name="Grupo 5191" transform="translate(1310.239 288.203)">
          <path id="Trazado_9239" data-name="Trazado 9239" d="M1338.453,305.493h1.934v-1.934a2.9,2.9,0,0,0,0-5.8h-1.934a.967.967,0,1,1,0-1.934h2.9v.967h1.934v-2.9h-2.9v-1.934h-1.934v1.934a2.9,2.9,0,1,0,0,5.8h1.934a.967.967,0,0,1,0,1.934h-2.9v-.968h-1.934v2.9h2.9Z" transform="translate(-1309.439 -288.084)"/>
          <path id="Trazado_9240" data-name="Trazado 9240" d="M1368.267,323.02h-5.8V309.48h3.869v-2.457l-15.681-10.252a10.636,10.636,0,0,0-20.865,0l-15.68,10.252v2.457h3.869v13.54h-5.8a1.936,1.936,0,0,0-1.934,1.934v3.869a1.936,1.936,0,0,0,1.934,1.934v17.409h56.094V330.757a1.936,1.936,0,0,0,1.934-1.934v-3.869a1.936,1.936,0,0,0-1.934-1.934Zm-21.95-15.474a10.627,10.627,0,0,0,4.523-8.343l12.758,8.343Zm-6.1-17.409a8.7,8.7,0,1,1-8.7,8.7A8.714,8.714,0,0,1,1340.22,290.137ZM1329.6,299.2a10.627,10.627,0,0,0,4.523,8.343h-17.281Zm-9.689,10.277h40.62v13.54h-13.986l-2.514-1.934h4.894v-9.671h-7.737v7.737h-1.934v-7.737h-7.737v9.671h4.893l-2.514,1.934H1319.91Zm23.211,36.751h-5.8v-6.77a2.9,2.9,0,0,1,5.8,0Zm-2.9-11.606a4.841,4.841,0,0,0-4.835,4.835v6.77h-1.934v-13.54h13.54v13.54h-1.934v-6.77A4.841,4.841,0,0,0,1340.22,334.626Zm-8.7-1.934v13.54h-1.934v-13.54Zm2.646-1.934,6.058-5.108,6.058,5.108Zm14.763,1.934h1.934v13.54h-1.934Zm.353-1.934-9.058-7.638-9.058,7.638h-3.515v-.492l11.934-9.179h1.277l11.935,9.179v.492Zm-11.958-11.606h-3.869v-5.8h3.869Zm5.8,0v-5.8h3.869v5.8Zm-30.948,5.8h19.207l-5.029,3.869h-14.177Zm1.934,5.8h11.606v1.934h1.934v13.54h-13.54Zm52.226,15.474h-13.54v-13.54h1.934v-1.934h11.606Zm1.934-17.409h-14.179l-5.029-3.869h19.208Z" transform="translate(-1310.239 -288.203)"/>
          <path id="Trazado_9241" data-name="Trazado 9241" d="M1357.351,310.7h-7.737v9.671h7.737Zm-1.934,7.737h-3.869v-5.8h3.869Z" transform="translate(-1308.994 -287.492)"/>
          <path id="Trazado_9242" data-name="Trazado 9242" d="M1321.489,320.374h7.737V310.7h-7.737Zm1.934-7.737h3.869v5.8h-3.869Z" transform="translate(-1309.883 -287.492)"/>
          <path id="Trazado_9243" data-name="Trazado 9243" d="M1363.035,342.934V331.328h-9.671v11.606Zm-7.737-9.671h5.8V341h-5.8Z" transform="translate(-1308.875 -286.84)"/>
          <path id="Trazado_9244" data-name="Trazado 9244" d="M1315.864,342.934h9.671V331.328h-9.671Zm1.934-9.671h5.8V341h-5.8Z" transform="translate(-1310.061 -286.84)"/>
        </g>
      </g>
    </g>
  </g>
</svg>
