<svg xmlns="http://www.w3.org/2000/svg" width="121" height="121" viewBox="0 0 121 121">
  <g id="Grupo_10158" data-name="Grupo 10158" transform="translate(-108 -2150)">
    <g id="Grupo_5219" data-name="Grupo 5219">
      <circle id="Elipse_497" data-name="Elipse 497" cx="60.5" cy="60.5" r="60.5" transform="translate(108 2150)" fill="#4b9ddf"/>
      <path id="Trazado_1178" data-name="Trazado 1178" d="M53.993,0A53.993,53.993,0,1,1,0,53.993,53.993,53.993,0,0,1,53.993,0Z" transform="translate(115 2157)" fill="#fff"/>
      <g id="Grupo_5218" data-name="Grupo 5218" transform="translate(-1438.147 1889.422)">
        <path id="Trazado_9321" data-name="Trazado 9321" d="M1596.964,326.64a.937.937,0,0,1-.663-1.6l6.562-6.563a.938.938,0,0,1,1.326,1.326l-6.563,6.563a.938.938,0,0,1-.662.274Z" fill="#7d8f9f"/>
        <g id="Grupo_5216" data-name="Grupo 5216">
          <path id="Trazado_9322" data-name="Trazado 9322" d="M1628.839,319.14h3.75v26.25h-3.75Z" fill="#8fc33e"/>
          <path id="Trazado_9323" data-name="Trazado 9323" d="M1621.339,323.828h3.75V345.39h-3.75Z" fill="#8fc33e"/>
          <path id="Trazado_9324" data-name="Trazado 9324" d="M1617.589,345.39h-3.75V327.578l3.75-.938Z" fill="#8fc33e"/>
          <path id="Trazado_9325" data-name="Trazado 9325" d="M1610.089,345.39h-3.75V326.64l3.75.938Z" fill="#8fc33e"/>
          <path id="Trazado_9326" data-name="Trazado 9326" d="M1602.589,345.39h-3.75V332.265l3.75-3.75Z" fill="#8fc33e"/>
          <path id="Trazado_9327" data-name="Trazado 9327" d="M1595.089,345.39h-3.75v-5.625l3.75-3.75Z" fill="#8fc33e"/>
          <path id="Trazado_9328" data-name="Trazado 9328" d="M1587.589,345.39h-3.75v-7.5l3.75,3.75Z" fill="#8fc33e"/>
          <path id="Trazado_9329" data-name="Trazado 9329" d="M1587.589,326.64l-3.75,3.75V320.078h3.75Z" fill="#8fc33e"/>
          <path id="Trazado_9330" data-name="Trazado 9330" d="M1594.151,320.078l-3.75,3.75V315.39h3.75Z" fill="#8fc33e"/>
        </g>
        <circle id="Elipse_587" data-name="Elipse 587" cx="12.188" cy="12.188" r="12.188" transform="translate(1598.839 299.453)" fill="#2bb3ce"/>
        <circle id="Elipse_588" data-name="Elipse 588" cx="10.313" cy="10.313" r="10.313" transform="translate(1600.714 301.328)" fill="#88d0ef"/>
        <path id="Trazado_9331" data-name="Trazado 9331" d="M1585.715,334.14l11.25-11.25,2.813,2.813-11.251,11.25Z" fill="#f8c09c"/>
        <g id="Grupo_5217" data-name="Grupo 5217">
          <path id="Trazado_9332" data-name="Trazado 9332" d="M1580.089,311.64a.937.937,0,0,1-.586-1.669l14.062-11.25a.937.937,0,0,1,1.149-.018l11.25,8.437a.938.938,0,0,1-1.125,1.5h0l-10.669-8-13.495,10.8a.939.939,0,0,1-.586.205Z" fill="#ec7422"/>
          <path id="Trazado_9333" data-name="Trazado 9333" d="M1608.214,312.578a3.75,3.75,0,1,1,3.75-3.75A3.75,3.75,0,0,1,1608.214,312.578Zm0-5.625a1.875,1.875,0,1,0,1.875,1.875A1.874,1.874,0,0,0,1608.214,306.953Z" fill="#ec7422"/>
          <path id="Trazado_9334" data-name="Trazado 9334" d="M1613.839,319.14a.936.936,0,0,1-.814-.469l-3.75-6.562a.937.937,0,1,1,1.6-.968l.022.038,3.142,5.5,12.257-12.261a.937.937,0,0,1,1.325,0l7.5,7.5a.937.937,0,0,1-1.325,1.326l-6.837-6.838L1614.5,318.866a.938.938,0,0,1-.662.274Z" fill="#ec7422"/>
          <path id="Trazado_9335" data-name="Trazado 9335" d="M1613.839,319.14a1.875,1.875,0,1,1,1.875-1.875A1.874,1.874,0,0,1,1613.839,319.14Z" fill="#ec7422"/>
          <path id="Trazado_9336" data-name="Trazado 9336" d="M1594.151,301.328a1.875,1.875,0,1,1,1.875-1.875A1.875,1.875,0,0,1,1594.151,301.328Z" fill="#ec7422"/>
          <path id="Trazado_9337" data-name="Trazado 9337" d="M1626.964,306.953a1.875,1.875,0,1,1,1.875-1.875A1.875,1.875,0,0,1,1626.964,306.953Z" fill="#ec7422"/>
        </g>
        <path id="Trazado_9338" data-name="Trazado 9338" d="M1618.588,308.828a.938.938,0,0,1-.844-.521,7.464,7.464,0,0,0-6.718-4.167.938.938,0,0,1,0-1.875,9.329,9.329,0,0,1,8.4,5.207.938.938,0,0,1-.421,1.257.927.927,0,0,1-.417.1Z" fill="#fff"/>
        <path id="Trazado_9339" data-name="Trazado 9339" d="M1632.589,346.328a.938.938,0,0,0,.937-.938V319.14a.937.937,0,0,0-.937-.937h-3.75a.937.937,0,0,0-.938.937v26.25a.938.938,0,0,0,.938.938Zm-2.813-26.25h1.875v24.375h-1.875Z"/>
        <path id="Trazado_9340" data-name="Trazado 9340" d="M1625.089,346.328a.938.938,0,0,0,.937-.938V323.828a.938.938,0,0,0-.937-.938h-3.75a.938.938,0,0,0-.938.938V345.39a.938.938,0,0,0,.938.938Zm-2.813-21.563h1.875v19.688h-1.875Z"/>
        <path id="Trazado_9341" data-name="Trazado 9341" d="M1617.361,325.731l-3.75.937a.939.939,0,0,0-.71.91V345.39a.938.938,0,0,0,.938.938h3.75a.938.938,0,0,0,.937-.938V326.64a.937.937,0,0,0-.937-.937A.92.92,0,0,0,1617.361,325.731Zm-.71,18.722h-1.875V328.31l1.875-.469Z"/>
        <path id="Trazado_9342" data-name="Trazado 9342" d="M1610.089,346.328a.938.938,0,0,0,.937-.938V327.578a.939.939,0,0,0-.71-.91l-3.75-.937a.937.937,0,0,0-1.137.681.978.978,0,0,0-.028.228v18.75a.938.938,0,0,0,.938.938Zm-2.813-18.487,1.875.469v16.143h-1.875Z"/>
        <path id="Trazado_9343" data-name="Trazado 9343" d="M1602.948,327.649a.938.938,0,0,0-1.022.2l-3.75,3.75a.939.939,0,0,0-.275.663V345.39a.938.938,0,0,0,.938.938h3.75a.938.938,0,0,0,.937-.938V328.515A.937.937,0,0,0,1602.948,327.649Zm-1.3,16.8h-1.875v-11.8l1.875-1.875Z"/>
        <path id="Trazado_9344" data-name="Trazado 9344" d="M1595.448,335.149a.938.938,0,0,0-1.022.2l-3.75,3.75a.939.939,0,0,0-.275.663v5.625a.938.938,0,0,0,.938.938h3.75a.938.938,0,0,0,.937-.938v-9.375A.937.937,0,0,0,1595.448,335.149Zm-1.3,9.3h-1.875v-4.3l1.875-1.875Z"/>
        <path id="Trazado_9345" data-name="Trazado 9345" d="M1582.9,345.39a.938.938,0,0,0,.938.938h3.75a.938.938,0,0,0,.937-.938v-3.75a.939.939,0,0,0-.275-.663l-3.75-3.75a.938.938,0,0,0-1.6.663Zm1.875-5.237,1.875,1.875v2.425h-1.875Z"/>
        <path id="Trazado_9346" data-name="Trazado 9346" d="M1583.48,331.256a.935.935,0,0,0,1.021-.2l3.75-3.75a.937.937,0,0,0,.275-.663v-6.562a.938.938,0,0,0-.937-.938h-3.75a.938.938,0,0,0-.938.938V330.39A.937.937,0,0,0,1583.48,331.256Zm1.3-10.241h1.875v5.237l-1.875,1.875Z"/>
        <path id="Trazado_9347" data-name="Trazado 9347" d="M1590.4,324.765a.94.94,0,0,0,.663-.274l3.75-3.75a.939.939,0,0,0,.275-.663V315.39a.937.937,0,0,0-.938-.937h-3.75a.936.936,0,0,0-.937.937v8.438A.936.936,0,0,0,1590.4,324.765Zm.938-8.437h1.875v3.362l-1.875,1.875Z"/>
        <path id="Trazado_9348" data-name="Trazado 9348" d="M1628.769,305.557a1.875,1.875,0,1,0-3.611-1.01,1.84,1.84,0,0,0-.069.531,1.8,1.8,0,0,0,.07.479l-1.758,1.756a13.105,13.105,0,0,0-22.523-3.987L1596,299.67a1.772,1.772,0,0,0,.023-.217,1.876,1.876,0,1,0-3.722.281l-12.8,10.237a.937.937,0,1,0,1.161,1.471l.01-.007,12.8-10.239a1.846,1.846,0,0,0,1.415-.019l4.919,3.689a13.031,13.031,0,0,0,1.337,15.383.951.951,0,0,0-.155.1l-2.618,2.619-.744-.744a.937.937,0,0,0-1.325,0l-11.25,11.25a.938.938,0,0,0,0,1.326l2.812,2.813a.94.94,0,0,0,1.326,0l11.25-11.25a.938.938,0,0,0,0-1.326l-.744-.744,2.619-2.618a.948.948,0,0,0,.1-.155,13.082,13.082,0,0,0,21.532-12.105l2.531-2.531a1.666,1.666,0,0,0,.959,0l6.357,6.358a.937.937,0,0,0,1.326-1.325Zm-40.243,30.07-1.487-1.487,9.925-9.924,1.486,1.487Zm22.5-35.237a11.26,11.26,0,0,1,10.875,8.424l-6.95,6.951a1.792,1.792,0,0,0-1.6-.3l-2.362-4.136a3.736,3.736,0,0,0-5.526-5.029,3.677,3.677,0,0,0-.238.289l-2.846-2.133a11.231,11.231,0,0,1,8.646-4.064Zm-.937,8.438a1.875,1.875,0,1,1-1.875-1.875A1.876,1.876,0,0,1,1610.089,308.828Zm.937,14.062a11.228,11.228,0,0,1-9.715-16.9l3.2,2.4a3.7,3.7,0,0,0,4.913,3.969l2.583,4.52a1.863,1.863,0,0,0,1.695,2.245c.006,0,.009.005.015.006a1.035,1.035,0,0,0,.125.008,1.875,1.875,0,0,0,1.815-1.427l6.6-6.6c.007.174.026.347.026.523A11.261,11.261,0,0,1,1611.026,322.89Z"/>
      </g>
    </g>
  </g>
</svg>
