<svg xmlns="http://www.w3.org/2000/svg" width="121" height="121" viewBox="0 0 121 121">
  <g id="Grupo_10155" data-name="Grupo 10155" transform="translate(-108 -1650)">
    <g id="Grupo_5195" data-name="Grupo 5195">
      <circle id="Elipse_497" data-name="Elipse 497" cx="60.5" cy="60.5" r="60.5" transform="translate(108 1650)" fill="#4b9ddf"/>
      <path id="Trazado_1178" data-name="Trazado 1178" d="M53.993,0A53.993,53.993,0,1,1,0,53.993,53.993,53.993,0,0,1,53.993,0Z" transform="translate(115 1657)" fill="#fff"/>
      <g id="Grupo_5194" data-name="Grupo 5194" transform="translate(-1231.848 1386.672)">
        <path id="Trazado_9245" data-name="Trazado 9245" d="M1375.66,311.64h52.5v30h-52.5Z" fill="#efdece"/>
        <path id="Trazado_9246" data-name="Trazado 9246" d="M1388.785,311.64h11.25v30h-11.25Z" fill="#d8c8b9"/>
        <path id="Trazado_9247" data-name="Trazado 9247" d="M1373.785,341.64h54.375v3.75h-54.375Z" fill="#155384"/>
        <path id="Trazado_9248" data-name="Trazado 9248" d="M1373.785,328.515h11.25V345.39h-11.25Z" fill="#93573d"/>
        <path id="Trazado_9249" data-name="Trazado 9249" d="M1423.473,302.265h-43.125l-4.688,9.375v3.75h52.5v-3.75Z" fill="#155384"/>
        <path id="Trazado_9250" data-name="Trazado 9250" d="M1383.16,311.64h7.5v3.75a3.75,3.75,0,0,1-7.5,0v-3.75Z" fill="#fdd14b"/>
        <path id="Trazado_9251" data-name="Trazado 9251" d="M1390.66,311.64h7.5v3.75a3.75,3.75,0,0,1-7.5,0v-3.75Z" fill="#e74444"/>
        <path id="Trazado_9252" data-name="Trazado 9252" d="M1375.66,311.64h7.5v3.75a3.75,3.75,0,0,1-7.5,0v-3.75Z" fill="#e74444"/>
        <path id="Trazado_9253" data-name="Trazado 9253" d="M1398.16,311.64h7.5v3.75a3.75,3.75,0,0,1-7.5,0v-3.75Z" fill="#fdd14b"/>
        <path id="Trazado_9254" data-name="Trazado 9254" d="M1405.66,311.64h7.5v3.75a3.75,3.75,0,0,1-7.5,0v-3.75Z" fill="#e74444"/>
        <path id="Trazado_9255" data-name="Trazado 9255" d="M1413.16,311.64h7.5v3.75a3.75,3.75,0,0,1-7.5,0v-3.75Z" fill="#fdd14b"/>
        <path id="Trazado_9256" data-name="Trazado 9256" d="M1420.66,315.39v-3.75h7.5v3.75a3.75,3.75,0,0,1-7.5,0" fill="#e74444"/>
        <path id="Trazado_9257" data-name="Trazado 9257" d="M1429,311.221l-4.688-9.375a.936.936,0,0,0-.838-.518h-43.125a.938.938,0,0,0-.839.518l-4.687,9.375h0a.938.938,0,0,0-.1.419v15.938h-.938a.936.936,0,0,0-.937.937V345.39a.937.937,0,0,0,.937.938h54.375a.938.938,0,0,0,.938-.938V311.64a.94.94,0,0,0-.1-.419Zm-48.072-8.018h41.966l3.75,7.5h-49.466Zm43.483,16.875a4.666,4.666,0,0,0,2.813-.94V340.7h-1.875v-11.25a.938.938,0,1,0-1.875,0v5.625h-2.813a.936.936,0,0,0-.937.937V340.7h-1.875v-7.5h1.875a.938.938,0,0,0,0-1.875h-11.25a.938.938,0,1,0,0,1.875h1.875v7.5h-1.875v-4.688a.937.937,0,0,0-.938-.937h-2.812v-5.625a.938.938,0,1,0-1.875,0V340.7h-1.875V319.984a11.607,11.607,0,0,1,11.241-.838,4.683,4.683,0,0,1,7.5,0,2.523,2.523,0,0,1,4.7.932ZM1421.6,340.7v-3.75h1.875v3.75Zm-5.625-7.5v7.5h-3.75v-7.5Zm-11.25,3.75h1.875v3.75h-1.875ZM1376.6,312.578h5.625v2.812a2.813,2.813,0,1,1-5.625,0Zm7.5,0h5.625v2.812a2.813,2.813,0,1,1-5.625,0Zm22.5,0h5.625v2.812a2.813,2.813,0,1,1-5.625,0Zm-7.5,2.812v-2.812h5.625v2.812a2.813,2.813,0,1,1-5.625,0Zm-7.5-2.812h5.625v2.812a2.813,2.813,0,1,1-5.625,0Zm-.938,5.621a4.683,4.683,0,0,0,7.5,0,4.742,4.742,0,0,0,.938.939v8.44h-9.375v-8.44A4.74,4.74,0,0,0,1390.66,318.2Zm-.937,11.254h9.375V340.7h-9.375Zm27.187-11.25a2.815,2.815,0,0,1-2.812-2.813v-2.812h5.625v2.812A2.816,2.816,0,0,1,1416.91,318.2Zm-40.312.935a4.68,4.68,0,0,0,6.554-.927l.008-.012a4.685,4.685,0,0,0,4.688,1.785V340.7h-1.875V328.515a.937.937,0,0,0-.938-.937H1376.6Zm7.5,10.315v15h-9.375v-15Zm1.875,15v-1.875h41.25v1.875Zm38.437-26.25a2.815,2.815,0,0,1-2.812-2.813v-2.812h5.625v2.812A2.816,2.816,0,0,1,1424.41,318.2Z"/>
        <path id="Trazado_9258" data-name="Trazado 9258" d="M1377.535,333.2h3.75a.938.938,0,1,0,0-1.875h-3.75a.938.938,0,0,0,0,1.875Z"/>
        <path id="Trazado_9259" data-name="Trazado 9259" d="M1377.535,336.953h3.75a.938.938,0,1,0,0-1.875h-3.75a.938.938,0,0,0,0,1.875Z"/>
        <path id="Trazado_9260" data-name="Trazado 9260" d="M1377.535,340.7h3.75a.938.938,0,1,0,0-1.875h-3.75a.938.938,0,0,0,0,1.875Z"/>
      </g>
    </g>
  </g>
</svg>
