<svg xmlns="http://www.w3.org/2000/svg" width="121" height="121" viewBox="0 0 121 121">
  <g id="Grupo_10160" data-name="Grupo 10160" transform="translate(-108 -2614)">
    <g id="Grupo_5253" data-name="Grupo 5253">
      <circle id="Elipse_497" data-name="Elipse 497" cx="60.5" cy="60.5" r="60.5" transform="translate(108 2614)" fill="#4b9ddf"/>
      <path id="Trazado_1178" data-name="Trazado 1178" d="M53.993,0A53.993,53.993,0,1,1,0,53.993,53.993,53.993,0,0,1,53.993,0Z" transform="translate(115 2621)" fill="#fff"/>
      <g id="Grupo_5252" data-name="Grupo 5252" transform="translate(-1567.936 2357.797)">
        <g id="Grupo_5250" data-name="Grupo 5250">
          <g id="Grupo_5230" data-name="Grupo 5230">
            <path id="Trazado_9369" data-name="Trazado 9369" d="M1730.436,307.89h-20.625a.938.938,0,0,1-.937-.937V290.078a.938.938,0,0,1,.937-.938h20.625a.938.938,0,0,1,.938.938v16.875A.938.938,0,0,1,1730.436,307.89Z" fill="#e6e9ed"/>
          </g>
          <g id="Grupo_5231" data-name="Grupo 5231">
            <path id="Trazado_9370" data-name="Trazado 9370" d="M1714.5,300.39h3.75v3.75h-3.75Z" fill="#b4dd7f"/>
          </g>
          <g id="Grupo_5232" data-name="Grupo 5232">
            <path id="Trazado_9371" data-name="Trazado 9371" d="M1722,296.64v7.5h-3.75v-7.5Z" fill="#b4dd7f"/>
          </g>
          <g id="Grupo_5233" data-name="Grupo 5233">
            <path id="Trazado_9372" data-name="Trazado 9372" d="M1723.2,301.909l-1.022,2.25-.056-.019H1722V292.89h3.75v6.891a6.492,6.492,0,0,0-2.55,2.128Z" fill="#b4dd7f"/>
          </g>
          <g id="Grupo_5234" data-name="Grupo 5234">
            <circle id="Elipse_589" data-name="Elipse 589" cx="8.438" cy="8.438" r="8.438" transform="translate(1748.249 289.14)" fill="#69d6f4"/>
          </g>
          <g id="Grupo_5235" data-name="Grupo 5235">
            <path id="Trazado_9373" data-name="Trazado 9373" d="M1751.952,304.562a2.736,2.736,0,0,1,.047.553,17.648,17.648,0,0,1-.675,4.219c-.347,1.256-.685,2.184-.685,2.184l-.243.713-.01.009a3.7,3.7,0,0,0-3.019-1.537h-.993v-1.585a4.031,4.031,0,0,0-4.022-4.04c-6.694,0-8.035,4.275-14.728,5.625h-.938a3.744,3.744,0,0,0-3.112,1.659l-.216-.834-.984-3.638-.178-.647a6.391,6.391,0,0,1-.2-1.584,6.079,6.079,0,0,1,.178-1.5l1.022-2.25a6.492,6.492,0,0,1,2.55-2.128,5.012,5.012,0,0,1,.609-.263l5.016-1.8,3.956-1.415a10.255,10.255,0,0,1,3.441-.6,10.142,10.142,0,0,1,4.509,1.05,9.926,9.926,0,0,1,3.562,2.925l1.069,1.406a4.137,4.137,0,0,1,1.191.169c.065.028.14.047.206.075a4.032,4.032,0,0,1,2.644,3.234Z" fill="#b27946"/>
          </g>
          <g id="Grupo_5236" data-name="Grupo 5236">
            <path id="Trazado_9374" data-name="Trazado 9374" d="M1719.186,324.765a3.189,3.189,0,0,1-.206,4.706L1714.5,333.2l-4.482-3.732a3.2,3.2,0,0,1,2.054-5.643h.168a3.193,3.193,0,0,0,4.519,0h.169A3.2,3.2,0,0,1,1719.186,324.765Z" fill="#ff826e"/>
          </g>
          <g id="Grupo_5237" data-name="Grupo 5237">
            <path id="Trazado_9375" data-name="Trazado 9375" d="M1756.058,337.89a14.055,14.055,0,0,0-8.184-6.937c-.357-.113-.722-.216-1.088-.3l-.178-.038a9.672,9.672,0,0,1-.234-2.1,9.375,9.375,0,1,1,9.684,9.375Z" fill="#fcd770"/>
          </g>
          <g id="Grupo_5238" data-name="Grupo 5238">
            <path id="Trazado_9376" data-name="Trazado 9376" d="M1733.839,342.165l2.222,3.225h-19.687v-1.05a14.075,14.075,0,0,1,9.75-13.387l3.722,5.4Z" fill="#838f9b"/>
          </g>
          <g id="Grupo_5239" data-name="Grupo 5239">
            <path id="Trazado_9377" data-name="Trazado 9377" d="M1744.152,336.353l3.722-5.4a14.065,14.065,0,0,1,9.75,13.387v1.05h-19.688l2.222-3.225Z" fill="#838f9b"/>
          </g>
          <g id="Grupo_5240" data-name="Grupo 5240">
            <path id="Trazado_9378" data-name="Trazado 9378" d="M1740.749,334.4l-1.875,3.487h-3.75l-1.875-3.487,3.75-2.138Z" fill="#fcd770"/>
          </g>
          <g id="Grupo_5241" data-name="Grupo 5241">
            <path id="Trazado_9379" data-name="Trazado 9379" d="M1738.874,337.89l1.284,4.275-2.222,3.225h-1.875l-2.222-3.225,1.285-4.275Z" fill="#fcd770"/>
          </g>
          <g id="Grupo_5242" data-name="Grupo 5242">
            <path id="Trazado_9380" data-name="Trazado 9380" d="M1733.249,334.4l1.875,3.487-1.285,4.275-3.993-5.812Z" fill="#ccd1d9"/>
          </g>
          <g id="Grupo_5243" data-name="Grupo 5243">
            <path id="Trazado_9381" data-name="Trazado 9381" d="M1744.152,336.353l-3.994,5.812-1.284-4.275,1.875-3.487Z" fill="#ccd1d9"/>
          </g>
          <g id="Grupo_5244" data-name="Grupo 5244">
            <path id="Trazado_9382" data-name="Trazado 9382" d="M1746.608,330.615l.178.038c.366.084.731.187,1.088.3l-3.722,5.4-3.4-1.95-3.75-2.138,4.687-2.812Z" fill="#e6e9ed"/>
          </g>
          <g id="Grupo_5245" data-name="Grupo 5245">
            <path id="Trazado_9383" data-name="Trazado 9383" d="M1737,332.265l-3.75,2.138-3.4,1.95-3.722-5.4c.356-.113.722-.216,1.087-.3l5.1-1.2Z" fill="#e6e9ed"/>
          </g>
          <g id="Grupo_5246" data-name="Grupo 5246">
            <path id="Trazado_9384" data-name="Trazado 9384" d="M1740.946,325.768l.74,3.685L1737,332.265l-4.688-2.812.741-3.685a9.369,9.369,0,0,0,7.894,0Z" fill="#f0d0b4"/>
          </g>
          <g id="Grupo_5247" data-name="Grupo 5247">
            <path id="Trazado_9385" data-name="Trazado 9385" d="M1747.367,310.7a3.767,3.767,0,0,1,3.75,3.75,3.744,3.744,0,0,1-3.75,3.75h-.993l-.047-.01c.028-.328.047-.656.047-.984V310.7h.993Z" fill="#f0d0b4"/>
          </g>
          <g id="Grupo_5248" data-name="Grupo 5248">
            <path id="Trazado_9386" data-name="Trazado 9386" d="M1727.624,310.7v6.506c0,.337.018.666.047.994h-.985a3.75,3.75,0,0,1,0-7.5h.938Z" fill="#f0d0b4"/>
          </g>
          <g id="Grupo_5249" data-name="Grupo 5249">
            <path id="Trazado_9387" data-name="Trazado 9387" d="M1727.671,318.2c-.029-.328-.047-.657-.047-.994V310.7c6.693-1.35,8.034-5.625,14.728-5.625a4.031,4.031,0,0,1,4.022,4.04v8.091c0,.328-.019.656-.047.984a9.375,9.375,0,0,1-18.656.01Z" fill="#f0d0b4"/>
          </g>
        </g>
        <g id="Grupo_5251" data-name="Grupo 5251">
          <path id="Trazado_9388" data-name="Trazado 9388" d="M1721.061,327.023a4.157,4.157,0,0,0-1.217-2.926,4.1,4.1,0,0,0-2.915-1.207h-.174a4.116,4.116,0,0,1-4.514,0h-.172a4.106,4.106,0,0,0-2.924,1.216,4.124,4.124,0,0,0,.275,6.085l5.079,4.232,5.078-4.232a4.116,4.116,0,0,0,1.484-3.168Zm-2.684,1.728-3.878,3.231-3.878-3.231a2.243,2.243,0,0,1-.81-1.728,2.27,2.27,0,0,1,.667-1.6,2.241,2.241,0,0,1,1.591-.659h.173a2.226,2.226,0,0,1,1.561.627l.665.73.7-.7a2.239,2.239,0,0,1,1.59-.659h.174a2.255,2.255,0,0,1,1.447,3.986Z"/>
          <circle id="Elipse_590" data-name="Elipse 590" cx="0.938" cy="0.938" r="0.938" transform="translate(1740.749 313.515)"/>
          <circle id="Elipse_591" data-name="Elipse 591" cx="0.938" cy="0.938" r="0.938" transform="translate(1731.374 313.515)"/>
          <path id="Trazado_9389" data-name="Trazado 9389" d="M1741.772,318.95l.142-.284-1.676-.838-.142.284a3.414,3.414,0,0,1-6.109,0l-.143-.284-1.677.839.141.284a5.29,5.29,0,0,0,9.464,0Z"/>
          <path id="Trazado_9390" data-name="Trazado 9390" d="M1755.749,318.2a10.325,10.325,0,0,0-10.313,10.312c0,.291.025.58.049.868l-3-.7-.482-2.412a10.394,10.394,0,0,0,5.12-7.126h.24a4.693,4.693,0,0,0,4.688-4.687,4.629,4.629,0,0,0-.637-2.316l.1-.295a26.547,26.547,0,0,0,1.369-5.711,9.365,9.365,0,1,0-5.574-8.553,9.174,9.174,0,0,0,.109,1.339,11.1,11.1,0,0,0-12.407-3.5l-2.7.969v-6.31a1.877,1.877,0,0,0-1.875-1.875h-20.625a1.877,1.877,0,0,0-1.875,1.875v16.875a1.877,1.877,0,0,0,1.875,1.875h11.845l.8,2.929.123.491a4.634,4.634,0,0,0-.576,2.205,4.692,4.692,0,0,0,4.687,4.687h.187a10.39,10.39,0,0,0,5.119,7.126l-.481,2.412L1727,329.74a14.942,14.942,0,0,0-11.565,14.6v1.988h43.125V344.34a15.015,15.015,0,0,0-1.113-5.666,10.305,10.305,0,0,0-1.7-20.471Zm-9.4,13.31-2.478,3.6-5.018-2.867,2.989-1.794Zm-9.35,1.845.011-.006,2.478,1.415-1.175,2.186h-2.629l-1.174-2.186,2.477-1.415Zm-4.118,2.34,1.233,2.3-.609,2.031-2.313-3.36Zm1.988,6.306.952-3.176h2.355l.953,3.176-1.686,2.449h-.889Zm5.624-1.981-.61-2.031,1.233-2.3,1.689.965Zm6.873-22.758h-.058c0-.019,0-.038,0-.059V311.64h.055a2.813,2.813,0,0,1,0,5.625Zm6.508-19.687a9.15,9.15,0,0,1,.465-2.813h4.7a8.756,8.756,0,0,1,0,5.625h-4.7A9.163,9.163,0,0,1,1753.874,297.578Zm1.259-4.688a14.167,14.167,0,0,1,1.555-2.344,13.979,13.979,0,0,1,1.557,2.344Zm3.107,9.375a14.248,14.248,0,0,1-1.556,2.345,14.1,14.1,0,0,1-1.557-2.345Zm-3.816,2.461a7.46,7.46,0,0,1-1.643-.766,4.886,4.886,0,0,0-.779-1.694h1.042a15.193,15.193,0,0,0,1.38,2.46Zm4.522,0a15.071,15.071,0,0,0,1.382-2.463h2.2a7.517,7.517,0,0,1-3.585,2.463Zm4.688-4.338h-2.639a10.624,10.624,0,0,0,0-5.625h2.639a7.441,7.441,0,0,1,0,5.625Zm-1.1-7.5h-2.2a15.04,15.04,0,0,0-1.382-2.463,7.517,7.517,0,0,1,3.585,2.463Zm-8.1-2.463a15.1,15.1,0,0,0-1.382,2.463h-2.2a7.522,7.522,0,0,1,3.585-2.463Zm-4.688,4.338h2.639a10.654,10.654,0,0,0,0,5.625h-2.624a7.381,7.381,0,0,1-.567-2.812A7.458,7.458,0,0,1,1749.738,294.765Zm-14.092,2.419a9.239,9.239,0,0,1,10.449,3.065l1.347,1.772h.465a3.13,3.13,0,0,1,3.154,3.1,20.215,20.215,0,0,1-1.09,5.441,4.656,4.656,0,0,0-2.6-.795h-.055v-.645a4.973,4.973,0,0,0-4.955-4.98c-3.943,0-6.233,1.43-8.448,2.814a18.2,18.2,0,0,1-6.391,2.811h-.831a4.663,4.663,0,0,0-2.627.808l-.953-3.56a5.471,5.471,0,0,1-.17-1.354,5.62,5.62,0,0,1,3.739-5.258Zm-18.335,6.019h-1.875v-1.875h1.875Zm7.5-3.981a7.525,7.525,0,0,0-1.875,1.547v-6.941h1.875Zm-3.75,3.981h-1.875v-5.625h1.875Zm-11.25-13.125h20.625v6.982l-3.75,1.346v-6.453h-5.625v3.75h-3.75v3.75h-3.75v5.625h7.546c-.015.194-.046.384-.046.581a7.465,7.465,0,0,0,.129,1.294h-11.379Zm16.875,27.187a2.813,2.813,0,0,1,0-5.625v5.567c0,.02,0,.039,0,.059h0Zm1.875-.058v-5.753a20.576,20.576,0,0,0,6.34-2.909c2.174-1.358,4.05-2.53,7.455-2.53a3.1,3.1,0,0,1,3.08,3.106v8.086a8.438,8.438,0,1,1-16.875,0ZM1737,327.578a10.2,10.2,0,0,0,3.249-.536l.389,1.947L1737,331.172l-3.639-2.183.389-1.947A10.2,10.2,0,0,0,1737,327.578Zm-4.843,2.874,2.988,1.793-5.018,2.868-2.478-3.6Zm-14.845,13.888a13.059,13.059,0,0,1,8.454-12.255l8.512,12.368h-16.966Zm39.375.113H1739.72l8.514-12.368a13.06,13.06,0,0,1,8.452,12.255Zm-.089-7.55a14.767,14.767,0,0,0-1.221-1.825h1.31V333.2h1.875V330.39a2.816,2.816,0,0,0-2.812-2.812.939.939,0,0,1-.938-.938V325.7h.938a.938.938,0,0,1,.937.937v.938h1.875v-.938a2.808,2.808,0,0,0-1.875-2.64v-2.047h-1.875v1.875h-1.875v2.812a2.816,2.816,0,0,0,2.813,2.813.938.938,0,0,1,.937.937v.938h-.937a.939.939,0,0,1-.938-.938v-.937h-1.875v.937a2.809,2.809,0,0,0,1.875,2.64v1.383a14.956,14.956,0,0,0-7.38-4.552,8.432,8.432,0,1,1,9.166,7.042Z"/>
        </g>
      </g>
    </g>
  </g>
</svg>
