<svg xmlns="http://www.w3.org/2000/svg" width="121" height="121" viewBox="0 0 121 121">
  <g id="Grupo_10161" data-name="Grupo 10161" transform="translate(-108 -2945)">
    <g id="Grupo_5256" data-name="Grupo 5256">
      <circle id="Elipse_497" data-name="Elipse 497" cx="60.5" cy="60.5" r="60.5" transform="translate(108 2945)" fill="#4b9ddf"/>
      <path id="Trazado_1178" data-name="Trazado 1178" d="M53.993,0A53.993,53.993,0,1,1,0,53.993,53.993,53.993,0,0,1,53.993,0Z" transform="translate(115 2952)" fill="#fff"/>
      <g id="Grupo_5255" data-name="Grupo 5255" transform="translate(-1637.19 2688.388)">
        <path id="Trazado_9391" data-name="Trazado 9391" d="M1791.154,336.3c-.062-.3-.112-.523-.154-.749q-1.219-6.482-2.445-12.963c-.029-.154-.182-.4-.282-.4-1.213-.028-2.426-.018-3.671-.018v.594q0,6.518,0,13.035a4.783,4.783,0,0,0,8.535,3.161c.77-.9,1.537-1.8,2.261-2.735a1.739,1.739,0,0,0,.362-.973c.03-2.288.015-4.578.013-6.866v-.6h1.877v16.681h6.079c-1.049-1.045-2.012-2.029-3.007-2.981a.869.869,0,0,1-.274-.917c1.177-5.552,2.33-11.109,3.531-16.655a2.983,2.983,0,0,0-.326-2.024l-2.94,1.758-.812-4.011c-.249.127-.438.212-.616.315a21.228,21.228,0,0,0-6.805,6.32,3.416,3.416,0,0,0-.685,3.425,2.644,2.644,0,0,1,.083.457l1.086,5.807Z" fill="#4db3f4"/>
        <path id="Trazado_9392" data-name="Trazado 9392" d="M1816.24,327.772a1.854,1.854,0,0,1,.025.184c0,2.444,0,4.888.008,7.333a1.186,1.186,0,0,0,.172.7c.889,1.1,1.791,2.193,2.728,3.254a4.487,4.487,0,0,0,3.281,1.533,4.758,4.758,0,0,0,4.979-4.74c.024-4.52.007-9.04.006-13.56a2.513,2.513,0,0,0-.03-.272h-3.859l-2.643,14.093-1.8-.338c.018-.153.024-.266.044-.376.446-2.4.9-4.8,1.328-7.2a1.221,1.221,0,0,0-.116-.755,20.1,20.1,0,0,0-7.8-7.792,3.965,3.965,0,0,0-.428-.181l-.8,3.974-2.961-1.755a3.264,3.264,0,0,0-.316,2.011c1.208,5.565,2.364,11.142,3.547,16.713a.822.822,0,0,1-.266.867c-.91.872-1.791,1.775-2.68,2.669a3.887,3.887,0,0,0-.274.345h6.04v-16.7Z" fill="#4db3f4"/>
        <path id="Trazado_9393" data-name="Trazado 9393" d="M1803.2,305.4a5.115,5.115,0,0,1-.87,3.657,4.813,4.813,0,0,1-4.25,1.941,3.272,3.272,0,0,0,3.518,1.8c1.717-.283,3.433-.571,5.2-.865l.306,1.829-3.872.658c0,.663.029,1.3-.01,1.934a.736.736,0,0,0,.513.835c.78.338,1.536,1.021,2.3,1.019s1.521-.688,2.3-1.029a.723.723,0,0,0,.493-.788c-.019-2.716,0-5.432-.018-8.148a.876.876,0,0,1,.4-.822c.837-.6,1.658-1.215,2.467-1.848a2.137,2.137,0,0,0,.741-2.445,2.181,2.181,0,0,0-2.049-1.45c-.5-.014-1,0-1.553,0,0-.636.012-1.214,0-1.79a2.612,2.612,0,0,0-1.007-2.073.985.985,0,0,0-.655-.105c-.457.051-.908.226-1.362.23-2.5.023-5.005.011-7.507.01h-.639c0,.278-.015.472,0,.663a3.768,3.768,0,0,1-.817,2.715,14.149,14.149,0,0,0-.838,1.258,1.1,1.1,0,0,0,.371,1.605c.462.322.876.712,1.485,1.216Z" fill="#fbd1b4"/>
        <path id="Trazado_9394" data-name="Trazado 9394" d="M1810.678,311.067c1.248-.885,2.411-1.653,3.512-2.5a10.08,10.08,0,0,0-6.14-18.066c-3.723-.014-7.446-.006-11.169,0a2.8,2.8,0,1,0,.016,5.582q3.781.009,7.562,0c.5,0,1.009.011,1.512-.008a.927.927,0,1,0-.025-1.851c-.266-.011-.533,0-.821,0v-1.863c.282,0,.53,0,.778,0a2.788,2.788,0,0,1,2.844,3.4.864.864,0,0,0,.218.571,9,9,0,0,1,1.026,1.245,20.535,20.535,0,0,1,.852,2.252c-.042-.01.014.005.071.016a3.9,3.9,0,0,1,3.367,3.108,3.949,3.949,0,0,1-1.73,4.3c-.529.393-1.067.776-1.577,1.192a.809.809,0,0,0-.283.512C1810.658,309.611,1810.678,310.268,1810.678,311.067Z" fill="#626e79"/>
        <path id="Trazado_9395" data-name="Trazado 9395" d="M1806,344.137c1.209-1.206,2.364-2.347,3.5-3.509a.676.676,0,0,0,.085-.525q-1.629-7.789-3.285-15.573a2.033,2.033,0,0,0-.272-.5,1.976,1.976,0,0,0-.272.5q-1.656,7.783-3.286,15.573a.678.678,0,0,0,.086.525C1803.677,341.8,1804.823,342.948,1806,344.137Z" fill="#ffeba5"/>
        <path id="Trazado_9396" data-name="Trazado 9396" d="M1826.5,303.531v0c1.959,0,3.919.006,5.878-.01a2.086,2.086,0,0,0,.613-.21,1.856,1.856,0,0,0-.3-.563q-2.48-2.158-4.987-4.286a1.6,1.6,0,0,0-2.39.018q-2.481,2.113-4.945,4.247a2.163,2.163,0,0,0-.34.552,2.107,2.107,0,0,0,.651.238C1822.615,303.538,1824.556,303.531,1826.5,303.531Z" fill="#fed869"/>
        <path id="Trazado_9397" data-name="Trazado 9397" d="M1829.321,307.27v5.546h1.808V305.44h-9.243v7.367h1.86V307.27Z" fill="#e5eaed"/>
        <path id="Trazado_9398" data-name="Trazado 9398" d="M1788.308,320.289c.008-.171.017-.284.019-.4.018-1.206-.232-1.459-1.449-1.459l-3.545,0h-2.42a1.779,1.779,0,0,0,1.7,1.842C1784.486,320.311,1786.364,320.289,1788.308,320.289Z" fill="#fbd1b4"/>
        <path id="Trazado_9399" data-name="Trazado 9399" d="M1831.142,318.436c-2.192,0-4.34-.008-6.488.006a.9.9,0,0,0-.932.915c-.019.3,0,.6,0,.935,1.956,0,3.832.025,5.708-.01A1.806,1.806,0,0,0,1831.142,318.436Z" fill="#fbd1b4"/>
        <path id="Trazado_9400" data-name="Trazado 9400" d="M1825.609,309.149v3.661h1.792v-3.661Z" fill="#a8b4bf"/>
        <path id="Trazado_9401" data-name="Trazado 9401" d="M1801.146,307.259h-3.467v1.826C1799.518,309.244,1800.664,308.657,1801.146,307.259Z" fill="#fa7387"/>
        <path id="Trazado_9402" data-name="Trazado 9402" d="M1802.027,320.673l2.047-1.233c-.6-.3-1.1-.579-1.629-.812a.483.483,0,0,0-.724.556C1801.8,319.653,1801.911,320.117,1802.027,320.673Z" fill="#4db3f4"/>
        <path id="Trazado_9403" data-name="Trazado 9403" d="M1810.016,320.674c.115-.547.226-.994.294-1.447.025-.165,0-.44-.094-.5a.812.812,0,0,0-.629-.084c-.531.214-1.033.5-1.626.8Z" fill="#4db3f4"/>
        <path id="Trazado_9404" data-name="Trazado 9404" d="M1805.356,320.918c.1.32.2.671.337,1a.355.355,0,0,0,.658,0c.14-.331.233-.683.336-1A.778.778,0,0,0,1805.356,320.918Z" fill="#ffeba5"/>
        <g id="Grupo_5254" data-name="Grupo 5254">
          <path id="Trazado_9405" data-name="Trazado 9405" d="M1795.757,298a15.807,15.807,0,0,1-1.952-1.1,4.632,4.632,0,0,1,2.777-8.256c3.977-.024,7.955-.062,11.93.01a11.918,11.918,0,0,1,11.374,10.443c.049.443.088.886.141,1.424.189-.151.348-.271.5-.4q1.768-1.514,3.534-3.031a3.529,3.529,0,0,1,4.9,0c1.65,1.413,3.309,2.815,4.946,4.244,1.551,1.354,1.269,3.119-.593,3.973a.683.683,0,0,0-.272.527c-.017,2.231-.006,4.462-.011,6.693a1.911,1.911,0,0,1-2.172,2.184q-4.422.006-8.846,0a1.865,1.865,0,0,1-2.019-2.037c0-2.134-.027-4.268.014-6.4.013-.677-.1-1.128-.917-1.141a11.664,11.664,0,0,1-3.464,4.675,26.4,26.4,0,0,1-3.412,2.42,2.647,2.647,0,0,0-1.548,3.029,10.709,10.709,0,0,1,.013,1.617,23.17,23.17,0,0,1,5.8,3.351,29.213,29.213,0,0,1,4.689,4.862c.228-1.555.469-3.108.676-4.666.076-.573,0-1.172.117-1.732a2.672,2.672,0,0,1,2.6-2.1q3.316-.034,6.634,0a1.845,1.845,0,0,1,1.83,1.932c-.014,1.947-1.467,3.407-3.723,3.678v.61c0,4.384.012,8.769,0,13.153a6.634,6.634,0,0,1-6.917,6.685,6.474,6.474,0,0,1-4.851-2.411c-.387-.455-.769-.915-1.27-1.511v7.613h-20.461v-7.415l-.125-.073c-.175.206-.36.406-.525.621a7.773,7.773,0,0,1-3.6,2.829,6.64,6.64,0,0,1-8.8-6.208c-.044-4.384-.011-8.768-.011-13.153v-.719c-.322-.06-.623-.1-.918-.172a3.728,3.728,0,0,1-2.805-3.569,1.836,1.836,0,0,1,1.812-1.889c2.231-.022,4.462-.034,6.693.005a2.7,2.7,0,0,1,2.65,2.825,30.01,30.01,0,0,0,.766,5.741c.649-.8,1.216-1.556,1.835-2.263a21.748,21.748,0,0,1,8.111-5.8c.348-.145.525-.3.492-.7-.044-.536-.011-1.079-.011-1.612-.561-.073-1.083-.1-1.585-.213a5.213,5.213,0,0,1-3.991-4.853c-.033-1.1.005-2.211-.029-3.316a.828.828,0,0,0-.327-.58,2.954,2.954,0,0,1-.95-4.33,6.877,6.877,0,0,1,.616-.916A3,3,0,0,0,1795.757,298Zm-4.6,38.3c-.062-.3-.112-.523-.154-.749q-1.219-6.482-2.445-12.963c-.029-.154-.182-.4-.282-.4-1.213-.028-2.426-.018-3.671-.018v.594q0,6.518,0,13.035a4.783,4.783,0,0,0,8.535,3.161c.77-.9,1.537-1.8,2.261-2.735a1.739,1.739,0,0,0,.362-.973c.03-2.288.015-4.578.013-6.866v-.6h1.877v16.681h6.079c-1.049-1.045-2.012-2.029-3.007-2.981a.869.869,0,0,1-.274-.917c1.177-5.552,2.33-11.109,3.531-16.655a2.983,2.983,0,0,0-.326-2.024l-2.94,1.758-.812-4.011c-.249.127-.438.212-.616.315a21.228,21.228,0,0,0-6.805,6.32,3.416,3.416,0,0,0-.685,3.425,2.644,2.644,0,0,1,.083.457l1.086,5.807Zm25.086-8.526a1.854,1.854,0,0,1,.025.184c0,2.444,0,4.888.008,7.333a1.186,1.186,0,0,0,.172.7c.889,1.1,1.791,2.193,2.728,3.254a4.487,4.487,0,0,0,3.281,1.533,4.758,4.758,0,0,0,4.979-4.74c.024-4.52.007-9.04.006-13.56a2.513,2.513,0,0,0-.03-.272h-3.859l-2.643,14.093-1.8-.338c.018-.153.024-.266.044-.376.446-2.4.9-4.8,1.328-7.2a1.221,1.221,0,0,0-.116-.755,20.1,20.1,0,0,0-7.8-7.792,3.965,3.965,0,0,0-.428-.181l-.8,3.974-2.961-1.755a3.264,3.264,0,0,0-.316,2.011c1.208,5.565,2.364,11.142,3.547,16.713a.822.822,0,0,1-.266.867c-.91.872-1.791,1.775-2.68,2.669a3.887,3.887,0,0,0-.274.345h6.04v-16.7ZM1803.2,305.4a5.115,5.115,0,0,1-.87,3.657,4.813,4.813,0,0,1-4.25,1.941,3.272,3.272,0,0,0,3.518,1.8c1.717-.283,3.433-.571,5.2-.865l.306,1.829-3.872.658c0,.663.029,1.3-.01,1.934a.736.736,0,0,0,.513.835c.78.338,1.536,1.021,2.3,1.019s1.521-.688,2.3-1.029a.723.723,0,0,0,.493-.788c-.019-2.716,0-5.432-.018-8.148a.876.876,0,0,1,.4-.822c.837-.6,1.658-1.215,2.467-1.848a2.137,2.137,0,0,0,.741-2.445,2.181,2.181,0,0,0-2.049-1.45c-.5-.014-1,0-1.553,0,0-.636.012-1.214,0-1.79a2.612,2.612,0,0,0-1.007-2.073.985.985,0,0,0-.655-.105c-.457.051-.908.226-1.362.23-2.5.023-5.005.011-7.507.01h-.639c0,.278-.015.472,0,.663a3.768,3.768,0,0,1-.817,2.715,14.149,14.149,0,0,0-.838,1.258,1.1,1.1,0,0,0,.371,1.605c.462.322.876.712,1.485,1.216Zm7.479,5.664c1.248-.885,2.411-1.653,3.512-2.5a10.08,10.08,0,0,0-6.14-18.066c-3.723-.014-7.446-.006-11.169,0a2.8,2.8,0,1,0,.016,5.582q3.781.009,7.562,0c.5,0,1.009.011,1.512-.008a.927.927,0,1,0-.025-1.851c-.266-.011-.533,0-.821,0v-1.863c.282,0,.53,0,.778,0a2.788,2.788,0,0,1,2.844,3.4.864.864,0,0,0,.218.571,9,9,0,0,1,1.026,1.245,20.535,20.535,0,0,1,.852,2.252c-.042-.01.014.005.071.016a3.9,3.9,0,0,1,3.367,3.108,3.949,3.949,0,0,1-1.73,4.3c-.529.393-1.067.776-1.577,1.192a.809.809,0,0,0-.283.512C1810.658,309.611,1810.678,310.268,1810.678,311.067Zm-4.683,33.07c1.209-1.206,2.365-2.347,3.5-3.509a.68.68,0,0,0,.085-.525q-1.629-7.789-3.285-15.573a.324.324,0,1,0-.545,0q-1.656,7.783-3.285,15.573a.682.682,0,0,0,.085.525C1803.674,341.8,1804.821,342.948,1805.995,344.137Zm20.5-40.606v0c1.959,0,3.919.006,5.878-.01a2.086,2.086,0,0,0,.613-.21,1.856,1.856,0,0,0-.3-.563q-2.48-2.158-4.987-4.286a1.6,1.6,0,0,0-2.39.018q-2.481,2.113-4.945,4.247a2.163,2.163,0,0,0-.34.552,2.107,2.107,0,0,0,.651.238C1822.615,303.538,1824.556,303.531,1826.5,303.531Zm2.825,3.739v5.546h1.808V305.44h-9.243v7.367h1.86V307.27Zm-41.013,13.019c.008-.171.017-.284.019-.4.018-1.206-.232-1.459-1.449-1.459l-3.545,0h-2.42a1.779,1.779,0,0,0,1.7,1.842C1784.486,320.311,1786.364,320.289,1788.308,320.289Zm42.834-1.853c-2.192,0-4.34-.008-6.488.006a.9.9,0,0,0-.932.915c-.019.3,0,.6,0,.935,1.956,0,3.832.025,5.708-.01A1.806,1.806,0,0,0,1831.142,318.436Zm-5.533-9.287v3.661h1.792v-3.661Zm-24.463-1.89h-3.467v1.826C1799.518,309.244,1800.664,308.657,1801.146,307.259Zm.881,13.414,2.047-1.233c-.6-.3-1.1-.579-1.629-.812a.483.483,0,0,0-.724.556C1801.8,319.653,1801.911,320.117,1802.027,320.673Zm7.989,0c.115-.547.226-.994.294-1.447.025-.165,0-.44-.094-.5a.812.812,0,0,0-.629-.084c-.531.214-1.033.5-1.626.8Zm-4.66.244c.1.32.2.671.337,1a.355.355,0,0,0,.658,0c.14-.331.233-.683.336-1A.778.778,0,0,0,1805.356,320.918Z"/>
          <path id="Trazado_9406" data-name="Trazado 9406" d="M1788.308,312.858h1.855v1.809H1777.19v-1.8h1.8v-3.707h1.873V312.8h1.868v-7.375h1.848v7.381h1.866V301.719h1.866Z"/>
          <path id="Trazado_9407" data-name="Trazado 9407" d="M1800.448,299.813a.929.929,0,1,1-.941.9A.94.94,0,0,1,1800.448,299.813Z"/>
        </g>
      </g>
    </g>
  </g>
</svg>
