<svg xmlns="http://www.w3.org/2000/svg" width="121" height="121" viewBox="0 0 121 121">
  <g id="Grupo_10156" data-name="Grupo 10156" transform="translate(-108 -1805)">
    <g id="Grupo_5212" data-name="Grupo 5212">
      <circle id="Elipse_497" data-name="Elipse 497" cx="60.5" cy="60.5" r="60.5" transform="translate(108 1805)" fill="#4b9ddf"/>
      <path id="Trazado_1178" data-name="Trazado 1178" d="M53.993,0A53.993,53.993,0,1,1,0,53.993,53.993,53.993,0,0,1,53.993,0Z" transform="translate(115 1812)" fill="#fff"/>
      <g id="Grupo_5211" data-name="Grupo 5211" transform="translate(-1297.98 1549.672)">
        <g id="Grupo_5209" data-name="Grupo 5209">
          <g id="Grupo_5207" data-name="Grupo 5207">
            <g id="Grupo_5199" data-name="Grupo 5199">
              <g id="Grupo_5197" data-name="Grupo 5197">
                <path id="Trazado_9261" data-name="Trazado 9261" d="M1450.713,293.03h23.338v35.343h-23.338Z" fill="#ffb938"/>
                <path id="Trazado_9262" data-name="Trazado 9262" d="M1473.759,293.03H1496.1v35.159h-22.342Z" fill="#ffe645"/>
                <path id="Trazado_9263" data-name="Trazado 9263" d="M1491.413,293.03h4.688v23.075h-4.688Z" fill="#f5d60c"/>
                <path id="Trazado_9264" data-name="Trazado 9264" d="M1436.98,286.328" fill="#f5d60c"/>
                <g id="Grupo_5196" data-name="Grupo 5196">
                  <path id="Trazado_9265" data-name="Trazado 9265" d="M1487.091,302.352l4.324-4.32h-8.649l-4.323,4.319Z" fill="#365dca"/>
                  <path id="Trazado_9266" data-name="Trazado 9266" d="M1478.443,302.352h8.648v8.637h-8.648Z" fill="#fff"/>
                  <path id="Trazado_9267" data-name="Trazado 9267" d="M1487.091,310.989l4.325-4.322v-8.635l-4.324,4.32Z" fill="#ffb938"/>
                </g>
                <path id="Trazado_9268" data-name="Trazado 9268" d="M1473.759,316.105H1496.1v12.268h-22.342Z" fill="#fff6db"/>
                <path id="Trazado_9269" data-name="Trazado 9269" d="M1491.413,316.105h4.688v12.268h-4.688Z" fill="#f7eccb"/>
              </g>
              <g id="Grupo_5198" data-name="Grupo 5198">
                <path id="Trazado_9270" data-name="Trazado 9270" d="M1462.347,287.207h5.484v24.251h-5.484Z" fill="#86db7b"/>
                <path id="Trazado_9271" data-name="Trazado 9271" d="M1465.135,287.207h2.7v24.251h-2.7Z" fill="#6dd45f"/>
              </g>
            </g>
            <g id="Grupo_5206" data-name="Grupo 5206">
              <g id="Grupo_5202" data-name="Grupo 5202">
                <path id="Trazado_9272" data-name="Trazado 9272" d="M1447.362,335.364c0,1.852-2.127,3.354-4.752,3.354s-4.743-1.559-4.743-3.77c0-1.853-.009-6.759-.009-6.759h9.5Z" fill="#ffb938"/>
                <g id="Grupo_5200" data-name="Grupo 5200">
                  <path id="Trazado_9273" data-name="Trazado 9273" d="M1442.61,296.577c2.625,0,4.752,1.169,4.752,2.61v35.761c0-1.442-2.127-2.61-4.752-2.61-.276,0-.546.014-.809.039V296.616c.264-.025.533-.039.809-.039Z" fill="#ffe645"/>
                </g>
                <g id="Grupo_5201" data-name="Grupo 5201">
                  <path id="Trazado_9274" data-name="Trazado 9274" d="M1443.419,293.942a5.491,5.491,0,0,0-5.561,5.352v35.654c0-5.69,5.561-5.513,5.561-5.513Z" fill="#fff6db"/>
                </g>
              </g>
              <g id="Grupo_5205" data-name="Grupo 5205">
                <path id="Trazado_9275" data-name="Trazado 9275" d="M1456.884,342.094c0,1.852-2.127,3.354-4.752,3.355s-4.743-1.558-4.743-3.77c0-1.852-.01-6.758-.01-6.758l9.5,0S1456.883,340.7,1456.884,342.094Z" fill="#ffb938"/>
                <g id="Grupo_5203" data-name="Grupo 5203">
                  <path id="Trazado_9276" data-name="Trazado 9276" d="M1452.126,303.309c2.624,0,4.752,1.167,4.752,2.608l.006,35.761c0-1.441-2.128-2.609-4.753-2.609-.276,0-.546.014-.809.039l-.005-35.761q.394-.037.809-.038Z" fill="#ffe645"/>
                </g>
                <g id="Grupo_5204" data-name="Grupo 5204">
                  <path id="Trazado_9277" data-name="Trazado 9277" d="M1452.934,300.674a5.49,5.49,0,0,0-5.56,5.352l.006,35.654c0-5.69,5.56-5.514,5.56-5.514Z" fill="#fff6db"/>
                </g>
              </g>
            </g>
          </g>
          <path id="Trazado_9278" data-name="Trazado 9278" d="M1465.122,345.449h26.469V322.913Zm22.2-4.264H1476.71l10.612-9.035Z" fill="#ffe645"/>
          <g id="Grupo_5208" data-name="Grupo 5208">
            <path id="Trazado_9279" data-name="Trazado 9279" d="M1487.286,326.578v5.6l.036-.031v9.035h-.036v4.264h4.3V322.913Z" fill="#f5d60c"/>
          </g>
        </g>
        <g id="Grupo_5210" data-name="Grupo 5210">
          <path id="Trazado_9280" data-name="Trazado 9280" d="M1496.1,292.151H1468.71v-4.944a.879.879,0,0,0-.879-.879h-5.484a.879.879,0,0,0-.879.879v4.944h-10.755a.878.878,0,0,0-.879.879v7.556a6.718,6.718,0,0,0-1.593,1.184v-2.583c0-1.594-1.585-2.9-3.943-3.337v-1.908a.879.879,0,0,0-.879-.878,6.725,6.725,0,0,0-4.34,1.641,5.993,5.993,0,0,0-2.1,4.589v3.682a.879.879,0,0,0,1.757,0v-3.682a4.564,4.564,0,0,1,3.8-4.4v33.715a6.725,6.725,0,0,0-3.8,1.7c0-1.2,0-22.661,0-22.661a.879.879,0,0,0-1.757,0v27.3a.984.984,0,0,0,.012.145c.087,2.578,2.472,4.5,5.618,4.5a6.72,6.72,0,0,0,3.89-1.148v3.232c0,2.97,2.971,4.648,5.631,4.648,2.825,0,5.63-1.591,5.63-4.65l0-12.427h25.03l-18.238,15.529a.885.885,0,0,0,.57,1.548h26.469a.879.879,0,0,0,.879-.879v-4.264a.879.879,0,0,0-1.758,0v3.385h-23.2l23.2-19.754v11.521a.879.879,0,0,0,1.758,0v-7.085h3.631a.88.88,0,0,0,.879-.879V293.03A.879.879,0,0,0,1496.1,292.151Zm-.879,1.758v21.317h-20.584V293.909Zm-28.27-5.823v22.493h-3.726v-2.246h.638a.879.879,0,0,0,0-1.758h-.638v-2.3h1.459a.879.879,0,0,0,0-1.758h-1.459v-2.3h.638a.879.879,0,1,0,0-1.758h-.638v-2.3h1.459a.879.879,0,0,0,0-1.758h-1.459v-2.3h.638a.879.879,0,0,0,0-1.757h-.638v-2.246Zm-16.09,13.919a4.671,4.671,0,0,1,1.193-.378l.006,33.716a6.709,6.709,0,0,0-3.8,1.7c0-1.18,0-2.094,0-2.119l-.005-28.894a4.553,4.553,0,0,1,2.609-4.021ZM1456,339.113c-.029-.017-.059-.034-.09-.05a7.96,7.96,0,0,0-3.713-.872V337.1a5.175,5.175,0,0,1,.711-.054.879.879,0,0,0,.907-.878l-.005-31.781c1.165.288,2.185.878,2.185,1.532Zm-9.521-39.926v33.184a7.818,7.818,0,0,0-3.8-.911v-1.093a5.192,5.192,0,0,1,.711-.054.878.878,0,0,0,.907-.878V297.648C1445.637,297.968,1446.483,298.633,1446.483,299.187Zm0,36.177c0,1.341-1.773,2.475-3.873,2.475-2.2,0-3.864-1.243-3.864-2.892a4.256,4.256,0,0,1,2.177-4.048v1.478a.879.879,0,0,0,.961.875,6.469,6.469,0,0,1,3.663.621A1.487,1.487,0,0,1,1446.483,335.364Zm5.649,9.206h0c-2.2,0-3.863-1.243-3.863-2.891a4.256,4.256,0,0,1,2.175-4.049v1.478a.878.878,0,0,0,.961.875c1.491-.14,4.671.1,4.6,2.111,0,1.342-1.773,2.476-3.873,2.476Zm5.625-38.653c0-1.583-1.591-2.9-3.944-3.335v-1.909a.879.879,0,0,0-.879-.878,6.342,6.342,0,0,0-1.342.147v-6.033h9.876v17.549a.88.88,0,0,0,.879.879h5.484a.88.88,0,0,0,.879-.879V293.909h4.17v33.585h-15.12Zm34.2,16.2a.878.878,0,0,0-.939.129l-6.166,5.25h-10.217v-10.51h20.584v10.51h-2.752v-4.581a.879.879,0,0,0-.51-.8Z" fill="#060606"/>
          <path id="Trazado_9281" data-name="Trazado 9281" d="M1478.855,311.513h8.1a.885.885,0,0,0,.622-.258l4.049-4.046a.88.88,0,0,0,.258-.622V298.5a.892.892,0,0,0-.879-.878h-8.1a.877.877,0,0,0-.621.257l-4.047,4.044a.888.888,0,0,0-.259.622v8.088a.879.879,0,0,0,.879.879Zm.879-8.088h6.341v6.33h-6.341Zm8.1,5.089v-5.6l2.291-2.29v5.6Zm-4.566-9.134h5.613l-2.29,2.288h-5.612Z" fill="#060606"/>
          <path id="Trazado_9282" data-name="Trazado 9282" d="M1483.012,323.135H1480.1a.879.879,0,0,0,0,1.758h2.912A.879.879,0,0,0,1483.012,323.135Z" fill="#060606"/>
          <path id="Trazado_9283" data-name="Trazado 9283" d="M1487.562,319.637H1480.1a.879.879,0,0,0,0,1.758h7.462A.879.879,0,0,0,1487.562,319.637Z" fill="#060606"/>
          <path id="Trazado_9284" data-name="Trazado 9284" d="M1486.752,331.481l-10.612,9.035a.885.885,0,0,0,.57,1.548h10.612a.879.879,0,0,0,.879-.879V332.15A.888.888,0,0,0,1486.752,331.481Zm-.309,8.825H1479.1l7.345-6.253Z" fill="#060606"/>
        </g>
      </g>
    </g>
  </g>
</svg>
