<svg xmlns="http://www.w3.org/2000/svg" width="121" height="121" viewBox="0 0 121 121">
  <g id="Grupo_10159" data-name="Grupo 10159" transform="translate(-108 -2415)">
    <g id="Grupo_5229" data-name="Grupo 5229">
      <circle id="Elipse_497" data-name="Elipse 497" cx="60.5" cy="60.5" r="60.5" transform="translate(108 2415)" fill="#4b9ddf"/>
      <path id="Trazado_1178" data-name="Trazado 1178" d="M53.993,0A53.993,53.993,0,1,1,0,53.993,53.993,53.993,0,0,1,53.993,0Z" transform="translate(115 2422)" fill="#fff"/>
      <g id="Grupo_5228" data-name="Grupo 5228" transform="translate(-1502.604 2159.672)">
        <g id="Grupo_5226" data-name="Grupo 5226">
          <g id="Grupo_5220" data-name="Grupo 5220">
            <path id="Trazado_9349" data-name="Trazado 9349" d="M1673.611,326.043h1.94a7.761,7.761,0,0,1,7.761,7.761v10.672a.97.97,0,0,1-.97.97h-36.889a.97.97,0,0,1-.971-.97V333.8a7.76,7.76,0,0,1,7.761-7.76h21.368Z" fill="#e27f84"/>
            <path id="Trazado_9350" data-name="Trazado 9350" d="M1672.48,328.953l2.714,5.939a.969.969,0,0,1-.448,1.271l-1.307.654a.97.97,0,0,0,0,1.735l.941.471a.971.971,0,0,1,.252,1.554l-4.869,4.869h-11.642l-4.869-4.869a.971.971,0,0,1,.252-1.554l.941-.471a.969.969,0,0,0,0-1.735l-1.307-.654a.969.969,0,0,1-.448-1.271l2.714-5.939,8.505,2.911Z" fill="#c9646d"/>
            <path id="Trazado_9351" data-name="Trazado 9351" d="M1667.823,334.451l-1.941,11H1662l-1.941-11v-3.9l3.848,1.317,3.881-1.318Z" fill="#d8e2f3"/>
          </g>
          <g id="Grupo_5221" data-name="Grupo 5221">
            <path id="Trazado_9352" data-name="Trazado 9352" d="M1698.108,296.733l-1.166-.292a.928.928,0,0,1-.629-.552l0-.009a.928.928,0,0,1,.056-.833l.618-1.03a.971.971,0,0,0-.146-1.186l-1.674-1.674a.97.97,0,0,0-1.185-.146l-1.031.618a.924.924,0,0,1-.833.056l-.009,0a.93.93,0,0,1-.552-.63l-.291-1.166a.971.971,0,0,0-.942-.735h-2.367a.971.971,0,0,0-.942.735l-.291,1.166a.929.929,0,0,1-.552.63l-.009,0a.924.924,0,0,1-.833-.056l-1.031-.618a.971.971,0,0,0-1.186.146l-1.673,1.674a.971.971,0,0,0-.146,1.186l.618,1.03a.93.93,0,0,1,.056.833l0,.009a.928.928,0,0,1-.63.552l-1.165.291a.971.971,0,0,0-.736.942v2.367a.971.971,0,0,0,.736.942l1.165.291a.927.927,0,0,1,.63.553l0,.008a.93.93,0,0,1-.056.833l-.618,1.031a.97.97,0,0,0,.146,1.186l1.673,1.673a.97.97,0,0,0,1.186.146l1.031-.618a.93.93,0,0,1,.833-.056l.009,0a.928.928,0,0,1,.552.629l.291,1.166a.971.971,0,0,0,.942.736h2.367a.971.971,0,0,0,.942-.736l.291-1.165a.928.928,0,0,1,.552-.63l.009,0a.93.93,0,0,1,.833.056l1.031.619a.97.97,0,0,0,1.185-.146l1.674-1.674a.971.971,0,0,0,.146-1.186l-.618-1.03a.93.93,0,0,1-.056-.834l0-.008a.929.929,0,0,1,.63-.553l1.166-.291a.97.97,0,0,0,.735-.942v-2.367a.97.97,0,0,0-.735-.941Z" fill="#817d84"/>
          </g>
          <g id="Grupo_5223" data-name="Grupo 5223">
            <path id="Trazado_9353" data-name="Trazado 9353" d="M1659.042,320.379h9.7v11.48h-9.7Z" fill="#f6e2c1"/>
            <path id="Trazado_9354" data-name="Trazado 9354" d="M1666.048,320.379h2.7v11.48h-2.7Z" fill="#f2d0ac"/>
            <path id="Trazado_9355" data-name="Trazado 9355" d="M1659.042,324.1l-4.851,1.941,3.437,8.591a.969.969,0,0,0,1.438.447l4.826-3.217Z" fill="#edf6ff"/>
            <path id="Trazado_9356" data-name="Trazado 9356" d="M1668.743,324.1l4.851,1.941-3.437,8.591a.97.97,0,0,1-1.439.447l-4.826-3.217Z" fill="#edf6ff"/>
            <g id="Grupo_5222" data-name="Grupo 5222">
              <path id="Trazado_9357" data-name="Trazado 9357" d="M1673.594,304.692h1.94a1.941,1.941,0,0,1,1.941,1.94v3.881a1.94,1.94,0,0,1-1.941,1.94h-23.283a1.941,1.941,0,0,1-1.941-1.94v-3.881a1.941,1.941,0,0,1,1.941-1.94h21.343Z" fill="#f6e2c1"/>
              <path id="Trazado_9358" data-name="Trazado 9358" d="M1663.892,297.62l-9.7,5.835v9a9.7,9.7,0,1,0,19.4,0v-9Z" fill="#f6e2c1"/>
            </g>
            <path id="Trazado_9359" data-name="Trazado 9359" d="M1670.8,324.918l-3.645,9.113,1.568,1.045a.969.969,0,0,0,1.438-.447l3.437-8.591Z" fill="#d8e2f3"/>
          </g>
          <g id="Grupo_5225" data-name="Grupo 5225">
            <path id="Trazado_9360" data-name="Trazado 9360" d="M1669.216,295.413a5.825,5.825,0,1,0-10.635,0v1.5h10.552Z" fill="#ffe07d"/>
            <g id="Grupo_5224" data-name="Grupo 5224">
              <path id="Trazado_9361" data-name="Trazado 9361" d="M1654.191,308.564h0v0Z" fill="#d2a677"/>
              <path id="Trazado_9362" data-name="Trazado 9362" d="M1666.81,294.975h-5.824a6.8,6.8,0,0,0-6.795,6.795v5.136a.177.177,0,0,0,.339.07,3.884,3.884,0,0,1,3.544-2.294h5.824a5.814,5.814,0,0,0,4.647-2.315.951.951,0,0,1,.589-.379.9.9,0,0,1,.967.485,3.883,3.883,0,0,0,3.5,2.209V301.77a6.8,6.8,0,0,0-6.795-6.795Z" fill="#ffe07d"/>
            </g>
          </g>
          <path id="Trazado_9363" data-name="Trazado 9363" d="M1688.2,305.42h1.875v-1.875a2.813,2.813,0,0,0,0-5.625H1688.2a.938.938,0,1,1,0-1.875h2.812v.938h1.875V294.17h-2.812V292.3H1688.2v1.875a2.813,2.813,0,1,0,0,5.625h1.875a.938.938,0,0,1,0,1.875h-2.813v-.937h-1.875v2.812h2.813Z"/>
        </g>
        <g id="Grupo_5227" data-name="Grupo 5227">
          <path id="Trazado_9364" data-name="Trazado 9364" d="M1675.546,325.156h-1.773l-4.143-1.658v-2.157a10.594,10.594,0,0,0,4.816-8.017h1.1a2.823,2.823,0,0,0,2.82-2.82v-3.883a2.823,2.823,0,0,0-2.82-2.82h-1.063v-2.034a7.68,7.68,0,0,0-4.163-6.82,6.7,6.7,0,0,0-9.513-7.866.879.879,0,1,0,.812,1.559,4.886,4.886,0,0,1,2.278-.554,4.947,4.947,0,0,1,4.775,6.237,7.673,7.673,0,0,0-1.863-.23h-5.824a7.687,7.687,0,0,0-1.863.23,4.94,4.94,0,0,1-.17-1.292,4.891,4.891,0,0,1,.552-2.273.879.879,0,1,0-1.561-.809,6.708,6.708,0,0,0-.469,5,7.681,7.681,0,0,0-4.163,6.82V303.8h-1.062a2.825,2.825,0,0,0-2.821,2.821V310.5a2.824,2.824,0,0,0,2.821,2.82h1.1a10.592,10.592,0,0,0,4.817,8.016V323.5l-4.144,1.658h-1.772a8.654,8.654,0,0,0-8.645,8.644v10.678a1.852,1.852,0,0,0,1.85,1.85h1.135a.879.879,0,1,0,0-1.758h-1.135a.092.092,0,0,1-.092-.092V333.8a6.894,6.894,0,0,1,6.887-6.886h1.346l.8,2.01-2.56,5.6a1.843,1.843,0,0,0,.855,2.423l1.308.654a.082.082,0,0,1,.051.082.081.081,0,0,1-.051.082l-.942.471a1.85,1.85,0,0,0-.48,2.962l3.371,3.372H1650.1a.879.879,0,1,0,0,1.758h32.237a1.852,1.852,0,0,0,1.849-1.85V333.8a8.654,8.654,0,0,0-8.644-8.644Zm-2.54,14.182.942.47a.092.092,0,0,1,.05.068.091.091,0,0,1-.026.08l-4.615,4.614h-1.588l.759-8.6a1.845,1.845,0,0,0,.734.154,1.866,1.866,0,0,0,.551-.084,1.837,1.837,0,0,0,1.168-1.079l1.512-3.779,1.863,4.076a.09.09,0,0,1-.042.12l-1.308.654a1.85,1.85,0,0,0,0,3.309Zm-3.656-5.033a.093.093,0,0,1-.137.042l-.945-.63-.006,0-3.167-2.112,4.012-6.419,3.355,1.342Zm7.258-27.684V310.5a1.063,1.063,0,0,1-1.062,1.062h-1.063v-6.008h1.063A1.064,1.064,0,0,1,1676.608,306.621Zm-15.623-10.77h5.824a5.923,5.923,0,0,1,5.916,5.916v1.9a3.011,3.011,0,0,1-2.125-2.873v-1.941a.878.878,0,1,0-1.757,0,4.951,4.951,0,0,1-4.946,4.945h-5.824a4.738,4.738,0,0,0-3,1.071v-3.1a5.923,5.923,0,0,1,5.916-5.916Zm-9.8,14.653v-3.883a1.064,1.064,0,0,1,1.063-1.063h1.062v6.008h-1.063A1.064,1.064,0,0,1,1651.186,310.5Zm3.883,1.941v-3.886a3.008,3.008,0,0,1,3-3h5.824a6.7,6.7,0,0,0,5.4-2.736,4.779,4.779,0,0,0,3.429,2.654v6.969a8.828,8.828,0,0,1-17.656,0Zm8.828,10.586a10.536,10.536,0,0,0,3.975-.775v1.585l-3.975,6.36-3.975-6.36v-1.585A10.536,10.536,0,0,0,1663.9,323.031Zm-5.209,2.151,4.012,6.419-3.171,2.114-.005,0-.943.629a.087.087,0,0,1-.078.011.086.086,0,0,1-.058-.053l-3.113-7.78Zm-4.865,14.774a.085.085,0,0,1-.026-.08.087.087,0,0,1,.049-.068l.942-.471a1.849,1.849,0,0,0,0-3.308l-1.308-.654a.091.091,0,0,1-.042-.12l1.863-4.076,1.512,3.779a1.839,1.839,0,0,0,1.168,1.079,1.866,1.866,0,0,0,.551.084,1.833,1.833,0,0,0,.739-.157l.791,8.606h-1.625Zm8,4.614-.889-9.681,2.959-1.973,2.962,1.974-.854,9.68Zm20.513,0h-10.5l3.372-3.372a1.849,1.849,0,0,0-.481-2.962l-.942-.471a.092.092,0,0,1,0-.164l1.308-.654a1.842,1.842,0,0,0,.855-2.423l-2.56-5.6.8-2.009h1.347a6.9,6.9,0,0,1,6.886,6.887v10.678a.092.092,0,0,1-.092.092Z"/>
          <path id="Trazado_9365" data-name="Trazado 9365" d="M1660.893,310.5v-.97a.879.879,0,1,0-1.758,0v.97a.879.879,0,1,0,1.758,0Z"/>
          <path id="Trazado_9366" data-name="Trazado 9366" d="M1667.78,311.382a.879.879,0,0,0,.879-.879v-.97a.879.879,0,0,0-1.758,0v.97A.879.879,0,0,0,1667.78,311.382Z"/>
          <path id="Trazado_9367" data-name="Trazado 9367" d="M1667.143,316.061a.879.879,0,1,0-1.522-.88,2.033,2.033,0,0,1-3.523,0,.879.879,0,1,0-1.521.881,3.792,3.792,0,0,0,6.566,0Z"/>
          <path id="Trazado_9368" data-name="Trazado 9368" d="M1698.321,295.877l-1.184-.3-.029-.069.628-1.046a1.849,1.849,0,0,0-.278-2.26l-1.674-1.673a1.846,1.846,0,0,0-2.259-.278l-1.047.627-.069-.028-.3-1.184a1.849,1.849,0,0,0-1.8-1.4h-2.367a1.847,1.847,0,0,0-1.794,1.4l-.3,1.184-.069.028-1.047-.627a1.846,1.846,0,0,0-2.259.278l-1.674,1.673a1.849,1.849,0,0,0-.278,2.26l.628,1.046-.028.069-1.184.3a1.846,1.846,0,0,0-1.4,1.794v2.367a1.847,1.847,0,0,0,1.4,1.8l1.184.3.028.069-.628,1.046a1.847,1.847,0,0,0,.278,2.259l1.674,1.674a1.847,1.847,0,0,0,2.26.278l1.046-.628.069.029.3,1.184a1.847,1.847,0,0,0,1.794,1.4h2.367a1.847,1.847,0,0,0,1.794-1.4l.3-1.184.069-.029,1.047.628a1.846,1.846,0,0,0,2.259-.278l1.674-1.674a1.847,1.847,0,0,0,.278-2.259l-.628-1.046.028-.069,1.184-.3a1.847,1.847,0,0,0,1.4-1.8v-2.366a1.846,1.846,0,0,0-1.4-1.795Zm-.357,4.162a.093.093,0,0,1-.07.089l-1.631.407a.878.878,0,0,0-.617.566,6.909,6.909,0,0,1-.318.769.881.881,0,0,0,.036.838l.865,1.44a.092.092,0,0,1-.014.112l-1.674,1.674a.091.091,0,0,1-.112.014l-1.441-.864a.879.879,0,0,0-.837-.037,6.978,6.978,0,0,1-.769.318.878.878,0,0,0-.566.618l-.408,1.63a.091.091,0,0,1-.089.07h-2.367a.092.092,0,0,1-.089-.07l-.408-1.63a.878.878,0,0,0-.566-.618,6.988,6.988,0,0,1-.769-.318.886.886,0,0,0-.385-.089.869.869,0,0,0-.452.126l-1.441.864a.092.092,0,0,1-.112-.014l-1.674-1.674a.094.094,0,0,1-.014-.112l.865-1.44a.878.878,0,0,0,.036-.838,6.8,6.8,0,0,1-.317-.769.88.88,0,0,0-.618-.566l-1.631-.408a.091.091,0,0,1-.07-.089v-2.366a.091.091,0,0,1,.07-.089l1.631-.408a.882.882,0,0,0,.618-.566,6.723,6.723,0,0,1,.317-.769.878.878,0,0,0-.036-.838l-.865-1.44a.092.092,0,0,1,.014-.112l1.674-1.674a.092.092,0,0,1,.112-.014l1.44.864a.879.879,0,0,0,.838.037,6.994,6.994,0,0,1,.769-.318.878.878,0,0,0,.566-.618l.408-1.63a.092.092,0,0,1,.089-.07h2.367a.092.092,0,0,1,.089.07l.408,1.63a.878.878,0,0,0,.566.618,6.984,6.984,0,0,1,.769.318.879.879,0,0,0,.837-.037l1.441-.864a.091.091,0,0,1,.112.014l1.673,1.674a.091.091,0,0,1,.014.112l-.864,1.44a.879.879,0,0,0-.036.838,6.9,6.9,0,0,1,.317.769.88.88,0,0,0,.618.566l1.631.408a.09.09,0,0,1,.069.089v2.367Z"/>
        </g>
      </g>
    </g>
  </g>
</svg>
