<svg xmlns="http://www.w3.org/2000/svg" width="77.809" height="94.752" viewBox="0 0 77.809 94.752">
  <g id="Grupo_10163" data-name="Grupo 10163" transform="translate(-251 -1223)">
    <path id="Trazado_9519" data-name="Trazado 9519" d="M2568.606,551.813h-70.832a1.81,1.81,0,0,1-1.81-1.81V462.229a1.81,1.81,0,0,1,1.81-1.81h70.832a1.809,1.809,0,0,1,1.809,1.81V550A1.809,1.809,0,0,1,2568.606,551.813Z" transform="translate(-2243.285 764.26)" fill="#ecf4ff"/>
    <path id="Trazado_9520" data-name="Trazado 9520" d="M2803.551,460.419h-4.885a1.809,1.809,0,0,1,1.81,1.81V550a1.809,1.809,0,0,1-1.81,1.81h4.885a1.81,1.81,0,0,0,1.81-1.81V462.229A1.81,1.81,0,0,0,2803.551,460.419Z" transform="translate(-2478.231 764.26)" fill="#ddeafb"/>
    <path id="Trazado_9521" data-name="Trazado 9521" d="M2546.7,758.714h-10.466a1.23,1.23,0,0,1-1.23-1.23V741.443a1.23,1.23,0,0,1,1.23-1.23H2546.7a1.23,1.23,0,0,1,1.23,1.23v16.041A1.23,1.23,0,0,1,2546.7,758.714Z" transform="translate(-2273.587 547.095)" fill="#78c2a4"/>
    <path id="Trazado_9522" data-name="Trazado 9522" d="M2573.7,740.212h-3.91a1.23,1.23,0,0,1,1.23,1.23v16.041a1.23,1.23,0,0,1-1.23,1.23h3.91a1.23,1.23,0,0,0,1.23-1.23V741.442a1.23,1.23,0,0,0-1.23-1.23Z" transform="translate(-2300.586 547.096)" fill="#66b394"/>
    <path id="Trazado_9523" data-name="Trazado 9523" d="M2645.091,743.191h-10.465a1.23,1.23,0,0,1-1.23-1.23V721.443a1.23,1.23,0,0,1,1.23-1.23h10.465a1.23,1.23,0,0,1,1.23,1.23v20.517A1.23,1.23,0,0,1,2645.091,743.191Z" transform="translate(-2349.954 562.618)" fill="#f6e266"/>
    <path id="Trazado_9524" data-name="Trazado 9524" d="M2672.089,720.212h-3.91a1.23,1.23,0,0,1,1.23,1.23V741.96a1.23,1.23,0,0,1-1.23,1.23h3.91a1.23,1.23,0,0,0,1.23-1.23V721.442a1.23,1.23,0,0,0-1.23-1.23Z" transform="translate(-2376.951 562.619)" fill="#ecbe6b"/>
    <path id="Trazado_9525" data-name="Trazado 9525" d="M2743.48,712.144h-10.466a1.23,1.23,0,0,1-1.23-1.23V681.443a1.23,1.23,0,0,1,1.23-1.23h10.466a1.23,1.23,0,0,1,1.23,1.23v29.471A1.23,1.23,0,0,1,2743.48,712.144Z" transform="translate(-2426.319 593.664)" fill="#dd636e"/>
    <path id="Trazado_9526" data-name="Trazado 9526" d="M2770.479,680.212h-3.91a1.23,1.23,0,0,1,1.23,1.23v29.471a1.23,1.23,0,0,1-1.23,1.23h3.91a1.23,1.23,0,0,0,1.23-1.23V681.442a1.23,1.23,0,0,0-1.23-1.23Z" transform="translate(-2453.318 593.665)" fill="#c63d4f"/>
    <path id="Trazado_9527" data-name="Trazado 9527" d="M2542.756,505.123c-.232-.082-.468-.167-.7-.254V500.11a8.145,8.145,0,0,1,2.035.609,1.679,1.679,0,0,0,1.5-3,11.385,11.385,0,0,0-3.534-.987v-.6a1.679,1.679,0,0,0-3.358,0v.833c-.058.016-.116.031-.175.049a5.291,5.291,0,0,0-3.629,4.146,4.716,4.716,0,0,0,1.564,4.644,11.221,11.221,0,0,0,2.24,1.321v6.16a4.734,4.734,0,0,1-1.791-.817,1.679,1.679,0,0,0-1.838,2.81,7.586,7.586,0,0,0,3.628,1.391v.811a1.679,1.679,0,1,0,3.357,0V516.5a6.362,6.362,0,0,0,4.514-5.032,5.607,5.607,0,0,0-3.81-6.345Zm-4.229-1.966a1.431,1.431,0,0,1-.337-1.38,2.2,2.2,0,0,1,.5-1.036v2.541C2538.637,503.241,2538.58,503.2,2538.527,503.157Zm4.729,7.754a3.016,3.016,0,0,1-1.2,1.93V508.47A2.2,2.2,0,0,1,2543.255,510.911Z" transform="translate(-2273.045 737.846)"/>
    <path id="Trazado_9528" data-name="Trazado 9528" d="M2698.7,502.69a1.679,1.679,0,0,0,0-3.358H2679.14a1.679,1.679,0,1,0,0,3.358Z" transform="translate(-2384.156 734.057)"/>
    <path id="Trazado_9529" data-name="Trazado 9529" d="M2647.461,537.611a1.679,1.679,0,0,0,1.679,1.679h26.28a1.679,1.679,0,0,0,0-3.358h-26.28A1.679,1.679,0,0,0,2647.461,537.611Z" transform="translate(-2360.871 705.649)"/>
    <path id="Trazado_9530" data-name="Trazado 9530" d="M2649.14,575.888h26.28a1.679,1.679,0,0,0,0-3.358h-26.28a1.679,1.679,0,0,0,0,3.358Z" transform="translate(-2360.871 677.244)"/>
    <path id="Trazado_9531" data-name="Trazado 9531" d="M2530.413,732.713a2.912,2.912,0,0,0-2.909,2.909v16.041a2.912,2.912,0,0,0,2.909,2.909h10.466a2.912,2.912,0,0,0,2.909-2.909V735.622a2.912,2.912,0,0,0-2.909-2.909Zm10.017,18.5h-9.568V736.071h9.568Z" transform="translate(-2267.765 552.916)"/>
    <path id="Trazado_9532" data-name="Trazado 9532" d="M2625.894,715.622v20.517a2.912,2.912,0,0,0,2.909,2.909h10.466a2.912,2.912,0,0,0,2.909-2.909V715.622a2.912,2.912,0,0,0-2.909-2.909H2628.8A2.912,2.912,0,0,0,2625.894,715.622Zm3.358.448h9.569v19.62h-9.569Z" transform="translate(-2344.132 568.439)"/>
    <path id="Trazado_9533" data-name="Trazado 9533" d="M2738.889,693.157a1.679,1.679,0,0,0,1.679-1.679V675.622a2.912,2.912,0,0,0-2.909-2.909h-10.466a2.913,2.913,0,0,0-2.909,2.909v29.471a2.912,2.912,0,0,0,2.909,2.909h10.466a2.912,2.912,0,0,0,2.909-2.909v-6.9a1.679,1.679,0,1,0-3.357,0v6.454h-9.569V676.071h9.569v15.408a1.679,1.679,0,0,0,1.678,1.679Z" transform="translate(-2420.498 599.485)"/>
    <path id="Trazado_9534" data-name="Trazado 9534" d="M2593.836,657.1a1.092,1.092,0,0,1-.152-.123q-1.658-1.849-3.313-3.7c-.378-.422-.76-.841-1.135-1.267a.742.742,0,0,0-.513-.274c-.158-.013-.277-.077-.283-.254s.114-.251.264-.283c.769-.163,1.538-.326,2.309-.479a.269.269,0,0,1,.212.077q1.7,1.9,3.392,3.812a.305.305,0,0,1,.075.131c.138.655.275,1.311.4,1.968a.162.162,0,0,1-.071.139C2594.642,656.932,2594.256,657.009,2593.836,657.1Z" transform="translate(-2315.061 616.561)" fill="red"/>
    <path id="Trazado_9535" data-name="Trazado 9535" d="M2704.272,633.026a4.537,4.537,0,0,1,.007-.493c.005-.047.08-.109.134-.123.244-.06.491-.106.737-.157.061-.013.122-.029.208-.05-.034-.088-.057-.159-.087-.226-.505-1.114-1.007-2.229-1.522-3.338a1.017,1.017,0,0,1-.082-.617.221.221,0,0,1,.135-.148c.566-.125,1.135-.235,1.7-.357.135-.029.165.052.207.143q1.117,2.4,2.237,4.8a6.518,6.518,0,0,0,.315.64.642.642,0,0,0,.283.233c.139.06.3.08.29.276s-.173.227-.317.257c-.624.133-1.248.26-1.873.389-.2.041-.391.082-.587.117a.279.279,0,0,1-.335-.126.249.249,0,0,1,.1-.336.362.362,0,0,0,.1-.5,4.436,4.436,0,0,1-.2-.459c-.058-.174-.159-.2-.323-.161C2705.037,632.875,2704.671,632.944,2704.272,633.026Z" transform="translate(-2404.484 634.569)" fill="red"/>
    <path id="Trazado_9536" data-name="Trazado 9536" d="M2569.694,660.8a3.693,3.693,0,0,1,.007-.475.223.223,0,0,1,.143-.14c.237-.06.479-.1.718-.151.068-.014.135-.035.223-.059-.032-.081-.055-.146-.083-.208-.516-1.137-1.041-2.27-1.542-3.413a1.738,1.738,0,0,1-.064-.6c0-.033.068-.09.113-.1.572-.126,1.147-.242,1.719-.367.15-.033.173.074.215.164q.673,1.443,1.345,2.888c.362.776.725,1.551,1.084,2.328.109.235.226.443.521.489.065.01.15.128.159.2a.284.284,0,0,1-.127.209.837.837,0,0,1-.291.1q-1.135.238-2.27.468a.409.409,0,0,1-.209.013.389.389,0,0,1-.212-.16.254.254,0,0,1,.051-.237c.288-.214.217-.449.09-.715-.245-.514-.238-.516-.79-.395C2570.237,660.689,2569.979,660.738,2569.694,660.8Z" transform="translate(-2300.046 613.019)" fill="red"/>
    <path id="Trazado_9537" data-name="Trazado 9537" d="M2672.764,640.556c-.083-.066-.2-.115-.242-.2a.22.22,0,0,1,.115-.31c.266-.12.267-.316.216-.561q-.491-2.334-.965-4.671c-.052-.255-.124-.456-.436-.465a.208.208,0,0,1-.217-.243.362.362,0,0,1,.2-.243c.282-.088.574-.141.864-.2.567-.118,1.135-.233,1.7-.349a1.009,1.009,0,0,1,.134-.022c.155-.01.309,0,.361.181s-.064.257-.2.328c-.294.154-.317.2-.248.537q.561,2.723,1.124,5.446c.05.242.051.245-.2.3q-1,.21-2,.416c-.057.012-.115.016-.172.024Z" transform="translate(-2379.321 630.085)" fill="red"/>
    <path id="Trazado_9538" data-name="Trazado 9538" d="M2647.432,639.01c.074.351.146.682.214,1.014.374,1.809.745,3.619,1.124,5.427.038.182.018.256-.187.293-.665.121-1.325.268-1.988.406-.038.008-.075.019-.114.024-.146.018-.3.024-.362-.142a.267.267,0,0,1,.169-.361c.224-.106.208-.285.169-.476q-.308-1.495-.618-2.988c-.127-.618-.258-1.235-.384-1.853-.037-.181-.113-.312-.321-.325-.171-.01-.31-.076-.311-.272s.156-.24.3-.272c.516-.112,1.034-.215,1.552-.321Z" transform="translate(-2358.824 625.645)" fill="red"/>
    <path id="Trazado_9539" data-name="Trazado 9539" d="M2725.66,622.887c.462,2.236.919,4.446,1.381,6.68-.374.079-.73.156-1.087.231s-.731.153-1.1.224a.826.826,0,0,1-.305.024c-.076-.015-.183-.081-.2-.143a.562.562,0,0,1,.058-.28c.01-.03.056-.053.091-.068.208-.09.229-.252.188-.449-.123-.586-.242-1.172-.363-1.759q-.306-1.484-.614-2.969c-.017-.082-.038-.163-.061-.244a.272.272,0,0,0-.258-.222c-.044,0-.1,0-.13-.026-.079-.072-.19-.153-.2-.24a.3.3,0,0,1,.168-.237,8.125,8.125,0,0,1,.807-.19C2724.566,623.111,2725.095,623,2725.66,622.887Z" transform="translate(-2419.549 638.159)" fill="red"/>
    <path id="Trazado_9540" data-name="Trazado 9540" d="M2622.312,643.9c.033.159.072.314.093.471a.167.167,0,0,1-.07.133.682.682,0,0,0-.323.748c.036.267.095.532.149.8q.368,1.787.74,3.573c.073.347.236.612.638.64a.161.161,0,0,1,.105.106c.107.521.2.494-.368.526a2.615,2.615,0,0,1-2.547-1.367,4.532,4.532,0,0,1-.562-3.422,2.883,2.883,0,0,1,1.9-2.168,1.008,1.008,0,0,1,.15-.037A.62.62,0,0,1,2622.312,643.9Z" transform="translate(-2339.591 621.848)" fill="red"/>
    <path id="Trazado_9541" data-name="Trazado 9541" d="M2537.986,661.206c.038.185.079.346.1.51.005.039-.046.1-.088.126a.611.611,0,0,0-.312.62c.037.325.1.648.165.969.232,1.141.472,2.281.706,3.422.079.384.216.707.679.739.031,0,.071.05.085.085.177.45.133.519-.344.542a2.7,2.7,0,0,1-2.735-1.668,4.461,4.461,0,0,1-.32-3.4,2.879,2.879,0,0,1,1.691-1.847A3.14,3.14,0,0,1,2537.986,661.206Z" transform="translate(-2274.142 608.417)" fill="red"/>
    <path id="Trazado_9542" data-name="Trazado 9542" d="M2765.224,615.8a2.6,2.6,0,0,1,1.678.263,3.019,3.019,0,0,1,1.294,1.263,4.721,4.721,0,0,1,.547,3.1,2.866,2.866,0,0,1-2.1,2.3c-.031-.148-.066-.295-.09-.443a.118.118,0,0,1,.048-.094.668.668,0,0,0,.242-.758c-.056-.349-.134-.7-.205-1.042q-.34-1.655-.684-3.309a1.283,1.283,0,0,0-.113-.387c-.071-.121-.176-.274-.294-.306-.233-.061-.279-.21-.3-.4C2765.24,615.924,2765.233,615.869,2765.224,615.8Z" transform="translate(-2452.274 643.691)" fill="red"/>
    <path id="Trazado_9543" data-name="Trazado 9543" d="M2755.782,616.324c.034.157.068.281.084.407a.186.186,0,0,1-.052.149.681.681,0,0,0-.229.78q.179.86.357,1.721c.175.845.346,1.69.525,2.534a1.8,1.8,0,0,0,.153.5.642.642,0,0,0,.31.288.278.278,0,0,1,.229.259c.011.094.033.187.053.3a2.679,2.679,0,0,1-1.328-.117,2.835,2.835,0,0,1-1.532-1.209,4.54,4.54,0,0,1-.636-3.353,2.761,2.761,0,0,1,1.765-2.159C2755.57,616.38,2755.664,616.359,2755.782,616.324Z" transform="translate(-2443.273 643.252)" fill="red"/>
    <path id="Trazado_9544" data-name="Trazado 9544" d="M2736.733,622.209a2.3,2.3,0,0,1,1.69.169,2.96,2.96,0,0,1,1.5,1.669,4.228,4.228,0,0,1,.2,2.98,2.533,2.533,0,0,1-1.778,1.8c-.172.047-.251.022-.286-.171s-.044-.313.158-.424a.529.529,0,0,0,.2-.6c-.06-.368-.139-.733-.214-1.1-.2-1-.408-1.992-.62-2.986a2.472,2.472,0,0,0-.184-.525.522.522,0,0,0-.425-.3.251.251,0,0,1-.159-.141A2.432,2.432,0,0,1,2736.733,622.209Z" transform="translate(-2430.16 638.755)" fill="red"/>
    <path id="Trazado_9545" data-name="Trazado 9545" d="M2692.375,641.029a1.393,1.393,0,0,0,.749-1.34c.061-1.26.155-2.519.236-3.778a.5.5,0,0,1,.046-.192c.143.355.436.641.4,1.069-.072.982-.129,1.966-.19,2.948a2.45,2.45,0,0,0-.007.328.487.487,0,0,0,.417.487c.17.041.372.061.372.291s-.217.242-.38.279c-.383.086-.768.168-1.155.235a1.53,1.53,0,0,1-.357-.013,1.086,1.086,0,0,1-.253.14c-.5.11-1,.206-1.494.314-.132.029-.2,0-.206-.139a.48.48,0,0,0-.028-.132c-.06-.161-.014-.25.15-.325a1.576,1.576,0,0,0,.8-1.287c.032-.157.044-.319.067-.478a.251.251,0,0,1,.246-.25c.158-.008.207.1.234.232.1.472.2.945.3,1.417C2692.342,640.9,2692.36,640.967,2692.375,641.029Z" transform="translate(-2394.28 628.198)" fill="red"/>
    <path id="Trazado_9546" data-name="Trazado 9546" d="M2565.419,663.5a2.555,2.555,0,0,1,.375,1.255c-.1.9-.129,1.811-.186,2.717a3.227,3.227,0,0,0-.01.367.484.484,0,0,0,.391.487c.019.006.037.011.056.015.168.036.354.071.344.293s-.213.233-.372.269c-.345.077-.694.145-1.041.216-.031.006-.063.015-.095.019-.173.018-.367.066-.456-.142s.1-.287.22-.378a1.021,1.021,0,0,0,.425-.79c.07-.97.131-1.94.2-2.911q.047-.7.093-1.4Z" transform="translate(-2296.406 606.638)" fill="red"/>
    <path id="Trazado_9547" data-name="Trazado 9547" d="M2593.145,660.609c.22.315.589.5.665.945.132.761.313,1.513.461,2.271a1.064,1.064,0,0,0,.8.937.254.254,0,0,1,.226.252c0,.162-.12.223-.25.251-.447.1-.9.188-1.343.278a.321.321,0,0,1-.172,0c-.072-.029-.171-.072-.19-.131s.026-.163.047-.245c0-.016.025-.029.04-.041a1.072,1.072,0,0,0,.347-1.168c-.158-.736-.306-1.475-.458-2.213-.064-.315-.13-.631-.195-.946-.011-.054-.016-.109-.023-.164Z" transform="translate(-2318.678 608.88)" fill="red"/>
    <path id="Trazado_9548" data-name="Trazado 9548" d="M2632.012,642.189c.215.011.406.015.6.032s.4.047.595.069a.287.287,0,0,0,.348-.23.273.273,0,0,1,.3-.24c.167.013.217.14.246.28.136.656.273,1.311.407,1.967a.363.363,0,0,1,.011.208c-.048.094-.118.212-.205.24a.33.33,0,0,1-.274-.109,2.589,2.589,0,0,1-.244-.415,2.555,2.555,0,0,0-.87-.966,2.275,2.275,0,0,0-.641-.241c-.122-.03-.179-.066-.2-.186S2632.042,642.347,2632.012,642.189Z" transform="translate(-2348.88 623.463)" fill="red"/>
    <path id="Trazado_9549" data-name="Trazado 9549" d="M2547.707,659.582c.213.013.4.019.58.035.211.019.422.052.633.071a.275.275,0,0,0,.32-.216c.044-.161.131-.268.311-.253s.219.157.249.3q.2.973.4,1.946c.011.056.038.126.016.17a.634.634,0,0,1-.192.277c-.116.068-.238,0-.309-.12-.132-.22-.25-.451-.393-.663a2.331,2.331,0,0,0-.9-.827,1.183,1.183,0,0,0-.421-.121c-.147-.01-.206-.066-.223-.2C2547.764,659.859,2547.737,659.742,2547.707,659.582Z" transform="translate(-2283.446 609.96)" fill="red"/>
    <path id="Trazado_9550" data-name="Trazado 9550" d="M2608.747,651.477c-.19-.209-.383-.414-.566-.629a.452.452,0,0,1-.074-.194q-.137-.632-.265-1.266a.98.98,0,0,0-.747-.842.26.26,0,0,1-.227-.272c.006-.161.128-.213.259-.241q.661-.142,1.324-.274a.341.341,0,0,1,.19,0,.36.36,0,0,1,.194.156c.025.068-.023.164-.049.245-.008.027-.043.047-.068.066a1,1,0,0,0-.366,1.083c.132.623.258,1.247.386,1.871.019.093.036.186.054.28Z" transform="translate(-2329.364 618.865)" fill="red"/>
    <path id="Trazado_9551" data-name="Trazado 9551" d="M2666.462,659.519l-1.523.317c-.051.011-.1.019-.152.03-.372.082-.426.041-.436-.35a.184.184,0,0,1,.1-.134,1.821,1.821,0,0,0,1.126-1.523c.007-.051.019-.1.029-.151a.239.239,0,0,1,.232-.218c.146-.009.212.086.238.206C2666.2,658.292,2666.328,658.889,2666.462,659.519Z" transform="translate(-2373.98 611.303)" fill="red"/>
    <path id="Trazado_9552" data-name="Trazado 9552" d="M2520.095,650.5c-.034-.039-.124-.1-.152-.18a4.351,4.351,0,0,1-.109-.489c-.033-.147.084-.136.164-.153q.973-.205,1.947-.4l2.534-.52c.031-.007.063-.015.094-.02.14-.023.25.022.281.166s-.054.243-.2.274l-1.494.308q-1.333.275-2.667.547c-.113.023-.143.073-.129.187C2520.385,650.394,2520.3,650.5,2520.095,650.5Z" transform="translate(-2261.807 618.102)" fill="red"/>
    <path id="Trazado_9553" data-name="Trazado 9553" d="M2658.566,637.177l1.953-.4c.1.483.2.941.291,1.4.024.12.052.239.07.36s0,.234-.137.282a.243.243,0,0,1-.311-.115,3.968,3.968,0,0,0-.42-.549,1.4,1.4,0,0,0-1.1-.417c-.19.009-.273-.049-.285-.235A3,3,0,0,0,2658.566,637.177Z" transform="translate(-2369.49 627.378)" fill="red"/>
    <path id="Trazado_9554" data-name="Trazado 9554" d="M2657.583,621.194c.065.073.162.135.187.22.039.131-.053.22-.181.249-.283.064-.567.121-.851.179l-3.579.736c-.038.008-.075.019-.114.024a.214.214,0,0,1-.269-.184.207.207,0,0,1,.185-.251c.29-.063.58-.123.87-.183l3.521-.728c.063-.013.127-.02.191-.03Z" transform="translate(-2364.993 639.473)" fill="red"/>
    <path id="Trazado_9555" data-name="Trazado 9555" d="M2774.52,657.091c-.047-.057-.141-.123-.166-.21-.037-.131.053-.219.183-.247.371-.08.744-.156,1.116-.233.946-.2,1.893-.388,2.838-.591a.422.422,0,0,0,.209-.159c.1-.122.274-.168.341-.046a1.655,1.655,0,0,1,.133.473c0,.017-.083.067-.133.078q-1.664.349-3.33.692l-.984.2Z" transform="translate(-2459.354 612.82)" fill="red"/>
    <path id="Trazado_9556" data-name="Trazado 9556" d="M2615.145,690.557c-.061-.075-.152-.142-.176-.228-.037-.133.058-.218.185-.247.244-.055.491-.1.736-.154l3.724-.767c.2-.041.332.018.348.166.021.184-.1.24-.256.272q-2.183.45-4.366.9c-.05.011-.1.016-.152.024Z" transform="translate(-2335.646 586.729)" fill="red"/>
    <path id="Trazado_9557" data-name="Trazado 9557" d="M2732.67,606.294c-.067-.071-.168-.133-.192-.216-.044-.155.068-.235.209-.265.39-.083.781-.161,1.172-.242l3.251-.67.038-.009c.15-.034.281-.007.318.16s-.067.245-.221.276c-.6.124-1.209.251-1.814.377l-2.476.512c-.082.017-.164.032-.246.047Z" transform="translate(-2426.851 652.135)" fill="red"/>
    <path id="Trazado_9558" data-name="Trazado 9558" d="M2593.4,694.755c0,.214-.1.277-.231.3l-1.931.4-2.424.5c-.044.009-.088.022-.132.028-.138.018-.251-.021-.281-.168s.056-.242.2-.273q.539-.114,1.079-.226l3.314-.682a.413.413,0,0,1,.208-.019A.829.829,0,0,1,2593.4,694.755Z" transform="translate(-2315.029 582.492)" fill="red"/>
    <path id="Trazado_9559" data-name="Trazado 9559" d="M2562.064,701.5c-.045-.047-.152-.108-.163-.183s.064-.174.117-.251c.019-.028.083-.026.127-.036l4.347-.9.057-.01c.151-.026.291-.022.337.162.035.141-.063.241-.267.283l-.7.144-3.687.759Z" transform="translate(-2294.462 578.226)" fill="red"/>
    <path id="Trazado_9560" data-name="Trazado 9560" d="M2679.541,617.274c-.066-.073-.166-.135-.192-.22-.042-.14.053-.231.191-.26q.548-.118,1.1-.23l3.258-.67c.063-.013.126-.027.19-.034a.209.209,0,0,1,.256.177c.027.149-.065.231-.2.261-.258.058-.517.109-.776.162l-3.655.753-.133.026Z" transform="translate(-2385.614 643.614)" fill="red"/>
    <path id="Trazado_9561" data-name="Trazado 9561" d="M2752.579,661.583c.067.071.168.131.194.214.044.141-.054.23-.191.259-.39.085-.781.165-1.173.246l-3.257.669a.994.994,0,0,1-.114.021.211.211,0,0,1-.257-.177.207.207,0,0,1,.177-.255c.334-.074.668-.143,1-.212l3.37-.7c.069-.014.14-.023.21-.035Z" transform="translate(-2438.732 608.124)" fill="red"/>
    <path id="Trazado_9562" data-name="Trazado 9562" d="M2694.845,674.106c-.066-.072-.162-.135-.191-.219a.187.187,0,0,1,.158-.245c.289-.067.579-.127.869-.187l3.616-.744c.025-.005.05-.011.076-.015a.213.213,0,0,1,.269.159.208.208,0,0,1-.177.272c-.283.064-.567.122-.851.18l-3.6.74-.133.026Z" transform="translate(-2397.492 599.501)" fill="red"/>
    <path id="Trazado_9563" data-name="Trazado 9563" d="M2759.22,600.812c-.063-.074-.16-.139-.183-.224-.036-.13.056-.217.186-.245q.623-.133,1.247-.262c1.077-.223,2.155-.442,3.232-.669.157-.033.271,0,.326.15.046.13-.039.248-.211.283q-2.22.462-4.442.918c-.038.008-.076.011-.114.017Z" transform="translate(-2447.466 656.389)" fill="red"/>
    <path id="Trazado_9564" data-name="Trazado 9564" d="M2641.715,685.053c-.065-.073-.162-.135-.188-.22-.041-.131.053-.22.18-.249.276-.064.553-.12.83-.177l3.573-.734.113-.024c.149-.032.264.017.3.169s-.059.238-.208.268c-.46.095-.919.193-1.379.288l-2.987.615c-.063.013-.127.022-.19.033Z" transform="translate(-2356.257 591.005)" fill="red"/>
    <path id="Trazado_9565" data-name="Trazado 9565" d="M2604.651,632.611a.705.705,0,0,1-.225.151c-.388.094-.781.168-1.172.249l-3.236.667c-.032.006-.063.015-.095.018-.13.015-.237-.023-.267-.161a.208.208,0,0,1,.18-.27c.4-.085.794-.168,1.191-.25q1.637-.338,3.275-.674C2604.526,632.295,2604.657,632.374,2604.651,632.611Z" transform="translate(-2323.761 630.831)" fill="red"/>
    <path id="Trazado_9566" data-name="Trazado 9566" d="M2573.276,639.191c-.065-.073-.161-.137-.187-.222-.039-.13.052-.221.181-.249.378-.082.757-.159,1.135-.237l3.332-.686c.025-.005.05-.011.076-.014a.212.212,0,0,1,.266.163.209.209,0,0,1-.183.268c-.314.07-.629.137-.945.2l-3.408.7c-.076.016-.152.027-.229.04Z" transform="translate(-2303.14 626.599)" fill="red"/>
    <path id="Trazado_9567" data-name="Trazado 9567" d="M2535.441,706.971c-.047-.054-.145-.119-.168-.2-.035-.129.054-.216.186-.245.454-.1.907-.194,1.361-.288l2.935-.6c.063-.013.127-.022.19-.035.148-.031.283-.015.32.156s-.089.25-.242.281l-1.154.24-3.219.661C2535.6,706.944,2535.548,706.952,2535.441,706.971Z" transform="translate(-2273.789 573.975)" fill="red"/>
    <path id="Trazado_9568" data-name="Trazado 9568" d="M2721.417,668.627c-.069-.07-.171-.13-.2-.213-.043-.137.044-.231.186-.261q.689-.145,1.379-.289l2.911-.6c.076-.015.151-.031.227-.044.137-.023.251.012.286.159s-.055.244-.2.275c-.27.06-.541.115-.812.171l-3.649.751-.095.017Z" transform="translate(-2418.111 603.754)" fill="red"/>
    <path id="Trazado_9569" data-name="Trazado 9569" d="M2668.28,679.583c-.064-.073-.158-.137-.186-.222a.188.188,0,0,1,.164-.242c.288-.067.578-.127.869-.187l3.6-.739c.032-.007.063-.015.095-.019a.212.212,0,0,1,.265.165.209.209,0,0,1-.184.268c-.314.07-.629.136-.945.2l-3.407.7c-.076.016-.152.026-.229.039Z" transform="translate(-2376.878 595.249)" fill="red"/>
    <path id="Trazado_9570" data-name="Trazado 9570" d="M2789.613,633.836c-.048.044-.112.152-.187.16s-.17-.073-.245-.13c-.028-.021-.027-.083-.036-.127l-.9-4.352c0-.013,0-.025-.008-.038-.036-.155-.018-.289.16-.338.136-.038.238.057.278.247q.109.52.216,1.04.346,1.674.692,3.349C2789.59,633.692,2789.6,633.737,2789.613,633.836Z" transform="translate(-2470.123 633.412)" fill="red"/>
    <path id="Trazado_9571" data-name="Trazado 9571" d="M2631.222,627.034c-.008.174-.125.219-.259.247l-1.57.325-2.783.571c-.031.006-.063.015-.094.02-.146.026-.264-.013-.294-.172s.057-.23.2-.26c.334-.072.668-.143,1-.212l3.255-.67a2.479,2.479,0,0,1,.3-.052A.2.2,0,0,1,2631.222,627.034Z" transform="translate(-2344.382 635.098)" fill="red"/>
    <path id="Trazado_9572" data-name="Trazado 9572" d="M2710.912,610.614c-.007.137-.1.2-.232.226-.739.152-1.476.307-2.215.46q-1.05.217-2.1.432c-.057.012-.113.026-.171.034-.139.02-.25-.02-.28-.168s.062-.241.206-.272c.227-.05.454-.1.681-.142l3.749-.772C2710.771,610.365,2710.906,610.438,2710.912,610.614Z" transform="translate(-2406.235 647.853)" fill="red"/>
    <path id="Trazado_9573" data-name="Trazado 9573" d="M2784.2,607.3c-.075.063-.15.174-.225.175a.31.31,0,0,1-.235-.166,4.1,4.1,0,0,1-.131-.583c-.268-1.293-.537-2.585-.8-3.879a.444.444,0,0,1,.031-.272.211.211,0,0,1,.191-.081.386.386,0,0,1,.193.207c.079.3.132.6.195.906l.723,3.5c.01.05.018.1.027.152Z" transform="translate(-2465.913 653.988)" fill="red"/>
    <path id="Trazado_9574" data-name="Trazado 9574" d="M2528.488,692.213c-.073.066-.136.165-.221.192-.132.042-.221-.054-.25-.18-.061-.263-.113-.529-.167-.794q-.374-1.807-.746-3.613a1.111,1.111,0,0,1-.029-.171c-.006-.127.058-.231.182-.227a.424.424,0,0,1,.237.145c.039.039.037.12.05.183l.887,4.295c.009.044.017.088.025.133Z" transform="translate(-2267.432 588.071)" fill="red"/>
    <path id="Trazado_9575" data-name="Trazado 9575" d="M2546.717,644.666c-.066-.071-.162-.132-.192-.216-.043-.119.035-.213.156-.247.142-.04.288-.067.433-.1q2.035-.42,4.07-.839c.15-.031.275-.016.328.148.044.133-.04.247-.212.283q-2.214.461-4.428.917c-.038.008-.077.011-.115.016Z" transform="translate(-2282.519 622.351)" fill="red"/>
    <path id="Trazado_9576" data-name="Trazado 9576" d="M2523.016,665.632c-.072.067-.133.166-.218.194-.13.043-.222-.045-.251-.175-.061-.264-.114-.529-.169-.794q-.374-1.806-.746-3.613c0-.019-.008-.038-.012-.057-.039-.2.019-.337.162-.353.185-.021.243.105.275.257q.324,1.57.649,3.14.125.605.249,1.211c.01.05.019.1.029.152Z" transform="translate(-2263.189 608.708)" fill="red"/>
    <path id="Trazado_9577" data-name="Trazado 9577" d="M2662.726,648.956c-.055.062-.1.167-.173.182a.35.35,0,0,1-.269-.075,1.188,1.188,0,0,1-.181-.292.9.9,0,0,0-.6-.471.236.236,0,0,1-.124-.116.915.915,0,0,1-.041-.167.356.356,0,0,1,.124-.452.794.794,0,0,0,.282-.593.742.742,0,0,1,.038-.283.387.387,0,0,1,.226-.186.259.259,0,0,1,.212.14C2662.394,647.4,2662.553,648.158,2662.726,648.956Z" transform="translate(-2371.615 619.83)" fill="red"/>
    <path id="Trazado_9578" data-name="Trazado 9578" d="M2638.158,666.12a3.357,3.357,0,0,1-.092-.475c0-.05.087-.125.15-.156a1.748,1.748,0,0,0,1.043-1.407.344.344,0,0,1,.038-.167c.063-.077.149-.192.224-.19a.412.412,0,0,1,.262.173.438.438,0,0,1,.04.261,2.357,2.357,0,0,1-1.53,1.935C2638.257,666.1,2638.219,666.108,2638.158,666.12Z" transform="translate(-2353.579 606.462)" fill="red"/>
    <path id="Trazado_9579" data-name="Trazado 9579" d="M2553.843,683.458a4.273,4.273,0,0,1-.089-.453.2.2,0,0,1,.094-.152,1.781,1.781,0,0,0,1.109-1.488c.027-.235.126-.328.288-.316a.3.3,0,0,1,.264.366,2.314,2.314,0,0,1-1.207,1.884,2.213,2.213,0,0,1-.32.133A.92.92,0,0,1,2553.843,683.458Z" transform="translate(-2288.139 593.017)" fill="red"/>
    <path id="Trazado_9580" data-name="Trazado 9580" d="M2562.784,452.92H2516.1a1.679,1.679,0,0,0,0,3.358h46.68a.131.131,0,0,1,.131.131v87.775a.131.131,0,0,1-.131.131h-70.832a.131.131,0,0,1-.131-.131V456.408a.131.131,0,0,1,.131-.131h17.439a1.679,1.679,0,1,0,0-3.358h-17.439a3.492,3.492,0,0,0-3.488,3.488v87.775a3.492,3.492,0,0,0,3.488,3.488h70.832a3.492,3.492,0,0,0,3.489-3.488V456.408A3.492,3.492,0,0,0,2562.784,452.92Z" transform="translate(-2237.464 770.08)"/>
  </g>
</svg>
