<svg xmlns="http://www.w3.org/2000/svg" width="870" height="405" viewBox="0 0 870 405">
  <g id="Grupo_3862" data-name="Grupo 3862" transform="translate(-202 -3719)">
    <rect id="Rectángulo_1838" data-name="Rectángulo 1838" width="324" height="66" rx="10" transform="translate(202 3882)" fill="#feefb2"/>
    <rect id="Rectángulo_1839" data-name="Rectángulo 1839" width="324" height="66" rx="10" transform="translate(202 3970)" fill="#feefb2"/>
    <rect id="Rectángulo_1840" data-name="Rectángulo 1840" width="324" height="66" rx="10" transform="translate(202 4058)" fill="#feefb2"/>
    <text id="REALES_DE_BALANCE" data-name="REALES DE BALANCE" transform="translate(245.333 3905)" fill="#234eae" font-size="20" font-family="Montserrat-Bold, Montserrat" font-weight="700"><tspan x="0" y="19">REALES DE BALANCE</tspan></text>
    <text id="NOMINALES_TRANSITORIAS_O_DE_RESULTADO" data-name="NOMINALES TRANSITORIAS O DE RESULTADO" transform="translate(212.333 3982)" fill="#234eae" font-size="20" font-family="Montserrat-Bold, Montserrat" font-weight="700"><tspan x="6.83" y="19">NOMINALES TRANSITORIAS </tspan><tspan x="59.03" y="42">O DE RESULTADO</tspan></text>
    <text id="CUENTAS_DE_ORDEN" data-name="CUENTAS DE ORDEN" transform="translate(253.333 4080)" fill="#234eae" font-size="20" font-family="Montserrat-Bold, Montserrat" font-weight="700"><tspan x="0" y="19">CUENTAS DE ORDEN</tspan></text>
    <rect id="Rectángulo_1841" data-name="Rectángulo 1841" width="145" height="66" rx="10" transform="translate(538 3882)" fill="#e4f39b"/>
    <rect id="Rectángulo_1844" data-name="Rectángulo 1844" width="152" height="66" rx="10" transform="translate(538 3971)" fill="#e4f39b"/>
    <rect id="Rectángulo_1847" data-name="Rectángulo 1847" width="163" height="66" rx="10" transform="translate(538 4058)" fill="#e4f39b"/>
    <rect id="Rectángulo_1848" data-name="Rectángulo 1848" width="198" height="66" rx="10" transform="translate(716 4058)" fill="#e4f39b"/>
    <rect id="Rectángulo_1842" data-name="Rectángulo 1842" width="132" height="66" rx="10" transform="translate(717 3882)" fill="#e4f39b"/>
    <rect id="Rectángulo_1845" data-name="Rectángulo 1845" width="132" height="66" rx="10" transform="translate(716 3971)" fill="#e4f39b"/>
    <rect id="Rectángulo_1846" data-name="Rectángulo 1846" width="132" height="66" rx="10" transform="translate(869 3970)" fill="#e4f39b"/>
    <rect id="Rectángulo_1843" data-name="Rectángulo 1843" width="208" height="66" rx="10" transform="translate(864 3882)" fill="#e4f39b"/>
    <text id="ACTIVO" transform="translate(559.333 3901)" fill="#234eae" font-size="24" font-family="Montserrat-Bold, Montserrat" font-weight="700"><tspan x="0" y="23">ACTIVO</tspan></text>
    <text id="INGRESOS" transform="translate(547.333 3990)" fill="#234eae" font-size="24" font-family="Montserrat-Bold, Montserrat" font-weight="700"><tspan x="0" y="23">INGRESOS</tspan></text>
    <text id="DEUDORAS" transform="translate(544.333 4077)" fill="#234eae" font-size="24" font-family="Montserrat-Bold, Montserrat" font-weight="700"><tspan x="0" y="23">DEUDORAS</tspan></text>
    <text id="ACREEDORAS" transform="translate(725.333 4077)" fill="#234eae" font-size="24" font-family="Montserrat-Bold, Montserrat" font-weight="700"><tspan x="0" y="23">ACREEDORAS</tspan></text>
    <text id="PASIVO" transform="translate(732.333 3901)" fill="#234eae" font-size="24" font-family="Montserrat-Bold, Montserrat" font-weight="700"><tspan x="0" y="23">PASIVO</tspan></text>
    <text id="GASTOS" transform="translate(729.333 3990)" fill="#234eae" font-size="24" font-family="Montserrat-Bold, Montserrat" font-weight="700"><tspan x="0" y="23">GASTOS</tspan></text>
    <text id="COSTOS" transform="translate(882.333 3989)" fill="#234eae" font-size="24" font-family="Montserrat-Bold, Montserrat" font-weight="700"><tspan x="0" y="23">COSTOS</tspan></text>
    <text id="PATRIMONIO" transform="translate(885.333 3901)" fill="#234eae" font-size="24" font-family="Montserrat-Bold, Montserrat" font-weight="700"><tspan x="0" y="23">PATRIMONIO</tspan></text>
    <rect id="Rectángulo_1837" data-name="Rectángulo 1837" width="314" height="66" rx="10" transform="translate(212 3760)" fill="#feefb2"/>
    <g id="Grupo_3861" data-name="Grupo 3861" transform="translate(486 3719)">
      <g id="Elipse_509" data-name="Elipse 509" fill="#fff" stroke="#ca9c2c" stroke-width="5">
        <ellipse cx="72.5" cy="69.5" rx="72.5" ry="69.5" stroke="none"/>
        <ellipse cx="72.5" cy="69.5" rx="70" ry="67" fill="none"/>
      </g>
    </g>
    <text id="CUENTAS" transform="translate(320.333 3775)" fill="#234eae" font-size="24" font-family="Montserrat-Bold, Montserrat" font-weight="700"><tspan x="0" y="23">CUENTAS</tspan></text>
    <g id="MF1-AUD-IMA-13" transform="translate(510.691 3752.713) rotate(-17)">
      <path id="Trazado_3535" data-name="Trazado 3535" d="M39.456,44.777a1.691,1.691,0,0,1-1.5,1.886l-30.441,3.9a1.738,1.738,0,0,1-1.967-1.455L.008,5.781A1.711,1.711,0,0,1,1.544,3.915L31.992.021a1.671,1.671,0,0,1,1.92,1.421Z" transform="translate(7.726 0)" fill="#00c0d0"/>
      <rect id="Rectángulo_1544" data-name="Rectángulo 1544" width="5.295" height="4.055" rx="2.028" transform="translate(36.808 37.294) rotate(-7.29)" fill="#fff"/>
      <rect id="Rectángulo_1545" data-name="Rectángulo 1545" width="5.295" height="4.055" rx="2.028" transform="translate(29.989 38.173) rotate(-7.29)" fill="#fff"/>
      <rect id="Rectángulo_1546" data-name="Rectángulo 1546" width="5.295" height="4.055" rx="2.028" transform="translate(23.162 39.039) rotate(-7.29)" fill="#fff"/>
      <rect id="Rectángulo_1547" data-name="Rectángulo 1547" width="5.295" height="4.055" rx="2.028" transform="translate(16.336 39.911) rotate(-7.29)" fill="#ff4a36"/>
      <rect id="Rectángulo_1548" data-name="Rectángulo 1548" width="5.295" height="4.055" rx="2.028" transform="translate(36.113 31.87) rotate(-7.29)" fill="#fff"/>
      <rect id="Rectángulo_1549" data-name="Rectángulo 1549" width="5.295" height="4.055" rx="2.028" transform="translate(29.286 32.742) rotate(-7.29)" fill="#fff"/>
      <rect id="Rectángulo_1550" data-name="Rectángulo 1550" width="5.295" height="4.055" rx="2.028" transform="translate(22.46 33.614) rotate(-7.29)" fill="#fff"/>
      <rect id="Rectángulo_1551" data-name="Rectángulo 1551" width="5.295" height="4.055" rx="2.028" transform="translate(15.64 34.493) rotate(-7.29)" fill="#fff"/>
      <rect id="Rectángulo_1552" data-name="Rectángulo 1552" width="5.295" height="4.055" rx="2.028" transform="translate(35.417 26.451) rotate(-7.29)" fill="#fff"/>
      <rect id="Rectángulo_1553" data-name="Rectángulo 1553" width="5.295" height="4.055" rx="2.028" transform="translate(28.59 27.316) rotate(-7.29)" fill="#fff"/>
      <rect id="Rectángulo_1554" data-name="Rectángulo 1554" width="5.295" height="4.055" rx="2.028" transform="translate(21.77 28.195) rotate(-7.29)" fill="#fff"/>
      <rect id="Rectángulo_1555" data-name="Rectángulo 1555" width="5.295" height="4.055" rx="2.028" transform="translate(14.944 29.068) rotate(-7.29)" fill="#fff"/>
      <rect id="Rectángulo_1556" data-name="Rectángulo 1556" width="5.295" height="4.055" rx="2.028" transform="translate(34.727 21.018) rotate(-7.29)" fill="#ff4a36"/>
      <rect id="Rectángulo_1557" data-name="Rectángulo 1557" width="5.295" height="4.055" rx="2.028" transform="translate(27.9 21.897) rotate(-7.29)" fill="#fff"/>
      <rect id="Rectángulo_1558" data-name="Rectángulo 1558" width="5.295" height="4.055" rx="2.028" transform="translate(21.074 22.77) rotate(-7.29)" fill="#fff"/>
      <rect id="Rectángulo_1559" data-name="Rectángulo 1559" width="5.287" height="4.049" rx="2.025" transform="translate(14.304 23.533) rotate(-7.481)" fill="#fff"/>
      <path id="Trazado_3536" data-name="Trazado 3536" d="M1.9,3.213C.807,3.355-.116,4.17.012,4.958l1.111,8.7a1.206,1.206,0,0,0,.586.795L27.018,0Z" transform="translate(10.504 3.888)" fill="#eaeff0"/>
      <path id="Trazado_3537" data-name="Trazado 3537" d="M25.4.022h-.135L0,14.464a2.3,2.3,0,0,0,1.63.35l25.248-3.233c1.1-.141,2.021-.862,1.886-1.65l-1.111-8.69C27.552.453,26.494-.12,25.4.022Z" transform="translate(12.26 3.846)" fill="#bbc3c7"/>
      <path id="Trazado_3538" data-name="Trazado 3538" d="M1.583,6.964l.539-.074c.99-.141,2.149.344,2.257,1.111L6.1,20.753l.674-.094L4.635,4.943A1.792,1.792,0,0,1,6.1,2.814l.539-.074A1.9,1.9,0,0,1,8.758,4.377l2.149,15.7.916-.121L9.411,2.329A1.893,1.893,0,0,1,10.846.079l.539-.074a2.021,2.021,0,0,1,2.149,1.758l2.412,17.642.916-.128L14.712,3.6a1.765,1.765,0,0,1,1.435-2.122l.539-.074a1.933,1.933,0,0,1,2.149,1.63l2.23,16.3h.081c.148,1.064.263,1.913.33,2.412l2.775-6.123a1.492,1.492,0,0,1,2.162-.458l.465.263a1.805,1.805,0,0,1,.977,2.169L22.58,29.039l-.256-1.287.815,6.029a3.577,3.577,0,0,1-1.347,3.085l2.546,18.559a3.287,3.287,0,0,1-2.762,3.7l-9.848,1.347a3.193,3.193,0,0,1-3.543-2.836L5.618,38.88a3.072,3.072,0,0,1-1.691-2.465L2.3,24.829c0-.081-.141-1.024-.35-2.459L0,8.594a1.6,1.6,0,0,1,1.583-1.63Z" transform="translate(0 37.429)" fill="#efc0a9"/>
      <path id="Trazado_3539" data-name="Trazado 3539" d="M24.474,10.7a2.2,2.2,0,1,0-4.17,1.347l1.314,4.042-.923.3-1.57-4.823a2.432,2.432,0,0,0-4.614,1.509l1.57,4.823-.458.148-1.684-5.16A2.432,2.432,0,0,0,9.324,14.4l1.684,5.16-.458.148L4.69,1.685A2.236,2.236,0,0,0,1.793.122h0A2.465,2.465,0,0,0,.1,3.174L6.953,24.353l3.658,11.2a3.914,3.914,0,0,0,2.836,2.364l6.346,19.428a3.577,3.577,0,0,0,4.432,2.317L34.532,56.3c1.852-.606,2.432-2.519,1.826-4.379L29.971,32.308c1.186-1.058.855-2.068.478-3.22l-3.658-11.2C26.657,17.448,24.474,10.7,24.474,10.7Z" transform="translate(37.985 23.537)" fill="#efc0a9"/>
      <rect id="Rectángulo_1560" data-name="Rectángulo 1560" width="19.717" height="3.698" transform="matrix(0.963, -0.269, 0.269, 0.963, 50.779, 63.681)" fill="#f9f9ef"/>
      <rect id="Rectángulo_1561" data-name="Rectángulo 1561" width="20.02" height="35.999" transform="matrix(0.963, -0.269, 0.269, 0.963, 49.829, 61.432)" fill="#fff"/>
      <rect id="Rectángulo_1562" data-name="Rectángulo 1562" width="20.62" height="37.077" transform="matrix(0.963, -0.269, 0.269, 0.963, 50.538, 63.959)" fill="#303030"/>
    </g>
  </g>
</svg>
