<svg xmlns="http://www.w3.org/2000/svg" width="84" height="83.793" viewBox="0 0 84 83.793">
  <g id="Grupo_10165" data-name="Grupo 10165" transform="translate(-251 -1657)">
    <g id="Grupo_5311" data-name="Grupo 5311" transform="translate(265.134 1658.232)">
      <g id="Grupo_5310" data-name="Grupo 5310">
        <path id="Trazado_9619" data-name="Trazado 9619" d="M3519.193,428.682l3.467,6.324-6.787,4.529-3.669-6.467L3500.2,413.932l-18.819-30.23a7.017,7.017,0,0,1,2.808-8.484,1.243,1.243,0,0,1,1.711.393l5.076,8.091,13.938,22.215Z" transform="translate(-3480.901 -375.029)" fill="#f3eae6"/>
      </g>
    </g>
    <g id="Grupo_5315" data-name="Grupo 5315" transform="translate(252.233 1666.906)">
      <g id="Grupo_5314" data-name="Grupo 5314">
        <g id="Grupo_5313" data-name="Grupo 5313">
          <path id="Trazado_9620" data-name="Trazado 9620" d="M3483.8,429.371v38.022a1.479,1.479,0,0,1-1.478,1.479h-24.4l-14.42-24.516a.549.549,0,0,0-.947,0l-14.42,24.516h-24.4a1.479,1.479,0,0,1-1.478-1.479V429.371a1.478,1.478,0,0,1,1.478-1.478h78.579a1.478,1.478,0,0,1,1.478,1.478Z" transform="translate(-3402.267 -427.893)" fill="#80d261"/>
        </g>
      </g>
    </g>
    <g id="Grupo_5316" data-name="Grupo 5316" transform="translate(252.233 1666.906)">
      <path id="Trazado_9621" data-name="Trazado 9621" d="M3420.754,467.393V429.371a1.478,1.478,0,0,1,1.478-1.478h-18.487a1.478,1.478,0,0,0-1.478,1.478v38.022a1.479,1.479,0,0,0,1.478,1.479h18.487A1.479,1.479,0,0,1,3420.754,467.393Z" transform="translate(-3402.267 -427.893)" fill="#68ca44"/>
    </g>
    <path id="Trazado_9622" data-name="Trazado 9622" d="M3686.915,431.259a11.065,11.065,0,0,0,1.4-3.366h-18.736l-11.165,17.8,9.408,16Z" transform="translate(-3364.159 1239.013)" fill="#68ca44"/>
    <g id="Grupo_5319" data-name="Grupo 5319" transform="translate(257.493 1671.837)">
      <g id="Grupo_5318" data-name="Grupo 5318">
        <g id="Grupo_5317" data-name="Grupo 5317">
          <path id="Trazado_9623" data-name="Trazado 9623" d="M3585.446,545.17l-5.972,5.972,3.123,5.017,2.461,3.922,4.714-8.015-2.46-3.922Z" transform="translate(-3555.661 -530.861)" fill="#efe2dd"/>
          <path id="Trazado_9624" data-name="Trazado 9624" d="M3505.343,462.883v21.253a4.931,4.931,0,0,0-4.932,4.932h-18.583l-11.519-19.585a.549.549,0,0,0-.947,0l-11.6,19.728-.243-.143h-18.255a4.931,4.931,0,0,0-4.932-4.932V462.883a4.932,4.932,0,0,0,4.932-4.932h61.151a4.932,4.932,0,0,0,4.932,4.932Z" transform="translate(-3434.329 -457.951)" fill="#ade194"/>
          <path id="Trazado_9625" data-name="Trazado 9625" d="M3439.261,457.951a4.932,4.932,0,0,1-4.932,4.932v21.253a4.931,4.931,0,0,1,4.932,4.932h8.3V457.951Z" transform="translate(-3434.329 -457.951)" fill="#97da7b"/>
        </g>
      </g>
    </g>
    <path id="Trazado_9626" data-name="Trazado 9626" d="M3666.487,457.951l-8.071,12.864,9.408,16,18.107-28.861Z" transform="translate(-3364.159 1213.886)" fill="#97da7b"/>
    <g id="Grupo_5321" data-name="Grupo 5321" transform="translate(280.788 1676.584)">
      <g id="Grupo_5320" data-name="Grupo 5320">
        <path id="Trazado_9627" data-name="Trazado 9627" d="M3601.834,495.34l-5.959,9.532L3592.134,499,3589,493.672a.549.549,0,0,0-.947,0l-8.272,14.065a12.293,12.293,0,0,1,17.52-17.249Z" transform="translate(-3576.317 -486.888)" fill="#fee45a"/>
      </g>
    </g>
    <path id="Trazado_9628" data-name="Trazado 9628" d="M3665.934,497.014a12.32,12.32,0,0,0-3.229-2.319l-4.289,6.836,2.35,3.995,3.74,5.872,5.959-9.532Z" transform="translate(-3364.159 1183.17)" fill="#fedf30"/>
    <path id="Trazado_9629" data-name="Trazado 9629" d="M3607.457,375.217a1.241,1.241,0,0,0-1.711.392l-33.3,53.072-2.273,3.054,7.091,4.348,2.172-3.016,30.231-48.184a7.011,7.011,0,0,0-2.213-9.665Z" transform="translate(-3290.396 1283.205)" fill="#f9f3f1"/>
    <g id="Grupo_5323" data-name="Grupo 5323" transform="translate(295.666 1711.764)">
      <g id="Grupo_5322" data-name="Grupo 5322">
        <path id="Trazado_9630" data-name="Trazado 9630" d="M3689.865,710.927a11.876,11.876,0,1,1-20.684,1l-1.787-2.847a2.562,2.562,0,0,1,.809-3.531l6.128-3.845a2.562,2.562,0,0,1,3.531.809l1.787,2.847a11.864,11.864,0,0,1,10.216,5.564Zm-3.93,7.715a6.289,6.289,0,1,0-2.788,3.924,6.246,6.246,0,0,0,2.788-3.924Z" transform="translate(-3667.002 -701.315)" fill="#fe646f"/>
      </g>
    </g>
    <g id="Grupo_5325" data-name="Grupo 5325" transform="translate(265.132 1711.764)">
      <path id="Trazado_9631" data-name="Trazado 9631" d="M3504.371,705.551a2.562,2.562,0,0,1,.809,3.531l-1.663,2.65a.423.423,0,0,0-.022.407,11.876,11.876,0,1,1-10.57-6.777l1.787-2.847a2.562,2.562,0,0,1,3.531-.809Zm-6.276,15.028a6.286,6.286,0,1,0-5.338,2.947,6.295,6.295,0,0,0,5.338-2.947Z" transform="translate(-3480.891 -701.315)" fill="#fe646f"/>
    </g>
    <path id="Trazado_9632" data-name="Trazado 9632" d="M3476.042,376.189h-10.815a8.257,8.257,0,0,0-3.758-8.294,2.476,2.476,0,0,0-3.41.781l-4.714,7.513H3419.64l-4.714-7.513a2.477,2.477,0,0,0-3.41-.781,8.251,8.251,0,0,0-3.757,8.294h-10.294a2.714,2.714,0,0,0-2.711,2.711v38.023a2.714,2.714,0,0,0,2.711,2.711h3.782a1.233,1.233,0,1,0,0-2.466h-3.782a.245.245,0,0,1-.245-.245V378.9a.246.246,0,0,1,.245-.245H3451.8l-1.547,2.466H3417.1a1.233,1.233,0,1,0,0,2.466h31.6l-3.334,5.314a13.526,13.526,0,0,0-18.884,19.2l-2.431,4.133h-16.769a6.184,6.184,0,0,0-4.808-4.808v-8.285h9.547a1.233,1.233,0,0,0,0-2.466h-9.547v-8.285a6.184,6.184,0,0,0,4.808-4.808h4.559a1.233,1.233,0,1,0,0-2.466h-5.669a1.233,1.233,0,0,0-1.233,1.233,3.7,3.7,0,0,1-3.7,3.7,1.233,1.233,0,0,0-1.233,1.233v21.254a1.233,1.233,0,0,0,1.233,1.233,3.7,3.7,0,0,1,3.7,3.7,1.233,1.233,0,0,0,1.233,1.233h16.428l-1.45,2.466H3406.5a1.233,1.233,0,1,0,0,2.466h15.36a1.233,1.233,0,0,0,1.063-.608l5.294-9,1.949,3.108-4.973,7.927a3.8,3.8,0,0,0-3.531,1.765l-1.43,2.279a13.109,13.109,0,1,0,12.556,7.878l1.43-2.279a3.8,3.8,0,0,0,.052-3.945l2.223-3.542,2.222,3.542a3.8,3.8,0,0,0,.052,3.945l1.43,2.279a13.109,13.109,0,1,0,12.556-7.878l-1.43-2.279a3.77,3.77,0,0,0-2.367-1.682,3.811,3.811,0,0,0-1.164-.083l-4.974-7.927,2.219-3.536,5.546,9.429a1.233,1.233,0,0,0,1.063.608h24.4a2.714,2.714,0,0,0,2.711-2.711V378.9a2.714,2.714,0,0,0-2.711-2.711Zm-63.2-6.2,3.891,6.2h-6.459A5.769,5.769,0,0,1,3412.837,369.986Zm12.936,29.409a11.058,11.058,0,0,1,18.272-8.384l-3.654,5.825-2.1-3.575a1.782,1.782,0,0,0-3.072,0l-7.386,12.558A10.977,10.977,0,0,1,3425.774,399.395Zm10.719,3.655-2.154-3.433,2.414-4.1,2.163,3.676Zm-6.868,4.581,3.305-5.62,2.107,3.358-3.416,5.444Zm2.5,21.762-1.786,2.847a1.233,1.233,0,0,0-.059,1.205,10.644,10.644,0,1,1-9.515-5.885h.136a1.224,1.224,0,0,0,1.06-.578l1.786-2.847a1.328,1.328,0,0,1,1.831-.419l6.129,3.845a1.33,1.33,0,0,1,.419,1.831Zm17.1-5.257,1.786,2.847a1.229,1.229,0,0,0,1.06.578,10.643,10.643,0,1,1-9.38,5.884,1.234,1.234,0,0,0-.059-1.205l-1.786-2.847a1.33,1.33,0,0,1,.419-1.831l6.129-3.845a1.328,1.328,0,0,1,1.831.419Zm-3.755-2.123-4.9,3.075-2.63-4.192,3.416-5.444Zm1.572-17.946a1.233,1.233,0,0,0-1.7.389l-12.945,20.632-4.9-3.075,32.653-52.03a5.785,5.785,0,0,1,1.824,7.966l-13.839,22.058a1.233,1.233,0,0,0,2.089,1.311l11.125-17.731h4.862a6.183,6.183,0,0,0,4.808,4.808v8.285h-14.882a1.233,1.233,0,0,0,0,2.466h14.882v8.285a6.183,6.183,0,0,0-4.808,4.808H3449.45l-2.937-4.993.926-1.476a1.233,1.233,0,0,0-.389-1.7Zm29.236,12.855a.246.246,0,0,1-.245.245h-23.691l-1.45-2.466h16.428a1.233,1.233,0,0,0,1.233-1.233,3.7,3.7,0,0,1,3.7-3.7,1.233,1.233,0,0,0,1.233-1.233V387.284a1.233,1.233,0,0,0-1.233-1.233,3.7,3.7,0,0,1-3.7-3.7,1.233,1.233,0,0,0-1.233-1.233H3462.9l1.167-1.861c.124-.2.237-.4.343-.605h11.628a.246.246,0,0,1,.245.245v38.023Z" transform="translate(-3143.753 1289.483)"/>
    <path id="Trazado_9633" data-name="Trazado 9633" d="M3518.955,753.681a7.521,7.521,0,1,0,2.373,10.367,7.493,7.493,0,0,0-2.373-10.367Zm.285,9.056a5.057,5.057,0,1,1-1.6-6.968,5.038,5.038,0,0,1,1.6,6.968Z" transform="translate(-3237.948 967.637)"/>
    <path id="Trazado_9634" data-name="Trazado 9634" d="M3700.365,764.046a7.522,7.522,0,1,0,2.373-10.367A7.49,7.49,0,0,0,3700.365,764.046Zm3.684-8.278a5.056,5.056,0,1,1-1.595,6.968,5.031,5.031,0,0,1,1.595-6.968Z" transform="translate(-3398.266 967.638)"/>
    <path id="Trazado_9635" data-name="Trazado 9635" d="M3641.882,636.049a1.233,1.233,0,0,0-1.233,1.233v.82a1.233,1.233,0,0,0,2.466,0v-.82a1.233,1.233,0,0,0-1.233-1.233Z" transform="translate(-3349.307 1065.007)"/>
    <path id="Trazado_9636" data-name="Trazado 9636" d="M3525.561,547.729a1.233,1.233,0,0,0,0-2.466h-1.405a1.233,1.233,0,0,0,0,2.466Z" transform="translate(-3250.895 1140.898)"/>
  </g>
</svg>
