<svg xmlns="http://www.w3.org/2000/svg" width="84" height="84.011" viewBox="0 0 84 84.011">
  <g id="Grupo_10164" data-name="Grupo 10164" transform="translate(-251 -1463.989)">
    <path id="Trazado_9581" data-name="Trazado 9581" d="M3125.093,805.418l.013-.014a2.2,2.2,0,0,1-.732-.474,2.309,2.309,0,0,1-.61-1.1,30.828,30.828,0,0,1-5.542.474,28.95,28.95,0,0,1-8.13-1.084c-3.293-.989-5.42-2.561-5.42-4.336v5.42c0,1.775,2.127,3.347,5.42,4.336a28.947,28.947,0,0,0,8.13,1.084,26.641,26.641,0,0,0,9.458-1.545Z" transform="translate(-2814.378 736.918)" fill="#fcd770"/>
    <path id="Trazado_9582" data-name="Trazado 9582" d="M3125.107,771.575l-.027-.014a30.369,30.369,0,0,1-6.856.745,28.95,28.95,0,0,1-8.13-1.084c-3.293-.989-5.42-2.561-5.42-4.336v5.42c0,1.775,2.127,3.347,5.42,4.336a28.95,28.95,0,0,0,8.13,1.084,30.833,30.833,0,0,0,5.542-.474c-.379-1.382.135-3.4,1.341-5.677Z" transform="translate(-2814.378 763.498)" fill="#ffeaa7"/>
    <path id="Trazado_9583" data-name="Trazado 9583" d="M3247.441,729.4l-3.726-3.631c.921,1.545.19,4.377-1.762,7.52a30.39,30.39,0,0,1-4.241,5.244,29.729,29.729,0,0,1-5.23,4.228c-2.954,1.843-5.637,2.6-7.236,1.91l-.013.014,2.588,2.764.759.813c1.4,1.4,4.5.732,7.954-1.423a32.073,32.073,0,0,0,9.485-9.485c2.154-3.455,2.818-6.558,1.422-7.954Z" transform="translate(-2914.518 797.653)" fill="#ffeaa7"/>
    <path id="Trazado_9584" data-name="Trazado 9584" d="M3183.593,656.669c-1.6.691-4.282-.068-7.236-1.911a29.7,29.7,0,0,1-5.23-4.228,30.392,30.392,0,0,1-4.241-5.244c-1.951-3.144-2.683-5.976-1.762-7.52L3161.4,641.4c-1.4,1.4-.731,4.5,1.423,7.954a30.034,30.034,0,0,0,3.916,4.919l.325.325a30.4,30.4,0,0,0,5.244,4.241,17.711,17.711,0,0,0,2.263,1.206c2.507,1.138,4.607,1.3,5.691.217l3.347-3.577Z" transform="translate(-2860.885 870.748)" fill="#ffeaa7"/>
    <path id="Trazado_9585" data-name="Trazado 9585" d="M3120.554,735.266a30.4,30.4,0,0,0,5.244,4.241,17.7,17.7,0,0,0,2.263,1.206,26.219,26.219,0,0,0-2.954,4.282l-.027-.014a30.365,30.365,0,0,1-6.856.745,28.949,28.949,0,0,1-8.13-1.084c-3.293-.989-5.42-2.561-5.42-4.336,0-2.995,6.071-5.42,13.55-5.42.678,0,1.355.014,2.005.054l.325.325Z" transform="translate(-2814.378 790.078)" fill="#fcd770"/>
    <path id="Trazado_9586" data-name="Trazado 9586" d="M3236.6,720.052c.921,1.545.189,4.377-1.762,7.52a30.4,30.4,0,0,1-4.241,5.244,29.711,29.711,0,0,1-5.23,4.228c-2.954,1.843-5.637,2.6-7.236,1.91a2.2,2.2,0,0,1-.732-.474,2.311,2.311,0,0,1-.61-1.1c-.379-1.382.135-3.4,1.342-5.677a26.231,26.231,0,0,1,2.954-4.282c2.507,1.138,4.607,1.3,5.691.217l3.347-3.577-.014-.014a2.2,2.2,0,0,0,.732-.474c.84-.84.935-2.276.42-4.038,2.208-.854,4.024-.908,5,.081a2.093,2.093,0,0,1,.339.434Z" transform="translate(-2907.403 803.368)" fill="#fcd770"/>
    <path id="Trazado_9587" data-name="Trazado 9587" d="M3204.676,646.447c.515,1.761.42,3.2-.42,4.038a2.191,2.191,0,0,1-.732.474c-1.6.691-4.282-.068-7.236-1.91a29.724,29.724,0,0,1-5.23-4.228,30.388,30.388,0,0,1-4.241-5.244c-1.951-3.144-2.683-5.976-1.762-7.52a2.077,2.077,0,0,1,.339-.434c2.087-2.087,7.995.447,13.2,5.664,3.144,3.13,5.3,6.5,6.07,9.16Z" transform="translate(-2880.817 876.458)" fill="#fcd770"/>
    <path id="Trazado_9588" data-name="Trazado 9588" d="M3286.223,406.052l-6.775,10.84-6.775-10.84h2.71V374.887h8.13v31.165Z" transform="translate(-2953.923 1089.102)" fill="#b4dd7f"/>
    <path id="Trazado_9589" data-name="Trazado 9589" d="M3167.448,398.887l6.775,10.84h-2.71v25.745h-8.13V409.727h-2.71Z" transform="translate(-2860.893 1069.167)" fill="#b4dd7f"/>
    <path id="Trazado_9590" data-name="Trazado 9590" d="M2913.193,526.887h-27.1a5.419,5.419,0,0,0-5.42,5.42v46.07a5.419,5.419,0,0,0,5.42,5.42h27.1a5.419,5.419,0,0,0,5.42-5.42v-46.07A5.419,5.419,0,0,0,2913.193,526.887Z" transform="translate(-2628.318 962.847)" fill="#aab2bd"/>
    <path id="Trazado_9591" data-name="Trazado 9591" d="M3040.673,734.887h5.42v5.42h-5.42Z" transform="translate(-2761.218 790.078)" fill="#ff826e"/>
    <path id="Trazado_9592" data-name="Trazado 9592" d="M3040.673,670.887h5.42v5.42h-5.42Z" transform="translate(-2761.218 843.237)" fill="#ff826e"/>
    <path id="Trazado_9593" data-name="Trazado 9593" d="M2912.673,798.887h5.42v5.42h-5.42Z" transform="translate(-2654.898 736.918)" fill="#ff826e"/>
    <path id="Trazado_9594" data-name="Trazado 9594" d="M2912.673,670.887h5.42v5.42h-5.42Z" transform="translate(-2654.898 843.237)" fill="#ff826e"/>
    <path id="Trazado_9595" data-name="Trazado 9595" d="M3040.673,798.887h5.42v5.42h-5.42Z" transform="translate(-2761.218 736.918)" fill="#ff826e"/>
    <path id="Trazado_9596" data-name="Trazado 9596" d="M2976.673,670.887h5.42v5.42h-5.42Z" transform="translate(-2708.057 843.237)" fill="#ff826e"/>
    <path id="Trazado_9597" data-name="Trazado 9597" d="M2912.673,734.887h5.42v5.42h-5.42Z" transform="translate(-2654.898 790.078)" fill="#ff826e"/>
    <path id="Trazado_9598" data-name="Trazado 9598" d="M2976.673,734.887h5.42v5.42h-5.42Z" transform="translate(-2708.057 790.078)" fill="#ff826e"/>
    <path id="Trazado_9599" data-name="Trazado 9599" d="M2976.673,798.887h5.42v5.42h-5.42Z" transform="translate(-2708.057 736.918)" fill="#ff826e"/>
    <path id="Trazado_9600" data-name="Trazado 9600" d="M2939.773,526.887v18.97h-27.1v-18.97a13.55,13.55,0,0,0,27.1,0Z" transform="translate(-2654.898 962.847)" fill="#69d6f4"/>
    <path id="Trazado_9601" data-name="Trazado 9601" d="M2939.773,460.437a13.55,13.55,0,1,1-13.55-13.55A13.555,13.555,0,0,1,2939.773,460.437Z" transform="translate(-2654.898 1029.297)" fill="#fcd770"/>
    <path id="Trazado_9602" data-name="Trazado 9602" d="M2904.673,799.017h8.13v-8.13h-8.13Zm2.71-5.42h2.71v2.71h-2.71Z" transform="translate(-2648.253 743.563)"/>
    <path id="Trazado_9603" data-name="Trazado 9603" d="M2968.673,799.017h8.13v-8.13h-8.13Zm2.71-5.42h2.71v2.71h-2.71Z" transform="translate(-2701.413 743.563)"/>
    <path id="Trazado_9604" data-name="Trazado 9604" d="M3032.673,799.017h8.13v-8.13h-8.13Zm2.71-5.42h2.71v2.71h-2.71Z" transform="translate(-2754.573 743.563)"/>
    <path id="Trazado_9605" data-name="Trazado 9605" d="M2904.673,735.017h8.13v-8.13h-8.13Zm2.71-5.42h2.71v2.71h-2.71Z" transform="translate(-2648.253 796.723)"/>
    <path id="Trazado_9606" data-name="Trazado 9606" d="M2968.673,735.017h8.13v-8.13h-8.13Zm2.71-5.42h2.71v2.71h-2.71Z" transform="translate(-2701.413 796.723)"/>
    <path id="Trazado_9607" data-name="Trazado 9607" d="M3032.673,735.017h8.13v-8.13h-8.13Zm2.71-5.42h2.71v2.71h-2.71Z" transform="translate(-2754.573 796.723)"/>
    <path id="Trazado_9608" data-name="Trazado 9608" d="M2904.673,671.017h8.13v-8.13h-8.13Zm2.71-5.42h2.71v2.71h-2.71Z" transform="translate(-2648.253 849.883)"/>
    <path id="Trazado_9609" data-name="Trazado 9609" d="M2968.673,671.017h8.13v-8.13h-8.13Zm2.71-5.42h2.71v2.71h-2.71Z" transform="translate(-2701.413 849.883)"/>
    <path id="Trazado_9610" data-name="Trazado 9610" d="M3032.673,671.017h8.13v-8.13h-8.13Zm2.71-5.42h2.71v2.71h-2.71Z" transform="translate(-2754.573 849.883)"/>
    <path id="Trazado_9611" data-name="Trazado 9611" d="M2972.738,484.437a1.356,1.356,0,0,1-1.355-1.355h-2.71a4.06,4.06,0,0,0,2.71,3.816v2.959h2.71v-2.71h2.71v-4.065a4.07,4.07,0,0,0-4.065-4.065,1.356,1.356,0,0,1-1.355-1.355v-1.355h1.355a1.356,1.356,0,0,1,1.355,1.355h2.71a4.06,4.06,0,0,0-2.71-3.816v-2.959h-2.71v2.71h-2.71v4.065a4.07,4.07,0,0,0,4.065,4.065,1.356,1.356,0,0,1,1.355,1.355v1.355Z" transform="translate(-2701.413 1009.362)"/>
    <ellipse id="Elipse_595" data-name="Elipse 595" cx="1" cy="1.5" rx="1" ry="1.5" transform="translate(262 1488)"/>
    <circle id="Elipse_596" data-name="Elipse 596" cx="1.5" cy="1.5" r="1.5" transform="translate(278 1488)"/>
    <path id="Trazado_9612" data-name="Trazado 9612" d="M2955.544,490.135l-3.661-3.565a3.589,3.589,0,0,0-.39-.487c-1.133-1.133-2.938-1.4-5.155-.8a27.605,27.605,0,0,0-5.925-8.442c-5.04-5.037-12.054-8.734-15.124-5.66a3.552,3.552,0,0,0-.39.486l-3.675,3.579c-2.557,2.557-.423,7.84,3.267,12.444-4.245.131-8.508,1.068-11.168,2.745V459.212a6.783,6.783,0,0,0-5.482-6.645,14.892,14.892,0,0,0-29.686,0,6.783,6.783,0,0,0-5.482,6.645v46.07a6.783,6.783,0,0,0,6.775,6.775h27.1a6.751,6.751,0,0,0,5.859-3.436c2.69,2.247,8.007,3.436,13.111,3.436a29.446,29.446,0,0,0,9.075-1.321l.182.2a4.06,4.06,0,0,0,2.986,1.121c3.5,0,8.371-3.016,12.137-6.78,5.038-5.038,8.733-12.05,5.646-15.137Zm-2.673,6.709-2.084-2.084a15.5,15.5,0,0,0,1.6-3.915l1.252,1.22c.634.633.415,2.43-.77,4.779Zm-8.026,5.292,2.158,2.159a28.32,28.32,0,0,1-3.134,2.512l-2.13-2.149A31.793,31.793,0,0,0,2944.845,502.136Zm1.925-1.908a31.889,31.889,0,0,0,2.533-3.121l2.131,2.131a28.373,28.373,0,0,1-2.515,3.138ZM2949.577,488c1.148,1.148-.487,6.118-5.66,11.291s-10.145,6.8-11.292,5.66c-.851-.851-.141-4.221,3.194-8.484a9.466,9.466,0,0,0,3.188.667,4.12,4.12,0,0,0,3.031-1.14l3.2-3.429a3.527,3.527,0,0,0,.829-.6,4.532,4.532,0,0,0,1.02-4.087c1.173-.31,2.087-.276,2.487.123Zm-19.988,15.638q-1.323.175-2.715.233v-2.69c1.114-.043,2.2-.141,3.261-.287A9.272,9.272,0,0,0,2929.589,503.638Zm-16.265-5.187a13.932,13.932,0,0,0,2.71,1.278v2.541c-1.74-.763-2.71-1.66-2.71-2.407Zm5.42,2.054a31.347,31.347,0,0,0,5.42.686v2.71a27.271,27.271,0,0,1-5.42-.737Zm5.42,6.106v2.71a27.262,27.262,0,0,1-5.42-.737v-2.659A31.353,31.353,0,0,0,2924.164,506.61Zm5.848-21.287-2.149,2.149a28.558,28.558,0,0,1-2.515-3.138l2.132-2.131a31.545,31.545,0,0,0,2.532,3.121Zm1.926,1.908a31.6,31.6,0,0,0,3.105,2.522l-2.129,2.148a28.177,28.177,0,0,1-3.135-2.512Zm3.37,6.1,2.076-2.093a15.423,15.423,0,0,0,3.9,1.588l-1.194,1.279c-.634.633-2.434.413-4.786-.774Zm-8.1-20.241a1.561,1.561,0,0,1,1.125-.348c2.027,0,6.031,1.874,10.167,6.008,5.172,5.174,6.806,10.144,5.66,11.291s-6.118-.487-11.291-5.66-6.808-10.144-5.66-11.291Zm-4.079,4.078,1.266-1.233a15.553,15.553,0,0,0,1.6,3.915l-2.085,2.086C2922.725,479.591,2922.5,477.8,2923.127,477.173Zm2.392,13.2c.482,0,.951.02,1.42.041a30.088,30.088,0,0,0,6.348,4.87,26.432,26.432,0,0,0-1.755,2.618,29.621,29.621,0,0,1-6.014.6c-7.444,0-12.2-2.406-12.2-4.065s4.751-4.065,12.2-4.065ZM2880.8,462.335a14.869,14.869,0,0,0,24.39,0v9.072H2880.8ZM2893,441.6a12.2,12.2,0,1,1-12.2,12.2A12.209,12.209,0,0,1,2893,441.6Zm13.55,67.751h-27.1a4.07,4.07,0,0,1-4.065-4.065v-46.07a4.06,4.06,0,0,1,2.71-3.816v18.721h29.81V455.4a4.06,4.06,0,0,1,2.71,3.816v46.07A4.07,4.07,0,0,1,2906.548,509.348Zm6.775-4.065v-1.412a13.935,13.935,0,0,0,2.71,1.278v2.541C2914.294,506.926,2913.323,506.029,2913.323,505.283Zm13.55,4.014v-2.716a32.565,32.565,0,0,0,3.373-.3,3.628,3.628,0,0,0,.464.584,3.583,3.583,0,0,0,.829.6l.988,1.058a27.323,27.323,0,0,1-5.653.771Zm9.851-.248-1.226-1.313a15.441,15.441,0,0,0,3.9-1.588l2.079,2.1c-2.348,1.191-4.141,1.419-4.755.8Z" transform="translate(-2621.673 1035.942)"/>
    <path id="Trazado_9613" data-name="Trazado 9613" d="M3328.673,422.887h2.71v2.71h-2.71Z" transform="translate(-3000.438 1049.232)"/>
    <path id="Trazado_9614" data-name="Trazado 9614" d="M3276.675,404.7h-3.8v-16.26h-2.71v18.97h1.619l-4.33,6.928-4.329-6.928h1.619v-32.52h-2.71V404.7h-3.8l9.221,14.752Z" transform="translate(-2941.928 1089.102)"/>
    <path id="Trazado_9615" data-name="Trazado 9615" d="M3328.673,390.887h2.71v2.71h-2.71Z" transform="translate(-3000.438 1075.812)"/>
    <path id="Trazado_9616" data-name="Trazado 9616" d="M3168.673,550.887h2.71v2.71h-2.71Z" transform="translate(-2867.538 942.913)"/>
    <path id="Trazado_9617" data-name="Trazado 9617" d="M3150.034,409.383h2.71v-13.55h-1.619l4.329-6.928,4.329,6.928h-1.619v27.1h2.71v-24.39h3.8l-9.221-14.752-9.221,14.752h3.8Z" transform="translate(-2848.898 1081.706)"/>
    <path id="Trazado_9618" data-name="Trazado 9618" d="M3168.673,582.887h2.71v2.71h-2.71Z" transform="translate(-2867.538 916.333)"/>
  </g>
</svg>
