<svg xmlns="http://www.w3.org/2000/svg" width="503.5" height="354.456" viewBox="0 0 503.5 354.456">
  <g id="MF1-AUD-IMA-12" transform="translate(0 0.021)">
    <rect id="Rectángulo_1481" data-name="Rectángulo 1481" width="22.034" height="31.175" transform="translate(17.647 323.259)" fill="#d1d1d1"/>
    <rect id="Rectángulo_1482" data-name="Rectángulo 1482" width="22.034" height="31.175" transform="translate(463.819 323.259)" fill="#d1d1d1"/>
    <rect id="Rectángulo_1483" data-name="Rectángulo 1483" width="22.034" height="11.414" transform="translate(17.647 323.259)" fill="#bcbcbc"/>
    <rect id="Rectángulo_1484" data-name="Rectángulo 1484" width="22.034" height="11.414" transform="translate(463.819 323.259)" fill="#bcbcbc"/>
    <rect id="Rectángulo_1485" data-name="Rectángulo 1485" width="503.5" height="23.122" transform="translate(0 300.088)" fill="#ca9c2c"/>
    <path id="Trazado_3485" data-name="Trazado 3485" d="M393.043,239.635a6.832,6.832,0,0,1-6.88,6.783H95.55a6.831,6.831,0,0,1-6.88-6.783V71.17a6.819,6.819,0,0,1,6.88-6.77H386.163a6.819,6.819,0,0,1,6.88,6.77Z" transform="translate(14.804 -0.285)" fill="#d1d1d1"/>
    <rect id="Rectángulo_1486" data-name="Rectángulo 1486" width="112.359" height="14.677" transform="translate(199.481 283.492)" fill="#d1d1d1"/>
    <rect id="Rectángulo_1487" data-name="Rectángulo 1487" width="58.465" height="75.635" transform="translate(226.428 222.535)" fill="#d1d1d1"/>
    <rect id="Rectángulo_1488" data-name="Rectángulo 1488" width="58.465" height="16.938" transform="translate(226.428 245.681)" fill="#bcbcbc"/>
    <path id="Trazado_3486" data-name="Trazado 3486" d="M221.9,202.991a7.333,7.333,0,1,1-7.333-7.271,7.332,7.332,0,0,1,7.333,7.271Z" transform="translate(41.135 28.88)" fill="#bcbcbc"/>
    <rect id="Rectángulo_1489" data-name="Rectángulo 1489" width="287.191" height="130.03" transform="translate(112.078 89.181)" fill="#4770b1"/>
    <path id="Trazado_3487" data-name="Trazado 3487" d="M343.486,82.94l-6.318,6.22-6.318-6.22-6.306,6.22-6.318-6.22-6.318,6.22-6.318-6.22-6.306,6.22-6.318-6.22-6.318,6.22-6.306-6.22-6.318,6.22L267.7,82.94,261.4,89.16l-6.318-6.22-6.318,6.22-6.318-6.22-6.306,6.22-6.318-6.22L223.5,89.16,217.2,82.94l-6.318,6.22-6.318-6.22-6.306,6.22-6.318-6.22-6.318,6.22-6.306-6.22-6.318,6.22-6.318-6.22-6.318,6.22-6.306-6.22-6.318,6.22-6.318-6.22-6.306,6.22-6.318-6.22-6.318,6.22-6.306-6.22-.306.293V200.786H344.011V83.465Z" transform="translate(25.731 18.425)" fill="#ededed"/>
    <path id="Trazado_3488" data-name="Trazado 3488" d="M149.281,131.753h4.008a8.97,8.97,0,0,1-2.114,6.4,7.772,7.772,0,0,1-5.964,2.249q-8.469,0-8.481-9.85v-1.833q0-7.76,4.351-9.777a9.618,9.618,0,0,1,4.131-.794,8.555,8.555,0,0,1,5.768,1.906,6.929,6.929,0,0,1,2.212,5.536h-4.033a5.378,5.378,0,0,0-1.222-2.725,3.666,3.666,0,0,0-2.737-.917,3.825,3.825,0,0,0-3.226,1.344,5.793,5.793,0,0,0-.868,3.251c0,.489-.061,1.149-.061,1.992v1.894c0,2.359.33,3.96.99,4.815a3.825,3.825,0,0,0,3.177,1.283,3.385,3.385,0,0,0,2.982-1.222A7.772,7.772,0,0,0,149.281,131.753Z" transform="translate(25.478 11.651)" fill="#d1d1d1"/>
    <path id="Trazado_3489" data-name="Trazado 3489" d="M166.943,140.164h-6.587a8.225,8.225,0,0,1-5.389-1.418A5.817,5.817,0,0,1,153.3,134.1V118.35h4.314V134.1a2.163,2.163,0,0,0,.6,1.772,3.41,3.41,0,0,0,2.139.489h6.587Z" transform="translate(29.153 11.697)" fill="#d1d1d1"/>
    <path id="Trazado_3490" data-name="Trazado 3490" d="M184.427,140.165h-4.5l-1.222-3.764h-7.418l-1.222,3.764h-4.5l7.076-19.981a3.422,3.422,0,0,1,1.051-1.442,2.444,2.444,0,0,1,1.405-.391,2.285,2.285,0,0,1,1.357.367,3.08,3.08,0,0,1,.917,1.467Zm-6.734-7.333-2.615-8.64-2.725,8.64Z" transform="translate(31.883 11.697)" fill="#d1d1d1"/>
    <path id="Trazado_3491" data-name="Trazado 3491" d="M198.711,133.765a5.744,5.744,0,0,1-2.3,4.888,9.361,9.361,0,0,1-5.866,1.772,10.742,10.742,0,0,1-5.475-1.54,6.208,6.208,0,0,1-2.139-2.249,6.526,6.526,0,0,1-.843-3.324l3.923-.183a2.884,2.884,0,0,0,1.43,2.566,5.731,5.731,0,0,0,3.165.917c2.591,0,3.886-.892,3.886-2.689q0-2.212-2.64-2.6l-3.666-.367a7.663,7.663,0,0,1-4.29-1.906,6.245,6.245,0,0,1,.684-8.982,8.836,8.836,0,0,1,5.732-1.833,8.555,8.555,0,0,1,5.573,1.723A5.524,5.524,0,0,1,198,124.416l-3.85.183c-.354-1.772-1.564-2.664-3.666-2.664a4.888,4.888,0,0,0-2.957.794,2.31,2.31,0,0,0-1.075,1.894,2.065,2.065,0,0,0,.782,1.711,3.667,3.667,0,0,0,1.919.782l3.544.367Q198.711,128.253,198.711,133.765Z" transform="translate(35.551 11.669)" fill="#d1d1d1"/>
    <path id="Trazado_3492" data-name="Trazado 3492" d="M213.728,133.765a5.744,5.744,0,0,1-2.3,4.888,9.361,9.361,0,0,1-5.866,1.772,10.706,10.706,0,0,1-5.463-1.54,6.111,6.111,0,0,1-2.151-2.249,6.514,6.514,0,0,1-.831-3.324l3.911-.183a2.884,2.884,0,0,0,1.43,2.566,5.732,5.732,0,0,0,3.165.917c2.591,0,3.886-.892,3.886-2.689q0-2.212-2.64-2.6l-3.605-.367a7.662,7.662,0,0,1-4.289-1.906,6.245,6.245,0,0,1,.684-8.982,8.836,8.836,0,0,1,5.732-1.833,8.555,8.555,0,0,1,5.573,1.723,5.524,5.524,0,0,1,2.114,4.461l-3.85.183c-.354-1.772-1.564-2.664-3.666-2.664a4.888,4.888,0,0,0-2.957.794,2.31,2.31,0,0,0-1.075,1.894,2.065,2.065,0,0,0,.782,1.711,3.666,3.666,0,0,0,1.919.782l3.544.367Q213.728,128.253,213.728,133.765Z" transform="translate(38.889 11.669)" fill="#d1d1d1"/>
    <path id="Trazado_3493" data-name="Trazado 3493" d="M217.856,140.164H213.53V118.35h4.326Z" transform="translate(42.534 11.697)" fill="#d1d1d1"/>
    <path id="Trazado_3494" data-name="Trazado 3494" d="M235.849,122.151h-7.785a2.8,2.8,0,0,0-1.919.513,2.444,2.444,0,0,0-.538,1.809v3.043h8.1l-.306,3.85h-7.8v8.848h-4.314v-17.4a4.62,4.62,0,0,1,1.063-3.434,5.341,5.341,0,0,1,3.666-1H235.8Z" transform="translate(44.253 11.697)" fill="#d1d1d1"/>
    <path id="Trazado_3495" data-name="Trazado 3495" d="M240.594,140.164H236.28V118.35h4.314Z" transform="translate(47.586 11.697)" fill="#d1d1d1"/>
    <path id="Trazado_3496" data-name="Trazado 3496" d="M258.647,140.164h-7.821c-2.444,0-4.228-.415-5.231-1.222s-1.515-2.346-1.515-4.485V118.35h14.567v3.8H248.406v5.121h7.174l-.318,3.8h-6.856V134.1a2.2,2.2,0,0,0,.587,1.772,3.41,3.41,0,0,0,2.139.489h7.516Z" transform="translate(49.319 11.697)" fill="#d1d1d1"/>
    <path id="Trazado_3497" data-name="Trazado 3497" d="M276.089,129.168v2.359a18.552,18.552,0,0,1-.55,3.776,6.477,6.477,0,0,1-1.711,2.786,8.4,8.4,0,0,1-6.11,2.078q-4.766,0-6.526-1.222c-1.173-.819-1.772-2.322-1.772-4.5V118.353h8.555a7.956,7.956,0,0,1,5.842,2.078,6.844,6.844,0,0,1,2.017,4.106,38.338,38.338,0,0,1,.257,4.632Zm-4.5,3.911a29.925,29.925,0,0,0,.171-3.874,28.563,28.563,0,0,0-.171-3.825,3.667,3.667,0,0,0-.758-1.882,3.935,3.935,0,0,0-3.226-1.344h-3.886v12.074a1.748,1.748,0,0,0,.843,1.687,6.844,6.844,0,0,0,2.994.452,3.984,3.984,0,0,0,3.275-1.344,3.666,3.666,0,0,0,.758-1.943Z" transform="translate(52.726 11.695)" fill="#d1d1d1"/>
    <path id="Trazado_3498" data-name="Trazado 3498" d="M291.381,133.765a5.781,5.781,0,0,1-2.3,4.888,9.422,9.422,0,0,1-5.878,1.772,10.706,10.706,0,0,1-5.463-1.54,6.11,6.11,0,0,1-2.139-2.249,6.526,6.526,0,0,1-.843-3.324l3.911-.183a2.884,2.884,0,0,0,1.43,2.566,5.732,5.732,0,0,0,3.165.917c2.591,0,3.886-.892,3.886-2.689q0-2.212-2.64-2.6l-3.605-.367a7.662,7.662,0,0,1-4.277-1.906,5.658,5.658,0,0,1-1.589-4.326,5.756,5.756,0,0,1,2.261-4.656,8.836,8.836,0,0,1,5.732-1.833,8.555,8.555,0,0,1,5.585,1.723,5.512,5.512,0,0,1,2.1,4.461l-3.85.183c-.354-1.772-1.564-2.664-3.666-2.664a4.889,4.889,0,0,0-2.97.794,2.346,2.346,0,0,0-1.075,1.894,2.1,2.1,0,0,0,.782,1.711,3.764,3.764,0,0,0,1.931.782l3.532.367Q291.381,128.253,291.381,133.765Z" transform="translate(56.132 11.669)" fill="#d1d1d1"/>
    <rect id="Rectángulo_1490" data-name="Rectángulo 1490" width="208.085" height="3.349" transform="translate(150.83 120.869)" fill="#d1d1d1"/>
    <rect id="Rectángulo_1491" data-name="Rectángulo 1491" width="208.085" height="3.349" transform="translate(150.83 157.324)" fill="#d1d1d1"/>
    <rect id="Rectángulo_1492" data-name="Rectángulo 1492" width="47.185" height="3.825" transform="translate(150.83 170.999)" fill="#d1d1d1"/>
    <rect id="Rectángulo_1493" data-name="Rectángulo 1493" width="47.185" height="3.825" transform="translate(150.83 178.344)" fill="#d1d1d1"/>
    <rect id="Rectángulo_1494" data-name="Rectángulo 1494" width="47.185" height="3.825" transform="translate(150.83 185.677)" fill="#d1d1d1"/>
    <rect id="Rectángulo_1495" data-name="Rectángulo 1495" width="47.185" height="3.825" transform="translate(150.83 193.021)" fill="#d1d1d1"/>
    <rect id="Rectángulo_1496" data-name="Rectángulo 1496" width="47.185" height="3.825" transform="translate(150.83 200.354)" fill="#d1d1d1"/>
    <rect id="Rectángulo_1497" data-name="Rectángulo 1497" width="47.185" height="3.825" transform="translate(150.83 207.699)" fill="#d1d1d1"/>
    <rect id="Rectángulo_1498" data-name="Rectángulo 1498" width="47.185" height="3.825" transform="translate(311.73 170.999)" fill="#d1d1d1"/>
    <rect id="Rectángulo_1499" data-name="Rectángulo 1499" width="47.185" height="3.825" transform="translate(311.73 178.344)" fill="#d1d1d1"/>
    <rect id="Rectángulo_1500" data-name="Rectángulo 1500" width="47.185" height="3.825" transform="translate(311.73 185.677)" fill="#d1d1d1"/>
    <rect id="Rectángulo_1501" data-name="Rectángulo 1501" width="47.185" height="3.825" transform="translate(311.73 193.021)" fill="#d1d1d1"/>
    <rect id="Rectángulo_1502" data-name="Rectángulo 1502" width="47.185" height="3.825" transform="translate(311.73 200.354)" fill="#d1d1d1"/>
    <rect id="Rectángulo_1503" data-name="Rectángulo 1503" width="47.185" height="3.825" transform="translate(311.73 207.699)" fill="#d1d1d1"/>
    <rect id="Rectángulo_1504" data-name="Rectángulo 1504" width="47.185" height="3.825" transform="translate(258.093 170.999)" fill="#d1d1d1"/>
    <rect id="Rectángulo_1505" data-name="Rectángulo 1505" width="47.185" height="3.825" transform="translate(258.093 178.344)" fill="#d1d1d1"/>
    <rect id="Rectángulo_1506" data-name="Rectángulo 1506" width="47.185" height="3.825" transform="translate(258.093 185.677)" fill="#d1d1d1"/>
    <rect id="Rectángulo_1507" data-name="Rectángulo 1507" width="47.185" height="3.825" transform="translate(258.093 193.021)" fill="#d1d1d1"/>
    <rect id="Rectángulo_1508" data-name="Rectángulo 1508" width="47.185" height="3.825" transform="translate(258.093 200.354)" fill="#d1d1d1"/>
    <rect id="Rectángulo_1509" data-name="Rectángulo 1509" width="47.185" height="3.825" transform="translate(258.093 207.699)" fill="#d1d1d1"/>
    <rect id="Rectángulo_1510" data-name="Rectángulo 1510" width="47.185" height="3.825" transform="translate(204.467 170.999)" fill="#d1d1d1"/>
    <rect id="Rectángulo_1511" data-name="Rectángulo 1511" width="47.185" height="3.825" transform="translate(204.467 178.344)" fill="#d1d1d1"/>
    <rect id="Rectángulo_1512" data-name="Rectángulo 1512" width="47.185" height="3.825" transform="translate(204.467 185.677)" fill="#d1d1d1"/>
    <rect id="Rectángulo_1513" data-name="Rectángulo 1513" width="47.185" height="3.825" transform="translate(204.467 193.021)" fill="#d1d1d1"/>
    <rect id="Rectángulo_1514" data-name="Rectángulo 1514" width="47.185" height="3.825" transform="translate(204.467 200.354)" fill="#d1d1d1"/>
    <rect id="Rectángulo_1515" data-name="Rectángulo 1515" width="47.185" height="3.825" transform="translate(204.467 207.699)" fill="#d1d1d1"/>
    <rect id="Rectángulo_1516" data-name="Rectángulo 1516" width="11.268" height="32.092" transform="translate(454.079 218.221)" fill="#f2c088"/>
    <path id="Trazado_3499" data-name="Trazado 3499" d="M381.194,224.048a5.634,5.634,0,1,1,5.634-5.634,5.634,5.634,0,0,1-5.634,5.634Z" transform="translate(78.519 32.669)" fill="#f2c088"/>
    <path id="Trazado_3500" data-name="Trazado 3500" d="M381.214,197.838a5.634,5.634,0,1,1,5.634-5.634A5.634,5.634,0,0,1,381.214,197.838Z" transform="translate(78.523 26.848)" fill="#f2c088"/>
    <rect id="Rectángulo_1517" data-name="Rectángulo 1517" width="11.268" height="39.547" transform="translate(454.079 252.17)" fill="#f2c088"/>
    <circle id="Elipse_551" data-name="Elipse 551" cx="5.634" cy="5.634" r="5.634" transform="translate(454.079 245.754)" fill="#f2c088"/>
    <path id="Trazado_3501" data-name="Trazado 3501" d="M387.544,248.06H379.05a2.542,2.542,0,0,0-.916.171L364.4,253.437c-.782.306-1.222.929-.953,1.54a1.943,1.943,0,0,0,1.882,1.014h22.218c1.075,0,1.943-.6,1.943-1.357v-5.206C389.487,248.671,388.583,248.06,387.544,248.06Z" transform="translate(75.811 40.504)" fill="#f2c088"/>
    <path id="Trazado_3502" data-name="Trazado 3502" d="M377.148,255.9V247.55h-8.836c-4.07,0-7.333,3.666-7.662,8.347Z" transform="translate(75.207 40.391)" fill="#774f4f"/>
    <rect id="Rectángulo_1518" data-name="Rectángulo 1518" width="31.64" height="2.383" transform="translate(435.857 295.933)" fill="#774f4f"/>
    <path id="Trazado_3503" data-name="Trazado 3503" d="M411.681,107.629a21,21,0,1,1-20.7-21.289,21,21,0,0,1,20.7,21.289Z" transform="translate(77.215 4.588)" fill="#f2c088"/>
    <path id="Trazado_3504" data-name="Trazado 3504" d="M400.044,119.836c0,7.247-5.878,17.109-13.125,17.109h-4.094c-7.247,0-13.125-9.887-13.125-17.109V104.975A13.125,13.125,0,0,1,382.825,91.85h4.094a13.125,13.125,0,0,1,13.125,13.125Z" transform="translate(77.217 5.812)" fill="#f2c088"/>
    <path id="Trazado_3505" data-name="Trazado 3505" d="M407.976,109.05s-9.361,23.061-20.714,24.063.33-23.049.33-23.049Z" transform="translate(80.016 9.632)" fill="#f2c088"/>
    <rect id="Rectángulo_1519" data-name="Rectángulo 1519" width="12.979" height="16.987" rx="1.25" transform="translate(462.035 135.045)" fill="#f2c088"/>
    <path id="Trazado_3506" data-name="Trazado 3506" d="M370.93,107.406a3.165,3.165,0,1,0,3.116-3.336,3.226,3.226,0,0,0-3.116,3.336Z" transform="translate(77.49 8.526)" fill="#703c2c"/>
    <path id="Trazado_3507" data-name="Trazado 3507" d="M388.173,104.829a3.165,3.165,0,1,0,1.76,4.216,3.239,3.239,0,0,0-1.76-4.216Z" transform="translate(80.363 8.647)" fill="#703c2c"/>
    <path id="Trazado_3508" data-name="Trazado 3508" d="M410.426,95.751c-4.888-7.015-11.06-10.571-18.331-10.571-8.457,0-15.606,4.8-17.28,6.025l-7.21-4.07-.183.9c-.073.367-1.674,9.019,3.666,11,2.97,1.357,7.7,2.041,14.066,2.041a134.005,134.005,0,0,0,15.337-1.014c-3.776,6.819,4.534,26.214,4.534,26.214S418.773,107.764,410.426,95.751Z" transform="translate(76.649 4.33)" fill="#de4a21"/>
    <path id="Trazado_3509" data-name="Trazado 3509" d="M400.379,109.439a4.326,4.326,0,1,1-4.3-4.729A4.534,4.534,0,0,1,400.379,109.439Z" transform="translate(82.113 8.668)" fill="#f2c088"/>
    <path id="Trazado_3510" data-name="Trazado 3510" d="M408.922,135.073a4.253,4.253,0,0,0-4.253-4.253H378.1a4.241,4.241,0,0,0-4.241,4.253v60h35.062Z" transform="translate(78.141 14.467)" fill="#de4a21"/>
    <path id="Trazado_3511" data-name="Trazado 3511" d="M373.93,179.69v9.887a9.117,9.117,0,0,0,9.117,9.129h16.743a9.117,9.117,0,0,0,9.117-9.129V179.69Z" transform="translate(78.157 25.32)" fill="#774f4f"/>
    <rect id="Rectángulo_1520" data-name="Rectángulo 1520" width="9.166" height="13.137" rx="1.82" transform="translate(491.581 210.057) rotate(-0.63)" fill="#f2c088"/>
    <rect id="Rectángulo_1521" data-name="Rectángulo 1521" width="11.06" height="33.803" transform="translate(490.31 181.193) rotate(-0.63)" fill="#de4a21"/>
    <path id="Trazado_3512" data-name="Trazado 3512" d="M410.663,155a5.536,5.536,0,1,1-5.463,5.585A5.536,5.536,0,0,1,410.663,155Z" transform="translate(85.101 19.837)" fill="#de4a21"/>
    <rect id="Rectángulo_1522" data-name="Rectángulo 1522" width="11.06" height="31.481" transform="translate(479.23 151.967) rotate(-20.76)" fill="#de4a21"/>
    <path id="Trazado_3513" data-name="Trazado 3513" d="M412.693,165.507a5.536,5.536,0,1,1,3.214-7.137A5.536,5.536,0,0,1,412.693,165.507Z" transform="translate(85.1 19.791)" fill="#de4a21"/>
    <path id="Trazado_3514" data-name="Trazado 3514" d="M403.593,141.447a5.524,5.524,0,1,1,3.089-2.9,5.536,5.536,0,0,1-3.089,2.9Z" transform="translate(83.079 14.447)" fill="#de4a21"/>
    <rect id="Rectángulo_1523" data-name="Rectángulo 1523" width="11.268" height="32.092" transform="translate(473.241 218.221)" fill="#f2c088"/>
    <path id="Trazado_3515" data-name="Trazado 3515" d="M396.874,224.048a5.634,5.634,0,1,1,5.634-5.634A5.634,5.634,0,0,1,396.874,224.048Z" transform="translate(82.001 32.669)" fill="#f2c088"/>
    <path id="Trazado_3516" data-name="Trazado 3516" d="M396.894,197.838a5.634,5.634,0,1,1,5.634-5.634,5.634,5.634,0,0,1-5.634,5.634Z" transform="translate(82.006 26.848)" fill="#f2c088"/>
    <rect id="Rectángulo_1524" data-name="Rectángulo 1524" width="11.268" height="39.547" transform="translate(473.241 252.17)" fill="#f2c088"/>
    <circle id="Elipse_552" data-name="Elipse 552" cx="5.634" cy="5.634" r="5.634" transform="translate(473.241 245.754)" fill="#f2c088"/>
    <path id="Trazado_3517" data-name="Trazado 3517" d="M403.224,248.06H394.73a2.663,2.663,0,0,0-.929.171l-13.724,5.206c-.782.306-1.222.929-.953,1.54a1.943,1.943,0,0,0,1.882,1.014h22.218c1.063,0,1.943-.6,1.943-1.357v-5.206C405.167,248.671,404.287,248.06,403.224,248.06Z" transform="translate(79.293 40.504)" fill="#f2c088"/>
    <path id="Trazado_3518" data-name="Trazado 3518" d="M392.828,255.9V247.55h-8.836c-4.069,0-7.333,3.666-7.663,8.347Z" transform="translate(78.69 40.391)" fill="#774f4f"/>
    <rect id="Rectángulo_1525" data-name="Rectángulo 1525" width="31.64" height="2.383" transform="translate(455.02 295.933)" fill="#774f4f"/>
    <rect id="Rectángulo_1526" data-name="Rectángulo 1526" width="15.472" height="21.374" transform="translate(471.31 212.831)" fill="#774f4f"/>
    <rect id="Rectángulo_1527" data-name="Rectángulo 1527" width="15.472" height="19.651" transform="translate(452.148 214.542)" fill="#774f4f"/>
    <rect id="Rectángulo_1528" data-name="Rectángulo 1528" width="13.137" height="9.166" rx="1.82" transform="translate(407.817 203.398) rotate(-36.01)" fill="#f2c088"/>
    <rect id="Rectángulo_1529" data-name="Rectángulo 1529" width="33.803" height="11.06" transform="translate(413.91 197.803) rotate(-36.01)" fill="#de4a21"/>
    <path id="Trazado_3519" data-name="Trazado 3519" d="M373.72,158.554a5.536,5.536,0,1,0-1.222,7.736A5.536,5.536,0,0,0,373.72,158.554Z" transform="translate(75.886 20.12)" fill="#de4a21"/>
    <rect id="Rectángulo_1530" data-name="Rectángulo 1530" width="31.481" height="11.06" transform="matrix(0.239, -0.971, 0.971, 0.239, 440.08, 179.349)" fill="#de4a21"/>
    <path id="Trazado_3520" data-name="Trazado 3520" d="M368.038,166.761a5.536,5.536,0,1,0-4.008-6.7,5.536,5.536,0,0,0,4.008,6.7Z" transform="translate(75.922 20.028)" fill="#de4a21"/>
    <path id="Trazado_3521" data-name="Trazado 3521" d="M374.167,141.783a5.524,5.524,0,1,0-3.42-2.505,5.536,5.536,0,0,0,3.42,2.505Z" transform="translate(77.272 14.477)" fill="#de4a21"/>
    <path id="Trazado_3522" data-name="Trazado 3522" d="M299.355,127.172a46.879,46.879,0,0,0-60.823,24.674,45.327,45.327,0,0,0,24.332,59.98A46.916,46.916,0,0,0,320.4,193.434l9.532,3.947,5.585-12.966-9.532-3.96a45.3,45.3,0,0,0-26.629-53.283Z" transform="translate(47.253 12.872)" fill="#23a8f1"/>
    <ellipse id="Elipse_553" data-name="Elipse 553" cx="35.159" cy="34.683" rx="35.159" ry="34.683" transform="translate(282.746 163.474) rotate(-22.08)" fill="#ededed"/>
    <path id="Trazado_3523" data-name="Trazado 3523" d="M308.67,189.731l50.216,20.775a5.683,5.683,0,0,0,7.333-2.994l4.424-10.266a5.5,5.5,0,0,0-2.945-7.271L317.469,169.2Z" transform="translate(63.663 22.99)" fill="#354459"/>
    <rect id="Rectángulo_1531" data-name="Rectángulo 1531" width="43.641" height="6.294" transform="translate(305.918 160.21) rotate(-0.11)" fill="#d1d1d1"/>
    <rect id="Rectángulo_1532" data-name="Rectángulo 1532" width="43.641" height="6.294" transform="translate(305.93 172.407) rotate(-0.11)" fill="#d1d1d1"/>
    <rect id="Rectángulo_1533" data-name="Rectángulo 1533" width="43.641" height="6.294" transform="translate(305.953 184.591) rotate(-0.11)" fill="#d1d1d1"/>
    <rect id="Rectángulo_1534" data-name="Rectángulo 1534" width="43.641" height="6.294" transform="translate(305.976 196.775) rotate(-0.11)" fill="#d1d1d1"/>
    <path id="Trazado_3524" data-name="Trazado 3524" d="M344.285,175.9a1.466,1.466,0,0,1-.208,2.065l-5.023,4.082a1.479,1.479,0,0,1-2.065-.22h0a1.466,1.466,0,0,1,.22-2.065l5.01-4.082a1.467,1.467,0,0,1,2.065.22Z" transform="translate(69.88 24.357)" fill="#f2c088"/>
    <path id="Trazado_3525" data-name="Trazado 3525" d="M367.766,137.706a9.337,9.337,0,0,1-9.324,9.349H273.824a9.337,9.337,0,0,1-9.324-9.349V29.539a9.337,9.337,0,0,1,9.324-9.349h84.593a9.337,9.337,0,0,1,9.349,9.349Z" transform="translate(53.854 -10.103)" fill="#4770b1"/>
    <rect id="Rectángulo_1535" data-name="Rectángulo 1535" width="84.031" height="105.197" transform="translate(327.959 22.125)" fill="#ededed"/>
    <path id="Trazado_3526" data-name="Trazado 3526" d="M335.594,28.846q-3.666-.733-7.235-1.43c-2.053-.391-4.265-.672-5.829-2.2-1.32-1.3-2.041-3.886-2.334-5.683a8.677,8.677,0,0,0-2.041-5.072,6.709,6.709,0,0,0-5.316-2.09h-.587c-.257,0-.55-.452-.55-.452a6.892,6.892,0,0,0-5.316,2.31,9.777,9.777,0,0,0-2.041,5.414,10.889,10.889,0,0,1-2.322,5.609c-1.564,1.54-3.788,1.8-5.829,2.188-2.444.464-4.888.929-7.235,1.418-6.7,1.344-9.41,5.988-9.044,10.229l32.361-.073H344.65C345,34.834,342.352,30.178,335.594,28.846ZM312.277,23.09a4.375,4.375,0,1,1,3.122-1.273A4.387,4.387,0,0,1,312.277,23.09Z" transform="translate(57.27 -11.94)" fill="#354459"/>
    <rect id="Rectángulo_1536" data-name="Rectángulo 1536" width="9.606" height="9.63" transform="translate(337.565 48.595)" fill="#d1d1d1"/>
    <rect id="Rectángulo_1537" data-name="Rectángulo 1537" width="45.621" height="9.63" transform="translate(356.776 48.595)" fill="#d1d1d1"/>
    <rect id="Rectángulo_1538" data-name="Rectángulo 1538" width="9.606" height="7.223" transform="translate(337.565 67.855)" fill="#d1d1d1"/>
    <rect id="Rectángulo_1539" data-name="Rectángulo 1539" width="45.621" height="7.223" transform="translate(356.776 67.855)" fill="#d1d1d1"/>
    <rect id="Rectángulo_1540" data-name="Rectángulo 1540" width="9.606" height="9.63" transform="translate(337.565 84.708)" fill="#d1d1d1"/>
    <rect id="Rectángulo_1541" data-name="Rectángulo 1541" width="45.621" height="7.223" transform="translate(356.776 84.708)" fill="#d1d1d1"/>
    <rect id="Rectángulo_1542" data-name="Rectángulo 1542" width="9.606" height="9.63" transform="translate(337.565 101.548)" fill="#d1d1d1"/>
    <rect id="Rectángulo_1543" data-name="Rectángulo 1543" width="45.621" height="9.63" transform="translate(356.776 101.548)" fill="#d1d1d1"/>
    <path id="Trazado_3527" data-name="Trazado 3527" d="M279.717,50.883l-4.827-5.438,2.7-2.4,2.383,2.676L291.229,35.24l2.456,2.652Z" transform="translate(61.05 7.831)" fill="#559928"/>
    <path id="Trazado_3528" data-name="Trazado 3528" d="M279.717,64.873l-4.827-5.438,2.7-2.408,2.383,2.689L291.229,49.23l2.456,2.652Z" transform="translate(61.05 10.938)" fill="#559928"/>
    <path id="Trazado_3529" data-name="Trazado 3529" d="M279.717,78.863l-4.827-5.438,2.7-2.408,2.383,2.689L291.229,63.22l2.456,2.652Z" transform="translate(61.05 14.045)" fill="#559928"/>
    <path id="Trazado_3530" data-name="Trazado 3530" d="M279.717,92.853l-4.827-5.438,2.7-2.408,2.383,2.689L291.229,77.21l2.456,2.652Z" transform="translate(61.05 17.152)" fill="#559928"/>
    <path id="Trazado_3531" data-name="Trazado 3531" d="M62.122,235.156a12.722,12.722,0,0,1-12.71,12.722h0A12.722,12.722,0,0,1,36.69,235.156V192.31A12.722,12.722,0,0,1,49.412,179.6h0a12.71,12.71,0,0,1,12.71,12.71Z" transform="translate(3.26 25.3)" fill="#559928"/>
    <path id="Trazado_3532" data-name="Trazado 3532" d="M76.983,211.471a7.9,7.9,0,0,1-7.675,8.115h0a7.895,7.895,0,0,1-8.212-7.7l-.525-18.747A7.907,7.907,0,0,1,68.294,185h0a7.907,7.907,0,0,1,8.115,7.675Z" transform="translate(8.563 26.499)" fill="#559928"/>
    <path id="Trazado_3533" data-name="Trazado 3533" d="M72.115,200.381a7.907,7.907,0,0,1,8.164,7.675h0A7.9,7.9,0,0,1,72.6,216.17l-18.747.538a7.919,7.919,0,0,1-8.127-7.687h0a7.907,7.907,0,0,1,7.662-8.115Z" transform="translate(5.267 29.914)" fill="#559928"/>
    <path id="Trazado_3534" data-name="Trazado 3534" d="M76.772,210.77H20.8v12.844h7.357l4.8,28.866H64.6l4.815-28.866h7.357Z" transform="translate(4.619 46.814)" fill="#de4a21"/>
  </g>
</svg>
