<svg xmlns="http://www.w3.org/2000/svg" width="84" height="82.594" viewBox="0 0 84 82.594">
  <g id="Grupo_10166" data-name="Grupo 10166" transform="translate(-251 -1784.934)">
    <path id="Trazado_9637" data-name="Trazado 9637" d="M4114.616,732.453l-8.3,8.3-28.148-4.9a3.139,3.139,0,0,0-2.12,5.8l30.186,17.609a3.138,3.138,0,0,0,2.984.1l15.086-7.544h5.535V732.453Z" transform="translate(-3801.755 1106.445)" fill="#efd06f"/>
    <path id="Trazado_9638" data-name="Trazado 9638" d="M4394.489,725.837v20.755h5.535V724.453h-5.535Z" transform="translate(-4066.407 1113.061)" fill="#f4f2ed"/>
    <path id="Trazado_9639" data-name="Trazado 9639" d="M4128.151,439.523h6.918v-11.07h-52.58v11.07h45.662Z" transform="translate(-3808.372 1357.864)" fill="#817fcc"/>
    <path id="Trazado_9640" data-name="Trazado 9640" d="M4128.151,492.453h-38.743a6.921,6.921,0,0,1-6.918,6.918v5.535h9.686a4.151,4.151,0,1,1,0,8.3h-9.686v5.535a6.921,6.921,0,0,1,6.918,6.919h38.743a6.921,6.921,0,0,1,6.918-6.919V499.371A6.921,6.921,0,0,1,4128.151,492.453Zm-19.372,23.523a6.918,6.918,0,1,1,6.918-6.918A6.921,6.921,0,0,1,4108.779,515.976Z" transform="translate(-3808.372 1304.934)" fill="#817fcc"/>
    <g id="Grupo_5329" data-name="Grupo 5329" transform="translate(274.117 1797.387)">
      <circle id="Elipse_597" data-name="Elipse 597" cx="6.918" cy="6.918" r="6.918" transform="translate(19.372 9.686)" fill="#f4f2ed"/>
      <path id="Trazado_9641" data-name="Trazado 9641" d="M4082.489,644.453v6.918h6.918A6.921,6.921,0,0,0,4082.489,644.453Z" transform="translate(-4082.489 -618.163)" fill="#f4f2ed"/>
      <path id="Trazado_9642" data-name="Trazado 9642" d="M4089.407,492.453h-6.918v6.918A6.921,6.921,0,0,0,4089.407,492.453Z" transform="translate(-4082.489 -492.453)" fill="#f4f2ed"/>
      <path id="Trazado_9643" data-name="Trazado 9643" d="M4353.407,499.371v-6.918h-6.918A6.921,6.921,0,0,0,4353.407,499.371Z" transform="translate(-4300.827 -492.453)" fill="#f4f2ed"/>
      <path id="Trazado_9644" data-name="Trazado 9644" d="M4346.489,651.371h6.918v-6.918A6.921,6.921,0,0,0,4346.489,651.371Z" transform="translate(-4300.827 -618.163)" fill="#f4f2ed"/>
    </g>
    <path id="Trazado_9645" data-name="Trazado 9645" d="M3976.628,525.36v-5.535h9.686a4.151,4.151,0,1,0,0-8.3h-9.686v-11.07h-12.453l-9.686,9.686v22.139h22.139Z" transform="translate(-3702.511 1298.317)" fill="#efd06f"/>
    <g id="Grupo_5330" data-name="Grupo 5330" transform="translate(251 1784.934)">
      <path id="Trazado_9646" data-name="Trazado 9646" d="M4128.755,716.453h-5.535a1.383,1.383,0,0,0-1.384,1.384H4108a1.378,1.378,0,0,0-.979.405l-7.794,7.794-27.441-4.772a4.522,4.522,0,0,0-3.054,8.362l30.186,17.608a4.515,4.515,0,0,0,4.3.138l14.793-7.4h3.825a1.383,1.383,0,0,0,1.384,1.384h5.535a1.383,1.383,0,0,0,1.384-1.384V717.837A1.383,1.383,0,0,0,4128.755,716.453Zm-11.07,20.755a1.386,1.386,0,0,0-.618.145l-15.086,7.544a1.751,1.751,0,0,1-1.669-.054l-30.184-17.607a1.755,1.755,0,0,1,1.184-3.246l25.521,4.439-1.121,1.121a5.3,5.3,0,1,0,7.493,7.49l7.156-7.155-1.957-1.957-7.156,7.156a2.53,2.53,0,0,1-4.319-1.79,2.516,2.516,0,0,1,.74-1.789l10.9-10.9h13.264v16.6Zm6.918-17.988h2.768v19.372H4124.6Z" transform="translate(-4046.139 -665.256)" fill="#0f2323"/>
      <path id="Trazado_9647" data-name="Trazado 9647" d="M4194.791,557.057a8.3,8.3,0,1,0-8.3-8.3A8.311,8.311,0,0,0,4194.791,557.057Zm0-13.837a5.535,5.535,0,1,1-5.535,5.535A5.54,5.54,0,0,1,4194.791,543.22Z" transform="translate(-4145.383 -519.698)" fill="#0f2323"/>
      <path id="Trazado_9648" data-name="Trazado 9648" d="M3960.07,435.674h10.5v8.3h-6.918v2.767h17.988a2.767,2.767,0,0,1,0,5.535h-9.686a1.368,1.368,0,0,0-.533.108,1.388,1.388,0,0,0-.447.3l-4.15,4.15,1.957,1.957,1.789-1.789v7.729h-20.756V467.5h74.719a1.383,1.383,0,0,0,1.384-1.384V421.837a1.383,1.383,0,0,0-1.384-1.384h-52.58a1.383,1.383,0,0,0-1.384,1.384v11.07H3959.5a1.377,1.377,0,0,0-.978.405L3948.833,443l1.957,1.957Zm63.077,2.593a5.556,5.556,0,0,1-3.975-3.977h3.975Zm0-6.744h-49.813v-2.767h49.813Zm-45.838,2.767a5.556,5.556,0,0,1-3.975,3.977V434.29Zm4.327,20.755a5.535,5.535,0,1,0,0-11.07h-8.3v-2.892a8.312,8.312,0,0,0,6.794-6.794h36.225a8.312,8.312,0,0,0,6.794,6.794v16.853a8.312,8.312,0,0,0-6.794,6.794h-36.225a8.312,8.312,0,0,0-6.794-6.794v-2.892Zm-8.3,9.686v-3.977a5.556,5.556,0,0,1,3.975,3.977Zm49.813,0h-3.975a5.556,5.556,0,0,1,3.975-3.977Zm-49.813-41.511h49.813v2.767h-49.813Z" transform="translate(-3948.833 -420.453)" fill="#0f2323"/>
    </g>
  </g>
</svg>
