<svg xmlns="http://www.w3.org/2000/svg" width="832" height="326" viewBox="0 0 832 326">
  <g id="Grupo_10192" data-name="Grupo 10192" transform="translate(-154 -2901)">
    <rect id="Rectángulo_1866" data-name="Rectángulo 1866" width="832" height="326" rx="15" transform="translate(154 2901)" fill="#ffecb3"/>
    <text id="Esto_cambios_o_puntos_de_convergencia_han_tenido_su_implementación_en_Colombia_mediante_la_dirección_de_los_máximos_organismos_en_la_materia_y_cumpliendo_el_siguiente_proceso:_Fase_0_lanzamiento_del_proyecto_Fase_1_Diagnóstico_Fase_2_Conversión_y_Fase_3_" data-name="Esto cambios o puntos de convergencia han tenido su implementación en Colombia mediante la dirección de los máximos organismos en la materia y cumpliendo el siguiente proceso:

Fase 0 lanzamiento del proyecto
Fase 1 Diagnóstico
Fase 2 Conversión y 
Fase 3 " transform="translate(322 2919)" fill="#00223d" font-size="16" font-family="OpenSans, Open Sans"><tspan x="0" y="17">Esto cambios o puntos de convergencia han tenido su implementación en Colombia </tspan><tspan x="0" y="39">mediante la dirección de los máximos organismos en la materia y cumpliendo el </tspan><tspan x="0" y="61">siguiente proceso:</tspan><tspan x="0" y="83"></tspan><tspan x="0" y="105">Fase 0 lanzamiento del proyecto</tspan><tspan x="0" y="127">Fase 1 Diagnóstico</tspan><tspan x="0" y="149">Fase 2 Conversión y </tspan><tspan x="0" y="171">Fase 3 Mantenimiento siempre mediante el enfoque de las IRFS</tspan><tspan x="0" y="193"></tspan><tspan x="0" y="215">A la fecha los estados financieros deben cumplir con una serie de requisitos que </tspan><tspan x="0" y="237">deben quedar explícitos en su presentación de reconocer ante este acto público de </tspan><tspan x="0" y="259">fe que se cumple a cabalidad con la totalidad de los requisitos asumidos en la </tspan><tspan x="0" y="281">adopción de las NIIF.</tspan></text>
    <g id="search" transform="translate(191 2996)">
      <g id="Grupo_421" data-name="Grupo 421">
        <path id="Trazado_634" data-name="Trazado 634" d="M45.668,0A45.65,45.65,0,0,1,84.315,69.976L98.3,83.959A10.153,10.153,0,0,1,83.94,98.319L69.956,84.335A45.666,45.666,0,1,1,45.668,0Zm0,81.191A35.522,35.522,0,1,0,10.146,45.668,35.57,35.57,0,0,0,45.668,81.191Z" fill="#234eae"/>
      </g>
    </g>
  </g>
</svg>
