<svg xmlns="http://www.w3.org/2000/svg" width="456" height="235" viewBox="0 0 456 235">
  <g id="Grupo_3918" data-name="Grupo 3918" transform="translate(-149 -13488)">
    <g id="Grupo_962" data-name="Grupo 962" transform="translate(-251 12022)">
      <rect id="rectangle" width="48" height="48" transform="translate(400 1466)" fill="none"/>
      <path id="path" d="M14.645,26.885,6.211,18.451,3.4,21.263,14.645,32.508l24.1-24.1L35.93,5.6Z" transform="translate(403.427 1471.645)" fill="#002b45" fill-rule="evenodd"/>
    </g>
    <g id="Grupo_3915" data-name="Grupo 3915" transform="translate(-251 12078)">
      <rect id="rectangle-2" data-name="rectangle" width="48" height="48" transform="translate(400 1466)" fill="none"/>
      <path id="path-2" data-name="path" d="M14.645,26.885,6.211,18.451,3.4,21.263,14.645,32.508l24.1-24.1L35.93,5.6Z" transform="translate(403.427 1471.645)" fill="#002b45" fill-rule="evenodd"/>
    </g>
    <g id="Grupo_3916" data-name="Grupo 3916" transform="translate(-251 12134)">
      <rect id="rectangle-3" data-name="rectangle" width="48" height="48" transform="translate(400 1466)" fill="none"/>
      <path id="path-3" data-name="path" d="M14.645,26.885,6.211,18.451,3.4,21.263,14.645,32.508l24.1-24.1L35.93,5.6Z" transform="translate(403.427 1471.645)" fill="#002b45" fill-rule="evenodd"/>
    </g>
    <g id="Grupo_3917" data-name="Grupo 3917" transform="translate(-251 12190)">
      <rect id="rectangle-4" data-name="rectangle" width="48" height="48" transform="translate(400 1466)" fill="none"/>
      <path id="path-4" data-name="path" d="M14.645,26.885,6.211,18.451,3.4,21.263,14.645,32.508l24.1-24.1L35.93,5.6Z" transform="translate(403.427 1471.645)" fill="#002b45" fill-rule="evenodd"/>
    </g>
    <text id="Los_objetivos_de_los_estados_financieros._Las_cualidades_de_la_información_de_los_estados_financieros_para_que_sean_útiles._Características_cualitativas_de_la_información_financiera._Los_conceptos_y_principios_básicos_que_subyacen_en_los_estados_financi" data-name="Los objetivos de los estados financieros.

Las cualidades de la información de los estados financieros para que sean útiles.

Características cualitativas de la información financiera.

Los conceptos y principios básicos que subyacen en los estados financi" transform="translate(197 13497)" fill="#00223d" font-size="16" font-family="OpenSans, Open Sans"><tspan x="0" y="17">Los objetivos de los estados financieros.</tspan><tspan x="0" y="39"></tspan><tspan x="0" y="61">Las cualidades de la información de los estados </tspan><tspan x="0" y="83">financieros para que sean útiles.</tspan><tspan x="0" y="105"></tspan><tspan x="0" y="127">Características cualitativas de la información </tspan><tspan x="0" y="149">financiera.</tspan><tspan x="0" y="171"></tspan><tspan x="0" y="193">Los conceptos y principios básicos que subyacen en </tspan><tspan x="0" y="215">los estados financieros de las pymes</tspan></text>
  </g>
</svg>
