<svg id="MF1-AUD-IMA07" xmlns="http://www.w3.org/2000/svg" width="519.312" height="386.999" viewBox="0 0 519.312 386.999">
  <rect id="Rectángulo_763" data-name="Rectángulo 763" width="519.312" height="0.254" transform="translate(0 340.092)" fill="#ececec"/>
  <rect id="Rectángulo_764" data-name="Rectángulo 764" width="16.681" height="0.254" transform="translate(54.487 349.98)" fill="#ececec"/>
  <rect id="Rectángulo_765" data-name="Rectángulo 765" width="55.594" height="0.254" transform="translate(177.752 347.164)" fill="#ececec"/>
  <rect id="Rectángulo_766" data-name="Rectángulo 766" width="37.659" height="0.254" transform="translate(72.209 359.628)" fill="#ececec"/>
  <rect id="Rectángulo_767" data-name="Rectángulo 767" width="44.865" height="0.254" transform="translate(393.778 347.031)" fill="#ececec"/>
  <rect id="Rectángulo_768" data-name="Rectángulo 768" width="6.579" height="0.254" transform="translate(447.891 347.031)" fill="#ececec"/>
  <rect id="Rectángulo_769" data-name="Rectángulo 769" width="55.968" height="0.254" transform="translate(329.242 353.503)" fill="#ececec"/>
  <path id="Trazado_2273" data-name="Trazado 2273" d="M268.224,298.772H67.665a5.925,5.925,0,0,1-5.925-5.925V10.925A5.925,5.925,0,0,1,67.665,5H268.224a5.925,5.925,0,0,1,5.925,5.925V292.847A5.925,5.925,0,0,1,268.224,298.772ZM67.665,5.254a5.685,5.685,0,0,0-5.672,5.672V292.847a5.672,5.672,0,0,0,5.672,5.658H268.224a5.658,5.658,0,0,0,5.658-5.658V10.925a5.672,5.672,0,0,0-5.658-5.672Z" transform="translate(-22.053 -5)" fill="#ececec"/>
  <path id="Trazado_2274" data-name="Trazado 2274" d="M436.564,298.772H236.005a5.925,5.925,0,0,1-5.925-5.925V10.925A5.925,5.925,0,0,1,236.005,5H436.564a5.925,5.925,0,0,1,5.925,5.925V292.847A5.925,5.925,0,0,1,436.564,298.772ZM236.005,5.254a5.685,5.685,0,0,0-5.672,5.672V292.847a5.672,5.672,0,0,0,5.672,5.658H436.564a5.672,5.672,0,0,0,5.672-5.658V10.925a5.685,5.685,0,0,0-5.671-5.672Z" transform="translate(34.253 -5)" fill="#ececec"/>
  <rect id="Rectángulo_770" data-name="Rectángulo 770" width="6.899" height="86.821" transform="translate(404.76 253.271)" fill="#f5f5f5"/>
  <rect id="Rectángulo_771" data-name="Rectángulo 771" width="6.005" height="86.821" transform="translate(408.657 253.271)" fill="#f0f0f0"/>
  <rect id="Rectángulo_772" data-name="Rectángulo 772" width="6.899" height="86.821" transform="translate(243.902 253.271)" fill="#f5f5f5"/>
  <rect id="Rectángulo_773" data-name="Rectángulo 773" width="6.005" height="86.821" transform="translate(247.799 253.271)" fill="#f0f0f0"/>
  <rect id="Rectángulo_774" data-name="Rectángulo 774" width="6.899" height="86.821" transform="translate(430.903 253.271)" fill="#f5f5f5"/>
  <rect id="Rectángulo_775" data-name="Rectángulo 775" width="6.005" height="86.821" transform="translate(434.8 253.271)" fill="#f0f0f0"/>
  <rect id="Rectángulo_776" data-name="Rectángulo 776" width="6.899" height="86.821" transform="translate(270.045 253.271)" fill="#f5f5f5"/>
  <rect id="Rectángulo_777" data-name="Rectángulo 777" width="196.889" height="3.283" transform="translate(440.791 254.912) rotate(180)" fill="#f0f0f0"/>
  <rect id="Rectángulo_778" data-name="Rectángulo 778" width="30.039" height="3.283" transform="translate(273.942 254.912) rotate(180)" fill="#e7e7e7"/>
  <rect id="Rectángulo_779" data-name="Rectángulo 779" width="6.005" height="86.821" transform="translate(273.942 253.271)" fill="#f0f0f0"/>
  <rect id="Rectángulo_780" data-name="Rectángulo 780" width="18.629" height="63.228" transform="translate(323.744 188.402)" fill="#ececec"/>
  <path id="Trazado_2275" data-name="Trazado 2275" d="M312.234,207.11H250.408L241.08,133.1h61.813Z" transform="translate(80.636 44.519)" fill="#e1e1e1"/>
  <path id="Trazado_2276" data-name="Trazado 2276" d="M315.463,207.11H251.608L242.28,133.1h63.855Z" transform="translate(81.037 44.519)" fill="#f0f0f0"/>
  <path id="Trazado_2277" data-name="Trazado 2277" d="M273.387,207.11h-12.4l3.5-74.01H276.87Z" transform="translate(87.295 44.519)" fill="#fafafa"/>
  <path id="Trazado_2278" data-name="Trazado 2278" d="M283.977,207.11h-12.2l3.483-74.01h12.2Z" transform="translate(90.904 44.519)" fill="#fafafa"/>
  <rect id="Rectángulo_781" data-name="Rectángulo 781" width="160.604" height="125.654" transform="translate(286.993 18.242)" fill="#e7e7e7"/>
  <rect id="Rectángulo_782" data-name="Rectángulo 782" width="163.167" height="125.654" transform="translate(289.248 18.242)" fill="#f0f0f0"/>
  <rect id="Rectángulo_783" data-name="Rectángulo 783" width="160.604" height="4.204" transform="translate(286.993 143.897)" fill="#e7e7e7"/>
  <rect id="Rectángulo_784" data-name="Rectángulo 784" width="163.167" height="4.204" transform="translate(291.81 143.897)" fill="#f0f0f0"/>
  <rect id="Rectángulo_785" data-name="Rectángulo 785" width="112.163" height="149.675" transform="translate(445.662 24.981) rotate(90)" fill="#fafafa"/>
  <path id="Trazado_2279" data-name="Trazado 2279" d="M283.19,130.9l10.8-112.176h18.7L301.873,130.9Z" transform="translate(94.721 6.261)" fill="#fff"/>
  <path id="Trazado_2280" data-name="Trazado 2280" d="M247.84,130.9l10.8-112.176h18.7L266.523,130.9Z" transform="translate(82.897 6.261)" fill="#fff"/>
  <path id="Trazado_2281" data-name="Trazado 2281" d="M256.269,96.918a.507.507,0,0,1-.507-.507V27.151a.52.52,0,1,1,1.027,0V96.411a.507.507,0,0,1-.52.507Z" transform="translate(42.841 2.207)" fill="#f0f0f0"/>
  <path id="Trazado_2282" data-name="Trazado 2282" d="M300.2,130.9,311,18.72h7.286L307.486,130.9Z" transform="translate(100.41 6.261)" fill="#fff"/>
  <rect id="Rectángulo_786" data-name="Rectángulo 786" width="112.163" height="0.854" transform="translate(445.662 24.981) rotate(90)" fill="#e7e7e7"/>
  <path id="Trazado_2283" data-name="Trazado 2283" d="M380.632,30.3h-160.6L219.4,20.69H380Z" transform="translate(73.384 6.92)" fill="#e1e1e1" opacity="0.5"/>
  <path id="Trazado_2284" data-name="Trazado 2284" d="M380.632,42.128h-160.6L219.4,32.52H380Z" transform="translate(73.384 10.877)" fill="#e1e1e1" opacity="0.5"/>
  <path id="Trazado_2285" data-name="Trazado 2285" d="M380.632,53.968h-160.6L219.4,44.36H380Z" transform="translate(73.384 14.837)" fill="#e1e1e1" opacity="0.5"/>
  <path id="Trazado_2286" data-name="Trazado 2286" d="M380.632,65.808h-160.6L219.4,56.2H380Z" transform="translate(73.384 18.798)" fill="#e1e1e1" opacity="0.5"/>
  <path id="Trazado_2287" data-name="Trazado 2287" d="M380.632,77.638h-160.6L219.4,68.03H380Z" transform="translate(73.384 22.755)" fill="#e1e1e1" opacity="0.5"/>
  <path id="Trazado_2288" data-name="Trazado 2288" d="M380.632,89.478h-160.6L219.4,79.87H380Z" transform="translate(73.384 26.715)" fill="#e1e1e1" opacity="0.5"/>
  <path id="Trazado_2289" data-name="Trazado 2289" d="M380.632,36.2h-160.6L219.4,26.61H380Z" transform="translate(73.384 8.9)" fill="#e1e1e1" opacity="0.5"/>
  <path id="Trazado_2290" data-name="Trazado 2290" d="M380.632,48.048h-160.6L219.4,38.44H380Z" transform="translate(73.384 12.857)" fill="#e1e1e1" opacity="0.5"/>
  <path id="Trazado_2291" data-name="Trazado 2291" d="M380.632,59.888h-160.6L219.4,50.28H380Z" transform="translate(73.384 16.818)" fill="#e1e1e1" opacity="0.5"/>
  <path id="Trazado_2292" data-name="Trazado 2292" d="M380.632,71.718h-160.6L219.4,62.11H380Z" transform="translate(73.384 20.774)" fill="#e1e1e1" opacity="0.5"/>
  <path id="Trazado_2293" data-name="Trazado 2293" d="M380.632,83.558h-160.6L219.4,73.95H380Z" transform="translate(73.384 24.735)" fill="#e1e1e1" opacity="0.5"/>
  <path id="Trazado_2294" data-name="Trazado 2294" d="M380.632,95.388h-160.6L219.4,85.78H380Z" transform="translate(73.384 28.692)" fill="#e1e1e1" opacity="0.5"/>
  <rect id="Rectángulo_787" data-name="Rectángulo 787" width="31.814" height="18.389" rx="4.82" transform="translate(129.845 80.602) rotate(180)" fill="#f5f5f5"/>
  <rect id="Rectángulo_788" data-name="Rectángulo 788" width="31.814" height="18.389" rx="4.82" transform="translate(129.845 62.213) rotate(180)" fill="#f5f5f5"/>
  <rect id="Rectángulo_789" data-name="Rectángulo 789" width="11.023" height="6.365" rx="1.67" transform="translate(119.449 43.824) rotate(180)" fill="#e1e1e1"/>
  <rect id="Rectángulo_790" data-name="Rectángulo 790" width="31.814" height="18.389" rx="4.82" transform="translate(129.845 98.978) rotate(180)" fill="#f5f5f5"/>
  <path id="Trazado_2295" data-name="Trazado 2295" d="M216.6,69.61s-1.054,12.771-41.369,12.771S133.8,69.61,133.8,69.61Z" transform="translate(2.05 16.611)" fill="#f0f0f0"/>
  <rect id="Rectángulo_791" data-name="Rectángulo 791" width="32.001" height="226.661" transform="translate(62.747 101.567)" fill="#f0f0f0"/>
  <rect id="Rectángulo_792" data-name="Rectángulo 792" width="157.842" height="11.864" transform="translate(68.899 328.228)" fill="#f0f0f0"/>
  <rect id="Rectángulo_793" data-name="Rectángulo 793" width="138.132" height="226.661" transform="translate(232.88 328.228) rotate(180)" fill="#f5f5f5"/>
  <rect id="Rectángulo_794" data-name="Rectángulo 794" width="112.964" height="53.486" transform="translate(220.296 235.602) rotate(180)" fill="#f0f0f0"/>
  <rect id="Rectángulo_795" data-name="Rectángulo 795" width="112.964" height="53.486" transform="translate(220.296 301.018) rotate(180)" fill="#f0f0f0"/>
  <rect id="Rectángulo_796" data-name="Rectángulo 796" width="112.964" height="8.154" transform="translate(220.296 320.315) rotate(180)" fill="#f0f0f0"/>
  <path id="Trazado_2296" data-name="Trazado 2296" d="M191.79,146.888H134.407a4.511,4.511,0,0,1-4.5-4.484h0a4.51,4.51,0,0,1,4.5-4.484H191.79a4.5,4.5,0,0,1,4.484,4.484h0A4.5,4.5,0,0,1,191.79,146.888Z" transform="translate(0.749 39.459)" fill="#f5f5f5"/>
  <rect id="Rectángulo_797" data-name="Rectángulo 797" width="112.964" height="53.486" transform="translate(220.296 170.173) rotate(180)" fill="#f0f0f0"/>
  <path id="Trazado_2297" data-name="Trazado 2297" d="M191.79,97.868H134.407a4.511,4.511,0,0,1-4.5-4.484h0a4.51,4.51,0,0,1,4.5-4.484H191.79a4.5,4.5,0,0,1,4.484,4.484h0A4.5,4.5,0,0,1,191.79,97.868Z" transform="translate(0.749 23.063)" fill="#f5f5f5"/>
  <path id="Trazado_2298" data-name="Trazado 2298" d="M191.79,195.921H134.407a4.511,4.511,0,0,1-4.5-4.5h0a4.511,4.511,0,0,1,4.5-4.484H191.79a4.5,4.5,0,0,1,4.484,4.484h0A4.511,4.511,0,0,1,191.79,195.921Z" transform="translate(0.749 55.855)" fill="#f5f5f5"/>
  <rect id="Rectángulo_798" data-name="Rectángulo 798" width="142.389" height="2.589" transform="translate(94.761 98.992)" fill="#f0f0f0"/>
  <rect id="Rectángulo_799" data-name="Rectángulo 799" width="36.485" height="2.589" transform="translate(94.761 101.567) rotate(180)" fill="#e7e7e7"/>
  <ellipse id="_Path_" data-name="&lt;Path&gt;" cx="201.373" cy="11.757" rx="201.373" ry="11.757" transform="translate(58.277 363.485)" fill="#f5f5f5"/>
  <path id="Trazado_2299" data-name="Trazado 2299" d="M445.888,205.786H46.946L39.58,198.82H453.255Z" transform="translate(13.239 66.501)" fill="#007cff"/>
  <path id="Trazado_2300" data-name="Trazado 2300" d="M446.382,205.786H288.045c-16.748,0-48.771.124-48.771.124s-67.264.455-96.984.585c-35.22.154-66.768.08-94.851-.709-61.993-1.741-7.366-6.966-7.366-6.966H453.748Z" transform="translate(12.745 66.501)" fill="#d3a518" opacity="0.5"/>
  <path id="Trazado_2301" data-name="Trazado 2301" d="M402.8,207.79H72.259l-6.1-3.75H408.894Z" transform="translate(22.129 68.247)" fill="#007cff"/>
  <path id="Trazado_2302" data-name="Trazado 2302" d="M402.8,207.79H72.259l-6.1-3.75H408.894Z" transform="translate(22.129 68.247)" opacity="0.5"/>
  <path id="Trazado_2303" data-name="Trazado 2303" d="M69.961,306.055H65.21L79.943,206.85H90.512Z" transform="translate(21.811 69.187)" fill="#007cff"/>
  <path id="Trazado_2304" data-name="Trazado 2304" d="M69.961,306.055H65.21L79.943,206.85H90.512Z" transform="translate(21.811 69.187)" opacity="0.5"/>
  <path id="Trazado_2305" data-name="Trazado 2305" d="M89.221,306.055H84.47L99.189,206.85h10.582Z" transform="translate(28.253 69.187)" fill="#007cff"/>
  <path id="Trazado_2306" data-name="Trazado 2306" d="M89.221,306.055H84.47L99.189,206.85h10.582Z" transform="translate(28.253 69.187)" opacity="0.5"/>
  <path id="Trazado_2307" data-name="Trazado 2307" d="M325.531,306.055h4.737L315.549,206.85H304.98Z" transform="translate(102.009 69.187)" fill="#007cff"/>
  <path id="Trazado_2308" data-name="Trazado 2308" d="M325.531,306.055h4.737L315.549,206.85H304.98Z" transform="translate(102.009 69.187)" opacity="0.5"/>
  <path id="Trazado_2309" data-name="Trazado 2309" d="M306.274,306.055h4.737L296.292,206.85H285.71Z" transform="translate(95.564 69.187)" fill="#007cff"/>
  <path id="Trazado_2310" data-name="Trazado 2310" d="M306.274,306.055h4.737L296.292,206.85H285.71Z" transform="translate(95.564 69.187)" opacity="0.5"/>
  <path id="Trazado_2311" data-name="Trazado 2311" d="M216.506,36.281l13.412.894a2.9,2.9,0,0,1,2.429,1.695l1.335,3.149a2.923,2.923,0,0,0,1.548,1.468,39.542,39.542,0,0,1,4.884,2.415,2.856,2.856,0,0,0,2.108.334l3.363-.787a2.869,2.869,0,0,1,2.816.907l8.848,10.115a2.829,2.829,0,0,1,.52,2.909L256.607,62.6a2.949,2.949,0,0,0,0,2.135,37.9,37.9,0,0,1,1.855,5.178,2.882,2.882,0,0,0,1.254,1.721l2.936,1.815a2.9,2.9,0,0,1,1.334,2.669l-.894,13.412a2.842,2.842,0,0,1-1.735,2.429l-3.136,1.334a2.9,2.9,0,0,0-1.481,1.548,39.542,39.542,0,0,1-2.415,4.884,2.856,2.856,0,0,0-.334,2.108l.787,3.363a2.883,2.883,0,0,1-.907,2.816L243.783,116.9a2.9,2.9,0,0,1-2.909.52l-3.229-1.228a2.883,2.883,0,0,0-2.135,0,40.329,40.329,0,0,1-5.151,1.748,2.869,2.869,0,0,0-1.735,1.254l-1.815,2.936a2.9,2.9,0,0,1-2.669,1.334l-13.345-.894a2.869,2.869,0,0,1-2.429-1.695l-1.415-3.149a2.922,2.922,0,0,0-1.548-1.468,39.542,39.542,0,0,1-4.884-2.415,2.856,2.856,0,0,0-2.108-.267l-3.363.787a2.882,2.882,0,0,1-2.816-.907l-8.848-10.115a2.9,2.9,0,0,1-.52-2.909l1.228-3.229a2.949,2.949,0,0,0,0-2.135,39.818,39.818,0,0,1-1.748-5.164,2.843,2.843,0,0,0-1.254-1.721l-2.922-1.815a2.882,2.882,0,0,1-1.334-2.669l.894-13.345a2.9,2.9,0,0,1,1.561-2.415L182.4,66.48a2.9,2.9,0,0,0,1.481-1.548,39.548,39.548,0,0,1,2.415-4.884,2.882,2.882,0,0,0,.334-2.122l-.761-3.336a2.869,2.869,0,0,1,.907-2.816l10.115-8.848a2.856,2.856,0,0,1,2.909-.52l3.229,1.228a2.949,2.949,0,0,0,2.135,0,39.819,39.819,0,0,1,5.164-1.748,2.883,2.883,0,0,0,1.721-1.254l1.828-2.936a2.869,2.869,0,0,1,2.629-1.415ZM194.955,78.21a25.355,25.355,0,1,0,8.627-17.429,25.435,25.435,0,0,0-8.627,17.429Z" transform="translate(16.44 5.461)" fill="#007cff"/>
  <path id="Trazado_2312" data-name="Trazado 2312" d="M248.656,79.169l4.6-1.561a1.441,1.441,0,0,1,1.415.307l.774.721a1.414,1.414,0,0,0,.961.387,14.889,14.889,0,0,1,1.895.12,1.415,1.415,0,0,0,1-.24l.854-.614a1.4,1.4,0,0,1,1.441-.12l4.364,2.162a1.335,1.335,0,0,1,.787,1.214V82.6a1.4,1.4,0,0,0,.414.947,12.8,12.8,0,0,1,1.254,1.428,1.335,1.335,0,0,0,.881.534l1.041.173a1.415,1.415,0,0,1,1.108.934l1.548,4.6a1.415,1.415,0,0,1-.307,1.428l-.721.761a1.428,1.428,0,0,0-.374.961,14.9,14.9,0,0,1-.12,1.895,1.334,1.334,0,0,0,.24,1l.614.854a1.428,1.428,0,0,1,.12,1.455l-2.162,4.35a1.334,1.334,0,0,1-1.214.787h-1.054a1.415,1.415,0,0,0-.947.427,15.862,15.862,0,0,1-1.428,1.241,1.335,1.335,0,0,0-.534.881l-.174,1.041a1.414,1.414,0,0,1-.947,1.108l-4.6,1.561a1.415,1.415,0,0,1-1.415-.32l-.761-.721a1.455,1.455,0,0,0-.974-.374,14.681,14.681,0,0,1-1.882-.12,1.334,1.334,0,0,0-1.014.24l-.854.614a1.334,1.334,0,0,1-1.441.12l-4.364-2.162a1.334,1.334,0,0,1-.774-1.214v-1.054a1.334,1.334,0,0,0-.414-.947,16.247,16.247,0,0,1-1.254-1.428,1.335,1.335,0,0,0-.881-.534l-1.028-.173a1.334,1.334,0,0,1-1.108-.934l-1.561-4.617a1.334,1.334,0,0,1,.307-1.415l.721-.761a1.334,1.334,0,0,0,.374-.961,14.911,14.911,0,0,1,.133-1.895,1.441,1.441,0,0,0-.254-1.014l-.6-.841a1.335,1.335,0,0,1-.12-1.455l2.149-4.35a1.428,1.428,0,0,1,1.228-.787h1.054a1.481,1.481,0,0,0,.948-.427,15.676,15.676,0,0,1,1.415-1.241,1.441,1.441,0,0,0,.547-.881l.173-1.041A1.334,1.334,0,0,1,248.656,79.169Zm2.749,16.8a5.2,5.2,0,1,0,.264-3.981,5.2,5.2,0,0,0-.264,3.981Z" transform="translate(37.43 19.262)" fill="#007cff"/>
  <path id="Trazado_2313" data-name="Trazado 2313" d="M248.656,79.169l4.6-1.561a1.441,1.441,0,0,1,1.415.307l.774.721a1.414,1.414,0,0,0,.961.387,14.889,14.889,0,0,1,1.895.12,1.415,1.415,0,0,0,1-.24l.854-.614a1.4,1.4,0,0,1,1.441-.12l4.364,2.162a1.335,1.335,0,0,1,.787,1.214V82.6a1.4,1.4,0,0,0,.414.947,12.8,12.8,0,0,1,1.254,1.428,1.335,1.335,0,0,0,.881.534l1.041.173a1.415,1.415,0,0,1,1.108.934l1.548,4.6a1.415,1.415,0,0,1-.307,1.428l-.721.761a1.428,1.428,0,0,0-.374.961,14.9,14.9,0,0,1-.12,1.895,1.334,1.334,0,0,0,.24,1l.614.854a1.428,1.428,0,0,1,.12,1.455l-2.162,4.35a1.334,1.334,0,0,1-1.214.787h-1.054a1.415,1.415,0,0,0-.947.427,15.862,15.862,0,0,1-1.428,1.241,1.335,1.335,0,0,0-.534.881l-.174,1.041a1.414,1.414,0,0,1-.947,1.108l-4.6,1.561a1.415,1.415,0,0,1-1.415-.32l-.761-.721a1.455,1.455,0,0,0-.974-.374,14.681,14.681,0,0,1-1.882-.12,1.334,1.334,0,0,0-1.014.24l-.854.614a1.334,1.334,0,0,1-1.441.12l-4.364-2.162a1.334,1.334,0,0,1-.774-1.214v-1.054a1.334,1.334,0,0,0-.414-.947,16.247,16.247,0,0,1-1.254-1.428,1.335,1.335,0,0,0-.881-.534l-1.028-.173a1.334,1.334,0,0,1-1.108-.934l-1.561-4.617a1.334,1.334,0,0,1,.307-1.415l.721-.761a1.334,1.334,0,0,0,.374-.961,14.911,14.911,0,0,1,.133-1.895,1.441,1.441,0,0,0-.254-1.014l-.6-.841a1.335,1.335,0,0,1-.12-1.455l2.149-4.35a1.428,1.428,0,0,1,1.228-.787h1.054a1.481,1.481,0,0,0,.948-.427,15.676,15.676,0,0,1,1.415-1.241,1.441,1.441,0,0,0,.547-.881l.173-1.041A1.334,1.334,0,0,1,248.656,79.169Zm2.749,16.8a5.2,5.2,0,1,0,.264-3.981,5.2,5.2,0,0,0-.264,3.981Z" transform="translate(37.43 19.262)" fill="#fff" opacity="0.5"/>
  <path id="Trazado_2314" data-name="Trazado 2314" d="M229.576,118.487l4.511-7.82a3.136,3.136,0,0,0-2.669-4.7h-9.034a3.136,3.136,0,0,0-2.669,4.7l4.511,7.82a3.136,3.136,0,0,0,5.351,0Z" transform="translate(30.647 28.772)" fill="#007cff"/>
  <path id="Trazado_2315" data-name="Trazado 2315" d="M88.03,227.662H228.043a3.563,3.563,0,0,0,3.576-3.71l-3.31-100.086a3.87,3.87,0,0,0-3.83-3.7h-140a3.576,3.576,0,0,0-3.59,3.7L84.2,223.952A3.87,3.87,0,0,0,88.03,227.662Z" transform="translate(-15.648 33.522)" fill="#007cff"/>
  <path id="Trazado_2316" data-name="Trazado 2316" d="M88.89,227.662H228.877a3.576,3.576,0,0,0,3.59-3.71l-3.309-100.086a3.87,3.87,0,0,0-3.83-3.7h-140a3.563,3.563,0,0,0-3.576,3.7l3.31,100.086A3.87,3.87,0,0,0,88.89,227.662Z" transform="translate(-15.36 33.522)" fill="#007cff"/>
  <g id="Grupo_1042" data-name="Grupo 1042" transform="translate(66.388 153.692)" opacity="0.6">
    <path id="Trazado_2317" data-name="Trazado 2317" d="M88.89,227.662H228.877a3.576,3.576,0,0,0,3.59-3.71l-3.309-100.086a3.87,3.87,0,0,0-3.83-3.7h-140a3.563,3.563,0,0,0-3.576,3.7l3.31,100.086A3.87,3.87,0,0,0,88.89,227.662Z" transform="translate(-81.748 -120.17)" fill="#1a2e35"/>
  </g>
  <path id="Trazado_2318" data-name="Trazado 2318" d="M89.474,200.58H258.566a4.417,4.417,0,0,1,4,2.5,1.334,1.334,0,0,1-1.161,1.828H86.645a1.334,1.334,0,0,1-1.161-1.828,4.417,4.417,0,0,1,3.99-2.5Z" transform="translate(-14.143 60.417)" fill="#007cff"/>
  <path id="Trazado_2319" data-name="Trazado 2319" d="M250.006,200.58H115.077a4.444,4.444,0,0,0-4,2.5,1.334,1.334,0,0,0,1.174,1.828H252.835A1.334,1.334,0,0,0,254,203.075a4.417,4.417,0,0,0-3.99-2.5Z" transform="translate(-5.583 60.417)" fill="#1a2e35" opacity="0.6"/>
  <path id="Trazado_2320" data-name="Trazado 2320" d="M155.115,202.64h35.07a1.575,1.575,0,0,1,1.561,1.575H153.54a1.575,1.575,0,0,1,1.575-1.575Z" transform="translate(8.652 61.106)" fill="#fff" opacity="0.3"/>
  <path id="Trazado_2321" data-name="Trazado 2321" d="M228.278,218.864l-3.069-92.853a1.5,1.5,0,0,0-1.495-1.441H85.636a1.335,1.335,0,0,0-1.334,1.441l3.083,92.853a1.508,1.508,0,0,0,1.481,1.441H226.89a1.335,1.335,0,0,0,1.388-1.441Z" transform="translate(-14.508 34.994)" fill="#fff" opacity="0.9"/>
  <path id="Trazado_2322" data-name="Trazado 2322" d="M79.693,215.305H60.65L82.589,119.57h19.043Z" transform="translate(20.286 39.994)" fill="#fff"/>
  <path id="Trazado_2323" data-name="Trazado 2323" d="M85.729,215.305H78.87l21.952-95.735h6.846Z" transform="translate(26.38 39.994)" fill="#fff"/>
  <path id="Trazado_2324" data-name="Trazado 2324" d="M138.209,215.305H131.35L153.3,119.57h6.846Z" transform="translate(43.934 39.994)" fill="#fff"/>
  <path id="Trazado_2325" data-name="Trazado 2325" d="M136.15,122.751a1.134,1.134,0,0,0,1.121,1.094,1.054,1.054,0,0,0,1.054-1.094,1.121,1.121,0,0,0-1.121-1.081,1.041,1.041,0,0,0-1.054,1.081Z" transform="translate(2.836 34.024)" fill="#fff" opacity="0.4"/>
  <path id="Trazado_2326" data-name="Trazado 2326" d="M172.718,114.82c1.855,2.949,3.83,6.085,5.8,9.088s4,6.018,6.1,8.981a196.053,196.053,0,0,0,13.051,16.868,67.162,67.162,0,0,0,7.126,6.979l.894.721a4.9,4.9,0,0,0,.614.454,15.367,15.367,0,0,0,1.668.974,31.921,31.921,0,0,0,4.337,1.721c1.575.534,3.229,1,4.911,1.428s3.416.827,5.164,1.188c3.47.747,7.113,1.415,10.609,2.028v7.286c-2,.294-3.87.427-5.818.574s-3.857.174-5.8.187a73.032,73.032,0,0,1-11.9-.934,44.278,44.278,0,0,1-6.285-1.588,22.929,22.929,0,0,1-3.35-1.428,16.851,16.851,0,0,1-1.748-1.014l-1.334-.934a71.274,71.274,0,0,1-9.235-8.087,164.14,164.14,0,0,1-14.853-17.842c-2.255-3.083-4.417-6.205-6.5-9.341s-4.11-6.325-6.085-9.742Z" transform="translate(10.84 31.732)" fill="#ffc3bd"/>
  <path id="Trazado_2327" data-name="Trazado 2327" d="M156.469,118.58c-1.014,9.114,20.7,30.907,20.7,30.907l14.679-12.251a197.587,197.587,0,0,0-14.279-21C169.2,105.889,157.616,108.278,156.469,118.58Z" transform="translate(9.62 29.974)" fill="#007cff"/>
  <path id="Trazado_2328" data-name="Trazado 2328" d="M168.347,122.8c-5.8-6.179-8.581-7.833-11.917-5.338.44,9.635,20.738,29.786,20.738,29.786C178.542,136.876,173.2,130.231,168.347,122.8Z" transform="translate(9.619 32.242)" opacity="0.3"/>
  <path id="Trazado_2329" data-name="Trazado 2329" d="M154.639,122.14l1.548,4.5-16.441,13.5-3.256-3.39Z" transform="translate(45.653 40.853)" fill="#007cff"/>
  <path id="Trazado_2330" data-name="Trazado 2330" d="M154.639,122.14l1.548,4.5-16.441,13.5-3.256-3.39Z" transform="translate(45.653 40.853)" fill="#1a2e35" opacity="0.3"/>
  <path id="Trazado_2331" data-name="Trazado 2331" d="M215.4,152.48l11.41,1.962-6.285,9.982c-1.481.254-7.46-2.989-10.089-6.993Z" transform="translate(27.684 44.329)" fill="#ffc3bd"/>
  <path id="Trazado_2332" data-name="Trazado 2332" d="M199.318,155.729l-4.564,5.178L186,158.932l6.285-9.982Z" transform="translate(62.213 49.82)" fill="#ffc3bd"/>
  <path id="Trazado_2333" data-name="Trazado 2333" d="M178.963,110.546s12.477,29.359,3.483,83.9H130.5c-.641-8.007,3.029-46.854-5.965-84.406a135.063,135.063,0,0,1,17.348-2.189,189.938,189.938,0,0,1,22.059,0,100.093,100.093,0,0,1,15.026,2.7Z" transform="translate(-1.051 29.294)" fill="#007cff"/>
  <path id="Trazado_2334" data-name="Trazado 2334" d="M135.943,117.784c1.081,6.179-.36,20.965-5.645,38.059a250.989,250.989,0,0,0-5.1-43.6h0C128.6,111.832,134.915,111.965,135.943,117.784Z" transform="translate(-0.827 30.824)" opacity="0.3"/>
  <path id="Trazado_2335" data-name="Trazado 2335" d="M138.854,89.15c1.641,7.1,3.483,20.111-1.334,24.848,0,0,2.068,5.885,15.266,5.885,14.506,0,6.792-5.885,6.792-5.885-8.007-1.895-8.007-7.767-6.792-13.345Z" transform="translate(3.294 23.146)" fill="#ffc3bd"/>
  <path id="Trazado_2336" data-name="Trazado 2336" d="M150.681,112.649l3.1,3.3a.667.667,0,0,1,.12.747l-1.548,3.256a.694.694,0,0,1-.574.374l-2.362.107a.654.654,0,0,1-.574-.28l-2.175-3.123a.667.667,0,0,1,0-.814l2.989-3.536a.654.654,0,0,1,1.028-.027Z" transform="translate(6.306 30.927)" fill="#fff"/>
  <path id="Trazado_2337" data-name="Trazado 2337" d="M153.932,114.357a16.9,16.9,0,0,0-2.522,8.007s-16.854-5.765-16.094-14.2a32.614,32.614,0,0,0,4.31-2.5S140.24,110.968,153.932,114.357Z" transform="translate(2.549 28.672)" fill="#1a2e35"/>
  <path id="Trazado_2338" data-name="Trazado 2338" d="M149.26,113.983a22.979,22.979,0,0,1,3.189,7.486s7.807-5.338,5.591-13.692l-4.6-.988S154.411,112.181,149.26,113.983Z" transform="translate(7.221 29.047)" fill="#1a2e35"/>
  <path id="Trazado_2339" data-name="Trazado 2339" d="M151.453,118.174c1.054,3.443,8.874,29.012,9.061,35.137a.28.28,0,0,1,0,.147c-.721,3.3-4,9.074-5.338,11.343a.56.56,0,0,1-.988-.08c-.907-2.215-3.123-7.566-4.564-10.676a.56.56,0,0,1,0-.2c-.694-11.17-.867-28.518-1.214-35.47a.534.534,0,0,1,.547-.574h2a.534.534,0,0,1,.494.374Z" transform="translate(6.936 32.729)" fill="#fff"/>
  <path id="Trazado_2340" data-name="Trazado 2340" d="M142.821,92.68l8.3,6.846a21.033,21.033,0,0,0-.547,3.923c-3.043-.44-7.313-3.763-7.74-6.926A10.822,10.822,0,0,1,142.821,92.68Z" transform="translate(5.012 24.327)" opacity="0.2"/>
  <path id="Trazado_2341" data-name="Trazado 2341" d="M154.494,73.463c1.975,1.468,5.338,7.66,1.028,9.341S149.69,69.873,154.494,73.463Z" transform="translate(7.978 17.709)" fill="#1a2e35"/>
  <path id="Trazado_2342" data-name="Trazado 2342" d="M136.679,86.659c1.975,9.448,2.669,15.066,8.18,19.43a12.557,12.557,0,0,0,20.377-8.861c.814-8.781-2.549-22.766-12.451-25.529a12.7,12.7,0,0,0-16.107,14.959Z" transform="translate(2.907 17.123)" fill="#ffc3bd"/>
  <path id="Trazado_2343" data-name="Trazado 2343" d="M141.079,95.776l4-2.669.24-2.3a17.108,17.108,0,0,0-1.788-9.715h0s19.283.721,21.685-5.338S160.8,65.19,160.8,65.19s-6.819,3.91-11.436,4.23-18.683-5.445-18.683,6.472c-6.205,1.922-6.018,12.17,10.449,19.857" transform="translate(-0.251 15.132)" fill="#1a2e35"/>
  <path id="Trazado_2344" data-name="Trazado 2344" d="M130.928,75.64s-2.549-2.042-.641-8.22C127.939,68.581,126.818,74.866,130.928,75.64Z" transform="translate(0.171 15.878)" fill="#1a2e35"/>
  <path id="Trazado_2345" data-name="Trazado 2345" d="M134.8,92.7a9.555,9.555,0,0,0,6.245,3.376c3.216.347,4.19-2.669,2.762-5.338-1.334-2.455-4.511-5.591-7.473-4.671S132.875,90.355,134.8,92.7Z" transform="translate(2.001 22.062)" fill="#ffc3bd"/>
  <path id="Trazado_2346" data-name="Trazado 2346" d="M180.873,204.22H147.7c-2.989-18.015-5.338-31.56-5.338-31.56h34.163S178.418,185.991,180.873,204.22Z" transform="translate(4.913 51.079)" fill="#1a2e35"/>
  <path id="Trazado_2347" data-name="Trazado 2347" d="M130.334,204.22C129.587,186.2,129,172.66,129,172.66h33.5s.173,13.718.24,31.56Z" transform="translate(0.444 51.079)" fill="#1a2e35"/>
  <path id="Trazado_2348" data-name="Trazado 2348" d="M147.755,83.945c.12.774.627,1.334,1.134,1.334s.827-.721.707-1.495-.614-1.334-1.121-1.334S147.648,83.184,147.755,83.945Z" transform="translate(6.711 20.905)" fill="#1a2e35"/>
  <path id="Trazado_2349" data-name="Trazado 2349" d="M154.356,83.218c.107.774.614,1.334,1.121,1.334s.827-.734.721-1.508-.627-1.334-1.134-1.334S154.236,82.444,154.356,83.218Z" transform="translate(8.917 20.658)" fill="#1a2e35"/>
  <path id="Trazado_2350" data-name="Trazado 2350" d="M152.29,83.36a29.173,29.173,0,0,0,4.684,6.192,4.444,4.444,0,0,1-3.616,1.094Z" transform="translate(8.234 21.21)" fill="#ff847f"/>
  <path id="Trazado_2351" data-name="Trazado 2351" d="M151.443,91.246a7.286,7.286,0,0,0,1.615,0,.227.227,0,0,0,0-.454,6.432,6.432,0,0,1-5.338-1.855.24.24,0,0,0-.334,0,.227.227,0,0,0,0,.32,6.766,6.766,0,0,0,4.057,1.988Z" transform="translate(6.572 23.052)" fill="#1a2e35"/>
  <path id="Trazado_2352" data-name="Trazado 2352" d="M145.478,82.416a.467.467,0,0,0,.454-.227,3.523,3.523,0,0,1,2.669-1.842.467.467,0,0,0,.44-.48.44.44,0,0,0-.48-.427,4.4,4.4,0,0,0-3.456,2.3.467.467,0,0,0,.173.627A.44.44,0,0,0,145.478,82.416Z" transform="translate(5.812 19.898)" fill="#1a2e35"/>
  <path id="Trazado_2353" data-name="Trazado 2353" d="M157.743,80.982a.494.494,0,0,0,.307,0,.467.467,0,0,0,.12-.641,4.764,4.764,0,0,0-3.643-2.2.46.46,0,1,0-.013.921,3.87,3.87,0,0,1,2.9,1.788.44.44,0,0,0,.334.133Z" transform="translate(8.826 19.464)" fill="#1a2e35"/>
  <path id="Trazado_2354" data-name="Trazado 2354" d="M139.288,122.337l-2.3,4q-1.161,2.042-2.282,4.124c-1.481,2.776-2.923,5.565-4.3,8.367s-2.669,5.645-3.777,8.487c-.56,1.415-1.121,2.842-1.6,4.257l-.734,2.135-.614,2.122-.16.534-.08.267h0a.587.587,0,0,0-.08.24,6.018,6.018,0,0,0,0,1.214,19.282,19.282,0,0,0,.774,3.643,62.922,62.922,0,0,0,3.323,8.3c2.669,5.632,5.818,11.33,8.968,16.881l-5.738,4.484a101.417,101.417,0,0,1-6.819-7.607c-2.149-2.669-4.19-5.338-6.125-8.274a61.308,61.308,0,0,1-5.218-9.448,30.494,30.494,0,0,1-1.922-5.832,18.977,18.977,0,0,1-.4-3.683,14.5,14.5,0,0,1,.173-2.215l.093-.547.067-.334.133-.667a77.506,77.506,0,0,1,2.669-10.356c1.094-3.35,2.389-6.566,3.75-9.742s2.882-6.245,4.484-9.275c.814-1.521,1.641-3.016,2.5-4.5s1.721-2.923,2.749-4.511Z" transform="translate(-5.84 31.595)" fill="#ffc3bd"/>
  <path id="Trazado_2355" data-name="Trazado 2355" d="M129.209,109.454c-9.141,1.334-18.549,33.162-18.549,33.162l19.657,10.9s8.007-15.146,11.77-26.383C146.077,115.366,139,108.026,129.209,109.454Z" transform="translate(-5.69 29.879)" fill="#007cff"/>
  <path id="Trazado_2356" data-name="Trazado 2356" d="M79.171,125.9l-.841,4.684L98.547,141.7l2.7-3.843Z" transform="translate(26.2 42.111)" fill="#007cff"/>
  <path id="Trazado_2357" data-name="Trazado 2357" d="M79.171,125.9l-.841,4.684L98.547,141.7l2.7-3.843Z" transform="translate(26.2 42.111)" fill="#1a2e35" opacity="0.3"/>
  <path id="Trazado_2358" data-name="Trazado 2358" d="M128.813,167.571l9.675-1.681-4.964,11.183s-8.821,0-8.421-4.6Z" transform="translate(-0.863 48.814)" fill="#ffc3bd"/>
  <path id="Trazado_2359" data-name="Trazado 2359" d="M111.58,166.508l-4.537,9.034-7.633-3.47,4.964-11.183Z" transform="translate(33.25 53.814)" fill="#ffc3bd"/>
  <path id="Trazado_2360" data-name="Trazado 2360" d="M402.9,227.662h-140a3.563,3.563,0,0,1-3.576-3.71l3.309-100.086a3.87,3.87,0,0,1,3.83-3.7H406.447a3.576,3.576,0,0,1,3.59,3.7l-3.323,100.086A3.87,3.87,0,0,1,402.9,227.662Z" transform="translate(44.033 33.522)" fill="#007cff"/>
  <path id="Trazado_2361" data-name="Trazado 2361" d="M402.9,227.662h-140a3.563,3.563,0,0,1-3.576-3.71l3.309-100.086a3.87,3.87,0,0,1,3.83-3.7H406.447a3.576,3.576,0,0,1,3.59,3.7l-3.323,100.086A3.87,3.87,0,0,1,402.9,227.662Z" transform="translate(44.033 33.522)" fill="#1a2e35" opacity="0.6"/>
  <path id="Trazado_2362" data-name="Trazado 2362" d="M402.04,227.662H262.027a3.576,3.576,0,0,1-3.576-3.71l3.31-100.086a3.87,3.87,0,0,1,3.83-3.7H405.6a3.576,3.576,0,0,1,3.576,3.7l-3.31,100.086A3.87,3.87,0,0,1,402.04,227.662Z" transform="translate(43.742 33.522)" fill="#007cff"/>
  <path id="Trazado_2363" data-name="Trazado 2363" d="M408.106,200.58H239.027a4.444,4.444,0,0,0-4,2.5A1.334,1.334,0,0,0,236.2,204.9H411.015a1.334,1.334,0,0,0,1.161-1.828A4.43,4.43,0,0,0,408.106,200.58Z" transform="translate(35.875 60.417)" fill="#007cff"/>
  <path id="Trazado_2364" data-name="Trazado 2364" d="M372.223,200.58H346.307a4.444,4.444,0,0,0-4,2.5,1.334,1.334,0,0,0,1.174,1.828h31.574a1.335,1.335,0,0,0,1.161-1.828A4.43,4.43,0,0,0,372.223,200.58Z" transform="translate(71.758 60.417)" fill="#1a2e35" opacity="0.6"/>
  <path id="Trazado_2365" data-name="Trazado 2365" d="M307.625,202.64h-35.11a1.575,1.575,0,0,0-1.575,1.575H309.2a1.575,1.575,0,0,0-1.575-1.575Z" transform="translate(47.92 61.106)" opacity="0.2"/>
  <path id="Trazado_2366" data-name="Trazado 2366" d="M261,218.864l3.069-92.853a1.5,1.5,0,0,1,1.495-1.441H403.59a1.335,1.335,0,0,1,1.334,1.441l-3.069,92.853a1.508,1.508,0,0,1-1.495,1.441H262.336A1.334,1.334,0,0,1,261,218.864Z" transform="translate(44.594 34.994)" fill="#fff" opacity="0.9"/>
  <path id="Trazado_2367" data-name="Trazado 2367" d="M307.313,215.305H288.27l21.952-95.735h19.043Z" transform="translate(96.42 39.994)" fill="#fff"/>
  <path id="Trazado_2368" data-name="Trazado 2368" d="M242.306,215.305H235.46L257.4,119.57h6.859Z" transform="translate(78.756 39.994)" fill="#fff"/>
  <path id="Trazado_2369" data-name="Trazado 2369" d="M315.959,215.305H309.1l21.952-95.735H337.9Z" transform="translate(103.387 39.994)" fill="#fff"/>
  <path id="Trazado_2370" data-name="Trazado 2370" d="M317.542,122.751a1.134,1.134,0,0,1-1.121,1.094,1.041,1.041,0,0,1-1.041-1.094,1.121,1.121,0,0,1,1.121-1.081,1.027,1.027,0,0,1,1.041,1.081Z" transform="translate(62.784 34.023)" opacity="0.4"/>
  <path id="Trazado_2371" data-name="Trazado 2371" d="M315.141,89.15c-1.628,7.1-3.47,20.111,1.334,24.848,0,0-2.082,5.885-15.266,5.885-14.519,0-6.806-5.885-6.806-5.885,8.007-1.895,8.007-7.767,6.792-13.345Z" transform="translate(55.083 23.146)" fill="#cd5b51"/>
  <path id="Trazado_2372" data-name="Trazado 2372" d="M328.374,114.43c1.028,1.588,1.895,2.989,2.749,4.511s1.681,2.976,2.5,4.5c1.6,3.029,3.109,6.112,4.484,9.275s2.669,6.392,3.75,9.742a75.536,75.536,0,0,1,2.736,10.356l.147.667.067.334.08.547a14.509,14.509,0,0,1,.173,2.215,18.976,18.976,0,0,1-.4,3.683,30.509,30.509,0,0,1-1.908,5.832,62.5,62.5,0,0,1-5.231,9.448c-1.935,2.9-4,5.645-6.125,8.274a98.047,98.047,0,0,1-6.806,7.607l-5.752-4.484c3.149-5.551,6.352-11.25,8.981-16.881a62.732,62.732,0,0,0,3.31-8.3,17.351,17.351,0,0,0,.774-3.643,6.021,6.021,0,0,0,0-1.214c0-.12,0-.227-.067-.24h0l-.08-.267-.16-.534-.614-2.122-.734-2.135c-.48-1.415-1.028-2.842-1.588-4.257-1.161-2.842-2.442-5.672-3.79-8.487s-2.8-5.591-4.3-8.367q-1.094-2.082-2.282-4.124l-2.3-4Z" transform="translate(62.988 31.602)" fill="#ce5b51"/>
  <path id="Trazado_2373" data-name="Trazado 2373" d="M326.9,109.454c9.141,1.334,18.549,33.162,18.549,33.162l-19.657,10.9s-8.007-15.146-11.77-26.383C310.046,115.366,317.106,108.026,326.9,109.454Z" transform="translate(61.953 29.879)" fill="#1a2e35"/>
  <path id="Trazado_2374" data-name="Trazado 2374" d="M319.3,122.48l-1.481,13.638c1.481,3.269,2.936,6.272,4.07,8.567C322.317,139.188,322.3,130.34,319.3,122.48Z" transform="translate(63.6 34.294)" opacity="0.3"/>
  <path id="Trazado_2375" data-name="Trazado 2375" d="M310.519,125.9l.841,4.684L291.142,141.7l-2.682-3.843Z" transform="translate(96.483 42.111)" fill="#007cff"/>
  <path id="Trazado_2376" data-name="Trazado 2376" d="M310.519,125.9l.841,4.684L291.142,141.7l-2.682-3.843Z" transform="translate(96.483 42.111)" fill="#1a2e35" opacity="0.3"/>
  <path id="Trazado_2377" data-name="Trazado 2377" d="M322.492,167.571l-9.662-1.681,4.951,11.183s8.821,0,8.421-4.6Z" transform="translate(61.931 48.814)" fill="#cd5b51"/>
  <path id="Trazado_2378" data-name="Trazado 2378" d="M275.42,166.508l4.537,9.034,7.633-3.47-4.964-11.183Z" transform="translate(92.122 53.814)" fill="#cd5b51"/>
  <path id="Trazado_2379" data-name="Trazado 2379" d="M284.32,110.546s-12.477,29.359-3.483,83.9h51.911c.641-8.007-3.016-46.854,5.965-84.406a135.063,135.063,0,0,0-17.348-2.189,190.164,190.164,0,0,0-22.072,0,100.088,100.088,0,0,0-14.973,2.7Z" transform="translate(50.14 29.294)" fill="#1a2e35"/>
  <path id="Trazado_2380" data-name="Trazado 2380" d="M278.741,129.336a177.733,177.733,0,0,0-1.161,19.777c7.073-4.6,9.582-15.146,10.582-22.793Z" transform="translate(50.141 35.579)" opacity="0.3"/>
  <path id="Trazado_2381" data-name="Trazado 2381" d="M306.169,122.316c-1.975,3.416-4,6.539-6.085,9.742s-4.257,6.312-6.512,9.341a164.057,164.057,0,0,1-14.839,17.842,72.318,72.318,0,0,1-9.248,8.087l-1.335.934a20.193,20.193,0,0,1-1.748,1.014,24.216,24.216,0,0,1-3.349,1.428,44.737,44.737,0,0,1-6.285,1.588,73.158,73.158,0,0,1-11.9.934c-1.948,0-3.883,0-5.818-.187s-3.817-.28-5.8-.574v-7.233c3.51-.614,7.139-1.334,10.676-2.028,1.748-.36,3.483-.747,5.164-1.188s3.336-.894,4.911-1.428a31.236,31.236,0,0,0,4.337-1.721,14.18,14.18,0,0,0,1.668-.974,4.889,4.889,0,0,0,.614-.454l.907-.721a68.359,68.359,0,0,0,7.033-6.966A190.837,190.837,0,0,0,281.6,132.9c2.068-2.963,4.084-5.965,6.1-8.981s4-6.139,5.8-9.088Z" transform="translate(35.31 31.736)" fill="#ce5b51"/>
  <path id="Trazado_2382" data-name="Trazado 2382" d="M300.35,118.58c1.028,9.114-19.3,31.24-19.3,31.24L265,137.236a197.581,197.581,0,0,1,14.279-21C287.593,105.889,299.2,108.278,300.35,118.58Z" transform="translate(45.933 29.974)" fill="#1a2e35"/>
  <path id="Trazado_2383" data-name="Trazado 2383" d="M234.248,122.14l-1.548,4.5,16.454,13.5,3.256-3.39Z" transform="translate(77.833 40.853)" fill="#007cff"/>
  <path id="Trazado_2384" data-name="Trazado 2384" d="M234.248,122.14l-1.548,4.5,16.454,13.5,3.256-3.39Z" transform="translate(77.833 40.853)" fill="#1a2e35" opacity="0.3"/>
  <path id="Trazado_2385" data-name="Trazado 2385" d="M236.143,152.62l-11.583.173,4.671,10.836c1.428.467,7.82-1.8,11.049-5.338Z" transform="translate(32.407 44.376)" fill="#cd5b51"/>
  <path id="Trazado_2386" data-name="Trazado 2386" d="M186.57,153.368l6.325,7.94,6.339-2.722-4.671-10.836Z" transform="translate(62.404 49.419)" fill="#cd5b51"/>
  <path id="Trazado_2387" data-name="Trazado 2387" d="M291.907,83.218c-.107.774-.614,1.334-1.121,1.334s-.827-.734-.721-1.508.627-1.334,1.134-1.334S292.027,82.444,291.907,83.218Z" transform="translate(54.31 20.658)" fill="#1a2e35"/>
  <path id="Trazado_2388" data-name="Trazado 2388" d="M292.784,83.36a29.175,29.175,0,0,1-4.684,6.192,4.444,4.444,0,0,0,3.616,1.094Z" transform="translate(53.66 21.21)" fill="#ba221f"/>
  <path id="Trazado_2389" data-name="Trazado 2389" d="M291.537,90.533c-1.735,0-3.31-2.5-3.576-5.7a6.953,6.953,0,0,1,1.188-5.071,1.962,1.962,0,0,1,1.441-.694h0c1.735,0,3.31,2.5,3.576,5.7h0a6.9,6.9,0,0,1-1.188,5.058,1.908,1.908,0,0,1-1.441.707ZM290.6,79.59h0a1.441,1.441,0,0,0-1.081.534,6.526,6.526,0,0,0-1.054,4.671c.254,2.829,1.655,5.218,3.069,5.218h0a1.455,1.455,0,0,0,1.068-.534,6.552,6.552,0,0,0,1.054-4.671c-.28-2.829-1.615-5.218-3.056-5.218Z" transform="translate(53.586 19.775)" fill="#1a2e35"/>
  <path id="Trazado_2390" data-name="Trazado 2390" d="M294.453,80.984a.494.494,0,0,0,.307,0,.467.467,0,0,0,.12-.641,4.764,4.764,0,0,0-3.643-2.2.467.467,0,1,0,0,.921,3.87,3.87,0,0,1,2.9,1.788.44.44,0,0,0,.32.133Z" transform="translate(54.526 19.462)" fill="#1a2e35"/>
  <path id="Trazado_2391" data-name="Trazado 2391" d="M318.54,86.66c-1.962,9.448-2.669,15.066-8.18,19.43a12.557,12.557,0,0,1-20.391-8.861c-.814-8.781,2.549-22.766,12.451-25.529A12.7,12.7,0,0,1,318.54,86.66Z" transform="translate(54.246 17.122)" fill="#cd5b51"/>
  <path id="Trazado_2392" data-name="Trazado 2392" d="M330.081,204.22a119.6,119.6,0,0,0-2.669-31.56H293.85a126.118,126.118,0,0,1,3.83,31.56Z" transform="translate(55.583 51.079)" fill="#007cff"/>
  <path id="Trazado_2393" data-name="Trazado 2393" d="M330.081,204.22a119.6,119.6,0,0,0-2.669-31.56H293.85a126.118,126.118,0,0,1,3.83,31.56Z" transform="translate(55.583 51.079)" fill="#fff" opacity="0.3"/>
  <path id="Trazado_2394" data-name="Trazado 2394" d="M296.909,89.716c-1.842-.921-4.15-10.155-3.523-13.452s8.087-6.806,15.413-5.471,10.476,3.9,11.89,10.556c1.468,6.926-3.87,18.442-6.512,19.323a11.663,11.663,0,0,1-9.595-.8C302.247,98.39,300.913,87.807,296.909,89.716Z" transform="translate(55.393 16.909)" fill="#1a2e35"/>
  <path id="Trazado_2395" data-name="Trazado 2395" d="M295.779,80.985c-3.576.2-6.979-5.485-3.7-10.556a8.968,8.968,0,0,1,8.888-4s-1.495,2.923,3.5,2.309,14.266.787,17.508,4.27c4,4.3,1.588,12.758-4.444,10.676S295.779,80.985,295.779,80.985Z" transform="translate(54.548 15.511)" fill="#1a2e35"/>
  <path id="Trazado_2396" data-name="Trazado 2396" d="M295.227,79.988a5.245,5.245,0,0,1-3.857-1.975,7.82,7.82,0,0,1-1.188-8.154.267.267,0,0,1,.347-.133.253.253,0,0,1,.133.334,7.34,7.34,0,0,0,1.094,7.62,4.364,4.364,0,0,0,4.23,1.762.254.254,0,0,1,.307.2.24.24,0,0,1-.187.307A3.257,3.257,0,0,1,295.227,79.988Z" transform="translate(54.139 16.642)" fill="#1a2e35"/>
  <path id="Trazado_2397" data-name="Trazado 2397" d="M302.447,85.05a9.582,9.582,0,0,1-2.215,6.752c-2.1,2.455-4.844.974-5.685-1.988-.761-2.669-.574-7.153,2.215-8.527S302.233,82.047,302.447,85.05Z" transform="translate(55.687 20.374)" fill="#cd5b51"/>
  <path id="Trazado_2398" data-name="Trazado 2398" d="M276.73,204.22h37.245a122.692,122.692,0,0,0,1.335-31.56H281.094S279.2,185.991,276.73,204.22Z" transform="translate(49.857 51.079)" fill="#007cff"/>
  <path id="Trazado_2399" data-name="Trazado 2399" d="M276.73,204.22h37.245a122.692,122.692,0,0,0,1.335-31.56H281.094S279.2,185.991,276.73,204.22Z" transform="translate(49.857 51.079)" fill="#fff" opacity="0.3"/>
</svg>
