<svg xmlns="http://www.w3.org/2000/svg" width="710" height="210.308" viewBox="0 0 710 210.308">
  <g id="Grupo_10190" data-name="Grupo 10190" transform="translate(-210 -2652.692)">
    <g id="Grupo_3892" data-name="Grupo 3892" transform="translate(67 -6484)">
      <ellipse id="Elipse_559" data-name="Elipse 559" cx="96" cy="93.5" rx="96" ry="93.5" transform="translate(143 9160)" fill="#17a94c"/>
      <text id="Consejo_Técnico_de_la_Contaduría_Pública_" data-name="Consejo Técnico de la Contaduría Pública, " transform="translate(167 9217)" fill="#fff" font-size="16" font-family="OpenSans-Bold, Open Sans" font-weight="700"><tspan x="8.777" y="17">Consejo Técnico </tspan><tspan x="6.441" y="39">de la Contaduría </tspan><tspan x="41.008" y="61">Pública, </tspan></text>
    </g>
    <path id="Trazado_5333" data-name="Trazado 5333" d="M301,606V584H819v22" transform="translate(5 2070.192)" fill="none" stroke="#ca9c2c" stroke-miterlimit="10" stroke-width="3"/>
    <g id="Grupo_3893" data-name="Grupo 3893" transform="translate(40 -6484)">
      <ellipse id="Elipse_560" data-name="Elipse 560" cx="96" cy="93.5" rx="96" ry="93.5" transform="translate(430 9160)" fill="#17a94c"/>
      <text id="Ministerio_de_Comercio_Industria_y_Turismo_" data-name="Ministerio de Comercio, Industria y Turismo, " transform="translate(454 9217)" fill="#fff" font-size="16" font-family="OpenSans-Bold, Open Sans" font-weight="700"><tspan x="19.746" y="17">Ministerio de </tspan><tspan x="32.406" y="39">Comercio, </tspan><tspan x="29.289" y="61">Industria y </tspan><tspan x="37.43" y="83">Turismo, </tspan></text>
    </g>
    <g id="Grupo_3894" data-name="Grupo 3894" transform="translate(-1 -6484)">
      <ellipse id="Elipse_561" data-name="Elipse 561" cx="96" cy="93.5" rx="96" ry="93.5" transform="translate(729 9160)" fill="#17a94c"/>
      <text id="Representante_de_las_facultades_Programas_de_Contaduría_Pública_en_el_país_" data-name="Representante de las facultades, Programas de Contaduría Pública en el país," transform="translate(753 9217)" fill="#fff" font-size="16" font-family="OpenSans-Bold, Open Sans" font-weight="700"><tspan x="11.848" y="17">Representante </tspan><tspan x="1.672" y="39">de las facultades, </tspan><tspan x="15.875" y="61">Programas de </tspan><tspan x="26.16" y="83">Contaduría </tspan></text>
    </g>
    <line id="Línea_61" data-name="Línea 61" y1="21" transform="translate(566 2654.192)" fill="none" stroke="#ca9c2c" stroke-miterlimit="10" stroke-width="3"/>
  </g>
</svg>
