<svg xmlns="http://www.w3.org/2000/svg" width="689" height="287" viewBox="0 0 689 287">
  <g id="Grupo_10189" data-name="Grupo 10189" transform="translate(-212 -1320)">
    <rect id="Rectángulo_1851" data-name="Rectángulo 1851" width="636" height="42" rx="10" transform="translate(265 1320)" fill="#ffecb3"/>
    <rect id="Rectángulo_1852" data-name="Rectángulo 1852" width="636" height="42" rx="10" transform="translate(265 1369)" fill="#ffecb3"/>
    <rect id="Rectángulo_1853" data-name="Rectángulo 1853" width="636" height="42" rx="10" transform="translate(265 1418)" fill="#ffecb3"/>
    <rect id="Rectángulo_1854" data-name="Rectángulo 1854" width="636" height="42" rx="10" transform="translate(265 1467)" fill="#ffecb3"/>
    <rect id="Rectángulo_1855" data-name="Rectángulo 1855" width="636" height="42" rx="10" transform="translate(265 1516)" fill="#ffecb3"/>
    <rect id="Rectángulo_1856" data-name="Rectángulo 1856" width="636" height="42" rx="10" transform="translate(265 1565)" fill="#ffecb3"/>
    <text id="Banco_mundial_BM_en_convenio_con_los_Ministerios_de_Economía_o_similar._" data-name="Banco mundial (BM), en convenio con los Ministerios de Economía o similar. 
" transform="translate(285 1330)" fill="#00223d" font-size="16" font-family="OpenSans-Bold, Open Sans" font-weight="700"><tspan x="0" y="17">Banco mundial (BM), en convenio con los Ministerios de Economía o similar. </tspan></text>
    <text id="Fondo_Monetario_Internacional_FMI_._" data-name="Fondo Monetario Internacional (FMI). " transform="translate(285 1379)" fill="#00223d" font-size="16" font-family="OpenSans-Bold, Open Sans" font-weight="700"><tspan x="0" y="17">Fondo Monetario Internacional (FMI). </tspan></text>
    <text id="Grupo_de_los_20_G-20_:_hoy_lo_componen_24_naciones_de_varios_continentes._" data-name="Grupo de los 20 (G-20): hoy lo componen 24 naciones de varios continentes. " transform="translate(285 1428)" fill="#00223d" font-size="16" font-family="OpenSans-Bold, Open Sans" font-weight="700"><tspan x="0" y="17">Grupo de los 20 (G-20): hoy lo componen 24 naciones de varios continentes. </tspan></text>
    <text id="Comité_de_Basilea._" data-name="Comité de Basilea. " transform="translate(285 1477)" fill="#00223d" font-size="16" font-family="OpenSans-Bold, Open Sans" font-weight="700"><tspan x="0" y="17">Comité de Basilea. </tspan></text>
    <text id="Organización_Internacional_de_Comisiones_de_Valores_IOSCO_._" data-name="Organización Internacional de Comisiones de Valores (IOSCO). " transform="translate(285 1526)" fill="#00223d" font-size="16" font-family="OpenSans-Bold, Open Sans" font-weight="700"><tspan x="0" y="17">Organización Internacional de Comisiones de Valores (IOSCO). </tspan></text>
    <text id="Banco_interamericano_de_Desarrollo_BID_." data-name="Banco interamericano de Desarrollo (BID)." transform="translate(285 1575)" fill="#00223d" font-size="16" font-family="OpenSans-Bold, Open Sans" font-weight="700"><tspan x="0" y="17">Banco interamericano de Desarrollo (BID).</tspan></text>
    <g id="select" transform="translate(247.316 1357.464) rotate(180)">
      <path id="Trazado_612" data-name="Trazado 612" d="M22.636,2.226H1.113A1.113,1.113,0,0,1,1.113,0H22.636a1.113,1.113,0,0,1,0,2.226Zm0,0" transform="translate(11.567 15.777)" fill="#ff6712"/>
      <path id="Trazado_613" data-name="Trazado 613" d="M7.05,14.1a1.1,1.1,0,0,1-.787-.326L.326,7.838a1.114,1.114,0,0,1,0-1.575L6.263.326A1.114,1.114,0,0,1,7.838,1.9L2.688,7.052,7.838,12.2a1.112,1.112,0,0,1-.788,1.9Zm0,0" transform="translate(10.861 9.839)" fill="#ff6712"/>
      <path id="Trazado_614" data-name="Trazado 614" d="M16.935,33.781A16.89,16.89,0,1,1,32.7,10.712a1.154,1.154,0,0,1-2.149.843,14.586,14.586,0,1,0,0,10.673,1.154,1.154,0,0,1,2.149.843,16.848,16.848,0,0,1-15.762,10.71Zm0,0" transform="translate(0 0)"/>
    </g>
    <g id="select-2" data-name="select" transform="translate(247.316 1405.464) rotate(180)">
      <path id="Trazado_612-2" data-name="Trazado 612" d="M22.636,2.226H1.113A1.113,1.113,0,0,1,1.113,0H22.636a1.113,1.113,0,0,1,0,2.226Zm0,0" transform="translate(11.567 15.777)" fill="#ff6712"/>
      <path id="Trazado_613-2" data-name="Trazado 613" d="M7.05,14.1a1.1,1.1,0,0,1-.787-.326L.326,7.838a1.114,1.114,0,0,1,0-1.575L6.263.326A1.114,1.114,0,0,1,7.838,1.9L2.688,7.052,7.838,12.2a1.112,1.112,0,0,1-.788,1.9Zm0,0" transform="translate(10.861 9.839)" fill="#ff6712"/>
      <path id="Trazado_614-2" data-name="Trazado 614" d="M16.935,33.781A16.89,16.89,0,1,1,32.7,10.712a1.154,1.154,0,0,1-2.149.843,14.586,14.586,0,1,0,0,10.673,1.154,1.154,0,0,1,2.149.843,16.848,16.848,0,0,1-15.762,10.71Zm0,0" transform="translate(0 0)"/>
    </g>
    <g id="select-3" data-name="select" transform="translate(247.316 1453.464) rotate(180)">
      <path id="Trazado_612-3" data-name="Trazado 612" d="M22.636,2.226H1.113A1.113,1.113,0,0,1,1.113,0H22.636a1.113,1.113,0,0,1,0,2.226Zm0,0" transform="translate(11.567 15.777)" fill="#ff6712"/>
      <path id="Trazado_613-3" data-name="Trazado 613" d="M7.05,14.1a1.1,1.1,0,0,1-.787-.326L.326,7.838a1.114,1.114,0,0,1,0-1.575L6.263.326A1.114,1.114,0,0,1,7.838,1.9L2.688,7.052,7.838,12.2a1.112,1.112,0,0,1-.788,1.9Zm0,0" transform="translate(10.861 9.839)" fill="#ff6712"/>
      <path id="Trazado_614-3" data-name="Trazado 614" d="M16.935,33.781A16.89,16.89,0,1,1,32.7,10.712a1.154,1.154,0,0,1-2.149.843,14.586,14.586,0,1,0,0,10.673,1.154,1.154,0,0,1,2.149.843,16.848,16.848,0,0,1-15.762,10.71Zm0,0" transform="translate(0 0)"/>
    </g>
    <g id="select-4" data-name="select" transform="translate(247.316 1501.464) rotate(180)">
      <path id="Trazado_612-4" data-name="Trazado 612" d="M22.636,2.226H1.113A1.113,1.113,0,0,1,1.113,0H22.636a1.113,1.113,0,0,1,0,2.226Zm0,0" transform="translate(11.567 15.777)" fill="#ff6712"/>
      <path id="Trazado_613-4" data-name="Trazado 613" d="M7.05,14.1a1.1,1.1,0,0,1-.787-.326L.326,7.838a1.114,1.114,0,0,1,0-1.575L6.263.326A1.114,1.114,0,0,1,7.838,1.9L2.688,7.052,7.838,12.2a1.112,1.112,0,0,1-.788,1.9Zm0,0" transform="translate(10.861 9.839)" fill="#ff6712"/>
      <path id="Trazado_614-4" data-name="Trazado 614" d="M16.935,33.781A16.89,16.89,0,1,1,32.7,10.712a1.154,1.154,0,0,1-2.149.843,14.586,14.586,0,1,0,0,10.673,1.154,1.154,0,0,1,2.149.843,16.848,16.848,0,0,1-15.762,10.71Zm0,0" transform="translate(0 0)"/>
    </g>
    <g id="select-5" data-name="select" transform="translate(247.316 1549.464) rotate(180)">
      <path id="Trazado_612-5" data-name="Trazado 612" d="M22.636,2.226H1.113A1.113,1.113,0,0,1,1.113,0H22.636a1.113,1.113,0,0,1,0,2.226Zm0,0" transform="translate(11.567 15.777)" fill="#ff6712"/>
      <path id="Trazado_613-5" data-name="Trazado 613" d="M7.05,14.1a1.1,1.1,0,0,1-.787-.326L.326,7.838a1.114,1.114,0,0,1,0-1.575L6.263.326A1.114,1.114,0,0,1,7.838,1.9L2.688,7.052,7.838,12.2a1.112,1.112,0,0,1-.788,1.9Zm0,0" transform="translate(10.861 9.839)" fill="#ff6712"/>
      <path id="Trazado_614-5" data-name="Trazado 614" d="M16.935,33.781A16.89,16.89,0,1,1,32.7,10.712a1.154,1.154,0,0,1-2.149.843,14.586,14.586,0,1,0,0,10.673,1.154,1.154,0,0,1,2.149.843,16.848,16.848,0,0,1-15.762,10.71Zm0,0" transform="translate(0 0)"/>
    </g>
    <g id="select-6" data-name="select" transform="translate(247.316 1597.464) rotate(180)">
      <path id="Trazado_612-6" data-name="Trazado 612" d="M22.636,2.226H1.113A1.113,1.113,0,0,1,1.113,0H22.636a1.113,1.113,0,0,1,0,2.226Zm0,0" transform="translate(11.567 15.777)" fill="#ff6712"/>
      <path id="Trazado_613-6" data-name="Trazado 613" d="M7.05,14.1a1.1,1.1,0,0,1-.787-.326L.326,7.838a1.114,1.114,0,0,1,0-1.575L6.263.326A1.114,1.114,0,0,1,7.838,1.9L2.688,7.052,7.838,12.2a1.112,1.112,0,0,1-.788,1.9Zm0,0" transform="translate(10.861 9.839)" fill="#ff6712"/>
      <path id="Trazado_614-6" data-name="Trazado 614" d="M16.935,33.781A16.89,16.89,0,1,1,32.7,10.712a1.154,1.154,0,0,1-2.149.843,14.586,14.586,0,1,0,0,10.673,1.154,1.154,0,0,1,2.149.843,16.848,16.848,0,0,1-15.762,10.71Zm0,0" transform="translate(0 0)"/>
    </g>
  </g>
</svg>
