<svg xmlns="http://www.w3.org/2000/svg" width="796" height="114" viewBox="0 0 796 114">
  <g id="Grupo_10194" data-name="Grupo 10194" transform="translate(-172 -2893)">
    <rect id="Rectángulo_2445" data-name="Rectángulo 2445" width="796" height="114" rx="8" transform="translate(172 2893)" fill="#ffecb3"/>
    <text id="Normas_básicas_y_técnicas_según_Decreto_2649_de_1993" data-name="Normas básicas y técnicas según Decreto 2649 de 1993" transform="translate(440 2936)" fill="#00223d" font-size="16" font-family="OpenSans-Bold, Open Sans" font-weight="700"><tspan x="0" y="17">Normas básicas y técnicas según Decreto 2649 de 1993</tspan></text>
    <g id="Grupo_1447" data-name="Grupo 1447" transform="translate(168 2040)">
      <g id="Grupo_1446" data-name="Grupo 1446" transform="translate(110 865.933)">
        <g id="Grupo_1078" data-name="Grupo 1078">
          <g id="Grupo_1077" data-name="Grupo 1077">
            <path id="Trazado_5335" data-name="Trazado 5335" d="M205.864,1222.167,168.241,1157a11.575,11.575,0,0,0-20.048,0l-37.623,65.165a11.574,11.574,0,0,0,10.023,17.361h75.246a11.574,11.574,0,0,0,10.025-17.361Zm-4.995,8.691a5.747,5.747,0,0,1-5.03,2.9H120.593a5.807,5.807,0,0,1-5.028-8.711l37.623-65.165a5.807,5.807,0,0,1,10.058,0l37.623,65.165A5.746,5.746,0,0,1,200.869,1230.858Z" transform="translate(-109.001 -1151.215)" fill="#ff6b00"/>
          </g>
        </g>
        <g id="Grupo_1080" data-name="Grupo 1080" transform="translate(46.333 28.779)">
          <g id="Grupo_1079" data-name="Grupo 1079">
            <rect id="Rectángulo_698" data-name="Rectángulo 698" width="5.767" height="28.834" fill="#ff6b00"/>
          </g>
        </g>
        <g id="Grupo_1082" data-name="Grupo 1082" transform="translate(45.372 63.38)">
          <g id="Grupo_1081" data-name="Grupo 1081">
            <path id="Trazado_5336" data-name="Trazado 5336" d="M150.642,1204.014a3.844,3.844,0,1,0,3.845,3.845A3.848,3.848,0,0,0,150.642,1204.014Z" transform="translate(-146.798 -1204.014)" fill="#ff6b00"/>
          </g>
        </g>
      </g>
    </g>
  </g>
</svg>
