<svg xmlns="http://www.w3.org/2000/svg" width="132" height="126" viewBox="0 0 132 126">
  <g id="Grupo_10198" data-name="Grupo 10198" transform="translate(-107 -3677)">
    <g id="Grupo_10146" data-name="Grupo 10146" transform="translate(0 481)">
      <g id="Grupo_4189" data-name="Grupo 4189" transform="translate(107 3196)">
        <g id="Elipse_509" data-name="Elipse 509" fill="#fff" stroke="#ca9c2c" stroke-width="5">
          <ellipse cx="66" cy="63" rx="66" ry="63" stroke="none"/>
          <ellipse cx="66" cy="63" rx="63.5" ry="60.5" fill="none"/>
        </g>
      </g>
      <g id="Grupo_4145" data-name="Grupo 4145" transform="translate(-710 9510)">
        <path id="Trazado_8155" data-name="Trazado 8155" d="M496.238,23.992l-57.919,3.855a6.793,6.793,0,0,0-6.328,7.239l1.026,15.46L434.61,74.43l1.026,15.46a6.793,6.793,0,0,0,7.226,6.328l57.919-3.823a6.8,6.8,0,0,0,6.328-7.226l-1.032-15.46L504.491,45.83l-1.026-15.466a6.793,6.793,0,0,0-7.226-6.372Z" transform="translate(417.85 -6323)" fill="#f9fdff"/>
        <path id="Trazado_8145" data-name="Trazado 8145" d="M466.46,35.289l1.657-.108,2.829,4.123-.28-4.3L472.3,34.9l.491,7.328-1.644.108-2.836-4.047.28,4.219-1.65.108Z" transform="translate(405.341 -6326.962)" fill="#f85b30"/>
        <path id="Trazado_8146" data-name="Trazado 8146" d="M477.19,36.3a1.491,1.491,0,0,1,1.6-1.714s2.371-.115,3.256-.057l.1,1.37-2.8.185c-.523.038-.5.325-.484.6l.057.828,2.849-.083.089,1.357-2.836.28.057.835c.038.529.363.5.637.478L482.4,40.2l.1,1.357c-.771.153-3.135.376-3.135.376a1.512,1.512,0,0,1-1.912-1.421Z" transform="translate(401.455 -6326.823)" fill="#f85b30"/>
        <path id="Trazado_8147" data-name="Trazado 8147" d="M487.353,33.752l1.791,5.1.784-5.289,1.746-.115-.338,1.752,1.332,3.435.8-5.308,1.733-.115-1.427,7.449-1.944.134-1.026-2.676-.561,2.778-1.944.134-2.683-7.182Z" transform="translate(398.39 -6326.349)" fill="#f85b30"/>
        <path id="Trazado_8148" data-name="Trazado 8148" d="M501.634,34.909c-.1-1.447.733-1.963,1.854-2.058a9.482,9.482,0,0,1,2.976.108l.083,1.274c-.637,0-1.912,0-2.434.064s-.86.083-.828.637v.249c.032.459.191.593.746.554l1.064-.07a1.77,1.77,0,0,1,1.912,1.912l.032.414a1.826,1.826,0,0,1-1.912,2.23,8.4,8.4,0,0,1-2.97-.121l-.083-1.275c.4,0,1.644,0,2.549-.057.427,0,.758-.14.733-.586v-.293c0-.357-.153-.567-.637-.535l-1.026.07a1.8,1.8,0,0,1-2.065-1.912Z" transform="translate(392.586 -6326.194)" fill="#f85b30"/>
        <rect id="Rectángulo_2574" data-name="Rectángulo 2574" width="62.202" height="2.944" transform="matrix(0.998, -0.066, 0.066, 0.998, 853.78, -6280.153)" fill="#f85b30"/>
        <rect id="Rectángulo_2579" data-name="Rectángulo 2579" width="4.767" height="6.22" transform="matrix(0.998, -0.066, 0.066, 0.998, 890.194, -6239.46)" fill="#f85b30"/>
        <rect id="Rectángulo_2580" data-name="Rectángulo 2580" width="4.767" height="8.851" transform="matrix(0.998, -0.066, 0.066, 0.998, 895.926, -6242.483)" fill="#f85b30"/>
        <rect id="Rectángulo_2581" data-name="Rectángulo 2581" width="4.767" height="11.477" transform="matrix(0.998, -0.066, 0.066, 0.998, 901.663, -6245.534)" fill="#f85b30"/>
        <rect id="Rectángulo_2582" data-name="Rectángulo 2582" width="4.767" height="14.567" transform="matrix(0.998, -0.066, 0.066, 0.998, 907.365, -6249.001)" fill="#f85b30"/>
        <rect id="Rectángulo_2583" data-name="Rectángulo 2583" width="4.778" height="16.769" transform="translate(914.115 -6252.683) rotate(-4.004)" fill="#f85b30"/>
        <path id="Trazado_8156" data-name="Trazado 8156" d="M513.352,97.77l-2.6,1.529,1.039.586a10.559,10.559,0,0,1-8.042,4.129.319.319,0,1,0,0,.637h.427a11.152,11.152,0,0,0,8.157-4.423l1.058.6Z" transform="translate(391.93 -6349.769)" fill="#f85b30"/>
        <rect id="Rectángulo_2577" data-name="Rectángulo 2577" width="28.568" height="2.504" transform="matrix(0.998, -0.066, 0.066, 0.998, 888.469, -6265.436)" fill="#18627d"/>
        <rect id="Rectángulo_2576" data-name="Rectángulo 2576" width="28.568" height="2.504" transform="matrix(0.998, -0.066, 0.066, 0.998, 888.141, -6270.304)" fill="#18627d"/>
        <rect id="Rectángulo_2575" data-name="Rectángulo 2575" width="28.568" height="2.504" transform="matrix(0.998, -0.066, 0.066, 0.998, 887.825, -6275.179)" fill="#18627d"/>
        <rect id="Rectángulo_2578" data-name="Rectángulo 2578" width="28.568" height="2.504" transform="matrix(0.998, -0.066, 0.066, 0.998, 888.791, -6260.562)" fill="#18627d"/>
        <path id="Trazado_8149" data-name="Trazado 8149" d="M470.738,66.62a12.821,12.821,0,0,0-9.438-3.256l.867,13.044h0l11.8,4.888A12.834,12.834,0,0,0,475,75.56v-.2a12.84,12.84,0,0,0-4.263-8.737Z" transform="translate(407.212 -6337.277)" fill="#f85b30"/>
        <path id="Trazado_8151" data-name="Trazado 8151" d="M457.89,83.85h0l-8.38,9.559a12.86,12.86,0,0,0,20.182-4.684Z" transform="translate(411.489 -6344.719)" fill="#ffca00"/>
        <path id="Trazado_8150" data-name="Trazado 8150" d="M443.344,71.467a12.955,12.955,0,0,0-.879,5.608c0,.07,0,.134,0,.2A12.834,12.834,0,0,0,446.925,86l8.38-9.559-.848-13.057A12.866,12.866,0,0,0,443.344,71.467Z" transform="translate(414.055 -6337.293)" fill="#55d6d2"/>
        <path id="Trazado_8153" data-name="Trazado 8153" d="M435.554,123.262c.1.076.21.14.319.217L455.4,122.2a20.737,20.737,0,0,0,5.219-6.812,8.24,8.24,0,0,1,.357-3.046,8.423,8.423,0,0,0,.07-4.971,21.525,21.525,0,0,1-1.376-4.69,7.1,7.1,0,0,1,.1-2.485,10.374,10.374,0,0,0-3.467-3.53,18.168,18.168,0,0,0-9.928-2.791c-2.364.134-4.869.574-7.322.6-.115.064-.229.127-.35.185a21.87,21.87,0,0,0-9.444,9.266,22.378,22.378,0,0,0-1.134,4.276c-.064.943-.076,1.912-.051,2.861a32.027,32.027,0,0,0,4.747,10.145C433.7,121.95,434.63,122.625,435.554,123.262Z" transform="translate(419.27 -6348.35)" fill="#f9fdff"/>
        <path id="Trazado_8152" data-name="Trazado 8152" d="M462.276,114.374c-.153-.408-.306-.816-.446-1.224l-30.39,2.02.229,3.473,30.951-2.058A6.023,6.023,0,0,0,462.276,114.374Z" transform="translate(418.044 -6355.348)" fill="#ff8d23"/>
        <path id="Trazado_8154" data-name="Trazado 8154" d="M461.36,96.67a18.168,18.168,0,0,0-9.928-2.791c-1.874.1-3.823.4-5.793.535L442,98.582a17.843,17.843,0,0,0,22.253.752A10.037,10.037,0,0,0,461.36,96.67Z" transform="translate(414.214 -6348.35)" fill="#ffca00"/>
        <path id="Trazado_8158" data-name="Trazado 8158" d="M418.437,143.531l-7.794,8.921a5.388,5.388,0,0,0,8.08,7.067l7.794-8.921a5.388,5.388,0,0,0-8.08-7.067Z" transform="translate(430 -6368.795)" fill="#f85b30"/>
        <path id="Trazado_8157" data-name="Trazado 8157" d="M443.382,90.207a17.9,17.9,0,1,0,19.041,16.67,17.9,17.9,0,0,0-19.041-16.67Zm2.2,33.06a15.237,15.237,0,1,1,14.185-16.212,15.237,15.237,0,0,1-14.185,16.212Z" transform="translate(419.778 -6347.011)" fill="#18627d"/>
      </g>
    </g>
  </g>
</svg>
