<svg xmlns="http://www.w3.org/2000/svg" width="132" height="126" viewBox="0 0 132 126">
  <g id="Grupo_10195" data-name="Grupo 10195" transform="translate(-108 -3149)">
    <g id="Grupo_10143" data-name="Grupo 10143" transform="translate(0 592)">
      <g id="Grupo_4186" data-name="Grupo 4186" transform="translate(108 2557)">
        <g id="Elipse_509" data-name="Elipse 509" fill="#fff" stroke="#ca9c2c" stroke-width="5">
          <ellipse cx="66" cy="63" rx="66" ry="63" stroke="none"/>
          <ellipse cx="66" cy="63" rx="63.5" ry="60.5" fill="none"/>
        </g>
      </g>
      <g id="Grupo_4143" data-name="Grupo 4143" transform="translate(-1325 9009)">
        <path id="Trazado_1321" data-name="Trazado 1321" d="M1015.843,84.282a4.531,4.531,0,0,1-2.675,5.794l-36.052,13.065a4.525,4.525,0,0,1-5.764-2.74L952.789,49.143a4.519,4.519,0,0,1,2.669-5.794L991.545,30.3a4.519,4.519,0,0,1,5.759,2.734Z" transform="translate(493 -6460)" fill="#18627d"/>
        <rect id="Rectángulo_666" data-name="Rectángulo 666" width="41.633" height="10.752" transform="translate(1463.841 -6369.32) rotate(-19.91)" fill="#fff"/>
        <path id="Trazado_1322" data-name="Trazado 1322" d="M984.938,41.02,956.62,51.274l18.913,52.213,39.148-14.18L999.688,47.929Z" transform="translate(491.328 -6464.467)" fill="#fff"/>
        <path id="Trazado_1323" data-name="Trazado 1323" d="M1008.286,51.855l10.835-3.926L1004.36,41.02Z" transform="translate(471.9 -6464.467)" fill="#c8c8ca"/>
        <rect id="Rectángulo_667" data-name="Rectángulo 667" width="36.348" height="3.321" transform="translate(1464.642 -6374.863) rotate(-19.91)" fill="#c8c8ca"/>
        <rect id="Rectángulo_668" data-name="Rectángulo 668" width="36.348" height="3.321" transform="translate(1462.395 -6381.075) rotate(-19.91)" fill="#c8c8ca"/>
        <rect id="Rectángulo_669" data-name="Rectángulo 669" width="36.348" height="3.321" transform="translate(1460.142 -6387.286) rotate(-19.91)" fill="#c8c8ca"/>
        <rect id="Rectángulo_670" data-name="Rectángulo 670" width="36.348" height="3.321" transform="translate(1457.781 -6393.811) rotate(-19.91)" fill="#c8c8ca"/>
        <rect id="Rectángulo_671" data-name="Rectángulo 671" width="24.576" height="3.321" transform="translate(1455.531 -6400.024) rotate(-19.91)" fill="#c8c8ca"/>
        <path id="Trazado_1324" data-name="Trazado 1324" d="M1040.673,117.731c-1.447.635-1.287-1.068-1.429-2.052a3.339,3.339,0,0,0-1.275-2.277c-.984-.593-2.129.593-3.048,1.7a.35.35,0,0,0-.546.059,5.082,5.082,0,0,0-.718,1.406.379.379,0,0,0,.546.421,4.524,4.524,0,0,0,.641-.54,3.781,3.781,0,0,1,.154,1.008c.077,1.827-2.194,2.2-3.315,1.127a1.844,1.844,0,0,0-1.566-.516,3.234,3.234,0,0,0-.9.386,5.561,5.561,0,0,0-.593-1.186.095.095,0,0,0-.16.095,4.551,4.551,0,0,1,.481,1.245,2.669,2.669,0,0,0-.973,3.1.255.255,0,0,0,.308.172c1.388-.563,1.441-1.975,1.014-3.244,1.24-1.334,2.248.854,3.007,1.311a1.856,1.856,0,0,0,1.981.077,3.386,3.386,0,0,0,1.115-4.1c.469-.469.919-.955,1.388-1.435,1.382-1.406,1.779,2.526,1.9,3.066.249,1.453,1.429,1.7,2.372.646a.3.3,0,0,0-.385-.457Zm-12.057,1.951a4.47,4.47,0,0,1,.433-.735C1029.369,119.729,1029.233,119.978,1028.616,119.682Z" transform="translate(462.358 -6493.858)" fill="#f85b30"/>
        <path id="Trazado_1325" data-name="Trazado 1325" d="M989.776,37.307l-2.064.747-.593-1.578a2.313,2.313,0,0,0-3.007-1.263L980.2,36.631a2.313,2.313,0,0,0-1.5,2.894c.231.629.433,1.186.593,1.578l-2.064.747a1.085,1.085,0,0,0-.646,1.382l1.109,3.054a1.073,1.073,0,0,0,1.376.646l12.561-4.555A1.085,1.085,0,0,0,992.279,41l-1.121-3.013a1.085,1.085,0,0,0-1.382-.676Zm-7.289-.546a1.317,1.317,0,1,1-.789,1.684A1.317,1.317,0,0,1,982.488,36.761Z" transform="translate(483.228 -6462.035)" fill="#f85b30"/>
        <path id="Trazado_1326" data-name="Trazado 1326" d="M1040.91,94.455,1044.967,87l19.144,10.26-2.147,10.479-8.682-2.859-6.286.4-3.339-9.412Z" transform="translate(457.027 -6483.178)" fill="#fff8e6"/>
        <path id="Trazado_1327" data-name="Trazado 1327" d="M1040.91,94.455,1044.967,87l13.112,8.4a6.289,6.289,0,0,0-1.506,1.726,29.657,29.657,0,0,0-2.6,3.8,38.688,38.688,0,0,1-2.259,3.256l-4.27.451-5.782-5.13,1.886-4.7Z" transform="translate(457.027 -6483.178)" fill="#fff8e6"/>
        <path id="Trazado_1328" data-name="Trazado 1328" d="M1035.28,87l-11.357,3.149-4.442,4.78s-2.289,5.136-2.372,6.387c-.042.635.955,1.856,2.651.593,1.044-.783,1.7-3.659,1.7-3.659l2.9-2.177,4.341-1.186,4.483.546,2.912-6.352Z" transform="translate(466.713 -6483.178)" fill="#fff8e6"/>
        <path id="Trazado_1329" data-name="Trazado 1329" d="M1110.333,111.883c0-6.314-39.886-15.633-39.886-15.633l-6.577,15.633L1101.33,131.4S1110.336,118.2,1110.333,111.883Z" transform="translate(447.683 -6486.942)" fill="#55d6d2"/>
        <rect id="Rectángulo_672" data-name="Rectángulo 672" width="1.293" height="3.031" transform="matrix(0.803, -0.596, 0.596, 0.803, 1502.238, -6393.838)" fill="#1e495c"/>
        <rect id="Rectángulo_673" data-name="Rectángulo 673" width="16.819" height="3.031" transform="matrix(0.803, -0.596, 0.596, 0.803, 1482.8, -6379.409)" fill="#fdb813"/>
        <rect id="Rectángulo_674" data-name="Rectángulo 674" width="16.819" height="3.031" transform="matrix(0.803, -0.596, 0.596, 0.803, 1482.8, -6379.409)" fill="#f85b30"/>
        <path id="Trazado_1330" data-name="Trazado 1330" d="M1025.62,106.7l2.3,3.1-.486-.16-1.8-2.432Z" transform="translate(463.249 -6491.195)" fill="#1e495c"/>
        <rect id="Rectángulo_675" data-name="Rectángulo 675" width="16.819" height="3.861" transform="matrix(0.803, -0.596, 0.596, 0.803, 1488.894, -6384.449)" fill="#f85b30"/>
        <path id="Trazado_1331" data-name="Trazado 1331" d="M1016.132,117.632l-3.292.557,1.483-2.989Z" transform="translate(468.45 -6494.654)" fill="#1e495c"/>
        <path id="Trazado_1332" data-name="Trazado 1332" d="M1045.441,95.72l-.255.184-3.292,2.449-.172.125a4.107,4.107,0,0,0-.658.629c-.427.557-.486,1.489.113,1.518s.4-.884.943-1.186l.362-.267,3.3-2.449.682-.5a.462.462,0,0,0,.095-.641l-.047-.059-2.781-3.748-.795.593Z" transform="translate(457.097 -6485.12)" fill="#1e495c"/>
        <path id="Trazado_1333" data-name="Trazado 1333" d="M1030.816,113.691s-5.646-.836-6.666-1c-2.2-.35-2.283-2.289-.747-3.072.729-.368,5.569-.113,5.569-.113l4.406-1.151,1.186-2.064,12.65,2.556-2.182,3.932Z" transform="translate(464.576 -6491.028)" fill="#fff8e6"/>
      </g>
    </g>
  </g>
</svg>
