<svg xmlns="http://www.w3.org/2000/svg" width="310.953" height="218.906" viewBox="0 0 310.953 218.906">
  <g id="MF1-AUD-IMA-12" transform="translate(0 0.022)">
    <rect id="Rectángulo_1481" data-name="Rectángulo 1481" width="13.608" height="19.253" transform="translate(10.898 199.631)" fill="#234eae"/>
    <rect id="Rectángulo_1482" data-name="Rectángulo 1482" width="13.608" height="19.253" transform="translate(286.447 199.631)" fill="#234eae"/>
    <rect id="Rectángulo_1483" data-name="Rectángulo 1483" width="13.608" height="7.049" transform="translate(10.898 199.631)" fill="#234eae"/>
    <rect id="Rectángulo_1484" data-name="Rectángulo 1484" width="13.608" height="7.049" transform="translate(286.447 199.631)" fill="#234eae"/>
    <rect id="Rectángulo_1485" data-name="Rectángulo 1485" width="310.953" height="14.28" transform="translate(0 185.321)" fill="#ca9c2c"/>
    <path id="Trazado_3485" data-name="Trazado 3485" d="M276.646,172.622a4.219,4.219,0,0,1-4.249,4.189H92.919a4.219,4.219,0,0,1-4.249-4.189V68.581A4.211,4.211,0,0,1,92.919,64.4H272.4a4.211,4.211,0,0,1,4.249,4.181Z" transform="translate(-24.766 -24.812)" fill="#d1d1d1"/>
    <rect id="Rectángulo_1486" data-name="Rectángulo 1486" width="69.391" height="9.064" transform="translate(123.196 175.072)" fill="#d1d1d1"/>
    <rect id="Rectángulo_1487" data-name="Rectángulo 1487" width="36.107" height="46.711" transform="translate(139.838 137.426)" fill="#d1d1d1"/>
    <rect id="Rectángulo_1488" data-name="Rectángulo 1488" width="36.107" height="10.461" transform="translate(139.838 151.72)" fill="#bcbcbc"/>
    <path id="Trazado_3486" data-name="Trazado 3486" d="M216.287,200.211a4.528,4.528,0,1,1-4.528-4.491,4.528,4.528,0,0,1,4.528,4.491Z" transform="translate(-53.844 -57.019)" fill="#bcbcbc"/>
    <rect id="Rectángulo_1489" data-name="Rectángulo 1489" width="177.364" height="80.304" transform="translate(69.217 55.068)" fill="#4770b1"/>
    <path id="Trazado_3487" data-name="Trazado 3487" d="M256.438,82.94l-3.9,3.842-3.9-3.842-3.894,3.842-3.9-3.842-3.9,3.842-3.9-3.842-3.894,3.842-3.9-3.842-3.9,3.842-3.894-3.842-3.9,3.842-3.9-3.842-3.894,3.842-3.9-3.842-3.9,3.842-3.9-3.842-3.894,3.842-3.9-3.842-3.9,3.842-3.894-3.842-3.9,3.842-3.9-3.842-3.894,3.842-3.9-3.842-3.9,3.842-3.894-3.842-3.9,3.842-3.9-3.842-3.9,3.842-3.894-3.842-3.9,3.842-3.9-3.842-3.894,3.842-3.9-3.842-3.9,3.842-3.894-3.842-.189.181v72.6h140.9V83.265Z" transform="translate(-28.416 -20.347)" fill="#ededed"/>
    <path id="Trazado_3488" data-name="Trazado 3488" d="M144.481,126.549h2.476a5.54,5.54,0,0,1-1.306,3.955,4.8,4.8,0,0,1-3.683,1.389q-5.23,0-5.238-6.083v-1.132q0-4.793,2.687-6.038a5.94,5.94,0,0,1,2.551-.491,5.283,5.283,0,0,1,3.562,1.177,4.279,4.279,0,0,1,1.366,3.419h-2.491a3.321,3.321,0,0,0-.755-1.683,2.264,2.264,0,0,0-1.691-.566,2.362,2.362,0,0,0-1.993.83,3.578,3.578,0,0,0-.536,2.008c0,.3-.038.709-.038,1.23v1.17a5.142,5.142,0,0,0,.611,2.974,2.362,2.362,0,0,0,1.962.792,2.091,2.091,0,0,0,1.842-.755A4.8,4.8,0,0,0,144.481,126.549Z" transform="translate(-36.553 -37.993)" fill="#d1d1d1"/>
    <path id="Trazado_3489" data-name="Trazado 3489" d="M161.718,131.822H157.65a5.08,5.08,0,0,1-3.328-.876,3.593,3.593,0,0,1-1.026-2.868V118.35h2.664v9.729a1.336,1.336,0,0,0,.37,1.094,2.106,2.106,0,0,0,1.321.3h4.068Z" transform="translate(-40.612 -38.043)" fill="#d1d1d1"/>
    <path id="Trazado_3490" data-name="Trazado 3490" d="M177.216,131.822h-2.777l-.755-2.325H169.1l-.755,2.325H165.57l4.37-12.34a2.113,2.113,0,0,1,.649-.891,1.509,1.509,0,0,1,.868-.242,1.411,1.411,0,0,1,.838.226,1.9,1.9,0,0,1,.566.906Zm-4.159-4.528-1.615-5.336-1.683,5.336Z" transform="translate(-43.626 -38.043)" fill="#d1d1d1"/>
    <path id="Trazado_3491" data-name="Trazado 3491" d="M192.354,127.821a3.547,3.547,0,0,1-1.419,3.019,5.781,5.781,0,0,1-3.623,1.094,6.634,6.634,0,0,1-3.381-.951,3.834,3.834,0,0,1-1.321-1.389,4.03,4.03,0,0,1-.521-2.053l2.423-.113a1.781,1.781,0,0,0,.883,1.585,3.54,3.54,0,0,0,1.955.566c1.6,0,2.4-.551,2.4-1.66q0-1.366-1.63-1.608l-2.264-.226a4.732,4.732,0,0,1-2.649-1.177,3.857,3.857,0,0,1,.423-5.547,5.457,5.457,0,0,1,3.54-1.132,5.283,5.283,0,0,1,3.442,1.064,3.411,3.411,0,0,1,1.306,2.755l-2.377.113a2,2,0,0,0-2.264-1.645,3.019,3.019,0,0,0-1.826.491,1.426,1.426,0,0,0-.664,1.17,1.276,1.276,0,0,0,.483,1.057,2.264,2.264,0,0,0,1.185.483l2.189.226Q192.354,124.417,192.354,127.821Z" transform="translate(-47.678 -38.012)" fill="#d1d1d1"/>
    <path id="Trazado_3492" data-name="Trazado 3492" d="M207.377,127.821a3.547,3.547,0,0,1-1.419,3.019,5.781,5.781,0,0,1-3.623,1.094,6.611,6.611,0,0,1-3.374-.951,3.774,3.774,0,0,1-1.328-1.389,4.023,4.023,0,0,1-.513-2.053l2.415-.113a1.781,1.781,0,0,0,.883,1.585,3.54,3.54,0,0,0,1.955.566c1.6,0,2.4-.551,2.4-1.66q0-1.366-1.63-1.608l-2.226-.226a4.732,4.732,0,0,1-2.649-1.177,3.857,3.857,0,0,1,.423-5.547,5.457,5.457,0,0,1,3.54-1.132,5.283,5.283,0,0,1,3.442,1.064,3.411,3.411,0,0,1,1.306,2.755l-2.377.113a2,2,0,0,0-2.264-1.645,3.019,3.019,0,0,0-1.826.491,1.426,1.426,0,0,0-.664,1.17,1.276,1.276,0,0,0,.483,1.057,2.264,2.264,0,0,0,1.185.483l2.189.226Q207.377,124.417,207.377,127.821Z" transform="translate(-51.364 -38.012)" fill="#d1d1d1"/>
    <path id="Trazado_3493" data-name="Trazado 3493" d="M216.2,131.822H213.53V118.35H216.2Z" transform="translate(-55.389 -38.043)" fill="#d1d1d1"/>
    <path id="Trazado_3494" data-name="Trazado 3494" d="M230.274,120.7h-4.808a1.728,1.728,0,0,0-1.185.317,1.509,1.509,0,0,0-.332,1.117v1.879h5l-.189,2.377H223.95v5.464h-2.664V121.1a2.853,2.853,0,0,1,.657-2.121,3.3,3.3,0,0,1,2.264-.619h6.038Z" transform="translate(-57.288 -38.043)" fill="#d1d1d1"/>
    <path id="Trazado_3495" data-name="Trazado 3495" d="M238.944,131.822H236.28V118.35h2.664Z" transform="translate(-60.969 -38.043)" fill="#d1d1d1"/>
    <path id="Trazado_3496" data-name="Trazado 3496" d="M253.077,131.822h-4.83a5.315,5.315,0,0,1-3.23-.755,3.445,3.445,0,0,1-.936-2.77V118.35h9V120.7h-6.325v3.162h4.43l-.2,2.347h-4.234v1.872a1.359,1.359,0,0,0,.362,1.094,2.106,2.106,0,0,0,1.321.3h4.642Z" transform="translate(-62.882 -38.043)" fill="#d1d1d1"/>
    <path id="Trazado_3497" data-name="Trazado 3497" d="M269.715,125.027v1.457a11.459,11.459,0,0,1-.34,2.332,4,4,0,0,1-1.057,1.721,5.185,5.185,0,0,1-3.774,1.283,7.553,7.553,0,0,1-4.03-.755,3.167,3.167,0,0,1-1.094-2.777v-9.94H264.7a4.913,4.913,0,0,1,3.608,1.283,4.227,4.227,0,0,1,1.245,2.536A23.67,23.67,0,0,1,269.715,125.027Zm-2.777,2.415a18.47,18.47,0,0,0,.106-2.393,17.639,17.639,0,0,0-.106-2.362,2.264,2.264,0,0,0-.468-1.162,2.43,2.43,0,0,0-1.992-.83h-2.4v7.457a1.079,1.079,0,0,0,.521,1.042,4.227,4.227,0,0,0,1.849.279,2.46,2.46,0,0,0,2.023-.83,2.264,2.264,0,0,0,.468-1.2Z" transform="translate(-66.644 -38.041)" fill="#d1d1d1"/>
    <path id="Trazado_3498" data-name="Trazado 3498" d="M285.024,127.821a3.57,3.57,0,0,1-1.419,3.019,5.819,5.819,0,0,1-3.63,1.094,6.611,6.611,0,0,1-3.374-.951,3.773,3.773,0,0,1-1.321-1.389,4.03,4.03,0,0,1-.521-2.053l2.415-.113a1.781,1.781,0,0,0,.883,1.585,3.54,3.54,0,0,0,1.955.566c1.6,0,2.4-.551,2.4-1.66q0-1.366-1.63-1.608l-2.227-.226a4.733,4.733,0,0,1-2.642-1.177,3.494,3.494,0,0,1-.981-2.672,3.555,3.555,0,0,1,1.4-2.876,5.457,5.457,0,0,1,3.54-1.132,5.283,5.283,0,0,1,3.449,1.064,3.4,3.4,0,0,1,1.3,2.755l-2.377.113a2,2,0,0,0-2.264-1.645,3.019,3.019,0,0,0-1.834.491,1.449,1.449,0,0,0-.664,1.17,1.3,1.3,0,0,0,.483,1.057,2.325,2.325,0,0,0,1.192.483l2.181.226Q285.024,124.417,285.024,127.821Z" transform="translate(-70.406 -38.012)" fill="#d1d1d1"/>
    <rect id="Rectángulo_1490" data-name="Rectángulo 1490" width="128.51" height="2.068" transform="translate(93.15 74.639)" fill="#d1d1d1"/>
    <rect id="Rectángulo_1491" data-name="Rectángulo 1491" width="128.51" height="2.068" transform="translate(93.15 97.153)" fill="#d1d1d1"/>
    <rect id="Rectángulo_1492" data-name="Rectángulo 1492" width="29.141" height="2.362" transform="translate(93.15 105.598)" fill="#d1d1d1"/>
    <rect id="Rectángulo_1493" data-name="Rectángulo 1493" width="29.141" height="2.362" transform="translate(93.15 110.134)" fill="#d1d1d1"/>
    <rect id="Rectángulo_1494" data-name="Rectángulo 1494" width="29.141" height="2.362" transform="translate(93.15 114.663)" fill="#d1d1d1"/>
    <rect id="Rectángulo_1495" data-name="Rectángulo 1495" width="29.141" height="2.362" transform="translate(93.15 119.199)" fill="#d1d1d1"/>
    <rect id="Rectángulo_1496" data-name="Rectángulo 1496" width="29.141" height="2.362" transform="translate(93.15 123.727)" fill="#d1d1d1"/>
    <rect id="Rectángulo_1497" data-name="Rectángulo 1497" width="29.141" height="2.362" transform="translate(93.15 128.263)" fill="#d1d1d1"/>
    <rect id="Rectángulo_1498" data-name="Rectángulo 1498" width="29.141" height="2.362" transform="translate(192.519 105.598)" fill="#d1d1d1"/>
    <rect id="Rectángulo_1499" data-name="Rectángulo 1499" width="29.141" height="2.362" transform="translate(192.519 110.134)" fill="#d1d1d1"/>
    <rect id="Rectángulo_1500" data-name="Rectángulo 1500" width="29.141" height="2.362" transform="translate(192.519 114.663)" fill="#d1d1d1"/>
    <rect id="Rectángulo_1501" data-name="Rectángulo 1501" width="29.141" height="2.362" transform="translate(192.519 119.199)" fill="#d1d1d1"/>
    <rect id="Rectángulo_1502" data-name="Rectángulo 1502" width="29.141" height="2.362" transform="translate(192.519 123.727)" fill="#d1d1d1"/>
    <rect id="Rectángulo_1503" data-name="Rectángulo 1503" width="29.141" height="2.362" transform="translate(192.519 128.263)" fill="#d1d1d1"/>
    <rect id="Rectángulo_1504" data-name="Rectángulo 1504" width="29.141" height="2.362" transform="translate(159.394 105.598)" fill="#d1d1d1"/>
    <rect id="Rectángulo_1505" data-name="Rectángulo 1505" width="29.141" height="2.362" transform="translate(159.394 110.134)" fill="#d1d1d1"/>
    <rect id="Rectángulo_1506" data-name="Rectángulo 1506" width="29.141" height="2.362" transform="translate(159.394 114.663)" fill="#d1d1d1"/>
    <rect id="Rectángulo_1507" data-name="Rectángulo 1507" width="29.141" height="2.362" transform="translate(159.394 119.199)" fill="#d1d1d1"/>
    <rect id="Rectángulo_1508" data-name="Rectángulo 1508" width="29.141" height="2.362" transform="translate(159.394 123.727)" fill="#d1d1d1"/>
    <rect id="Rectángulo_1509" data-name="Rectángulo 1509" width="29.141" height="2.362" transform="translate(159.394 128.263)" fill="#d1d1d1"/>
    <rect id="Rectángulo_1510" data-name="Rectángulo 1510" width="29.141" height="2.362" transform="translate(126.276 105.598)" fill="#d1d1d1"/>
    <rect id="Rectángulo_1511" data-name="Rectángulo 1511" width="29.141" height="2.362" transform="translate(126.276 110.134)" fill="#d1d1d1"/>
    <rect id="Rectángulo_1512" data-name="Rectángulo 1512" width="29.141" height="2.362" transform="translate(126.276 114.663)" fill="#d1d1d1"/>
    <rect id="Rectángulo_1513" data-name="Rectángulo 1513" width="29.141" height="2.362" transform="translate(126.276 119.199)" fill="#d1d1d1"/>
    <rect id="Rectángulo_1514" data-name="Rectángulo 1514" width="29.141" height="2.362" transform="translate(126.276 123.727)" fill="#d1d1d1"/>
    <rect id="Rectángulo_1515" data-name="Rectángulo 1515" width="29.141" height="2.362" transform="translate(126.276 128.263)" fill="#d1d1d1"/>
    <rect id="Rectángulo_1516" data-name="Rectángulo 1516" width="6.959" height="19.82" transform="translate(280.432 134.761)" fill="#f2c088"/>
    <path id="Trazado_3499" data-name="Trazado 3499" d="M379.039,219.739a3.479,3.479,0,1,1,3.479-3.479,3.479,3.479,0,0,1-3.479,3.479Z" transform="translate(-95.128 -61.203)" fill="#f2c088"/>
    <path id="Trazado_3500" data-name="Trazado 3500" d="M379.059,193.529a3.479,3.479,0,1,1,3.479-3.479,3.479,3.479,0,0,1-3.479,3.479Z" transform="translate(-95.133 -54.775)" fill="#f2c088"/>
    <rect id="Rectángulo_1517" data-name="Rectángulo 1517" width="6.959" height="24.423" transform="translate(280.432 155.728)" fill="#f2c088"/>
    <circle id="Elipse_551" data-name="Elipse 551" cx="3.479" cy="3.479" r="3.479" transform="translate(280.432 151.766)" fill="#f2c088"/>
    <path id="Trazado_3501" data-name="Trazado 3501" d="M378.3,248.06h-5.245a1.569,1.569,0,0,0-.566.106L364,251.381c-.483.189-.755.574-.589.951a1.2,1.2,0,0,0,1.162.626H378.3c.664,0,1.2-.37,1.2-.838v-3.215C379.5,248.437,378.939,248.06,378.3,248.06Z" transform="translate(-92.137 -69.856)" fill="#f2c088"/>
    <path id="Trazado_3502" data-name="Trazado 3502" d="M370.839,252.7V247.55h-5.457c-2.513,0-4.528,2.264-4.732,5.155Z" transform="translate(-91.472 -69.731)" fill="#774f4f"/>
    <rect id="Rectángulo_1518" data-name="Rectángulo 1518" width="19.54" height="1.472" transform="translate(269.178 182.755)" fill="#774f4f"/>
    <path id="Trazado_3503" data-name="Trazado 3503" d="M395.623,99.487A12.966,12.966,0,1,1,382.838,86.34a12.966,12.966,0,0,1,12.785,13.148Z" transform="translate(-93.689 -30.192)" fill="#f2c088"/>
    <path id="Trazado_3504" data-name="Trazado 3504" d="M388.44,109.134c0,4.476-3.63,10.566-8.106,10.566h-2.528c-4.476,0-8.106-6.106-8.106-10.566V99.956a8.106,8.106,0,0,1,8.106-8.106h2.528a8.106,8.106,0,0,1,8.106,8.106Z" transform="translate(-93.691 -31.544)" fill="#f2c088"/>
    <path id="Trazado_3505" data-name="Trazado 3505" d="M398.157,109.05s-5.781,14.242-12.793,14.861.2-14.234.2-14.234Z" transform="translate(-96.781 -35.762)" fill="#f2c088"/>
    <rect id="Rectángulo_1519" data-name="Rectángulo 1519" width="8.015" height="10.491" rx="1.25" transform="translate(285.345 83.394)" fill="#f2c088"/>
    <path id="Trazado_3506" data-name="Trazado 3506" d="M370.93,106.13a1.955,1.955,0,1,0,1.925-2.06,1.992,1.992,0,0,0-1.925,2.06Z" transform="translate(-93.992 -34.541)" fill="#703c2c"/>
    <path id="Trazado_3507" data-name="Trazado 3507" d="M386.525,104.747a1.955,1.955,0,1,0,1.087,2.6A2,2,0,0,0,386.525,104.747Z" transform="translate(-97.165 -34.675)" fill="#703c2c"/>
    <path id="Trazado_3508" data-name="Trazado 3508" d="M393.873,91.709c-3.019-4.332-6.83-6.529-11.321-6.529A19.566,19.566,0,0,0,371.88,88.9l-4.453-2.513-.113.558c-.045.226-1.034,5.57,2.264,6.793,1.834.838,4.755,1.26,8.687,1.26a82.756,82.756,0,0,0,9.472-.626c-2.332,4.211,2.8,16.189,2.8,16.189S399.028,99.128,393.873,91.709Z" transform="translate(-93.063 -29.908)" fill="#de4a21"/>
    <path id="Trazado_3509" data-name="Trazado 3509" d="M397.077,107.631a2.672,2.672,0,1,1-2.657-2.921A2.8,2.8,0,0,1,397.077,107.631Z" transform="translate(-99.098 -34.698)" fill="#f2c088"/>
    <path id="Trazado_3510" data-name="Trazado 3510" d="M395.513,133.447a2.626,2.626,0,0,0-2.626-2.626H376.479a2.619,2.619,0,0,0-2.619,2.626V170.5h21.654Z" transform="translate(-94.711 -41.102)" fill="#d91818"/>
    <path id="Trazado_3511" data-name="Trazado 3511" d="M373.93,179.69V185.8a5.63,5.63,0,0,0,5.63,5.638H389.9a5.63,5.63,0,0,0,5.63-5.638V179.69Z" transform="translate(-94.729 -53.087)" fill="#774f4f"/>
    <rect id="Rectángulo_1520" data-name="Rectángulo 1520" width="5.661" height="8.113" rx="1.82" transform="translate(303.592 129.719) rotate(-0.63)" fill="#f2c088"/>
    <rect id="Rectángulo_1521" data-name="Rectángulo 1521" width="6.83" height="20.876" transform="translate(302.808 111.894) rotate(-0.63)" fill="#d91818"/>
    <path id="Trazado_3512" data-name="Trazado 3512" d="M408.574,155a3.419,3.419,0,1,1-3.374,3.449A3.419,3.419,0,0,1,408.574,155Z" transform="translate(-102.398 -47.032)" fill="#de4a21"/>
    <rect id="Rectángulo_1522" data-name="Rectángulo 1522" width="6.83" height="19.442" transform="translate(295.964 93.844) rotate(-20.76)" fill="#d91818"/>
    <path id="Trazado_3513" data-name="Trazado 3513" d="M409.825,161.41A3.419,3.419,0,1,1,411.81,157,3.419,3.419,0,0,1,409.825,161.41Z" transform="translate(-102.396 -46.981)" fill="#d91818"/>
    <path id="Trazado_3514" data-name="Trazado 3514" d="M400.725,137.35a3.411,3.411,0,1,1,1.908-1.792,3.419,3.419,0,0,1-1.908,1.792Z" transform="translate(-100.164 -41.08)" fill="#d91818"/>
    <rect id="Rectángulo_1523" data-name="Rectángulo 1523" width="6.959" height="19.82" transform="translate(292.266 134.761)" fill="#f2c088"/>
    <path id="Trazado_3515" data-name="Trazado 3515" d="M394.719,219.739a3.479,3.479,0,1,1,3.479-3.479A3.479,3.479,0,0,1,394.719,219.739Z" transform="translate(-98.974 -61.203)" fill="#f2c088"/>
    <path id="Trazado_3516" data-name="Trazado 3516" d="M394.739,193.529a3.479,3.479,0,1,1,3.479-3.479,3.479,3.479,0,0,1-3.479,3.479Z" transform="translate(-98.979 -54.775)" fill="#f2c088"/>
    <rect id="Rectángulo_1524" data-name="Rectángulo 1524" width="6.959" height="24.423" transform="translate(292.266 155.728)" fill="#f2c088"/>
    <circle id="Elipse_552" data-name="Elipse 552" cx="3.479" cy="3.479" r="3.479" transform="translate(292.266 151.766)" fill="#f2c088"/>
    <path id="Trazado_3517" data-name="Trazado 3517" d="M393.978,248.06h-5.245a1.645,1.645,0,0,0-.574.106l-8.476,3.215c-.483.189-.755.574-.589.951a1.2,1.2,0,0,0,1.162.626h13.721c.657,0,1.2-.37,1.2-.838v-3.215C395.178,248.437,394.634,248.06,393.978,248.06Z" transform="translate(-95.983 -69.856)" fill="#f2c088"/>
    <path id="Trazado_3518" data-name="Trazado 3518" d="M386.519,252.7V247.55h-5.457c-2.513,0-4.528,2.264-4.732,5.155Z" transform="translate(-95.317 -69.731)" fill="#774f4f"/>
    <rect id="Rectángulo_1525" data-name="Rectángulo 1525" width="19.54" height="1.472" transform="translate(281.013 182.755)" fill="#774f4f"/>
    <rect id="Rectángulo_1526" data-name="Rectángulo 1526" width="9.555" height="13.2" transform="translate(291.074 131.433)" fill="#774f4f"/>
    <rect id="Rectángulo_1527" data-name="Rectángulo 1527" width="9.555" height="12.136" transform="translate(279.239 132.49)" fill="#774f4f"/>
    <rect id="Rectángulo_1528" data-name="Rectángulo 1528" width="8.113" height="5.661" rx="1.82" transform="translate(251.861 125.607) rotate(-36.01)" fill="#f2c088"/>
    <rect id="Rectángulo_1529" data-name="Rectángulo 1529" width="20.876" height="6.83" transform="translate(255.624 122.152) rotate(-36.01)" fill="#d91818"/>
    <path id="Trazado_3519" data-name="Trazado 3519" d="M369.891,157.683a3.419,3.419,0,1,0-.755,4.778A3.419,3.419,0,0,0,369.891,157.683Z" transform="translate(-92.221 -47.345)" fill="#de4a21"/>
    <rect id="Rectángulo_1530" data-name="Rectángulo 1530" width="19.442" height="6.83" transform="matrix(0.239, -0.971, 0.971, 0.239, 271.786, 110.755)" fill="#d91818"/>
    <path id="Trazado_3520" data-name="Trazado 3520" d="M366.443,162.592a3.419,3.419,0,1,0-2.476-4.136A3.419,3.419,0,0,0,366.443,162.592Z" transform="translate(-92.26 -47.243)" fill="#d91818"/>
    <path id="Trazado_3521" data-name="Trazado 3521" d="M372.553,137.61a3.412,3.412,0,1,0-2.112-1.547,3.419,3.419,0,0,0,2.112,1.547Z" transform="translate(-93.752 -41.114)" fill="#d91818"/>
    <path id="Trazado_3522" data-name="Trazado 3522" d="M274.66,125.821A28.952,28.952,0,0,0,237.1,141.059,27.993,27.993,0,0,0,252.124,178.1a28.975,28.975,0,0,0,35.533-11.359l5.887,2.438,3.449-8.008-5.887-2.445A27.978,27.978,0,0,0,274.66,125.821Z" transform="translate(-60.6 -39.34)" fill="#23a8f1"/>
    <ellipse id="Elipse_553" data-name="Elipse 553" cx="21.714" cy="21.42" rx="21.714" ry="21.42" transform="translate(174.619 100.951) rotate(-22.08)" fill="#ededed"/>
    <path id="Trazado_3523" data-name="Trazado 3523" d="M308.67,181.88l31.012,12.831a3.51,3.51,0,0,0,4.528-1.849l2.732-6.34a3.4,3.4,0,0,0-1.819-4.491L314.1,169.2Z" transform="translate(-78.723 -50.515)" fill="#354459"/>
    <rect id="Rectángulo_1531" data-name="Rectángulo 1531" width="26.952" height="3.887" transform="translate(188.93 98.935) rotate(-0.11)" fill="#d1d1d1"/>
    <rect id="Rectángulo_1532" data-name="Rectángulo 1532" width="26.952" height="3.887" transform="translate(188.937 106.467) rotate(-0.11)" fill="#d1d1d1"/>
    <rect id="Rectángulo_1533" data-name="Rectángulo 1533" width="26.952" height="3.887" transform="translate(188.952 113.992) rotate(-0.11)" fill="#d1d1d1"/>
    <rect id="Rectángulo_1534" data-name="Rectángulo 1534" width="26.952" height="3.887" transform="translate(188.966 121.517) rotate(-0.11)" fill="#d1d1d1"/>
    <path id="Trazado_3524" data-name="Trazado 3524" d="M341.37,175.69a.906.906,0,0,1-.128,1.276l-3.1,2.521a.913.913,0,0,1-1.276-.136h0a.906.906,0,0,1,.136-1.276l3.094-2.521a.906.906,0,0,1,1.276.136Z" transform="translate(-85.588 -52.024)" fill="#f2c088"/>
    <path id="Trazado_3525" data-name="Trazado 3525" d="M328.276,92.766a5.766,5.766,0,0,1-5.759,5.774H270.259a5.766,5.766,0,0,1-5.759-5.774v-66.8a5.766,5.766,0,0,1,5.759-5.774H322.5a5.766,5.766,0,0,1,5.774,5.774Z" transform="translate(-67.89 -13.969)" fill="#e4f39b"/>
    <rect id="Rectángulo_1535" data-name="Rectángulo 1535" width="51.896" height="64.968" transform="translate(202.542 13.656)" fill="#ededed"/>
    <path id="Trazado_3526" data-name="Trazado 3526" d="M314.289,22.373q-2.264-.453-4.468-.883a6.609,6.609,0,0,1-3.6-1.359,6.947,6.947,0,0,1-1.442-3.51,5.359,5.359,0,0,0-1.26-3.132,4.144,4.144,0,0,0-3.283-1.291h-.362c-.158,0-.34-.279-.34-.279a4.257,4.257,0,0,0-3.283,1.426,6.038,6.038,0,0,0-1.26,3.344,6.725,6.725,0,0,1-1.434,3.464,6.564,6.564,0,0,1-3.6,1.351c-1.509.287-3.019.574-4.468.875-4.136.83-5.812,3.7-5.585,6.317l19.986-.045h19.993C320.1,26.071,318.463,23.2,314.289,22.373Zm-14.4-3.555a2.7,2.7,0,1,1,1.928-.786A2.71,2.71,0,0,1,299.889,18.818Z" transform="translate(-71.663 -11.94)" fill="#354459"/>
    <rect id="Rectángulo_1536" data-name="Rectángulo 1536" width="5.932" height="5.947" transform="translate(208.475 30.003)" fill="#d1d1d1"/>
    <rect id="Rectángulo_1537" data-name="Rectángulo 1537" width="28.174" height="5.947" transform="translate(220.339 30.003)" fill="#d1d1d1"/>
    <rect id="Rectángulo_1538" data-name="Rectángulo 1538" width="5.932" height="4.461" transform="translate(208.475 41.898)" fill="#d1d1d1"/>
    <rect id="Rectángulo_1539" data-name="Rectángulo 1539" width="28.174" height="4.461" transform="translate(220.339 41.898)" fill="#d1d1d1"/>
    <rect id="Rectángulo_1540" data-name="Rectángulo 1540" width="5.932" height="5.947" transform="translate(208.475 52.306)" fill="#d1d1d1"/>
    <rect id="Rectángulo_1541" data-name="Rectángulo 1541" width="28.174" height="4.461" transform="translate(220.339 52.306)" fill="#d1d1d1"/>
    <rect id="Rectángulo_1542" data-name="Rectángulo 1542" width="5.932" height="5.947" transform="translate(208.475 62.706)" fill="#d1d1d1"/>
    <rect id="Rectángulo_1543" data-name="Rectángulo 1543" width="28.174" height="5.947" transform="translate(220.339 62.706)" fill="#d1d1d1"/>
    <path id="Trazado_3527" data-name="Trazado 3527" d="M277.871,44.9l-2.981-3.359,1.668-1.479,1.472,1.653,6.951-6.476,1.517,1.638Z" transform="translate(-67.419 -8.648)" fill="#559928"/>
    <path id="Trazado_3528" data-name="Trazado 3528" d="M277.871,58.891l-2.981-3.359,1.668-1.487,1.472,1.66,6.951-6.476,1.517,1.638Z" transform="translate(-67.419 -12.079)" fill="#559928"/>
    <path id="Trazado_3529" data-name="Trazado 3529" d="M277.871,72.881l-2.981-3.359,1.668-1.487,1.472,1.66,6.951-6.476,1.517,1.638Z" transform="translate(-67.419 -15.511)" fill="#559928"/>
    <path id="Trazado_3530" data-name="Trazado 3530" d="M277.871,86.871l-2.981-3.359,1.668-1.487,1.472,1.66,6.951-6.476,1.517,1.638Z" transform="translate(-67.419 -18.942)" fill="#559928"/>
    <path id="Trazado_3531" data-name="Trazado 3531" d="M52.4,213.911a7.857,7.857,0,0,1-7.849,7.857h0a7.857,7.857,0,0,1-7.857-7.857V187.449a7.857,7.857,0,0,1,7.857-7.849h0a7.849,7.849,0,0,1,7.849,7.849Z" transform="translate(-12.018 -53.065)" fill="#559928"/>
    <path id="Trazado_3532" data-name="Trazado 3532" d="M70.705,201.347a4.876,4.876,0,0,1-4.74,5.012h0a4.876,4.876,0,0,1-5.072-4.755l-.325-11.578A4.883,4.883,0,0,1,65.339,185h0a4.883,4.883,0,0,1,5.011,4.74Z" transform="translate(-17.874 -54.389)" fill="#559928"/>
    <path id="Trazado_3533" data-name="Trazado 3533" d="M62.024,200.379a4.883,4.883,0,0,1,5.042,4.74h0a4.876,4.876,0,0,1-4.74,5.012l-11.578.332a4.891,4.891,0,0,1-5.019-4.747h0a4.883,4.883,0,0,1,4.732-5.011Z" transform="translate(-14.234 -58.161)" fill="#559928"/>
    <path id="Trazado_3534" data-name="Trazado 3534" d="M55.367,210.77H20.8V218.7h4.544l2.966,17.827H47.85L50.824,218.7h4.544Z" transform="translate(-5.101 -51.698)" fill="#de4a21"/>
  </g>
</svg>
