<svg xmlns="http://www.w3.org/2000/svg" width="132" height="126" viewBox="0 0 132 126">
  <g id="Grupo_10199" data-name="Grupo 10199" transform="translate(-107 -3867)">
    <g id="Grupo_10147" data-name="Grupo 10147" transform="translate(0 451)">
      <g id="Grupo_4190" data-name="Grupo 4190" transform="translate(107 3416)">
        <g id="Elipse_509" data-name="Elipse 509" fill="#fff" stroke="#ca9c2c" stroke-width="5">
          <ellipse cx="66" cy="63" rx="66" ry="63" stroke="none"/>
          <ellipse cx="66" cy="63" rx="63.5" ry="60.5" fill="none"/>
        </g>
      </g>
      <g id="Grupo_1023" data-name="Grupo 1023" transform="translate(65 3368)" style="mix-blend-mode: multiply;isolation: isolate">
        <path id="Trazado_1273" data-name="Trazado 1273" d="M87.723,102.212h.171s.45,0,1.144.063c3.413.081,15.058-.387,23.973-9.8l-2.351-1.63a.774.774,0,0,1,.117-1.333l8.583-4.053a.747.747,0,0,1,.775.063.8.8,0,0,1,.333.7l-.784,9.456a.775.775,0,0,1-.441.639.793.793,0,0,1-.774-.063l-2.585-1.8c-9.906,10.807-23.127,11.356-26.972,11.257a10.307,10.307,0,0,1-1.414-.081,1.729,1.729,0,0,1,.225-3.449Z" transform="translate(-2.364 -0.474)" fill="#fdb813"/>
        <path id="Trazado_1274" data-name="Trazado 1274" d="M152.975,141.147a.775.775,0,0,1-.793.747l-89.266-2.26a.765.765,0,0,1-.756-.793l1.459-57.475a.765.765,0,0,1,.793-.756h.432a.783.783,0,0,1,.756.793l-1.423,56.3,2.062.054.423-16.724,13.662.342L79.9,138.094l3.305.09.612-24.316,13.662.342-.612,24.316,3.305.081.811-31.881,13.653.342-.8,31.89,3.305.081L118.167,98.3l13.662.351L130.8,139.391l3.26.108,1.189-46.92,13.662.351-1.189,46.911,4.44.117a.765.765,0,0,1,.757.793Z" fill="#fdb813"/>
      </g>
    </g>
  </g>
</svg>
