<svg xmlns="http://www.w3.org/2000/svg" width="132" height="126" viewBox="0 0 132 126">
  <g id="Grupo_10200" data-name="Grupo 10200" transform="translate(-107 -4036)">
    <g id="Grupo_10148" data-name="Grupo 10148" transform="translate(0 394)">
      <g id="Grupo_4191" data-name="Grupo 4191" transform="translate(107 3642)">
        <g id="Elipse_509" data-name="Elipse 509" fill="#fff" stroke="#ca9c2c" stroke-width="5">
          <ellipse cx="66" cy="63" rx="66" ry="63" stroke="none"/>
          <ellipse cx="66" cy="63" rx="63.5" ry="60.5" fill="none"/>
        </g>
      </g>
      <g id="Grupo_1024" data-name="Grupo 1024" transform="translate(-22 3597.203)" opacity="0.98" style="mix-blend-mode: multiply;isolation: isolate">
        <path id="Trazado_1275" data-name="Trazado 1275" d="M216.716,88.108c.3-.519.387-1.107-.178-1.432l-1.595-.906-1.123,1.967,1.595.914C215.872,88.906,216.282,88.821,216.716,88.108Z" transform="translate(-15.596 -7.057)" fill="#134663"/>
        <path id="Trazado_1276" data-name="Trazado 1276" d="M219.046,83.835a.774.774,0,0,0-.248-1.216l-1.51-.859-.9,1.549,1.5.859a.774.774,0,0,0,1.154-.333Z" transform="translate(-16.177 -6.151)" fill="#134663"/>
        <path id="Trazado_1277" data-name="Trazado 1277" d="M242.9,87.284,236.96,89.1l-1.432-6.031-5.939,1.812-1.463-6.031-5.939,1.812-1.463-6.031-5.939,1.812-1.494-6.062-5.939,1.812-1.463-6.031-5.939,1.812-1.471-6.031-5.931,1.812-1.471-6.039-5.931,1.827-1.223-5.025L144.73,123.264l1.223,5.017,5.931-1.812,1.471,6.031,5.931-1.812,1.471,6.031,5.931-1.812,1.471,6.031,5.931-1.812,1.471,6.031,5.939-1.812,1.463,6.031,5.939-1.812,1.463,6.031,5.939-1.812,1.463,6.039,5.939-1.812,1.076,4.429L243.975,91.69Zm-12.017,7.789,1.363-.914-.1,1.634,1.293,1.007-1.587.418-.557,1.549-.883-1.386-1.641-.054,1.045-1.262-.457-1.549ZM224.115,91.2l1.355-.921-.093,1.641,1.293,1.007-1.587.41-.565,1.549-.883-1.378L222,93.455l1.038-1.27-.449-1.549Zm-8.161-9.214,1.858,1.061-3.422,6c-.341.6.039.774.364.983l2.609,1.487-.96,1.688-3.376-1.928a1.8,1.8,0,0,1-.828-2.694Zm-6.024-3.43,1.858,1.053-3.422,6c-.341.6.039.774.364.991l2.609,1.487-.96,1.641-3.368-1.92a1.808,1.808,0,0,1-.836-2.7Zm-2.9-1.657,1.858,1.053-4.715,8.238-1.858-1.061Zm-6.86-3.871,3.492,1.99c1.734.991,1.866,2.323,1.13,3.6a1.837,1.837,0,0,1-2.16,1.084,1.99,1.99,0,0,1,.294,2.578c-.96,1.672-2.191,2.029-3.933,1.03l-3.538-2.1Zm-8.238-.093,1.363-1.014-.1,1.634,1.3,1.03L192.9,75l-.557,1.549-.883-1.378-1.618-.07,1.045-1.262-.457-1.549Zm-6.767-3.871,1.355-1.014-.093,1.634,1.293,1.007-1.587.457-.557,1.549-.883-1.386-1.641-.054,1.038-1.27-.449-1.549Zm-9.345,6.542,36.971,21.075-3.353,5.892L172.464,81.431Zm-6.589,11.567L206.2,108.251l-3.353,5.884-37-21.145Zm-9.949,17.452,3.36-5.892,36.971,21.075-3.36,5.892ZM205.107,149.9l-26.147-14.9,5.513-9.671,26.147,14.9Zm8.238-14.486L200.523,128.1l3.36-5.884,12.822,7.309Zm6.6-11.614L207.12,116.49l3.353-5.892,12.822,7.309Zm6.589-11.56-12.822-7.309,3.36-5.892,12.814,7.309Z" fill="#134663"/>
      </g>
    </g>
  </g>
</svg>
