<svg xmlns="http://www.w3.org/2000/svg" width="585" height="381" viewBox="0 0 585 381">
  <g id="Grupo_10204" data-name="Grupo 10204" transform="translate(-264 -3444)">
    <g id="Grupo_3943" data-name="Grupo 3943" transform="translate(-31 -14425)">
      <g id="Grupo_3942" data-name="Grupo 3942" transform="translate(199 8425)">
        <rect id="Rectángulo_1889" data-name="Rectángulo 1889" width="433" height="73" rx="15" transform="translate(245 9444)" fill="#18af4f"/>
        <path id="Trazado_6595" data-name="Trazado 6595" d="M15,0H418a15,15,0,0,1,15,15V97a15,15,0,0,1-15,15H15A15,15,0,0,1,0,97V15A15,15,0,0,1,15,0Z" transform="translate(248 9713)" fill="#18af4f"/>
        <path id="Trazado_6594" data-name="Trazado 6594" d="M15,0H418a15,15,0,0,1,15,15V141a15,15,0,0,1-15,15H15A15,15,0,0,1,0,141V15A15,15,0,0,1,15,0Z" transform="translate(245 9539)" fill="#18af4f"/>
        <text id="empresas_de_tamaño_grande_y_mediano_que_no_sean_emisores_de_valores_ni_entidades_de_interés_público_según_la_clasificación_legal_planta_de_personal_entre_11_y_200_trabajadores_activos_totales_por_valor_entre_500_a_30.000_salarios_mínimos_mensuales_legal" data-name="empresas de tamaño grande y mediano que no sean emisores de valores ni entidades de interés público, según la clasificación legal (planta de personal entre 11 y 200 trabajadores, activos totales por valor entre 500 a 30.000 salarios mínimos mensuales legal" transform="translate(259 9550)" fill="#fff" font-size="16" font-family="OpenSans-Bold, Open Sans" font-weight="700"><tspan x="0" y="17">empresas de tamaño grande y mediano que no </tspan><tspan x="0" y="39">sean emisores de valores ni entidades de interés </tspan><tspan x="0" y="61">público, según la clasificación legal (planta de </tspan><tspan x="0" y="83">personal entre 11 y 200 trabajadores, activos </tspan><tspan x="0" y="105">totales por valor entre 500 a 30.000 salarios </tspan><tspan x="0" y="127">mínimos mensuales legales vigentes). </tspan></text>
        <text id="GRUPO_1" data-name="GRUPO 1" transform="translate(96 9461)" fill="#234eae" font-size="24" font-family="OpenSans-Bold, Open Sans" font-weight="700"><tspan x="0" y="26">GRUPO 1</tspan></text>
        <text id="GRUPO_2" data-name="GRUPO 2" transform="translate(96 9591)" fill="#234eae" font-size="24" font-family="OpenSans-Bold, Open Sans" font-weight="700"><tspan x="0" y="26">GRUPO 2</tspan></text>
        <text id="GRUPO_3" data-name="GRUPO 3" transform="translate(96 9750)" fill="#234eae" font-size="24" font-family="OpenSans-Bold, Open Sans" font-weight="700"><tspan x="0" y="26">GRUPO 3</tspan></text>
      </g>
      <text id="emisores_de_valores_y_entidades_de_interés_público._" data-name="emisores de valores y entidades de interés público. " transform="translate(452 17891)" fill="#fff" font-size="16" font-family="OpenSans-Bold, Open Sans" font-weight="700"><tspan x="5.516" y="17">emisores de valores y entidades de interés público. </tspan></text>
      <text id="pequeña_y_microempresa_con_planta_de_personal_no_superior_de_10_trabajadores_y_activos_totales_excluida_la_vivienda_por_valor_inferior_a_500_salarios_mínimos_mensuales_legales_vigentes._" data-name="pequeña y microempresa con planta de personal no superior de 10 trabajadores y activos totales, excluida la vivienda, por valor inferior a 500 salarios mínimos mensuales legales vigentes. " transform="translate(464 18148)" fill="#fff" font-size="16" font-family="OpenSans-Bold, Open Sans" font-weight="700"><tspan x="0" y="17">pequeña y microempresa con planta de personal </tspan><tspan x="0" y="39">no superior de 10 trabajadores y activos totales, </tspan><tspan x="0" y="61">excluida la vivienda, por valor inferior a 500 </tspan><tspan x="0" y="83">salarios mínimos mensuales legales vigentes. </tspan></text>
    </g>
  </g>
</svg>
