<svg xmlns="http://www.w3.org/2000/svg" width="758" height="619" viewBox="0 0 758 619">
  <g id="Grupo_3924" data-name="Grupo 3924" transform="translate(-349 -3325)">
    <rect id="Rectángulo_1841" data-name="Rectángulo 1841" width="189" height="49" rx="10" transform="translate(349 3454)" fill="#e4f39b"/>
    <rect id="Rectángulo_1878" data-name="Rectángulo 1878" width="282" height="53" rx="10" transform="translate(349 3512)" fill="#e4f39b"/>
    <rect id="Rectángulo_1882" data-name="Rectángulo 1882" width="282" height="53" rx="10" transform="translate(349 3766)" fill="#e4f39b"/>
    <rect id="Rectángulo_1883" data-name="Rectángulo 1883" width="282" height="53" rx="10" transform="translate(726 3768)" fill="#e4f39b"/>
    <rect id="Rectángulo_1880" data-name="Rectángulo 1880" width="302" height="166" rx="10" transform="translate(349 3580)" fill="#e4f39b"/>
    <rect id="Rectángulo_1884" data-name="Rectángulo 1884" width="302" height="105" rx="10" transform="translate(349 3834)" fill="#e4f39b"/>
    <rect id="Rectángulo_1881" data-name="Rectángulo 1881" width="302" height="166" rx="10" transform="translate(726 3583)" fill="#e4f39b"/>
    <rect id="Rectángulo_1885" data-name="Rectángulo 1885" width="302" height="105" rx="10" transform="translate(726 3834)" fill="#e4f39b"/>
    <rect id="Rectángulo_1886" data-name="Rectángulo 1886" width="302" height="93" rx="10" transform="translate(726 3834)" fill="#e4f39b"/>
    <rect id="Rectángulo_1879" data-name="Rectángulo 1879" width="375" height="53" rx="10" transform="translate(732 3512)" fill="#e4f39b"/>
    <rect id="Rectángulo_1877" data-name="Rectángulo 1877" width="290" height="49" rx="10" transform="translate(732 3454)" fill="#e4f39b"/>
    <text id="NIIF_para_pymes_52_" data-name="NIIF para pymes (52)" transform="translate(364.333 3467)" fill="#00223d" font-size="16" font-family="OpenSans-Bold, Open Sans" font-weight="700"><tspan x="0" y="17">NIIF para pymes (52)</tspan></text>
    <text id="Características_fundamentales:" data-name="Características fundamentales:" transform="translate(364.333 3525)" fill="#00223d" font-size="16" font-family="OpenSans-Bold, Open Sans" font-weight="700"><tspan x="0" y="17">Características fundamentales:</tspan></text>
    <text id="Características_de_mejora" data-name="Características de mejora" transform="translate(364.333 3779)" fill="#00223d" font-size="16" font-family="OpenSans-Bold, Open Sans" font-weight="700"><tspan x="0" y="17">Características de mejora</tspan></text>
    <text id="Características_de_mejora-2" data-name="Características de mejora" transform="translate(741.333 3781)" fill="#00223d" font-size="16" font-family="OpenSans-Bold, Open Sans" font-weight="700"><tspan x="0" y="17">Características de mejora</tspan></text>
    <text id="Características_cualitativas_fundamentales" data-name="Características cualitativas fundamentales" transform="translate(747.333 3524)" fill="#00223d" font-size="16" font-family="OpenSans-Bold, Open Sans" font-weight="700"><tspan x="0" y="17">Características cualitativas fundamentales</tspan></text>
    <text id="NIIF_plenas_marco_conceptual_" data-name="NIIF plenas marco conceptual (*)" transform="translate(747.333 3467)" fill="#00223d" font-size="16" font-family="OpenSans-Bold, Open Sans" font-weight="700"><tspan x="0" y="17">NIIF plenas marco conceptual (*)</tspan></text>
    <rect id="Rectángulo_1837" data-name="Rectángulo 1837" width="355" height="56" rx="10" transform="translate(523 3325)" fill="#e4f39b"/>
    <text id="Características_cualitativas_" data-name="Características cualitativas " transform="translate(535.333 3333)" fill="#00223d" font-size="24" font-family="OpenSans-Bold, Open Sans" font-weight="700"><tspan x="0" y="26">Características cualitativas </tspan></text>
    <g id="Grupo_962" data-name="Grupo 962" transform="translate(-42 2120)">
      <rect id="rectangle" width="19" height="19" transform="translate(400 1466)" fill="none"/>
      <path id="path" d="M7.8,13.928l-3.3-3.3-1.1,1.1,4.4,4.4L17.227,6.7l-1.1-1.1Z" transform="translate(399.271 1464.799)" fill="#002b45" fill-rule="evenodd"/>
    </g>
    <g id="Grupo_3934" data-name="Grupo 3934" transform="translate(-42 2374)">
      <rect id="rectangle-2" data-name="rectangle" width="19" height="19" transform="translate(400 1466)" fill="none"/>
      <path id="path-2" data-name="path" d="M7.8,13.928l-3.3-3.3-1.1,1.1,4.4,4.4L17.227,6.7l-1.1-1.1Z" transform="translate(399.271 1464.799)" fill="#002b45" fill-rule="evenodd"/>
    </g>
    <g id="Grupo_3931" data-name="Grupo 3931" transform="translate(335 2168)">
      <rect id="rectangle-3" data-name="rectangle" width="19" height="19" transform="translate(400 1466)" fill="none"/>
      <path id="path-3" data-name="path" d="M7.8,13.928l-3.3-3.3-1.1,1.1,4.4,4.4L17.227,6.7l-1.1-1.1Z" transform="translate(399.271 1464.799)" fill="#002b45" fill-rule="evenodd"/>
    </g>
    <g id="Grupo_3938" data-name="Grupo 3938" transform="translate(335 2419)">
      <rect id="rectangle-4" data-name="rectangle" width="19" height="19" transform="translate(400 1466)" fill="none"/>
      <path id="path-4" data-name="path" d="M7.8,13.928l-3.3-3.3-1.1,1.1,4.4,4.4L17.227,6.7l-1.1-1.1Z" transform="translate(399.271 1464.799)" fill="#002b45" fill-rule="evenodd"/>
    </g>
    <g id="Grupo_3940" data-name="Grupo 3940" transform="translate(335 2442)">
      <rect id="rectangle-5" data-name="rectangle" width="19" height="19" transform="translate(400 1466)" fill="none"/>
      <path id="path-5" data-name="path" d="M7.8,13.928l-3.3-3.3-1.1,1.1,4.4,4.4L17.227,6.7l-1.1-1.1Z" transform="translate(399.271 1464.799)" fill="#002b45" fill-rule="evenodd"/>
    </g>
    <g id="Grupo_3933" data-name="Grupo 3933" transform="translate(335 2189)">
      <rect id="rectangle-6" data-name="rectangle" width="19" height="19" transform="translate(400 1466)" fill="none"/>
      <path id="path-6" data-name="path" d="M7.8,13.928l-3.3-3.3-1.1,1.1,4.4,4.4L17.227,6.7l-1.1-1.1Z" transform="translate(399.271 1464.799)" fill="#002b45" fill-rule="evenodd"/>
    </g>
    <text id="Comprensibilidad_Relevancia_Materialidad_o_importancia_relativa_Fiabilidad_Esencia_sobre_la_forma_Prudencia_Integridad" data-name="Comprensibilidad
Relevancia
Materialidad o importancia relativa
Fiabilidad
Esencia sobre la forma
Prudencia
Integridad" transform="translate(380 3586)" fill="#00223d" font-size="16" font-family="OpenSans, Open Sans"><tspan x="0" y="17">Comprensibilidad</tspan><tspan x="0" y="39">Relevancia</tspan><tspan x="0" y="61">Materialidad o importancia relativa</tspan><tspan x="0" y="83">Fiabilidad</tspan><tspan x="0" y="105">Esencia sobre la forma</tspan><tspan x="0" y="127">Prudencia</tspan><tspan x="0" y="149">Integridad</tspan></text>
    <text id="Comparabilidad_Oportunidad_Equilibrio_entre_costo_y_beneficio_" data-name="Comparabilidad

Oportunidad
Equilibrio entre costo y beneficio
" transform="translate(380 3840)" fill="#00223d" font-size="16" font-family="OpenSans, Open Sans"><tspan x="0" y="17">Comparabilidad</tspan><tspan x="0" y="39"></tspan><tspan x="0" y="61">Oportunidad</tspan><tspan x="0" y="83">Equilibrio entre costo y beneficio</tspan></text>
    <text id="_Relevancia_Materialidad_o_importancia_relativa_Representación_fiel_" data-name="
Relevancia
Materialidad o importancia relativa
Representación fiel
" transform="translate(757 3589)" fill="#00223d" font-size="16" font-family="OpenSans, Open Sans"><tspan x="0" y="17"></tspan><tspan x="0" y="39">Relevancia</tspan><tspan x="0" y="61">Materialidad o importancia relativa</tspan><tspan x="0" y="83">Representación fiel</tspan></text>
    <text id="Comparabilidad_Verificabilidad_Oportunidad_Comprensibilidad_" data-name="Comparabilidad
Verificabilidad
Oportunidad
Comprensibilidad
" transform="translate(757 3840)" fill="#00223d" font-size="16" font-family="OpenSans, Open Sans"><tspan x="0" y="17">Comparabilidad</tspan><tspan x="0" y="39">Verificabilidad</tspan><tspan x="0" y="61">Oportunidad</tspan><tspan x="0" y="83">Comprensibilidad</tspan></text>
    <g id="Grupo_3925" data-name="Grupo 3925" transform="translate(-42 2142)">
      <rect id="rectangle-7" data-name="rectangle" width="19" height="19" transform="translate(400 1466)" fill="none"/>
      <path id="path-7" data-name="path" d="M7.8,13.928l-3.3-3.3-1.1,1.1,4.4,4.4L17.227,6.7l-1.1-1.1Z" transform="translate(399.271 1464.799)" fill="#002b45" fill-rule="evenodd"/>
    </g>
    <g id="Grupo_3932" data-name="Grupo 3932" transform="translate(335 2145)">
      <rect id="rectangle-8" data-name="rectangle" width="19" height="19" transform="translate(400 1466)" fill="none"/>
      <path id="path-8" data-name="path" d="M7.8,13.928l-3.3-3.3-1.1,1.1,4.4,4.4L17.227,6.7l-1.1-1.1Z" transform="translate(399.271 1464.799)" fill="#002b45" fill-rule="evenodd"/>
    </g>
    <g id="Grupo_3937" data-name="Grupo 3937" transform="translate(335 2396)">
      <rect id="rectangle-9" data-name="rectangle" width="19" height="19" transform="translate(400 1466)" fill="none"/>
      <path id="path-9" data-name="path" d="M7.8,13.928l-3.3-3.3-1.1,1.1,4.4,4.4L17.227,6.7l-1.1-1.1Z" transform="translate(399.271 1464.799)" fill="#002b45" fill-rule="evenodd"/>
    </g>
    <g id="Grupo_3939" data-name="Grupo 3939" transform="translate(335 2377)">
      <rect id="rectangle-10" data-name="rectangle" width="19" height="19" transform="translate(400 1466)" fill="none"/>
      <path id="path-10" data-name="path" d="M7.8,13.928l-3.3-3.3-1.1,1.1,4.4,4.4L17.227,6.7l-1.1-1.1Z" transform="translate(399.271 1464.799)" fill="#002b45" fill-rule="evenodd"/>
    </g>
    <g id="Grupo_3926" data-name="Grupo 3926" transform="translate(-42 2164)">
      <rect id="rectangle-11" data-name="rectangle" width="19" height="19" transform="translate(400 1466)" fill="none"/>
      <path id="path-11" data-name="path" d="M7.8,13.928l-3.3-3.3-1.1,1.1,4.4,4.4L17.227,6.7l-1.1-1.1Z" transform="translate(399.271 1464.799)" fill="#002b45" fill-rule="evenodd"/>
    </g>
    <g id="Grupo_3936" data-name="Grupo 3936" transform="translate(-42 2418)">
      <rect id="rectangle-12" data-name="rectangle" width="19" height="19" transform="translate(400 1466)" fill="none"/>
      <path id="path-12" data-name="path" d="M7.8,13.928l-3.3-3.3-1.1,1.1,4.4,4.4L17.227,6.7l-1.1-1.1Z" transform="translate(399.271 1464.799)" fill="#002b45" fill-rule="evenodd"/>
    </g>
    <g id="Grupo_3927" data-name="Grupo 3927" transform="translate(-42 2186)">
      <rect id="rectangle-13" data-name="rectangle" width="19" height="19" transform="translate(400 1466)" fill="none"/>
      <path id="path-13" data-name="path" d="M7.8,13.928l-3.3-3.3-1.1,1.1,4.4,4.4L17.227,6.7l-1.1-1.1Z" transform="translate(399.271 1464.799)" fill="#002b45" fill-rule="evenodd"/>
    </g>
    <g id="Grupo_3928" data-name="Grupo 3928" transform="translate(-42 2208)">
      <rect id="rectangle-14" data-name="rectangle" width="19" height="19" transform="translate(400 1466)" fill="none"/>
      <path id="path-14" data-name="path" d="M7.8,13.928l-3.3-3.3-1.1,1.1,4.4,4.4L17.227,6.7l-1.1-1.1Z" transform="translate(399.271 1464.799)" fill="#002b45" fill-rule="evenodd"/>
    </g>
    <g id="Grupo_3929" data-name="Grupo 3929" transform="translate(-42 2230)">
      <rect id="rectangle-15" data-name="rectangle" width="19" height="19" transform="translate(400 1466)" fill="none"/>
      <path id="path-15" data-name="path" d="M7.8,13.928l-3.3-3.3-1.1,1.1,4.4,4.4L17.227,6.7l-1.1-1.1Z" transform="translate(399.271 1464.799)" fill="#002b45" fill-rule="evenodd"/>
    </g>
    <g id="Grupo_3930" data-name="Grupo 3930" transform="translate(-42 2252)">
      <rect id="rectangle-16" data-name="rectangle" width="19" height="19" transform="translate(400 1466)" fill="none"/>
      <path id="path-16" data-name="path" d="M7.8,13.928l-3.3-3.3-1.1,1.1,4.4,4.4L17.227,6.7l-1.1-1.1Z" transform="translate(399.271 1464.799)" fill="#002b45" fill-rule="evenodd"/>
    </g>
  </g>
</svg>
