<svg xmlns="http://www.w3.org/2000/svg" xmlns:xlink="http://www.w3.org/1999/xlink" width="430.359" height="255.254" viewBox="0 0 430.359 255.254">
  <defs>
    <clipPath id="clip-path">
      <path id="Trazado_5196" data-name="Trazado 5196" d="M1480.679,675.711c1.8-7.625,2.734-15.425-1.347-20.619-1.843-2.346-5.126-3.979-7.813-5.141-5.241-2.265-10.6-5.31-16.209-6.3-5.915-1.041-12.494-1.683-18.389-.194a43.682,43.682,0,0,0-10.6,4.584c-2.9,1.638-6.469,3.048-7.88,6.1a207.363,207.363,0,0,0-8.967,22.832c-2.105,6.475-4.416,13.263-1.1,19.825,1.075,2.126,2.637,3.947,3.865,5.978a14.552,14.552,0,0,1,2.06,7c.41,5.956.25,11.93.233,17.9a11.383,11.383,0,0,0,.771,5.051c1.484,3.047,5.516,3.09,8.421,3.084l28.723-.049a49.17,49.17,0,0,1,10.767,1.249c3.148.647,5.849-.941,7.359-3.87,1.429-2.772,1.538-6.01,1.692-9.125a196.966,196.966,0,0,1,5.129-35.99C1478.2,684.678,1479.594,680.307,1480.679,675.711Z" transform="translate(-1406.714 -642.583)" fill="#ffc73c"/>
    </clipPath>
  </defs>
  <g id="Grupo_1040" data-name="Grupo 1040" transform="translate(-1067.564 -408.32)">
    <path id="Trazado_5186" data-name="Trazado 5186" d="M1537.45,555.517c-21.831-20.868,16.008-92.715-38.687-120.063-18.983-9.492-45.108-2.349-58.03-2.668-26.715-.66-47.64-38.63-98.718-18.676-12.649,4.941-22.528,15.646-30.247,26.82-4.773,6.91-13.5,18.627-22.012,20.487-4.561,1-9.294.546-13.963.55a71.362,71.362,0,0,0-29.91,6.624c-11.412,5.3-21.981,14.741-24.037,27.156-1.472,8.885,1.572,18.215-.8,26.9-2.713,9.936-11.8,16.666-20.692,21.856s-18.6,10-24.333,18.56c-3.447,5.146-5.552,12.181-6.441,18.285-1.043,7.161,1,14.057-2.233,20.99-2.2,4.716-6.117,8.387-10.14,11.685-6.11,5.008-12.731,9.506-17.877,15.5s-8.728,13.953-7.3,21.721c1.127,6.116,7.877,12.327,7.877,12.327h379.531C1558.795,663.573,1582.807,598.873,1537.45,555.517Z" transform="translate(-64.151 0)" fill="#dff3fd"/>
    <path id="Trazado_5187" data-name="Trazado 5187" d="M1543,493.3a2.417,2.417,0,0,0-2.022-2.319c-.446.01-.882.126-1.328.1a2.89,2.89,0,0,1-2.261-1.748,2.609,2.609,0,0,0-2.527-1.444c-1.666.279-2.506,2.478-4.4.828-1.239-1.081-1.333-2.592-2.737-3.64a4.579,4.579,0,0,0-3.823-.748c-1.686.519-2.313,2.19-4.109,2.481a4.139,4.139,0,0,1-4.053-2.282c-.77-1.324-1.057-2.755-1.716-4.1a4.516,4.516,0,0,0-4.039-2.882c-1.861.031-2.681,1.209-3.595,2.144-1.188,1.216-3.656,5.583-6.425,5.057-1.079-.205-1.618-1.063-2.592-1.447a4.427,4.427,0,0,0-4.506,1.3c-.943,1.067-1.317,2.355-2.383,3.364a2.459,2.459,0,0,1-1.044.626c-1.489.408-2.875-.846-4.47-.939a3.717,3.717,0,0,0-2.754,1.083,13.757,13.757,0,0,0-1.461,2.067,1.548,1.548,0,0,1-.531.518c-.7.375-1.684.059-2.541-.089-2.116-.364-4.522.608-5.119,2.068Z" transform="translate(-177.648 -23.053)" fill="#fff"/>
    <g id="Grupo_1020" data-name="Grupo 1020" transform="translate(1144.175 496.035)" style="mix-blend-mode: multiply;isolation: isolate">
      <g id="Grupo_1016" data-name="Grupo 1016" transform="translate(128.767)">
        <g id="Grupo_1014" data-name="Grupo 1014" transform="translate(97.474 33.523)">
          <rect id="Rectángulo_635" data-name="Rectángulo 635" width="21.96" height="100.587" transform="translate(55.099 115.337) rotate(180)" fill="#dff3fd"/>
          <rect id="Rectángulo_636" data-name="Rectángulo 636" width="33.138" height="69.717" transform="translate(0 45.62)" fill="#dff3fd"/>
          <rect id="Rectángulo_637" data-name="Rectángulo 637" width="33.138" height="48.962" transform="translate(41.731 66.375)" fill="#dff3fd"/>
          <rect id="Rectángulo_638" data-name="Rectángulo 638" width="17.833" height="4.917" transform="translate(50.972 14.75) rotate(180)" fill="#dff3fd"/>
          <rect id="Rectángulo_639" data-name="Rectángulo 639" width="14.591" height="4.917" transform="translate(47.729 9.833) rotate(180)" fill="#dff3fd"/>
          <rect id="Rectángulo_640" data-name="Rectángulo 640" width="11.496" height="4.917" transform="translate(44.634 4.917) rotate(180)" fill="#dff3fd"/>
        </g>
        <g id="Grupo_1015" data-name="Grupo 1015" transform="translate(0)">
          <rect id="Rectángulo_641" data-name="Rectángulo 641" width="21.96" height="100.587" transform="translate(65.88 148.86) rotate(180)" fill="#dff3fd"/>
          <rect id="Rectángulo_642" data-name="Rectángulo 642" width="21.96" height="133.153" transform="translate(125.952 148.86) rotate(180)" fill="#dff3fd"/>
          <rect id="Rectángulo_643" data-name="Rectángulo 643" width="43.92" height="38.924" transform="translate(43.92 148.86) rotate(180)" fill="#dff3fd"/>
          <rect id="Rectángulo_644" data-name="Rectángulo 644" width="44.119" height="148.86" transform="translate(99.019 148.86) rotate(180)" fill="#dff3fd"/>
          <rect id="Rectángulo_645" data-name="Rectángulo 645" width="17.833" height="4.917" transform="translate(61.754 48.273) rotate(180)" fill="#dff3fd"/>
          <rect id="Rectángulo_646" data-name="Rectángulo 646" width="14.591" height="4.917" transform="translate(58.511 43.356) rotate(180)" fill="#dff3fd"/>
          <rect id="Rectángulo_647" data-name="Rectángulo 647" width="11.496" height="4.917" transform="translate(55.416 38.44) rotate(180)" fill="#dff3fd"/>
        </g>
      </g>
      <g id="Grupo_1019" data-name="Grupo 1019" transform="translate(0 25.716)">
        <g id="Grupo_1017" data-name="Grupo 1017" transform="translate(97.474)">
          <rect id="Rectángulo_648" data-name="Rectángulo 648" width="21.96" height="100.587" transform="translate(55.099 123.144) rotate(180)" fill="#dff3fd"/>
          <rect id="Rectángulo_649" data-name="Rectángulo 649" width="21.96" height="83.584" transform="translate(55.099 39.561)" fill="#dff3fd"/>
          <rect id="Rectángulo_650" data-name="Rectángulo 650" width="33.138" height="123.144" fill="#dff3fd"/>
          <rect id="Rectángulo_651" data-name="Rectángulo 651" width="17.833" height="4.917" transform="translate(50.972 22.557) rotate(180)" fill="#dff3fd"/>
          <rect id="Rectángulo_652" data-name="Rectángulo 652" width="14.591" height="4.917" transform="translate(47.73 17.641) rotate(180)" fill="#dff3fd"/>
          <rect id="Rectángulo_653" data-name="Rectángulo 653" width="11.496" height="4.917" transform="translate(44.634 12.724) rotate(180)" fill="#dff3fd"/>
        </g>
        <g id="Grupo_1018" data-name="Grupo 1018" transform="translate(0 7.807)">
          <rect id="Rectángulo_654" data-name="Rectángulo 654" width="21.96" height="100.587" transform="translate(65.88 115.337) rotate(180)" fill="#dff3fd"/>
          <rect id="Rectángulo_655" data-name="Rectángulo 655" width="21.96" height="83.584" transform="translate(43.92 115.337) rotate(180)" fill="#dff3fd"/>
          <rect id="Rectángulo_656" data-name="Rectángulo 656" width="21.96" height="97.532" transform="translate(93.01 115.337) rotate(180)" fill="#dff3fd"/>
          <rect id="Rectángulo_657" data-name="Rectángulo 657" width="21.96" height="48.556" transform="translate(21.96 115.337) rotate(180)" fill="#dff3fd"/>
          <rect id="Rectángulo_658" data-name="Rectángulo 658" width="44.119" height="73.443" transform="translate(99.019 115.337) rotate(180)" fill="#dff3fd"/>
          <rect id="Rectángulo_659" data-name="Rectángulo 659" width="17.833" height="4.917" transform="translate(61.754 14.75) rotate(180)" fill="#dff3fd"/>
          <rect id="Rectángulo_660" data-name="Rectángulo 660" width="17.833" height="4.917" transform="translate(38.025 98.948) rotate(180)" fill="#dff3fd"/>
          <rect id="Rectángulo_661" data-name="Rectángulo 661" width="14.591" height="4.917" transform="translate(58.511 9.833) rotate(180)" fill="#dff3fd"/>
          <rect id="Rectángulo_662" data-name="Rectángulo 662" width="11.496" height="4.917" transform="translate(55.416 4.917) rotate(180)" fill="#dff3fd"/>
        </g>
        <rect id="Rectángulo_663" data-name="Rectángulo 663" width="28.87" height="4.917" transform="translate(167.601 53.901) rotate(180)" fill="#dff3fd"/>
        <rect id="Rectángulo_664" data-name="Rectángulo 664" width="28.87" height="4.917" transform="translate(167.601 71.519) rotate(180)" fill="#dff3fd"/>
        <rect id="Rectángulo_665" data-name="Rectángulo 665" width="28.87" height="4.917" transform="translate(167.601 89.137) rotate(180)" fill="#dff3fd"/>
        <rect id="Rectángulo_666" data-name="Rectángulo 666" width="28.87" height="4.917" transform="translate(56.948 89.137) rotate(180)" fill="#dff3fd"/>
        <rect id="Rectángulo_667" data-name="Rectángulo 667" width="28.87" height="4.917" transform="translate(56.948 106.755) rotate(180)" fill="#dff3fd"/>
      </g>
    </g>
    <path id="Trazado_5188" data-name="Trazado 5188" d="M1490.814,650.29c-7.669,2.713-16.919,2.436-23.9-2.04-6.859-4.4-13.108-7.577-21.548-7.424-7.541.137-13.778,4.214-21.082,5.082-5.793.688-11.678-1.838-15.876-5.888-4.1-3.954-6.82-9.982-5.039-15.391.933-2.832,2.973-5.168,4.136-7.913,2.684-6.331-4.383-10.151-2.625-16.815,1.495-5.668,7.714-9.71,7.621-15.571-.068-4.29-3.389-7.615-4.559-11.585a15.752,15.752,0,0,1,1.162-12.148,14.513,14.513,0,0,1,6.834-6.1c2.557-1.09,5.414-1.11,7.391-3.344,3.524-3.983,4.817-8.3,9.652-11.21,4.093-2.465,9.5-2.621,14.195-2.191,10.435.956,20.563,6.464,26.44,15.236,2.083,3.109,3.587,6.29,3.639,9.985.057,4.039.056,8.1,2.531,11.535,2.078,2.884,5.413,4.57,8.72,5.871s6.774,2.353,9.676,4.4,5.209,5.394,4.871,8.931c-.283,2.961-2.333,5.534-2.606,8.5-.5,5.386,4.693,9.3,7.891,13.659a21.22,21.22,0,0,1,1.85,21.521c-3.881,7.807-10.932,9.568-18.32,12.506Q1491.349,650.1,1490.814,650.29Z" transform="translate(-154.424 -43.036)" fill="#0b2d4e"/>
    <g id="Grupo_1021" data-name="Grupo 1021" transform="translate(1280.631 504.263)">
      <path id="Trazado_5189" data-name="Trazado 5189" d="M1451.148,554.457a18.094,18.094,0,0,1,8.412-2.278,31.32,31.32,0,0,1,8.738.976,26.915,26.915,0,0,1,14.57,9.532,24.083,24.083,0,0,1,4.011,7.9,30.379,30.379,0,0,1,.964,8.8c-.029,2.94-.238,5.864-.141,8.757a15.707,15.707,0,0,0,.676,4.209,6.6,6.6,0,0,0,2.278,3.37,7.931,7.931,0,0,0,3.9,1.343c1.417.168,2.9.177,4.374.374a19.934,19.934,0,0,1,8.441,2.765,6.77,6.77,0,0,1,3,8.013,31.5,31.5,0,0,1-1.866,4.021,12.8,12.8,0,0,0-1.089,4.115,19.181,19.181,0,0,0,1.482,8.443,78.807,78.807,0,0,1,2.9,8.306,17.744,17.744,0,0,1,.528,4.391,13.825,13.825,0,0,1-.77,4.345,14.862,14.862,0,0,1-5.119,7.011A14.459,14.459,0,0,0,1511.4,633.2a80.26,80.26,0,0,0-3-8.22,19.756,19.756,0,0,1-1.628-8.683,13.5,13.5,0,0,1,1.091-4.347,32.551,32.551,0,0,0,1.812-3.937,6.034,6.034,0,0,0-2.728-7.178,19.192,19.192,0,0,0-8.114-2.6c-1.426-.186-2.883-.187-4.373-.355a8.714,8.714,0,0,1-4.3-1.486,7.428,7.428,0,0,1-2.555-3.787,16.5,16.5,0,0,1-.7-4.434c-.086-2.961.139-5.884.179-8.8a29.64,29.64,0,0,0-.9-8.6,24.287,24.287,0,0,0-3.827-7.7,26.444,26.444,0,0,0-14.162-9.526,31.01,31.01,0,0,0-8.628-1.166A17.992,17.992,0,0,0,1451.148,554.457Z" transform="translate(-1451.148 -552.16)" fill="#73b8d4"/>
    </g>
    <path id="Trazado_5190" data-name="Trazado 5190" d="M1282.957,481.431a2.437,2.437,0,0,0-2.039-2.339c-.449.01-.89.127-1.339.1a2.914,2.914,0,0,1-2.279-1.762,2.632,2.632,0,0,0-2.547-1.456c-1.68.282-2.527,2.5-4.437.834-1.25-1.09-1.344-2.613-2.759-3.669a4.617,4.617,0,0,0-3.854-.754c-1.7.523-2.333,2.208-4.143,2.5-2.005.325-3.446-1.2-4.087-2.3-.776-1.335-1.064-2.778-1.73-4.137a4.551,4.551,0,0,0-4.072-2.9c-1.876.031-2.7,1.219-3.624,2.161-1.2,1.226-3.687,5.629-6.477,5.1-1.089-.207-1.632-1.071-2.614-1.458a4.462,4.462,0,0,0-4.542,1.309c-.951,1.076-1.328,2.375-2.4,3.392a2.474,2.474,0,0,1-1.052.632c-1.5.411-2.9-.853-4.506-.947a3.747,3.747,0,0,0-2.777,1.093,13.817,13.817,0,0,0-1.473,2.084,1.56,1.56,0,0,1-.536.522c-.7.378-1.7.059-2.561-.089-2.135-.367-4.559.612-5.161,2.086Z" transform="translate(-90.866 -19.057)" fill="#dff3fd"/>
    <path id="Trazado_5191" data-name="Trazado 5191" d="M1477.587,625.635c.272,6.619-1.262,11.589-7.314,14.862-4.821,2.607-10.593,3.462-15.913,3.593-8.922.22-18.864-2.081-25.538-8.348a6.612,6.612,0,0,1-2.461-4.191c-.079-1.508.75-2.93.823-4.438.123-2.544-1.855-4.652-2.739-7.04-1.168-3.156-.374-6.678.675-9.874s2.363-6.424,2.2-9.784c-.2-4.36-2.823-8.166-4.921-11.992s-3.747-8.483-1.956-12.463a8.91,8.91,0,0,1,6.876-4.958c3.04-.337,5.772,3.137,7.72,5.051a47.691,47.691,0,0,0,8.682,6.752c4.344,2.637,9.114,4.581,13.2,7.6,2.473,1.828,5.125,4.338,6.306,7.249,1.33,3.282-1,6.458,1.818,9.476,1.817,1.948,4.608,2.609,6.8,4.115C1476.557,614.47,1477.372,620.411,1477.587,625.635Z" transform="translate(-160.04 -54.163)" fill="#061f33"/>
    <path id="Trazado_5192" data-name="Trazado 5192" d="M1412.5,690.756c6.265-9.654,10.163-21.5,4.72-32.4-.552-1.1-1.215-2.31-2.387-2.7-2.52-.838-5.938.063-8.13,1.349-7.6,4.46-12.252,12.851-16.523,20.319-4.437,7.757-8.289,15.832-12.748,23.578a43.275,43.275,0,0,0-4.6,9.8,15.508,15.508,0,0,0,.216,9.542c5,12.923,18.766-2.906,22.955-7.689A191.26,191.26,0,0,0,1412.5,690.756Z" transform="translate(-144.225 -82.25)" fill="#efb126"/>
    <g id="Grupo_1023" data-name="Grupo 1023" transform="translate(1250.992 564.577)">
      <path id="Trazado_5193" data-name="Trazado 5193" d="M1480.679,675.711c1.8-7.625,2.734-15.425-1.347-20.619-1.843-2.346-5.126-3.979-7.813-5.141-5.241-2.265-10.6-5.31-16.209-6.3-5.915-1.041-12.494-1.683-18.389-.194a43.682,43.682,0,0,0-10.6,4.584c-2.9,1.638-6.469,3.048-7.88,6.1a207.363,207.363,0,0,0-8.967,22.832c-2.105,6.475-4.416,13.263-1.1,19.825,1.075,2.126,2.637,3.947,3.865,5.978a14.552,14.552,0,0,1,2.06,7c.41,5.956.25,11.93.233,17.9a11.383,11.383,0,0,0,.771,5.051c1.484,3.047,5.516,3.09,8.421,3.084l28.723-.049a49.17,49.17,0,0,1,10.767,1.249c3.148.647,5.849-.941,7.359-3.87,1.429-2.772,1.538-6.01,1.692-9.125a196.966,196.966,0,0,1,5.129-35.99C1478.2,684.678,1479.594,680.307,1480.679,675.711Z" transform="translate(-1406.714 -642.583)" fill="#ffc73c"/>
      <g id="Grupo_1022" data-name="Grupo 1022" transform="translate(0 0)" clip-path="url(#clip-path)">
        <path id="Trazado_5194" data-name="Trazado 5194" d="M1470.5,651.965c2.254-3.791,2.766-8.528-.186-12.182-1.35-1.67-3.738-1.857-5.779-1.9a48.559,48.559,0,0,0-11.96,1.267c-3.73.872-7.534,2.351-9.15,6.117a9.421,9.421,0,0,0,.8,8.6,10.587,10.587,0,0,0,6.478,4.679,22.422,22.422,0,0,0,13.414-.835A14.019,14.019,0,0,0,1470.5,651.965Z" transform="translate(-1418.707 -641.017)" fill="#efb126"/>
        <path id="Trazado_5195" data-name="Trazado 5195" d="M1486.135,728.77q-.045-8.771-.089-17.54c-.011-2.036,1.311-14.425-1.855-14.284a1.79,1.79,0,0,0-.932.39c-1.576,1.127-2.385,3.014-3.121,4.805-2.308,5.616-4.246,14.606-9.05,18.538-4.882,4-12.391,5.682-18.458,6.641-7.087,1.121-14.289,1.2-21.45,1.64-4.632.282-9.742.948-12.785,4.452-2.172,2.5-3.279,6.253-4.44,9.309-1.014,2.672-1.822,5.845.237,8.264a9.6,9.6,0,0,0,3.322,2.288,54.048,54.048,0,0,0,14.226,3.984,194.5,194.5,0,0,0,41.348,2.1c2.953-.141,6.154-.435,8.333-2.433a11.493,11.493,0,0,0,2.927-5.808C1486.2,743.854,1486.173,736.264,1486.135,728.77Z" transform="translate(-1408.778 -660.685)" fill="#efb126"/>
      </g>
    </g>
    <path id="Trazado_5197" data-name="Trazado 5197" d="M1423.7,593.945c-5.225,5.375-.485,18.51,7.846,16.609,8.952-2.042,7.605-15.994-.49-18.284A7.078,7.078,0,0,0,1423.7,593.945Z" transform="translate(-160.649 -61.132)" fill="#57b8e8"/>
    <path id="Trazado_5198" data-name="Trazado 5198" d="M1488.038,648.4c5.236.668,10.752.208,15.429-2.239,5.954-3.116,8.933-8.83,9.057-15.4.089-4.762-.832-9.725-3.707-13.522-3.125-4.129-8.363-6.667-10.307-11.467-1.259-3.108-.957-7.34,1.532-9.745,1.584-1.531,2.824-3.258,2.621-5.553-.3-3.376-2.769-6.62-5.529-8.444-4.046-2.674-9.078-3.652-13.813-4.254-3.206-.408-6.4-1.309-7.392-4.762a25.361,25.361,0,0,1-.53-5.743c-.214-4.083-.512-8.166-1.122-12.211-.7-4.663-3.731-9.173-7.108-12.386q-.727-.691-1.509-1.324c-8.707-7.053-24.823-9.552-34.427-3.015a14.877,14.877,0,0,0-6.3,9.539c-.488,2.605-1.194,3.166-3.74,3.957-4.625,1.435-9.875,2.454-13.548,5.846a12.7,12.7,0,0,0-3.812,10.528c.488,4.922,3.93,7.277,6.394,11.178,2.515,3.982.538,8.993-2.384,12.28-2.251,2.531-5.443,4.38-6.714,7.519-1.17,2.888-.4,6.226,1.017,9,.572,1.125,1.246,2.2,1.752,3.356a13,13,0,0,1-.42,11.132" transform="translate(-153.673 -42.029)" fill="none" stroke="#0b2d4e" stroke-miterlimit="10" stroke-width="4"/>
    <path id="Trazado_5199" data-name="Trazado 5199" d="M1041.79,763.378H946V781.8h395.073c10.142,0,18.959-7.211,24.912-18.424Z" transform="translate(121.564 -118.229)" fill="#17a94c"/>
    <path id="Trazado_5200" data-name="Trazado 5200" d="M1532.912,696.064q2.4,4.333,4.756,8.694c3.172,5.91,9.061,19.041-.367,22.285-4.75,1.634-7.467.036-10.608-3.425a200.079,200.079,0,0,1-30.035-43.514c-2.987-5.86-10.92-21.134-1.285-24.623a11.7,11.7,0,0,1,9.4.687,18.95,18.95,0,0,1,3.563,2.629c6.954,6.2,11.9,14.2,16.31,22.318C1527.367,686.13,1530.155,691.09,1532.912,696.064Z" transform="translate(-183.703 -82.076)" fill="#ffc73c"/>
    <path id="Trazado_5201" data-name="Trazado 5201" d="M1478.341,744.172q1.217-.208,2.437-.4,5.934-.93,11.813-2.209a198.878,198.878,0,0,1,23.462-3.884q1.256-.119,2.513-.214c3.541-.267,7.251-.354,10.492,1.339s5.82,5.7,5.028,9.56a8.407,8.407,0,0,1-4.936,5.784,21.222,21.222,0,0,1-7.332,1.376l-24.192,1.628q-5.989.4-11.977.82c-3.813.266-7.684.8-11.506.8a7.665,7.665,0,0,1-4.781-1.384c-1.889-1.5-3.026-4.693-3.209-7.188a4.382,4.382,0,0,1,1.151-3.671,4,4,0,0,1,1.857-.68C1472.225,745.284,1475.275,744.7,1478.341,744.172Z" transform="translate(-175.508 -109.551)" fill="#ffc73c"/>
    <g id="Grupo_1025" data-name="Grupo 1025" transform="translate(1154.662 585.725)">
      <rect id="Rectángulo_668" data-name="Rectángulo 668" width="39.118" height="7.659" transform="translate(77.4 51.803)" fill="#2f95d2"/>
      <g id="Grupo_1024" data-name="Grupo 1024" transform="translate(0 0)">
        <path id="Trazado_5202" data-name="Trazado 5202" d="M1346.666,726.834l-9.872-50.261a2.831,2.831,0,0,0-2.778-2.285h-65.63a2.807,2.807,0,0,0-2.275,1.167l-.009-.009-3.03,3.583,2.689-.59,9.72,49.485a2.831,2.831,0,0,0,2.778,2.285h65.63A2.83,2.83,0,0,0,1346.666,726.834Z" transform="translate(-1262.553 -674.288)" fill="#2f95d2"/>
        <path id="Trazado_5203" data-name="Trazado 5203" d="M1275,735.517h65.63a2.831,2.831,0,0,0,2.777-3.376l-9.873-50.261a2.831,2.831,0,0,0-2.777-2.285h-65.63a2.832,2.832,0,0,0-2.778,3.377l9.873,50.261A2.83,2.83,0,0,0,1275,735.517Z" transform="translate(-1262.294 -676.055)" fill="#0b2d4e"/>
        <path id="Trazado_5204" data-name="Trazado 5204" d="M1312.241,716.583a7.664,7.664,0,0,0,7.235,6.139,4.921,4.921,0,0,0,4.954-6.139,7.749,7.749,0,0,0-7.234-6.138A4.964,4.964,0,0,0,1312.241,716.583Z" transform="translate(-1278.893 -686.328)" fill="#2f95d2"/>
      </g>
      <path id="Trazado_5205" data-name="Trazado 5205" d="M1262.3,683.1" transform="translate(-1262.295 -677.222)" fill="#3f91ac"/>
    </g>
    <path id="Trazado_5206" data-name="Trazado 5206" d="M1454.006,760.7c-1.95.4-3.474,2.115-5.415,2.689a6.662,6.662,0,0,1-4.2-.309c-1.224-.459-2.468-.7-3.725-1.107-.979-.314-2.3-.974-3.352-.754-2.757.574-5.506,2.535-8,3.809a2.9,2.9,0,0,1-1.8.464c-.62-.117-1.137-.868-.784-1.391-.719.672-1.671,2.015-2.83,1.494a.97.97,0,0,1-.5-1.29,3.924,3.924,0,0,1-1.367,1.106,1.343,1.343,0,0,1-1.6-.372,1.593,1.593,0,0,1-.212-.8,6.032,6.032,0,0,1,.64-2.773c1.968-4.295,6.419-7.481,10.205-10.04a8.149,8.149,0,0,1,2.125-1.147,7.456,7.456,0,0,1,2.149-.238,42.844,42.844,0,0,1,13.845,2.237,6,6,0,0,0,2.984-.132,4.655,4.655,0,0,1,2.147-.062,3.7,3.7,0,0,1,1.852,1.5,6.958,6.958,0,0,1,1.431,4.322c-.079,1.152-.167,2.394-1.521,2.635-.549.1-1.115.038-1.67.1C1454.277,760.647,1454.141,760.669,1454.006,760.7Z" transform="translate(-160.219 -113.787)" fill="#f8a17a"/>
    <path id="Trazado_5207" data-name="Trazado 5207" d="M1463.634,646.81c2.869-.92,5.232-2.7,6.117-5.538.8-2.573-.464-5.468-.689-8.064a49.242,49.242,0,0,1-.081-7.482,32.4,32.4,0,0,0,.017-7c-.2-1.312-.922-1.087-2.249-1.609a11.581,11.581,0,0,0-4.259-.523c-2.953.007-10.652-.207-12.477,2.385a7.293,7.293,0,0,0-.944,4.1c-.048,1.71-.351,3.925-.631,6.311-.125,1.062-.047,2.12-.21,3.175a19.968,19.968,0,0,1-1.024,3.446c-1.485,4.279-.095,8.348,4.533,10.307A18.284,18.284,0,0,0,1463.634,646.81Z" transform="translate(-169.015 -69.352)" fill="#f8a17a"/>
    <path id="Trazado_5208" data-name="Trazado 5208" d="M1469.4,618.727c-.2-1.312-.921-1.087-2.249-1.609a11.578,11.578,0,0,0-4.259-.523c-2.953.007-10.651-.207-12.477,2.385a7.286,7.286,0,0,0-.944,4.1c-.048,1.71-.351,3.925-.631,6.311-.125,1.062-.048,2.12-.211,3.175a14.677,14.677,0,0,1-.737,2.634,15.648,15.648,0,0,0,9.083.565,20.721,20.721,0,0,0,12.36-9.027c.015-.338.025-.677.047-1.015A32.429,32.429,0,0,0,1469.4,618.727Z" transform="translate(-169.434 -69.352)" fill="#e5785c"/>
    <path id="Trazado_5209" data-name="Trazado 5209" d="M1466.958,582.829a36.11,36.11,0,0,0-1.582-10.791c-4.378-13.4-21.1-16.713-31.166-7.093-11.227,10.729-6.93,36.381,4.9,45.392a13.269,13.269,0,0,0,11.3,2.226C1462.024,609.448,1467.032,595.149,1466.958,582.829Z" transform="translate(-162.702 -50.315)" fill="#f8a17a"/>
    <path id="Trazado_5210" data-name="Trazado 5210" d="M1481.379,594.691c5.144-2.813,6.727,4.309,5.842,7.854a11.311,11.311,0,0,1-1.852,4.1c-1.223,1.622-4.724,4.312-6.74,2.538-.915-.805-1.009-2.173-1.037-3.392C1477.516,602.52,1477.893,596.6,1481.379,594.691Z" transform="translate(-179.32 -61.845)" fill="#f8a17a"/>
    <g id="Grupo_1026" data-name="Grupo 1026" transform="translate(1281.503 546.854)">
      <path id="Trazado_5211" data-name="Trazado 5211" d="M1456.257,625.465a26.052,26.052,0,0,1-3.8-.28l.228-1.543a23.436,23.436,0,0,0,13.314-1.86,17.175,17.175,0,0,0,2.881-1.655,13.605,13.605,0,0,0,3.731-4.114l1.346.788a15.162,15.162,0,0,1-4.163,4.589,18.718,18.718,0,0,1-3.14,1.808A24.684,24.684,0,0,1,1456.257,625.465Z" transform="translate(-1452.456 -616.013)" fill="#2f95d2"/>
    </g>
    <g id="Grupo_1027" data-name="Grupo 1027" transform="translate(1276.112 552.116)">
      <path id="Trazado_5212" data-name="Trazado 5212" d="M1445.255,625.039c1.881-1.614,6.064-1.476,7.443.2a2.746,2.746,0,0,1-.415,3.869c-1.331,1.242-2.978,1.17-4.638.8C1445.566,629.435,1442.988,626.984,1445.255,625.039Z" transform="translate(-1444.373 -623.902)" fill="#2f95d2"/>
    </g>
    <path id="Trazado_5213" data-name="Trazado 5213" d="M1467.654,572.534c-4.61-14.111-22.212-17.6-32.812-7.468a20.881,20.881,0,0,0-5.157,8.31,9.783,9.783,0,0,0,.818,1.1,15.752,15.752,0,0,0,5.481,3.719,78.794,78.794,0,0,0,18.651,5.526c.47.088.945.175,1.417.268a15.794,15.794,0,0,1,5.041,1.686c4.342,2.559,2.474,8.189,5.656,10.656a3.014,3.014,0,0,0,.869.47,47.474,47.474,0,0,0,1.7-12.905A38.012,38.012,0,0,0,1467.654,572.534Z" transform="translate(-163.371 -50.258)" fill="#e5785c"/>
    <path id="Trazado_5214" data-name="Trazado 5214" d="M1457.425,580.085a15.8,15.8,0,0,1,4.708,2.469c3.879,3.219,1.137,8.479,3.884,11.422,2.434,2.607,6.13-.838,7.1-3.246,1.783-4.436,1.679-9.374,1.547-14.155a29.68,29.68,0,0,0-.935-7.919,19.469,19.469,0,0,0-4.49-7.4,28.8,28.8,0,0,0-22.665-8.837c-6.523.41-17.966,5.892-12.852,14.2a15.753,15.753,0,0,0,4.818,4.545,78.817,78.817,0,0,0,17.531,8.43C1456.52,579.756,1456.974,579.917,1457.425,580.085Z" transform="translate(-164.288 -47.965)" fill="#0b2d4e"/>
    <path id="Trazado_5215" data-name="Trazado 5215" d="M1483.079,591.866c-7.26,1.862-10.066,15.54-1.966,18.263,8.7,2.926,14.83-9.68,9.117-15.856A7.078,7.078,0,0,0,1483.079,591.866Z" transform="translate(-178.859 -61.046)" fill="#57b8e8"/>
    <path id="Trazado_5216" data-name="Trazado 5216" d="M1487.286,594.581c-5.012.806-8.1,11.454-2.934,14.384,5.55,3.15,10.759-6.333,7.494-11.795C1490.573,595.04,1488.9,594.322,1487.286,594.581Z" transform="translate(-180.686 -62.005)" fill="#2f95d2"/>
    <g id="Grupo_1028" data-name="Grupo 1028" transform="translate(1270.52 497.328)">
      <path id="Trazado_5217" data-name="Trazado 5217" d="M1473.081,576.211l-1.936-.224c1.314-11.352.754-25.856-9.371-30.489-4.795-2.194-18.527-4.628-24.571,3.528-.726.816-1.213,1.5-1.213,1.5,3.748-11.565,21.42-9.169,26.6-6.8C1473.775,548.845,1474.469,564.217,1473.081,576.211Z" transform="translate(-1435.989 -541.763)" fill="#57b8e8"/>
    </g>
    <g id="Grupo_1029" data-name="Grupo 1029" transform="translate(1346.811 478.808)">
      <rect id="Rectángulo_669" data-name="Rectángulo 669" width="79.908" height="48.522" rx="11.983" transform="translate(79.908 48.522) rotate(180)" fill="#0098d7"/>
      <path id="Trazado_5218" data-name="Trazado 5218" d="M1566.135,594.76v-22.3l17.463,9.525Z" transform="translate(-1555.618 -533.465)" fill="#0098d7"/>
      <rect id="Rectángulo_670" data-name="Rectángulo 670" width="39.557" height="4.234" rx="2.117" transform="translate(12.171 22.213)" fill="#e1f4fd"/>
      <rect id="Rectángulo_671" data-name="Rectángulo 671" width="12.965" height="4.234" rx="2.117" transform="translate(54.771 22.213)" fill="#e1f4fd"/>
      <rect id="Rectángulo_672" data-name="Rectángulo 672" width="39.557" height="4.234" rx="2.117" transform="translate(67.736 16.833) rotate(180)" fill="#e1f4fd"/>
      <rect id="Rectángulo_673" data-name="Rectángulo 673" width="12.965" height="4.234" rx="2.117" transform="translate(25.137 16.833) rotate(180)" fill="#e1f4fd"/>
      <rect id="Rectángulo_674" data-name="Rectángulo 674" width="27.783" height="4.234" rx="2.117" transform="translate(12.171 31.002)" fill="#e1f4fd"/>
    </g>
  </g>
</svg>
