<svg xmlns="http://www.w3.org/2000/svg" width="713" height="183" viewBox="0 0 713 183">
  <g id="Grupo_10159" data-name="Grupo 10159" transform="translate(-234 -3574)">
    <rect id="Rectángulo_1836" data-name="Rectángulo 1836" width="713" height="183" rx="15" transform="translate(234 3574)" fill="#feefb2"/>
    <text id="_En_la_tabla_anterior_se_evidencia_que_cada_uno_de_los_sectores_tiene_unas_características_comunes_las_cuales_permiten_identificarlo_y_conocerlo_con_mayor_profundidad._Tambien_permite_realizar_análisis_y_proyecciones_sectoriales_información_que_se_orie" data-name="
En la tabla anterior, se evidencia que cada uno de los sectores tiene unas características comunes, las cuales permiten identificarlo y conocerlo con mayor profundidad. Tambien, permite realizar análisis y proyecciones sectoriales, información que se orie" transform="translate(395 3587)" fill="#00223d" font-size="16" font-family="OpenSans, Open Sans"><tspan x="0" y="17"></tspan><tspan x="0" y="39">En la tabla anterior, se evidencia que cada uno de los sectores tiene </tspan><tspan x="0" y="61">unas características comunes, las cuales permiten identificarlo y </tspan><tspan x="0" y="83">conocerlo con mayor profundidad. Tambien, permite realizar análisis </tspan><tspan x="0" y="105">y proyecciones sectoriales, información que se orienta a </tspan><tspan x="0" y="127">inversionistas así como a financiadores.</tspan><tspan x="0" y="149"></tspan></text>
    <g id="search" transform="translate(268 3612)">
      <g id="Grupo_421" data-name="Grupo 421">
        <path id="Trazado_634" data-name="Trazado 634" d="M45.668,0A45.65,45.65,0,0,1,84.315,69.976L98.3,83.959A10.153,10.153,0,0,1,83.94,98.319L69.956,84.335A45.666,45.666,0,1,1,45.668,0Zm0,81.191A35.522,35.522,0,1,0,10.146,45.668,35.57,35.57,0,0,0,45.668,81.191Z" fill="#234eae"/>
      </g>
    </g>
  </g>
</svg>
