<svg xmlns="http://www.w3.org/2000/svg" width="121" height="121" viewBox="0 0 121 121">
  <g id="Grupo_10152" data-name="Grupo 10152" transform="translate(-108 -1163)">
    <path id="Trazado_9697" data-name="Trazado 9697" d="M60.5,0A60.5,60.5,0,1,1,0,60.5,60.5,60.5,0,0,1,60.5,0Z" transform="translate(108 1163)" fill="#4b9ddf"/>
    <path id="Trazado_1178" data-name="Trazado 1178" d="M53.993,0A53.993,53.993,0,1,1,0,53.993,53.993,53.993,0,0,1,53.993,0Z" transform="translate(115 1170)" fill="#fff"/>
    <g id="Grupo_5167" data-name="Grupo 5167" transform="translate(-479.264 807.964)">
      <g id="Grupo_5165" data-name="Grupo 5165" transform="translate(619.232 387.004)">
        <g id="Grupo_5145" data-name="Grupo 5145" transform="translate(44.526 27.103)">
          <path id="Trazado_9182" data-name="Trazado 9182" d="M994.264,618.036h13.551v3.872H994.264Z" transform="translate(-994.264 -618.036)" fill="#dfb28b"/>
        </g>
        <g id="Grupo_5146" data-name="Grupo 5146" transform="translate(0 27.103)">
          <path id="Trazado_9183" data-name="Trazado 9183" d="M626.264,618.036h13.551v3.872H626.264Z" transform="translate(-626.264 -618.036)" fill="#dfb28b"/>
        </g>
        <g id="Grupo_5147" data-name="Grupo 5147" transform="translate(44.526 30.975)">
          <path id="Trazado_9184" data-name="Trazado 9184" d="M1007.815,650.036v27.1H994.264v-27.1Z" transform="translate(-994.264 -650.036)" fill="#ecc19c"/>
        </g>
        <g id="Grupo_5148" data-name="Grupo 5148" transform="translate(0 30.975)">
          <path id="Trazado_9185" data-name="Trazado 9185" d="M639.815,650.036v27.1H626.264v-27.1Z" transform="translate(-626.264 -650.036)" fill="#ecc19c"/>
        </g>
        <g id="Grupo_5149" data-name="Grupo 5149" transform="translate(11.615 0)">
          <path id="Trazado_9186" data-name="Trazado 9186" d="M740.655,394.036h-1.936l-16.455,13.551v3.872H757.11v-3.872Z" transform="translate(-722.264 -394.036)" fill="#cf9e76"/>
        </g>
        <g id="Grupo_5150" data-name="Grupo 5150" transform="translate(17.704 4.22)">
          <path id="Trazado_9187" data-name="Trazado 9187" d="M795.254,438.247h-22.67l11.335-9.331Z" transform="translate(-772.584 -428.916)" fill="#ecc19c"/>
        </g>
        <g id="Grupo_5151" data-name="Grupo 5151" transform="translate(17.423 17.423)">
          <path id="Trazado_9188" data-name="Trazado 9188" d="M793.495,538.036V578.69H770.264V538.036Z" transform="translate(-770.264 -538.036)" fill="#e6e9ed"/>
        </g>
        <g id="Grupo_5152" data-name="Grupo 5152" transform="translate(40.654 17.423)">
          <path id="Trazado_9189" data-name="Trazado 9189" d="M966.136,551.587v27.1h-3.872V538.036h3.872v13.551Z" transform="translate(-962.264 -538.036)" fill="#ccd1d9"/>
        </g>
        <g id="Grupo_5153" data-name="Grupo 5153" transform="translate(13.551 17.423)">
          <path id="Trazado_9190" data-name="Trazado 9190" d="M742.136,561.267V578.69h-3.872V538.036h3.872v23.231Z" transform="translate(-738.264 -538.036)" fill="#ccd1d9"/>
        </g>
        <g id="Grupo_5154" data-name="Grupo 5154" transform="translate(23.231 44.526)">
          <path id="Trazado_9191" data-name="Trazado 9191" d="M829.879,767.844v7.744H818.264v-7.744a5.812,5.812,0,0,1,5.808-5.808,5.816,5.816,0,0,1,5.808,5.808Z" transform="translate(-818.264 -762.036)" fill="#aab2bd"/>
        </g>
        <g id="Grupo_5155" data-name="Grupo 5155" transform="translate(48.398 50.334)">
          <path id="Trazado_9192" data-name="Trazado 9192" d="M1026.264,810.036h5.808v3.872h-5.808Z" transform="translate(-1026.264 -810.036)" fill="#69d6f4"/>
        </g>
        <g id="Grupo_5156" data-name="Grupo 5156" transform="translate(48.398 42.59)">
          <path id="Trazado_9193" data-name="Trazado 9193" d="M1026.264,746.036h5.808v3.872h-5.808Z" transform="translate(-1026.264 -746.036)" fill="#69d6f4"/>
        </g>
        <g id="Grupo_5157" data-name="Grupo 5157" transform="translate(48.398 34.846)">
          <path id="Trazado_9194" data-name="Trazado 9194" d="M1026.264,682.036h5.808v3.872h-5.808Z" transform="translate(-1026.264 -682.036)" fill="#69d6f4"/>
        </g>
        <g id="Grupo_5158" data-name="Grupo 5158" transform="translate(30.975 32.911)">
          <path id="Trazado_9195" data-name="Trazado 9195" d="M882.264,666.036h5.808v3.872h-5.808Z" transform="translate(-882.264 -666.036)" fill="#69d6f4"/>
        </g>
        <g id="Grupo_5159" data-name="Grupo 5159" transform="translate(30.975 21.295)">
          <path id="Trazado_9196" data-name="Trazado 9196" d="M882.264,570.036h5.808v3.872h-5.808Z" transform="translate(-882.264 -570.036)" fill="#69d6f4"/>
        </g>
        <g id="Grupo_5160" data-name="Grupo 5160" transform="translate(21.295 21.295)">
          <path id="Trazado_9197" data-name="Trazado 9197" d="M802.264,570.036h5.808v3.872h-5.808Z" transform="translate(-802.264 -570.036)" fill="#69d6f4"/>
        </g>
        <g id="Grupo_5161" data-name="Grupo 5161" transform="translate(21.295 32.911)">
          <path id="Trazado_9198" data-name="Trazado 9198" d="M802.264,666.036h5.808v3.872h-5.808Z" transform="translate(-802.264 -666.036)" fill="#69d6f4"/>
        </g>
        <g id="Grupo_5162" data-name="Grupo 5162" transform="translate(3.872 34.846)">
          <path id="Trazado_9199" data-name="Trazado 9199" d="M658.264,682.036h5.808v3.872h-5.808Z" transform="translate(-658.264 -682.036)" fill="#69d6f4"/>
        </g>
        <g id="Grupo_5163" data-name="Grupo 5163" transform="translate(3.872 42.59)">
          <path id="Trazado_9200" data-name="Trazado 9200" d="M658.264,746.036h5.808v3.872h-5.808Z" transform="translate(-658.264 -746.036)" fill="#69d6f4"/>
        </g>
        <g id="Grupo_5164" data-name="Grupo 5164" transform="translate(3.872 50.334)">
          <path id="Trazado_9201" data-name="Trazado 9201" d="M658.264,810.036h5.808v3.872h-5.808Z" transform="translate(-658.264 -810.036)" fill="#69d6f4"/>
        </g>
      </g>
      <g id="Grupo_5166" data-name="Grupo 5166" transform="translate(618.264 386.036)">
        <path id="Trazado_9202" data-name="Trazado 9202" d="M664.726,413.139V405.4h1.936v-5.3l-17.076-14.062h-2.631L629.879,400.1v5.3h1.936v7.744H618.264v32.91h60.013v-32.91Zm11.615,1.936v1.936H664.726v-1.936ZM662.79,444.113h-1.936V405.4h1.936Zm-9.68,0h-9.68v-6.776a4.84,4.84,0,1,1,9.68,0Zm-4.84-13.551a6.784,6.784,0,0,0-6.776,6.776v6.776h-3.872V428.626h21.295v15.487h-3.872v-6.776A6.784,6.784,0,0,0,648.271,430.562ZM658.918,405.4v9.68H637.623V405.4Zm0,21.3H637.623v-9.68h21.295Zm-27.1-23.231v-1.936h32.911v1.936Zm7.82-3.872,8.635-7.111,8.635,7.111Zm8.015-11.615h1.241L663,399.587H659.95l-11.679-9.619-11.679,9.619h-3.046ZM635.687,405.4v38.718h-1.936V405.4Zm-3.872,9.68v1.936H620.2v-1.936ZM620.2,418.947h11.615v25.167H620.2Zm44.526,25.167V418.947h11.615v25.167Z" transform="translate(-618.264 -386.036)"/>
        <path id="Trazado_9203" data-name="Trazado 9203" d="M1018.264,743.844h7.744v-5.808h-7.744Zm1.936-3.872h3.872v1.936H1020.2Z" transform="translate(-969.866 -695.446)"/>
        <path id="Trazado_9204" data-name="Trazado 9204" d="M1018.264,807.844h7.744v-5.808h-7.744Zm1.936-3.872h3.872v1.936H1020.2Z" transform="translate(-969.866 -751.702)"/>
        <path id="Trazado_9205" data-name="Trazado 9205" d="M650.264,743.844h7.744v-5.808h-7.744Zm1.936-3.872h3.872v1.936H652.2Z" transform="translate(-646.392 -695.446)"/>
        <path id="Trazado_9206" data-name="Trazado 9206" d="M1018.264,679.844h7.744v-5.808h-7.744Zm1.936-3.872h3.872v1.936H1020.2Z" transform="translate(-969.866 -639.19)"/>
        <path id="Trazado_9207" data-name="Trazado 9207" d="M650.264,674.036v5.808h7.744v-5.808Zm5.808,3.872H652.2v-1.936h3.872Z" transform="translate(-646.392 -639.19)"/>
        <path id="Trazado_9208" data-name="Trazado 9208" d="M650.264,807.844h7.744v-5.808h-7.744Zm1.936-3.872h3.872v1.936H652.2Z" transform="translate(-646.392 -751.702)"/>
        <path id="Trazado_9209" data-name="Trazado 9209" d="M802.008,663.844v-5.808h-7.744v5.808Zm-5.808-3.872h3.872v1.936H796.2Z" transform="translate(-772.969 -625.126)"/>
        <path id="Trazado_9210" data-name="Trazado 9210" d="M882.008,658.036h-7.744v5.808h7.744Zm-1.936,3.872H876.2v-1.936h3.872Z" transform="translate(-843.289 -625.126)"/>
        <path id="Trazado_9211" data-name="Trazado 9211" d="M802.008,567.844v-5.808h-7.744v5.808Zm-5.808-3.872h3.872v1.936H796.2Z" transform="translate(-772.969 -540.741)"/>
        <path id="Trazado_9212" data-name="Trazado 9212" d="M882.008,562.036h-7.744v5.808h7.744Zm-1.936,3.872H876.2v-1.936h3.872Z" transform="translate(-843.289 -540.741)"/>
      </g>
    </g>
  </g>
</svg>
