<svg xmlns="http://www.w3.org/2000/svg" width="121" height="121" viewBox="0 0 121 121">
  <g id="Grupo_10153" data-name="Grupo 10153" transform="translate(-108 -1318)">
    <g id="Grupo_5169" data-name="Grupo 5169">
      <circle id="Elipse_497" data-name="Elipse 497" cx="60.5" cy="60.5" r="60.5" transform="translate(108 1318)" fill="#4b9ddf"/>
      <path id="Trazado_1178" data-name="Trazado 1178" d="M53.993,0A53.993,53.993,0,1,1,0,53.993,53.993,53.993,0,0,1,53.993,0Z" transform="translate(115 1325)" fill="#fff"/>
      <g id="Filled_outline" data-name="Filled outline" transform="translate(-1044.094 946.964)">
        <g id="Grupo_5168" data-name="Grupo 5168" transform="translate(1190.111 425.092)">
          <path id="Trazado_9213" data-name="Trazado 9213" d="M1263.094,586.036h4.01v4.01h-4.01Z" transform="translate(-1260.087 -586.036)" fill="#f9bb4b"/>
          <path id="Trazado_9214" data-name="Trazado 9214" d="M1239.094,722.036h4.01v4.01h-4.01Z" transform="translate(-1239.094 -704.994)" fill="#f9bb4b"/>
          <path id="Trazado_9215" data-name="Trazado 9215" d="M1555.1,590.046h-4.01v-4.01h4.01Z" transform="translate(-1511.998 -586.036)" fill="#f9bb4b"/>
          <path id="Trazado_9216" data-name="Trazado 9216" d="M1579.1,726.046h-4.01v-4.01h4.01Z" transform="translate(-1532.991 -704.994)" fill="#f9bb4b"/>
        </g>
        <path id="Trazado_9217" data-name="Trazado 9217" d="M1319.094,842.036h26.064v4.01h-26.064Z" transform="translate(-118.958 -384.865)" fill="#ad6327"/>
        <path id="Trazado_9218" data-name="Trazado 9218" d="M1183.094,402.036v2h16.782l7.878,4.377-.363,4.9-14.5,6.765h-9.8v2h11.027v2h-1a1,1,0,0,0-1,1v4.01a1,1,0,0,0,1,1h4.01a1,1,0,0,0,1-1h0v-4.01a1,1,0,0,0-1-1h-1v-2h10.616l-.62,8.362-16.212,6.674h-6.817v2h8.02v2h-1a1,1,0,0,0-1,1v4.01a1,1,0,0,0,1,1h4.01a1,1,0,0,0,1-1v-4.01a1,1,0,0,0-1-1h-1v-2h12.361l-1.262,17.042h-4.082a1,1,0,0,0-1,1v4.01a1,1,0,0,0,1,1H1226.2a1,1,0,0,0,1-1v-4.01a1,1,0,0,0-1-1h-4.082l-1.262-17.042h12.361v2h-1a1,1,0,0,0-1,1v4.01a1,1,0,0,0,1,1h4.01a1,1,0,0,0,1-1v-4.01a1,1,0,0,0-1-1h-1v-2h8.02v-2h-6.817l-16.21-6.674-.622-8.362h10.616v2h-1a1,1,0,0,0-1,1v4.01a1,1,0,0,0,1,1h4.01a1,1,0,0,0,1-1v-4.01a1,1,0,0,0-1-1h-1v-2h11.027v-2h-9.8l-14.5-6.765-.363-4.9,7.878-4.377h16.782v-2Zm13.032,26.064h-2v-2h2Zm-3.007,17.042h-2v-2h2Zm42.1,0h-2v-2h2Zm-3.007-17.042h-2v-2h2Zm-14.135.647-7.332-6.661h6.836Zm-.7-9.45-6.043-4.228h5.728Zm-.5-6.707-4.712-3.536h4.453Zm-6.788-8.548h6.157l.224,3.007h-6.6Zm-.419,5.647,4.5,3.375h-4.75Zm-.469,6.333,5.8,4.059h-6.1Zm-.511,6.9,7.9,7.181h-8.435ZM1204,404.041h4.074l-.16,2.174Zm3.91,29.372,3.426,3.709h-3.7Zm-.424,5.714h5.7l3.7,4.01h-9.7Zm-9.853-19.047,9.585-4.473-.332,4.473Zm-2.458,17.042,10.778-4.438-.329,4.438Zm35.978,0h-10.45l-.329-4.438Zm-5.96,21.052v2h-24.059v-2Zm-5.089-2h-13.88l.816-11.027h12.139a.928.928,0,0,0,.107-.016Zm8.591-36.088h-9.254l-.332-4.473Zm-9.6,22.492-3.181-3.445h2.925Zm-.4-5.45h-4.627l-4.627-5.012h8.884Zm-.28-30.907-.16-2.174h4.074Z" transform="translate(0 0)"/>
      </g>
    </g>
  </g>
</svg>
