<svg xmlns="http://www.w3.org/2000/svg" xmlns:xlink="http://www.w3.org/1999/xlink" viewBox="0 0 91.77 105.84"><defs><style>.cls-1{fill:url(#Degradado_sin_nombre_25);}.cls-2{fill:#4dd0e0;}</style><linearGradient id="Degradado_sin_nombre_25" x1="45.42" y1="104.15" x2="45.42" y2="1.07" gradientUnits="userSpaceOnUse"><stop offset="0" stop-color="#cbf1f6"/><stop offset="1" stop-color="#fff"/></linearGradient></defs><g id="Capa_2" data-name="Capa 2"><g id="CONTENIDO"><path class="cls-1" d="M87.06,27.62l-1.72-1a4.82,4.82,0,0,0-6.61,1.63l-4,6.7v-20a4.81,4.81,0,0,0-4.81-4.81H54.67a4.77,4.77,0,0,0-4.26-2.62H46.76V5.88a4.81,4.81,0,0,0-4.82-4.81H34.2a4.81,4.81,0,0,0-4.81,4.81V7.51H25.74a4.8,4.8,0,0,0-4.27,2.62H6.28a4.81,4.81,0,0,0-4.81,4.81v84.4a4.81,4.81,0,0,0,4.81,4.81H69.87a4.81,4.81,0,0,0,4.81-4.81v-42l14-23.15A4.81,4.81,0,0,0,87.06,27.62Z"/><path class="cls-2" d="M19,30.57H59.27a1.55,1.55,0,0,0,0-3.1H19a1.55,1.55,0,0,0,0,3.1Z"/><path class="cls-2" d="M19,37.05H49.69a1.56,1.56,0,0,0,0-3.11H19a1.56,1.56,0,0,0,0,3.11Z"/><path class="cls-2" d="M19,55.46H53a1.55,1.55,0,1,0,0-3.1H19a1.55,1.55,0,0,0,0,3.1Z"/><path class="cls-2" d="M49.69,61.94a1.56,1.56,0,0,0,0-3.11H19a1.56,1.56,0,0,0,0,3.11Z"/><path class="cls-2" d="M19.81,82.11H32.66a1.55,1.55,0,1,0,0-3.1H19.81a1.55,1.55,0,1,0,0,3.1Z"/><path class="cls-2" d="M29.39,88.59a1.55,1.55,0,0,0,0-3.1H19.81a1.55,1.55,0,1,0,0,3.1Z"/><path class="cls-2" d="M89.14,26.53,86.68,25a5.66,5.66,0,0,0-7.81,1.75l-2.26,3.57-3.13,5-3.55,5.6V17.56a2.9,2.9,0,0,0-2.9-2.9H55.91V11.55H70.79A2.25,2.25,0,0,1,73,13.8V27.23a1.55,1.55,0,0,0,3.1,0V13.8a5.36,5.36,0,0,0-5.35-5.35H55.59a4.22,4.22,0,0,0-3.9-2.61h-4V4.28A4.28,4.28,0,0,0,43.4,0H32.73a4.28,4.28,0,0,0-4.28,4.28V5.84h-4a4.24,4.24,0,0,0-3.91,2.61H5.35A5.36,5.36,0,0,0,0,13.8v86.69a5.36,5.36,0,0,0,5.35,5.35H70.79a5.36,5.36,0,0,0,5.35-5.35V65.72a1.55,1.55,0,0,0-3.1,0v34.77a2.25,2.25,0,0,1-2.25,2.25H5.35a2.25,2.25,0,0,1-2.25-2.25V13.8a2.25,2.25,0,0,1,2.25-2.25H20.22v3.11H9.11a2.91,2.91,0,0,0-2.91,2.9V96.73a2.92,2.92,0,0,0,2.91,2.91H67a2.91,2.91,0,0,0,2.9-2.91V67.46l15.58-24.6h0l3.13-5,2.26-3.56a5.66,5.66,0,0,0-1.76-7.81Zm-6,.72a2.52,2.52,0,0,1,1.93.34l2.46,1.56a2.56,2.56,0,0,1,.8,3.53l-1.43,2.26-6.79-4.3,1.43-2.26a2.54,2.54,0,0,1,1.6-1.13Zm-29.37,60a9.72,9.72,0,0,1-1,1.31,11,11,0,0,0-1.65-1.76L80,41.2l2.07,1.31ZM43.13,96.53h0c3.36-14,1.72-7.16,2.19-9.1a7.79,7.79,0,0,1,5.12,3.25l-7.28,5.86ZM78.4,33.26l6.79,4.3-1.48,2.33-6.78-4.3ZM23.32,10.1V10a1.12,1.12,0,0,1,1.12-1.08h4.44a2.68,2.68,0,0,0,2.67-2.67v-2A1.17,1.17,0,0,1,32.73,3.1H43.41a1.18,1.18,0,0,1,1.17,1.18v2a2.68,2.68,0,0,0,2.67,2.67h4.44A1.12,1.12,0,0,1,52.81,10v4.64H23.32Zm-14,7.66H66.83v28L50.6,71.39a1.55,1.55,0,1,0,2.62,1.66l22-34.84,2.1,1.33L48.47,85.17a10.65,10.65,0,0,0-2.3-.74A11,11,0,0,1,46.93,83l2.41-3.81a1.55,1.55,0,1,0-2.62-1.66l-2.41,3.81a13.67,13.67,0,0,0-1.72,4.07h0l-2.5,10.37a3.35,3.35,0,0,0-.09.76H9.3ZM66.83,96.53H48.07l5.32-4.28a13.69,13.69,0,0,0,3-3.31L66.83,72.36Z"/></g></g></svg>