<svg xmlns="http://www.w3.org/2000/svg" xmlns:xlink="http://www.w3.org/1999/xlink" viewBox="0 0 101.61 104.26"><defs><style>.cls-1{fill:url(#Degradado_sin_nombre_25);}.cls-2{fill:#4dd0e0;}</style><linearGradient id="Degradado_sin_nombre_25" x1="50.15" y1="102.21" x2="50.15" y2="1.78" gradientUnits="userSpaceOnUse"><stop offset="0" stop-color="#cbf1f6"/><stop offset="1" stop-color="#fff"/></linearGradient></defs><g id="Capa_2" data-name="Capa 2"><g id="CONTENIDO"><path class="cls-1" d="M2,29.59S.34,21.92,17.44,21.92v6.6h41.1L83.89,4.1s3.48-4.77,7.62-.63L97.08,9s2.88,3.76,0,6.65S84,28.37,84,28.37s7.47,3.75,7.47,10.05V84.17h6.85v18H26.74l-2.25-3H7.24S2,97.22,2,89.87,2,29.59,2,29.59Z"/><path class="cls-2" d="M97.38,82.66H93.56V70.24a2.05,2.05,0,0,0-4.1,0V82.66H28.35a4.24,4.24,0,0,0-4.23,4.23v9.87H9.77a5.67,5.67,0,1,1,0-11.33H15.3A4.68,4.68,0,0,0,20,80.76V30.65H54.1l-15,15c-.47.48-.87.86-1.23,1.19l-.37.36,0,0,0,0a10.62,10.62,0,0,0-3,4.73q-3,7.8-6,15.61a3,3,0,0,0,3.88,3.88l15.62-6a10.49,10.49,0,0,0,4.75-3h0l.4-.42c.33-.35.7-.74,1.17-1.21L83.89,31.35a9.09,9.09,0,0,1,5.57,8.35V52a2.05,2.05,0,1,0,4.1,0V39.7A13.19,13.19,0,0,0,87,28.3L90.3,25h0l7.46-7.45a7.67,7.67,0,0,0,0-10.83L93.37,2.24a7.67,7.67,0,0,0-10.84,0L58.21,26.54H20v-2a4.68,4.68,0,0,0-4.68-4.67H9.77A9.78,9.78,0,0,0,0,29.59V91.1a9.78,9.78,0,0,0,9.77,9.76H24.2a4.24,4.24,0,0,0,4.15,3.4h16a2,2,0,0,0,0-4.1h-16a.15.15,0,0,1-.13-.13V86.89a.14.14,0,0,1,.13-.13H38.8l0,4.71a2.05,2.05,0,0,0,2,2h0a2,2,0,0,0,2-2.06l0-4.69H53.48v4.71a2.05,2.05,0,0,0,2,2h0a2,2,0,0,0,2-2.05v-4.7H68.15l0,4.71a2,2,0,0,0,2,2h0a2,2,0,0,0,2-2.06l0-4.69H82.82l0,4.71a2,2,0,0,0,2,2h0a2,2,0,0,0,2-2.06l0-4.69H97.38a.13.13,0,0,1,.13.13V100a.13.13,0,0,1-.13.13H62.64a2,2,0,1,0,0,4.1H97.38a4.24,4.24,0,0,0,4.23-4.23V86.89a4.24,4.24,0,0,0-4.23-4.23ZM60.48,30.07s0,0,.05-.05l16-16,3.27,3.27L45.09,52l-3.27-3.26.16-.17ZM35.07,61.83l3.06,3.06-5,1.89,1.89-5Zm11.45-.14-4.19,1.6-5.66-5.65c.54-1.4,1.07-2.79,1.6-4.19A13.73,13.73,0,0,1,39,51.73l9.23,9.21a14.72,14.72,0,0,1-1.73.75ZM51.43,58h0l-.16.16L48,54.88l34.7-34.66L86,23.49Zm34-52.84a3.57,3.57,0,0,1,5,0l4.42,4.41a3.57,3.57,0,0,1,0,5l-6,6-9.45-9.43ZM4.1,29.59a5.67,5.67,0,0,1,5.67-5.66H15.3a.59.59,0,0,1,.58.57V80.76a.59.59,0,0,1-.58.57H9.77A9.68,9.68,0,0,0,4.1,83.15Z"/><path class="cls-2" d="M53.49,100.16h0a2,2,0,0,0,0,4.1h0a2.05,2.05,0,0,0,0-4.1Z"/><path class="cls-2" d="M91.51,59a2,2,0,0,0-2.05,2v0a2.05,2.05,0,1,0,4.1,0v0a2,2,0,0,0-2-2Z"/><path class="cls-2" d="M33.4,40.71H46.24l3.72-3H33.4a1.52,1.52,0,1,0,0,3Z"/><path class="cls-2" d="M81.14,62.45H67.5a1.74,1.74,0,1,0,0,3.48H81.14a1.74,1.74,0,0,0,0-3.48Z"/><path class="cls-2" d="M32.75,74.61H48.38a1.74,1.74,0,1,0,0-3.47H32.75a1.74,1.74,0,1,0,0,3.47Z"/><path class="cls-2" d="M81.14,71.14H57.07a1.74,1.74,0,1,0,0,3.47H81.14a1.74,1.74,0,0,0,0-3.47Z"/><path class="cls-2" d="M81.14,53.76H57.07a1.74,1.74,0,0,0,0,3.48H81.14a1.74,1.74,0,0,0,0-3.48Z"/><path class="cls-2" d="M58.81,62.45H47.88l-7.45,3.48H58.81a1.74,1.74,0,0,0,0-3.48Z"/></g></g></svg>