<svg xmlns="http://www.w3.org/2000/svg" xmlns:xlink="http://www.w3.org/1999/xlink" viewBox="0 0 89.94 104.26"><defs><style>.cls-1{fill:url(#Degradado_sin_nombre_25);}.cls-2{fill:url(#Degradado_sin_nombre_25-2);}.cls-3{fill:#4dd0e0;}</style><linearGradient id="Degradado_sin_nombre_25" x1="50.04" y1="83.69" x2="50.04" y2="2.17" gradientUnits="userSpaceOnUse"><stop offset="0" stop-color="#cbf1f6"/><stop offset="1" stop-color="#fff"/></linearGradient><linearGradient id="Degradado_sin_nombre_25-2" x1="17.99" y1="102.5" x2="17.99" y2="69.64" xlink:href="#Degradado_sin_nombre_25"/></defs><g id="Capa_2" data-name="Capa 2"><g id="CONTENIDO"><path class="cls-1" d="M63.08,33.77A25,25,0,1,0,37,52.09,25,25,0,1,0,63.08,33.77Z"/><circle class="cls-2" cx="17.99" cy="86.07" r="16.43"/><path class="cls-3" d="M18.14,67.88A18.14,18.14,0,0,0,1.33,79.13,1.53,1.53,0,0,0,4.16,80.3a15.14,15.14,0,1,1-1.1,6.87A1.53,1.53,0,0,0,0,87.39,18.19,18.19,0,1,0,18.14,67.88Z"/><path class="cls-3" d="M65.22,31.61a27.55,27.55,0,0,0,.43-4.8A26.81,26.81,0,1,0,23.32,48.68a1.54,1.54,0,0,0,.89.28,1.5,1.5,0,0,0,1.24-.64,1.54,1.54,0,0,0-.36-2.14,23.75,23.75,0,1,1,37.5-19.37,24.27,24.27,0,0,1-.43,4.51c-.35,0-.7,0-1,0a26.66,26.66,0,0,0-11.88,2.78,1.58,1.58,0,0,0-.39-.51,1.53,1.53,0,0,0-2.15.19,8.76,8.76,0,0,1-.79.82,7.83,7.83,0,0,1-5.36,1.92,10.11,10.11,0,0,1-8.95-5.43h9.94a1.53,1.53,0,1,0,0-3.05h-11a10.84,10.84,0,0,1-.13-1.62,10.6,10.6,0,0,1,.13-1.61h11a1.53,1.53,0,0,0,0-3.06H31.59A10.1,10.1,0,0,1,46.18,18a1.53,1.53,0,0,0,1.71-2.54,13.17,13.17,0,0,0-19.65,6.24h-4a1.53,1.53,0,0,0,0,3.06h3.27a13.09,13.09,0,0,0,0,3.23H24.21a1.53,1.53,0,1,0,0,3.05h4a13.18,13.18,0,0,0,12.3,8.49c.44,0,.87,0,1.3-.07a26.94,26.94,0,0,0-6.39,10.83,23.65,23.65,0,0,1-4.32-1,1.53,1.53,0,0,0-1,2.9,27.72,27.72,0,0,0,4.59,1.13A26.83,26.83,0,0,0,61.11,84.92,26.75,26.75,0,0,0,79,78.06a1.53,1.53,0,0,0-2-2.28,23.69,23.69,0,1,1,4.36-5.21,1.53,1.53,0,1,0,2.6,1.61A26.81,26.81,0,0,0,65.22,31.61Z"/><path class="cls-3" d="M89.72,29.4,88.11,28A15.42,15.42,0,0,0,74.74,8.93l-.76-2a.62.62,0,0,0-1.11-.11L69.58,12a.63.63,0,0,0,.36.94l5.89,1.71a.63.63,0,0,0,.77-.82L76,12.24a12.24,12.24,0,0,1,7.28,4.92,12.45,12.45,0,0,1,2.16,8.58L84.1,24.61a.62.62,0,0,0-1,.44l-.38,6.13a.63.63,0,0,0,.76.65l6-1.34a.63.63,0,0,0,.27-1.09Z"/><path class="cls-3" d="M61,72.9a1.52,1.52,0,0,0,1.53-1.53V69.6a7.49,7.49,0,0,0,5.88-6.15,6.57,6.57,0,0,0-4.53-7.53l-1.35-.49V48.2a4.53,4.53,0,0,1,1.88.9,1.53,1.53,0,0,0,2.06-2.26,7.81,7.81,0,0,0-3.94-1.76V43.6a1.53,1.53,0,1,0-3.06,0v1.6l-.69.18a6.24,6.24,0,0,0-4.27,4.88,5.51,5.51,0,0,0,1.8,5.41,14.86,14.86,0,0,0,3.16,1.81v9.17A6.2,6.2,0,0,1,56.1,65.4,1.53,1.53,0,1,0,54.43,68a9.19,9.19,0,0,0,5,1.76v1.65A1.53,1.53,0,0,0,61,72.9Zm-2.8-19.64a2.47,2.47,0,0,1-.68-2.43,3.26,3.26,0,0,1,1.95-2.46v5.71a8.44,8.44,0,0,1-1.27-.82Zm4.67,5.55a3.57,3.57,0,0,1,2.53,4.13,4.5,4.5,0,0,1-2.87,3.48V58.69l.34.12Z"/><path class="cls-3" d="M11.57,86.11a1.53,1.53,0,0,0,1.53,1.53h1.69c.11,1.17,0,1.63-1,3l-1.16,1.45a1.54,1.54,0,0,0-.18,1.61,1.51,1.51,0,0,0,1.37.87l9.07.08h0a1.53,1.53,0,0,0,0-3.06l-6,0a5.89,5.89,0,0,0,1-3.89h1.61a1.53,1.53,0,0,0,0-3.06H17.09a6,6,0,0,1-1-2.77h0a1.38,1.38,0,0,1,.78-1.3,3.41,3.41,0,0,1,3.07,0,2.71,2.71,0,0,1,1.24,1.36A1.53,1.53,0,0,0,24.1,81a5.65,5.65,0,0,0-2.59-3.14,6.46,6.46,0,0,0-6.17,0A4.44,4.44,0,0,0,13,81.78v0h0a7.54,7.54,0,0,0,.63,2.76H13.1a1.52,1.52,0,0,0-1.53,1.53Z"/></g></g></svg>