<svg xmlns="http://www.w3.org/2000/svg" xmlns:xlink="http://www.w3.org/1999/xlink" viewBox="0 0 82.84 104.26"><defs><style>.cls-1{fill:url(#Degradado_sin_nombre_25);}.cls-2{fill:#4dd0e0;}</style><linearGradient id="Degradado_sin_nombre_25" x1="41.39" y1="102.37" x2="41.39" y2="1.97" gradientUnits="userSpaceOnUse"><stop offset="0" stop-color="#cbf1f6"/><stop offset="1" stop-color="#fff"/></linearGradient></defs><g id="Capa_2" data-name="Capa 2"><g id="CONTENIDO"><path class="cls-1" d="M9,101.22v-65s-7.4,1.88-7.4-4.1V17.37s0-5.31,6.4-5.31L9,3,65.43,2,81.19,18.1v84.27Z"/><path class="cls-2" d="M18.72,36.57a3.57,3.57,0,0,0-3.57,3.57V92.55a3.57,3.57,0,0,0,3.57,3.56H71.13a3.57,3.57,0,0,0,3.57-3.56V40.14a3.57,3.57,0,0,0-3.57-3.57ZM51.89,49.68h4.27v6.23H43.74V49.68h1a1.53,1.53,0,0,0,0-3.06h-1v-7H56.16v7H51.89a1.53,1.53,0,0,0,0,3.06ZM43.74,83.77V77.54H56.16v6.23Zm12.42,3.06v6.23H43.74V86.83Zm-31-18.58v6.23h-7V68.25Zm-7-3V59h7V65.2Zm10.05,3H40.68v6.23H28.26Zm15.48,0H56.16v6.23H43.74Zm15.48,0H71.64v6.23H59.22Zm0-3V59H71.64V65.2Zm-3.06,0H43.74V59H56.16Zm-15.48,0H28.26V59H40.68ZM28.26,55.91V49.68H40.68v6.23Zm0-9.29v-7H40.68v7ZM25.2,55.91h-7V49.68h7Zm-7,21.63h7v6.23h-7Zm10.05,0H40.68v6.23H28.26Zm31,0H71.64v6.23H59.22ZM71.64,55.91H59.22V49.68H71.64ZM18.21,40.14a.51.51,0,0,1,.51-.51H25.2v7h-7Zm0,52.41V86.83h7v6.23H18.72a.51.51,0,0,1-.51-.51Zm10.05-5.72H40.68v6.23H28.26Zm42.87,6.23H59.22V86.83H71.64v5.72a.51.51,0,0,1-.51.51Zm.51-52.92v6.48H59.22v-7H71.13a.51.51,0,0,1,.51.51Z"/><path class="cls-2" d="M82.84,17.25,65.59,0H11.27A4.26,4.26,0,0,0,7,4.26V11.2H5.66A5.65,5.65,0,0,0,0,16.86v15.3a5.66,5.66,0,0,0,5.66,5.66H7V100a4.26,4.26,0,0,0,4.26,4.26H78.58A4.26,4.26,0,0,0,82.84,100V82.5A1.56,1.56,0,0,0,81.71,81a1.53,1.53,0,0,0-1.92,1.48V100a1.21,1.21,0,0,1-1.21,1.2H11.27a1.21,1.21,0,0,1-1.21-1.2V29.55h6.56a1.56,1.56,0,0,0,1.54-1.13,1.53,1.53,0,0,0-1.48-1.92h-11a5.6,5.6,0,0,0-2.61.64V16.86a2.61,2.61,0,0,1,2.61-2.61H29.54a2.6,2.6,0,0,1,2.6,2.61v7a2.6,2.6,0,0,1-2.6,2.6H23.87a1.56,1.56,0,0,0-1.54,1.13,1.53,1.53,0,0,0,1.48,1.92h5.73A5.66,5.66,0,0,0,35.2,23.9v-7a5.66,5.66,0,0,0-5.66-5.66H10.06V4.26a1.21,1.21,0,0,1,1.21-1.21H62.53V13.6a7.05,7.05,0,0,0,7,7H79.79V75.26a1.58,1.58,0,0,0,1.13,1.54,1.53,1.53,0,0,0,1.92-1.48V17.25ZM5.76,29.55H7v5.21H5.66A2.61,2.61,0,0,1,3.1,31.64,2.68,2.68,0,0,1,5.76,29.55ZM65.59,4.32,78.52,17.25l-9.58-.13a3.38,3.38,0,0,1-3.35-3.39Z"/></g></g></svg>