<svg xmlns="http://www.w3.org/2000/svg" xmlns:xlink="http://www.w3.org/1999/xlink" viewBox="0 0 85.4 102.64"><defs><style>.cls-1{fill:url(#Degradado_sin_nombre_25);}.cls-2{fill:#4dd0e0;}</style><linearGradient id="Degradado_sin_nombre_25" x1="43.15" y1="101.37" x2="43.15" y2="1.06" gradientUnits="userSpaceOnUse"><stop offset="0" stop-color="#cbf1f6"/><stop offset="1" stop-color="#fff"/></linearGradient></defs><g id="Capa_2" data-name="Capa 2"><g id="CONTENIDO"><path class="cls-1" d="M2.45,3.06V95s.8,6.36,7,6.36H75.32s8.53-.6,8.53-7.8V8.75s-1.8-7.68-7.6-7.68H7.63A7,7,0,0,0,2.45,3.06Z"/><path class="cls-2" d="M32.86,89.23A5.78,5.78,0,0,0,38.64,95h8.12a5.78,5.78,0,0,0,5.78-5.78V81.11a5.79,5.79,0,0,0-5.78-5.78H38.64a5.79,5.79,0,0,0-5.78,5.78Zm3-8.12a2.77,2.77,0,0,1,2.77-2.77h8.12a2.77,2.77,0,0,1,2.77,2.77v8.12A2.77,2.77,0,0,1,46.76,92H38.64a2.77,2.77,0,0,1-2.77-2.77Z"/><path class="cls-2" d="M39.49,61.45h6.42a1.51,1.51,0,1,0,0-3H39.49a1.51,1.51,0,1,0,0,3Z"/><path class="cls-2" d="M14.14,88.51a1.5,1.5,0,0,0,2.12,0l1.21-1.21,1.21,1.21a1.51,1.51,0,0,0,1.06.44,1.51,1.51,0,0,0,1.07-2.57L19.6,85.17,20.81,84a1.5,1.5,0,0,0-2.13-2.12l-1.21,1.21-1.21-1.21A1.5,1.5,0,0,0,14.14,84l1.21,1.21-1.21,1.21a1.5,1.5,0,0,0,0,2.13Z"/><path class="cls-2" d="M75.32,0H10.08C1.31,0,0,4.89,0,7.8V83.36a1.51,1.51,0,0,0,3,0V45.48h69.7a1.51,1.51,0,0,0,0-3H3V7.8C3,6.61,3,3,10.08,3H75.32a7.08,7.08,0,0,1,7.07,7.07V42.47H79.65a1.51,1.51,0,0,0,0,3h2.74V92.57a7.08,7.08,0,0,1-7.07,7.07H10.08A7.08,7.08,0,0,1,3,92.57v-2.1a1.51,1.51,0,1,0-3,0v2.1a10.09,10.09,0,0,0,10.08,10.07H75.32A10.09,10.09,0,0,0,85.4,92.57V10.08A10.09,10.09,0,0,0,75.32,0Z"/><path class="cls-2" d="M14.26,61.45H16v1.71a1.51,1.51,0,0,0,3,0V61.45h1.7a1.51,1.51,0,1,0,0-3H19V56.73a1.51,1.51,0,0,0-3,0v1.71H14.26a1.51,1.51,0,0,0,0,3Z"/><path class="cls-2" d="M7.63,89.23A5.79,5.79,0,0,0,13.41,95h8.12a5.78,5.78,0,0,0,5.78-5.78V81.11a5.79,5.79,0,0,0-5.78-5.78H13.41a5.8,5.8,0,0,0-5.78,5.78Zm3-8.12a2.77,2.77,0,0,1,2.77-2.77h8.12a2.77,2.77,0,0,1,2.77,2.77v8.12A2.77,2.77,0,0,1,21.53,92H13.41a2.77,2.77,0,0,1-2.77-2.77Z"/><path class="cls-2" d="M13.41,69.78h8.12A5.78,5.78,0,0,0,27.31,64V55.88a5.79,5.79,0,0,0-5.78-5.78H13.41a5.8,5.8,0,0,0-5.78,5.78V64a5.79,5.79,0,0,0,5.78,5.78ZM10.64,55.89a2.78,2.78,0,0,1,2.77-2.78h8.12a2.78,2.78,0,0,1,2.77,2.78V64a2.78,2.78,0,0,1-2.77,2.78H13.41A2.78,2.78,0,0,1,10.64,64Z"/><path class="cls-2" d="M39.36,90a1.51,1.51,0,0,0,1.06-.44l6.69-6.69A1.5,1.5,0,1,0,45,80.77l-6.69,6.68A1.51,1.51,0,0,0,39.36,90Z"/><path class="cls-2" d="M71.14,73.73H64.71a1.51,1.51,0,0,0,0,3h6.43a1.51,1.51,0,0,0,0-3Z"/><path class="cls-2" d="M63.87,50.1a5.8,5.8,0,0,0-5.78,5.79V89.23A5.78,5.78,0,0,0,63.87,95H72a5.79,5.79,0,0,0,5.78-5.78V55.89A5.8,5.8,0,0,0,72,50.1Zm10.89,5.79V89.23A2.77,2.77,0,0,1,72,92H63.87a2.78,2.78,0,0,1-2.78-2.77V55.89a2.79,2.79,0,0,1,2.78-2.78H72a2.78,2.78,0,0,1,2.77,2.78Z"/><path class="cls-2" d="M64.71,68.38a1.5,1.5,0,1,0,0,3h6.43a1.5,1.5,0,0,0,0-3Z"/><path class="cls-2" d="M56.78,33.06h3.48a2.48,2.48,0,0,0,2.48-2.48V25.52A2.48,2.48,0,0,0,60.26,23H56.78a2.49,2.49,0,0,0-2.49,2.48v5.06a2.49,2.49,0,0,0,2.49,2.48Zm.52-7h2.43v4H57.3Z"/><path class="cls-2" d="M38.64,69.78h8.12A5.78,5.78,0,0,0,52.54,64V55.88a5.79,5.79,0,0,0-5.78-5.78H38.64a5.79,5.79,0,0,0-5.78,5.78V64a5.78,5.78,0,0,0,5.78,5.78ZM35.87,55.89a2.78,2.78,0,0,1,2.77-2.78h8.12a2.78,2.78,0,0,1,2.77,2.78V64a2.78,2.78,0,0,1-2.77,2.78H38.64A2.78,2.78,0,0,1,35.87,64Z"/><path class="cls-2" d="M67.93,33.06a1.5,1.5,0,0,0,1.5-1.5v-7a1.51,1.51,0,0,0-3,0v7a1.51,1.51,0,0,0,1.51,1.5Z"/><path class="cls-2" d="M7.63,22V34.09a5,5,0,0,0,5,5H72.73a5,5,0,0,0,5-5V22a5,5,0,0,0-5-5H12.67a5,5,0,0,0-5,5Zm67.13,0V34.09a2,2,0,0,1-2,2H12.67a2,2,0,0,1-2-2V22a2,2,0,0,1,2-2H72.73a2,2,0,0,1,2,2Z"/><path class="cls-2" d="M45.77,26.05h1.82v5.51a1.5,1.5,0,0,0,3,0v-7a1.5,1.5,0,0,0-1.5-1.5H45.77a1.51,1.51,0,1,0,0,3Z"/></g></g></svg>