<svg xmlns="http://www.w3.org/2000/svg" xmlns:xlink="http://www.w3.org/1999/xlink" viewBox="0 0 105.84 105.84"><defs><style>.cls-1{fill:url(#Degradado_sin_nombre_25);}.cls-2{fill:url(#Degradado_sin_nombre_25-2);}.cls-3{fill:#4dd0e0;}</style><linearGradient id="Degradado_sin_nombre_25" x1="42.33" y1="103.45" x2="42.33" y2="1.93" gradientUnits="userSpaceOnUse"><stop offset="0" stop-color="#cbf1f6"/><stop offset="1" stop-color="#fff"/></linearGradient><linearGradient id="Degradado_sin_nombre_25-2" x1="96.98" y1="103.45" x2="96.98" y2="45.88" xlink:href="#Degradado_sin_nombre_25"/></defs><g id="Capa_2" data-name="Capa 2"><g id="CONTENIDO"><path class="cls-1" d="M62.61,3.16a4.21,4.21,0,0,0-3-1.23H6.49A4.22,4.22,0,0,0,2.27,6.14V99.23a4.22,4.22,0,0,0,4.22,4.22H78.18a4.22,4.22,0,0,0,4.21-4.22V24.7a4.21,4.21,0,0,0-1.23-3Z"/><rect class="cls-2" x="90.54" y="45.88" width="12.87" height="57.57"/><path class="cls-3" d="M103.77,43.15H90.54a2.07,2.07,0,0,0-2.07,2.07V55.66a2.07,2.07,0,1,0,4.14,0V47.29h9.09V101.7H92.61V71.16a2.07,2.07,0,0,0-4.14,0V101.7H84.34V58.91a2.07,2.07,0,0,0-2.07-2.06H69A2.06,2.06,0,0,0,67,58.91V101.7H62.84V73.38a2.06,2.06,0,0,0-2.07-2.06H47.54a2.06,2.06,0,0,0-2.06,2.06V101.7H41.34V85.24a2.06,2.06,0,0,0-2.06-2.06H26.05A2.06,2.06,0,0,0,24,85.24V101.7H6.2a2.07,2.07,0,0,1-2.07-2.06V6.2A2.07,2.07,0,0,1,6.2,4.13H59.53V17.78a6.21,6.21,0,0,0,6.2,6.2H79.37V49.41a2.07,2.07,0,0,0,4.14,0V21.91a2.06,2.06,0,0,0-.61-1.46L63.06.6A2.11,2.11,0,0,0,61.6,0H6.2A6.21,6.21,0,0,0,0,6.2V99.64a6.21,6.21,0,0,0,6.2,6.2h97.57a2.07,2.07,0,0,0,2.07-2.07V45.22a2.07,2.07,0,0,0-2.07-2.07ZM63.66,7.06,76.45,19.85H65.73a2.07,2.07,0,0,1-2.07-2.07ZM37.21,101.7h-9.1V87.31h9.1Zm21.5,0h-9.1V75.45h9.1Zm21.5,0h-9.1V61h9.1Z"/><path class="cls-3" d="M92,61.56a2.07,2.07,0,0,0-1.46-.6,2.07,2.07,0,1,0,0,4.13A2.06,2.06,0,0,0,92,61.56Z"/><path class="cls-3" d="M30.09,11.31A2.07,2.07,0,0,0,28,13.38V17.1a19,19,0,1,0,21,21h3.72A2.07,2.07,0,0,0,54.78,36,24.72,24.72,0,0,0,30.09,11.31Zm0,39.57A14.88,14.88,0,0,1,28,21.26V36a2.07,2.07,0,0,0,2.06,2.07H44.83A14.9,14.9,0,0,1,30.09,50.88Zm2.07-17V15.55A20.59,20.59,0,0,1,50.54,33.93Z"/><path class="cls-3" d="M52.71,60.83H13.23a2.07,2.07,0,1,0,0,4.13H52.71a2.07,2.07,0,1,0,0-4.13Z"/><path class="cls-3" d="M26.46,70.8H13.23a2.07,2.07,0,1,0,0,4.13H26.46a2.07,2.07,0,1,0,0-4.13Z"/><path class="cls-3" d="M38.27,71.41a2.07,2.07,0,0,0-3.53,1.46,2.07,2.07,0,0,0,4.14,0,2,2,0,0,0-.61-1.46Z"/></g></g></svg>