<svg xmlns="http://www.w3.org/2000/svg" xmlns:xlink="http://www.w3.org/1999/xlink" viewBox="0 0 105.45 105.84"><defs><style>.cls-1{fill:url(#Degradado_sin_nombre_25);}.cls-2{fill:url(#Degradado_sin_nombre_25-2);}.cls-3{fill:url(#Degradado_sin_nombre_25-3);}.cls-4{fill:#4dd0e0;}</style><linearGradient id="Degradado_sin_nombre_25" x1="52.73" y1="61.8" x2="52.73" y2="2.16" gradientUnits="userSpaceOnUse"><stop offset="0" stop-color="#cbf1f6"/><stop offset="1" stop-color="#fff"/></linearGradient><linearGradient id="Degradado_sin_nombre_25-2" x1="52.64" y1="82.38" x2="52.64" y2="69.31" xlink:href="#Degradado_sin_nombre_25"/><linearGradient id="Degradado_sin_nombre_25-3" x1="52.64" y1="104.68" x2="52.64" y2="91.61" xlink:href="#Degradado_sin_nombre_25"/></defs><g id="Capa_2" data-name="Capa 2"><g id="CONTENIDO"><path class="cls-1" d="M92.42,28.05a11.26,11.26,0,0,0-5.73,1.57,22.78,22.78,0,0,0,.57-5A22.47,22.47,0,0,0,42.83,19.9a12.67,12.67,0,0,0-21.1,13.5h-.8A10.56,10.56,0,1,0,12.24,50H19a1.91,1.91,0,0,0-.15.76v9.11a2,2,0,0,0,2,2H84.48a2,2,0,0,0,2-2V50.71A1.91,1.91,0,0,0,86.3,50h2a11.34,11.34,0,1,0,4.12-21.9Z"/><rect class="cls-2" x="18.83" y="69.31" width="67.63" height="13.07" rx="1.98"/><rect class="cls-3" x="18.83" y="91.61" width="67.63" height="13.07" rx="1.98"/><path class="cls-4" d="M93.11,26.48a12.56,12.56,0,0,0-3.8.58,21.51,21.51,0,0,0,.18-2.78,24.69,24.69,0,0,0-47.62-8.75A15.2,15.2,0,0,0,18.66,28.17a12.62,12.62,0,0,0-6.32-1.69,12.35,12.35,0,0,0,0,24.69,1.77,1.77,0,1,0,0-3.53,8.82,8.82,0,1,1,7.59-13.55A1.76,1.76,0,0,0,23,32.47a11,11,0,0,1-.85-4.23A11.59,11.59,0,0,1,33.88,16.78a11.76,11.76,0,0,1,7.73,2.93,1.76,1.76,0,0,0,2.49-.17,1.81,1.81,0,0,0,.37-.68A21.15,21.15,0,0,1,86,24.28a20.63,20.63,0,0,1-.77,5.46,1.77,1.77,0,0,0,2.71,1.92A9,9,0,0,1,93.11,30a8.82,8.82,0,0,1,0,17.63,1.77,1.77,0,1,0,0,3.53,12.35,12.35,0,0,0,0-24.69Z"/><path class="cls-4" d="M82.7,67h-60a5.29,5.29,0,0,0-5.29,5.29v7.06a5.29,5.29,0,0,0,5.29,5.29h60A5.29,5.29,0,0,0,88,79.39V72.33A5.29,5.29,0,0,0,82.7,67Zm1.76,12.35a1.76,1.76,0,0,1-1.76,1.76h-60A1.76,1.76,0,0,1,21,79.39V72.33a1.76,1.76,0,0,1,1.76-1.76h60a1.76,1.76,0,0,1,1.76,1.76Z"/><path class="cls-4" d="M77.81,72.44a3.42,3.42,0,1,0,3.44,3.4,3.42,3.42,0,0,0-3.44-3.4Zm0,3.53s-.09-.06-.09-.11l.09-.11Z"/><path class="cls-4" d="M59.42,74.1H25.91a1.76,1.76,0,1,0,0,3.52H59.42a1.76,1.76,0,1,0,0-3.52Z"/><path class="cls-4" d="M70.31,74.1H65.62a1.76,1.76,0,0,0,0,3.52h4.69a1.76,1.76,0,1,0,0-3.52Z"/><path class="cls-4" d="M82.7,88.2h-60a5.29,5.29,0,0,0-5.29,5.29v7.06a5.29,5.29,0,0,0,5.29,5.29h60A5.29,5.29,0,0,0,88,100.55V93.49A5.29,5.29,0,0,0,82.7,88.2Zm1.76,12.35a1.76,1.76,0,0,1-1.76,1.76h-60A1.76,1.76,0,0,1,21,100.55V93.49a1.76,1.76,0,0,1,1.76-1.76h60a1.76,1.76,0,0,1,1.76,1.76Z"/><path class="cls-4" d="M77.81,93.6A3.42,3.42,0,1,0,81.25,97a3.42,3.42,0,0,0-3.44-3.4Zm0,3.53s-.09-.06-.09-.11l.09-.11Z"/><path class="cls-4" d="M59.42,95.26H25.91a1.76,1.76,0,0,0,0,3.52H59.42a1.76,1.76,0,1,0,0-3.52Z"/><path class="cls-4" d="M70.31,95.26H65.62a1.76,1.76,0,0,0,0,3.52h4.69a1.76,1.76,0,1,0,0-3.52Z"/><path class="cls-4" d="M82.7,45.88h-60a5.29,5.29,0,0,0-5.29,5.29v7a5.29,5.29,0,0,0,5.29,5.29h60A5.29,5.29,0,0,0,88,58.22v-7a5.29,5.29,0,0,0-5.29-5.29Zm1.76,12.34A1.76,1.76,0,0,1,82.7,60h-60A1.76,1.76,0,0,1,21,58.22v-7a1.76,1.76,0,0,1,1.76-1.76h60a1.76,1.76,0,0,1,1.76,1.76Z"/><path class="cls-4" d="M80.69,54.22a3.44,3.44,0,0,0-6.2-1.38,3.35,3.35,0,0,0-.57,2.55,3.45,3.45,0,0,0,3.39,2.83,3.69,3.69,0,0,0,.58,0,3.45,3.45,0,0,0,2.24-1.41,3.35,3.35,0,0,0,.56-2.55Zm-3.47.61.08-.13v.22c-.08,0-.08-.05-.09-.09Z"/><path class="cls-4" d="M59.07,52.93H25.56a1.77,1.77,0,0,0,0,3.53H59.07a1.77,1.77,0,0,0,0-3.53Z"/><path class="cls-4" d="M69.19,52.93h-4.7a1.77,1.77,0,0,0,0,3.53h4.7a1.77,1.77,0,0,0,0-3.53Z"/><path class="cls-4" d="M45.15,28.76l-5.29-5.29a1.76,1.76,0,0,0-2.49,0l-5.29,5.29a1.76,1.76,0,0,0,2.49,2.49L36.85,29V40.59a1.77,1.77,0,0,0,3.53,0V29l2.28,2.28a1.76,1.76,0,0,0,2.49-2.49Z"/><path class="cls-4" d="M73.32,34.05a1.76,1.76,0,0,0-2.45,0l-2.28,2.28V24.72a1.77,1.77,0,1,0-3.53,0V36.33l-2.27-2.28a1.76,1.76,0,0,0-2.5,2.49l5.29,5.29a1.77,1.77,0,0,0,2.5,0l5.29-5.29a1.77,1.77,0,0,0-.05-2.49Z"/></g></g></svg>