<svg xmlns="http://www.w3.org/2000/svg" xmlns:xlink="http://www.w3.org/1999/xlink" viewBox="0 0 104.26 104.26"><defs><style>.cls-1{fill:url(#Degradado_sin_nombre_25);}.cls-2{fill:#4dd0e0;}</style><linearGradient id="Degradado_sin_nombre_25" x1="52.22" y1="102.37" x2="52.22" y2="1.81" gradientUnits="userSpaceOnUse"><stop offset="0" stop-color="#cbf1f6"/><stop offset="1" stop-color="#fff"/></linearGradient></defs><g id="Capa_2" data-name="Capa 2"><g id="CONTENIDO"><polygon class="cls-1" points="1.74 24.47 24.4 1.81 72.98 1.81 79 8.69 97.31 8.69 102.7 14.26 102.7 96.11 97.31 102.37 30.7 102.37 25.6 95.57 8.69 95.57 1.74 91.67 1.74 24.47"/><path class="cls-2" d="M60.82,10.43a1.74,1.74,0,0,0,0-3.48H50.39a1.74,1.74,0,0,0,0,3.48Z"/><path class="cls-2" d="M71.24,10.43a1.74,1.74,0,1,0,0-3.48H67.77a1.74,1.74,0,1,0,0,3.48Z"/><path class="cls-2" d="M15.64,34.75H31.28a1.74,1.74,0,1,0,0-3.47H15.64a1.74,1.74,0,1,0,0,3.47Z"/><path class="cls-2" d="M38.23,33A1.74,1.74,0,0,0,40,34.75H66a1.74,1.74,0,1,0,0-3.47H40A1.74,1.74,0,0,0,38.23,33Z"/><path class="cls-2" d="M66,40H50.39a1.74,1.74,0,1,0,0,3.47H66A1.74,1.74,0,1,0,66,40Z"/><path class="cls-2" d="M15.64,43.44H41.7a1.74,1.74,0,1,0,0-3.47H15.64a1.74,1.74,0,1,0,0,3.47Z"/><path class="cls-2" d="M15.64,52.13H31.28a1.74,1.74,0,0,0,0-3.48H15.64a1.74,1.74,0,1,0,0,3.48Z"/><path class="cls-2" d="M66,48.65H40a1.74,1.74,0,0,0,0,3.48H66a1.74,1.74,0,0,0,0-3.48Z"/><path class="cls-2" d="M95.57,7H79.76A8.71,8.71,0,0,0,71.24,0H24.33A1.72,1.72,0,0,0,23.1.51L.51,23.1A1.72,1.72,0,0,0,0,24.33V74.72a1.74,1.74,0,0,0,3.48,0V26.06h13.9a8.68,8.68,0,0,0,8.68-8.68V3.48H71.24a5.22,5.22,0,0,1,5.22,5.21V67.77l-2.78-2.09a2.61,2.61,0,0,0-4.17,2.09v1.74H51.26a2.6,2.6,0,0,0-2.61,2.6V80.8a2.61,2.61,0,0,0,2.61,2.61H69.51v1.73a2.6,2.6,0,0,0,4.17,2.09l2.78-2.09v3.48a5.22,5.22,0,0,1-5.22,5.21H8.69a5.21,5.21,0,0,1-5.21-5.21,1.74,1.74,0,0,0-3.48,0,8.71,8.71,0,0,0,8.69,8.69H24.5a8.71,8.71,0,0,0,8.52,7H95.57a8.7,8.7,0,0,0,8.69-8.69V15.64A8.7,8.7,0,0,0,95.57,7ZM17.38,22.59H5.93L22.59,5.93V17.38a5.21,5.21,0,0,1-5.21,5.21ZM73,83.41v-.87a2.61,2.61,0,0,0-2.61-2.61H52.13V73H70.37A2.61,2.61,0,0,0,73,70.37v-.86l9.27,6.95Zm27.8,12.16a5.21,5.21,0,0,1-5.21,5.21H33a5.22,5.22,0,0,1-4.9-3.47H71.24a8.7,8.7,0,0,0,8.69-8.69V82.54l5.33-4a2.61,2.61,0,0,0,0-4.17l-5.33-4V59.08H90.36a1.74,1.74,0,0,0,0-3.48H79.93V50.39H90.36a1.74,1.74,0,0,0,0-3.47H79.93V41.7H90.36a1.74,1.74,0,0,0,0-3.47H79.93V17.38h5.21a1.74,1.74,0,0,0,0-3.48H79.93V10.43H95.57a5.21,5.21,0,0,1,5.21,5.21Z"/><path class="cls-2" d="M95.57,13.9H92.09a1.74,1.74,0,0,0,0,3.48h3.48a1.74,1.74,0,1,0,0-3.48Z"/><path class="cls-2" d="M3.48,81.67a1.74,1.74,0,1,1-1.74-1.74,1.74,1.74,0,0,1,1.74,1.74Z"/></g></g></svg>