<svg xmlns="http://www.w3.org/2000/svg" xmlns:xlink="http://www.w3.org/1999/xlink" viewBox="0 0 532.06 362.09"><defs><style>.cls-1{isolation:isolate;}.cls-2{fill:#3a9ca8;}.cls-3{fill:#bfeef4;}.cls-4{fill:url(#Degradado_sin_nombre_25);}.cls-5{fill:#36afea;}.cls-6{fill:#fff;}.cls-7{fill:url(#Degradado_sin_nombre_25-2);}.cls-8{fill:url(#Degradado_sin_nombre_25-3);}.cls-9{fill:url(#Degradado_sin_nombre_25-4);}</style><linearGradient id="Degradado_sin_nombre_25" x1="87.31" y1="99.98" x2="87.31" y2="11.41" gradientUnits="userSpaceOnUse"><stop offset="0" stop-color="#cbf1f6"/><stop offset="1" stop-color="#fff"/></linearGradient><linearGradient id="Degradado_sin_nombre_25-2" x1="86.88" y1="305.64" x2="86.88" y2="234.95" xlink:href="#Degradado_sin_nombre_25"/><linearGradient id="Degradado_sin_nombre_25-3" x1="444.95" y1="98.06" x2="444.95" y2="10.04" xlink:href="#Degradado_sin_nombre_25"/><linearGradient id="Degradado_sin_nombre_25-4" x1="444.48" y1="321.51" x2="444.48" y2="234.64" xlink:href="#Degradado_sin_nombre_25"/></defs><g id="Capa_2" data-name="Capa 2"><g id="CONTENIDO"><g class="cls-1"><path class="cls-2" d="M215.32,192.2l-4.8-6.75a15.21,15.21,0,0,1-1.68.09H203.2v6.66H201v-21h7.86a9.49,9.49,0,0,1,6.3,1.92,6.53,6.53,0,0,1,2.28,5.28,6.81,6.81,0,0,1-1.25,4.15,6.89,6.89,0,0,1-3.55,2.45l5.13,7.2Zm-1.77-9.93a5.42,5.42,0,0,0,0-7.79,7.31,7.31,0,0,0-4.77-1.36H203.2v10.53h5.58A7.25,7.25,0,0,0,213.55,182.27Z"/><path class="cls-2" d="M236,185h-13.2a5.63,5.63,0,0,0,1.89,4,6.28,6.28,0,0,0,4.32,1.52,6.81,6.81,0,0,0,2.7-.53,5.88,5.88,0,0,0,2.13-1.54l1.2,1.38a6.77,6.77,0,0,1-2.63,1.92,9.43,9.43,0,0,1-7.77-.38,7.44,7.44,0,0,1-2.92-2.86,8.17,8.17,0,0,1-1.05-4.14,8.45,8.45,0,0,1,1-4.14,7.28,7.28,0,0,1,2.76-2.85,7.72,7.72,0,0,1,4-1,7.63,7.63,0,0,1,3.93,1,7.22,7.22,0,0,1,2.73,2.83,8.56,8.56,0,0,1,1,4.16Zm-11.45-5.39a5.72,5.72,0,0,0-1.75,3.8H234a5.73,5.73,0,0,0-1.76-3.8,5.81,5.81,0,0,0-7.68,0Z"/><path class="cls-2" d="M242.69,191.33a7.38,7.38,0,0,1-2.89-2.87,8.71,8.71,0,0,1,0-8.29,7.4,7.4,0,0,1,2.89-2.85,8.52,8.52,0,0,1,4.19-1,8.08,8.08,0,0,1,3.64.79,6.08,6.08,0,0,1,2.54,2.33l-1.59,1.08a5,5,0,0,0-2-1.76,5.87,5.87,0,0,0-2.61-.58,6.2,6.2,0,0,0-3.08.76,5.39,5.39,0,0,0-2.13,2.18,7.18,7.18,0,0,0,0,6.43,5.4,5.4,0,0,0,2.13,2.16,6.2,6.2,0,0,0,3.08.77,6,6,0,0,0,2.61-.57,4.86,4.86,0,0,0,2-1.74l1.59,1.08a6,6,0,0,1-2.55,2.32,8.13,8.13,0,0,1-3.63.8A8.52,8.52,0,0,1,242.69,191.33Z"/><path class="cls-2" d="M271.45,176.42V192.2h-2v-2.88a5.83,5.83,0,0,1-2.31,2.23,7,7,0,0,1-3.36.8,6.11,6.11,0,0,1-6.66-6.78v-9.15h2.13v8.94a5.28,5.28,0,0,0,1.23,3.78,4.62,4.62,0,0,0,3.51,1.29,5.17,5.17,0,0,0,3.93-1.52,5.86,5.86,0,0,0,1.44-4.21v-8.28Z"/><path class="cls-2" d="M281.69,177.11a7.62,7.62,0,0,1,3.68-.81v2.07l-.51,0a5,5,0,0,0-3.9,1.53,6.1,6.1,0,0,0-1.41,4.29v8h-2.13V176.42h2v3.09A5.15,5.15,0,0,1,281.69,177.11Z"/><path class="cls-2" d="M289.88,191.79a7.88,7.88,0,0,1-2.74-1.39l1-1.68a8.08,8.08,0,0,0,2.49,1.27,9.9,9.9,0,0,0,3.12.5,5.93,5.93,0,0,0,3.19-.68,2.14,2.14,0,0,0,1-1.9,1.72,1.72,0,0,0-.57-1.37,3.79,3.79,0,0,0-1.44-.75,20.7,20.7,0,0,0-2.31-.49,26.35,26.35,0,0,1-3.09-.74,4.55,4.55,0,0,1-2-1.27,3.54,3.54,0,0,1-.82-2.49,3.9,3.9,0,0,1,1.65-3.24A7.41,7.41,0,0,1,294,176.3a11.91,11.91,0,0,1,3.06.4,8.42,8.42,0,0,1,2.52,1.07l-.93,1.71a8,8,0,0,0-4.65-1.35,5.41,5.41,0,0,0-3.08.72,2.2,2.2,0,0,0-1,1.89,1.86,1.86,0,0,0,.58,1.44,3.61,3.61,0,0,0,1.46.79,23.26,23.26,0,0,0,2.4.53,27.61,27.61,0,0,1,3,.72,4.45,4.45,0,0,1,1.95,1.23,3.38,3.38,0,0,1,.81,2.4,3.81,3.81,0,0,1-1.73,3.28,8.18,8.18,0,0,1-4.78,1.22A12.15,12.15,0,0,1,289.88,191.79Z"/><path class="cls-2" d="M306.34,191.31a7.54,7.54,0,0,1-2.88-2.86,8.69,8.69,0,0,1,0-8.28,7.44,7.44,0,0,1,2.88-2.85,8.79,8.79,0,0,1,8.22,0,7.32,7.32,0,0,1,2.86,2.85,8.76,8.76,0,0,1,0,8.28,7.42,7.42,0,0,1-2.86,2.86,8.64,8.64,0,0,1-8.22,0Zm7.12-1.62a5.33,5.33,0,0,0,2.09-2.17,7.24,7.24,0,0,0,0-6.42,5.36,5.36,0,0,0-2.09-2.18,6.36,6.36,0,0,0-6,0,5.45,5.45,0,0,0-2.1,2.18,7.16,7.16,0,0,0,0,6.42,5.42,5.42,0,0,0,2.1,2.17,6.29,6.29,0,0,0,6,0Z"/><path class="cls-2" d="M323.36,191.79a7.88,7.88,0,0,1-2.74-1.39l1-1.68a8.08,8.08,0,0,0,2.49,1.27,9.9,9.9,0,0,0,3.12.5,5.93,5.93,0,0,0,3.19-.68,2.14,2.14,0,0,0,1-1.9,1.72,1.72,0,0,0-.57-1.37,3.79,3.79,0,0,0-1.44-.75,20.7,20.7,0,0,0-2.31-.49,26.35,26.35,0,0,1-3.09-.74,4.55,4.55,0,0,1-2-1.27,3.54,3.54,0,0,1-.82-2.49,3.9,3.9,0,0,1,1.65-3.24,7.41,7.41,0,0,1,4.59-1.26,11.91,11.91,0,0,1,3.06.4,8.42,8.42,0,0,1,2.52,1.07l-.93,1.71a8,8,0,0,0-4.65-1.35,5.41,5.41,0,0,0-3.08.72,2.2,2.2,0,0,0-1,1.89,1.86,1.86,0,0,0,.58,1.44,3.61,3.61,0,0,0,1.46.79,23.26,23.26,0,0,0,2.4.53,27.61,27.61,0,0,1,3,.72,4.45,4.45,0,0,1,1.95,1.23,3.38,3.38,0,0,1,.81,2.4,3.81,3.81,0,0,1-1.73,3.28,8.18,8.18,0,0,1-4.78,1.22A12.15,12.15,0,0,1,323.36,191.79Z"/></g><rect class="cls-3" width="174.23" height="140.06" rx="12"/><path class="cls-4" d="M29,97.81V81.37l1.74-2.46,7.75-4.84-6.68-4,1.05-19.91s4.43-11.3,13-10.26,12.86,7.85,13,11.23,1.84,17.07,1.84,17.07l-7.47,5.91,2.81,2.63,16.18-5.76,4-5.57V58.93s-8-6-8-19.13l-1.76-5.62S63.66,13,80.26,11.88a187.61,187.61,0,0,1,27.5,0s.94,19.53-1.75,26.45c0,0,1.77,12.45-7.61,21.21l.46,5.83,4.31,5.6,11.93,5,4.82-2.17.77-5.66s-7.32-3.3-5.59-13.55c0,0-6.09-11.21,5.59-14.44l18-.31s1.3,9-.84,15c0,0,3.3,7.19-5.77,14.26l-.15,4.13,12.29,5L145.6,100Z"/><path class="cls-5" d="M132.88,49.49c-4.08-2-11.71-2.06-12-2.06a1.76,1.76,0,0,0,0,3.51c2,0,7.7.3,10.47,1.69a1.81,1.81,0,0,0,.78.18,1.75,1.75,0,0,0,.79-3.32Z"/><path class="cls-5" d="M141.62,74.45l-7.24-2.06a.74.74,0,0,1-.53-.71V69.26a12,12,0,0,0,1.67-1.37,12.89,12.89,0,0,0,3.95-9.33V55.22l.7-1.4a11.19,11.19,0,0,0,1.18-5v-9a1.76,1.76,0,0,0-1.76-1.76H122.72a11.15,11.15,0,0,0-11.13,11.13v.11a9.23,9.23,0,0,0,1,4.13l.89,1.8v2.86a13.69,13.69,0,0,0,5.63,11.07v2.53c0,.39,0,.55-1.45,1l-3.53,1-10.22-3.72a1.78,1.78,0,0,0-.48-1.34l-3.27-3.43V59.4c.35-.28.69-.57,1-.88a20.58,20.58,0,0,0,6.48-15V39a20.23,20.23,0,0,0,1.88-8.53V11.68a1.75,1.75,0,0,0-1.76-1.75H81.51A16.77,16.77,0,0,0,64.76,26.68v3.75A20.23,20.23,0,0,0,66.64,39v3.95a21.43,21.43,0,0,0,7.5,16.36v5.9L70.87,68.6a1.75,1.75,0,0,0-.48,1.34L59.6,73.86A9.35,9.35,0,0,0,57.43,75l-1.69-.85c5-2.19,6.64-5.28,6.72-5.43a1.8,1.8,0,0,0,0-1.57C61.19,64.62,61,60,60.92,56.26c0-1.24-.08-2.41-.16-3.45-.59-8.41-7-14.76-14.87-14.76S31.61,44.4,31,52.81c-.08,1-.12,2.21-.16,3.45-.12,3.73-.27,8.36-1.54,10.89a1.74,1.74,0,0,0,0,1.57c.08.15,1.67,3.23,6.73,5.43L31.34,76.5a7.34,7.34,0,0,0-4.08,6.6v13a1.76,1.76,0,1,0,3.51,0v-13a3.84,3.84,0,0,1,2.14-3.46l5.86-2.93,2,1.94a7.37,7.37,0,0,0,10.16,0l2-1.94,1.91,1a9.24,9.24,0,0,0-1.41,4.9v13.5a1.76,1.76,0,0,0,3.51,0V82.56a5.76,5.76,0,0,1,3.78-5.4L72.18,73l4.73,7.11a3.62,3.62,0,0,0,2.66,1.59,2.17,2.17,0,0,0,.36,0,3.62,3.62,0,0,0,2.57-1.06l2.88-2.89V96.06a1.76,1.76,0,0,0,3.51,0V77.79l2.89,2.89a3.59,3.59,0,0,0,2.56,1.06,2.17,2.17,0,0,0,.36,0,3.63,3.63,0,0,0,2.67-1.59L102.1,73l11.38,4.14a5.76,5.76,0,0,1,3.78,5.4v13.5a1.76,1.76,0,0,0,3.51,0V82.56a9.28,9.28,0,0,0-2.6-6.42l.44-.12a9.75,9.75,0,0,0,1.63-.59l4.47,4.48V96.06a1.76,1.76,0,0,0,3.51,0V79.91l4.45-4.45a4.41,4.41,0,0,0,.74.3l7.25,2.07a3.88,3.88,0,0,1,2.8,3.72V96.06a1.76,1.76,0,0,0,3.51,0V81.55a7.41,7.41,0,0,0-5.35-7.1ZM38.51,71.36a12.65,12.65,0,0,1-5.63-3.62,19.14,19.14,0,0,0,1-4.2,13.18,13.18,0,0,0,4.63,5.72ZM48.56,76.1a3.88,3.88,0,0,1-5.34,0l-1.63-1.55A3.56,3.56,0,0,0,42,72.84V71a13,13,0,0,0,7.74,0v1.87a3.56,3.56,0,0,0,.43,1.71Zm-2.67-8a9.51,9.51,0,0,1-9.5-9.49,1.75,1.75,0,0,0-1.75-1.76,1.43,1.43,0,0,0-.29,0c0-.15,0-.3,0-.45,0-1.21.08-2.35.14-3.32a13.08,13.08,0,0,1,3.55-8.18,10.89,10.89,0,0,1,15.66,0,13.08,13.08,0,0,1,3.55,8.18c.07,1,.1,2.11.14,3.32,0,.1,0,.21,0,.31a15.73,15.73,0,0,0-8.66-6.33,22.2,22.2,0,0,0-6.67-1.06,1.78,1.78,0,0,0-1.21.54l-3.17,3.28a1.76,1.76,0,0,0,2.53,2.44l2.63-2.74c2.27.12,9.56,1,12.4,7.21a9.47,9.47,0,0,1-9.38,8Zm7.38,3.31V69.27a13,13,0,0,0,4.63-5.71,19,19,0,0,0,1,4.18,12.59,12.59,0,0,1-5.63,3.62ZM70.14,42.91V38.56A1.83,1.83,0,0,0,70,37.8a16.79,16.79,0,0,1-1.7-7.37V26.68A13.26,13.26,0,0,1,81.51,13.44H106v17a16.79,16.79,0,0,1-1.7,7.37,1.7,1.7,0,0,0-.18.76v5A16.81,16.81,0,0,1,98.76,56a14.54,14.54,0,0,1-1.35,1.14l0,0A16.82,16.82,0,0,1,86,60.52c-8.89-.58-15.86-8.31-15.86-17.61ZM80,78.2a.12.12,0,0,1-.1,0,.11.11,0,0,1-.09,0L74.38,70l1.75-1.84,8.27,5.65Zm7.12-6.77-9.5-6.49V61.67A19.75,19.75,0,0,0,85.78,64c.46,0,.92,0,1.38,0a20.28,20.28,0,0,0,9.47-2.32v3.2Zm7.31,6.75a.09.09,0,0,1-.09,0,.11.11,0,0,1-.1,0l-4.39-4.39,8.28-5.65L99.9,70Zm32-1.48-4-4a4.74,4.74,0,0,0,.11-1v-.74a12.15,12.15,0,0,0,3.47.61h.4a13.19,13.19,0,0,0,3.87-.58v.7a3.86,3.86,0,0,0,.13,1Zm6.61-11.33a9.4,9.4,0,0,1-6.91,2.68,9.81,9.81,0,0,1-9.2-10V54.81a1.79,1.79,0,0,0-.18-.79l-1.09-2.16a5.91,5.91,0,0,1-.6-2.57v-.11a7.63,7.63,0,0,1,7.62-7.62h15.12v7.28a7.61,7.61,0,0,1-.81,3.41L136.15,54a1.8,1.8,0,0,0-.19.79v3.75a9.4,9.4,0,0,1-2.88,6.81Z"/><path class="cls-5" d="M137.72,83.05A1.76,1.76,0,0,0,136,84.81V96.05a1.76,1.76,0,1,0,3.51,0V84.81a1.75,1.75,0,0,0-1.75-1.76Z"/><path class="cls-5" d="M36.52,85.37a1.76,1.76,0,0,0-1.76,1.75v8.93a1.76,1.76,0,1,0,3.51,0V87.12a1.76,1.76,0,0,0-1.75-1.75Z"/><path class="cls-5" d="M101.5,31.07C94.87,24.44,81,25.7,75.34,26.56a3.58,3.58,0,0,0-3.08,3.58v4a1.76,1.76,0,1,0,3.51,0v-4a.12.12,0,0,1,.09-.12,55.48,55.48,0,0,1,11.39-.55c5.47.36,9.43,1.73,11.77,4.08a1.76,1.76,0,0,0,2.48,0,1.74,1.74,0,0,0,0-2.48Z"/><path class="cls-5" d="M66.51,86.8a1.76,1.76,0,0,0-1.75,1.76v7.5a1.76,1.76,0,0,0,3.51,0v-7.5a1.76,1.76,0,0,0-1.76-1.76Z"/><path class="cls-5" d="M107.76,86.8A1.75,1.75,0,0,0,106,88.56v7.5a1.76,1.76,0,0,0,3.51,0v-7.5a1.76,1.76,0,0,0-1.76-1.76Z"/><path class="cls-5" d="M0,96.27v31.49a12.34,12.34,0,0,0,12.3,12.3H161.93a12.34,12.34,0,0,0,12.3-12.3V96.27Z"/><g class="cls-1"><path class="cls-6" d="M42.94,107.87v17.5H41.12V117.3H30.17v8.07H28.32v-17.5h1.85v7.8H41.12v-7.8Z"/><path class="cls-6" d="M60.12,112.22v13.15h-1.7V123a4.89,4.89,0,0,1-1.93,1.87,5.82,5.82,0,0,1-2.8.66,5.1,5.1,0,0,1-5.55-5.65v-7.63h1.78v7.45a4.39,4.39,0,0,0,1,3.15,3.84,3.84,0,0,0,2.93,1.08,4.3,4.3,0,0,0,3.27-1.26,4.91,4.91,0,0,0,1.2-3.52v-6.9Z"/><path class="cls-6" d="M85.38,113.55a5.73,5.73,0,0,1,1.41,4.2v7.62H85v-7.45a4.46,4.46,0,0,0-1-3.12,3.59,3.59,0,0,0-2.79-1.08A4.18,4.18,0,0,0,78,115a4.88,4.88,0,0,0-1.18,3.48v6.9H75.07v-7.45a4.46,4.46,0,0,0-1-3.12,3.62,3.62,0,0,0-2.81-1.08A4.22,4.22,0,0,0,68.05,115a4.88,4.88,0,0,0-1.18,3.48v6.9H65.09V112.22h1.7v2.4a4.83,4.83,0,0,1,1.95-1.85,6.18,6.18,0,0,1,2.88-.65,5.69,5.69,0,0,1,2.86.7,4.3,4.3,0,0,1,1.81,2.08,5.07,5.07,0,0,1,2.09-2,6.44,6.44,0,0,1,3.11-.74A5.23,5.23,0,0,1,85.38,113.55Z"/><path class="cls-6" d="M100.17,113.41a5,5,0,0,1,1.37,3.81v8.15h-1.7v-2.05a4,4,0,0,1-1.76,1.6,6.1,6.1,0,0,1-2.76.58,5.39,5.39,0,0,1-3.5-1,3.62,3.62,0,0,1-.09-5.48,5.94,5.94,0,0,1,3.86-1h4.18v-.8a3.39,3.39,0,0,0-1-2.59,4,4,0,0,0-2.78-.89,7,7,0,0,0-2.4.42,6,6,0,0,0-2,1.13l-.8-1.32a6.94,6.94,0,0,1,2.4-1.31,9.25,9.25,0,0,1,3-.47A5.58,5.58,0,0,1,100.17,113.41Zm-2,10a4.14,4.14,0,0,0,1.6-2v-2.15H95.64c-2.25,0-3.37.79-3.37,2.35a2.16,2.16,0,0,0,.87,1.82,4,4,0,0,0,2.45.66A4.69,4.69,0,0,0,98.17,123.41Z"/><path class="cls-6" d="M117,113.56a5.61,5.61,0,0,1,1.47,4.19v7.62h-1.78v-7.45a4.38,4.38,0,0,0-1-3.12,3.86,3.86,0,0,0-2.93-1.08,4.49,4.49,0,0,0-3.36,1.27,4.73,4.73,0,0,0-1.24,3.48v6.9h-1.77V112.22h1.7v2.43a4.88,4.88,0,0,1,2-1.86,6.46,6.46,0,0,1,3-.67A5.34,5.34,0,0,1,117,113.56Z"/><path class="cls-6" d="M125.29,124.64a6.26,6.26,0,0,1-2.4-2.39,7.28,7.28,0,0,1,0-6.9,6.17,6.17,0,0,1,2.4-2.38,7.33,7.33,0,0,1,6.85,0,6.14,6.14,0,0,1,2.39,2.38,7.35,7.35,0,0,1,0,6.9,6.24,6.24,0,0,1-2.39,2.39,7.25,7.25,0,0,1-6.85,0Zm5.94-1.35a4.49,4.49,0,0,0,1.74-1.82,5.65,5.65,0,0,0,.62-2.67,5.72,5.72,0,0,0-.62-2.68,4.53,4.53,0,0,0-1.74-1.81,5.26,5.26,0,0,0-5,0,4.62,4.62,0,0,0-1.75,1.81,5.61,5.61,0,0,0-.63,2.68,5.54,5.54,0,0,0,.63,2.67,4.58,4.58,0,0,0,1.75,1.82,5.34,5.34,0,0,0,5,0Z"/><path class="cls-6" d="M139.48,125a6.53,6.53,0,0,1-2.29-1.17l.8-1.4a6.66,6.66,0,0,0,2.08,1.07,8.37,8.37,0,0,0,2.6.41,5,5,0,0,0,2.66-.56,1.81,1.81,0,0,0,.86-1.59,1.46,1.46,0,0,0-.47-1.14,3.25,3.25,0,0,0-1.2-.62,19.48,19.48,0,0,0-1.93-.42A21.52,21.52,0,0,1,140,119a3.83,3.83,0,0,1-1.67-1.06,3,3,0,0,1-.68-2.08,3.24,3.24,0,0,1,1.37-2.7,6.18,6.18,0,0,1,3.83-1,10.16,10.16,0,0,1,2.55.34,7.06,7.06,0,0,1,2.1.89l-.78,1.42a6.61,6.61,0,0,0-3.87-1.12,4.52,4.52,0,0,0-2.57.6,1.84,1.84,0,0,0-.86,1.57,1.54,1.54,0,0,0,.49,1.2,3,3,0,0,0,1.21.67,20.16,20.16,0,0,0,2,.43,23.52,23.52,0,0,1,2.53.6,3.75,3.75,0,0,1,1.62,1,2.82,2.82,0,0,1,.68,2,3.19,3.19,0,0,1-1.44,2.74,6.88,6.88,0,0,1-4,1A10,10,0,0,1,139.48,125Z"/></g><rect class="cls-3" y="222.03" width="174.23" height="140.06" rx="12"/><path class="cls-7" d="M42.9,243.1v53.37l2.16,3.67H56l1.56,5.38h48.42l1.29-5.38,13.5-.16,4,5.54s6.61,1.27,6.15-4.44L122.69,287s5.84-8.2,4.15-16.35-7.22-9.49-7.22-9.49v-18l-2.14-2.92h-30L86.88,235H76l-.65,5.54H45.36Z"/><path class="cls-5" d="M87.43,269.77A1.76,1.76,0,1,1,89.19,268a1.76,1.76,0,0,1-1.76,1.76Zm-12.12-6.88a1.76,1.76,0,1,1,1.76-1.76,1.76,1.76,0,0,1-1.76,1.76Zm-12.13,6.88A1.76,1.76,0,1,1,64.94,268a1.76,1.76,0,0,1-1.76,1.76Zm36.38-20.46a1.76,1.76,0,1,1-1.76,1.76,1.76,1.76,0,0,1,1.76-1.76Zm0,6.17A4.42,4.42,0,1,0,96,253.72L88.8,263.83a4.4,4.4,0,0,0-4.37,1l-4.82-2.74a4,4,0,0,0,.1-.92,4.41,4.41,0,1,0-8.81,0,4.63,4.63,0,0,0,.1.92l-4.82,2.74a4.41,4.41,0,1,0,1.4,3.22,4.7,4.7,0,0,0-.09-.92l4.82-2.74a4.39,4.39,0,0,0,6,0l4.83,2.74a4.05,4.05,0,0,0-.1.92,4.41,4.41,0,1,0,8.81,0,4.33,4.33,0,0,0-.89-2.64l7.24-10.11a4.42,4.42,0,0,0,1.37.22Z"/><path class="cls-5" d="M105.23,304a.36.36,0,0,1-.36.36h-47a.36.36,0,0,1-.36-.36v-2.91h47.72V304Zm10.56-5.55h-70a1.09,1.09,0,0,1-1.1-1.09V242.84a1.09,1.09,0,0,1,1.1-1.09H52a1.33,1.33,0,0,0,0-2.65H45.76A3.75,3.75,0,0,0,42,242.84v54.51a3.74,3.74,0,0,0,3.74,3.73h9.11V304a3,3,0,0,0,3,3H71.1l-6.23,12.16a1.33,1.33,0,0,0,.57,1.78,1.47,1.47,0,0,0,.61.14,1.3,1.3,0,0,0,1.17-.72L74.06,307H88.67l6.84,13.36a1.33,1.33,0,0,0,1.18.72,1.42,1.42,0,0,0,.6-.14,1.33,1.33,0,0,0,.58-1.78L91.64,307h13.23a3,3,0,0,0,3-3v-2.91h7.92a1.32,1.32,0,1,0,0-2.64Z"/><path class="cls-5" d="M76.68,236.51a.68.68,0,0,1,.67-.68h8a.68.68,0,0,1,.67.68v2.59H76.68v-2.59Zm-19.41,5.24H117a1.09,1.09,0,0,1,1.09,1.09V255.4a1.33,1.33,0,0,0,2.65,0V242.84A3.75,3.75,0,0,0,117,239.1H88.7v-2.59a3.32,3.32,0,0,0-3.31-3.32h-8A3.32,3.32,0,0,0,74,236.51v2.59H57.27a1.33,1.33,0,0,0,0,2.65Z"/><path class="cls-5" d="M64.54,290.84H61.82v-9h2.72v9Zm-4-11.67a1.32,1.32,0,0,0-1.32,1.32v11.68a1.32,1.32,0,0,0,1.32,1.32h5.36a1.32,1.32,0,0,0,1.32-1.32V280.49a1.32,1.32,0,0,0-1.32-1.32Z"/><path class="cls-5" d="M76.66,290.84H74V275.06h2.71v15.78Zm-4-18.42a1.33,1.33,0,0,0-1.33,1.32v18.43a1.33,1.33,0,0,0,1.33,1.32H78a1.32,1.32,0,0,0,1.32-1.32V273.74A1.32,1.32,0,0,0,78,272.42Z"/><path class="cls-5" d="M88.79,290.84H86.07v-9h2.72v9Zm-4-11.67a1.32,1.32,0,0,0-1.32,1.32v11.68a1.32,1.32,0,0,0,1.32,1.32h5.36a1.32,1.32,0,0,0,1.32-1.32V280.49a1.32,1.32,0,0,0-1.32-1.32Z"/><path class="cls-5" d="M96.88,287a1.32,1.32,0,0,0-1.32,1.32v3.88a1.32,1.32,0,0,0,1.32,1.32h5.36a1.33,1.33,0,0,0,0-2.65h-4v-2.55A1.32,1.32,0,0,0,96.88,287Z"/><path class="cls-5" d="M128.38,304.25a2.37,2.37,0,0,1-3.25-.87l-7.29-12.63A16.94,16.94,0,0,0,120,289.7a17.55,17.55,0,0,0,2-1.33L129.25,301a2.41,2.41,0,0,1,.32,1.19,2.39,2.39,0,0,1-1.19,2.06Zm-20.82-15.37a14.62,14.62,0,1,1,11.1-1.46,14.51,14.51,0,0,1-11.1,1.46Zm24,10.8L124,286.55a17.3,17.3,0,0,0,2.34-20.43A17.25,17.25,0,1,0,111.37,292a17.52,17.52,0,0,0,3.89-.45l7.58,13.12a5,5,0,0,0,4.36,2.51,4.94,4.94,0,0,0,2.5-.67,5,5,0,0,0,1.84-6.86Z"/><path class="cls-5" d="M115.43,270.62a1,1,0,1,0,2,0c0-2.53-2.22-4.64-5.13-5.05v-1.11a1,1,0,0,0-2,0v1.11c-2.91.41-5.14,2.52-5.14,5.05s2.23,4.65,5.14,5.06v6.13c-1.77-.35-3.08-1.54-3.08-3a1,1,0,0,0-2.06,0c0,2.53,2.23,4.64,5.14,5.05V285a1,1,0,0,0,2,0v-1.11c2.91-.41,5.13-2.52,5.13-5.05s-2.22-4.65-5.13-5.06v-6.13c1.77.35,3.08,1.54,3.08,3Zm-8.21,0c0-1.43,1.31-2.62,3.08-3v5.94c-1.77-.34-3.08-1.54-3.08-3Zm8.21,8.22c0,1.43-1.31,2.62-3.08,3v-5.94c1.77.34,3.08,1.53,3.08,3Z"/><path class="cls-5" d="M0,318.3v31.49a12.33,12.33,0,0,0,12.3,12.3H161.93a12.33,12.33,0,0,0,12.3-12.3V318.3Z"/><g class="cls-1"><path class="cls-6" d="M19.59,330.85v6.88h9.05v1.6h-9v7.42H17.74v-17.5h12v1.6Z"/><path class="cls-6" d="M32.92,330.35a1.23,1.23,0,0,1-.38-.9,1.2,1.2,0,0,1,.38-.87,1.24,1.24,0,0,1,.92-.38,1.29,1.29,0,0,1,.93.36,1.17,1.17,0,0,1,.37.87,1.25,1.25,0,0,1-.37.92,1.27,1.27,0,0,1-.93.38A1.24,1.24,0,0,1,32.92,330.35Zm0,3.25h1.78v13.15H32.94Z"/><path class="cls-6" d="M50.3,334.94a5.6,5.6,0,0,1,1.47,4.19v7.62H50V339.3a4.36,4.36,0,0,0-1-3.12A3.86,3.86,0,0,0,46,335.1a4.48,4.48,0,0,0-3.36,1.26,4.77,4.77,0,0,0-1.24,3.49v6.9H39.67V333.6h1.7V336a5,5,0,0,1,2-1.87,6.46,6.46,0,0,1,3-.66A5.34,5.34,0,0,1,50.3,334.94Z"/><path class="cls-6" d="M65.14,334.79a5,5,0,0,1,1.38,3.81v8.15h-1.7V344.7a4,4,0,0,1-1.77,1.6,6,6,0,0,1-2.76.58,5.41,5.41,0,0,1-3.5-1.05,3.62,3.62,0,0,1-.09-5.48,6,6,0,0,1,3.87-1h4.17v-.8a3.38,3.38,0,0,0-.95-2.59,3.92,3.92,0,0,0-2.77-.89,7.12,7.12,0,0,0-2.4.41,6.19,6.19,0,0,0-2,1.14l-.8-1.32a7.14,7.14,0,0,1,2.4-1.32,9.59,9.59,0,0,1,2.95-.46A5.56,5.56,0,0,1,65.14,334.79Zm-2,10a4.09,4.09,0,0,0,1.6-2v-2.15H60.62c-2.25,0-3.38.79-3.38,2.35a2.13,2.13,0,0,0,.88,1.81,3.92,3.92,0,0,0,2.45.67A4.66,4.66,0,0,0,63.14,344.79Z"/><path class="cls-6" d="M82,334.94a5.63,5.63,0,0,1,1.46,4.19v7.62H81.67V339.3a4.36,4.36,0,0,0-1-3.12,3.83,3.83,0,0,0-2.92-1.08,4.52,4.52,0,0,0-3.37,1.26,4.81,4.81,0,0,0-1.23,3.49v6.9H71.34V333.6H73V336a5,5,0,0,1,2-1.87,6.49,6.49,0,0,1,3-.66A5.38,5.38,0,0,1,82,334.94Z"/><path class="cls-6" d="M90.28,346a6.15,6.15,0,0,1-2.41-2.39,6.82,6.82,0,0,1-.88-3.46,6.71,6.71,0,0,1,.88-3.45,6.13,6.13,0,0,1,2.41-2.38,7.16,7.16,0,0,1,3.49-.85,6.75,6.75,0,0,1,3,.66,5.15,5.15,0,0,1,2.12,1.94l-1.33.9a4.06,4.06,0,0,0-1.65-1.46,4.83,4.83,0,0,0-2.17-.49,5.13,5.13,0,0,0-2.57.64,4.41,4.41,0,0,0-1.77,1.81,5.5,5.5,0,0,0-.64,2.68,5.42,5.42,0,0,0,.64,2.68,4.39,4.39,0,0,0,1.77,1.8,5.37,5.37,0,0,0,4.74.17,4,4,0,0,0,1.65-1.45l1.33.9a5,5,0,0,1-2.13,1.93,6.67,6.67,0,0,1-3,.67A7.16,7.16,0,0,1,90.28,346Z"/><path class="cls-6" d="M102.37,330.35a1.23,1.23,0,0,1-.38-.9,1.2,1.2,0,0,1,.38-.87,1.24,1.24,0,0,1,.92-.38,1.29,1.29,0,0,1,.93.36,1.17,1.17,0,0,1,.37.87,1.25,1.25,0,0,1-.37.92,1.27,1.27,0,0,1-.93.38A1.24,1.24,0,0,1,102.37,330.35Zm0,3.25h1.78v13.15h-1.78Z"/><path class="cls-6" d="M120.56,340.73h-11a4.75,4.75,0,0,0,1.58,3.31,5.23,5.23,0,0,0,3.6,1.26,5.51,5.51,0,0,0,2.25-.44,5,5,0,0,0,1.77-1.28l1,1.15a5.65,5.65,0,0,1-2.18,1.6,7.55,7.55,0,0,1-2.89.55,7.26,7.26,0,0,1-3.59-.87,6.18,6.18,0,0,1-2.43-2.38,6.76,6.76,0,0,1-.88-3.45,7,7,0,0,1,.84-3.45,6.05,6.05,0,0,1,2.3-2.38,6.75,6.75,0,0,1,6.56,0,6.06,6.06,0,0,1,2.27,2.36,7.15,7.15,0,0,1,.83,3.47ZM111,336.24a4.77,4.77,0,0,0-1.47,3.16h9.33a4.76,4.76,0,0,0-1.46-3.16,4.5,4.5,0,0,0-3.22-1.21A4.46,4.46,0,0,0,111,336.24Z"/><path class="cls-6" d="M127.78,334.18a6.3,6.3,0,0,1,3.06-.68v1.73l-.43,0a4.22,4.22,0,0,0-3.25,1.28,5.09,5.09,0,0,0-1.17,3.57v6.7h-1.78V333.6h1.7v2.58A4.28,4.28,0,0,1,127.78,334.18Z"/><path class="cls-6" d="M135.86,346a6.38,6.38,0,0,1-2.4-2.38,7.28,7.28,0,0,1,0-6.9,6.3,6.3,0,0,1,2.4-2.38,7.33,7.33,0,0,1,6.85,0,6.08,6.08,0,0,1,2.39,2.38,7.35,7.35,0,0,1,0,6.9,6.14,6.14,0,0,1-2.39,2.38,7.18,7.18,0,0,1-6.85,0Zm5.94-1.35a4.4,4.4,0,0,0,1.74-1.81,5.54,5.54,0,0,0,.62-2.67,5.61,5.61,0,0,0-.62-2.68,4.47,4.47,0,0,0-1.74-1.81,5.24,5.24,0,0,0-5,0A4.49,4.49,0,0,0,135,337.5a5.5,5.5,0,0,0-.64,2.68,5.44,5.44,0,0,0,.64,2.67,4.43,4.43,0,0,0,1.75,1.81,5.24,5.24,0,0,0,5,0Z"/><path class="cls-6" d="M150.05,346.41a6.45,6.45,0,0,1-2.29-1.16l.8-1.4a6.55,6.55,0,0,0,2.08,1.06,8.09,8.09,0,0,0,2.6.42,4.89,4.89,0,0,0,2.66-.57,1.76,1.76,0,0,0,.86-1.58,1.4,1.4,0,0,0-.47-1.14,3.26,3.26,0,0,0-1.2-.63,19.25,19.25,0,0,0-1.93-.41,22,22,0,0,1-2.57-.61,3.79,3.79,0,0,1-1.66-1.06,3,3,0,0,1-.69-2.08,3.26,3.26,0,0,1,1.37-2.7,6.2,6.2,0,0,1,3.83-1.05,9.72,9.72,0,0,1,2.55.34,6.81,6.81,0,0,1,2.1.89l-.78,1.42a6.61,6.61,0,0,0-3.87-1.12,4.48,4.48,0,0,0-2.56.6,1.83,1.83,0,0,0-.87,1.57,1.57,1.57,0,0,0,.49,1.2,3,3,0,0,0,1.21.66,17.79,17.79,0,0,0,2,.44,23,23,0,0,1,2.53.6,3.66,3.66,0,0,1,1.62,1,2.82,2.82,0,0,1,.68,2,3.16,3.16,0,0,1-1.44,2.73,6.81,6.81,0,0,1-4,1A10.09,10.09,0,0,1,150.05,346.41Z"/></g><rect class="cls-3" x="357.83" width="174.23" height="140.06" rx="12"/><polygon class="cls-8" points="396.39 98.06 396.39 41.09 420.32 41.09 420.32 20.49 434.16 20.49 434.16 10.04 454.86 10.04 454.86 19.88 468.9 20.8 468.9 39.1 479.63 40.79 479.63 54.05 493.19 56.44 493.5 98.06 396.39 98.06"/><path class="cls-5" d="M436.28,27a1.74,1.74,0,0,0-1.74-1.73h-6.93A1.74,1.74,0,0,0,425.87,27V33.9a1.73,1.73,0,0,0,1.74,1.73h6.93a1.73,1.73,0,0,0,1.74-1.73Zm-3.47,5.21h-3.47V28.7h3.47Z"/><path class="cls-5" d="M450.15,27a1.74,1.74,0,0,0-1.73-1.73h-6.94A1.73,1.73,0,0,0,439.75,27V33.9a1.72,1.72,0,0,0,1.73,1.73h6.94a1.73,1.73,0,0,0,1.73-1.73Zm-3.47,5.21h-3.47V28.7h3.47Z"/><path class="cls-5" d="M464,27a1.73,1.73,0,0,0-1.73-1.73h-6.94A1.74,1.74,0,0,0,453.62,27V33.9a1.73,1.73,0,0,0,1.73,1.73h6.94A1.72,1.72,0,0,0,464,33.9Zm-3.46,5.21h-3.47V28.7h3.47Z"/><path class="cls-5" d="M436.28,40.84a1.74,1.74,0,0,0-1.74-1.74h-6.93a1.74,1.74,0,0,0-1.74,1.74v6.93a1.74,1.74,0,0,0,1.74,1.74h6.93a1.74,1.74,0,0,0,1.74-1.74ZM432.81,46h-3.47V42.57h3.47Z"/><path class="cls-5" d="M450.15,40.84a1.74,1.74,0,0,0-1.73-1.74h-6.94a1.73,1.73,0,0,0-1.73,1.74v6.93a1.73,1.73,0,0,0,1.73,1.74h6.94a1.74,1.74,0,0,0,1.73-1.74ZM446.68,46h-3.47V42.57h3.47Z"/><path class="cls-5" d="M464,40.84a1.73,1.73,0,0,0-1.73-1.74h-6.94a1.74,1.74,0,0,0-1.73,1.74v6.93a1.74,1.74,0,0,0,1.73,1.74h6.94A1.73,1.73,0,0,0,464,47.77ZM460.56,46h-3.47V42.57h3.47Z"/><path class="cls-5" d="M434.54,53h-6.93a1.74,1.74,0,0,0-1.74,1.74v6.93a1.74,1.74,0,0,0,1.74,1.74h6.93a1.74,1.74,0,0,0,1.74-1.74V54.71A1.74,1.74,0,0,0,434.54,53Zm-1.73,6.94h-3.47V56.44h3.47Z"/><path class="cls-5" d="M448.42,53h-6.94a1.73,1.73,0,0,0-1.73,1.74v6.93a1.73,1.73,0,0,0,1.73,1.74h6.94a1.74,1.74,0,0,0,1.73-1.74V54.71A1.74,1.74,0,0,0,448.42,53Zm-1.74,6.94h-3.47V56.44h3.47Z"/><path class="cls-5" d="M462.29,53h-6.94a1.74,1.74,0,0,0-1.73,1.74v6.93a1.74,1.74,0,0,0,1.73,1.74h6.94A1.73,1.73,0,0,0,464,61.64V54.71A1.73,1.73,0,0,0,462.29,53Zm-1.73,6.94h-3.47V56.44h3.47Z"/><path class="cls-5" d="M415.47,47.77a1.74,1.74,0,0,0-3.47,0v6.94a1.74,1.74,0,0,0,3.47,0Z"/><path class="cls-5" d="M406.8,46h-8.67V42.57h15.6a1.74,1.74,0,1,0,0-3.47H396.39a1.74,1.74,0,0,0-1.73,1.74V96.33a1.74,1.74,0,0,0,3.47,0V84.19h8.67a1.73,1.73,0,0,0,1.73-1.74V75.52a1.73,1.73,0,0,0-1.73-1.74h-8.67V70.32h8.67a1.73,1.73,0,0,0,1.73-1.74V61.64a1.73,1.73,0,0,0-1.73-1.73h-8.67V56.44h8.67a1.72,1.72,0,0,0,1.73-1.73V47.77A1.72,1.72,0,0,0,406.8,46Zm-1.74,31.21v3.47h-6.93V77.25Zm0-13.87v3.47h-6.93V63.38Zm0-10.41h-6.93V49.51h6.93Z"/><path class="cls-5" d="M415.47,61.64a1.74,1.74,0,0,0-3.47,0v6.94a1.74,1.74,0,1,0,3.47,0Z"/><path class="cls-5" d="M413.73,73.78A1.74,1.74,0,0,0,412,75.52v6.93a1.74,1.74,0,1,0,3.47,0V75.52a1.74,1.74,0,0,0-1.74-1.74Z"/><path class="cls-5" d="M493.5,53H481.36V33.9a1.73,1.73,0,0,0-3.46,0v5.2H471V33.9a1.74,1.74,0,0,0-3.47,0V87.66h-6.93V77.25h1.73A1.72,1.72,0,0,0,464,75.52V68.58a1.72,1.72,0,0,0-1.73-1.73H427.61a1.73,1.73,0,0,0-1.74,1.73v6.94a1.73,1.73,0,0,0,1.74,1.73h1.73V87.66h-6.93V21.76h45.08V27A1.74,1.74,0,1,0,471,27V20a1.74,1.74,0,0,0-1.73-1.74H457.09V9.62a1.73,1.73,0,0,0-1.74-1.73H434.54a1.73,1.73,0,0,0-1.73,1.73v8.67H420.67A1.73,1.73,0,0,0,418.94,20V87.66H412a1.73,1.73,0,0,0,0,3.46h64.16v3.47H412a1.74,1.74,0,0,0,0,3.47h65.9a1.74,1.74,0,0,0,1.73-1.73V91.12h12.14v5.21a1.74,1.74,0,0,0,3.47,0V54.71A1.74,1.74,0,0,0,493.5,53ZM436.28,11.36h17.34v6.93H436.28Zm-6.94,59h31.22v3.46H429.34Zm13.87,17.34h-10.4V77.25h10.4Zm13.88,0H446.68V77.25h10.41ZM471,42.57h6.94V46h-1.74a1.74,1.74,0,0,0,0,3.47h1.74V53H471Zm0,13.87h13.87v3.47H471Zm0,13.88h3.47v3.46H471Zm6.94,17.34H471V84.19h6.94Zm6.93,0h-3.47V84.19h3.47Zm6.94,0H488.3V84.19h3.47Zm0-6.94H471V77.25h20.81ZM477.9,73.78V70.32h3.46v3.46Zm13.87,0h-6.94V70.32h6.94Zm0-6.93H471V63.38h20.81Zm0-6.94H488.3V56.44h3.47Z"/><path class="cls-5" d="M357.83,96.27v31.49a12.34,12.34,0,0,0,12.3,12.3H519.77a12.33,12.33,0,0,0,12.29-12.3V96.27Z"/><g class="cls-1"><path class="cls-6" d="M401.6,107.87v17.5h-1.78v-14L393,123.15h-.88l-6.87-11.7v13.92h-1.78v-17.5H385l7.6,13,7.52-13Z"/><path class="cls-6" d="M415.47,113.41a5,5,0,0,1,1.38,3.81v8.15h-1.7v-2.05a4,4,0,0,1-1.76,1.6,6.12,6.12,0,0,1-2.77.58,5.43,5.43,0,0,1-3.5-1,3.42,3.42,0,0,1-1.3-2.78A3.38,3.38,0,0,1,407,119a5.93,5.93,0,0,1,3.86-1h4.17v-.8a3.35,3.35,0,0,0-.95-2.59,3.92,3.92,0,0,0-2.77-.89,6.89,6.89,0,0,0-2.4.42,6,6,0,0,0-2,1.13l-.8-1.32a7.12,7.12,0,0,1,2.4-1.31,9.35,9.35,0,0,1,2.95-.47A5.54,5.54,0,0,1,415.47,113.41Zm-2,10a4.09,4.09,0,0,0,1.6-2v-2.15H411c-2.25,0-3.38.79-3.38,2.35a2.14,2.14,0,0,0,.88,1.82,4,4,0,0,0,2.45.66A4.63,4.63,0,0,0,413.47,123.41Z"/><path class="cls-6" d="M428.6,124.57a3.47,3.47,0,0,1-1.24.69,4.91,4.91,0,0,1-1.54.24,3.48,3.48,0,0,1-3.85-3.83v-8h-2.35v-1.5H422v-2.87h1.78v2.87h4v1.5h-4v7.85a2.45,2.45,0,0,0,.59,1.79A2.21,2.21,0,0,0,426,124a3.24,3.24,0,0,0,1.07-.17,2.62,2.62,0,0,0,.88-.5Z"/><path class="cls-6" d="M442.8,119.35h-11a4.68,4.68,0,0,0,1.57,3.31,5.23,5.23,0,0,0,3.6,1.26,5.68,5.68,0,0,0,2.25-.43A4.83,4.83,0,0,0,441,122.2l1,1.15a5.69,5.69,0,0,1-2.19,1.6,7.88,7.88,0,0,1-6.47-.31,6.17,6.17,0,0,1-2.44-2.39,6.76,6.76,0,0,1-.88-3.45,7,7,0,0,1,.84-3.45,6.12,6.12,0,0,1,2.3-2.38,6.5,6.5,0,0,1,3.29-.85,6.4,6.4,0,0,1,3.27.85,6,6,0,0,1,2.28,2.37,7.11,7.11,0,0,1,.82,3.46Zm-9.54-4.49A4.72,4.72,0,0,0,431.8,118h9.32a4.72,4.72,0,0,0-1.46-3.16,4.84,4.84,0,0,0-6.4,0Z"/><path class="cls-6" d="M450,112.8a6.35,6.35,0,0,1,3.06-.68v1.73l-.42,0a4.19,4.19,0,0,0-3.25,1.28,5,5,0,0,0-1.18,3.57v6.7h-1.77V112.22h1.7v2.58A4.3,4.3,0,0,1,450,112.8Z"/><path class="cls-6" d="M456.25,109a1.23,1.23,0,0,1-.38-.9,1.2,1.2,0,0,1,.38-.87,1.26,1.26,0,0,1,.92-.38,1.3,1.3,0,0,1,.93.37,1.15,1.15,0,0,1,.37.86,1.24,1.24,0,0,1-.37.92,1.32,1.32,0,0,1-1.85,0Zm0,3.25h1.78v13.15h-1.78Z"/><path class="cls-6" d="M471.55,113.41a5,5,0,0,1,1.37,3.81v8.15h-1.7v-2.05a4,4,0,0,1-1.76,1.6,6.07,6.07,0,0,1-2.76.58,5.39,5.39,0,0,1-3.5-1,3.62,3.62,0,0,1-.09-5.48,6,6,0,0,1,3.86-1h4.18v-.8a3.39,3.39,0,0,0-.95-2.59,4,4,0,0,0-2.78-.89,7,7,0,0,0-2.4.42,6,6,0,0,0-2,1.13l-.8-1.32a6.94,6.94,0,0,1,2.4-1.31,9.25,9.25,0,0,1,3-.47A5.58,5.58,0,0,1,471.55,113.41Zm-2,10a4.14,4.14,0,0,0,1.6-2v-2.15H467c-2.25,0-3.37.79-3.37,2.35a2.16,2.16,0,0,0,.87,1.82,4,4,0,0,0,2.45.66A4.69,4.69,0,0,0,469.55,123.41Z"/><path class="cls-6" d="M477.75,106.82h1.77v18.55h-1.77Z"/><path class="cls-6" d="M495.92,119.35h-11a4.69,4.69,0,0,0,1.58,3.31,5.23,5.23,0,0,0,3.6,1.26,5.75,5.75,0,0,0,2.25-.43,4.87,4.87,0,0,0,1.77-1.29l1,1.15a5.65,5.65,0,0,1-2.18,1.6,7.9,7.9,0,0,1-6.48-.31,6.3,6.3,0,0,1-2.44-2.39,6.86,6.86,0,0,1-.87-3.45,7.15,7.15,0,0,1,.83-3.45,6.08,6.08,0,0,1,2.31-2.38,6.75,6.75,0,0,1,6.56,0,6.09,6.09,0,0,1,2.27,2.37,7.11,7.11,0,0,1,.83,3.46Zm-9.54-4.49a4.81,4.81,0,0,0-1.46,3.16h9.33a4.81,4.81,0,0,0-1.46-3.16,4.85,4.85,0,0,0-6.41,0Z"/><path class="cls-6" d="M500,125a6.57,6.57,0,0,1-2.28-1.17l.8-1.4a6.72,6.72,0,0,0,2.07,1.07,8.42,8.42,0,0,0,2.6.41,5,5,0,0,0,2.66-.56,1.8,1.8,0,0,0,.87-1.59,1.44,1.44,0,0,0-.48-1.14,3.1,3.1,0,0,0-1.2-.62,18.57,18.57,0,0,0-1.92-.42,21.75,21.75,0,0,1-2.58-.61,3.79,3.79,0,0,1-1.66-1.06,3,3,0,0,1-.69-2.08,3.25,3.25,0,0,1,1.38-2.7,6.15,6.15,0,0,1,3.82-1,10.16,10.16,0,0,1,2.55.34,7.06,7.06,0,0,1,2.1.89l-.77,1.42a6.67,6.67,0,0,0-3.88-1.12,4.48,4.48,0,0,0-2.56.6,1.82,1.82,0,0,0-.86,1.57,1.57,1.57,0,0,0,.48,1.2,3,3,0,0,0,1.22.67,20.16,20.16,0,0,0,2,.43,22.69,22.69,0,0,1,2.52.6,3.73,3.73,0,0,1,1.63,1,2.81,2.81,0,0,1,.67,2,3.19,3.19,0,0,1-1.44,2.74,6.83,6.83,0,0,1-4,1A10.1,10.1,0,0,1,500,125Z"/></g><rect class="cls-3" x="357.83" y="222.03" width="174.23" height="140.06" rx="12"/><path class="cls-9" d="M411.63,318.3a8.43,8.43,0,0,1-8.63-7c-1.52-7.47,0-49.29,0-49.29a9.63,9.63,0,0,1,8.63-7.29c7.36-.82,9,7.49,9,7.49v7.24h12.73l-1.45-4.34,2.9-2.9c-3.59-2.9-10.15-21.73,7.24-21.73,16.51,0,9.25,21.53,7.24,21.73,0,0,5.2,2.79,1.45,7.24H469v-29s-.59-5.76,6.37-5.76c5.6,0,5.32,5.8,5.32,5.8l.17,29h5.77v52.1Z"/><path class="cls-5" d="M456.54,270.86h7.24a1.45,1.45,0,1,0,0-2.9h-7.24a1.45,1.45,0,0,0,0,2.9Z"/><path class="cls-5" d="M487,268a1.45,1.45,0,0,0-1.45,1.45v47.81H411.63a7.24,7.24,0,1,1,7.24-7.24,1.45,1.45,0,1,0,2.9,0V270.86h4.34a1.45,1.45,0,0,0,0-2.9h-4.34v-4.34a10.15,10.15,0,0,0-20.29,0V310a10.16,10.16,0,0,0,10.15,10.14H487a1.45,1.45,0,0,0,1.45-1.45V269.41A1.45,1.45,0,0,0,487,268Zm-82.58-4.34a7.25,7.25,0,1,1,14.49,0v39.26a10.13,10.13,0,0,0-14.49,0Z"/><path class="cls-5" d="M468.23,285.89l2.32,5.79,3.48,8.7a1.45,1.45,0,0,0,2.69,0l3.48-8.7,2.31-5.79a1.64,1.64,0,0,0,.1-.49s0,0,0,0V260.72a1.45,1.45,0,1,0-2.9,0V283.9h-2.9V250.58h2.9v4.34a1.45,1.45,0,0,0,2.9,0V240.44a7.25,7.25,0,1,0-14.49,0v44.91s0,0,0,.06a1.36,1.36,0,0,0,.09.48Zm5.81,6.7h2.67l-1.34,3.35Zm3.83-2.9h-5l-1.16-2.89H479Zm-3.95-5.79H471V250.58h2.89ZM471,247.68v-2.9h8.69v2.9Zm0-7.24a4.35,4.35,0,1,1,8.69,0v1.44H471Z"/><path class="cls-5" d="M433.36,261.73v.7a4.32,4.32,0,0,0,0,8.16v.27a8.7,8.7,0,0,0,6,8.26,12,12,0,0,1-5.62,3.19l-2.21.55a7.15,7.15,0,0,0,1.74,14.08h3a1.45,1.45,0,0,0,0-2.9h-3a4.24,4.24,0,0,1-1-8.36l2.21-.56a15,15,0,0,0,8.37-5.6,8.7,8.7,0,0,0,7.93-8.66v-.27a4.32,4.32,0,0,0,0-8.16v-.7a13,13,0,0,0,2.53-16.32,1.45,1.45,0,0,0-2.49,1.47,10.1,10.1,0,0,1-2.39,13.05,1.43,1.43,0,0,0-.54,1.13v1.11h-1.28l1.27-11.43a1.45,1.45,0,0,0-1.9-1.54l-3.89,1.3-3.89-1.3a1.45,1.45,0,0,0-1.9,1.54l1.27,11.43h-1.27v-1.1a1.43,1.43,0,0,0-.55-1.13,10.13,10.13,0,0,1,11.48-16.64,1.45,1.45,0,1,0,1.48-2.5,13,13,0,0,0-15.31,20.93Zm8.69,14.93a5.8,5.8,0,0,1-5.79-5.8h11.59a5.8,5.8,0,0,1-5.8,5.8Zm-2.65-24,2.19.73a1.45,1.45,0,0,0,.92,0l2.2-.73-1.06,9.5h-3.19Zm-.25,12.4h10.14a1.45,1.45,0,1,1,0,2.89H434.81a1.45,1.45,0,1,1,0-2.89Z"/><path class="cls-5" d="M426.11,252a1.45,1.45,0,1,1-1.45-1.45,1.45,1.45,0,0,1,1.45,1.45Z"/><path class="cls-5" d="M460.88,252a1.45,1.45,0,1,1-1.44-1.45,1.44,1.44,0,0,1,1.44,1.45Z"/><path class="cls-5" d="M443.5,234.64a1.45,1.45,0,1,1-1.45-1.45,1.45,1.45,0,0,1,1.45,1.45Z"/><path class="cls-5" d="M426.27,244.59a1.46,1.46,0,0,0,1.61-.11,1.45,1.45,0,1,0-2.14-1.87,1.45,1.45,0,0,0,.53,2Z"/><path class="cls-5" d="M456.38,262a1.44,1.44,0,0,0,1.61-.1,1.45,1.45,0,1,0-2.14-1.88,1.45,1.45,0,0,0,.53,2Z"/><path class="cls-5" d="M452.14,236.6a1.45,1.45,0,0,1-2.8.75,1.46,1.46,0,0,1,1-1.78,1.44,1.44,0,0,1,1.77,1Z"/><path class="cls-5" d="M457.83,244.59a1.45,1.45,0,1,0-2-.53,1.44,1.44,0,0,0,2,.53Z"/><path class="cls-5" d="M428.25,260a1.46,1.46,0,0,0-1.44-.71,1.45,1.45,0,1,0,1.44.71Z"/><path class="cls-5" d="M434.08,238.22a1.44,1.44,0,1,0-2-.53,1.43,1.43,0,0,0,2,.53Z"/><path class="cls-5" d="M449.29,308.53h5.8a1.45,1.45,0,0,0,1.45-1.45v-2.43a11,11,0,0,0,1.41-.82l2.11,1.22a1.46,1.46,0,0,0,2-.53l2.89-5a1.44,1.44,0,0,0-.53-2l-2.1-1.21c0-.28,0-.55,0-.82s0-.54,0-.82l2.1-1.21a1.44,1.44,0,0,0,.53-2l-2.89-5a1.46,1.46,0,0,0-2-.53L458,287.15a9.89,9.89,0,0,0-1.41-.81V283.9a1.45,1.45,0,0,0-1.45-1.45h-5.8a1.44,1.44,0,0,0-1.44,1.45v2.44a9.47,9.47,0,0,0-1.42.81l-2.1-1.22a1.45,1.45,0,0,0-2,.53l-2.9,5a1.45,1.45,0,0,0,.53,2l2.11,1.21a8.43,8.43,0,0,0,0,1.64L440,297.52a1.47,1.47,0,0,0-.68.88,1.43,1.43,0,0,0,1,1.78,1.41,1.41,0,0,0,1.1-.15l2.94-1.7a1.45,1.45,0,0,0,.7-1.52,6.9,6.9,0,0,1,0-2.64,1.45,1.45,0,0,0-.7-1.52l-1.69-1,1.45-2.51,1.69,1a1.43,1.43,0,0,0,1.66-.15,7.2,7.2,0,0,1,2.29-1.32,1.46,1.46,0,0,0,1-1.37v-1.95h2.9v1.95a1.46,1.46,0,0,0,1,1.37A7.2,7.2,0,0,1,456.9,290a1.43,1.43,0,0,0,1.66.15l1.69-1,1.45,2.51-1.68,1a1.44,1.44,0,0,0-.71,1.52,6.9,6.9,0,0,1,0,2.64,1.44,1.44,0,0,0,.71,1.52l1.68,1-1.44,2.51-1.69-1a1.45,1.45,0,0,0-1.67.15,7,7,0,0,1-2.29,1.32,1.45,1.45,0,0,0-1,1.37v1.95h-2.91v-1.95a1.45,1.45,0,0,0-1-1.37,7,7,0,0,1-2.29-1.32,1.45,1.45,0,0,0-1.67-.15l-2.94,1.7a1.43,1.43,0,0,0-.68.88,1.46,1.46,0,0,0,.14,1.1,1.43,1.43,0,0,0,.88.68,1.48,1.48,0,0,0,1.11-.15l2.1-1.22a10.48,10.48,0,0,0,1.42.82v2.43a1.44,1.44,0,0,0,1.44,1.45Z"/><path class="cls-5" d="M456.54,295.49a4.34,4.34,0,1,0-4.35,4.35,4.36,4.36,0,0,0,4.35-4.35Zm-5.8,0a1.45,1.45,0,0,1,2.48-1,1.45,1.45,0,0,1-1,2.47,1.45,1.45,0,0,1-1.45-1.45Z"/><path class="cls-5" d="M453.64,314.32H471a5.79,5.79,0,0,0,5.79-5.79v-2.9a1.45,1.45,0,0,0-2.9,0v2.9a2.89,2.89,0,0,1-2.89,2.9H453.64a1.45,1.45,0,1,0,0,2.89Z"/><path class="cls-5" d="M427.56,308.53a4.34,4.34,0,1,0,4.35-4.35,4.33,4.33,0,0,0-4.35,4.35Zm5.8,0a1.45,1.45,0,0,1-2.48,1,1.45,1.45,0,1,1,2.48-1Z"/><path class="cls-5" d="M357.83,318.3v31.49a12.34,12.34,0,0,0,12.3,12.3H519.77a12.33,12.33,0,0,0,12.29-12.3V318.3Z"/><g class="cls-1"><path class="cls-6" d="M377.19,329.25H379v17.5h-1.85Z"/><path class="cls-6" d="M395,334.94a5.63,5.63,0,0,1,1.46,4.19v7.62h-1.77V339.3a4.36,4.36,0,0,0-1-3.12,3.83,3.83,0,0,0-2.92-1.08,4.52,4.52,0,0,0-3.37,1.26,4.81,4.81,0,0,0-1.23,3.49v6.9h-1.78V333.6h1.7V336a5,5,0,0,1,2-1.87,6.49,6.49,0,0,1,3-.66A5.38,5.38,0,0,1,395,334.94Z"/><path class="cls-6" d="M408.21,346a3.39,3.39,0,0,1-1.24.69,4.9,4.9,0,0,1-1.53.24,3.86,3.86,0,0,1-2.85-1,3.82,3.82,0,0,1-1-2.83V335.1h-2.35v-1.5h2.35v-2.87h1.77v2.87h4v1.5h-4V343a2.49,2.49,0,0,0,.59,1.79,2.22,2.22,0,0,0,1.69.61,3.46,3.46,0,0,0,1.06-.17,2.86,2.86,0,0,0,.89-.5Z"/><path class="cls-6" d="M420,334.79a5,5,0,0,1,1.37,3.81v8.15h-1.7V344.7a4,4,0,0,1-1.76,1.6,6.1,6.1,0,0,1-2.76.58,5.39,5.39,0,0,1-3.5-1.05,3.62,3.62,0,0,1-.09-5.48,5.94,5.94,0,0,1,3.86-1h4.18v-.8a3.38,3.38,0,0,0-.95-2.59,4,4,0,0,0-2.78-.89,7.2,7.2,0,0,0-2.4.41,6.14,6.14,0,0,0-2,1.14l-.8-1.32a7,7,0,0,1,2.4-1.32,9.54,9.54,0,0,1,3-.46A5.58,5.58,0,0,1,420,334.79Zm-2,10a4.14,4.14,0,0,0,1.6-2v-2.15h-4.13c-2.25,0-3.37.79-3.37,2.35a2.14,2.14,0,0,0,.87,1.81,3.92,3.92,0,0,0,2.45.67A4.69,4.69,0,0,0,418,344.79Z"/><path class="cls-6" d="M436.82,334.94a5.6,5.6,0,0,1,1.47,4.19v7.62h-1.78V339.3a4.36,4.36,0,0,0-1-3.12,3.86,3.86,0,0,0-2.93-1.08,4.48,4.48,0,0,0-3.36,1.26,4.77,4.77,0,0,0-1.24,3.49v6.9h-1.77V333.6h1.7V336a5,5,0,0,1,2-1.87,6.46,6.46,0,0,1,3-.66A5.34,5.34,0,0,1,436.82,334.94Z"/><path class="cls-6" d="M455.34,333.6v11.55a6.68,6.68,0,0,1-1.64,5,6.76,6.76,0,0,1-4.94,1.62,11,11,0,0,1-3.46-.54,7,7,0,0,1-2.66-1.49l.9-1.35a6.71,6.71,0,0,0,2.31,1.33,8.8,8.8,0,0,0,2.86.47,5.09,5.09,0,0,0,3.68-1.16,4.91,4.91,0,0,0,1.17-3.61V343.7a5.28,5.28,0,0,1-2.16,1.9,6.59,6.59,0,0,1-3,.65,7,7,0,0,1-3.37-.81,5.91,5.91,0,0,1-2.37-2.28,6.78,6.78,0,0,1,0-6.61,6,6,0,0,1,2.36-2.25,7.12,7.12,0,0,1,3.38-.8,6.67,6.67,0,0,1,3,.68,5.47,5.47,0,0,1,2.18,1.95V333.6Zm-4.15,10.46a4.31,4.31,0,0,0,1.78-1.71,5.18,5.18,0,0,0,0-5,4.46,4.46,0,0,0-1.77-1.7,5.47,5.47,0,0,0-2.59-.61,5.4,5.4,0,0,0-2.56.6,4.42,4.42,0,0,0-1.78,1.7,5,5,0,0,0-.63,2.5,4.91,4.91,0,0,0,.63,2.5,4.38,4.38,0,0,0,1.78,1.71,5.3,5.3,0,0,0,2.56.62A5.41,5.41,0,0,0,451.19,344.06Z"/><path class="cls-6" d="M460.28,330.35a1.22,1.22,0,0,1-.37-.9,1.19,1.19,0,0,1,.37-.87,1.34,1.34,0,0,1,1.85,0,1.18,1.18,0,0,1,.38.87,1.26,1.26,0,0,1-.38.92,1.24,1.24,0,0,1-.92.38A1.27,1.27,0,0,1,460.28,330.35Zm0,3.25h1.78v13.15h-1.78Z"/><path class="cls-6" d="M477.16,334.34a6.06,6.06,0,0,1,2.35,2.36,7.53,7.53,0,0,1,0,6.95,6.11,6.11,0,0,1-2.35,2.38,6.75,6.75,0,0,1-3.35.85,6.25,6.25,0,0,1-3-.7,5.43,5.43,0,0,1-2.12-2v2.6H467V328.2h1.77v7.9a5.52,5.52,0,0,1,2.11-1.94,6.24,6.24,0,0,1,2.89-.66A6.75,6.75,0,0,1,477.16,334.34Zm-1,10.32a4.45,4.45,0,0,0,1.76-1.81,5.55,5.55,0,0,0,.64-2.67,5.62,5.62,0,0,0-.64-2.68,4.51,4.51,0,0,0-1.76-1.81,5.24,5.24,0,0,0-5,0,4.55,4.55,0,0,0-1.75,1.81,5.61,5.61,0,0,0-.63,2.68,5.54,5.54,0,0,0,.63,2.67,4.49,4.49,0,0,0,1.75,1.81,5.24,5.24,0,0,0,5,0Z"/><path class="cls-6" d="M484,328.2h1.78v18.55H484Z"/><path class="cls-6" d="M502.16,340.73h-11a4.7,4.7,0,0,0,1.57,3.31,5.24,5.24,0,0,0,3.61,1.26,5.58,5.58,0,0,0,2.25-.44,5,5,0,0,0,1.77-1.28l1,1.15a5.61,5.61,0,0,1-2.19,1.6,7.48,7.48,0,0,1-2.89.55,7.22,7.22,0,0,1-3.58-.87,6.21,6.21,0,0,1-2.44-2.38,6.86,6.86,0,0,1-.88-3.45,7,7,0,0,1,.84-3.45,6.12,6.12,0,0,1,2.3-2.38,6.77,6.77,0,0,1,6.57,0,6.13,6.13,0,0,1,2.27,2.36,7.15,7.15,0,0,1,.82,3.47Zm-9.54-4.49a4.76,4.76,0,0,0-1.46,3.16h9.32a4.72,4.72,0,0,0-1.46-3.16,4.84,4.84,0,0,0-6.4,0Z"/><path class="cls-6" d="M506.27,346.41a6.45,6.45,0,0,1-2.29-1.16l.8-1.4a6.55,6.55,0,0,0,2.08,1.06,8.09,8.09,0,0,0,2.6.42,4.89,4.89,0,0,0,2.66-.57,1.76,1.76,0,0,0,.86-1.58,1.4,1.4,0,0,0-.47-1.14,3.26,3.26,0,0,0-1.2-.63,19.25,19.25,0,0,0-1.93-.41,22,22,0,0,1-2.57-.61,3.79,3.79,0,0,1-1.66-1.06,3,3,0,0,1-.69-2.08,3.26,3.26,0,0,1,1.37-2.7,6.2,6.2,0,0,1,3.83-1.05,9.72,9.72,0,0,1,2.55.34,6.81,6.81,0,0,1,2.1.89l-.78,1.42a6.61,6.61,0,0,0-3.87-1.12,4.48,4.48,0,0,0-2.56.6,1.83,1.83,0,0,0-.87,1.57,1.57,1.57,0,0,0,.49,1.2,3,3,0,0,0,1.21.66,17.79,17.79,0,0,0,2,.44,23,23,0,0,1,2.53.6,3.66,3.66,0,0,1,1.62,1,2.82,2.82,0,0,1,.68,2,3.16,3.16,0,0,1-1.44,2.73,6.81,6.81,0,0,1-4,1A10.09,10.09,0,0,1,506.27,346.41Z"/></g></g></g></svg>