<svg xmlns="http://www.w3.org/2000/svg" xmlns:xlink="http://www.w3.org/1999/xlink" viewBox="0 0 90.4 104.26"><defs><style>.cls-1{fill:url(#Degradado_sin_nombre_25);}.cls-2{fill:#4dd0e0;}</style><linearGradient id="Degradado_sin_nombre_25" x1="45.72" y1="102.64" x2="45.72" y2="1.07" gradientUnits="userSpaceOnUse"><stop offset="0" stop-color="#cbf1f6"/><stop offset="1" stop-color="#fff"/></linearGradient></defs><g id="Capa_2" data-name="Capa 2"><g id="CONTENIDO"><path class="cls-1" d="M2.42,11.17v91.47h70V59L88.82,32a3.31,3.31,0,0,0-1.47-4l-4.24-2.86s-2.3-.56-4.24,2.5L73.62,36l-.9-24.82-19-1.25L52,7.67l-6-.66L44.23,1.07,30.37,2l-.85,5H23.66L21.12,9.77Z"/><path class="cls-2" d="M27.82,27.86a1.52,1.52,0,0,0-2.13.32l-3,4.11-1-1.42a1.53,1.53,0,1,0-2.47,1.8l1.78,2.45a2.15,2.15,0,0,0,1.71.87h0a2.12,2.12,0,0,0,1.71-.87L28.15,30a1.52,1.52,0,0,0-.33-2.13Z"/><path class="cls-2" d="M27.82,52.91a1.52,1.52,0,0,0-2.13.32l-3,4.11-1-1.42a1.53,1.53,0,1,0-2.47,1.8l1.78,2.45a2.15,2.15,0,0,0,1.71.87h0a2.14,2.14,0,0,0,1.71-.86L28.15,55a1.52,1.52,0,0,0-.33-2.13Z"/><path class="cls-2" d="M27.82,76.89a1.52,1.52,0,0,0-2.13.33l-3,4.1-1-1.42a1.53,1.53,0,0,0-2.47,1.8l1.78,2.45a2.12,2.12,0,0,0,1.71.87h0a2.14,2.14,0,0,0,1.71-.86L28.15,79a1.53,1.53,0,0,0-.33-2.14Z"/><path class="cls-2" d="M39.51,30.11H58.39a1.53,1.53,0,0,0,0-3.05H39.51a1.53,1.53,0,1,0,0,3.05Z"/><path class="cls-2" d="M39.51,36.49H49a1.53,1.53,0,0,0,0-3.05H39.51a1.53,1.53,0,1,0,0,3.05Z"/><path class="cls-2" d="M39.51,54.63H52.17a1.53,1.53,0,0,0,0-3.06H39.51a1.53,1.53,0,0,0,0,3.06Z"/><path class="cls-2" d="M49,61a1.53,1.53,0,0,0,0-3H39.51a1.53,1.53,0,1,0,0,3Z"/><path class="cls-2" d="M29.54,22H17.77a3.9,3.9,0,0,0-3.89,3.89V37.66a3.9,3.9,0,0,0,3.89,3.89H29.54a3.9,3.9,0,0,0,3.89-3.89V25.89A3.9,3.9,0,0,0,29.54,22Zm.83,15.66a.83.83,0,0,1-.83.83H17.77a.83.83,0,0,1-.83-.83V25.89a.83.83,0,0,1,.83-.83H29.54a.83.83,0,0,1,.83.83Z"/><path class="cls-2" d="M29.54,46.52H17.77a3.89,3.89,0,0,0-3.89,3.89V62.18a3.89,3.89,0,0,0,3.89,3.88H29.54a3.89,3.89,0,0,0,3.89-3.88V50.41a3.89,3.89,0,0,0-3.89-3.89Zm.83,15.66a.83.83,0,0,1-.83.83H17.77a.83.83,0,0,1-.83-.83V50.41a.83.83,0,0,1,.83-.83H29.54a.83.83,0,0,1,.83.83Z"/><path class="cls-2" d="M29.54,71H17.77a3.89,3.89,0,0,0-3.89,3.89V86.69a3.89,3.89,0,0,0,3.89,3.89H29.54a3.89,3.89,0,0,0,3.89-3.89V74.93A3.89,3.89,0,0,0,29.54,71Zm.83,15.65a.84.84,0,0,1-.83.84H17.77a.84.84,0,0,1-.83-.84V74.93a.84.84,0,0,1,.83-.84H29.54a.84.84,0,0,1,.83.84Z"/><path class="cls-2" d="M87.81,26.13l-2.42-1.54a5.58,5.58,0,0,0-7.7,1.73l-2.22,3.52-3.09,4.87-3.49,5.52V17.3A2.87,2.87,0,0,0,66,14.44h-11V11.38H69.73a2.21,2.21,0,0,1,2.21,2.21V26.82a1.53,1.53,0,0,0,3.06,0V13.59a5.27,5.27,0,0,0-5.27-5.26h-15a4.16,4.16,0,0,0-3.84-2.58H47V4.21A4.22,4.22,0,0,0,42.76,0H32.24A4.22,4.22,0,0,0,28,4.21V5.75h-4a4.16,4.16,0,0,0-3.84,2.58h-15A5.27,5.27,0,0,0,0,13.59V99a5.27,5.27,0,0,0,5.27,5.27H69.73A5.27,5.27,0,0,0,75,99V64.74a1.53,1.53,0,0,0-3.06,0V99a2.21,2.21,0,0,1-2.21,2.21H5.27A2.22,2.22,0,0,1,3.05,99V13.59a2.22,2.22,0,0,1,2.22-2.21H19.92v3.06H9A2.87,2.87,0,0,0,6.11,17.3v78A2.87,2.87,0,0,0,9,98.15H66a2.87,2.87,0,0,0,2.86-2.87V66.46L84.23,42.22h0l3.09-4.87,2.22-3.52a5.58,5.58,0,0,0-1.73-7.69Zm-6,.72a2.45,2.45,0,0,1,1.9.33l2.43,1.53A2.53,2.53,0,0,1,87,32.19l-1.41,2.22-6.68-4.23L80.27,28a2.47,2.47,0,0,1,1.58-1.11ZM52.92,86a9.45,9.45,0,0,1-1,1.29,11.14,11.14,0,0,0-1.62-1.74L78.79,40.58l2,1.29ZM42.49,95.09h0c3.3-13.74,1.69-7,2.15-9a7.72,7.72,0,0,1,5,3.19c-8.09,6.52-7.06,5.68-7.17,5.78ZM77.23,32.76,83.92,37l-1.46,2.3-6.68-4.23ZM23,10V9.87a1.11,1.11,0,0,1,1.1-1.07h4.38a2.62,2.62,0,0,0,2.63-2.62v-2a1.14,1.14,0,0,1,1.15-1.15H42.76a1.14,1.14,0,0,1,1.15,1.15v2A2.62,2.62,0,0,0,46.54,8.8h4.38A1.11,1.11,0,0,1,52,9.87v0A.13.13,0,0,0,52,10v4.49H23ZM9.17,17.49H65.83V45.06l-16,25.26A1.53,1.53,0,1,0,52.43,72L74.14,37.64,76.21,39l-28.46,45a10.38,10.38,0,0,0-2.27-.73,9.63,9.63,0,0,1,.75-1.42L48.61,78A1.53,1.53,0,0,0,46,76.36l-2.38,3.75a13.6,13.6,0,0,0-1.7,4h0L39.49,94.34a3.2,3.2,0,0,0-.09.75H9.17Zm56.66,77.6H47.35l5.25-4.22a13.47,13.47,0,0,0,2.9-3.26L65.83,71.28Z"/></g></g></svg>