<svg xmlns="http://www.w3.org/2000/svg" xmlns:xlink="http://www.w3.org/1999/xlink" viewBox="0 0 107 104.26"><defs><style>.cls-1{fill:url(#Degradado_sin_nombre_25);}.cls-2{fill:#4dd0e0;}</style><linearGradient id="Degradado_sin_nombre_25" x1="53.59" y1="85.51" x2="53.59" y2="2.01" gradientUnits="userSpaceOnUse"><stop offset="0" stop-color="#cbf1f6"/><stop offset="1" stop-color="#fff"/></linearGradient></defs><g id="Capa_2" data-name="Capa 2"><g id="CONTENIDO"><path class="cls-1" d="M1.63,11.63V74.68L4.18,79H17.05l1.84,6.36h57.2L77.61,79l16-.18,4.69,6.54s7.81,1.5,7.27-5.24L95.89,63.45s6.9-9.67,4.9-19.3-8.53-11.22-8.53-11.22V11.63L89.74,8.18H54.24L53.59,2H40.68l-.77,6.54H4.54Z"/><path class="cls-2" d="M53.87,43.4A2.09,2.09,0,1,1,56,41.31a2.1,2.1,0,0,1-2.09,2.09ZM39.49,35.23a2.09,2.09,0,1,1,2.09-2.09,2.1,2.1,0,0,1-2.09,2.09ZM25.1,43.4a2.09,2.09,0,1,1,2.09-2.09A2.1,2.1,0,0,1,25.1,43.4ZM68.26,19.12a2.09,2.09,0,1,1-2.09,2.09,2.1,2.1,0,0,1,2.09-2.09Zm0,7.32a5.24,5.24,0,1,0-4.18-2.09l-8.58,12a5.21,5.21,0,0,0-5.18,1.14L44.6,34.24a5.62,5.62,0,0,0,.11-1.1,5.23,5.23,0,0,0-10.45,0,4.94,4.94,0,0,0,.12,1.1l-5.72,3.25a5.22,5.22,0,1,0-3.56,9,5.24,5.24,0,0,0,5.23-5.23,5,5,0,0,0-.12-1.1L35.93,37A5.21,5.21,0,0,0,43,37l5.73,3.24a5,5,0,0,0-.12,1.1,5.23,5.23,0,1,0,9.4-3.14l8.58-12a5.45,5.45,0,0,0,1.63.26Z"/><path class="cls-2" d="M75,84a.43.43,0,0,1-.43.43H18.8a.42.42,0,0,1-.42-.43V80.54H75V84Zm12.53-6.58H4.43a1.3,1.3,0,0,1-1.3-1.3V11.45a1.3,1.3,0,0,1,1.3-1.3h7.39a1.57,1.57,0,0,0,0-3.14H4.43A4.44,4.44,0,0,0,0,11.45V76.11a4.44,4.44,0,0,0,4.43,4.43H15.24V84a3.57,3.57,0,0,0,3.56,3.57H34.49L27.11,102a1.57,1.57,0,0,0,.68,2.11,1.65,1.65,0,0,0,.71.17,1.57,1.57,0,0,0,1.4-.86L38,87.56H55.34l8.12,15.84a1.57,1.57,0,0,0,1.4.86,1.65,1.65,0,0,0,.71-.17,1.57,1.57,0,0,0,.68-2.11L58.87,87.56H74.56A3.57,3.57,0,0,0,78.12,84V80.54h9.4a1.57,1.57,0,1,0,0-3.13Z"/><path class="cls-2" d="M41.12,3.93a.79.79,0,0,1,.79-.8h9.54a.79.79,0,0,1,.79.8V7H41.12V3.93Zm-23,6.22H88.93a1.3,1.3,0,0,1,1.3,1.3v14.9a1.57,1.57,0,1,0,3.13,0V11.45A4.44,4.44,0,0,0,88.93,7H55.38V3.93A3.93,3.93,0,0,0,51.45,0H41.91A3.94,3.94,0,0,0,38,3.93V7H18.09a1.57,1.57,0,0,0,0,3.14Z"/><path class="cls-2" d="M26.71,68.4H23.49V57.68h3.22V68.4ZM21.92,54.55a1.56,1.56,0,0,0-1.56,1.57V70a1.56,1.56,0,0,0,1.56,1.56h6.36A1.56,1.56,0,0,0,29.85,70V56.12a1.57,1.57,0,0,0-1.57-1.57Z"/><path class="cls-2" d="M41.1,68.4H37.88V49.67H41.1V68.4ZM36.31,46.54a1.57,1.57,0,0,0-1.57,1.57V70a1.56,1.56,0,0,0,1.57,1.56h6.36A1.56,1.56,0,0,0,44.23,70V48.11a1.56,1.56,0,0,0-1.56-1.57Z"/><path class="cls-2" d="M55.48,68.4H52.26V57.68h3.22V68.4ZM50.69,54.55a1.56,1.56,0,0,0-1.56,1.57V70a1.56,1.56,0,0,0,1.56,1.56h6.36A1.56,1.56,0,0,0,58.62,70V56.12a1.57,1.57,0,0,0-1.57-1.57Z"/><path class="cls-2" d="M65.08,63.8a1.56,1.56,0,0,0-1.57,1.56V70a1.56,1.56,0,0,0,1.57,1.56h6.36a1.57,1.57,0,1,0,0-3.13H66.65v-3a1.57,1.57,0,0,0-1.57-1.56Z"/><path class="cls-2" d="M102.45,84.31a2.82,2.82,0,0,1-3.85-1L90,68.29a22,22,0,0,0,2.54-1.24,20.92,20.92,0,0,0,2.34-1.59l8.65,15a2.81,2.81,0,0,1,.38,1.41,2.84,2.84,0,0,1-1.41,2.45ZM77.75,66.06a17.34,17.34,0,1,1,13.17-1.73,17.23,17.23,0,0,1-13.17,1.73ZM106.2,78.88l-9-15.57a20.51,20.51,0,1,0-20.27,5.78,20.79,20.79,0,0,0,5.34.71,20.44,20.44,0,0,0,4.61-.53l9,15.57a6,6,0,0,0,11.12-3,6,6,0,0,0-.8-3Z"/><path class="cls-2" d="M96.45,53.72A14.81,14.81,0,0,0,95.71,43a1.57,1.57,0,1,0-2.83,1.34,11.75,11.75,0,1,1-3.54-4.37,1.57,1.57,0,0,0,1.89-2.5A14.88,14.88,0,1,0,78.39,63.68a15.09,15.09,0,0,0,3.88.51A14.9,14.9,0,0,0,96.45,53.72Z"/></g></g></svg>