<svg xmlns="http://www.w3.org/2000/svg" xmlns:xlink="http://www.w3.org/1999/xlink" viewBox="0 0 103.86 104.26"><defs><style>.cls-1{fill:url(#Degradado_sin_nombre_25);}.cls-2{fill:url(#Degradado_sin_nombre_25-2);}.cls-3{fill:url(#Degradado_sin_nombre_25-3);}.cls-4{fill:#4dd0e0;}</style><linearGradient id="Degradado_sin_nombre_25" x1="51.93" y1="103.6" x2="51.93" y2="72.11" gradientUnits="userSpaceOnUse"><stop offset="0" stop-color="#cbf1f6"/><stop offset="1" stop-color="#fff"/></linearGradient><linearGradient id="Degradado_sin_nombre_25-2" x1="51.93" y1="32.15" x2="51.93" y2="0.65" xlink:href="#Degradado_sin_nombre_25"/><linearGradient id="Degradado_sin_nombre_25-3" x1="51.93" y1="67.74" x2="51.93" y2="36.25" xlink:href="#Degradado_sin_nombre_25"/></defs><g id="Capa_2" data-name="Capa 2"><g id="CONTENIDO"><path class="cls-1" d="M89,74.05H24.39a15.75,15.75,0,1,0,0,27.61H89a13.81,13.81,0,0,0,0-27.61Z"/><path class="cls-2" d="M16.82,32.15a15.74,15.74,0,0,0,7.57-1.94H89A13.81,13.81,0,0,0,89,2.6H24.39a15.75,15.75,0,1,0-7.57,29.55Z"/><path class="cls-3" d="M87,36.25a15.57,15.57,0,0,0-7.56,1.94H14.88a13.81,13.81,0,1,0,0,27.61h64.6A15.57,15.57,0,0,0,87,67.74a15.75,15.75,0,1,0,0-31.49Z"/><path class="cls-4" d="M16.4,32.8a16.25,16.25,0,0,0,7.88-2h65.2A14.38,14.38,0,0,0,89.48,2H58.65a1.53,1.53,0,0,0,0,3.05H89.48a11.34,11.34,0,1,1,0,22.67H28.25a16.38,16.38,0,0,0,0-22.67H51.56a1.53,1.53,0,0,0,0-3.05H24.28A16.25,16.25,0,0,0,16.4,0a16.4,16.4,0,0,0,0,32.8ZM16.4,3A13.36,13.36,0,1,1,3,16.4,13.38,13.38,0,0,1,16.4,3Z"/><path class="cls-4" d="M16.4,104.26a16.36,16.36,0,0,0,7.88-2h65.2a14.38,14.38,0,0,0,0-28.76H24.28a16.26,16.26,0,0,0-7.88-2,16.41,16.41,0,0,0,0,32.81ZM89.48,76.52a11.34,11.34,0,1,1,0,22.67H28.24a16.38,16.38,0,0,0,0-22.67Zm-73.08-2A13.36,13.36,0,1,1,3,87.86,13.38,13.38,0,0,1,16.4,74.5Z"/><path class="cls-4" d="M15.05,13v9.29a1.52,1.52,0,0,0,3,0V10.56a1.54,1.54,0,0,0-.71-1.29,1.51,1.51,0,0,0-1.47-.08l-2,1A1.52,1.52,0,0,0,15.05,13Z"/><path class="cls-4" d="M82.79,57a1.5,1.5,0,0,0-.29,1.65,1.52,1.52,0,0,0,1.39.91H91a1.52,1.52,0,0,0,0-3h-3.6l3.09-3.28,0,0A5.41,5.41,0,0,0,92,49.13a4.89,4.89,0,0,0-1.84-3.42,4.58,4.58,0,0,0-3.87-.89,5.57,5.57,0,0,0-3.75,2.8,1.52,1.52,0,0,0,2.68,1.44,2.52,2.52,0,0,1,1.68-1.26,1.59,1.59,0,0,1,1.36.28,1.83,1.83,0,0,1,.7,1.3,2.4,2.4,0,0,1-.67,1.77Z"/><path class="cls-4" d="M17.53,92.23H14.48a1.52,1.52,0,0,0,0,3h3.05A4.47,4.47,0,0,0,22,90.8a4.38,4.38,0,0,0-1.12-2.94,4.43,4.43,0,0,0,1.12-3,4.47,4.47,0,0,0-4.47-4.47H14.48a1.52,1.52,0,1,0,0,3h3.05a1.43,1.43,0,0,1,0,2.85H14.48a1.53,1.53,0,0,0,0,3h3.05a1.43,1.43,0,0,1,0,2.85Z"/><path class="cls-4" d="M14.38,66.51h65.2A16.4,16.4,0,0,0,103.39,56a1.52,1.52,0,1,0-3-.72,13.36,13.36,0,1,1,0-6.38,1.52,1.52,0,0,0,3-.72A16.4,16.4,0,0,0,79.58,37.75H14.38a14.38,14.38,0,0,0,0,28.76Zm0-25.72H75.62a16.38,16.38,0,0,0,0,22.68H14.38a11.34,11.34,0,0,1,0-22.68Z"/><path class="cls-4" d="M40,13.8H66.07a1.74,1.74,0,1,0,0-3.48H40a1.74,1.74,0,1,0,0,3.48Z"/><path class="cls-4" d="M40,22.48H55.65a1.74,1.74,0,1,0,0-3.47H40a1.74,1.74,0,1,0,0,3.47Z"/><path class="cls-4" d="M90.4,19H64.34a1.74,1.74,0,1,0,0,3.47H90.4a1.74,1.74,0,1,0,0-3.47Z"/><path class="cls-4" d="M40,85.25H66.07a1.74,1.74,0,1,0,0-3.48H40a1.74,1.74,0,1,0,0,3.48Z"/><path class="cls-4" d="M40,93.94H55.65a1.74,1.74,0,0,0,0-3.48H40a1.74,1.74,0,1,0,0,3.48Z"/><path class="cls-4" d="M90.4,90.46H64.34a1.74,1.74,0,0,0,0,3.48H90.4a1.74,1.74,0,0,0,0-3.48Z"/><path class="cls-4" d="M13.08,49.38H39.14a1.74,1.74,0,0,0,0-3.48H13.08a1.74,1.74,0,1,0,0,3.48Z"/><path class="cls-4" d="M13.08,58.07H28.71a1.74,1.74,0,1,0,0-3.48H13.08a1.74,1.74,0,0,0,0,3.48Z"/><path class="cls-4" d="M63.47,54.59H37.4a1.74,1.74,0,0,0,0,3.48H63.47a1.74,1.74,0,0,0,0-3.48Z"/></g></g></svg>