<svg xmlns="http://www.w3.org/2000/svg" viewBox="0 0 521.97 351.93"><defs><style>.cls-1{fill:#36afea;}.cls-2{fill:#94e3ec;}.cls-3{fill:#ebfafc;}.cls-4{fill:none;stroke:#ffdca8;stroke-linecap:round;stroke-miterlimit:10;stroke-width:3px;}.cls-5{fill:#ffdca8;}</style></defs><g id="Capa_2" data-name="Capa 2"><g id="CONTENIDO"><path class="cls-1" d="M411.35,338.33l-4-5.63a12.7,12.7,0,0,1-1.4.08h-4.7v5.55H399.4v-17.5H406a7.9,7.9,0,0,1,5.25,1.6,5.46,5.46,0,0,1,1.9,4.4,5.68,5.68,0,0,1-1,3.46,5.78,5.78,0,0,1-3,2l4.27,6Zm-1.48-8.28a4.49,4.49,0,0,0,0-6.48,6.08,6.08,0,0,0-4-1.14h-4.65v8.77h4.65A6,6,0,0,0,409.87,330.05Z"/><path class="cls-1" d="M428.55,332.3h-11a4.72,4.72,0,0,0,1.57,3.32,5.23,5.23,0,0,0,3.6,1.26,5.68,5.68,0,0,0,2.25-.44,4.91,4.91,0,0,0,1.78-1.29l1,1.15a5.66,5.66,0,0,1-2.19,1.6,7.37,7.37,0,0,1-2.89.55,7.28,7.28,0,0,1-3.59-.86,6.14,6.14,0,0,1-2.43-2.39,6.71,6.71,0,0,1-.88-3.45,7,7,0,0,1,.84-3.45,6.1,6.1,0,0,1,2.3-2.37,6.75,6.75,0,0,1,6.56,0,6,6,0,0,1,2.28,2.36,7.11,7.11,0,0,1,.82,3.46ZM419,327.82a4.7,4.7,0,0,0-1.46,3.16h9.32a4.74,4.74,0,0,0-1.46-3.16,4.81,4.81,0,0,0-6.4,0Z"/><path class="cls-1" d="M432.66,338a6.7,6.7,0,0,1-2.29-1.16l.8-1.4a6.65,6.65,0,0,0,2.08,1.06,8.09,8.09,0,0,0,2.6.41,4.92,4.92,0,0,0,2.66-.56,1.79,1.79,0,0,0,.86-1.59,1.43,1.43,0,0,0-.47-1.13,3.12,3.12,0,0,0-1.2-.63,17.27,17.27,0,0,0-1.93-.41,23.67,23.67,0,0,1-2.57-.61,3.85,3.85,0,0,1-1.67-1.07,2.94,2.94,0,0,1-.68-2.07,3.24,3.24,0,0,1,1.37-2.7,6.18,6.18,0,0,1,3.83-1.05,9.72,9.72,0,0,1,2.55.34,7.06,7.06,0,0,1,2.1.88l-.78,1.43a6.62,6.62,0,0,0-3.87-1.13,4.52,4.52,0,0,0-2.57.6,1.85,1.85,0,0,0-.86,1.58,1.54,1.54,0,0,0,.49,1.2,3,3,0,0,0,1.21.66,19.7,19.7,0,0,0,2,.44,23.52,23.52,0,0,1,2.53.6,3.73,3.73,0,0,1,1.62,1,2.83,2.83,0,0,1,.68,2,3.18,3.18,0,0,1-1.44,2.74,6.81,6.81,0,0,1-4,1A10,10,0,0,1,432.66,338Z"/><path class="cls-1" d="M456.27,325.18v13.15h-1.7v-2.4a4.9,4.9,0,0,1-1.92,1.86,5.82,5.82,0,0,1-2.8.66,5.07,5.07,0,0,1-5.55-5.65v-7.62h1.77v7.45a4.38,4.38,0,0,0,1,3.15,3.81,3.81,0,0,0,2.92,1.07,4.32,4.32,0,0,0,3.28-1.26,4.88,4.88,0,0,0,1.2-3.51v-6.9Z"/><path class="cls-1" d="M461.25,319.78H463v18.55h-1.77Z"/><path class="cls-1" d="M475,337.53a3.47,3.47,0,0,1-1.24.69,5.27,5.27,0,0,1-1.54.23,3.85,3.85,0,0,1-2.85-1,3.79,3.79,0,0,1-1-2.82v-7.95H466v-1.5h2.35V322.3h1.78v2.88h4v1.5h-4v7.85a2.5,2.5,0,0,0,.58,1.79,2.27,2.27,0,0,0,1.69.61,3.15,3.15,0,0,0,1.06-.18,2.51,2.51,0,0,0,.89-.5Z"/><path class="cls-1" d="M486.72,326.37a5,5,0,0,1,1.38,3.81v8.15h-1.7v-2.05a4.06,4.06,0,0,1-1.77,1.6,6.18,6.18,0,0,1-2.76.57,5.41,5.41,0,0,1-3.5-1.05,3.61,3.61,0,0,1-.09-5.47,6,6,0,0,1,3.87-1h4.17v-.8a3.37,3.37,0,0,0-.95-2.58,3.88,3.88,0,0,0-2.77-.89,7.12,7.12,0,0,0-2.4.41,6.19,6.19,0,0,0-2,1.14l-.8-1.33a7.3,7.3,0,0,1,2.4-1.31,9.3,9.3,0,0,1,2.95-.46A5.56,5.56,0,0,1,486.72,326.37Zm-2,10a4.09,4.09,0,0,0,1.6-2v-2.15H482.2c-2.25,0-3.38.78-3.38,2.35a2.14,2.14,0,0,0,.88,1.81,4,4,0,0,0,2.45.66A4.74,4.74,0,0,0,484.72,336.37Z"/><path class="cls-1" d="M505,319.78v18.55h-1.7v-2.6a5.38,5.38,0,0,1-2.11,2,6.16,6.16,0,0,1-3,.7,6.62,6.62,0,0,1-3.35-.85,6,6,0,0,1-2.35-2.37,7.53,7.53,0,0,1,0-7,5.87,5.87,0,0,1,2.35-2.36,6.72,6.72,0,0,1,3.35-.84,6.23,6.23,0,0,1,2.88.66,5.47,5.47,0,0,1,2.12,1.94v-7.9Zm-4.14,16.46a4.49,4.49,0,0,0,1.75-1.81,5.5,5.5,0,0,0,.64-2.68,5.44,5.44,0,0,0-.64-2.67,4.43,4.43,0,0,0-1.75-1.81,4.85,4.85,0,0,0-2.48-.64,4.92,4.92,0,0,0-2.52.64,4.49,4.49,0,0,0-1.75,1.81,5.54,5.54,0,0,0-.63,2.67,5.61,5.61,0,0,0,.63,2.68,4.55,4.55,0,0,0,1.75,1.81,4.92,4.92,0,0,0,2.52.64A4.85,4.85,0,0,0,500.83,336.24Z"/><path class="cls-1" d="M511.87,337.59a6.19,6.19,0,0,1-2.4-2.39,7.2,7.2,0,0,1,0-6.9,6.21,6.21,0,0,1,2.4-2.37,7.33,7.33,0,0,1,6.85,0,6.19,6.19,0,0,1,2.39,2.37,7.35,7.35,0,0,1,0,6.9,6.17,6.17,0,0,1-2.39,2.39,7.25,7.25,0,0,1-6.85,0Zm5.94-1.35a4.47,4.47,0,0,0,1.74-1.81,5.72,5.72,0,0,0,.62-2.68,5.65,5.65,0,0,0-.62-2.67,4.4,4.4,0,0,0-1.74-1.81,5.26,5.26,0,0,0-5,0,4.49,4.49,0,0,0-1.75,1.81,5.54,5.54,0,0,0-.63,2.67,5.61,5.61,0,0,0,.63,2.68,4.55,4.55,0,0,0,1.75,1.81,5.26,5.26,0,0,0,5,0Z"/><path class="cls-1" d="M2.76,337.85A6.72,6.72,0,0,1,0,336.2l.73-1.42a7.05,7.05,0,0,0,2.52,1.54,9.24,9.24,0,0,0,3.25.58A5.93,5.93,0,0,0,10,336a2.65,2.65,0,0,0,1.17-2.24,2.2,2.2,0,0,0-.64-1.67,4.11,4.11,0,0,0-1.56-1,24.84,24.84,0,0,0-2.57-.74,29.92,29.92,0,0,1-3.15-1,5.13,5.13,0,0,1-2-1.42,3.73,3.73,0,0,1-.83-2.57,4.3,4.3,0,0,1,.7-2.41,4.69,4.69,0,0,1,2.15-1.74,8.65,8.65,0,0,1,3.6-.65,10.74,10.74,0,0,1,2.93.41,8.66,8.66,0,0,1,2.49,1.14l-.62,1.47a8.77,8.77,0,0,0-2.35-1.08,8.52,8.52,0,0,0-2.45-.37,5.69,5.69,0,0,0-3.47.89,2.77,2.77,0,0,0-1.16,2.29,2.28,2.28,0,0,0,.64,1.69,4.14,4.14,0,0,0,1.6,1c.64.23,1.5.47,2.59.74a24.56,24.56,0,0,1,3.11.94,5,5,0,0,1,2,1.4A3.69,3.69,0,0,1,13,333.7a4.3,4.3,0,0,1-.72,2.42,4.75,4.75,0,0,1-2.18,1.72,9.11,9.11,0,0,1-3.63.64A11.17,11.17,0,0,1,2.76,337.85Z"/><path class="cls-1" d="M18.63,337.59a6.19,6.19,0,0,1-2.4-2.39,7.2,7.2,0,0,1,0-6.9,6.21,6.21,0,0,1,2.4-2.37,6.83,6.83,0,0,1,3.42-.85,6.9,6.9,0,0,1,3.43.85,6.16,6.16,0,0,1,2.38,2.37,7.28,7.28,0,0,1,0,6.9,6.14,6.14,0,0,1-2.38,2.39,6.8,6.8,0,0,1-3.43.86A6.74,6.74,0,0,1,18.63,337.59Zm5.93-1.35a4.47,4.47,0,0,0,1.74-1.81,5.61,5.61,0,0,0,.63-2.68,5.54,5.54,0,0,0-.63-2.67,4.4,4.4,0,0,0-1.74-1.81,5.24,5.24,0,0,0-5,0,4.43,4.43,0,0,0-1.75,1.81,5.44,5.44,0,0,0-.64,2.67,5.5,5.5,0,0,0,.64,2.68,4.49,4.49,0,0,0,1.75,1.81,5.24,5.24,0,0,0,5,0Z"/><path class="cls-1" d="M32.35,319.78h1.78v18.55H32.35Z"/><path class="cls-1" d="M39.05,321.93a1.23,1.23,0,0,1,0-1.78,1.25,1.25,0,0,1,.92-.37,1.29,1.29,0,0,1,.93.36,1.15,1.15,0,0,1,.37.86,1.31,1.31,0,0,1-2.22.93Zm0,3.25h1.78v13.15H39.07Z"/><path class="cls-1" d="M47.76,337.6a6.13,6.13,0,0,1-2.41-2.38,6.94,6.94,0,0,1-.88-3.47,6.86,6.86,0,0,1,.88-3.45,6.24,6.24,0,0,1,2.41-2.37,7.07,7.07,0,0,1,3.49-.85,6.79,6.79,0,0,1,3,.66,5.06,5.06,0,0,1,2.11,1.94l-1.33.9a4.06,4.06,0,0,0-1.65-1.46,4.8,4.8,0,0,0-2.17-.49,5.09,5.09,0,0,0-2.56.64,4.43,4.43,0,0,0-1.78,1.81,5.93,5.93,0,0,0,0,5.36,4.47,4.47,0,0,0,1.78,1.8,5.09,5.09,0,0,0,2.56.64,4.93,4.93,0,0,0,2.17-.48A4,4,0,0,0,55.07,335l1.33.9a5.05,5.05,0,0,1-2.13,1.94,6.76,6.76,0,0,1-3,.66A7.07,7.07,0,0,1,47.76,337.6Z"/><path class="cls-1" d="M59.85,321.93a1.23,1.23,0,0,1,0-1.78,1.25,1.25,0,0,1,.92-.37,1.29,1.29,0,0,1,.93.36,1.15,1.15,0,0,1,.37.86,1.31,1.31,0,0,1-2.22.93Zm0,3.25h1.78v13.15H59.87Z"/><path class="cls-1" d="M73.52,337.53a3.34,3.34,0,0,1-1.23.69,5.27,5.27,0,0,1-1.54.23,3.85,3.85,0,0,1-2.85-1,3.79,3.79,0,0,1-1-2.82v-7.95H64.55v-1.5H66.9V322.3h1.77v2.88h4v1.5h-4v7.85a2.51,2.51,0,0,0,.59,1.79,2.27,2.27,0,0,0,1.69.61,3.15,3.15,0,0,0,1.06-.18,2.51,2.51,0,0,0,.89-.5Z"/><path class="cls-1" d="M88.6,325.18v13.15H86.9v-2.4A4.86,4.86,0,0,1,85,337.79a5.79,5.79,0,0,1-2.8.66,5.08,5.08,0,0,1-5.55-5.65v-7.62H78.4v7.45a4.42,4.42,0,0,0,1,3.15,3.85,3.85,0,0,0,2.93,1.07,4.3,4.3,0,0,0,3.27-1.26,4.88,4.88,0,0,0,1.2-3.51v-6.9Z"/><path class="cls-1" d="M105.57,319.78v18.55h-1.7v-2.6a5.32,5.32,0,0,1-2.11,2,6.13,6.13,0,0,1-3,.7,6.65,6.65,0,0,1-3.35-.85,6,6,0,0,1-2.35-2.37,7.53,7.53,0,0,1,0-7,5.93,5.93,0,0,1,2.35-2.36,6.75,6.75,0,0,1,3.35-.84,6.24,6.24,0,0,1,2.89.66,5.52,5.52,0,0,1,2.11,1.94v-7.9Zm-4.13,16.46a4.55,4.55,0,0,0,1.75-1.81,5.61,5.61,0,0,0,.63-2.68,5.54,5.54,0,0,0-.63-2.67,4.49,4.49,0,0,0-1.75-1.81,5.2,5.2,0,0,0-5,0,4.37,4.37,0,0,0-1.75,1.81,5.44,5.44,0,0,0-.64,2.67,5.5,5.5,0,0,0,.64,2.68,4.43,4.43,0,0,0,1.75,1.81,5.2,5.2,0,0,0,5,0Z"/><circle class="cls-2" cx="260.97" cy="175.97" r="175.97"/><path class="cls-3" d="M164.51,142.66a222.83,222.83,0,0,1,103.43,28.11C318.6,199,371.45,199.13,404,189.78c.87-.24,1.7-.5,2.51-.75.38-4.31.59-8.66.59-13.06a146.16,146.16,0,0,0-289.48-28.65A187.68,187.68,0,0,1,164.51,142.66Z"/><path class="cls-3" d="M361.84,216.24a214.8,214.8,0,0,1-104.13-27.13c-58.27-32.5-116-27.69-142.75-19.25-.08,2-.13,4.06-.13,6.11a146.16,146.16,0,0,0,287.85,35.85A182.49,182.49,0,0,1,361.84,216.24Z"/><path class="cls-1" d="M173.66,97.83h1.85v17.5h-1.85Z"/><path class="cls-1" d="M191.47,103.52a5.57,5.57,0,0,1,1.47,4.18v7.63h-1.78v-7.45a4.39,4.39,0,0,0-1-3.13,3.89,3.89,0,0,0-2.93-1.07,4.49,4.49,0,0,0-3.36,1.26,4.76,4.76,0,0,0-1.24,3.49v6.9h-1.77V102.18h1.7v2.42a4.88,4.88,0,0,1,2-1.86,6.46,6.46,0,0,1,3-.66A5.34,5.34,0,0,1,191.47,103.52Z"/><path class="cls-1" d="M200.37,98.78a2.62,2.62,0,0,0-.58,1.85v1.55h4.05v1.5h-4v11.65h-1.78V103.68h-2.35v-1.5h2.35v-1.63a3.89,3.89,0,0,1,1-2.85,3.94,3.94,0,0,1,2.94-1,4.72,4.72,0,0,1,1.45.22,3.25,3.25,0,0,1,1.17.61l-.6,1.32a3,3,0,0,0-1.95-.65A2.28,2.28,0,0,0,200.37,98.78Z"/><path class="cls-1" d="M208,114.59a6.33,6.33,0,0,1-2.4-2.39,7.28,7.28,0,0,1,0-6.9,6.35,6.35,0,0,1,2.4-2.37,7.33,7.33,0,0,1,6.85,0,6.19,6.19,0,0,1,2.39,2.37,7.35,7.35,0,0,1,0,6.9,6.17,6.17,0,0,1-2.39,2.39,7.25,7.25,0,0,1-6.85,0Zm5.94-1.35a4.47,4.47,0,0,0,1.74-1.81,5.72,5.72,0,0,0,.62-2.68,5.65,5.65,0,0,0-.62-2.67,4.4,4.4,0,0,0-1.74-1.81,5.26,5.26,0,0,0-5,0,4.49,4.49,0,0,0-1.75,1.81,5.54,5.54,0,0,0-.63,2.67,5.61,5.61,0,0,0,.63,2.68,4.55,4.55,0,0,0,1.75,1.81,5.26,5.26,0,0,0,5,0Z"/><path class="cls-1" d="M225.25,102.75a6.3,6.3,0,0,1,3.06-.67v1.72l-.42,0a4.18,4.18,0,0,0-3.25,1.27,5.05,5.05,0,0,0-1.18,3.58v6.7h-1.77V102.18h1.7v2.57A4.25,4.25,0,0,1,225.25,102.75Z"/><path class="cls-1" d="M251.8,103.5a5.73,5.73,0,0,1,1.41,4.2v7.63h-1.77v-7.45a4.47,4.47,0,0,0-1-3.13,3.62,3.62,0,0,0-2.79-1.07,4.17,4.17,0,0,0-3.22,1.26,4.9,4.9,0,0,0-1.18,3.49v6.9h-1.77v-7.45a4.47,4.47,0,0,0-1-3.13,3.65,3.65,0,0,0-2.81-1.07,4.23,4.23,0,0,0-3.22,1.26,4.9,4.9,0,0,0-1.18,3.49v6.9h-1.78V102.18h1.7v2.4a4.76,4.76,0,0,1,1.95-1.85,6.06,6.06,0,0,1,2.88-.65,5.59,5.59,0,0,1,2.86.7,4.32,4.32,0,0,1,1.81,2.07,5.11,5.11,0,0,1,2.09-2,6.33,6.33,0,0,1,3.11-.74A5.23,5.23,0,0,1,251.8,103.5Z"/><path class="cls-1" d="M266.59,103.37a5,5,0,0,1,1.37,3.81v8.15h-1.7v-2a4.09,4.09,0,0,1-1.76,1.6,6.24,6.24,0,0,1-2.76.57,5.39,5.39,0,0,1-3.5-1,3.61,3.61,0,0,1-.09-5.47,5.94,5.94,0,0,1,3.86-1h4.18v-.8a3.37,3.37,0,0,0-.95-2.58,3.9,3.9,0,0,0-2.78-.89,7.2,7.2,0,0,0-2.4.41,6.14,6.14,0,0,0-2,1.14l-.8-1.33a7.11,7.11,0,0,1,2.4-1.31,9.25,9.25,0,0,1,2.95-.46A5.58,5.58,0,0,1,266.59,103.37Zm-2,10a4.14,4.14,0,0,0,1.6-2v-2.15h-4.13c-2.25,0-3.37.78-3.37,2.35a2.16,2.16,0,0,0,.87,1.81,4,4,0,0,0,2.45.66A4.77,4.77,0,0,0,264.59,113.37Z"/><path class="cls-1" d="M274.8,114.6a6.06,6.06,0,0,1-2.41-2.38,6.83,6.83,0,0,1-.88-3.47,6.76,6.76,0,0,1,.88-3.45,6.17,6.17,0,0,1,2.41-2.37,7,7,0,0,1,3.49-.85,6.75,6.75,0,0,1,3,.66,5,5,0,0,1,2.12,1.94l-1.33.9a4.06,4.06,0,0,0-1.65-1.46,4.83,4.83,0,0,0-2.17-.49,5.13,5.13,0,0,0-2.57.64,4.41,4.41,0,0,0-1.77,1.81,5.93,5.93,0,0,0,0,5.36,4.45,4.45,0,0,0,1.77,1.8,5.13,5.13,0,0,0,2.57.64,5,5,0,0,0,2.17-.48,4,4,0,0,0,1.65-1.45l1.33.9a5.05,5.05,0,0,1-2.13,1.94,6.79,6.79,0,0,1-3,.66A7,7,0,0,1,274.8,114.6Z"/><path class="cls-1" d="M286.89,98.93a1.26,1.26,0,0,1,.92-2.15,1.29,1.29,0,0,1,.93.36,1.15,1.15,0,0,1,.37.86,1.26,1.26,0,0,1-1.3,1.3A1.24,1.24,0,0,1,286.89,98.93Zm0,3.25h1.78v13.15h-1.78Z"/><path class="cls-1" d="M295.59,114.59a6.19,6.19,0,0,1-2.4-2.39,7.2,7.2,0,0,1,0-6.9,6.21,6.21,0,0,1,2.4-2.37,7.33,7.33,0,0,1,6.85,0,6.16,6.16,0,0,1,2.38,2.37,7.28,7.28,0,0,1,0,6.9,6.14,6.14,0,0,1-2.38,2.39,7.25,7.25,0,0,1-6.85,0Zm5.93-1.35a4.47,4.47,0,0,0,1.74-1.81,5.61,5.61,0,0,0,.63-2.68,5.54,5.54,0,0,0-.63-2.67,4.4,4.4,0,0,0-1.74-1.81,5.24,5.24,0,0,0-5,0,4.43,4.43,0,0,0-1.75,1.81,5.44,5.44,0,0,0-.64,2.67,5.5,5.5,0,0,0,.64,2.68,4.49,4.49,0,0,0,1.75,1.81,5.24,5.24,0,0,0,5,0Z"/><path class="cls-1" d="M320,103.52a5.61,5.61,0,0,1,1.46,4.18v7.63h-1.77v-7.45a4.39,4.39,0,0,0-1-3.13,3.87,3.87,0,0,0-2.92-1.07,4.52,4.52,0,0,0-3.37,1.26,4.79,4.79,0,0,0-1.23,3.49v6.9h-1.78V102.18H311v2.42a4.88,4.88,0,0,1,2-1.86,6.49,6.49,0,0,1,3-.66A5.38,5.38,0,0,1,320,103.52Z"/><path class="cls-1" d="M337.74,109.3h-11a4.72,4.72,0,0,0,1.57,3.32,5.23,5.23,0,0,0,3.6,1.26,5.68,5.68,0,0,0,2.25-.44,4.91,4.91,0,0,0,1.78-1.29l1,1.15a5.66,5.66,0,0,1-2.19,1.6,7.37,7.37,0,0,1-2.89.55,7.25,7.25,0,0,1-3.59-.86,6.14,6.14,0,0,1-2.43-2.39,6.71,6.71,0,0,1-.88-3.45,7,7,0,0,1,.84-3.45,6.1,6.1,0,0,1,2.3-2.37,6.75,6.75,0,0,1,6.56,0,6,6,0,0,1,2.28,2.36,7.11,7.11,0,0,1,.82,3.46Zm-9.54-4.48a4.7,4.7,0,0,0-1.46,3.16h9.32a4.74,4.74,0,0,0-1.46-3.16,4.81,4.81,0,0,0-6.4,0Z"/><path class="cls-1" d="M341.85,115a6.7,6.7,0,0,1-2.29-1.16l.8-1.4a6.71,6.71,0,0,0,2.07,1.06,8.17,8.17,0,0,0,2.6.41,4.94,4.94,0,0,0,2.67-.56,1.79,1.79,0,0,0,.86-1.59,1.4,1.4,0,0,0-.48-1.13,3,3,0,0,0-1.19-.63,17.27,17.27,0,0,0-1.93-.41,23.11,23.11,0,0,1-2.57-.61,3.85,3.85,0,0,1-1.67-1.07,2.94,2.94,0,0,1-.69-2.07,3.25,3.25,0,0,1,1.38-2.7,6.18,6.18,0,0,1,3.83-1,9.7,9.7,0,0,1,2.54.34,7.13,7.13,0,0,1,2.11.88l-.78,1.43a6.62,6.62,0,0,0-3.87-1.13,4.52,4.52,0,0,0-2.57.6,1.85,1.85,0,0,0-.86,1.58,1.54,1.54,0,0,0,.49,1.2,3,3,0,0,0,1.21.66,19.7,19.7,0,0,0,2,.44,22.69,22.69,0,0,1,2.52.6,3.71,3.71,0,0,1,1.63,1,2.83,2.83,0,0,1,.67,2,3.17,3.17,0,0,1-1.43,2.74,6.81,6.81,0,0,1-4,1A10,10,0,0,1,341.85,115Z"/><path class="cls-1" d="M214.46,253.06l-4-5.62a12.7,12.7,0,0,1-1.4.08h-4.7v5.54h-1.85v-17.5h6.55a8,8,0,0,1,5.25,1.6,5.45,5.45,0,0,1,1.9,4.4,5.65,5.65,0,0,1-1,3.47,5.71,5.71,0,0,1-3,2l4.28,6ZM213,244.79a4.53,4.53,0,0,0,0-6.49,6.11,6.11,0,0,0-4-1.14h-4.65v8.78H209A6.05,6.05,0,0,0,213,244.79Z"/><path class="cls-1" d="M231.66,247h-11a4.69,4.69,0,0,0,1.58,3.31,5.23,5.23,0,0,0,3.6,1.26,5.75,5.75,0,0,0,2.25-.43,4.87,4.87,0,0,0,1.77-1.29l1,1.15a5.61,5.61,0,0,1-2.19,1.6,7.28,7.28,0,0,1-2.88.55,7.36,7.36,0,0,1-3.59-.86,6.23,6.23,0,0,1-2.44-2.39,6.86,6.86,0,0,1-.87-3.45,7,7,0,0,1,.83-3.45,6.12,6.12,0,0,1,2.3-2.38,6.77,6.77,0,0,1,6.57,0,6.09,6.09,0,0,1,2.27,2.37,7.11,7.11,0,0,1,.83,3.46Zm-9.54-4.49a4.77,4.77,0,0,0-1.46,3.17H230a4.78,4.78,0,0,0-1.47-3.17,4.84,4.84,0,0,0-6.4,0Z"/><path class="cls-1" d="M247.49,239.91v11.56a6.71,6.71,0,0,1-1.64,5,6.8,6.8,0,0,1-4.94,1.61,11,11,0,0,1-3.46-.54,7.16,7.16,0,0,1-2.66-1.48l.9-1.36A6.71,6.71,0,0,0,238,256a8.54,8.54,0,0,0,2.86.48,5,5,0,0,0,3.68-1.17,4.9,4.9,0,0,0,1.17-3.61V250a5.33,5.33,0,0,1-2.16,1.89,6.59,6.59,0,0,1-3,.65,7,7,0,0,1-3.37-.81,6,6,0,0,1-2.37-2.27,6.37,6.37,0,0,1-.86-3.32,6.3,6.3,0,0,1,.86-3.3,6,6,0,0,1,2.36-2.25,7.12,7.12,0,0,1,3.38-.8,6.67,6.67,0,0,1,3,.68,5.47,5.47,0,0,1,2.18,1.95v-2.53Zm-4.15,10.47a4.4,4.4,0,0,0,1.78-1.72,4.82,4.82,0,0,0,.64-2.5,4.75,4.75,0,0,0-.64-2.48,4.39,4.39,0,0,0-1.77-1.7,5.36,5.36,0,0,0-2.59-.62,5.29,5.29,0,0,0-2.56.61,4.33,4.33,0,0,0-1.78,1.69,5,5,0,0,0-.63,2.5,4.91,4.91,0,0,0,.63,2.5,4.46,4.46,0,0,0,1.78,1.72,5.29,5.29,0,0,0,2.56.61A5.4,5.4,0,0,0,243.34,250.38Z"/><path class="cls-1" d="M252.46,234.52h1.78v18.54h-1.78Z"/><path class="cls-1" d="M267.74,241.1a5,5,0,0,1,1.37,3.81v8.15h-1.7v-2a4.07,4.07,0,0,1-1.76,1.59,6.1,6.1,0,0,1-2.76.58,5.39,5.39,0,0,1-3.5-1.05,3.62,3.62,0,0,1-.09-5.48,5.94,5.94,0,0,1,3.86-1h4.18v-.8a3.39,3.39,0,0,0-.95-2.59,4,4,0,0,0-2.78-.89,7,7,0,0,0-2.4.42,6,6,0,0,0-2,1.13l-.8-1.32a6.94,6.94,0,0,1,2.4-1.31,9.25,9.25,0,0,1,3-.47A5.58,5.58,0,0,1,267.74,241.1Zm-2,10a4.14,4.14,0,0,0,1.6-2V247h-4.13c-2.25,0-3.37.78-3.37,2.34a2.16,2.16,0,0,0,.87,1.82,4,4,0,0,0,2.45.66A4.69,4.69,0,0,0,265.74,251.1Z"/><path class="cls-1" d="M274.4,252.73a6.53,6.53,0,0,1-2.29-1.17l.8-1.4a6.66,6.66,0,0,0,2.08,1.07,8.37,8.37,0,0,0,2.6.41,5,5,0,0,0,2.66-.56,1.81,1.81,0,0,0,.86-1.59,1.46,1.46,0,0,0-.47-1.14,3.25,3.25,0,0,0-1.2-.62,19.48,19.48,0,0,0-1.93-.42,21.52,21.52,0,0,1-2.57-.61,3.83,3.83,0,0,1-1.67-1.06,3,3,0,0,1-.68-2.08,3.25,3.25,0,0,1,1.37-2.7,6.18,6.18,0,0,1,3.83-1.05,10.16,10.16,0,0,1,2.55.34,7.06,7.06,0,0,1,2.1.89l-.78,1.43a6.62,6.62,0,0,0-3.87-1.13,4.52,4.52,0,0,0-2.57.6,1.84,1.84,0,0,0-.86,1.58,1.55,1.55,0,0,0,.49,1.2,3,3,0,0,0,1.21.66,20.16,20.16,0,0,0,2,.43c1.05.21,1.89.41,2.53.6a3.75,3.75,0,0,1,1.62,1,2.82,2.82,0,0,1,.68,2,3.19,3.19,0,0,1-1.44,2.74,6.88,6.88,0,0,1-4,1A10,10,0,0,1,274.4,252.73Z"/><path class="cls-1" d="M304.71,234.52v18.54H303v-2.59a5.45,5.45,0,0,1-2.11,2,6.19,6.19,0,0,1-3,.7,6.62,6.62,0,0,1-3.35-.85,6.08,6.08,0,0,1-2.35-2.37,7.53,7.53,0,0,1,0-6.95,6,6,0,0,1,2.35-2.37,6.72,6.72,0,0,1,3.35-.84,6.24,6.24,0,0,1,2.88.67,5.45,5.45,0,0,1,2.12,1.93v-7.89ZM300.57,251a4.51,4.51,0,0,0,1.75-1.82,5.44,5.44,0,0,0,.64-2.67,5.5,5.5,0,0,0-.64-2.68,4.55,4.55,0,0,0-1.75-1.81,5,5,0,0,0-2.48-.64,5,5,0,0,0-2.52.64,4.62,4.62,0,0,0-1.75,1.81,5.61,5.61,0,0,0-.63,2.68,5.54,5.54,0,0,0,.63,2.67,4.58,4.58,0,0,0,1.75,1.82,5,5,0,0,0,2.52.63A4.94,4.94,0,0,0,300.57,251Z"/><path class="cls-1" d="M321.11,247h-11a4.69,4.69,0,0,0,1.58,3.31,5.23,5.23,0,0,0,3.6,1.26,5.75,5.75,0,0,0,2.25-.43,4.87,4.87,0,0,0,1.77-1.29l1,1.15a5.61,5.61,0,0,1-2.19,1.6,7.28,7.28,0,0,1-2.88.55,7.36,7.36,0,0,1-3.59-.86,6.23,6.23,0,0,1-2.44-2.39,6.86,6.86,0,0,1-.87-3.45,7,7,0,0,1,.83-3.45,6.12,6.12,0,0,1,2.3-2.38,6.77,6.77,0,0,1,6.57,0,6.09,6.09,0,0,1,2.27,2.37,7.11,7.11,0,0,1,.83,3.46Zm-9.54-4.49a4.77,4.77,0,0,0-1.46,3.17h9.33a4.78,4.78,0,0,0-1.47-3.17,4.84,4.84,0,0,0-6.4,0Z"/><path class="cls-1" d="M228.65,269.91v11.56a6.71,6.71,0,0,1-1.64,5,6.8,6.8,0,0,1-4.94,1.61,11,11,0,0,1-3.46-.54A7.16,7.16,0,0,1,216,286l.9-1.36a6.71,6.71,0,0,0,2.31,1.33,8.54,8.54,0,0,0,2.86.48,5,5,0,0,0,3.68-1.17,4.9,4.9,0,0,0,1.17-3.61V280a5.33,5.33,0,0,1-2.16,1.89,6.59,6.59,0,0,1-3,.65,7,7,0,0,1-3.36-.81,6,6,0,0,1-2.38-2.27,6.47,6.47,0,0,1-.86-3.32,6.39,6.39,0,0,1,.86-3.3,6.08,6.08,0,0,1,2.36-2.25,7.12,7.12,0,0,1,3.38-.8,6.67,6.67,0,0,1,3,.68,5.47,5.47,0,0,1,2.18,1.95v-2.53Zm-4.15,10.47a4.49,4.49,0,0,0,1.79-1.72,4.91,4.91,0,0,0,.63-2.5,4.84,4.84,0,0,0-.63-2.48,4.48,4.48,0,0,0-1.78-1.7,5.36,5.36,0,0,0-2.59-.62,5.29,5.29,0,0,0-2.56.61,4.24,4.24,0,0,0-1.77,1.69,4.87,4.87,0,0,0-.64,2.5,4.82,4.82,0,0,0,.64,2.5,4.38,4.38,0,0,0,1.77,1.72,5.29,5.29,0,0,0,2.56.61A5.4,5.4,0,0,0,224.5,280.38Z"/><path class="cls-1" d="M245.07,277h-11a4.69,4.69,0,0,0,1.58,3.31,5.23,5.23,0,0,0,3.6,1.26,5.75,5.75,0,0,0,2.25-.43,4.87,4.87,0,0,0,1.77-1.29l1,1.15a5.65,5.65,0,0,1-2.18,1.6,7.9,7.9,0,0,1-6.48-.31,6.3,6.3,0,0,1-2.44-2.39,6.86,6.86,0,0,1-.87-3.45,7,7,0,0,1,.84-3.45,6,6,0,0,1,2.3-2.38,6.75,6.75,0,0,1,6.56,0,6.09,6.09,0,0,1,2.27,2.37,7.11,7.11,0,0,1,.83,3.46Zm-9.53-4.49a4.78,4.78,0,0,0-1.47,3.17h9.33a4.81,4.81,0,0,0-1.46-3.17,4.5,4.5,0,0,0-3.22-1.21A4.44,4.44,0,0,0,235.54,272.55Z"/><path class="cls-1" d="M249.19,282.73a6.53,6.53,0,0,1-2.29-1.17l.8-1.4a6.72,6.72,0,0,0,2.07,1.07,8.42,8.42,0,0,0,2.6.41,5.06,5.06,0,0,0,2.67-.56,1.81,1.81,0,0,0,.86-1.59,1.44,1.44,0,0,0-.48-1.14,3.1,3.1,0,0,0-1.2-.62,18.57,18.57,0,0,0-1.92-.42,21.75,21.75,0,0,1-2.58-.61,3.79,3.79,0,0,1-1.66-1.06,3,3,0,0,1-.69-2.08,3.26,3.26,0,0,1,1.38-2.7,6.15,6.15,0,0,1,3.82-1.05,10.16,10.16,0,0,1,2.55.34,7.06,7.06,0,0,1,2.1.89l-.77,1.43a6.67,6.67,0,0,0-3.88-1.13,4.5,4.5,0,0,0-2.56.6,1.84,1.84,0,0,0-.86,1.58,1.55,1.55,0,0,0,.49,1.2,2.89,2.89,0,0,0,1.21.66,20.16,20.16,0,0,0,2,.43q1.58.31,2.52.6a3.73,3.73,0,0,1,1.63,1,2.81,2.81,0,0,1,.67,2,3.2,3.2,0,0,1-1.43,2.74,6.88,6.88,0,0,1-4,1A10,10,0,0,1,249.19,282.73Z"/><path class="cls-1" d="M267.87,282.27a3.47,3.47,0,0,1-1.23.68,5,5,0,0,1-1.54.24,3.48,3.48,0,0,1-3.85-3.83v-7.95H258.9v-1.5h2.35V267H263v2.87h4v1.5h-4v7.86a2.48,2.48,0,0,0,.59,1.78,2.22,2.22,0,0,0,1.69.61,3.18,3.18,0,0,0,1.06-.17,2.67,2.67,0,0,0,.89-.5Z"/><path class="cls-1" d="M271.07,266.66a1.22,1.22,0,0,1-.37-.89,1.19,1.19,0,0,1,.37-.88,1.26,1.26,0,0,1,.93-.37,1.28,1.28,0,0,1,.92.36,1.16,1.16,0,0,1,.38.86,1.24,1.24,0,0,1-.38.92,1.32,1.32,0,0,1-1.85,0Zm0,3.25h1.77v13.15H271.1Z"/><path class="cls-1" d="M279.77,282.33a6.4,6.4,0,0,1-2.4-2.39,7.28,7.28,0,0,1,0-6.9,6.3,6.3,0,0,1,2.4-2.38,7.33,7.33,0,0,1,6.85,0A6.14,6.14,0,0,1,289,273a7.35,7.35,0,0,1,0,6.9,6.24,6.24,0,0,1-2.39,2.39,7.25,7.25,0,0,1-6.85,0Zm5.94-1.35a4.49,4.49,0,0,0,1.74-1.82,5.65,5.65,0,0,0,.62-2.67,5.72,5.72,0,0,0-.62-2.68,4.53,4.53,0,0,0-1.74-1.81,5.26,5.26,0,0,0-5,0,4.62,4.62,0,0,0-1.75,1.81,5.61,5.61,0,0,0-.63,2.68,5.54,5.54,0,0,0,.63,2.67,4.58,4.58,0,0,0,1.75,1.82,5.34,5.34,0,0,0,5,0ZM285,264.77h2.38l-4.05,3.09h-1.75Z"/><path class="cls-1" d="M304.13,271.25a5.61,5.61,0,0,1,1.47,4.19v7.62h-1.78v-7.45a4.38,4.38,0,0,0-1-3.12,3.86,3.86,0,0,0-2.93-1.08,4.5,4.5,0,0,0-3.36,1.27,4.73,4.73,0,0,0-1.24,3.48v6.9H293.5V269.91h1.7v2.43a4.88,4.88,0,0,1,2-1.86,6.46,6.46,0,0,1,3-.67A5.34,5.34,0,0,1,304.13,271.25Z"/><path class="cls-4" d="M18.83,307.53v-112A19.5,19.5,0,0,1,38.34,176H54.56"/><path class="cls-5" d="M57.45,182.38c-2,1-3.58,0-3.58-2.21v-8.4c0-2.2,1.61-3.2,3.58-2.22l9.25,4.63c2,1,2,2.59,0,3.57Z"/><path class="cls-4" d="M503.12,307.53v-112A19.51,19.51,0,0,0,483.61,176H467.39"/><path class="cls-5" d="M464.5,182.38c2,1,3.57,0,3.57-2.21v-8.4c0-2.2-1.61-3.2-3.57-2.22l-9.25,4.63c-2,1-2,2.59,0,3.57Z"/><path class="cls-5" d="M175.86,144.82c-.49,2.15.85,3.48,3,3l8.17-2c2.14-.51,2.73-2.31,1.31-4l-6.65-7.91c-1.42-1.68-3-1.31-3.48.83Z"/><line class="cls-4" x1="182" y1="142.91" x2="197.14" y2="205.92"/><path class="cls-5" d="M221.78,149c-1.25,1.81-.49,3.55,1.69,3.85l8.32,1.17c2.18.3,3.38-1.15,2.68-3.24L231.18,141c-.7-2.09-2.3-2.31-3.54-.5Z"/><line class="cls-4" x1="228.18" y1="149.44" x2="219.19" y2="213.62"/><path class="cls-5" d="M254.56,152.61c-1,2,0,3.58,2.21,3.58h8.4c2.2,0,3.2-1.61,2.21-3.58l-4.62-9.24c-1-2-2.59-2-3.58,0Z"/><line class="cls-4" x1="260.97" y1="152.19" x2="260.97" y2="216.99"/><path class="cls-5" d="M287.19,156.87c-.68,2.09.55,3.53,2.72,3.2l8.3-1.26c2.18-.33,2.92-2.07,1.65-3.87l-6-8.44c-1.26-1.8-2.86-1.56-3.53.53Z"/><line class="cls-4" x1="293.46" y1="155.49" x2="303.2" y2="219.55"/><path class="cls-5" d="M332,161.89c-1.31,1.77-.61,3.53,1.56,3.91l8.27,1.45c2.17.38,3.43-1,2.8-3.15l-3-9.9c-.63-2.11-2.21-2.38-3.52-.62Z"/><line class="cls-4" x1="338.35" y1="162.58" x2="327.17" y2="226.41"/></g></g></svg>