<svg xmlns="http://www.w3.org/2000/svg" xmlns:xlink="http://www.w3.org/1999/xlink" viewBox="0 0 1095.03 464.81"><defs><style>.cls-1{fill:url(#Degradado_sin_nombre_9);}.cls-2{fill:url(#Degradado_sin_nombre_74);}.cls-3{fill:url(#Degradado_sin_nombre_74-2);}.cls-4{fill:url(#Degradado_sin_nombre_74-3);}.cls-5{fill:#fff;}.cls-6{fill:url(#Degradado_sin_nombre_4);}.cls-7{fill:url(#Degradado_sin_nombre_5);}.cls-8{fill:url(#Degradado_sin_nombre_3);}.cls-9{fill:#ffe17d;}.cls-10{fill:#ff8087;}.cls-11{fill:#ffd164;}.cls-12{fill:#e6646e;}.cls-13{fill:#ffc350;}.cls-14{fill:#ffe0ce;}.cls-15{fill:#68c3ef;}.cls-16{fill:#4d4d4d;}.cls-17{fill:#3a9ca8;}.cls-18,.cls-19,.cls-20,.cls-21,.cls-22{fill:none;stroke-linecap:round;stroke-miterlimit:10;stroke-width:2px;}.cls-18,.cls-19,.cls-22{stroke:#ffdca8;}.cls-19{stroke-dasharray:3.75 5.63;}.cls-20,.cls-21{stroke:#4dd0e0;}.cls-21{stroke-dasharray:3.61 5.42;}.cls-22{stroke-dasharray:4 6;}.cls-23{fill:#0096a8;}.cls-24{fill:url(#Degradado_sin_nombre_67);}.cls-25{fill:url(#Degradado_sin_nombre_67-2);}.cls-26{fill:url(#Degradado_sin_nombre_67-3);}.cls-27{fill:url(#Degradado_sin_nombre_67-4);}.cls-28{fill:url(#Degradado_sin_nombre_67-5);}.cls-29{fill:url(#Degradado_sin_nombre_67-6);}.cls-30{fill:url(#Degradado_sin_nombre_74-4);}</style><linearGradient id="Degradado_sin_nombre_9" x1="501.44" y1="464.81" x2="501.44" gradientUnits="userSpaceOnUse"><stop offset="0" stop-color="#94e3ec"/><stop offset="1" stop-color="#71d9e6"/></linearGradient><linearGradient id="Degradado_sin_nombre_74" x1="375.72" y1="187.45" x2="375.72" y2="148.42" gradientUnits="userSpaceOnUse"><stop offset="0" stop-color="#71d9e6"/><stop offset="1" stop-color="#94e3ec"/></linearGradient><linearGradient id="Degradado_sin_nombre_74-2" x1="569.21" y1="187.45" x2="569.21" y2="148.42" xlink:href="#Degradado_sin_nombre_74"/><linearGradient id="Degradado_sin_nombre_74-3" x1="762.2" y1="187.45" x2="762.2" y2="148.42" xlink:href="#Degradado_sin_nombre_74"/><linearGradient id="Degradado_sin_nombre_4" x1="10.87" y1="315.17" x2="945.65" y2="315.17" gradientUnits="userSpaceOnUse"><stop offset="0" stop-color="#65c9eb"/><stop offset="0.11" stop-color="#5bc4eb"/><stop offset="0.41" stop-color="#47b8ea"/><stop offset="0.71" stop-color="#3ab1ea"/><stop offset="1" stop-color="#36afea"/></linearGradient><linearGradient id="Degradado_sin_nombre_5" x1="10.65" y1="409.5" x2="892.53" y2="409.5" gradientUnits="userSpaceOnUse"><stop offset="0" stop-color="#cad688"/><stop offset="0.17" stop-color="#dad26a"/><stop offset="0.38" stop-color="#eacf4d"/><stop offset="0.59" stop-color="#f6cc39"/><stop offset="0.8" stop-color="#fdcb2c"/><stop offset="1" stop-color="#ffca28"/></linearGradient><linearGradient id="Degradado_sin_nombre_3" x1="10.87" y1="354.98" x2="919.09" y2="354.98" gradientUnits="userSpaceOnUse"><stop offset="0" stop-color="#c49992"/><stop offset="0.14" stop-color="#d0877b"/><stop offset="0.36" stop-color="#e06f5e"/><stop offset="0.58" stop-color="#eb5e4a"/><stop offset="0.79" stop-color="#f2543d"/><stop offset="1" stop-color="#f45139"/></linearGradient><linearGradient id="Degradado_sin_nombre_67" x1="859.27" y1="260.4" x2="859.27" y2="184.87" gradientUnits="userSpaceOnUse"><stop offset="0" stop-color="#94e3ec"/><stop offset="1" stop-color="#fff"/></linearGradient><linearGradient id="Degradado_sin_nombre_67-2" x1="855.27" y1="144.36" x2="855.27" y2="68.54" xlink:href="#Degradado_sin_nombre_67"/><linearGradient id="Degradado_sin_nombre_67-3" x1="665.78" y1="186.22" x2="665.78" y2="111.67" xlink:href="#Degradado_sin_nombre_67"/><linearGradient id="Degradado_sin_nombre_67-4" x1="471.64" y1="187.05" x2="471.64" y2="111.87" xlink:href="#Degradado_sin_nombre_67"/><linearGradient id="Degradado_sin_nombre_67-5" x1="277.34" y1="186.95" x2="277.34" y2="111.47" xlink:href="#Degradado_sin_nombre_67"/><linearGradient id="Degradado_sin_nombre_67-6" x1="81.27" y1="186.22" x2="81.27" y2="111.67" xlink:href="#Degradado_sin_nombre_67"/><linearGradient id="Degradado_sin_nombre_74-4" x1="178.96" y1="187.45" x2="178.96" y2="148.42" xlink:href="#Degradado_sin_nombre_74"/></defs><g id="Capa_2" data-name="Capa 2"><g id="CONTENIDO"><path class="cls-1" d="M1001.88,229.11,847.57,2.65A6,6,0,0,0,836.68,6V30.78a8.15,8.15,0,0,1-8.15,8.14H6A5.94,5.94,0,0,0,0,44.86V420a5.94,5.94,0,0,0,5.94,5.94H828.53a8.14,8.14,0,0,1,8.15,8.14v24.83a5.94,5.94,0,0,0,10.89,3.29L1001.88,235.7A5.94,5.94,0,0,0,1001.88,229.11Z"/><path class="cls-2" d="M348.66,148.42V172h-2.28c-1.48,0-2.27.74-2.27,4.37h4.55v4h7.22s.12,6.53,5.8,6.53,5.48-5.84,5.48-5.84l24.73.1s.62,6.24,5.54,6.24,5.54-4.85,5.34-6.53l4.55-.3V169.34a6,6,0,0,0-4.65-4.05l-1.92-8s2.32-1.91-1.54-4.81h-9.1l-.59-4Z"/><path class="cls-3" d="M542.15,148.42V172h-2.27c-1.49,0-2.28.74-2.28,4.37h4.55v4h7.22s.12,6.53,5.8,6.53,5.48-5.84,5.48-5.84l24.73.1s.62,6.24,5.54,6.24,5.54-4.85,5.34-6.53l4.55-.3V169.34a6,6,0,0,0-4.65-4.05l-1.92-8s2.32-1.91-1.54-4.81h-9.1l-.59-4Z"/><path class="cls-4" d="M735.15,148.42V172h-2.28c-1.48,0-2.27.74-2.27,4.37h4.55v4h7.22s.12,6.53,5.8,6.53,5.48-5.84,5.48-5.84l24.73.1s.62,6.24,5.54,6.24,5.54-4.85,5.34-6.53l4.55-.3V169.34a6,6,0,0,0-4.65-4.05l-1.92-8s2.32-1.91-1.54-4.81h-9.1l-.6-4Z"/><path class="cls-5" d="M30.85,200.34a4.38,4.38,0,0,1,1.52,3.52,4.32,4.32,0,0,1-1.52,3.51,6.33,6.33,0,0,1-4.2,1.27H22.89v4.42H21.41v-14h5.24A6.33,6.33,0,0,1,30.85,200.34Zm-1.06,6.09a3.15,3.15,0,0,0,1.1-2.57,3.21,3.21,0,0,0-1.1-2.61,4.9,4.9,0,0,0-3.18-.91H22.89v7h3.72A4.84,4.84,0,0,0,29.79,206.43Z"/><path class="cls-5" d="M37.86,203a5.07,5.07,0,0,1,2.45-.54v1.38l-.34,0a3.36,3.36,0,0,0-2.6,1,4.06,4.06,0,0,0-.94,2.86v5.36H35V202.54h1.36v2.06A3.46,3.46,0,0,1,37.86,203Z"/><path class="cls-5" d="M44.33,212.47a5,5,0,0,1-1.92-1.91,5.79,5.79,0,0,1,0-5.52,5.08,5.08,0,0,1,1.92-1.9,5.86,5.86,0,0,1,5.48,0,5,5,0,0,1,1.91,1.9,5.87,5.87,0,0,1,0,5.52,4.94,4.94,0,0,1-1.91,1.91,5.79,5.79,0,0,1-5.48,0Zm4.75-1.08a3.54,3.54,0,0,0,1.39-1.45,4.83,4.83,0,0,0,0-4.28,3.6,3.6,0,0,0-1.39-1.45,4.22,4.22,0,0,0-4,0,3.69,3.69,0,0,0-1.4,1.45,4.74,4.74,0,0,0,0,4.28,3.62,3.62,0,0,0,1.4,1.45,4.22,4.22,0,0,0,4,0Z"/><path class="cls-5" d="M63.85,202.54l-4.68,10.52H57.71l-4.66-10.52h1.48l3.94,9,4-9Z"/><path class="cls-5" d="M74.71,208.24h-8.8a3.74,3.74,0,0,0,1.26,2.65,4.15,4.15,0,0,0,2.88,1,4.45,4.45,0,0,0,1.8-.35,3.79,3.79,0,0,0,1.42-1l.8.92a4.5,4.5,0,0,1-1.75,1.28,6.3,6.3,0,0,1-5.18-.25,5,5,0,0,1-2-1.91,5.39,5.39,0,0,1-.7-2.76,5.64,5.64,0,0,1,.67-2.76,4.94,4.94,0,0,1,1.84-1.9,5.18,5.18,0,0,1,2.63-.68,5.12,5.12,0,0,1,2.62.68A4.93,4.93,0,0,1,74.07,205a5.7,5.7,0,0,1,.66,2.77Zm-7.63-3.59a3.79,3.79,0,0,0-1.17,2.53h7.46a3.79,3.79,0,0,0-1.17-2.53,3.86,3.86,0,0,0-5.12,0Z"/><path class="cls-5" d="M86.79,208.24H78a3.74,3.74,0,0,0,1.26,2.65,4.15,4.15,0,0,0,2.88,1,4.45,4.45,0,0,0,1.8-.35,3.79,3.79,0,0,0,1.42-1l.8.92a4.5,4.5,0,0,1-1.75,1.28,6.3,6.3,0,0,1-5.18-.25,5,5,0,0,1-2-1.91,5.39,5.39,0,0,1-.7-2.76,5.64,5.64,0,0,1,.67-2.76,4.94,4.94,0,0,1,1.84-1.9,5.18,5.18,0,0,1,2.63-.68,5.12,5.12,0,0,1,2.62.68A4.93,4.93,0,0,1,86.15,205a5.7,5.7,0,0,1,.66,2.77Zm-7.63-3.59A3.79,3.79,0,0,0,78,207.18h7.46a3.79,3.79,0,0,0-1.17-2.53,3.86,3.86,0,0,0-5.12,0Z"/><path class="cls-5" d="M99.31,198.22v14.84H98V211a4.31,4.31,0,0,1-1.69,1.62,4.88,4.88,0,0,1-2.37.56,5.26,5.26,0,0,1-2.68-.68,4.77,4.77,0,0,1-1.88-1.9,6,6,0,0,1,0-5.56,4.81,4.81,0,0,1,1.88-1.89,5.46,5.46,0,0,1,2.68-.67,5,5,0,0,1,2.31.53,4.48,4.48,0,0,1,1.69,1.55v-6.32ZM96,211.39a3.62,3.62,0,0,0,1.4-1.45,4.74,4.74,0,0,0,0-4.28,3.69,3.69,0,0,0-1.4-1.45,4.18,4.18,0,0,0-4,0,3.62,3.62,0,0,0-1.4,1.45,4.74,4.74,0,0,0,0,4.28,3.56,3.56,0,0,0,1.4,1.45,4.18,4.18,0,0,0,4,0Z"/><path class="cls-5" d="M104.83,212.47a4.9,4.9,0,0,1-1.92-1.91,5.79,5.79,0,0,1,0-5.52,4.94,4.94,0,0,1,1.92-1.9,5.86,5.86,0,0,1,5.48,0,5,5,0,0,1,1.91,1.9,5.87,5.87,0,0,1,0,5.52,4.94,4.94,0,0,1-1.91,1.91,5.79,5.79,0,0,1-5.48,0Zm4.75-1.08a3.6,3.6,0,0,0,1.39-1.45,4.83,4.83,0,0,0,0-4.28,3.66,3.66,0,0,0-1.39-1.45,4.22,4.22,0,0,0-4,0,3.69,3.69,0,0,0-1.4,1.45,4.74,4.74,0,0,0,0,4.28,3.62,3.62,0,0,0,1.4,1.45,4.22,4.22,0,0,0,4,0Z"/><path class="cls-5" d="M118.66,203a5,5,0,0,1,2.45-.54v1.38l-.34,0a3.35,3.35,0,0,0-2.6,1,4.06,4.06,0,0,0-.94,2.86v5.36h-1.42V202.54h1.36v2.06A3.46,3.46,0,0,1,118.66,203Z"/><path class="cls-5" d="M132.73,208.24h-8.8a3.74,3.74,0,0,0,1.26,2.65,4.15,4.15,0,0,0,2.88,1,4.45,4.45,0,0,0,1.8-.35,3.87,3.87,0,0,0,1.42-1l.8.92a4.5,4.5,0,0,1-1.75,1.28,6.3,6.3,0,0,1-5.18-.25,4.85,4.85,0,0,1-2-1.91,5.39,5.39,0,0,1-.7-2.76,5.64,5.64,0,0,1,.67-2.76,4.87,4.87,0,0,1,1.84-1.9,5.41,5.41,0,0,1,5.25,0,4.93,4.93,0,0,1,1.82,1.89,5.7,5.7,0,0,1,.66,2.77Zm-7.63-3.59a3.79,3.79,0,0,0-1.17,2.53h7.46a3.88,3.88,0,0,0-1.17-2.53,3.65,3.65,0,0,0-2.57-1A3.58,3.58,0,0,0,125.1,204.65Z"/><path class="cls-5" d="M136,212.79a5.05,5.05,0,0,1-1.83-.93l.64-1.12a5.28,5.28,0,0,0,1.66.85,6.56,6.56,0,0,0,2.08.33,4,4,0,0,0,2.13-.45,1.43,1.43,0,0,0,.69-1.27,1.16,1.16,0,0,0-.38-.91,2.73,2.73,0,0,0-1-.5,15.58,15.58,0,0,0-1.54-.33,16.69,16.69,0,0,1-2.06-.49,2.93,2.93,0,0,1-1.33-.85,2.34,2.34,0,0,1-.55-1.66,2.58,2.58,0,0,1,1.1-2.16,4.93,4.93,0,0,1,3.06-.84,7.94,7.94,0,0,1,2,.27,5.7,5.7,0,0,1,1.68.71l-.62,1.14a5.32,5.32,0,0,0-3.1-.9,3.59,3.59,0,0,0-2,.48,1.47,1.47,0,0,0-.69,1.26,1.24,1.24,0,0,0,.39,1,2.34,2.34,0,0,0,1,.53,13.71,13.71,0,0,0,1.6.35,18.6,18.6,0,0,1,2,.48,3.07,3.07,0,0,1,1.3.82,2.26,2.26,0,0,1,.54,1.6,2.56,2.56,0,0,1-1.15,2.19,5.47,5.47,0,0,1-3.19.81A7.94,7.94,0,0,1,136,212.79Z"/><path class="cls-5" d="M256.38,200.34a4.35,4.35,0,0,1,1.52,3.52,4.29,4.29,0,0,1-1.52,3.51,6.33,6.33,0,0,1-4.2,1.27h-3.76v4.42h-1.48v-14h5.24A6.33,6.33,0,0,1,256.38,200.34Zm-1.06,6.09a3.12,3.12,0,0,0,1.1-2.57,3.18,3.18,0,0,0-1.1-2.61,4.9,4.9,0,0,0-3.18-.91h-3.72v7h3.72A4.84,4.84,0,0,0,255.32,206.43Z"/><path class="cls-5" d="M261,198.22h1.42v14.84H261Z"/><path class="cls-5" d="M273.22,203.49a4,4,0,0,1,1.1,3v6.52H273v-1.64a3.2,3.2,0,0,1-1.41,1.28,4.87,4.87,0,0,1-2.21.46,4.35,4.35,0,0,1-2.8-.84,2.89,2.89,0,0,1-.07-4.38,4.8,4.8,0,0,1,3.09-.82h3.34v-.64a2.7,2.7,0,0,0-.76-2.07,3.13,3.13,0,0,0-2.22-.71A5.7,5.7,0,0,0,268,204a5,5,0,0,0-1.58.91l-.64-1.06a5.93,5.93,0,0,1,1.92-1,7.72,7.72,0,0,1,2.36-.37A4.47,4.47,0,0,1,273.22,203.49Zm-1.6,8a3.19,3.19,0,0,0,1.28-1.59v-1.72h-3.3c-1.8,0-2.7.63-2.7,1.88a1.72,1.72,0,0,0,.7,1.45,3.15,3.15,0,0,0,2,.53A3.71,3.71,0,0,0,271.62,211.49Z"/><path class="cls-5" d="M286.69,203.61a4.51,4.51,0,0,1,1.17,3.35v6.1h-1.42v-6a3.49,3.49,0,0,0-.82-2.5,3.07,3.07,0,0,0-2.34-.86,3.61,3.61,0,0,0-2.69,1,3.84,3.84,0,0,0-1,2.79v5.52h-1.42V202.54h1.36v1.94a4.06,4.06,0,0,1,1.61-1.49,5.22,5.22,0,0,1,2.39-.53A4.33,4.33,0,0,1,286.69,203.61Z"/><path class="cls-5" d="M297.26,212.42a2.5,2.5,0,0,1-1,.55,3.86,3.86,0,0,1-1.23.19A2.79,2.79,0,0,1,292,210.1v-6.36h-1.88v-1.2H292v-2.3h1.42v2.3h3.2v1.2h-3.2V210a2,2,0,0,0,.47,1.43,1.79,1.79,0,0,0,1.35.49,2.41,2.41,0,0,0,.85-.14,1.9,1.9,0,0,0,.71-.4Z"/><path class="cls-5" d="M306.68,203.49a4,4,0,0,1,1.1,3v6.52h-1.36v-1.64A3.2,3.2,0,0,1,305,212.7a4.87,4.87,0,0,1-2.21.46,4.35,4.35,0,0,1-2.8-.84,2.89,2.89,0,0,1-.07-4.38,4.8,4.8,0,0,1,3.09-.82h3.34v-.64a2.7,2.7,0,0,0-.76-2.07,3.13,3.13,0,0,0-2.22-.71,5.7,5.7,0,0,0-1.92.33,5,5,0,0,0-1.58.91l-.64-1.06a5.93,5.93,0,0,1,1.92-1,7.72,7.72,0,0,1,2.36-.37A4.47,4.47,0,0,1,306.68,203.49Zm-1.6,8a3.19,3.19,0,0,0,1.28-1.59v-1.72h-3.3c-1.8,0-2.7.63-2.7,1.88a1.72,1.72,0,0,0,.7,1.45,3.15,3.15,0,0,0,2,.53A3.71,3.71,0,0,0,305.08,211.49Z"/><path class="cls-5" d="M427.5,212.26a6.63,6.63,0,0,1-2.62-2.55,7.49,7.49,0,0,1,0-7.3,6.79,6.79,0,0,1,2.63-2.55,7.73,7.73,0,0,1,3.76-.92,7.93,7.93,0,0,1,2.88.52,6.06,6.06,0,0,1,2.24,1.52l-.94.94a5.62,5.62,0,0,0-4.14-1.66,6.13,6.13,0,0,0-3,.76,5.53,5.53,0,0,0-2.13,2.08,6.07,6.07,0,0,0,0,5.92,5.46,5.46,0,0,0,2.13,2.08,6,6,0,0,0,3,.76,5.5,5.5,0,0,0,4.14-1.68l.94.94a5.92,5.92,0,0,1-2.25,1.53,8.12,8.12,0,0,1-6.64-.39Z"/><path class="cls-5" d="M448,208.24h-8.8a3.74,3.74,0,0,0,1.26,2.65,4.15,4.15,0,0,0,2.88,1,4.45,4.45,0,0,0,1.8-.35,3.87,3.87,0,0,0,1.42-1l.8.92a4.5,4.5,0,0,1-1.75,1.28,6.3,6.3,0,0,1-5.18-.25,4.91,4.91,0,0,1-1.95-1.91,5.39,5.39,0,0,1-.7-2.76,5.64,5.64,0,0,1,.67-2.76,4.87,4.87,0,0,1,1.84-1.9,5.41,5.41,0,0,1,5.25,0,4.93,4.93,0,0,1,1.82,1.89,5.7,5.7,0,0,1,.66,2.77Zm-7.63-3.59a3.79,3.79,0,0,0-1.17,2.53h7.46a3.88,3.88,0,0,0-1.17-2.53,3.65,3.65,0,0,0-2.57-1A3.6,3.6,0,0,0,440.32,204.65Z"/><path class="cls-5" d="M459.38,203.61a4.51,4.51,0,0,1,1.17,3.35v6.1h-1.42v-6a3.53,3.53,0,0,0-.82-2.5,3.1,3.1,0,0,0-2.34-.86,3.6,3.6,0,0,0-2.69,1,3.84,3.84,0,0,0-1,2.79v5.52h-1.42V202.54h1.36v1.94a3.93,3.93,0,0,1,1.61-1.49,5.17,5.17,0,0,1,2.39-.53A4.33,4.33,0,0,1,459.38,203.61Z"/><path class="cls-5" d="M470,212.42a2.65,2.65,0,0,1-1,.55,4,4,0,0,1-1.23.19,3,3,0,0,1-2.28-.8,3,3,0,0,1-.8-2.26v-6.36h-1.88v-1.2h1.88v-2.3h1.42v2.3h3.2v1.2h-3.2V210a1.94,1.94,0,0,0,.47,1.43,1.76,1.76,0,0,0,1.35.49,2.49,2.49,0,0,0,.85-.14,2,2,0,0,0,.71-.4Z"/><path class="cls-5" d="M475.38,203a5,5,0,0,1,2.45-.54v1.38l-.34,0a3.35,3.35,0,0,0-2.6,1,4.06,4.06,0,0,0-.94,2.86v5.36h-1.42V202.54h1.36v2.06A3.46,3.46,0,0,1,475.38,203Z"/><path class="cls-5" d="M481.85,212.47a4.9,4.9,0,0,1-1.92-1.91,5.79,5.79,0,0,1,0-5.52,4.94,4.94,0,0,1,1.92-1.9,5.86,5.86,0,0,1,5.48,0,5,5,0,0,1,1.91,1.9,5.87,5.87,0,0,1,0,5.52,4.94,4.94,0,0,1-1.91,1.91,5.79,5.79,0,0,1-5.48,0Zm4.75-1.08a3.6,3.6,0,0,0,1.39-1.45,4.83,4.83,0,0,0,0-4.28,3.66,3.66,0,0,0-1.39-1.45,4,4,0,0,0-2-.51,4,4,0,0,0-2,.51,3.62,3.62,0,0,0-1.4,1.45,4.74,4.74,0,0,0,0,4.28,3.56,3.56,0,0,0,1.4,1.45,4,4,0,0,0,2,.51A4,4,0,0,0,486.6,211.39Z"/><path class="cls-5" d="M507.67,198.22v14.84h-1.36V211a4.31,4.31,0,0,1-1.69,1.62,4.88,4.88,0,0,1-2.37.56,5.26,5.26,0,0,1-2.68-.68,4.77,4.77,0,0,1-1.88-1.9,6,6,0,0,1,0-5.56,4.81,4.81,0,0,1,1.88-1.89,5.46,5.46,0,0,1,2.68-.67,5,5,0,0,1,2.31.53,4.48,4.48,0,0,1,1.69,1.55v-6.32Zm-3.31,13.17a3.62,3.62,0,0,0,1.4-1.45,4.74,4.74,0,0,0,0-4.28,3.69,3.69,0,0,0-1.4-1.45,4.18,4.18,0,0,0-4,0,3.62,3.62,0,0,0-1.4,1.45,4.74,4.74,0,0,0,0,4.28,3.56,3.56,0,0,0,1.4,1.45,4.18,4.18,0,0,0,4,0Z"/><path class="cls-5" d="M520.79,208.24H512a3.74,3.74,0,0,0,1.26,2.65,4.15,4.15,0,0,0,2.88,1,4.45,4.45,0,0,0,1.8-.35,3.87,3.87,0,0,0,1.42-1l.8.92a4.5,4.5,0,0,1-1.75,1.28,6.3,6.3,0,0,1-5.18-.25,4.85,4.85,0,0,1-2-1.91,5.39,5.39,0,0,1-.7-2.76,5.64,5.64,0,0,1,.67-2.76,4.87,4.87,0,0,1,1.84-1.9,5.41,5.41,0,0,1,5.25,0,4.93,4.93,0,0,1,1.82,1.89,5.7,5.7,0,0,1,.66,2.77Zm-7.63-3.59a3.79,3.79,0,0,0-1.17,2.53h7.46a3.88,3.88,0,0,0-1.17-2.53,3.65,3.65,0,0,0-2.57-1A3.58,3.58,0,0,0,513.16,204.65Z"/><path class="cls-5" d="M424,222.22v14.84h-1.36V235a4.31,4.31,0,0,1-1.69,1.62,4.88,4.88,0,0,1-2.37.56,5.26,5.26,0,0,1-2.68-.68,4.77,4.77,0,0,1-1.88-1.9,6,6,0,0,1,0-5.56,4.81,4.81,0,0,1,1.88-1.89,5.46,5.46,0,0,1,2.68-.67,5,5,0,0,1,2.31.53,4.41,4.41,0,0,1,1.69,1.55v-6.32Zm-3.31,13.17a3.62,3.62,0,0,0,1.4-1.45,4.74,4.74,0,0,0,0-4.28,3.69,3.69,0,0,0-1.4-1.45,4.18,4.18,0,0,0-4,0,3.69,3.69,0,0,0-1.4,1.45,4.74,4.74,0,0,0,0,4.28,3.62,3.62,0,0,0,1.4,1.45,4.18,4.18,0,0,0,4,0Z"/><path class="cls-5" d="M427.92,223.94a1,1,0,0,1-.3-.72,1,1,0,0,1,.3-.7,1,1,0,0,1,.74-.3,1,1,0,0,1,.74.29,1,1,0,0,1,.3.69,1,1,0,0,1-.3.74,1.06,1.06,0,0,1-1.48,0Zm0,2.6h1.42v10.52h-1.42Z"/><path class="cls-5" d="M433.69,236.79a5.05,5.05,0,0,1-1.83-.93l.64-1.12a5.28,5.28,0,0,0,1.66.85,6.56,6.56,0,0,0,2.08.33,4,4,0,0,0,2.13-.45,1.43,1.43,0,0,0,.69-1.27,1.16,1.16,0,0,0-.38-.91,2.65,2.65,0,0,0-1-.5,15.58,15.58,0,0,0-1.54-.33,16.69,16.69,0,0,1-2.06-.49,2.93,2.93,0,0,1-1.33-.85,2.34,2.34,0,0,1-.55-1.66,2.61,2.61,0,0,1,1.1-2.16,4.93,4.93,0,0,1,3.06-.84,7.94,7.94,0,0,1,2,.27,5.7,5.7,0,0,1,1.68.71l-.62,1.14a5.32,5.32,0,0,0-3.1-.9,3.59,3.59,0,0,0-2,.48,1.47,1.47,0,0,0-.69,1.26,1.24,1.24,0,0,0,.39,1,2.34,2.34,0,0,0,1,.53,13.71,13.71,0,0,0,1.6.35,18.6,18.6,0,0,1,2,.48,3.07,3.07,0,0,1,1.3.82,2.26,2.26,0,0,1,.54,1.6,2.56,2.56,0,0,1-1.15,2.19,5.47,5.47,0,0,1-3.19.81A7.94,7.94,0,0,1,433.69,236.79Z"/><path class="cls-5" d="M448.64,236.42a2.65,2.65,0,0,1-1,.55,3.91,3.91,0,0,1-1.23.19,2.79,2.79,0,0,1-3.08-3.06v-6.36h-1.88v-1.2h1.88v-2.3h1.42v2.3H448v1.2h-3.2V234a1.94,1.94,0,0,0,.47,1.43,1.76,1.76,0,0,0,1.35.49,2.49,2.49,0,0,0,.85-.14,2,2,0,0,0,.71-.4Z"/><path class="cls-5" d="M454.07,227a5,5,0,0,1,2.45-.54v1.38l-.34,0a3.35,3.35,0,0,0-2.6,1,4.06,4.06,0,0,0-.94,2.86v5.36h-1.42V226.54h1.36v2.06A3.46,3.46,0,0,1,454.07,227Z"/><path class="cls-5" d="M459.06,223.94a1,1,0,0,1-.3-.72,1,1,0,0,1,.3-.7,1,1,0,0,1,.74-.3,1,1,0,0,1,.74.29,1,1,0,0,1,.3.69,1,1,0,0,1-.3.74,1,1,0,0,1-.74.3A1,1,0,0,1,459.06,223.94Zm0,2.6h1.42v10.52h-1.42Z"/><path class="cls-5" d="M472.56,227.13a4.88,4.88,0,0,1,1.88,1.89,6,6,0,0,1,0,5.56,4.84,4.84,0,0,1-1.88,1.9,5.29,5.29,0,0,1-2.68.68,4.88,4.88,0,0,1-2.37-.56,4.24,4.24,0,0,1-1.69-1.62v2.08h-1.36V222.22h1.42v6.32a4.41,4.41,0,0,1,1.69-1.55,5,5,0,0,1,2.31-.53A5.49,5.49,0,0,1,472.56,227.13Zm-.78,8.26a3.58,3.58,0,0,0,1.41-1.45,4.74,4.74,0,0,0,0-4.28,3.64,3.64,0,0,0-1.41-1.45,4,4,0,0,0-2-.51,4,4,0,0,0-2,.51,3.62,3.62,0,0,0-1.4,1.45,4.74,4.74,0,0,0,0,4.28,3.56,3.56,0,0,0,1.4,1.45,4,4,0,0,0,2,.51A4,4,0,0,0,471.78,235.39Z"/><path class="cls-5" d="M487.5,226.54v10.52h-1.36v-1.92a3.94,3.94,0,0,1-1.54,1.49,4.58,4.58,0,0,1-2.24.53,4.07,4.07,0,0,1-4.44-4.52v-6.1h1.42v6a3.49,3.49,0,0,0,.82,2.52,3,3,0,0,0,2.34.86,3.43,3.43,0,0,0,2.62-1,3.91,3.91,0,0,0,1-2.81v-5.52Z"/><path class="cls-5" d="M493.05,236.48a4.86,4.86,0,0,1-1.93-1.91,5.81,5.81,0,0,1,0-5.53,5,5,0,0,1,1.93-1.9,5.71,5.71,0,0,1,2.79-.68,5.49,5.49,0,0,1,2.43.53,4.14,4.14,0,0,1,1.69,1.55l-1.06.72a3.36,3.36,0,0,0-1.32-1.17,4,4,0,0,0-1.74-.39,4.1,4.1,0,0,0-2,.51,3.6,3.6,0,0,0-1.42,1.45,4.77,4.77,0,0,0,0,4.29,3.58,3.58,0,0,0,1.42,1.44,4.1,4.1,0,0,0,2,.51,4,4,0,0,0,1.74-.38,3.26,3.26,0,0,0,1.32-1.16l1.06.72a4,4,0,0,1-1.7,1.55,5.34,5.34,0,0,1-2.42.53A5.6,5.6,0,0,1,493.05,236.48Z"/><path class="cls-5" d="M502.72,223.94a1,1,0,0,1-.3-.72,1,1,0,0,1,.3-.7,1,1,0,0,1,.74-.3,1,1,0,0,1,.74.29,1,1,0,0,1,.3.69,1,1,0,0,1-.3.74,1,1,0,0,1-.74.3A1,1,0,0,1,502.72,223.94Zm0,2.6h1.42v10.52h-1.42Z"/><path class="cls-5" d="M509.68,236.47a4.9,4.9,0,0,1-1.92-1.91,5.79,5.79,0,0,1,0-5.52,4.94,4.94,0,0,1,1.92-1.9,5.86,5.86,0,0,1,5.48,0,5,5,0,0,1,1.91,1.9,5.87,5.87,0,0,1,0,5.52,4.94,4.94,0,0,1-1.91,1.91,5.79,5.79,0,0,1-5.48,0Zm4.75-1.08a3.6,3.6,0,0,0,1.39-1.45,4.83,4.83,0,0,0,0-4.28,3.66,3.66,0,0,0-1.39-1.45,4,4,0,0,0-2-.51,4,4,0,0,0-2,.51,3.62,3.62,0,0,0-1.4,1.45,4.74,4.74,0,0,0,0,4.28,3.56,3.56,0,0,0,1.4,1.45,4,4,0,0,0,2,.51A4,4,0,0,0,514.43,235.39Zm-.59-13h1.9l-3.24,2.48h-1.4Z"/><path class="cls-5" d="M529.17,227.61a4.51,4.51,0,0,1,1.17,3.35v6.1h-1.42v-6a3.53,3.53,0,0,0-.82-2.5,3.1,3.1,0,0,0-2.34-.86,3.6,3.6,0,0,0-2.69,1,3.84,3.84,0,0,0-1,2.79v5.52h-1.42V226.54H522v1.94a3.93,3.93,0,0,1,1.61-1.49,5.17,5.17,0,0,1,2.39-.53A4.33,4.33,0,0,1,529.17,227.61Z"/><path class="cls-5" d="M620.9,212.26a6.63,6.63,0,0,1-2.62-2.55,7.49,7.49,0,0,1,0-7.3,6.79,6.79,0,0,1,2.63-2.55,7.73,7.73,0,0,1,3.76-.92,7.93,7.93,0,0,1,2.88.52,6.14,6.14,0,0,1,2.24,1.52l-.94.94a5.62,5.62,0,0,0-4.14-1.66,6.13,6.13,0,0,0-3,.76,5.53,5.53,0,0,0-2.13,2.08,6.07,6.07,0,0,0,0,5.92,5.46,5.46,0,0,0,2.13,2.08,6,6,0,0,0,3,.76,5.5,5.5,0,0,0,4.14-1.68l.94.94a6.08,6.08,0,0,1-2.25,1.53,8.12,8.12,0,0,1-6.64-.39Z"/><path class="cls-5" d="M641.35,208.24h-8.8a3.74,3.74,0,0,0,1.26,2.65,4.15,4.15,0,0,0,2.88,1,4.45,4.45,0,0,0,1.8-.35,3.87,3.87,0,0,0,1.42-1l.8.92a4.5,4.5,0,0,1-1.75,1.28,6.3,6.3,0,0,1-5.18-.25,4.85,4.85,0,0,1-1.95-1.91,5.39,5.39,0,0,1-.7-2.76,5.64,5.64,0,0,1,.67-2.76,4.87,4.87,0,0,1,1.84-1.9,5.41,5.41,0,0,1,5.25,0,4.93,4.93,0,0,1,1.82,1.89,5.7,5.7,0,0,1,.66,2.77Zm-7.63-3.59a3.79,3.79,0,0,0-1.17,2.53H640a3.88,3.88,0,0,0-1.17-2.53,3.65,3.65,0,0,0-2.57-1A3.58,3.58,0,0,0,633.72,204.65Z"/><path class="cls-5" d="M652.78,203.61A4.51,4.51,0,0,1,654,207v6.1h-1.42v-6a3.53,3.53,0,0,0-.82-2.5,3.1,3.1,0,0,0-2.34-.86,3.6,3.6,0,0,0-2.69,1,3.84,3.84,0,0,0-1,2.79v5.52h-1.42V202.54h1.36v1.94a3.93,3.93,0,0,1,1.61-1.49,5.17,5.17,0,0,1,2.39-.53A4.33,4.33,0,0,1,652.78,203.61Z"/><path class="cls-5" d="M663.35,212.42a2.65,2.65,0,0,1-1,.55,4,4,0,0,1-1.23.19,3,3,0,0,1-2.28-.8,3,3,0,0,1-.8-2.26v-6.36h-1.88v-1.2h1.88v-2.3h1.42v2.3h3.2v1.2h-3.2V210a1.94,1.94,0,0,0,.47,1.43,1.76,1.76,0,0,0,1.35.49,2.49,2.49,0,0,0,.85-.14,2,2,0,0,0,.71-.4Z"/><path class="cls-5" d="M668.78,203a5,5,0,0,1,2.45-.54v1.38l-.34,0a3.35,3.35,0,0,0-2.6,1,4.06,4.06,0,0,0-.94,2.86v5.36h-1.42V202.54h1.36v2.06A3.46,3.46,0,0,1,668.78,203Z"/><path class="cls-5" d="M675.25,212.47a4.9,4.9,0,0,1-1.92-1.91,5.79,5.79,0,0,1,0-5.52,4.94,4.94,0,0,1,1.92-1.9,5.86,5.86,0,0,1,5.48,0,5,5,0,0,1,1.91,1.9,5.86,5.86,0,0,1,0,5.52,4.94,4.94,0,0,1-1.91,1.91,5.79,5.79,0,0,1-5.48,0Zm4.75-1.08a3.6,3.6,0,0,0,1.39-1.45,4.83,4.83,0,0,0,0-4.28,3.66,3.66,0,0,0-1.39-1.45,4,4,0,0,0-2-.51,4,4,0,0,0-2,.51,3.62,3.62,0,0,0-1.4,1.45,4.74,4.74,0,0,0,0,4.28,3.56,3.56,0,0,0,1.4,1.45,4,4,0,0,0,2,.51A4,4,0,0,0,680,211.39Z"/><path class="cls-5" d="M701.07,198.22v14.84h-1.36V211A4.31,4.31,0,0,1,698,212.6a4.88,4.88,0,0,1-2.37.56,5.26,5.26,0,0,1-2.68-.68,4.77,4.77,0,0,1-1.88-1.9,6,6,0,0,1,0-5.56,4.81,4.81,0,0,1,1.88-1.89,5.46,5.46,0,0,1,2.68-.67A5,5,0,0,1,698,203a4.48,4.48,0,0,1,1.69,1.55v-6.32Zm-3.31,13.17a3.62,3.62,0,0,0,1.4-1.45,4.74,4.74,0,0,0,0-4.28,3.69,3.69,0,0,0-1.4-1.45,4.18,4.18,0,0,0-4,0,3.56,3.56,0,0,0-1.4,1.45,4.74,4.74,0,0,0,0,4.28,3.5,3.5,0,0,0,1.4,1.45,4.18,4.18,0,0,0,4,0Z"/><path class="cls-5" d="M714.19,208.24h-8.81a3.75,3.75,0,0,0,1.27,2.65,4.12,4.12,0,0,0,2.88,1,4.45,4.45,0,0,0,1.8-.35,3.87,3.87,0,0,0,1.42-1l.8.92a4.5,4.5,0,0,1-1.75,1.28,5.8,5.8,0,0,1-2.31.44,5.87,5.87,0,0,1-2.88-.69,4.88,4.88,0,0,1-1.94-1.91,5.39,5.39,0,0,1-.7-2.76,5.74,5.74,0,0,1,.66-2.76,4.9,4.9,0,0,1,1.85-1.9,5.41,5.41,0,0,1,5.25,0,4.93,4.93,0,0,1,1.82,1.89,5.7,5.7,0,0,1,.66,2.77Zm-7.63-3.59a3.84,3.84,0,0,0-1.18,2.53h7.47a3.84,3.84,0,0,0-1.18-2.53,3.85,3.85,0,0,0-5.11,0Z"/><path class="cls-5" d="M617.38,222.22v14.84H616V235a4.31,4.31,0,0,1-1.69,1.62,4.88,4.88,0,0,1-2.37.56,5.26,5.26,0,0,1-2.68-.68,4.77,4.77,0,0,1-1.88-1.9,6,6,0,0,1,0-5.56,4.81,4.81,0,0,1,1.88-1.89,5.46,5.46,0,0,1,2.68-.67,5,5,0,0,1,2.31.53,4.48,4.48,0,0,1,1.69,1.55v-6.32Zm-3.31,13.17a3.62,3.62,0,0,0,1.4-1.45,4.74,4.74,0,0,0,0-4.28,3.69,3.69,0,0,0-1.4-1.45,4.18,4.18,0,0,0-4,0,3.62,3.62,0,0,0-1.4,1.45,4.74,4.74,0,0,0,0,4.28,3.56,3.56,0,0,0,1.4,1.45,4.18,4.18,0,0,0,4,0Z"/><path class="cls-5" d="M621.32,223.94a1,1,0,0,1-.3-.72,1,1,0,0,1,.3-.7,1,1,0,0,1,.74-.3,1,1,0,0,1,.74.29,1,1,0,0,1,.3.69,1,1,0,0,1-.3.74,1,1,0,0,1-.74.3A1,1,0,0,1,621.32,223.94Zm0,2.6h1.42v10.52h-1.42Z"/><path class="cls-5" d="M627.09,236.79a5.05,5.05,0,0,1-1.83-.93l.64-1.12a5.28,5.28,0,0,0,1.66.85,6.56,6.56,0,0,0,2.08.33,4,4,0,0,0,2.13-.45,1.43,1.43,0,0,0,.69-1.27,1.16,1.16,0,0,0-.38-.91,2.73,2.73,0,0,0-1-.5,15.58,15.58,0,0,0-1.54-.33,16.69,16.69,0,0,1-2.06-.49,2.93,2.93,0,0,1-1.33-.85,2.34,2.34,0,0,1-.55-1.66,2.58,2.58,0,0,1,1.1-2.16,4.93,4.93,0,0,1,3.06-.84,7.94,7.94,0,0,1,2,.27,5.7,5.7,0,0,1,1.68.71l-.62,1.14a5.32,5.32,0,0,0-3.1-.9,3.59,3.59,0,0,0-2,.48,1.47,1.47,0,0,0-.69,1.26,1.24,1.24,0,0,0,.39,1,2.34,2.34,0,0,0,1,.53,13.71,13.71,0,0,0,1.6.35,18.6,18.6,0,0,1,2,.48,3.07,3.07,0,0,1,1.3.82,2.26,2.26,0,0,1,.54,1.6,2.56,2.56,0,0,1-1.15,2.19,5.47,5.47,0,0,1-3.19.81A7.94,7.94,0,0,1,627.09,236.79Z"/><path class="cls-5" d="M642,236.42a2.65,2.65,0,0,1-1,.55,4,4,0,0,1-1.23.19,3,3,0,0,1-2.28-.8,3,3,0,0,1-.8-2.26v-6.36h-1.88v-1.2h1.88v-2.3h1.42v2.3h3.2v1.2h-3.2V234a1.94,1.94,0,0,0,.47,1.43,1.76,1.76,0,0,0,1.35.49,2.49,2.49,0,0,0,.85-.14,2,2,0,0,0,.71-.4Z"/><path class="cls-5" d="M647.47,227a5,5,0,0,1,2.45-.54v1.38l-.34,0a3.35,3.35,0,0,0-2.6,1,4.06,4.06,0,0,0-.94,2.86v5.36h-1.42V226.54H646v2.06A3.46,3.46,0,0,1,647.47,227Z"/><path class="cls-5" d="M652.46,223.94a1,1,0,0,1-.3-.72,1,1,0,0,1,.3-.7,1,1,0,0,1,.74-.3,1,1,0,0,1,.74.29,1,1,0,0,1,.3.69,1,1,0,0,1-.3.74,1,1,0,0,1-.74.3A1,1,0,0,1,652.46,223.94Zm0,2.6h1.42v10.52h-1.42Z"/><path class="cls-5" d="M666,227.13a4.88,4.88,0,0,1,1.88,1.89,6,6,0,0,1,0,5.56,4.84,4.84,0,0,1-1.88,1.9,5.29,5.29,0,0,1-2.68.68,4.88,4.88,0,0,1-2.37-.56,4.24,4.24,0,0,1-1.69-1.62v2.08h-1.36V222.22h1.42v6.32A4.41,4.41,0,0,1,661,227a5,5,0,0,1,2.31-.53A5.49,5.49,0,0,1,666,227.13Zm-.78,8.26a3.58,3.58,0,0,0,1.41-1.45,4.74,4.74,0,0,0,0-4.28,3.64,3.64,0,0,0-1.41-1.45,4,4,0,0,0-2-.51,4,4,0,0,0-2,.51,3.62,3.62,0,0,0-1.4,1.45,4.74,4.74,0,0,0,0,4.28,3.56,3.56,0,0,0,1.4,1.45,4,4,0,0,0,2,.51A4,4,0,0,0,665.18,235.39Z"/><path class="cls-5" d="M680.9,226.54v10.52h-1.36v-1.92a3.94,3.94,0,0,1-1.54,1.49,4.58,4.58,0,0,1-2.24.53,4.07,4.07,0,0,1-4.44-4.52v-6.1h1.42v6a3.49,3.49,0,0,0,.82,2.52,3,3,0,0,0,2.34.86,3.43,3.43,0,0,0,2.62-1,3.91,3.91,0,0,0,1-2.81v-5.52Z"/><path class="cls-5" d="M686.45,236.48a4.86,4.86,0,0,1-1.93-1.91,5.81,5.81,0,0,1,0-5.53,5,5,0,0,1,1.93-1.9,5.71,5.71,0,0,1,2.79-.68,5.49,5.49,0,0,1,2.43.53,4.14,4.14,0,0,1,1.69,1.55l-1.06.72a3.36,3.36,0,0,0-1.32-1.17,4,4,0,0,0-1.74-.39,4.1,4.1,0,0,0-2,.51,3.6,3.6,0,0,0-1.42,1.45,4.77,4.77,0,0,0,0,4.29,3.58,3.58,0,0,0,1.42,1.44,4.1,4.1,0,0,0,2,.51,4,4,0,0,0,1.74-.38,3.26,3.26,0,0,0,1.32-1.16l1.06.72a4,4,0,0,1-1.7,1.55,5.34,5.34,0,0,1-2.42.53A5.6,5.6,0,0,1,686.45,236.48Z"/><path class="cls-5" d="M696.11,223.94a1,1,0,0,1-.29-.72,1,1,0,0,1,.29-.7,1,1,0,0,1,.75-.3,1,1,0,0,1,.73.29.92.92,0,0,1,.31.69,1,1,0,0,1-1,1A1,1,0,0,1,696.11,223.94Zm0,2.6h1.43v10.52h-1.43Z"/><path class="cls-5" d="M703.07,236.47a5,5,0,0,1-1.92-1.91,5.86,5.86,0,0,1,0-5.52,5.08,5.08,0,0,1,1.92-1.9,5.61,5.61,0,0,1,2.75-.68,5.53,5.53,0,0,1,2.73.68,4.94,4.94,0,0,1,1.92,1.9,5.94,5.94,0,0,1,0,5.52,4.9,4.9,0,0,1-1.92,1.91,5.43,5.43,0,0,1-2.73.69A5.51,5.51,0,0,1,703.07,236.47Zm4.75-1.08a3.56,3.56,0,0,0,1.4-1.45,4.83,4.83,0,0,0,0-4.28,3.62,3.62,0,0,0-1.4-1.45,3.94,3.94,0,0,0-2-.51,4,4,0,0,0-2,.51,3.69,3.69,0,0,0-1.4,1.45,4.74,4.74,0,0,0,0,4.28,3.62,3.62,0,0,0,1.4,1.45,4,4,0,0,0,2,.51A3.94,3.94,0,0,0,707.82,235.39Zm-.58-13h1.89l-3.24,2.48h-1.4Z"/><path class="cls-5" d="M722.57,227.61a4.55,4.55,0,0,1,1.17,3.35v6.1h-1.42v-6a3.53,3.53,0,0,0-.82-2.5,3.11,3.11,0,0,0-2.35-.86,3.59,3.59,0,0,0-2.68,1,3.79,3.79,0,0,0-1,2.79v5.52h-1.43V226.54h1.36v1.94A4,4,0,0,1,717,227a5.15,5.15,0,0,1,2.38-.53A4.35,4.35,0,0,1,722.57,227.61Z"/><path class="cls-5" d="M824.34,152.78v14h-1.42v-11.2l-5.5,9.42h-.7l-5.5-9.36v11.14H809.8v-14H811l6.08,10.38,6-10.38Z"/><path class="cls-5" d="M828.58,153.66a1,1,0,0,1-.3-.72,1,1,0,0,1,.3-.7,1,1,0,0,1,.74-.3,1,1,0,0,1,.74.29.93.93,0,0,1,.3.69,1,1,0,0,1-.3.74,1.06,1.06,0,0,1-1.48,0Zm0,2.6H830v10.52H828.6Z"/><path class="cls-5" d="M842.49,157.33a4.51,4.51,0,0,1,1.17,3.35v6.1h-1.42v-6a3.47,3.47,0,0,0-.82-2.5,3.1,3.1,0,0,0-2.34-.86,3.61,3.61,0,0,0-2.69,1,3.8,3.8,0,0,0-1,2.79v5.52H834V156.26h1.36v1.94a3.93,3.93,0,0,1,1.61-1.49,5.2,5.2,0,0,1,2.39-.53A4.28,4.28,0,0,1,842.49,157.33Z"/><path class="cls-5" d="M849.12,166.19a5.1,5.1,0,0,1-1.92-1.91,5.79,5.79,0,0,1,0-5.52,5,5,0,0,1,1.92-1.9,5.86,5.86,0,0,1,5.48,0,4.91,4.91,0,0,1,1.91,1.9,5.86,5.86,0,0,1,0,5.52,5,5,0,0,1-1.91,1.91,5.79,5.79,0,0,1-5.48,0Zm4.75-1.08a3.54,3.54,0,0,0,1.39-1.45,4.83,4.83,0,0,0,0-4.28,3.6,3.6,0,0,0-1.39-1.45,4.22,4.22,0,0,0-4,0,3.69,3.69,0,0,0-1.4,1.45,4.74,4.74,0,0,0,0,4.28,3.62,3.62,0,0,0,1.4,1.45,4.22,4.22,0,0,0,4,0Z"/><path class="cls-5" d="M863,156.72a5.07,5.07,0,0,1,2.45-.54v1.38l-.34,0a3.36,3.36,0,0,0-2.6,1,4,4,0,0,0-.94,2.86v5.36H860.1V156.26h1.36v2.06A3.41,3.41,0,0,1,863,156.72Z"/><path class="cls-5" d="M867.94,153.66a1,1,0,0,1-.3-.72,1,1,0,0,1,.3-.7,1,1,0,0,1,.74-.3,1,1,0,0,1,.74.29.93.93,0,0,1,.3.69,1,1,0,0,1-.3.74,1.06,1.06,0,0,1-1.48,0Zm0,2.6h1.42v10.52H868Z"/><path class="cls-5" d="M873.71,166.51a5.21,5.21,0,0,1-1.83-.93l.64-1.12a5.28,5.28,0,0,0,1.66.85,6.61,6.61,0,0,0,2.08.33,4,4,0,0,0,2.13-.45,1.43,1.43,0,0,0,.69-1.27,1.16,1.16,0,0,0-.38-.91,2.57,2.57,0,0,0-1-.5,15.58,15.58,0,0,0-1.54-.33,17.16,17.16,0,0,1-2.06-.49,3.08,3.08,0,0,1-1.33-.85,2.34,2.34,0,0,1-.55-1.66,2.61,2.61,0,0,1,1.1-2.16,4.93,4.93,0,0,1,3.06-.84,7.94,7.94,0,0,1,2,.27,5.7,5.7,0,0,1,1.68.71l-.62,1.14a5.32,5.32,0,0,0-3.1-.9,3.59,3.59,0,0,0-2,.48,1.47,1.47,0,0,0-.69,1.26,1.24,1.24,0,0,0,.39,1,2.34,2.34,0,0,0,1,.53,14.2,14.2,0,0,0,1.6.35,18.6,18.6,0,0,1,2,.48,2.92,2.92,0,0,1,1.3.82,2.26,2.26,0,0,1,.54,1.6,2.54,2.54,0,0,1-1.15,2.19,5.47,5.47,0,0,1-3.19.81A8,8,0,0,1,873.71,166.51Z"/><path class="cls-5" d="M888.66,166.14a2.79,2.79,0,0,1-1,.55,3.86,3.86,0,0,1-1.23.19,3.09,3.09,0,0,1-2.28-.8,3.05,3.05,0,0,1-.8-2.26v-6.36h-1.88v-1.2h1.88V154h1.42v2.3H888v1.2h-3.2v6.28a2,2,0,0,0,.47,1.43,1.76,1.76,0,0,0,1.35.49,2.7,2.7,0,0,0,.85-.14,2,2,0,0,0,.71-.4Z"/><path class="cls-5" d="M898.08,157.21a4,4,0,0,1,1.1,3v6.52h-1.36v-1.64a3.26,3.26,0,0,1-1.41,1.28,4.9,4.9,0,0,1-2.21.46,4.33,4.33,0,0,1-2.8-.84,2.72,2.72,0,0,1-1-2.22,2.69,2.69,0,0,1,1-2.16,4.74,4.74,0,0,1,3.09-.82h3.34v-.64a2.69,2.69,0,0,0-.76-2.07,3.17,3.17,0,0,0-2.22-.71,5.62,5.62,0,0,0-1.92.33,4.81,4.81,0,0,0-1.58.91l-.64-1.06a5.73,5.73,0,0,1,1.92-1,7.38,7.38,0,0,1,2.36-.37A4.44,4.44,0,0,1,898.08,157.21Zm-1.6,8a3.33,3.33,0,0,0,1.28-1.59V161.9h-3.3c-1.8,0-2.7.63-2.7,1.88a1.71,1.71,0,0,0,.7,1.45,3.15,3.15,0,0,0,2,.53A3.71,3.71,0,0,0,896.48,165.21Z"/><path class="cls-5" d="M903.41,166.51a5.21,5.21,0,0,1-1.83-.93l.64-1.12a5.28,5.28,0,0,0,1.66.85,6.61,6.61,0,0,0,2.08.33,4,4,0,0,0,2.13-.45,1.43,1.43,0,0,0,.69-1.27,1.16,1.16,0,0,0-.38-.91,2.57,2.57,0,0,0-1-.5,15.58,15.58,0,0,0-1.54-.33,17.16,17.16,0,0,1-2.06-.49,3.08,3.08,0,0,1-1.33-.85,2.34,2.34,0,0,1-.55-1.66,2.61,2.61,0,0,1,1.1-2.16,4.93,4.93,0,0,1,3.06-.84,7.94,7.94,0,0,1,2,.27,5.7,5.7,0,0,1,1.68.71l-.62,1.14a5.32,5.32,0,0,0-3.1-.9,3.59,3.59,0,0,0-2,.48,1.47,1.47,0,0,0-.69,1.26,1.24,1.24,0,0,0,.39,1,2.34,2.34,0,0,0,1,.53,14.2,14.2,0,0,0,1.6.35,18.6,18.6,0,0,1,2,.48,2.92,2.92,0,0,1,1.3.82,2.26,2.26,0,0,1,.54,1.6,2.54,2.54,0,0,1-1.15,2.19,5.47,5.47,0,0,1-3.19.81A8,8,0,0,1,903.41,166.51Z"/><path class="cls-5" d="M782.66,281.54a5.44,5.44,0,0,1-2.21-1.32l.58-1.14a5.49,5.49,0,0,0,2,1.23,7.25,7.25,0,0,0,2.6.47,4.72,4.72,0,0,0,2.82-.69,2.11,2.11,0,0,0,.94-1.79,1.8,1.8,0,0,0-.51-1.34,3.43,3.43,0,0,0-1.25-.77c-.49-.18-1.18-.37-2.06-.59a20.2,20.2,0,0,1-2.52-.77,4.11,4.11,0,0,1-1.61-1.13,3,3,0,0,1-.67-2.06,3.54,3.54,0,0,1,.56-1.93,3.91,3.91,0,0,1,1.72-1.39,7.2,7.2,0,0,1,2.88-.52,8.44,8.44,0,0,1,2.35.33,6.89,6.89,0,0,1,2,.91l-.5,1.18a7.1,7.1,0,0,0-3.84-1.16,4.56,4.56,0,0,0-2.77.71,2.22,2.22,0,0,0-.93,1.83,1.82,1.82,0,0,0,.51,1.35,3.37,3.37,0,0,0,1.28.78c.52.18,1.21.38,2.07.59a23.15,23.15,0,0,1,2.49.75,4.07,4.07,0,0,1,1.61,1.12,3,3,0,0,1,.66,2,3.44,3.44,0,0,1-.57,1.93,3.81,3.81,0,0,1-1.75,1.38,7.28,7.28,0,0,1-2.9.51A8.85,8.85,0,0,1,782.66,281.54Z"/><path class="cls-5" d="M803.27,271.4v10.52h-1.36V280a3.81,3.81,0,0,1-1.54,1.49,4.55,4.55,0,0,1-2.24.53,4.07,4.07,0,0,1-4.44-4.52v-6.1h1.42v6a3.54,3.54,0,0,0,.82,2.52,3.07,3.07,0,0,0,2.34.86,3.41,3.41,0,0,0,2.62-1,3.91,3.91,0,0,0,1-2.81V271.4Z"/><path class="cls-5" d="M815.35,272a4.81,4.81,0,0,1,1.88,1.89,6.06,6.06,0,0,1,0,5.58,4.66,4.66,0,0,1-1.87,1.89,5.34,5.34,0,0,1-2.69.67,4.91,4.91,0,0,1-2.31-.53,4.33,4.33,0,0,1-1.69-1.55v5.86h-1.42V271.4h1.36v2.08a4.47,4.47,0,0,1,1.69-1.6,5,5,0,0,1,2.37-.56A5.46,5.46,0,0,1,815.35,272Zm-.78,8.26A3.58,3.58,0,0,0,816,278.8a4.72,4.72,0,0,0,0-4.27,3.71,3.71,0,0,0-1.41-1.45,4.13,4.13,0,0,0-4,0,3.75,3.75,0,0,0-1.4,1.45,4.72,4.72,0,0,0,0,4.27,3.62,3.62,0,0,0,1.4,1.45,4.2,4.2,0,0,0,4,0Z"/><path class="cls-5" d="M830,277.1h-8.8a3.74,3.74,0,0,0,1.26,2.65,4.15,4.15,0,0,0,2.88,1,4.38,4.38,0,0,0,1.8-.35,3.79,3.79,0,0,0,1.42-1l.8.92a4.5,4.5,0,0,1-1.75,1.28,6.3,6.3,0,0,1-5.18-.25,5,5,0,0,1-1.95-1.91,5.5,5.5,0,0,1-.7-2.76,5.75,5.75,0,0,1,.67-2.76,4.94,4.94,0,0,1,1.84-1.9,5.18,5.18,0,0,1,2.63-.68,5.12,5.12,0,0,1,2.62.68,4.86,4.86,0,0,1,1.82,1.89,5.7,5.7,0,0,1,.66,2.77Zm-7.63-3.59a3.83,3.83,0,0,0-1.17,2.53h7.46a3.79,3.79,0,0,0-1.17-2.53,3.86,3.86,0,0,0-5.12,0Z"/><path class="cls-5" d="M835.74,271.86a5.07,5.07,0,0,1,2.45-.54v1.38l-.34,0a3.36,3.36,0,0,0-2.6,1,4.06,4.06,0,0,0-.94,2.86v5.36h-1.42V271.4h1.36v2.06A3.46,3.46,0,0,1,835.74,271.86Z"/><path class="cls-5" d="M857,272.46a4.59,4.59,0,0,1,1.13,3.36v6.1h-1.42v-6a3.57,3.57,0,0,0-.79-2.5,2.89,2.89,0,0,0-2.23-.86,3.37,3.37,0,0,0-2.58,1,3.94,3.94,0,0,0-.94,2.79v5.52h-1.42v-6a3.57,3.57,0,0,0-.79-2.5,2.92,2.92,0,0,0-2.25-.86,3.37,3.37,0,0,0-2.57,1,4,4,0,0,0-1,2.79v5.52h-1.42V271.4h1.36v1.92a3.78,3.78,0,0,1,1.56-1.48,5,5,0,0,1,2.3-.52,4.54,4.54,0,0,1,2.29.56,3.47,3.47,0,0,1,1.45,1.66,4.16,4.16,0,0,1,1.67-1.63,5.2,5.2,0,0,1,2.49-.59A4.18,4.18,0,0,1,857,272.46Z"/><path class="cls-5" d="M871.17,277.1h-8.8a3.74,3.74,0,0,0,1.26,2.65,4.15,4.15,0,0,0,2.88,1,4.45,4.45,0,0,0,1.8-.35,3.79,3.79,0,0,0,1.42-1l.8.92a4.5,4.5,0,0,1-1.75,1.28,6.3,6.3,0,0,1-5.18-.25,5,5,0,0,1-2-1.91,5.39,5.39,0,0,1-.7-2.76,5.64,5.64,0,0,1,.67-2.76,4.94,4.94,0,0,1,1.84-1.9,5.18,5.18,0,0,1,2.63-.68,5.12,5.12,0,0,1,2.62.68,4.93,4.93,0,0,1,1.82,1.89,5.7,5.7,0,0,1,.66,2.77Zm-7.63-3.59a3.79,3.79,0,0,0-1.17,2.53h7.46a3.79,3.79,0,0,0-1.17-2.53,3.86,3.86,0,0,0-5.12,0Z"/><path class="cls-5" d="M876.94,271.86a5.07,5.07,0,0,1,2.45-.54v1.38l-.34,0a3.36,3.36,0,0,0-2.6,1,4.06,4.06,0,0,0-.94,2.86v5.36h-1.42V271.4h1.36v2.06A3.46,3.46,0,0,1,876.94,271.86Z"/><path class="cls-5" d="M883.42,281.34a4.92,4.92,0,0,1-1.93-1.91,5.81,5.81,0,0,1,0-5.53,5,5,0,0,1,1.93-1.9,5.71,5.71,0,0,1,2.79-.68,5.43,5.43,0,0,1,2.43.53,4.08,4.08,0,0,1,1.69,1.55l-1.06.72A3.36,3.36,0,0,0,888,273a3.9,3.9,0,0,0-1.74-.39,4.13,4.13,0,0,0-2.05.51,3.6,3.6,0,0,0-1.42,1.45,4.77,4.77,0,0,0,0,4.29,3.58,3.58,0,0,0,1.42,1.44,4.13,4.13,0,0,0,2.05.51,3.89,3.89,0,0,0,1.74-.38,3.26,3.26,0,0,0,1.32-1.16l1.06.72a4,4,0,0,1-1.7,1.55,5.34,5.34,0,0,1-2.42.53A5.6,5.6,0,0,1,883.42,281.34Z"/><path class="cls-5" d="M900,272.35a4,4,0,0,1,1.1,3v6.52h-1.36v-1.64a3.2,3.2,0,0,1-1.41,1.28,4.9,4.9,0,0,1-2.21.46,4.33,4.33,0,0,1-2.8-.84,2.72,2.72,0,0,1-1-2.22,2.69,2.69,0,0,1,1-2.16,4.8,4.8,0,0,1,3.09-.82h3.34v-.64a2.7,2.7,0,0,0-.76-2.07,3.17,3.17,0,0,0-2.22-.71,5.62,5.62,0,0,0-1.92.33,5,5,0,0,0-1.58.91l-.64-1.06a5.73,5.73,0,0,1,1.92-1.05,7.67,7.67,0,0,1,2.36-.37A4.48,4.48,0,0,1,900,272.35Zm-1.6,8a3.24,3.24,0,0,0,1.28-1.59V277h-3.3c-1.8,0-2.7.63-2.7,1.88a1.7,1.7,0,0,0,.7,1.45,3.15,3.15,0,0,0,2,.53A3.71,3.71,0,0,0,898.35,280.35Z"/><path class="cls-5" d="M914.55,267.08v14.84h-1.36v-2.08a4.31,4.31,0,0,1-1.69,1.62,4.88,4.88,0,0,1-2.37.56,5.26,5.26,0,0,1-2.68-.68,4.77,4.77,0,0,1-1.88-1.9,6,6,0,0,1,0-5.56,4.81,4.81,0,0,1,1.88-1.89,5.46,5.46,0,0,1,2.68-.67,5,5,0,0,1,2.31.53,4.41,4.41,0,0,1,1.69,1.55v-6.32Zm-3.31,13.17a3.62,3.62,0,0,0,1.4-1.45,4.74,4.74,0,0,0,0-4.28,3.69,3.69,0,0,0-1.4-1.45,4.18,4.18,0,0,0-4,0,3.69,3.69,0,0,0-1.4,1.45,4.74,4.74,0,0,0,0,4.28,3.62,3.62,0,0,0,1.4,1.45,4.18,4.18,0,0,0,4,0Z"/><path class="cls-5" d="M920.07,281.33a5,5,0,0,1-1.92-1.91,5.79,5.79,0,0,1,0-5.52,5.08,5.08,0,0,1,1.92-1.9,5.86,5.86,0,0,1,5.48,0,5,5,0,0,1,1.91,1.9,5.87,5.87,0,0,1,0,5.52,4.94,4.94,0,0,1-1.91,1.91,5.79,5.79,0,0,1-5.48,0Zm4.75-1.08a3.54,3.54,0,0,0,1.39-1.45,4.83,4.83,0,0,0,0-4.28,3.6,3.6,0,0,0-1.39-1.45,4.22,4.22,0,0,0-4,0,3.69,3.69,0,0,0-1.4,1.45,4.74,4.74,0,0,0,0,4.28,3.62,3.62,0,0,0,1.4,1.45,4.22,4.22,0,0,0,4,0Z"/><path class="cls-5" d="M931.42,281.65a5.05,5.05,0,0,1-1.83-.93l.64-1.12a5.28,5.28,0,0,0,1.66.85,6.61,6.61,0,0,0,2.08.33,4,4,0,0,0,2.13-.45,1.43,1.43,0,0,0,.69-1.27,1.16,1.16,0,0,0-.38-.91,2.57,2.57,0,0,0-1-.5,15.58,15.58,0,0,0-1.54-.33,17.16,17.16,0,0,1-2.06-.49,3,3,0,0,1-1.33-.85,2.34,2.34,0,0,1-.55-1.66,2.61,2.61,0,0,1,1.1-2.16,4.93,4.93,0,0,1,3.06-.84,7.94,7.94,0,0,1,2,.27,5.7,5.7,0,0,1,1.68.71l-.62,1.14a5.32,5.32,0,0,0-3.1-.9,3.59,3.59,0,0,0-2,.48,1.47,1.47,0,0,0-.69,1.26,1.24,1.24,0,0,0,.39,1,2.34,2.34,0,0,0,1,.53,14.2,14.2,0,0,0,1.6.35,18.6,18.6,0,0,1,2,.48,3,3,0,0,1,1.3.82,2.26,2.26,0,0,1,.54,1.6,2.54,2.54,0,0,1-1.15,2.19,5.47,5.47,0,0,1-3.19.81A8,8,0,0,1,931.42,281.65Z"/><polygon class="cls-6" points="945.65 295.26 10.87 295.26 10.87 335.07 919.09 335.07 945.65 295.26"/><path class="cls-7" d="M846.54,443.8l46-68.92H10.87l-.22,38.21a2.88,2.88,0,0,0,2.89,2.9H829.68a15.53,15.53,0,0,1,15.53,15.54V443.4A.73.73,0,0,0,846.54,443.8Z"/><polygon class="cls-8" points="919.09 335.07 10.87 335.07 10.87 374.88 892.53 374.88 919.09 335.07"/><path class="cls-5" d="M464.6,309.8v5.5h7.24v1.28H464.6v5.94h-1.48v-14h9.6v1.28Z"/><path class="cls-5" d="M475.48,307.68h1.42v14.84h-1.42Z"/><path class="cls-5" d="M490.34,312v10.52H489V320.6a3.81,3.81,0,0,1-1.54,1.49,4.55,4.55,0,0,1-2.24.53,4.07,4.07,0,0,1-4.44-4.52V312h1.42v6a3.54,3.54,0,0,0,.82,2.52,3.07,3.07,0,0,0,2.34.86,3.41,3.41,0,0,0,2.62-1,3.91,3.91,0,0,0,1-2.81V312Z"/><path class="cls-5" d="M491.51,326.33a2.43,2.43,0,0,1-1-.51l.5-1.08a2.42,2.42,0,0,0,1.64.54,1.62,1.62,0,0,0,1.29-.5,2.13,2.13,0,0,0,.45-1.48V312h1.42v11.3a3.26,3.26,0,0,1-.8,2.34,2.93,2.93,0,0,1-2.28.86A4.29,4.29,0,0,1,491.51,326.33Zm2.89-16.95a1,1,0,0,1-.3-.72,1,1,0,0,1,.3-.7,1,1,0,0,1,.74-.3,1,1,0,0,1,.74.29,1,1,0,0,1,.3.69,1,1,0,0,1-1,1A1,1,0,0,1,494.4,309.38Z"/><path class="cls-5" d="M501.36,321.93a5,5,0,0,1-1.92-1.91,5.79,5.79,0,0,1,0-5.52,5.08,5.08,0,0,1,1.92-1.9,5.86,5.86,0,0,1,5.48,0,4.91,4.91,0,0,1,1.91,1.9,5.86,5.86,0,0,1,0,5.52,4.87,4.87,0,0,1-1.91,1.91,5.79,5.79,0,0,1-5.48,0Zm4.75-1.08a3.47,3.47,0,0,0,1.39-1.45,4.83,4.83,0,0,0,0-4.28,3.53,3.53,0,0,0-1.39-1.45,4,4,0,0,0-2-.51,4,4,0,0,0-2,.51,3.69,3.69,0,0,0-1.4,1.45,4.74,4.74,0,0,0,0,4.28,3.62,3.62,0,0,0,1.4,1.45,4,4,0,0,0,2,.51A4,4,0,0,0,506.11,320.85Z"/><path class="cls-5" d="M527.18,307.68v14.84h-1.36v-2.08a4.24,4.24,0,0,1-1.69,1.62,4.88,4.88,0,0,1-2.37.56,5.29,5.29,0,0,1-2.68-.68,4.84,4.84,0,0,1-1.88-1.9,6,6,0,0,1,0-5.56,4.88,4.88,0,0,1,1.88-1.89,5.49,5.49,0,0,1,2.68-.67,5,5,0,0,1,2.31.53,4.41,4.41,0,0,1,1.69,1.55v-6.32Zm-3.31,13.17a3.56,3.56,0,0,0,1.4-1.45,4.74,4.74,0,0,0,0-4.28,3.62,3.62,0,0,0-1.4-1.45,3.9,3.9,0,0,0-2-.51,4,4,0,0,0-2,.51,3.69,3.69,0,0,0-1.4,1.45,4.74,4.74,0,0,0,0,4.28,3.62,3.62,0,0,0,1.4,1.45,4,4,0,0,0,2,.51A3.9,3.9,0,0,0,523.87,320.85Z"/><path class="cls-5" d="M540.3,317.7h-8.8a3.74,3.74,0,0,0,1.26,2.65,4.15,4.15,0,0,0,2.88,1,4.38,4.38,0,0,0,1.8-.35,3.79,3.79,0,0,0,1.42-1l.8.92a4.42,4.42,0,0,1-1.75,1.28,6.3,6.3,0,0,1-5.18-.25,5,5,0,0,1-2-1.91,5.5,5.5,0,0,1-.7-2.76,5.75,5.75,0,0,1,.67-2.76,4.94,4.94,0,0,1,1.84-1.9,5.18,5.18,0,0,1,2.63-.68,5.09,5.09,0,0,1,2.62.68,4.86,4.86,0,0,1,1.82,1.89,5.7,5.7,0,0,1,.66,2.77Zm-7.63-3.59a3.88,3.88,0,0,0-1.17,2.53H539a3.79,3.79,0,0,0-1.17-2.53,3.86,3.86,0,0,0-5.12,0Z"/><path class="cls-5" d="M564.69,313.06a4.55,4.55,0,0,1,1.13,3.36v6.1H564.4v-6a3.57,3.57,0,0,0-.79-2.5,2.88,2.88,0,0,0-2.23-.86,3.37,3.37,0,0,0-2.58,1,4,4,0,0,0-.94,2.79v5.52h-1.42v-6a3.57,3.57,0,0,0-.79-2.5,2.89,2.89,0,0,0-2.25-.86,3.38,3.38,0,0,0-2.57,1,4,4,0,0,0-1,2.79v5.52h-1.42V312h1.36v1.92a3.9,3.9,0,0,1,1.56-1.48,5,5,0,0,1,2.3-.52,4.52,4.52,0,0,1,2.29.56,3.47,3.47,0,0,1,1.45,1.66,4.23,4.23,0,0,1,1.67-1.63,5.2,5.2,0,0,1,2.49-.59A4.18,4.18,0,0,1,564.69,313.06Z"/><path class="cls-5" d="M576.52,313a4,4,0,0,1,1.1,3.05v6.52h-1.36v-1.64a3.2,3.2,0,0,1-1.41,1.28,4.87,4.87,0,0,1-2.21.46,4.35,4.35,0,0,1-2.8-.84,2.89,2.89,0,0,1-.07-4.38,4.8,4.8,0,0,1,3.09-.82h3.34v-.64a2.7,2.7,0,0,0-.76-2.07,3.13,3.13,0,0,0-2.22-.71,5.7,5.7,0,0,0-1.92.33,5,5,0,0,0-1.58.91l-.64-1.06a5.93,5.93,0,0,1,1.92-1,7.72,7.72,0,0,1,2.36-.37A4.47,4.47,0,0,1,576.52,313Zm-1.6,8a3.19,3.19,0,0,0,1.28-1.59v-1.72h-3.3c-1.8,0-2.7.63-2.7,1.88a1.72,1.72,0,0,0,.7,1.45,3.15,3.15,0,0,0,2,.53A3.71,3.71,0,0,0,574.92,321Z"/><path class="cls-5" d="M587,321.88a2.5,2.5,0,0,1-1,.55,3.86,3.86,0,0,1-1.23.19,2.79,2.79,0,0,1-3.08-3.06V313.2h-1.88V312h1.88v-2.3h1.42V312h3.2v1.2h-3.2v6.28a2,2,0,0,0,.47,1.43,1.79,1.79,0,0,0,1.35.49,2.41,2.41,0,0,0,.85-.14,1.9,1.9,0,0,0,.71-.4Z"/><path class="cls-5" d="M598.38,317.7h-8.8a3.74,3.74,0,0,0,1.26,2.65,4.15,4.15,0,0,0,2.88,1,4.38,4.38,0,0,0,1.8-.35,3.79,3.79,0,0,0,1.42-1l.8.92a4.42,4.42,0,0,1-1.75,1.28,6.3,6.3,0,0,1-5.18-.25,5,5,0,0,1-1.95-1.91,5.5,5.5,0,0,1-.7-2.76,5.75,5.75,0,0,1,.67-2.76,4.94,4.94,0,0,1,1.84-1.9,5.18,5.18,0,0,1,2.63-.68,5.09,5.09,0,0,1,2.62.68,4.86,4.86,0,0,1,1.82,1.89,5.7,5.7,0,0,1,.66,2.77Zm-7.63-3.59a3.88,3.88,0,0,0-1.17,2.53H597a3.79,3.79,0,0,0-1.17-2.53,3.86,3.86,0,0,0-5.12,0Z"/><path class="cls-5" d="M604.15,312.46a5.07,5.07,0,0,1,2.45-.54v1.38l-.34,0a3.37,3.37,0,0,0-2.6,1,4.11,4.11,0,0,0-.94,2.86v5.36H601.3V312h1.36v2.06A3.51,3.51,0,0,1,604.15,312.46Z"/><path class="cls-5" d="M609.14,309.4a1,1,0,0,1-.3-.72,1,1,0,0,1,.3-.7,1,1,0,0,1,.74-.3,1,1,0,0,1,.74.29,1,1,0,0,1,.3.69,1,1,0,0,1-.3.74,1.06,1.06,0,0,1-1.48,0Zm0,2.6h1.42v10.52h-1.42Z"/><path class="cls-5" d="M621.38,313a4,4,0,0,1,1.1,3.05v6.52h-1.36v-1.64a3.2,3.2,0,0,1-1.41,1.28,4.9,4.9,0,0,1-2.21.46,4.33,4.33,0,0,1-2.8-.84,2.89,2.89,0,0,1-.07-4.38,4.8,4.8,0,0,1,3.09-.82h3.34v-.64a2.7,2.7,0,0,0-.76-2.07,3.15,3.15,0,0,0-2.22-.71,5.66,5.66,0,0,0-1.92.33,5,5,0,0,0-1.58.91l-.64-1.06a5.73,5.73,0,0,1,1.92-1,7.67,7.67,0,0,1,2.36-.37A4.48,4.48,0,0,1,621.38,313Zm-1.6,8a3.24,3.24,0,0,0,1.28-1.59v-1.72h-3.3c-1.8,0-2.7.63-2.7,1.88a1.72,1.72,0,0,0,.7,1.45,3.15,3.15,0,0,0,2,.53A3.71,3.71,0,0,0,619.78,321Z"/><path class="cls-5" d="M626.34,307.68h1.42v14.84h-1.42Z"/><path class="cls-5" d="M640.88,317.7h-8.8a3.74,3.74,0,0,0,1.26,2.65,4.15,4.15,0,0,0,2.88,1A4.45,4.45,0,0,0,638,321a3.79,3.79,0,0,0,1.42-1l.8.92a4.5,4.5,0,0,1-1.75,1.28,6.3,6.3,0,0,1-5.18-.25,5,5,0,0,1-1.95-1.91,5.39,5.39,0,0,1-.7-2.76,5.64,5.64,0,0,1,.67-2.76,4.94,4.94,0,0,1,1.84-1.9,5.18,5.18,0,0,1,2.63-.68,5.12,5.12,0,0,1,2.62.68,4.93,4.93,0,0,1,1.82,1.89,5.7,5.7,0,0,1,.66,2.77Zm-7.63-3.59a3.79,3.79,0,0,0-1.17,2.53h7.46a3.79,3.79,0,0,0-1.17-2.53,3.86,3.86,0,0,0-5.12,0Z"/><path class="cls-5" d="M644.17,322.25a5.05,5.05,0,0,1-1.83-.93l.64-1.12a5.28,5.28,0,0,0,1.66.85,6.61,6.61,0,0,0,2.08.33,4,4,0,0,0,2.13-.45,1.43,1.43,0,0,0,.69-1.27,1.16,1.16,0,0,0-.38-.91,2.57,2.57,0,0,0-1-.5,15.58,15.58,0,0,0-1.54-.33,17.16,17.16,0,0,1-2.06-.49,3,3,0,0,1-1.33-.85,2.34,2.34,0,0,1-.55-1.66,2.61,2.61,0,0,1,1.1-2.16,4.93,4.93,0,0,1,3.06-.84,7.94,7.94,0,0,1,2,.27,5.7,5.7,0,0,1,1.68.71L650,314a5.32,5.32,0,0,0-3.1-.9,3.59,3.59,0,0,0-2,.48,1.47,1.47,0,0,0-.69,1.26,1.24,1.24,0,0,0,.39,1,2.34,2.34,0,0,0,1,.53,14.2,14.2,0,0,0,1.6.35,18.6,18.6,0,0,1,2,.48,3,3,0,0,1,1.3.82,2.26,2.26,0,0,1,.54,1.6,2.54,2.54,0,0,1-1.15,2.19,5.47,5.47,0,0,1-3.19.81A8,8,0,0,1,644.17,322.25Z"/><path class="cls-5" d="M456.31,350.11v5.5h7.24v1.28h-7.24v5.94h-1.48v-14h9.6v1.28Z"/><path class="cls-5" d="M467.19,348h1.42v14.84h-1.42Z"/><path class="cls-5" d="M482.05,352.31v10.52h-1.36v-1.92a3.87,3.87,0,0,1-1.54,1.49,4.66,4.66,0,0,1-2.24.53,4.07,4.07,0,0,1-4.44-4.52v-6.1h1.42v6a3.57,3.57,0,0,0,.82,2.52,3.1,3.1,0,0,0,2.34.86,3.45,3.45,0,0,0,2.62-1,3.93,3.93,0,0,0,1-2.81v-5.52Z"/><path class="cls-5" d="M483.22,366.64a2.71,2.71,0,0,1-1-.51l.5-1.08a2.42,2.42,0,0,0,1.64.54,1.66,1.66,0,0,0,1.29-.5,2.16,2.16,0,0,0,.45-1.48v-11.3h1.42v11.3a3.29,3.29,0,0,1-.8,2.34,3,3,0,0,1-2.28.86A4.66,4.66,0,0,1,483.22,366.64Zm2.89-16.95a1,1,0,0,1-.3-.72,1,1,0,0,1,.3-.7,1,1,0,0,1,.74-.3,1,1,0,0,1,.74.29.92.92,0,0,1,.3.69,1,1,0,0,1-.3.74,1,1,0,0,1-.74.3A1,1,0,0,1,486.11,349.69Z"/><path class="cls-5" d="M493.07,362.24a5.1,5.1,0,0,1-1.92-1.91,5.79,5.79,0,0,1,0-5.52,4.94,4.94,0,0,1,1.92-1.9,5.86,5.86,0,0,1,5.48,0,4.78,4.78,0,0,1,1.91,1.9,5.86,5.86,0,0,1,0,5.52,4.94,4.94,0,0,1-1.91,1.91,5.79,5.79,0,0,1-5.48,0Zm4.75-1.08a3.53,3.53,0,0,0,1.39-1.45,4.83,4.83,0,0,0,0-4.28,3.47,3.47,0,0,0-1.39-1.45,4,4,0,0,0-2-.51,4,4,0,0,0-2,.51,3.62,3.62,0,0,0-1.4,1.45,4.74,4.74,0,0,0,0,4.28,3.69,3.69,0,0,0,1.4,1.45,4,4,0,0,0,2,.51A4,4,0,0,0,497.82,361.16Z"/><path class="cls-5" d="M518.89,348v14.84h-1.36v-2.08a4.38,4.38,0,0,1-1.69,1.62,5,5,0,0,1-2.37.56,5.39,5.39,0,0,1-2.68-.68,5,5,0,0,1-1.88-1.9,6,6,0,0,1,0-5.56,4.75,4.75,0,0,1,1.88-1.89,5.39,5.39,0,0,1,2.68-.67,4.86,4.86,0,0,1,2.31.53,4.33,4.33,0,0,1,1.69,1.55V348Zm-3.31,13.17a3.62,3.62,0,0,0,1.4-1.45,4.74,4.74,0,0,0,0-4.28,3.56,3.56,0,0,0-1.4-1.45,3.9,3.9,0,0,0-2-.51,4,4,0,0,0-2,.51,3.62,3.62,0,0,0-1.4,1.45,4.74,4.74,0,0,0,0,4.28,3.69,3.69,0,0,0,1.4,1.45,4,4,0,0,0,2,.51A3.9,3.9,0,0,0,515.58,361.16Z"/><path class="cls-5" d="M532,358h-8.8a3.78,3.78,0,0,0,1.26,2.65,4.2,4.2,0,0,0,2.88,1,4.55,4.55,0,0,0,1.8-.35,4,4,0,0,0,1.42-1l.8.92a4.52,4.52,0,0,1-1.75,1.28,6,6,0,0,1-2.31.44,5.86,5.86,0,0,1-2.87-.69,5,5,0,0,1-2-1.91,5.55,5.55,0,0,1-.7-2.76,5.69,5.69,0,0,1,.67-2.76,4.81,4.81,0,0,1,1.84-1.9,5.08,5.08,0,0,1,2.63-.68,5,5,0,0,1,2.62.68,4.73,4.73,0,0,1,1.82,1.89,5.67,5.67,0,0,1,.66,2.77Zm-7.63-3.59a3.86,3.86,0,0,0-1.17,2.53h7.46a3.77,3.77,0,0,0-1.17-2.53,3.86,3.86,0,0,0-5.12,0Z"/><path class="cls-5" d="M540.15,349.71a1,1,0,0,1-.3-.72,1,1,0,0,1,.3-.7,1,1,0,0,1,.74-.3,1,1,0,0,1,.74.29.92.92,0,0,1,.3.69,1,1,0,0,1-.3.74,1,1,0,0,1-.74.3A1,1,0,0,1,540.15,349.71Zm0,2.6h1.42v10.52h-1.42Z"/><path class="cls-5" d="M554.06,353.38a4.48,4.48,0,0,1,1.17,3.35v6.1h-1.42v-6a3.46,3.46,0,0,0-.82-2.5,3,3,0,0,0-2.34-.86,3.57,3.57,0,0,0-2.69,1,3.8,3.8,0,0,0-1,2.79v5.52h-1.42V352.31h1.36v1.94a4,4,0,0,1,1.61-1.49,5.1,5.1,0,0,1,2.39-.53A4.28,4.28,0,0,1,554.06,353.38Z"/><path class="cls-5" d="M561.18,349.59a2.09,2.09,0,0,0-.47,1.48v1.24H564v1.2h-3.2v9.32h-1.42v-9.32h-1.88v-1.2h1.88V351a3.12,3.12,0,0,1,.83-2.28,3.17,3.17,0,0,1,2.35-.84,3.75,3.75,0,0,1,1.16.17,2.4,2.4,0,0,1,.94.49l-.48,1.06a2.32,2.32,0,0,0-1.56-.52A1.81,1.81,0,0,0,561.18,349.59Z"/><path class="cls-5" d="M567.25,362.24a5.1,5.1,0,0,1-1.92-1.91,5.79,5.79,0,0,1,0-5.52,4.94,4.94,0,0,1,1.92-1.9,5.86,5.86,0,0,1,5.48,0,4.78,4.78,0,0,1,1.91,1.9,5.86,5.86,0,0,1,0,5.52,4.94,4.94,0,0,1-1.91,1.91,5.79,5.79,0,0,1-5.48,0Zm4.75-1.08a3.53,3.53,0,0,0,1.39-1.45,4.83,4.83,0,0,0,0-4.28A3.47,3.47,0,0,0,572,354a4,4,0,0,0-2-.51,4,4,0,0,0-2,.51,3.62,3.62,0,0,0-1.4,1.45,4.74,4.74,0,0,0,0,4.28,3.69,3.69,0,0,0,1.4,1.45,4,4,0,0,0,2,.51A4,4,0,0,0,572,361.16Z"/><path class="cls-5" d="M581.08,352.77a5.07,5.07,0,0,1,2.45-.54v1.38l-.34,0a3.37,3.37,0,0,0-2.6,1,4.09,4.09,0,0,0-.94,2.86v5.36h-1.42V352.31h1.36v2.06A3.46,3.46,0,0,1,581.08,352.77Z"/><path class="cls-5" d="M602.32,353.37a4.55,4.55,0,0,1,1.13,3.36v6.1H602v-6a3.54,3.54,0,0,0-.79-2.5,2.84,2.84,0,0,0-2.23-.86,3.34,3.34,0,0,0-2.58,1,4,4,0,0,0-.94,2.79v5.52h-1.42v-6a3.54,3.54,0,0,0-.79-2.5,2.86,2.86,0,0,0-2.25-.86,3.35,3.35,0,0,0-2.57,1,3.91,3.91,0,0,0-1,2.79v5.52h-1.42V352.31h1.36v1.92a3.83,3.83,0,0,1,1.56-1.48,4.9,4.9,0,0,1,2.3-.52,4.42,4.42,0,0,1,2.29.56,3.38,3.38,0,0,1,1.45,1.66,4.1,4.1,0,0,1,1.67-1.63,5.09,5.09,0,0,1,2.49-.59A4.18,4.18,0,0,1,602.32,353.37Z"/><path class="cls-5" d="M614.15,353.26a3.94,3.94,0,0,1,1.1,3.05v6.52h-1.36v-1.64a3.32,3.32,0,0,1-1.41,1.28,5,5,0,0,1-2.21.46,4.35,4.35,0,0,1-2.8-.84,2.72,2.72,0,0,1-1-2.22,2.69,2.69,0,0,1,1-2.16,4.74,4.74,0,0,1,3.09-.82h3.34v-.64a2.67,2.67,0,0,0-.76-2.07,3.09,3.09,0,0,0-2.22-.71,5.7,5.7,0,0,0-1.92.33,4.81,4.81,0,0,0-1.58.91l-.64-1.06a5.57,5.57,0,0,1,1.92-1,7.43,7.43,0,0,1,2.36-.37A4.42,4.42,0,0,1,614.15,353.26Zm-1.6,8a3.28,3.28,0,0,0,1.28-1.59V358h-3.3c-1.8,0-2.7.62-2.7,1.88a1.75,1.75,0,0,0,.7,1.45,3.22,3.22,0,0,0,2,.53A3.79,3.79,0,0,0,612.55,361.26Z"/><path class="cls-5" d="M620.72,362.25a5,5,0,0,1-1.93-1.91,5.48,5.48,0,0,1-.7-2.77,5.39,5.39,0,0,1,.7-2.76,4.9,4.9,0,0,1,1.93-1.9,5.6,5.6,0,0,1,2.79-.68,5.3,5.3,0,0,1,2.43.53,4,4,0,0,1,1.69,1.55l-1.06.72a3.23,3.23,0,0,0-1.32-1.17,3.9,3.9,0,0,0-1.74-.39,4.13,4.13,0,0,0-2,.51,3.61,3.61,0,0,0-1.42,1.45,4.77,4.77,0,0,0,0,4.29,3.64,3.64,0,0,0,1.42,1.44,4.13,4.13,0,0,0,2,.51,4,4,0,0,0,1.74-.38,3.21,3.21,0,0,0,1.32-1.16l1.06.72a4,4,0,0,1-1.7,1.55,5.48,5.48,0,0,1-2.42.53A5.71,5.71,0,0,1,620.72,362.25Z"/><path class="cls-5" d="M630.39,349.71a1,1,0,0,1-.3-.72,1,1,0,0,1,.3-.7,1.08,1.08,0,0,1,1.48,0,.92.92,0,0,1,.3.69,1,1,0,0,1-1.78.74Zm0,2.6h1.42v10.52h-1.42Z"/><path class="cls-5" d="M637.35,362.24a5.1,5.1,0,0,1-1.92-1.91,5.79,5.79,0,0,1,0-5.52,4.94,4.94,0,0,1,1.92-1.9,5.86,5.86,0,0,1,5.48,0,4.85,4.85,0,0,1,1.91,1.9,5.87,5.87,0,0,1,0,5.52,5,5,0,0,1-1.91,1.91,5.79,5.79,0,0,1-5.48,0Zm4.75-1.08a3.6,3.6,0,0,0,1.39-1.45,4.83,4.83,0,0,0,0-4.28A3.54,3.54,0,0,0,642.1,354a4.22,4.22,0,0,0-4,0,3.62,3.62,0,0,0-1.4,1.45,4.74,4.74,0,0,0,0,4.28,3.69,3.69,0,0,0,1.4,1.45,4.22,4.22,0,0,0,4,0Zm-.59-13h1.9l-3.24,2.48h-1.4Z"/><path class="cls-5" d="M656.84,353.38a4.48,4.48,0,0,1,1.17,3.35v6.1h-1.42v-6a3.46,3.46,0,0,0-.82-2.5,3.07,3.07,0,0,0-2.34-.86,3.57,3.57,0,0,0-2.69,1,3.8,3.8,0,0,0-1,2.79v5.52h-1.42V352.31h1.36v1.94a3.93,3.93,0,0,1,1.61-1.49,5.07,5.07,0,0,1,2.39-.53A4.28,4.28,0,0,1,656.84,353.38Z"/><path class="cls-5" d="M484.71,391.4v5.5H492v1.28h-7.24v5.94h-1.48v-14h9.6v1.28Z"/><path class="cls-5" d="M495.59,389.28H497v14.84h-1.42Z"/><path class="cls-5" d="M510.45,393.6v10.52h-1.36V402.2a3.81,3.81,0,0,1-1.54,1.49,4.66,4.66,0,0,1-2.24.53,4.07,4.07,0,0,1-4.44-4.52v-6.1h1.42v6a3.54,3.54,0,0,0,.82,2.52,3.1,3.1,0,0,0,2.34.86,3.45,3.45,0,0,0,2.62-1,3.91,3.91,0,0,0,1-2.81V393.6Z"/><path class="cls-5" d="M511.62,407.93a2.43,2.43,0,0,1-1-.51l.5-1.08a2.42,2.42,0,0,0,1.64.54,1.66,1.66,0,0,0,1.29-.5,2.15,2.15,0,0,0,.45-1.48V393.6H516v11.3a3.26,3.26,0,0,1-.8,2.34,3,3,0,0,1-2.28.86A4.66,4.66,0,0,1,511.62,407.93ZM514.51,391a1,1,0,0,1-.3-.72,1,1,0,0,1,.3-.7,1,1,0,0,1,.74-.3,1,1,0,0,1,.74.29.92.92,0,0,1,.3.69,1,1,0,0,1-.3.74,1,1,0,0,1-.74.3A1,1,0,0,1,514.51,391Z"/><path class="cls-5" d="M521.47,403.53a5.1,5.1,0,0,1-1.92-1.91,5.79,5.79,0,0,1,0-5.52,5,5,0,0,1,1.92-1.9,5.86,5.86,0,0,1,5.48,0,4.85,4.85,0,0,1,1.91,1.9,5.87,5.87,0,0,1,0,5.52,4.94,4.94,0,0,1-1.91,1.91,5.79,5.79,0,0,1-5.48,0Zm4.75-1.08a3.47,3.47,0,0,0,1.39-1.45,4.83,4.83,0,0,0,0-4.28,3.47,3.47,0,0,0-1.39-1.45,4,4,0,0,0-2-.51,4,4,0,0,0-2,.51,3.62,3.62,0,0,0-1.4,1.45,4.74,4.74,0,0,0,0,4.28,3.62,3.62,0,0,0,1.4,1.45,4,4,0,0,0,2,.51A4,4,0,0,0,526.22,402.45Z"/><path class="cls-5" d="M547.29,389.28v14.84h-1.36V402a4.24,4.24,0,0,1-1.69,1.62,5,5,0,0,1-2.37.56,5.39,5.39,0,0,1-2.68-.68,4.9,4.9,0,0,1-1.88-1.9,6,6,0,0,1,0-5.56,4.88,4.88,0,0,1,1.88-1.89,5.39,5.39,0,0,1,2.68-.67,5,5,0,0,1,2.31.53,4.33,4.33,0,0,1,1.69,1.55v-6.32ZM544,402.45a3.56,3.56,0,0,0,1.4-1.45,4.74,4.74,0,0,0,0-4.28,3.56,3.56,0,0,0-1.4-1.45,3.9,3.9,0,0,0-2-.51,4,4,0,0,0-2,.51,3.62,3.62,0,0,0-1.4,1.45,4.74,4.74,0,0,0,0,4.28,3.62,3.62,0,0,0,1.4,1.45,4,4,0,0,0,2,.51A3.9,3.9,0,0,0,544,402.45Z"/><path class="cls-5" d="M560.41,399.3h-8.8a3.76,3.76,0,0,0,1.26,2.65,4.2,4.2,0,0,0,2.88,1,4.55,4.55,0,0,0,1.8-.35,3.9,3.9,0,0,0,1.42-1l.8.92a4.42,4.42,0,0,1-1.75,1.28,6,6,0,0,1-2.31.44,5.86,5.86,0,0,1-2.87-.69,5,5,0,0,1-2-1.91,5.5,5.5,0,0,1-.7-2.76,5.69,5.69,0,0,1,.67-2.76,4.87,4.87,0,0,1,1.84-1.9,5.18,5.18,0,0,1,2.63-.68,5.09,5.09,0,0,1,2.62.68,4.73,4.73,0,0,1,1.82,1.89,5.7,5.7,0,0,1,.66,2.77Zm-7.63-3.59a3.88,3.88,0,0,0-1.17,2.53h7.46a3.79,3.79,0,0,0-1.17-2.53,3.86,3.86,0,0,0-5.12,0Z"/><path class="cls-5" d="M578.17,389.28v14.84h-1.36V402a4.24,4.24,0,0,1-1.69,1.62,5,5,0,0,1-2.37.56,5.39,5.39,0,0,1-2.68-.68,4.9,4.9,0,0,1-1.88-1.9,6,6,0,0,1,0-5.56,4.88,4.88,0,0,1,1.88-1.89,5.39,5.39,0,0,1,2.68-.67,5,5,0,0,1,2.31.53,4.33,4.33,0,0,1,1.69,1.55v-6.32Zm-3.31,13.17a3.56,3.56,0,0,0,1.4-1.45,4.74,4.74,0,0,0,0-4.28,3.56,3.56,0,0,0-1.4-1.45,3.9,3.9,0,0,0-2-.51,4,4,0,0,0-2,.51,3.62,3.62,0,0,0-1.4,1.45,4.74,4.74,0,0,0,0,4.28,3.62,3.62,0,0,0,1.4,1.45,4,4,0,0,0,2,.51A3.9,3.9,0,0,0,574.86,402.45Z"/><path class="cls-5" d="M582.11,391a1,1,0,0,1-.3-.72,1,1,0,0,1,.3-.7,1,1,0,0,1,.74-.3,1,1,0,0,1,.74.29.92.92,0,0,1,.3.69,1,1,0,0,1-.3.74,1,1,0,0,1-.74.3A1,1,0,0,1,582.11,391Zm0,2.6h1.42v10.52h-1.42Z"/><path class="cls-5" d="M596,394.67a4.49,4.49,0,0,1,1.17,3.35v6.1h-1.42v-6a3.47,3.47,0,0,0-.82-2.5,3.07,3.07,0,0,0-2.34-.86,3.61,3.61,0,0,0-2.69,1,3.8,3.8,0,0,0-1,2.79v5.52h-1.42V393.6h1.36v1.94a4,4,0,0,1,1.61-1.49,5.22,5.22,0,0,1,2.39-.53A4.28,4.28,0,0,1,596,394.67Z"/><path class="cls-5" d="M610.25,399.3h-8.8a3.76,3.76,0,0,0,1.26,2.65,4.2,4.2,0,0,0,2.88,1,4.55,4.55,0,0,0,1.8-.35,3.9,3.9,0,0,0,1.42-1l.8.92a4.42,4.42,0,0,1-1.75,1.28,6,6,0,0,1-2.31.44,5.86,5.86,0,0,1-2.87-.69,5,5,0,0,1-1.95-1.91,5.5,5.5,0,0,1-.7-2.76,5.69,5.69,0,0,1,.67-2.76,4.87,4.87,0,0,1,1.84-1.9,5.18,5.18,0,0,1,2.63-.68,5.09,5.09,0,0,1,2.62.68,4.73,4.73,0,0,1,1.82,1.89,5.7,5.7,0,0,1,.66,2.77Zm-7.63-3.59a3.88,3.88,0,0,0-1.17,2.53h7.46a3.79,3.79,0,0,0-1.17-2.53,3.86,3.86,0,0,0-5.12,0Z"/><path class="cls-5" d="M616,394.06a5.07,5.07,0,0,1,2.45-.54v1.38l-.34,0a3.37,3.37,0,0,0-2.6,1,4,4,0,0,0-.94,2.86v5.36h-1.42V393.6h1.36v2.06A3.41,3.41,0,0,1,616,394.06Z"/><path class="cls-5" d="M622.49,403.53a5.1,5.1,0,0,1-1.92-1.91,5.79,5.79,0,0,1,0-5.52,5,5,0,0,1,1.92-1.9,5.86,5.86,0,0,1,5.48,0,4.85,4.85,0,0,1,1.91,1.9,5.86,5.86,0,0,1,0,5.52,4.94,4.94,0,0,1-1.91,1.91,5.79,5.79,0,0,1-5.48,0Zm4.75-1.08a3.47,3.47,0,0,0,1.39-1.45,4.83,4.83,0,0,0,0-4.28,3.47,3.47,0,0,0-1.39-1.45,4,4,0,0,0-2-.51,4,4,0,0,0-2,.51,3.62,3.62,0,0,0-1.4,1.45,4.74,4.74,0,0,0,0,4.28,3.62,3.62,0,0,0,1.4,1.45,4,4,0,0,0,2,.51A4,4,0,0,0,627.24,402.45Z"/><polygon class="cls-9" points="1083.39 217.17 1053.06 227.21 1023.59 218.01 1053.06 208.07 1083.39 217.17"/><polygon class="cls-10" points="1034.32 220.88 1043.35 223.94 1071.03 214.08 1061.42 210.59 1034.32 220.88"/><polygon class="cls-11" points="1053.06 227.21 1053.06 258.87 1023.59 249.92 1023.59 218.01 1053.06 227.21"/><polygon class="cls-12" points="1033.33 220.88 1033.33 230.58 1043.35 234.34 1043.35 223.94 1033.33 220.88"/><polygon class="cls-13" points="1053.06 227.21 1053.06 258.87 1083.39 248.82 1083.39 217.17 1053.06 227.21"/><path class="cls-14" d="M1073.74,263.42v15.24s-13.52,6.31-20.34,6.53-31.18-10.89-31.18-10.89-1.69-1.18,0-3.95a4.2,4.2,0,0,1,4.78-1.78l10.77,5s-.48-6.36,2.68-6.16,13,0,13,0A27.64,27.64,0,0,1,1073.74,263.42Z"/><rect class="cls-15" x="1084.58" y="264.21" width="8.3" height="15.23"/><path class="cls-16" d="M1021.22,270.35a5,5,0,0,0,.08,3.89,4.92,4.92,0,0,0,2.77,2.64l20.94,8a23.47,23.47,0,0,0,17.25-.19l10.12-4.2V281a1.36,1.36,0,0,0,1.36,1.36h10.84a1.36,1.36,0,0,0,1.36-1.36h6.78a1.36,1.36,0,0,0,0-2.71h-6.78v-1.35a1.36,1.36,0,1,0-2.71,0v2.71h-8.14V263.37h8.14v8.13a1.36,1.36,0,1,0,2.71,0v-6.78h6.78a1.36,1.36,0,0,0,0-2.71h-6.78a1.35,1.35,0,0,0-1.36-1.35h-10.84a1.35,1.35,0,0,0-1.36,1.35v15.53l-11.15,4.63a20.76,20.76,0,0,1-15.25.17l-20.94-8a2.19,2.19,0,0,1-1.26-1.2,2.3,2.3,0,0,1,0-1.8,2.21,2.21,0,0,1,2.91-1.26L1038,274.9a8.44,8.44,0,0,0,3.13.66h16.35a1.36,1.36,0,1,0,0-2.71h-16.18c-.18,0-.36,0-.54-.05a2,2,0,0,1,.45-4h10.52a9.58,9.58,0,0,0,4.27-1,29.29,29.29,0,0,1,13-3.06h.72a1.36,1.36,0,1,0,0-2.71H1069a31.82,31.82,0,0,0-14.17,3.35,6.91,6.91,0,0,1-3.06.72H1041.2a4.74,4.74,0,0,0-4.74,4.74,3.89,3.89,0,0,0,0,.49l-8.79-3.73a4.93,4.93,0,0,0-6.49,2.77Z"/><path class="cls-16" d="M1022.28,216.91a2.2,2.2,0,0,0-.06.37v32.53a1.35,1.35,0,0,0,.94,1.29l29.83,9.49a1.28,1.28,0,0,0,.82,0l29.82-9.49a1.34,1.34,0,0,0,.95-1.29V217.28a1.36,1.36,0,0,0-.95-1.29l-29.82-9.49a1.47,1.47,0,0,0-.83,0L1023.16,216l-.12.06-.16.08a1.71,1.71,0,0,0-.26.21.94.94,0,0,0-.1.1,1.4,1.4,0,0,0-.24.43v0Zm36.37-6L1033.3,219l-5.25-1.67,25.35-8.07Zm9.71,3.09L1043,222l-5.24-1.67,25.35-8.07Zm-43.43,5.16,7,2.23v9.86a1.35,1.35,0,0,0,1,1.29l2.48.79a1.4,1.4,0,0,0,.41.06,1.35,1.35,0,0,0,.4-2.64l-1.54-.49v-8l7,2.23v8l-1.4-.45a1.35,1.35,0,1,0-.82,2.58l3.16,1a1.41,1.41,0,0,0,.41.07,1.36,1.36,0,0,0,1.36-1.36v-9l7.68,2.44V247.1a1.36,1.36,0,1,0,2.71,0V227.76l22.1-7a1.36,1.36,0,0,0-.82-2.59l-22.64,7.2-5.92-1.88,25.35-8.07,9,2.88v30.55l-27.11,8.63v-4.93a1.36,1.36,0,0,0-2.71,0v4.93l-27.12-8.63Z"/><path class="cls-16" d="M1077.8,240.32a1.36,1.36,0,0,0-1.35,1.36v4.07a1.36,1.36,0,0,0,2.71,0v-4.07a1.36,1.36,0,0,0-1.36-1.36Z"/><path class="cls-16" d="M1072.38,241.68A1.35,1.35,0,0,0,1071,243v4.07a1.36,1.36,0,1,0,2.71,0V243a1.36,1.36,0,0,0-1.36-1.35Z"/><path class="cls-17" d="M403.3,164.61l-1.68-6.72a1,1,0,0,0,.81-1v-1.09a4.27,4.27,0,0,0-4.27-4.26h-7.65v-2.24a2.11,2.11,0,0,0-2.1-2.1h-39a2.11,2.11,0,0,0-2.1,2.1v18.42a1,1,0,1,0,2,0V149.31a.08.08,0,0,1,.07-.07h39a.08.08,0,0,1,.07.07v18.42a1,1,0,1,0,2,0v-1.15h12a3.32,3.32,0,0,1,3.16,2.3h-3.16a1,1,0,0,0-1,1v2.16a3.18,3.18,0,0,0,3.18,3.19h1.15v4.47h-2.65a6.43,6.43,0,0,0-12.16,0h-.49v-7.66a1,1,0,0,0-2,0v7.65H367.4a6.43,6.43,0,0,0-12.15,0h-5.84a.07.07,0,0,1-.07-.06v-2.24h4.4a1,1,0,1,0,0-2H344a1,1,0,0,0,0,2h3.32v2.24a2.11,2.11,0,0,0,2.1,2.1h5.48v.06a6.44,6.44,0,1,0,12.87,0v-.06h22.88v.06a6.44,6.44,0,1,0,12.87,0v-.06h3.32a1,1,0,0,0,1-1V169.9a5.35,5.35,0,0,0-4.54-5.29Zm-12.79-11h7.65a2.23,2.23,0,0,1,2.23,2.23v.07h-9.88Zm0,11v-6.64h9l1.66,6.64Zm-29.19,21.67a4.41,4.41,0,1,1,4.41-4.41,4.42,4.42,0,0,1-4.41,4.41Zm35.76,0a4.41,4.41,0,1,1,4.4-4.41,4.41,4.41,0,0,1-4.4,4.41Zm8.73-13h-1.15a1.14,1.14,0,0,1-1.15-1.15v-1.15h2.3v2.3Z"/><path class="cls-17" d="M361.32,179.72a2.1,2.1,0,1,0,2.1,2.09,2.1,2.1,0,0,0-2.1-2.09Z"/><path class="cls-17" d="M397.08,179.72a2.1,2.1,0,1,0,2.09,2.09,2.1,2.1,0,0,0-2.09-2.09Z"/><path class="cls-17" d="M385.16,175.38H370a1,1,0,0,0,0,2h15.17a1,1,0,1,0,0-2Z"/><path class="cls-17" d="M359.16,171.05h-13a1,1,0,1,0,0,2h13a1,1,0,0,0,0-2Z"/><path class="cls-17" d="M597.1,164.61l-1.68-6.72a1,1,0,0,0,.8-1v-1.09a4.26,4.26,0,0,0-4.26-4.26h-7.65v-2.24a2.11,2.11,0,0,0-2.1-2.1h-39a2.11,2.11,0,0,0-2.1,2.1v18.42a1,1,0,1,0,2,0V149.31a.08.08,0,0,1,.07-.07h39s.06,0,.06.07v18.42a1,1,0,1,0,2,0v-1.15h12a3.32,3.32,0,0,1,3.16,2.3h-3.16a1,1,0,0,0-1,1v2.16a3.18,3.18,0,0,0,3.18,3.19h1.15v4.47H597a6.43,6.43,0,0,0-12.16,0h-.48v-7.66a1,1,0,0,0-2,0v7.65H561.2a6.43,6.43,0,0,0-12.16,0h-5.83a.07.07,0,0,1-.07-.06v-2.24h4.4a1,1,0,1,0,0-2h-9.75a1,1,0,1,0,0,2h3.32v2.24a2.11,2.11,0,0,0,2.1,2.1h5.48v.06a6.44,6.44,0,1,0,12.87,0s0,0,0-.06h22.89v.06a6.44,6.44,0,1,0,12.87,0v-.06h3.31a1,1,0,0,0,1-1V169.9a5.35,5.35,0,0,0-4.54-5.29Zm-12.79-11H592a2.23,2.23,0,0,1,2.23,2.23v.07h-9.88Zm0,11v-6.64h9l1.66,6.64Zm-29.19,21.67a4.41,4.41,0,1,1,4.4-4.41,4.42,4.42,0,0,1-4.4,4.41Zm35.75,0a4.41,4.41,0,1,1,4.41-4.41,4.42,4.42,0,0,1-4.41,4.41Zm8.74-13h-1.15a1.14,1.14,0,0,1-1.15-1.15v-1.15h2.3v2.3Z"/><path class="cls-17" d="M555.12,179.72a2.1,2.1,0,1,0,2.1,2.09,2.1,2.1,0,0,0-2.1-2.09Z"/><path class="cls-17" d="M590.87,179.72a2.1,2.1,0,1,0,2.1,2.09,2.1,2.1,0,0,0-2.1-2.09Z"/><path class="cls-17" d="M579,175.38H563.79a1,1,0,1,0,0,2H579a1,1,0,0,0,0-2Z"/><path class="cls-17" d="M553,171.05H540a1,1,0,1,0,0,2h13a1,1,0,0,0,0-2Z"/><path class="cls-17" d="M790.1,164.61l-1.68-6.72a1,1,0,0,0,.8-1v-1.09a4.27,4.27,0,0,0-4.27-4.26H777.3v-2.24a2.11,2.11,0,0,0-2.1-2.1h-39a2.11,2.11,0,0,0-2.1,2.1v18.42a1,1,0,1,0,2,0V149.31s0-.07.06-.07h39a.08.08,0,0,1,.07.07v18.42a1,1,0,1,0,2,0v-1.15h12a3.33,3.33,0,0,1,3.16,2.3h-3.16a1,1,0,0,0-1,1v2.16a3.19,3.19,0,0,0,3.19,3.19h1.15v4.47H790a6.43,6.43,0,0,0-12.16,0h-.49v-7.66a1,1,0,0,0-2,0v7.65H754.2a6.43,6.43,0,0,0-12.16,0H736.2a.06.06,0,0,1-.06-.06v-2.24h4.4a1,1,0,0,0,0-2h-9.75a1,1,0,1,0,0,2h3.31v2.24a2.11,2.11,0,0,0,2.1,2.1h5.49v.06a6.43,6.43,0,1,0,12.86,0v-.06h22.89v.06a6.43,6.43,0,1,0,12.86,0v-.06h3.32a1,1,0,0,0,1-1V169.9a5.36,5.36,0,0,0-4.54-5.29Zm-12.8-11H785a2.23,2.23,0,0,1,2.24,2.23v.07H777.3Zm0,11v-6.64h9l1.66,6.64Zm-29.18,21.67a4.41,4.41,0,1,1,4.4-4.41,4.41,4.41,0,0,1-4.4,4.41Zm35.75,0a4.41,4.41,0,1,1,4.4-4.41,4.42,4.42,0,0,1-4.4,4.41Zm8.74-13h-1.15a1.15,1.15,0,0,1-1.16-1.15v-1.15h2.31v2.3Z"/><path class="cls-17" d="M748.12,179.72a2.1,2.1,0,1,0,2.1,2.09,2.1,2.1,0,0,0-2.1-2.09Z"/><path class="cls-17" d="M783.87,179.72a2.1,2.1,0,1,0,2.1,2.09,2.1,2.1,0,0,0-2.1-2.09Z"/><path class="cls-17" d="M772,175.38H756.79a1,1,0,1,0,0,2H772a1,1,0,1,0,0-2Z"/><path class="cls-17" d="M746,171.05H733a1,1,0,0,0,0,2h13a1,1,0,1,0,0-2Z"/><line class="cls-18" x1="411.48" y1="166.26" x2="413.48" y2="166.26"/><line class="cls-19" x1="419.1" y1="166.26" x2="425.67" y2="166.26"/><line class="cls-18" x1="428.48" y1="166.26" x2="430.48" y2="166.26"/><line class="cls-18" x1="320.95" y1="166.26" x2="322.95" y2="166.26"/><line class="cls-19" x1="328.58" y1="166.26" x2="335.14" y2="166.26"/><line class="cls-18" x1="337.96" y1="166.26" x2="339.96" y2="166.26"/><line class="cls-18" x1="216.13" y1="166.26" x2="218.13" y2="166.26"/><line class="cls-19" x1="223.75" y1="166.26" x2="230.32" y2="166.26"/><line class="cls-18" x1="233.13" y1="166.26" x2="235.13" y2="166.26"/><line class="cls-20" x1="179.01" y1="96.43" x2="179.01" y2="98.43"/><line class="cls-21" x1="179.01" y1="103.85" x2="179.01" y2="137.25"/><line class="cls-20" x1="179.01" y1="139.96" x2="179.01" y2="141.96"/><line class="cls-18" x1="125.85" y1="166.26" x2="127.85" y2="166.26"/><line class="cls-19" x1="133.48" y1="166.26" x2="140.04" y2="166.26"/><line class="cls-18" x1="142.86" y1="166.26" x2="144.86" y2="166.26"/><line class="cls-18" x1="515.06" y1="166.26" x2="517.06" y2="166.26"/><line class="cls-19" x1="522.69" y1="166.26" x2="529.25" y2="166.26"/><line class="cls-18" x1="532.07" y1="166.26" x2="534.07" y2="166.26"/><line class="cls-18" x1="608.3" y1="166.26" x2="610.3" y2="166.26"/><line class="cls-19" x1="615.93" y1="166.26" x2="622.5" y2="166.26"/><line class="cls-18" x1="625.31" y1="166.26" x2="627.31" y2="166.26"/><line class="cls-18" x1="705.09" y1="166.26" x2="707.09" y2="166.26"/><line class="cls-19" x1="712.72" y1="166.26" x2="719.28" y2="166.26"/><line class="cls-18" x1="722.1" y1="166.26" x2="724.1" y2="166.26"/><path class="cls-22" d="M755.77,140.21V116.29a5.94,5.94,0,0,1,5.94-5.94h55"/><path class="cls-22" d="M755.77,193.14v23.92a5.93,5.93,0,0,0,5.94,5.93h55"/><path class="cls-23" d="M135.2,75.86h-4.38V74.72H140.9v1.14h-4.38V87.18H135.2Z"/><path class="cls-23" d="M145,78.23a4.55,4.55,0,0,1,2.19-.48V79h-.31a3,3,0,0,0-2.31.9,3.63,3.63,0,0,0-.84,2.55v4.77h-1.26V77.82h1.21v1.83A3,3,0,0,1,145,78.23Z"/><path class="cls-23" d="M155.56,78.66a3.56,3.56,0,0,1,1,2.72v5.8h-1.22V85.72a2.83,2.83,0,0,1-1.25,1.14,4.31,4.31,0,0,1-2,.41,3.85,3.85,0,0,1-2.49-.75,2.56,2.56,0,0,1-.06-3.9,4.25,4.25,0,0,1,2.75-.73h3v-.57a2.37,2.37,0,0,0-.68-1.84,2.79,2.79,0,0,0-2-.63,5.12,5.12,0,0,0-1.71.29,4.42,4.42,0,0,0-1.41.81l-.57-.94a5.23,5.23,0,0,1,1.71-.94,6.68,6.68,0,0,1,2.1-.32A4,4,0,0,1,155.56,78.66Zm-1.43,7.13a3,3,0,0,0,1.14-1.42V82.84h-2.94c-1.6,0-2.4.56-2.4,1.67a1.53,1.53,0,0,0,.62,1.29,2.82,2.82,0,0,0,1.75.47A3.37,3.37,0,0,0,154.13,85.79Z"/><path class="cls-23" d="M167.55,78.77a4,4,0,0,1,1,3v5.43h-1.26v-5.3a3.13,3.13,0,0,0-.73-2.23,2.75,2.75,0,0,0-2.09-.76,3.18,3.18,0,0,0-2.39.89,3.4,3.4,0,0,0-.88,2.49v4.91H160V77.82h1.21v1.72a3.53,3.53,0,0,1,1.44-1.32,4.51,4.51,0,0,1,2.12-.47A3.83,3.83,0,0,1,167.55,78.77Z"/><path class="cls-23" d="M172.36,86.94a4.51,4.51,0,0,1-1.63-.83l.57-1a4.57,4.57,0,0,0,1.48.75,5.74,5.74,0,0,0,1.85.3,3.59,3.59,0,0,0,1.89-.4,1.29,1.29,0,0,0,.62-1.13,1,1,0,0,0-.34-.81,2.2,2.2,0,0,0-.86-.45,11.23,11.23,0,0,0-1.37-.29,16.62,16.62,0,0,1-1.83-.44,2.65,2.65,0,0,1-1.18-.76,2.06,2.06,0,0,1-.49-1.47,2.3,2.3,0,0,1,1-1.93,4.38,4.38,0,0,1,2.72-.74,7.11,7.11,0,0,1,1.82.24,5,5,0,0,1,1.49.63l-.55,1a4.75,4.75,0,0,0-2.76-.8,3.17,3.17,0,0,0-1.83.43,1.32,1.32,0,0,0-.61,1.12,1.13,1.13,0,0,0,.35.86,2.17,2.17,0,0,0,.86.47c.35.1.82.2,1.43.31a14.41,14.41,0,0,1,1.79.43,2.53,2.53,0,0,1,1.16.73,2,2,0,0,1,.48,1.42,2.27,2.27,0,0,1-1,2,4.87,4.87,0,0,1-2.84.72A7.15,7.15,0,0,1,172.36,86.94Z"/><path class="cls-23" d="M188,78.34A4.28,4.28,0,0,1,189.62,80a5.37,5.37,0,0,1,0,5A4.28,4.28,0,0,1,188,86.68a4.9,4.9,0,0,1-2.4.59,4.52,4.52,0,0,1-2.06-.47,3.81,3.81,0,0,1-1.5-1.38v5.22h-1.26V77.82H182v1.85a4,4,0,0,1,1.5-1.43,4.44,4.44,0,0,1,2.11-.49A4.81,4.81,0,0,1,188,78.34Zm-.7,7.36a3.22,3.22,0,0,0,1.26-1.3,4.24,4.24,0,0,0,0-3.8,3.26,3.26,0,0,0-1.26-1.29,3.69,3.69,0,0,0-3.57,0,3.28,3.28,0,0,0-1.24,1.29,4.15,4.15,0,0,0,0,3.8,3.24,3.24,0,0,0,1.24,1.3,3.77,3.77,0,0,0,3.57,0Z"/><path class="cls-23" d="M194.2,86.66a4.43,4.43,0,0,1-1.71-1.7,5.12,5.12,0,0,1,0-4.92,4.34,4.34,0,0,1,1.71-1.69,4.93,4.93,0,0,1,2.44-.6,5,5,0,0,1,2.44.6,4.38,4.38,0,0,1,1.7,1.69,5.27,5.27,0,0,1,0,4.92,4.48,4.48,0,0,1-1.7,1.7,4.88,4.88,0,0,1-2.44.61A4.83,4.83,0,0,1,194.2,86.66Zm4.23-1a3.21,3.21,0,0,0,1.23-1.3,3.92,3.92,0,0,0,.45-1.9,4,4,0,0,0-.45-1.91,3.25,3.25,0,0,0-1.23-1.29,3.79,3.79,0,0,0-3.58,0,3.3,3.3,0,0,0-1.25,1.29,4,4,0,0,0-.45,1.91,3.92,3.92,0,0,0,.45,1.9,3.26,3.26,0,0,0,1.25,1.3,3.79,3.79,0,0,0,3.58,0Z"/><path class="cls-23" d="M206.51,78.23a4.53,4.53,0,0,1,2.18-.48V79h-.3a3,3,0,0,0-2.32.9,3.67,3.67,0,0,0-.83,2.55v4.77H204V77.82h1.21v1.83A3.06,3.06,0,0,1,206.51,78.23Z"/><path class="cls-23" d="M216.31,86.61a2.21,2.21,0,0,1-.88.49,3.32,3.32,0,0,1-1.09.17,2.76,2.76,0,0,1-2-.71,2.7,2.7,0,0,1-.72-2V78.89h-1.67V77.82h1.67v-2h1.27v2h2.85v1.07h-2.85v5.59a1.77,1.77,0,0,0,.42,1.27,1.59,1.59,0,0,0,1.2.44,2.48,2.48,0,0,0,.76-.13,1.93,1.93,0,0,0,.63-.35Z"/><path class="cls-23" d="M226.43,82.89h-7.84a3.38,3.38,0,0,0,1.12,2.36,3.75,3.75,0,0,0,2.57.9,4,4,0,0,0,1.6-.31,3.37,3.37,0,0,0,1.26-.92l.72.82a4,4,0,0,1-1.56,1.14,5.29,5.29,0,0,1-2.06.39,5.17,5.17,0,0,1-2.55-.61A4.45,4.45,0,0,1,218,85a4.94,4.94,0,0,1-.62-2.46,5.14,5.14,0,0,1,.59-2.46,4.37,4.37,0,0,1,1.64-1.69,4.63,4.63,0,0,1,2.34-.6,4.58,4.58,0,0,1,2.34.6A4.36,4.36,0,0,1,225.86,80a5.09,5.09,0,0,1,.58,2.47Zm-6.8-3.2a3.4,3.4,0,0,0-1,2.26h6.64a3.4,3.4,0,0,0-1-2.26,3.45,3.45,0,0,0-4.56,0Z"/><path class="cls-17" d="M1023.68,313.36a6.37,6.37,0,0,1-2.49-2.42,7.12,7.12,0,0,1,0-6.93,6.35,6.35,0,0,1,2.5-2.43,7.8,7.8,0,0,1,6.3-.38,5.57,5.57,0,0,1,2.13,1.45l-.89.89a5.31,5.31,0,0,0-3.93-1.58,5.8,5.8,0,0,0-2.87.72,5.36,5.36,0,0,0-2,2,5.77,5.77,0,0,0,0,5.62,5.29,5.29,0,0,0,2,2,5.8,5.8,0,0,0,2.87.72,5.24,5.24,0,0,0,3.93-1.59l.89.89a5.69,5.69,0,0,1-2.13,1.45,7.31,7.31,0,0,1-2.75.51A7.15,7.15,0,0,1,1023.68,313.36Z"/><path class="cls-17" d="M1034.84,300h1.35v14.1h-1.35Z"/><path class="cls-17" d="M1039.93,301.66a.94.94,0,0,1-.28-.69.9.9,0,0,1,.28-.66,1,1,0,0,1,.7-.29,1,1,0,0,1,.71.28.87.87,0,0,1,.28.66,1,1,0,0,1-1.69.7Zm0,2.47h1.35v10H1040Z"/><path class="cls-17" d="M1053.76,309.54h-8.36a3.6,3.6,0,0,0,1.2,2.52,4,4,0,0,0,2.74,1,4.34,4.34,0,0,0,1.71-.33,3.73,3.73,0,0,0,1.35-1l.76.87a4.26,4.26,0,0,1-1.67,1.22,6,6,0,0,1-4.92-.24,4.67,4.67,0,0,1-1.85-1.81,5.24,5.24,0,0,1-.67-2.62,5.44,5.44,0,0,1,.64-2.63,4.66,4.66,0,0,1,1.75-1.8,5.11,5.11,0,0,1,5,0,4.65,4.65,0,0,1,1.73,1.79,5.53,5.53,0,0,1,.62,2.64Zm-7.25-3.41a3.66,3.66,0,0,0-1.11,2.41h7.09a3.66,3.66,0,0,0-1.11-2.41,3.68,3.68,0,0,0-4.87,0Z"/><path class="cls-17" d="M1064.62,305.14a4.28,4.28,0,0,1,1.11,3.19v5.79h-1.35v-5.66a3.33,3.33,0,0,0-.77-2.37,2.93,2.93,0,0,0-2.23-.82,3.4,3.4,0,0,0-2.55,1,3.61,3.61,0,0,0-.94,2.65v5.24h-1.35v-10h1.29V306a3.72,3.72,0,0,1,1.53-1.41,4.84,4.84,0,0,1,2.27-.51A4.12,4.12,0,0,1,1064.62,305.14Z"/><path class="cls-17" d="M1074.66,313.51a2.46,2.46,0,0,1-.94.53,3.77,3.77,0,0,1-1.17.18,2.94,2.94,0,0,1-2.16-.76,2.91,2.91,0,0,1-.76-2.15v-6h-1.79v-1.14h1.79v-2.19H1071v2.19h3v1.14h-3v6a1.92,1.92,0,0,0,.44,1.36,1.71,1.71,0,0,0,1.29.47,2.73,2.73,0,0,0,.8-.13,2.14,2.14,0,0,0,.68-.38Z"/><path class="cls-17" d="M1085.45,309.54h-8.36a3.6,3.6,0,0,0,1.2,2.52,4,4,0,0,0,2.74,1,4.34,4.34,0,0,0,1.71-.33,3.73,3.73,0,0,0,1.35-1l.76.87a4.26,4.26,0,0,1-1.67,1.22,6,6,0,0,1-4.92-.24,4.67,4.67,0,0,1-1.85-1.81,5.23,5.23,0,0,1-.66-2.62,5.44,5.44,0,0,1,.63-2.63,4.66,4.66,0,0,1,1.75-1.8,5.11,5.11,0,0,1,5,0,4.65,4.65,0,0,1,1.73,1.79,5.53,5.53,0,0,1,.62,2.64Zm-7.24-3.41a3.62,3.62,0,0,0-1.12,2.41h7.09a3.66,3.66,0,0,0-1.11-2.41,3.67,3.67,0,0,0-4.86,0Z"/><path class="cls-17" d="M1088.58,313.87a5.05,5.05,0,0,1-1.74-.89l.61-1.06a5.09,5.09,0,0,0,1.58.81,6.49,6.49,0,0,0,2,.31,3.76,3.76,0,0,0,2-.43,1.35,1.35,0,0,0,.65-1.2,1.1,1.1,0,0,0-.36-.87,2.25,2.25,0,0,0-.91-.47,12.47,12.47,0,0,0-1.46-.32,15.66,15.66,0,0,1-2-.46,2.8,2.8,0,0,1-1.26-.81,2.25,2.25,0,0,1-.53-1.58,2.47,2.47,0,0,1,1-2,4.67,4.67,0,0,1,2.9-.8,7.55,7.55,0,0,1,1.94.26,5.54,5.54,0,0,1,1.6.67l-.59,1.09a5.06,5.06,0,0,0-2.95-.86,3.33,3.33,0,0,0-1.94.46,1.38,1.38,0,0,0-.66,1.19,1.19,1.19,0,0,0,.37.92,2.48,2.48,0,0,0,.92.5,13.86,13.86,0,0,0,1.52.33,17.2,17.2,0,0,1,1.92.46,2.79,2.79,0,0,1,1.24.78,2.15,2.15,0,0,1,.51,1.52,2.42,2.42,0,0,1-1.09,2.08,5.22,5.22,0,0,1-3,.77A7.82,7.82,0,0,1,1088.58,313.87Z"/><path class="cls-17" d="M1029.82,324.34a2,2,0,0,0-.44,1.41v1.18h3.08v1.14h-3v8.85h-1.35v-8.85h-1.79v-1.14h1.79v-1.24a3,3,0,0,1,.78-2.16,3,3,0,0,1,2.24-.8,3.71,3.71,0,0,1,1.1.16,2.44,2.44,0,0,1,.89.47l-.45,1a2.25,2.25,0,0,0-1.49-.49A1.76,1.76,0,0,0,1029.82,324.34Zm6,.12a.94.94,0,0,1-.28-.69.9.9,0,0,1,.28-.66,1,1,0,0,1,.7-.29,1,1,0,0,1,.71.28.87.87,0,0,1,.28.66,1,1,0,0,1-1,1A.94.94,0,0,1,1035.78,324.46Zm0,2.47h1.35v10h-1.35Z"/><path class="cls-17" d="M1049,327.94a4.25,4.25,0,0,1,1.12,3.19v5.79h-1.35v-5.66a3.29,3.29,0,0,0-.78-2.37,2.91,2.91,0,0,0-2.22-.82,3.42,3.42,0,0,0-2.56,1,3.61,3.61,0,0,0-.94,2.65v5.24h-1.35v-10h1.29v1.84a3.72,3.72,0,0,1,1.53-1.41,4.84,4.84,0,0,1,2.27-.51A4.1,4.1,0,0,1,1049,327.94Z"/><path class="cls-17" d="M1060.27,327.83a3.77,3.77,0,0,1,1,2.9v6.19H1060v-1.56a3.06,3.06,0,0,1-1.34,1.22,4.65,4.65,0,0,1-2.1.44,4.13,4.13,0,0,1-2.66-.8,2.6,2.6,0,0,1-1-2.11,2.53,2.53,0,0,1,.92-2.05,4.49,4.49,0,0,1,2.93-.78H1060v-.61a2.54,2.54,0,0,0-.73-2,3,3,0,0,0-2.1-.67,5.58,5.58,0,0,0-1.83.31,4.62,4.62,0,0,0-1.5.87l-.61-1a5.56,5.56,0,0,1,1.83-1,7.19,7.19,0,0,1,2.24-.35A4.25,4.25,0,0,1,1060.27,327.83Zm-1.52,7.6a3.12,3.12,0,0,0,1.22-1.51v-1.63h-3.14c-1.71,0-2.56.59-2.56,1.78a1.65,1.65,0,0,0,.66,1.38,3,3,0,0,0,1.86.5A3.54,3.54,0,0,0,1058.75,335.43Z"/><path class="cls-17" d="M1065,322.82h1.35v14.1H1065Z"/><path class="cls-17" d="M1078.8,332.34h-8.36a3.55,3.55,0,0,0,1.19,2.52,4,4,0,0,0,2.74,1,4.34,4.34,0,0,0,1.71-.33,3.73,3.73,0,0,0,1.35-1l.76.87a4.3,4.3,0,0,1-1.66,1.22,5.64,5.64,0,0,1-2.2.42,5.54,5.54,0,0,1-2.73-.66,4.67,4.67,0,0,1-1.85-1.81,5.23,5.23,0,0,1-.66-2.62,5.44,5.44,0,0,1,.63-2.63,4.66,4.66,0,0,1,1.75-1.8,5.11,5.11,0,0,1,5,0,4.65,4.65,0,0,1,1.73,1.79,5.42,5.42,0,0,1,.62,2.64Zm-7.25-3.41a3.57,3.57,0,0,0-1.11,2.41h7.08a3.66,3.66,0,0,0-1.11-2.41,3.67,3.67,0,0,0-4.86,0Z"/><path class="cls-17" d="M1081.92,336.67a5.05,5.05,0,0,1-1.74-.89l.61-1.06a5.09,5.09,0,0,0,1.58.81,6.49,6.49,0,0,0,2,.31,3.74,3.74,0,0,0,2-.43,1.36,1.36,0,0,0,.65-1.2,1.1,1.1,0,0,0-.36-.87,2.25,2.25,0,0,0-.91-.47,12.47,12.47,0,0,0-1.46-.32,16.11,16.11,0,0,1-2-.46,2.86,2.86,0,0,1-1.26-.81,2.25,2.25,0,0,1-.53-1.58,2.47,2.47,0,0,1,1-2.05,4.68,4.68,0,0,1,2.91-.8,7.53,7.53,0,0,1,1.93.26,5.54,5.54,0,0,1,1.6.67l-.59,1.09a5,5,0,0,0-2.94-.86,3.34,3.34,0,0,0-2,.46,1.38,1.38,0,0,0-.66,1.19,1.23,1.23,0,0,0,.37.92,2.48,2.48,0,0,0,.92.5,13.86,13.86,0,0,0,1.52.33,17.2,17.2,0,0,1,1.92.46,2.79,2.79,0,0,1,1.24.78,2.13,2.13,0,0,1,.51,1.52,2.42,2.42,0,0,1-1.09,2.08,5.22,5.22,0,0,1-3,.77A7.82,7.82,0,0,1,1081.92,336.67Z"/><polygon class="cls-24" points="892.98 255.06 890.51 249.23 890.51 220.46 892.98 215.44 892.98 205.66 886.22 204.02 886.22 199.71 879.5 199.12 879.5 195.41 886.22 193.68 886.22 184.87 862 184.87 856.53 184.87 832.32 184.87 832.32 193.68 839.03 195.41 839.03 199.12 832.32 199.71 832.32 204.02 825.56 205.66 825.56 215.44 828.02 220.46 828.02 249.23 825.56 255.06 822.38 255.8 822.38 260.4 856.53 260.4 862 260.4 896.15 260.4 896.15 255.8 892.98 255.06"/><path class="cls-17" d="M876.34,188.68H842a1.14,1.14,0,1,0,0,2.28h34.32a1.14,1.14,0,0,0,0-2.28Z"/><path class="cls-17" d="M872.21,227v18.2a1.63,1.63,0,0,0,1.62,1.62h11a1.63,1.63,0,0,0,1.62-1.62V227a1.63,1.63,0,0,0-1.62-1.62h-11a1.63,1.63,0,0,0-1.62,1.62Zm12,17.54h-3.7v-5h3.7Zm0-7.31h-3.7v-5h3.7Zm-9.68-9.57h9.68v2.27h-9.68Zm0,4.55h3.7v5h-3.7Zm0,7.31h3.7v5h-3.7Z"/><path class="cls-17" d="M844.53,225.34h-11a1.63,1.63,0,0,0-1.63,1.62v18.2a1.63,1.63,0,0,0,1.63,1.62h11a1.62,1.62,0,0,0,1.62-1.62V227a1.62,1.62,0,0,0-1.62-1.62Zm-6.64,19.16H834.2v-5h3.69Zm0-7.31H834.2v-5h3.69Zm6,7.31h-3.7v-5h3.7Zm0-7.31h-3.7v-5h3.7Zm0-7.3H834.2v-2.27h9.67Z"/><path class="cls-17" d="M895,254.25h-1.77v-2.72a2.28,2.28,0,0,0-1.41-2.12V220.18a7.86,7.86,0,0,0,2-5.29v-.46a1.14,1.14,0,0,0-2.28,0v.46a5.58,5.58,0,0,1-11.15,0v-9.23h9.81a1.35,1.35,0,0,1,1.34,1.35v2.1a1.14,1.14,0,1,0,2.28,0V207a3.63,3.63,0,0,0-3.62-3.63h-3.09v-2.72a2.3,2.3,0,0,0-2.3-2.3h-4.42V196h4.42a2.3,2.3,0,0,0,2.3-2.3V186a2.3,2.3,0,0,0-2.3-2.29H833.48a2.3,2.3,0,0,0-2.3,2.29v7.73a2.3,2.3,0,0,0,2.3,2.3h4.41v2.38h-4.41a2.3,2.3,0,0,0-2.3,2.3v2.72h-3.09a3.64,3.64,0,0,0-3.63,3.63v7.88a7.86,7.86,0,0,0,2,5.29v29.23a2.3,2.3,0,0,0-1.41,2.12v2.72h-1.77a2.3,2.3,0,0,0-2.29,2.3v2.7a2.3,2.3,0,0,0,2.29,2.3h33.19a1.14,1.14,0,0,0,0-2.28H823.33s0,0,0,0v-2.7s0,0,0,0H895l0,0v2.7l0,0H861.84a1.14,1.14,0,1,0,0,2.28H895a2.3,2.3,0,0,0,2.3-2.3v-2.7a2.3,2.3,0,0,0-2.3-2.3Zm-9-31.51a8,8,0,0,0,3.52-.83v27.32H869V227a1.66,1.66,0,0,0-1.66-1.65H851.07a1.65,1.65,0,0,0-1.65,1.65v22.24H828.8V221.91A7.86,7.86,0,0,0,839,219a7.86,7.86,0,0,0,13.44,0,7.85,7.85,0,0,0,13.43,0,7.85,7.85,0,0,0,13.43,0,7.86,7.86,0,0,0,6.72,3.78Zm-19.39,4.88v21.61h-6.34V227.62Zm-8.62,0v21.61H851.7V227.62Zm-17.87-12.73v-9.23h11.15v9.23a5.58,5.58,0,0,1-11.15,0Zm13.44,0v-9.23h11.15v9.23a5.58,5.58,0,0,1-11.15,0Zm13.43,0v-9.23h11.15v9.23a5.58,5.58,0,0,1-11.15,0ZM833.48,193.7l0,0V186H884.9v7.73s0,0,0,0ZM878.19,196v2.38h-38V196Zm-44.73,4.68,0,0h51.41s0,0,0,0v2.72H833.46ZM826.74,207a1.36,1.36,0,0,1,1.35-1.35h9.8v9.23a5.58,5.58,0,0,1-11.15,0ZM891,254.25h-63.6v-2.72l0,0H891l0,0Z"/><path class="cls-25" d="M878,93.12l3.86,1.35,3.92-3.08,1-4.21-8.16-12.91-.79-5.73-45.92.39v4.95l-8.09,12.86s-.79,8.44,3.46,7.73,5.24-2.09,5.24-2.09l-.61,19.39-8.15.1v4.25l3.32.79-.25,15.72h5.79a8.16,8.16,0,0,0-2,5.19,6.4,6.4,0,0,0,6.44,6.54,6.48,6.48,0,0,0,6.51-5.87c0-2.29-2-5.79-2-5.79h41.26V117.36l3.85-.89v-3.71l-8.95-.89Zm-1.19,19H833.35V93.32c5.77,3.72,8.27-1.93,8.27-1.93,4.55,5.34,8.91.59,8.91.59,4.94,4.55,9-.59,9-.59,2.08,6,9.6,1,9.6,1,2.57,2.57,7.71.94,7.71.94Z"/><path class="cls-17" d="M837.11,134.06a3.76,3.76,0,1,0,3.76,3.76,3.77,3.77,0,0,0-3.76-3.76Zm0,5.12a1.36,1.36,0,1,1,1.36-1.36,1.36,1.36,0,0,1-1.36,1.36Z"/><path class="cls-17" d="M894.69,105.27h-4.48a1.22,1.22,0,0,0-1.05.62L886.31,111h-7.69V94.47a5.59,5.59,0,0,0,3.27,1,5.68,5.68,0,0,0,5.68-5.68v-3.2a1.19,1.19,0,0,0-.21-.68l-8.1-11.85V68.73a1.2,1.2,0,0,0-1.2-1.2H840.31a1.2,1.2,0,0,0,0,2.4h36.55v3.35H833.19V69.93h2.64a1.2,1.2,0,1,0,0-2.4H832a1.2,1.2,0,0,0-1.2,1.2v5.38L822.68,86a1.27,1.27,0,0,0-.21.68v3.2a5.67,5.67,0,0,0,9,4.63V111h-7.76a1.2,1.2,0,0,0-1.2,1.2v4.57a1.2,1.2,0,0,0,1.2,1.2h2v14.7a1.2,1.2,0,0,0,1.2,1.2h3.73a7.6,7.6,0,1,0,13,0h10.9a12.72,12.72,0,0,0,25.32,0h3.33a1.19,1.19,0,0,0,1.2-1.2V118H887a1.2,1.2,0,0,0,1.2-1.2v-4.26l2.71-4.87h3.77a1.2,1.2,0,1,0,0-2.4Zm-9.52-15.43a3.28,3.28,0,1,1-6.55,0v-2h6.55Zm-7.75-14.16,6.68,9.76h-5.85l-3.59-9.76ZM837.11,95.52a4.71,4.71,0,0,0,.53,0,23.52,23.52,0,0,0,3.91,2.77l-.52,7.49a1.21,1.21,0,0,0,2,1l6.07-5.24a1.1,1.1,0,0,0,.2-.23c.53.12,1.06.22,1.61.31l3,7.27a1.2,1.2,0,0,0,2.21,0l3.08-7.39c.46-.09.91-.2,1.37-.31a1.42,1.42,0,0,0,.25.3l6.1,5.27a1.21,1.21,0,0,0,2-1l-.52-7.61a19.94,19.94,0,0,0,3.8-2.65,6.3,6.3,0,0,0,.75,0,5.65,5.65,0,0,0,3.28-1V111H833.83V94.47a5.65,5.65,0,0,0,3.28,1Zm-3.28-5.68v-2h6.56v2a3.28,3.28,0,1,1-6.56,0Zm9.79,13.2.25-3.59a26.68,26.68,0,0,0,2.68,1.06Zm10-1.16c.46,0,.94,0,1.41,0s.94,0,1.43-.06L855,105.27Zm9.63-1.51c1-.33,1.91-.7,2.82-1.1l.26,3.75Zm6.42-10.53v-2h6.56v2a3.28,3.28,0,1,1-6.56,0Zm2.44-14.16,3.6,9.76h-6.27l-2-9.76Zm-11.4,0h4.23L867,85.44H860.7Zm0,12.16h6.56v2a3.28,3.28,0,1,1-6.56,0Zm-9-12.16h6.56v9.76h-6.56Zm0,12.16h6.56v2a3.28,3.28,0,1,1-6.56,0Zm-1.2,5.48a5.66,5.66,0,0,0,9,0,5.66,5.66,0,0,0,9,0,5.59,5.59,0,0,0,1.19,1.14C866.28,97,860,99.52,855,99.52a25.16,25.16,0,0,1-14.74-5,5.67,5.67,0,0,0,1.31-1.23,5.65,5.65,0,0,0,8.95,0Zm-5.42-17.64h4.23v9.76h-6.28Zm-2.33,12.16h6.56v2a3.28,3.28,0,1,1-6.56,0Zm-.12-12.16-2.06,9.76h-6.26l3.6-9.76Zm-10,0h2.77l-3.6,9.76H826Zm-4.47,17.44a3.28,3.28,0,0,1-3.28-3.28v-2h6.56v2a3.28,3.28,0,0,1-3.28,3.28Zm9,49.9a5.2,5.2,0,1,1,5.2-5.2,5.2,5.2,0,0,1-5.2,5.2Zm19.82-9.12h6.69a3.29,3.29,0,0,0,.19.47l-4.72,4.73a10.33,10.33,0,0,1-2.16-5.2Zm6.88-2.87a4,4,0,0,0-.19.48h-6.69a10.33,10.33,0,0,1,2.16-5.2Zm-3-6.41a10.26,10.26,0,0,1,5.19-2.16v6.68a3.9,3.9,0,0,0-.47.2ZM866,143a10.26,10.26,0,0,1-5.19-2.16l4.72-4.72a3.9,3.9,0,0,0,.47.2Zm1.2-8.89a1.36,1.36,0,1,1,1.36-1.36,1.36,1.36,0,0,1-1.36,1.36Zm1.2-4.92v-6.68a10.26,10.26,0,0,1,5.19,2.16l-4.72,4.72a3.9,3.9,0,0,0-.47-.2Zm0,13.81v-6.68a3.9,3.9,0,0,0,.47-.2l4.72,4.72a10.26,10.26,0,0,1-5.19,2.16Zm6.89-3.85-4.72-4.73a3.29,3.29,0,0,0,.19-.47h6.68a10.23,10.23,0,0,1-2.15,5.2Zm-4.53-7.59a4,4,0,0,0-.19-.48l4.72-4.72a10.23,10.23,0,0,1,2.15,5.19h-6.68Zm15.07-15.91H869.1a1.2,1.2,0,0,0,0,2.4H882v13.51h-2.13a12.72,12.72,0,0,0-25.32,0H841.59a.86.86,0,0,0-.23,0,7.6,7.6,0,0,0-8.5,0,.86.86,0,0,0-.23,0h-4.56V118h36.55a1.2,1.2,0,1,0,0-2.4H824.87v-2.17h60.94Z"/><path class="cls-26" d="M634.67,186.22H696.6V133.83s2.51,1.93,4.45,0,0-4.16,0-4.16l-35.34-18-35.79,18.4s-1.88,5.34,4.55,4.55Z"/><path class="cls-17" d="M701.05,127.86l-3.59-1.8a1.3,1.3,0,1,0-1.16,2.33l3.58,1.79a1.6,1.6,0,0,1-.72,3,1.58,1.58,0,0,1-.71-.17L666.3,117a1.31,1.31,0,0,0-1.16,0l-23.37,11.69a1.29,1.29,0,0,0-.59,1.74,1.31,1.31,0,0,0,1.75.58l22.79-11.39,29.86,14.93V187a1.3,1.3,0,1,0,2.59,0V135.7a4.2,4.2,0,0,0,2.88-7.84Z"/><path class="cls-17" d="M682.59,148H648.84a1.3,1.3,0,1,0,0,2.59h33.75a1.3,1.3,0,1,0,0-2.59Z"/><path class="cls-17" d="M682.59,153.19H648.84a1.3,1.3,0,1,0,0,2.6h33.75a1.3,1.3,0,0,0,0-2.6Z"/><path class="cls-17" d="M682.59,158.38H648.84a1.3,1.3,0,1,0,0,2.6h33.75a1.3,1.3,0,0,0,0-2.6Z"/><path class="cls-17" d="M699.6,185.65H689.09V145.4h1.29a1.3,1.3,0,0,0,1.3-1.3v-5.19a1.3,1.3,0,0,0-1.3-1.3h-7.79a1.3,1.3,0,0,0,0,2.6h6.5v2.59H642.35v-2.59h35a1.3,1.3,0,0,0,0-2.6H641.05a1.3,1.3,0,0,0-1.3,1.3v5.19a1.3,1.3,0,0,0,1.3,1.3h1.3v40.25h-6.5V134.52l3.18-1.58a1.3,1.3,0,0,0-1.16-2.33L633,133.05a1.6,1.6,0,0,1-2.15-.71,1.65,1.65,0,0,1-.17-.72,1.6,1.6,0,0,1,.89-1.44l34.17-17.08,26.68,13.34a1.28,1.28,0,0,0,1.74-.58,1.3,1.3,0,0,0-.58-1.74L666.3,110.49a1.31,1.31,0,0,0-1.16,0l-34.75,17.37a4.2,4.2,0,0,0,2.87,7.84v50h-1.45c-.54,0-1,.53-1,1.35s.45,1.25,1,1.25H699.6c.55,0,1-.52,1-1.37S700.15,185.65,699.6,185.65ZM644.94,145.4h41.55v18.18H644.94Zm0,20.77h41.55v19.48h-3.9V171.37a1.3,1.3,0,0,0-1.29-1.3h-7.79a1.3,1.3,0,0,0-1.3,1.3v6.49H657.93a1.3,1.3,0,0,0-1.3,1.3v6.49H644.94Zm14.28,19.48v-5.19h5.2v5.19Zm7.79,0v-5.19h5.2v5.19Zm13-5.19v5.19h-5.2v-5.19Zm-5.2-2.6v-5.19H680v5.19Z"/><polygon class="cls-27" points="438.79 187.05 508.04 187.05 508.04 153.58 470.85 153.58 470.65 135.92 473.02 137.19 474.41 132.56 471.47 128.78 471.47 116.61 472.31 115.03 472.31 111.86 462.98 111.86 463.13 115.03 464.35 116.76 464.35 123.14 454.77 115.72 435.23 131.9 436.02 137.19 438.89 136.6 438.79 187.05"/><path class="cls-17" d="M456.45,115.64a2.6,2.6,0,0,0-3.36,0l-18,15.19a2.23,2.23,0,0,0-.8,1.71V136a2.23,2.23,0,0,0,3.57,1.79V186h-.1a1.15,1.15,0,0,0,0,2.29h71.52a1.14,1.14,0,0,0,0-2.28V154.43a2.75,2.75,0,0,0-2.75-2.75h-14a1.15,1.15,0,0,0,0,2.29h14a.45.45,0,0,1,.46.46V186h-5.32v-20.4a2,2,0,0,0,1.71-1.93v-3.08a1.94,1.94,0,0,0-1.94-1.94H477.29a1.94,1.94,0,0,0-1.94,1.94v3.08a1.94,1.94,0,0,0,1.48,1.88V186h-5.09V154h15.48a1.15,1.15,0,0,0,0-2.29H471.74V137.81a2.24,2.24,0,0,0,3.57-1.79v-3.48a2.23,2.23,0,0,0-.8-1.71l-2.2-1.85v-3.81a1.14,1.14,0,0,0-2.28,0v1.89c-1.51-1.27-2.65-2.22-4.24-3.57v-6.18H470v2.54a1.14,1.14,0,1,0,2.28,0v-2.59a1.85,1.85,0,0,0,1.44-1.8V112.2a1.85,1.85,0,0,0-1.85-1.85h-8a1.85,1.85,0,0,0-1.85,1.85v3.26a1.84,1.84,0,0,0,1.44,1.8v4.32ZM499.38,186H479.11v-3.38h20.27Zm0-5.67H479.11v-3.38h20.27Zm0-5.66H479.11v-3.39h20.27Zm0-5.67H479.11v-3.39h20.27Zm-21.75-8.07h23.46v2.4H477.63ZM461.19,186H448.35V165.57h12.84Zm0-22.67H448.35v-2.4h12.84Zm8.27-10.47V186h-6V160.89a2.28,2.28,0,0,0-2.28-2.28H448.35a2.29,2.29,0,0,0-2.28,2.28V186h-6V135.9l14.47-12.17a.33.33,0,0,1,.42,0l14.48,12.17ZM473,132.58Zm-8.69-20h7.12V115h-7.12ZM473,132.56v3.36L456.45,122a2.6,2.6,0,0,0-3.36,0l-16.57,13.94v-3.36l18-15.17a.33.33,0,0,1,.42,0l18,15.17Z"/><path class="cls-17" d="M457.5,176.91h1a1.14,1.14,0,1,0,0-2.28h-1a1.14,1.14,0,1,0,0,2.28Z"/><path class="cls-17" d="M448.15,142.78a6.62,6.62,0,1,0,6.62-6.62,6.63,6.63,0,0,0-6.62,6.62Zm5.48,4.18a4.32,4.32,0,0,1-3-3h3Zm0-5.32h-3a4.35,4.35,0,0,1,3-3Zm2.28-3a4.36,4.36,0,0,1,3,3h-3Zm0,5.33h3a4.33,4.33,0,0,1-3,3Z"/><path class="cls-28" d="M242.47,162.17V187h69V162.17s5.34.09,3.42-4.26l-37.68-23.27-9.66,6.23-1.32-25a3.23,3.23,0,0,0,1-4h-7.71s-1.22,1.18.19,3.75L259.44,145l-6.14,4.23L252.11,116s1.79-.89.6-4.55h-7.12a4.23,4.23,0,0,0,.2,4.06l-.5,38.48-5.17,3.9S237.38,163.21,242.47,162.17Z"/><path class="cls-17" d="M315,156.89l-35.1-22.52a5,5,0,0,0-5.36,0l-6.28,4-.15-7.55a1.14,1.14,0,0,0-1.14-1.11h0a1.12,1.12,0,0,0-1.11,1.16l.18,8.95-5.37,3.44.55-26.46h4.35l.18,8.75a1.14,1.14,0,1,0,2.28,0l-.19-9a1.63,1.63,0,0,0,.7-1.35V112a1.65,1.65,0,0,0-1.65-1.66h-7.09A1.66,1.66,0,0,0,258.1,112v3.16a1.66,1.66,0,0,0,.8,1.42l-.57,28.18-4,2.57-.63-30.82a1.66,1.66,0,0,0,.7-1.35V112a1.66,1.66,0,0,0-1.66-1.66h-7.09A1.65,1.65,0,0,0,244,112v3.16a1.66,1.66,0,0,0,.8,1.42L244,153.94l-4.6,2.95a3.45,3.45,0,0,0,2.17,6.35v22.63a1.14,1.14,0,0,0,.14,2.27h70.93a1.14,1.14,0,0,0,.15-2.27V163.24l.29,0a3.46,3.46,0,0,0,1.88-6.37Zm-54.61-44.26h5.85v1.92h-5.85Zm-14.11,0h5.84v1.92h-5.84Zm5.8,36.15-5.73,3.68.72-35.63h4.36Zm39.67,37.08H262.68v-3.33h29.06Zm0-5.61H262.68v-3.33h29.06Zm0-5.61H262.68v-3.33h29.06Zm0-5.61H262.68v-3.32h29.06Zm18.8,16.83H294V165.63a2,2,0,0,0,1.46-1.93V161a2,2,0,0,0-2-2H279.87a1.14,1.14,0,1,0,0,2.27h13.34v2.16h-32v-2.16h13.34a1.14,1.14,0,1,0,0-2.27H260.94a2,2,0,0,0-2,2v2.7a2,2,0,0,0,1.47,1.93v20.23H243.88V162.25l33.33-21.38,33.33,21.38Zm3.57-25.42a1.19,1.19,0,0,1-1.63.35l-34.66-22.23a1.14,1.14,0,0,0-1.23,0l-34.66,22.23a1.18,1.18,0,1,1-1.27-2l35.1-22.52a2.71,2.71,0,0,1,2.9,0l35.1,22.52a1.19,1.19,0,0,1,.35,1.63Z"/><path class="cls-29" d="M43.48,155.33v30.89h75.58V128.09s.06-16.42-15.9-16.42S87.4,128.29,87.4,128.29V145.6H55.77Z"/><path class="cls-17" d="M82.5,154.11H68.35l-9.12-7.29h7.48a1.22,1.22,0,0,0,0-2.43c-6.13.07-11.13-.19-11.7.27C42.39,155,42.4,154.28,42.4,155.33v31.59a1.22,1.22,0,0,0,1.22,1.22H82.5a1.22,1.22,0,1,0,0-2.43H69.14V156.54H82.5a1.22,1.22,0,1,0,0-2.43ZM54.25,177.2l-4.56,6.08V171.12Zm-3.34-8.51h9.72l-4.86,6.49Zm0,17,4.86-6.48,4.86,6.48Zm10.93-2.43-4.55-6.08,4.55-6.08Zm4.87,2.43H64.28c0-19.65,0-18.34-.08-18.66a1.23,1.23,0,0,0-1.14-.79c-15,0-15.16-.24-15.64.62a1.2,1.2,0,0,0-.15.45s0,.13,0,.15v17a1.21,1.21,0,0,0,.7,1.1l-.09.12h-3v-29.8l10.94-8.75,10.94,8.75Z"/><path class="cls-17" d="M99.52,132.24a1.22,1.22,0,0,0-1.22,1.21v48.61a1.22,1.22,0,1,0,2.43,0v-1.21h4.86v1.21a1.22,1.22,0,1,0,2.43,0V133.45a1.22,1.22,0,0,0-2.43,0v1.22h-4.86v-1.22a1.21,1.21,0,0,0-1.21-1.21Zm6.07,46.18h-4.86v-4.86h4.86Zm0-7.3h-4.86v-4.86h4.86Zm0-7.29h-4.86V159h4.86Zm0-7.29h-4.86v-4.86h4.86Zm0-7.29h-4.86v-4.86h4.86Zm0-12.15V142h-4.86V137.1Z"/><path class="cls-17" d="M106.81,125a1.22,1.22,0,0,0,1.21-1.22v-3.65a4.86,4.86,0,0,0-9.72,0v3.65A1.22,1.22,0,0,0,99.52,125Zm-6.08-4.87a2.43,2.43,0,0,1,4.86,0v2.44h-4.86Z"/><path class="cls-17" d="M49.69,156.54v6.08a1.22,1.22,0,0,0,1.22,1.21h9.72a1.21,1.21,0,0,0,1.21-1.21v-6.08a1.21,1.21,0,0,0-1.21-1.21H50.91a1.22,1.22,0,0,0-1.22,1.21Zm2.43,1.22h7.29v3.64H52.12Z"/><path class="cls-17" d="M82.5,161.4H72.78a1.22,1.22,0,0,0-1.21,1.22v12.15A1.22,1.22,0,0,0,72.78,176H82.5a1.22,1.22,0,0,0,1.22-1.22V162.62a1.22,1.22,0,0,0-1.22-1.22Zm-6.07,12.16H74v-3.65h2.43Zm0-6.08H74v-3.65h2.43Zm4.86,6.08H78.86v-3.65h2.43Zm0-6.08H78.86v-3.65h2.43Z"/><path class="cls-17" d="M82.5,144.39H71.57a1.22,1.22,0,1,0,0,2.43H82.5a1.22,1.22,0,1,0,0-2.43Z"/><path class="cls-17" d="M118,119.12l0-.05h0a17.17,17.17,0,0,0-4.1-4.86h0l-.06,0h0a1.2,1.2,0,0,0-2,.92,1.19,1.19,0,0,0,.41.89.08.08,0,0,1,0,0,13.44,13.44,0,0,1,3.75,4.48,14.57,14.57,0,0,1,1.74,6.9H96.35a1.22,1.22,0,1,0,0,2.43h21.4v4.86h-6.08a1.22,1.22,0,0,0,0,2.43h6.08V142h-2.43a1.22,1.22,0,1,0,0,2.43h2.43v4.86h-6.08a1.22,1.22,0,0,0,0,2.43h6.08v4.86h-2.43a1.22,1.22,0,1,0,0,2.43h2.43v4.86h-6.08a1.22,1.22,0,0,0,0,2.43h6.08v4.86h-2.43a1.22,1.22,0,1,0,0,2.44h2.43v4.86h-6.08a1.22,1.22,0,0,0,0,2.43h6.08v4.86H88.58v-4.86h6.08a1.22,1.22,0,0,0,0-2.43H88.58v-4.86H91a1.22,1.22,0,1,0,0-2.44H88.58v-4.86h6.08a1.22,1.22,0,0,0,0-2.43H88.58V159H91a1.22,1.22,0,1,0,0-2.43H88.58v-4.86h6.08a1.22,1.22,0,0,0,0-2.43H88.58v-4.86H91A1.22,1.22,0,1,0,91,142H88.58V137.1h6.08a1.22,1.22,0,0,0,0-2.43H88.58v-4.86H91a1.22,1.22,0,1,0,0-2.43H88.58a14.6,14.6,0,0,1,18.68-14,1.21,1.21,0,0,0,1.51-.83,1.18,1.18,0,0,0-.1-.92,1.19,1.19,0,0,0-.72-.58,17,17,0,0,0-21.8,16.33v59.54a1.22,1.22,0,0,0,1.22,1.22H119a1.22,1.22,0,0,0,1.22-1.22V127.38A17,17,0,0,0,118,119.12Z"/><path class="cls-30" d="M151.9,148.42V172h-2.27c-1.49,0-2.28.74-2.28,4.37h4.55v4h7.23s.12,6.53,5.79,6.53,5.48-5.84,5.48-5.84l24.73.1s.63,6.24,5.55,6.24,5.53-4.85,5.34-6.53l4.55-.3V169.34a6,6,0,0,0-4.65-4.05l-1.93-8s2.32-1.91-1.53-4.81h-9.11l-.59-4Z"/><path class="cls-17" d="M206.9,164.61l-1.68-6.72a1,1,0,0,0,.8-1v-1.09a4.26,4.26,0,0,0-4.26-4.26h-7.65v-2.24a2.11,2.11,0,0,0-2.1-2.1H153a2.11,2.11,0,0,0-2.1,2.1v18.42a1,1,0,1,0,2,0V149.31a.08.08,0,0,1,.07-.07h39a.08.08,0,0,1,.07.07v18.42a1,1,0,1,0,2,0v-1.15h12a3.32,3.32,0,0,1,3.16,2.3h-3.16a1,1,0,0,0-1,1v2.16a3.18,3.18,0,0,0,3.18,3.19h1.15v4.47h-2.66a6.42,6.42,0,0,0-12.15,0h-.49v-7.66a1,1,0,0,0-2,0v7.65H171a6.43,6.43,0,0,0-12.15,0H153a.07.07,0,0,1-.07-.06v-2.24h4.4a1,1,0,1,0,0-2h-9.75a1,1,0,1,0,0,2h3.32v2.24a2.11,2.11,0,0,0,2.1,2.1h5.48v.06a6.44,6.44,0,1,0,12.87,0s0,0,0-.06h22.89v.06a6.44,6.44,0,1,0,12.87,0v-.06h3.32a1,1,0,0,0,1-1V169.9a5.35,5.35,0,0,0-4.54-5.29Zm-12.79-11h7.65a2.23,2.23,0,0,1,2.23,2.23v.07h-9.88Zm0,11v-6.64h9l1.66,6.64Zm-29.19,21.67a4.41,4.41,0,1,1,4.41-4.41,4.42,4.42,0,0,1-4.41,4.41Zm35.76,0a4.41,4.41,0,1,1,4.4-4.41,4.42,4.42,0,0,1-4.4,4.41Zm8.73-13h-1.15a1.14,1.14,0,0,1-1.15-1.15v-1.15h2.3v2.3Z"/><path class="cls-17" d="M164.92,179.72a2.1,2.1,0,1,0,2.1,2.09,2.1,2.1,0,0,0-2.1-2.09Z"/><path class="cls-17" d="M200.68,179.72a2.1,2.1,0,1,0,2.09,2.09,2.1,2.1,0,0,0-2.09-2.09Z"/><path class="cls-17" d="M188.76,175.38H173.59a1,1,0,0,0,0,2h15.17a1,1,0,0,0,0-2Z"/><path class="cls-17" d="M162.76,171.05h-13a1,1,0,1,0,0,2h13a1,1,0,0,0,0-2Z"/></g></g></svg>